<?xml version="1.0" standalone="no"?>
<svg id="SvgjsSvg1001" width="600" height="600" xmlns="http://www.w3.org/2000/svg" version="1.1" xmlns:xlink="http://www.w3.org/1999/xlink" xmlns:svgjs="http://svgjs.com/svgjs" class="svg-paper" viewBox="0 0 600 600"><title id="SvgjsTitle7773">x=max(sqrt(x*x + y*y),sin(cos(y)))|y=sqrt(x*x + y*y)|dTest=0.0|sd=0.2|sm=0.2|ts=0.05 | generated with FlowLines</title><style>*{fill:none;stroke:#777}</style><g id="SvgjsG7774"><polyline id="SvgjsPolyline7775" points="0,521.08 519.73,1.35"   /><polyline id="SvgjsPolyline7776" points="0,538.05 252.44,285.61 280.56,258.59 537.23,1.91"   /><polyline id="SvgjsPolyline7777" points="0,504.11 502.76,1.35"   /><polyline id="SvgjsPolyline7778" points="0,555.02 252.48,302.62 261.6,294.83 268.94,289.62 279.27,283.52 300.54,272.42 308.06,267.48 314.95,261.7 575.89,0.79"   /><polyline id="SvgjsPolyline7779" points="0.43,546.34 248.63,298.15 259.83,288.19 266.95,282.68 286.4,268.62 291.05,264.83 297.69,258.76 554.38,2.08"   /><polyline id="SvgjsPolyline7780" points="0,487.14 485.79,1.35"   /><polyline id="SvgjsPolyline7781" points="0,571.99 254.56,317.43 258.96,313.35 266.05,307.82 271.12,304.6 276.43,301.82 281.97,299.53 290.64,297.15 308.5,294.93 314.31,293.45 319.93,291.36 325.31,288.7 330.41,285.55 335.23,281.98 339.74,278.03 598.57,19.26"   /><polyline id="SvgjsPolyline7782" points="0.52,560.7 253.06,308.37 262.45,300.92 267.49,297.66 272.74,294.76 280.98,291.13 301.02,284.88 312.16,280.43 320.01,276.05 324.87,272.54 329.42,268.62 596.73,1.36"   /><polyline id="SvgjsPolyline7783" points="0,470.17 468.82,1.35"   /><polyline id="SvgjsPolyline7784" points="0,588.96 263.06,325.93 267.56,321.96 272.37,318.38 280.15,313.87 285.67,311.51 291.39,309.72 309.07,306.4 314.87,304.87 320.52,302.83 325.96,300.32 331.18,297.36 336.16,294.01 343.15,288.35 599.93,31.77"   /><polyline id="SvgjsPolyline7785" points="0,453.2 451.85,1.35"   /><polyline id="SvgjsPolyline7786" points="6.37,599.57 273.7,332.33 280.71,326.69 285.78,323.48 291.1,320.73 299.45,317.36 316.44,311.44 327.28,306.3 334.91,301.54 344.33,294.12 599.02,39.7"   /><polyline id="SvgjsPolyline7787" points="0,436.22 434.88,1.35"   /><polyline id="SvgjsPolyline7788" points="23.34,599.57 284.27,338.65 291.11,332.81 298.59,327.82 322.53,315.34 330.26,310.74 337.64,305.59 346.83,297.88 599.32,45.5"   /><polyline id="SvgjsPolyline7789" points="0,419.25 417.9,1.35"   /><polyline id="SvgjsPolyline7790" points="40.31,599.57 299.12,340.77 303.57,336.75 310.68,331.24 335.29,314.08 342.28,308.41 348.92,302.35 599.25,52.04"   /><polyline id="SvgjsPolyline7791" points="0,402.28 400.93,1.35"   /><polyline id="SvgjsPolyline7792" points="57.28,599.57 318.2,338.65 340.49,318.57 349.17,310.29 599.49,59.97"   /><polyline id="SvgjsPolyline7793" points="0,385.31 383.96,1.35"   /><polyline id="SvgjsPolyline7794" points="74.25,599.57 598.22,75.6"   /><polyline id="SvgjsPolyline7795" points="0,368.34 366.99,1.35"   /><polyline id="SvgjsPolyline7796" points="91.22,599.57 598.22,92.57"   /><polyline id="SvgjsPolyline7797" points="0,351.37 350.02,1.35"   /><polyline id="SvgjsPolyline7798" points="108.19,599.57 598.22,109.54"   /><polyline id="SvgjsPolyline7799" points="0,334.4 333.05,1.35"   /><polyline id="SvgjsPolyline7800" points="125.16,599.57 598.22,126.51"   /><polyline id="SvgjsPolyline7801" points="0,317.43 316.08,1.35"   /><polyline id="SvgjsPolyline7802" points="142.13,599.57 598.22,143.48"   /><polyline id="SvgjsPolyline7803" points="0,300.46 299.11,1.35"   /><polyline id="SvgjsPolyline7804" points="159.1,599.57 598.22,160.45"   /><polyline id="SvgjsPolyline7805" points="0,283.49 282.14,1.35"   /><polyline id="SvgjsPolyline7806" points="176.07,599.57 598.22,177.42"   /><polyline id="SvgjsPolyline7807" points="0,266.52 265.17,1.35"   /><polyline id="SvgjsPolyline7808" points="193.04,599.57 598.22,194.39"   /><polyline id="SvgjsPolyline7809" points="0,249.55 248.2,1.35"   /><polyline id="SvgjsPolyline7810" points="210.02,599.57 598.22,211.36"   /><polyline id="SvgjsPolyline7811" points="0,232.58 231.23,1.35"   /><polyline id="SvgjsPolyline7812" points="226.99,599.57 598.22,228.34"   /><polyline id="SvgjsPolyline7813" points="0,215.61 214.26,1.35"   /><polyline id="SvgjsPolyline7814" points="243.96,599.57 598.22,245.31"   /><polyline id="SvgjsPolyline7815" points="0,198.64 197.29,1.35"   /><polyline id="SvgjsPolyline7816" points="260.93,599.57 598.22,262.28"   /><polyline id="SvgjsPolyline7817" points="0,181.67 180.32,1.35"   /><polyline id="SvgjsPolyline7818" points="277.9,599.57 598.22,279.25"   /><polyline id="SvgjsPolyline7819" points="0,164.7 163.35,1.35"   /><polyline id="SvgjsPolyline7820" points="294.87,599.57 598.22,296.22"   /><polyline id="SvgjsPolyline7821" points="0,147.72 146.38,1.35"   /><polyline id="SvgjsPolyline7822" points="311.84,599.57 598.22,313.19"   /><polyline id="SvgjsPolyline7823" points="0,130.75 129.41,1.35"   /><polyline id="SvgjsPolyline7824" points="328.81,599.57 598.22,330.16"   /><polyline id="SvgjsPolyline7825" points="0,113.78 112.43,1.35"   /><polyline id="SvgjsPolyline7826" points="345.78,599.57 598.22,347.13"   /><polyline id="SvgjsPolyline7827" points="0,96.81 95.46,1.35"   /><polyline id="SvgjsPolyline7828" points="362.75,599.57 598.22,364.1"   /><polyline id="SvgjsPolyline7829" points="0,79.84 78.49,1.35"   /><polyline id="SvgjsPolyline7830" points="379.72,599.57 598.22,381.07"   /><polyline id="SvgjsPolyline7831" points="0,62.87 61.52,1.35"   /><polyline id="SvgjsPolyline7832" points="396.69,599.57 598.22,398.04"   /><polyline id="SvgjsPolyline7833" points="0,45.9 44.55,1.35"   /><polyline id="SvgjsPolyline7834" points="413.66,599.57 598.22,415.01"   /><polyline id="SvgjsPolyline7835" points="0,28.93 27.58,1.35"   /><polyline id="SvgjsPolyline7836" points="430.63,599.57 598.22,431.98"   /><polyline id="SvgjsPolyline7837" points="0,11.96 10.61,1.35"   /><polyline id="SvgjsPolyline7838" points="447.6,599.57 598.22,448.95"   /><polyline id="SvgjsPolyline7839" points="464.57,599.57 598.22,465.92"   /><polyline id="SvgjsPolyline7840" points="481.54,599.57 598.22,482.89"   /><polyline id="SvgjsPolyline7841" points="498.51,599.57 598.22,499.86"   /><polyline id="SvgjsPolyline7842" points="515.49,599.57 598.22,516.83"   /><polyline id="SvgjsPolyline7843" points="532.46,599.57 598.22,533.81"   /><polyline id="SvgjsPolyline7844" points="549.43,599.57 598.22,550.78"   /><polyline id="SvgjsPolyline7845" points="566.4,599.57 598.22,567.75"   /><polyline id="SvgjsPolyline7846" points="583.37,599.57 598.22,584.72"   /></g></svg>