<?xml version="1.0" standalone="no"?>
<svg id="SvgjsSvg1001" width="600" height="600" xmlns="http://www.w3.org/2000/svg" version="1.1" xmlns:xlink="http://www.w3.org/1999/xlink" xmlns:svgjs="http://svgjs.com/svgjs" class="svg-paper" viewBox="0 0 600 600"><title id="SvgjsTitle3229">x=cos(cos((y+cos(y*x))))|y=sqrt(x*x + y*y)|dTest=0.0|sd=0.2|sm=0.2|ts=0.05 | generated with FlowLines</title><style>*{fill:none;stroke:#777}</style><g id="SvgjsG3230"><polyline id="SvgjsPolyline3231" points="0,521.08 1.72,503.16 4.61,482.36 6.2,467.45 11.33,437.89 14.84,408.1 18.01,390.38 21.58,363.62 29.41,325.42 31.84,307.59 36.63,281.02 42.53,236.41 46.25,218.8 51.19,189.21 61.53,139.27 64.6,115.47 70.46,79.95 75.09,35.2 79.8,2.54"   /><polyline id="SvgjsPolyline3232" points="2.93,599.68 9.23,552.1 13.23,510.29 16.37,489.53 18.4,471.64 23.53,442.09 27.44,409.32 30.27,394.6 34.59,364.91 42.31,329.75 45.92,306.03 50.52,282.48 57.13,234.94 62.15,211.47 67.56,178.92 77.72,132.01 81.83,102.3 90,58.05 91.62,46.16 94.92,16.34 97.07,1.5"   /><polyline id="SvgjsPolyline3233" points="0.23,430.49 2.96,406.65 6.42,385.94 9.35,362.12 16.77,323.84 19.12,305.99 23.2,282.35 28.4,240.67 32.45,220.07 35.82,199.34 46.24,146.36 48.78,125.51 52.72,98.8 57.61,51.06 61.6,24.35 64.16,0.49"   /><polyline id="SvgjsPolyline3234" points="15.22,598.18 18.31,571.36 20.42,556.51 23.88,520.68 27.66,496.98 30.15,476.13 34.78,449.54 39.07,413.8 42.52,396.13 46.59,369.44 55.91,328.49 59.1,307.74 64.54,281.29 71.44,233.8 77.3,207.44 83.01,171.9 93.85,122.07 97.97,92.36 109.22,33.43 114.18,0.8"   /><polyline id="SvgjsPolyline3235" points="0.34,344.96 4.32,324.34 6.59,306.49 10.06,285.78 15.54,241.12 18.41,226.39 21.8,205.67 31.72,152.59 36.87,110.91 42.25,60.2 45.48,39.45 50.74,0.81"   /><polyline id="SvgjsPolyline3236" points="27.1,599.87 28.86,581.95 31.34,564.13 34.22,534.27 39.05,504.66 41.54,483.81 46.07,457.2 50.76,418.48 54.35,400.84 58.7,374.2 69.15,330.43 73.07,306.76 79.45,277.45 86.71,230 92.93,203.74 99.99,159.3 109.93,112.34 114.51,79.67 120.66,47.25 127.98,2.85"   /><polyline id="SvgjsPolyline3237" points="0.3,266.48 3.18,242.66 17.81,159.95 27.89,70.52 35.96,17.13 37.93,2.26"   /><polyline id="SvgjsPolyline3238" points="39.33,597.99 42.45,574.19 45.56,544.36 51.08,511.82 53.15,493.95 57.5,467.3 63.08,422.65 66.82,405.05 71.54,378.47 83.24,331.92 87.37,308.28 94.89,276.15 103.79,222.89 109.13,202.59 111.05,193.8 119.21,140.42 127.6,96.21 131.97,63.5 138.4,28.09 141.69,1.29"   /><polyline id="SvgjsPolyline3239" points="0.34,190.37 4.75,163.74 9.14,121.97 12.25,98.17 14.09,80.26 21.36,32.82 25.16,0.04"   /><polyline id="SvgjsPolyline3240" points="51.28,599.08 53.43,584.24 56.03,560.38 62.99,518.96 65.05,501.08 68.74,477.37 74.77,429.75 79.21,409.23 84.36,382.73 97.41,333.43 101.77,309.83 110.62,274.94 112.96,263.17 120.78,218.86 127.2,195.74 129.86,184.04 145.13,83.2 150.08,44.51 155.43,15 157.53,0.15"   /><polyline id="SvgjsPolyline3241" points="0.07,99.7 1.61,84.78 7.53,46.23 10.2,19.37 12.58,1.53"   /><polyline id="SvgjsPolyline3242" points="63.58,597.91 66.91,571.12 74.34,526.74 76.39,508.86 79.01,491.05 86.46,434.54 96.7,387.65 105.32,355.8 111.17,335.63 116.48,309.17 124.63,280.3 127.6,268.67 138.61,212.75 140.95,204.06 146.27,186.86 149.12,175.21 158.89,119.06 162.2,98.32 165.73,71.55 171.36,23.89 175.05,0.17"   /><polyline id="SvgjsPolyline3243" points="0.05,5.83 0.3,2.84"   /><polyline id="SvgjsPolyline3244" points="75.46,599.57 82.17,555.08 85.22,537.34 92.17,480.77 97.28,445.13 98.9,436.28 108.48,395.39 118.13,360.71 125.94,334.87 129.5,317.23 131.6,308.48 141.45,276.99 145.51,262.55 148.9,247.94 155.66,215.64 158.48,203.97 160.99,195.33 167.54,175.38 169.97,166.71 171.9,157.93 178.27,122.5 195.28,49.45 204.88,2.43"   /><polyline id="SvgjsPolyline3245" points="69.04,598.05 71.37,580.2 78.75,535.82 86.25,476.29 91.84,437.7 101.79,393.82 111.34,359.11 116.58,341.89 118.69,333.14 122.82,312.56 132.16,280.91 135.24,269.31 138.46,254.66 144.8,222.28 147.5,210.59 155.45,184.79 158.45,173.17 164.7,137.72 173.12,96.57 176.99,75.93 181.77,46.32 188.1,1.77"   /><polyline id="SvgjsPolyline3246" points="87.74,598.13 92.85,562.5 95.85,544.75 102.18,491.13 106.06,467.45 108.57,449.62 110.34,440.8 119.77,402.96 131.3,362.57 139.59,336.88 145.62,310.57 149.25,299.14 158.35,273.72 163.01,259.46 167.83,242.12 175.66,210.06 179.53,195.57 183.09,184.11 191.81,158.56 195.13,147.03 197.72,135.31 203.89,99.85 213.48,58.96 217.22,41.35 220.24,23.61 222.95,2.79"   /><polyline id="SvgjsPolyline3247" points="100.07,597.12 102.49,576.26 106.3,552.56 111.74,504.87 116.96,475.33 120.02,454.56 121.95,445.77 129.51,416.74 142.76,370.61 145.46,362.02 150.59,347.93 153.35,339.37 158.23,318.94 160.72,310.29 165.81,296.19 179.44,262.87 186.77,243.19 205.08,186.06 219.89,143.56 225.34,126.41 229.17,111.91 232.24,97.23 240.72,40.87 247.92,2.54"   /><polyline id="SvgjsPolyline3248" points="93.55,598.51 96.98,571.73 100.4,551.01 106.27,500.35 110.79,473.74 113.32,455.92 115.1,447.1 123.98,412.21 135.54,371.83 145.81,340.48 150.49,320.01 152.94,311.35 157.9,297.2 168.61,269.17 173.47,254.99 178.64,237.75 190.65,194.38 195.24,180.1 204.12,154.6 208.55,140.27 212.81,122.79 220.24,78.41 231.65,25.63 235.77,1.99"   /><polyline id="SvgjsPolyline3249" points="111.99,598.5 113.35,586.57 116.74,565.85 120.69,530.07 122.75,515.21 128.55,485.78 132.78,459.12 140.46,430.12 149.04,401.38 156.17,375.34 159.99,363.96 167.5,344.36 174.56,318.3 178.5,306.97 181.96,298.66 188.31,285.07 215.27,231.47 234.86,190.96 245.76,166.26 252.95,146.54 257.86,129.22 261.68,111.63 264.74,93.9 272.46,43.49 280.59,2.28"   /><polyline id="SvgjsPolyline3250" points="105.24,598.55 106.93,583.64 110.72,559.95 116.2,512.26 121.7,482.77 124.77,462 127.39,450.3 134.38,424.21 142.09,398.34 147.64,378.09 151.25,366.65 159.44,344.09 164.54,323.72 168.03,312.24 173.47,298.27 191.84,257.19 203.33,229.48 232.35,153.86 237.42,139.74 242.05,125.47 247.5,105.2 252.2,81.67 254.91,63.87 260.33,22.22 263.36,1.44"   /><polyline id="SvgjsPolyline3251" points="123.93,599.68 127.69,575.97 132.3,537.25 134.42,525.44 140.67,496.1 144.88,469.43 148.52,454.89 160.37,414.59 169.62,379.81 173.61,368.49 182.71,346.29 191.42,317.59 194.77,309.24 198.61,301.1 205.78,287.92 215.18,272.58 243.77,230.35 253.43,215.16 260.61,202 264.38,193.83 267.71,185.46 271.47,174.07 274.6,162.49 286.01,109.71 300.2,54.51 304.95,30.99 309.55,1.34"   /><polyline id="SvgjsPolyline3252" points="116.83,598.07 120.97,571.39 125.78,529.67 127.86,517.85 133.3,491.41 136.96,467.69 139,458.93 142.96,444.46 153.2,409.95 161.02,380.99 164.85,369.62 173.62,347.28 179.22,327.05 181.9,318.46 185.12,310.05 188.78,301.83 195.52,288.44 202.74,275.28 236.06,218.32 244.82,202.59 252.78,186.45 259.48,169.75 263.94,155.43 268.13,137.93 278.5,81.88 290.4,29.22 292.46,17.39 294.53,2.54"   /><polyline id="SvgjsPolyline3253" points="136.22,598.48 142.31,553.9 145.16,539.17 152.15,506.92 156.91,477.31 160.59,462.77 170.57,428.18 178.38,396.12 182.56,381.72 185.74,373.3 195.47,351.37 202.97,328.58 206.08,320.13 209.76,311.92 215.53,301.4 223.79,288.89 232.92,276.99 242.66,265.58 262.75,243.3 272.18,231.64 280.46,219.14 284.7,211.21 288.38,203 293.43,188.87 297.5,174.44 317.79,89.84 325.11,54.59 334.04,1.34"   /><polyline id="SvgjsPolyline3254" points="128.74,599.88 131.15,585.08 135.95,546.38 138.14,534.58 145.07,502.32 149.28,475.65 153.75,458.22 163.92,423.69 171.3,394.61 174.63,383.08 177.67,374.62 187.11,352.55 189.99,344.03 194.25,329.65 197.21,321.15 200.73,312.87 206.21,302.2 213.99,289.37 222.48,277.01 231.47,265 251.81,239.02 262.19,224.32 269.86,211.43 276.17,197.83 280.23,186.54 283.59,175.02 295.42,125.41 311.83,64.59 319.46,32.49 326.12,0.17"   /><polyline id="SvgjsPolyline3255" points="148.56,597.43 152.14,573.7 158.51,541.32 163.53,517.85 167.08,494.11 168.79,485.28 180.22,441.76 189.47,400.79 191.84,392.11 194.72,383.59 198.22,375.3 204.78,361.81 208.41,353.58 216.53,331 220,322.69 225.59,312.08 230.51,304.55 235.97,297.39 239.88,292.84 250.43,282.19 261.86,272.48 285.65,254.21 292.49,248.36 298.95,242.1 306.8,233.03 312.04,225.71 316.73,218.04 322.23,207.37 329.21,190.78 337.07,168.11 347.58,133.68 354.66,107.63 359.03,87.09 363.85,54.45 370.3,22.09 373.23,1.3"   /><polyline id="SvgjsPolyline3256" points="140.51,598.97 145.44,563.32 155.87,513.4 159.47,489.67 161.96,477.94 173.25,437.48 181.56,402.46 185.62,388.02 189.92,376.82 199.85,354.98 209.7,326.65 214.7,315.75 219.15,307.92 224.1,300.41 231.38,290.87 237.24,284.05 245.52,275.36 269.52,252.71 277.97,244.2 284.01,237.52 289.59,230.47 296.17,220.44 300.42,212.5 304.11,204.3 308.29,193.05 312.64,178.7 317.03,161.24 320.87,143.66 325.43,120.1 332.21,78.65 342.94,1.39"   /><polyline id="SvgjsPolyline3257" points="160.44,599.08 168.87,551.83 173.73,528.33 176.71,507.54 178.78,495.72 188.44,454.85 198.23,407.86 201.33,396.27 205.43,385 218.54,358.02 227.29,335.68 232.31,324.78 238.53,314.53 246,305.15 250.16,300.83 256.89,294.85 266.63,287.86 271.78,284.79 279.77,280.64 298.9,271.99 306.94,267.93 314.65,263.3 324.26,256.13 333,247.91 337.04,243.48 342.72,236.5 351.33,224.22 360.54,208.76 368.62,192.68 374.48,178.87 384.84,150.72 390.21,133.54 392.14,124.76 396.78,98.16 405.18,63.15 409.66,42.64 412.26,27.87 416.11,1.14"   /><polyline id="SvgjsPolyline3258" points="151.82,597.47 155.31,576.76 161.02,547.31 165.99,523.84 169.51,500.1 171.2,491.26 181.62,450.57 192.05,403.72 195.42,392.21 198.63,383.81 210.26,359.44 219.74,334.17 223.36,325.93 229.2,315.45 236.19,305.71 242.11,298.93 246.34,294.68 250.77,290.63 257.77,284.97 267.61,278.12 295.67,260.76 305.33,253.64 312.16,247.78 320.49,239.16 327.92,229.74 334.54,219.73 341.96,206.69 351.31,187.9 359.82,168.7 368.43,146.3 374.98,126.35 378.54,111.78 383.47,82.19 390.75,50.01 399.83,2.88"   /><polyline id="SvgjsPolyline3259" points="144.58,598.23 148.91,568.54 159.3,518.62 162.91,494.89 164.59,486.05 167.45,474.4 177,439.69 185.78,401.69 188.17,393.02 191.08,384.5 194.59,376.22 203.49,357.2 211.5,334.58 214.78,326.2 218.65,318.08 224.78,307.77 230.01,300.45 237.7,291.24 243.92,284.73 252.7,276.56 275.86,257.49 284.88,249.58 291.24,243.22 297.12,236.41 302.44,229.15 308.62,218.87 313.83,208.06 318.26,196.91 322.96,182.67 327.77,165.33 332.66,144.9 338.29,118.5 344.9,83.11 347.64,65.32 352.43,29.64 357.94,0.15"   /><polyline id="SvgjsPolyline3260" points="149.53,597.26 153.36,573.57 164.16,520.67 167.19,499.89 169.44,488.1 180.78,444.56 189.96,403.58 192.36,394.9 195.29,386.4 198.86,378.13 207.94,359.2 217.3,333.88 220.83,325.61 226.54,315.06 233.37,305.2 239.14,298.29 243.26,293.93 254.37,283.86 263.92,276.61 291.16,257.99 298.2,252.39 304.82,246.29 310.93,239.68 318.23,230.16 324.62,220.01 330.26,209.42 335.36,198.56 340.09,187.53 351.04,159.61 359.01,136.97 365.96,114 369.24,99.37 374.44,66.78 381.3,34.51 386.05,1.85"   /><polyline id="SvgjsPolyline3261" points="172.78,598.25 176.98,568.54 182.7,539.1 186.02,515.33 188.05,503.51 194.8,471.2 202.01,432.88 205.69,415.26 209.47,400.74 213.61,389.49 227.1,362.7 236.39,340.57 241.61,329.77 244.67,324.62 248.09,319.68 251.86,315.02 255.98,310.66 262.79,304.78 267.71,301.35 272.91,298.36 278.34,295.82 283.98,293.76 289.76,292.17 304.49,289.34 313.18,287.05 318.8,284.94 324.23,282.39 329.45,279.43 334.44,276.11 339.22,272.48 345.98,266.53 350.22,262.29 356.2,255.57 365.27,243.63 370.2,236.1 374.76,228.34 381.49,214.94 387.17,201.06 401.91,158.55 405.37,147.06 407.25,138.26 411.45,114.63 418.3,85.43 421.29,70.73 423.58,55.91 427.97,20.18 430.92,2.42"   /><polyline id="SvgjsPolyline3262" points="184.75,599.96 187.39,579.13 192.44,552.61 197.41,516.96 208.57,451.91 215.82,416.65 219,405.08 222.12,396.64 225.95,388.5 237.14,367.27 246.92,345.36 250.96,337.32 254.03,332.16 257.45,327.24 263.34,320.43 267.76,316.39 272.58,312.81 277.74,309.76 283.22,307.32 291.86,304.86 306.76,303.16 315.53,301.17 321.18,299.16 326.63,296.66 331.88,293.75 336.91,290.49 341.75,286.94 348.63,281.14 355.09,274.88 361.15,268.22 366.81,261.23 372.09,253.94 377.01,246.4 381.54,238.63 386.96,227.93 392.7,214.07 410.74,160.01 413.12,151.33 418.53,121.83 424.43,95.48 426.71,83.7 429.31,65.89 433.93,27.16 438.42,0.54"   /><polyline id="SvgjsPolyline3263" points="197.01,598.3 202.77,565.81 209.46,515.25 212.97,491.51 215.98,473.76 226.31,423.82 229.48,412.25 232.62,403.82 236.48,395.69 247.78,374.53 260.64,347.42 266.84,337.16 272.47,330.15 279.06,324.03 286.57,319.08 294.77,315.4 311.97,310.09 323.08,305.59 333.51,299.67 343.21,292.62 354.35,282.58 360.53,276.04 366.35,269.17 371.8,262.01 376.89,254.59 381.62,246.94 385.96,239.06 391.11,228.22 396.53,214.23 406.51,182.78 413.29,162.91 415.72,154.24 421.14,124.74 426.29,101.3 429.09,86.57 431.59,68.74 436.19,30.02 441.09,0.42"   /><polyline id="SvgjsPolyline3264" points="208.91,599.91 212.47,579.22 218.14,534.58 222.2,507.89 225.69,490.23 239.43,428.75 243.01,417.3 246.53,409.02 260.35,382.4 271.9,357.99 276.19,350.09 281.12,342.56 286.89,335.66 291.23,331.52 295.94,327.8 300.95,324.51 322.08,313.15 334.73,305.1 346.47,295.77 353.07,289.66 359.34,283.2 369.05,271.77 374.42,264.55 379.45,257.08 384.12,249.39 388.42,241.48 392.3,233.37 395.75,225.06 399.77,213.75 408.6,185.08 415.36,165.2 418.5,153.62 422.69,129.99 428.31,103.59 431.02,88.83 433.08,73.98 438.06,32.27 442.97,2.68"   /><polyline id="SvgjsPolyline3265" points="221.26,599.22 226.85,560.63 231.08,537 235.78,516.54 245.55,478.78 253.78,440.67 256.44,432.07 259.77,423.71 274.23,394.05 286.68,366.76 290.78,358.75 295.35,351 300.56,343.66 306.47,336.87 315.26,328.72 334.03,313.76 345.38,303.96 358.16,291.29 367.99,279.96 376.99,267.97 385.1,255.35 392.2,242.15 398.16,228.38 402.14,217.06 411.67,185.47 418.39,165.58 421.37,153.96 425.52,130.32 430.45,106.83 432.62,95.03 435.12,77.21 440.11,35.51 444.2,11.86 445.4,2.94"   /><polyline id="SvgjsPolyline3266" points="233.58,598.05 236.93,580.37 240.7,562.76 246.8,536.46 257.26,495.79 263.62,463.41 266.49,451.76 269.31,443.21 272.66,434.86 286.33,404.83 299.5,374.57 304.68,363.75 308.96,355.83 313.68,348.17 318.91,340.85 328.63,329.43 349.49,307.87 359.65,296.83 369.29,285.34 378.24,273.32 386.4,260.73 392.26,250.26 397.42,239.43 401.83,228.27 405.6,216.88 414.03,188.09 421.59,165.31 423.75,156.58 427.91,132.94 432.72,109.43 434.81,97.61 436.88,82.76 442.28,38.08 446.39,14.44 447.92,2.54"   /><polyline id="SvgjsPolyline3267" points="245.91,597.24 253.99,552.97 257.27,538.34 264.49,509.22 270.48,476.77 272.39,467.97 276.63,453.59 283.31,436.88 309.53,376.32 315.95,362.76 321.63,352.19 327.97,342.01 334.99,332.28 342.51,322.92 367.61,293.08 374.91,283.55 381.8,273.73 389.72,260.99 395.39,250.42 400.37,239.51 404.6,228.28 408.22,216.84 415.63,190.88 423.17,168.09 426.04,156.45 429.61,135.75 434.33,112.22 436.39,100.4 443.88,40.87 448,17.23 449.89,2.35"   /><polyline id="SvgjsPolyline3268" points="257.73,599.33 260.02,581.48 262.4,566.67 264.76,554.91 272.15,522.75 278.84,484.33 280.9,475.57 283.41,466.93 290.68,447.23 319.1,381.08 326.61,364.72 333.32,351.31 340.74,338.27 347.26,328.2 354.21,318.42 375.8,289.61 382.64,279.76 389.08,269.63 395.01,259.2 400.33,248.44 404.92,237.36 407.88,228.86 418.61,191.37 426.1,168.57 428.26,159.83 438.46,103.76 446,44.24 450.57,17.63 452.38,2.74"   /><polyline id="SvgjsPolyline3269" points="270,597.79 272.83,580.02 280.19,544.78 285.69,509.21 287.9,497.41 289.93,488.65 293.18,477.1 296.97,465.71 301.16,454.47 307.94,437.79 316.39,418.57 353.29,339.78 358.86,329.16 364.91,318.79 386.22,286.13 396.95,268.09 402.43,257.41 406.11,249.2 409.38,240.82 412.25,232.29 422.59,194.69 430.01,171.86 432.77,160.19 441.66,109.97 449.73,47.49 454.34,20.9 456.81,0.04"   /><polyline id="SvgjsPolyline3270" points="281.9,599.34 287.58,569.89 293.95,525.34 297.71,504.69 300.46,493.01 303.66,481.44 311.27,458.69 317.88,441.94 323.91,428.21 331.69,411.98 353.51,369.23 372.78,325.27 379.73,311.98 397.86,280.88 406.2,264.93 412.21,251.19 417.09,237.01 427.03,199.31 434.32,176.44 437.21,164.8 445.39,117.51 451.55,72.93 454.09,52.08 458.75,25.49 461.7,1.68"   /><polyline id="SvgjsPolyline3271" points="294.25,598.77 297.41,578.01 303.76,530.43 307.23,509.72 310.28,495.03 313.89,480.48 317.21,468.94 321.89,454.7 329.47,435.12 336.89,418.72 345.03,402.67 359.27,376.26 365.89,362.8 370.61,351.77 379.32,329.41 384.16,318.43 389.54,307.7 403.87,281.35 410.56,267.92 416.41,254.11 419.4,245.62 422,237.01 430.79,202.1 438.81,176.33 440.88,167.57 448.42,123.21 454.76,78.66 457.74,54.84 462,31.23 465.99,1.49"   /><polyline id="SvgjsPolyline3272" points="306.58,597.74 312.37,562.21 320.83,505.84 323.84,488.09 328.88,464.63 334.7,444.46 340.93,427.58 348.28,411.15 355.11,397.8 369.42,371.43 374.66,360.63 379.25,349.55 387.45,327 392.07,315.92 397.25,305.1 410.89,278.38 417.11,264.73 421.43,253.54 425.84,239.2 435.14,201.33 442.3,178.43 444.35,169.66 451.27,128.24 458.21,80.75 461.24,56.94 465.06,36.29 470.28,0.67"   /><polyline id="SvgjsPolyline3273" points="318.41,599.75 326.47,561.59 343.86,488.63 353.48,441.61 356.38,429.97 358.96,421.35 363.02,410.06 367.79,399.05 371.74,390.96 384.33,367.07 389.41,356.21 392.7,347.83 400.17,325.02 404.38,313.79 419.32,281.04 425.17,267.23 429.2,255.93 432.54,244.4 441.37,206.42 448.35,183.46 451.04,171.77 464.07,88.79 467.15,64.99 471.49,41.39 477.75,2.9"   /><polyline id="SvgjsPolyline3274" points="330.76,599.12 334.73,572.41 339.43,548.88 344.37,528.47 357.34,479.15 361.41,461.61 368.28,429.34 372.89,411.94 376.85,400.62 380.33,392.32 394.99,362.76 399.81,351.77 402.83,343.29 408.91,323.2 411.86,314.69 430.45,270.45 434.38,259.11 437.63,247.56 446.15,209.51 448.49,200.82 452.98,186.51 455.69,174.82 464.31,118.48 468.89,91.87 472.02,68.08 475.91,47.44 483.75,0.09"   /><polyline id="SvgjsPolyline3275" points="343.04,597.68 346.4,573.92 350.92,550.35 355.05,532.83 369.17,477.61 381.32,421.92 384.99,407.38 387.66,398.79 391.91,387.57 395.56,379.34 404.68,360.43 409.34,349.37 412.2,340.84 419.79,314.93 424,303.7 436.34,273.09 440.14,261.71 443.27,250.13 451.47,212 453.75,203.3 458.17,188.97 460.82,177.27 468.46,126.84 474.24,94.36 476.94,73.53 486.09,23.36 489.13,2.58"   /><polyline id="SvgjsPolyline3276" points="354.95,599.13 359.01,578.52 371.59,519.86 389.81,428.66 395.15,405.26 398.52,393.75 402.62,382.48 413.69,357.85 418.14,346.71 428.12,312.13 439.86,281.29 443.85,269.98 448.65,252.64 457.26,211.53 464.59,185.55 466.73,173.75 472.91,132.21 478.96,99.77 482.16,75.98 490.94,28.8 494.55,2.04"   /><polyline id="SvgjsPolyline3277" points="367.29,598.37 386.56,476.89 393.59,438.53 400.47,406.26 403.61,394.68 407.41,383.3 410.73,374.94 419.25,355.74 422.55,347.37 425.27,338.79 429.75,321.36 432.3,312.73 444.71,278.94 448.45,267.54 452.85,250.09 460.65,211.88 465.69,194.6 467.87,185.88 469.93,174.06 476.16,132.52 481.86,103.07 485.07,79.29 493.4,35.07 497.77,2.36"   /><polyline id="SvgjsPolyline3278" points="379.63,597.45 382.97,573.69 388.57,529.04 392.84,499.34 399.71,457.91 406.45,422.55 411.03,402.05 414.99,387.59 419.93,373.43 428.05,354.07 431.24,345.65 433.84,337.04 439.7,313.77 442.44,305.19 452.41,276.9 457.25,259.57 466.05,215.44 471.74,195.23 473.75,186.46 480.52,141.97 486.96,109.61 490.71,82.88 498.54,41.62 503.57,2.95"   /><polyline id="SvgjsPolyline3279" points="391.49,599.29 397.38,566.82 402.06,531.13 404.75,513.33 408.08,495.64 411.95,478.06 435.03,384.88 439.39,370.53 449.67,342.35 452.03,333.67 457.41,310.29 468.85,273.01 472.13,258.37 479.11,220 485.86,193.87 492.32,152.37 499.73,117.15 502.99,93.37 509.66,58 513.76,22.24 516.85,1.47"   /><polyline id="SvgjsPolyline3280" points="403.84,598.62 406.63,580.84 414.14,542.57 419.68,503.97 423.99,483.42 430.15,460.23 444.66,411.33 455.82,370.85 466.13,339.5 467.64,333.7 472.57,310.21 480.81,281.37 483.61,269.7 491.31,225.37 497.75,199.16 503.88,160.64 511.51,125.47 514.77,101.69 520.58,69.21 524.36,33.41 527.07,15.62 528.67,0.71"   /><polyline id="SvgjsPolyline3281" points="416.12,597.29 418.31,579.43 420.14,567.57 428.48,526.41 433.33,493.77 436.27,479.07 439.99,464.53 446.58,441.46 459.64,398.39 469.36,363.73 477.48,337.98 478.91,332.16 483.61,308.63 490.67,282.57 492.71,273.8 500.68,226.47 506.33,203.15 512.05,167.61 520.28,129.5 523.02,108.68 528.13,79.12 531.81,43.31 535.26,19.56 537.14,1.66"   /><polyline id="SvgjsPolyline3282" points="428.05,598.61 434.19,560.1 437.54,542.41 444.48,510.15 449.01,480.5 451.32,468.73 463.84,422.39 488.97,335.98 494.15,309.49 500.09,286.24 502.71,274.53 509.81,230.09 515.26,206.73 520.55,174.16 527.62,141.92 529.27,133.08 531.52,115.22 535.91,88.58 540.25,46.81 542.98,29.02 546.27,2.22"   /><polyline id="SvgjsPolyline3283" points="440.37,597.47 448.15,556.2 461.3,494.59 465.35,467.9 467.68,456.13 481.16,403.84 500.6,334.52 505.55,307.98 512.45,278.79 519.83,231.36 524.53,210.9 529.37,181.3 536.94,146.1 538.53,137.24 540.74,119.38 544.41,95.67 548.73,53.89 556.38,0.44"   /><polyline id="SvgjsPolyline3284" points="452.19,599.52 457.03,563.85 459.39,549.03 463.29,528.4 471.92,487.3 475.96,460.61 477.62,451.76 490.43,399.31 507.83,335.64 509.7,326.84 512.7,309.09 518.14,285.72 519.91,276.9 526.56,232.39 531.15,211.9 535.49,185.26 544.57,141.19 546.76,123.32 549.88,102.56 554.58,57.8 562.68,1.39"   /><polyline id="SvgjsPolyline3285" points="464.49,598.19 467.17,580.39 471.58,541.64 473.59,526.78 476.09,511.99 482.91,476.64 486.86,449.93 500.36,391.48 516.4,330.56 519.86,309.85 526.81,277.6 533.32,233.07 537.24,215.51 542.2,185.92 550.13,147.74 555.73,106.12 560.48,61.37 566.72,19.84 568.89,1.97"   /><polyline id="SvgjsPolyline3286" points="476.83,597.2 482.06,564.62 488.81,505.01 495.2,466.54 498.61,442.78 504.69,416.48 510.77,387.1 523.48,337.71 525.49,328.94 528.83,308.21 534.96,278.85 541.3,234.3 545.12,216.71 549.56,190.08 557.34,151.87 562.4,113.2 567.2,68.46 573.47,26.93 576.65,0.12"   /><polyline id="SvgjsPolyline3287" points="488.71,598.86 490.79,580.99 495.25,554.36 502.89,488.8 510.14,438.32 511.87,429.49 515.94,411.96 521.58,382.5 534.45,330.06 537.71,309.31 543.6,279.9 549.77,235.33 552.93,220.67 556.86,196.99 565.5,152.83 569.55,120.08 574.77,72.37 580.67,33.82 582.89,12.94 584.51,1.05"   /><polyline id="SvgjsPolyline3288" points="500.95,597.09 504.18,570.29 509.09,540.69 511.81,516.85 523.13,430.59 528.18,407.13 534.02,374.66 545.04,327.94 548.17,307.18 553.28,280.67 558.79,239.04 562.38,221.4 565.78,200.68 574.18,156.47 583.01,78.98 588.45,43.39 590.88,19.52 593.18,1.67"   /><polyline id="SvgjsPolyline3289" points="512.87,598.52 519.73,554.05 524.24,527.43 526.62,506.57 531.13,476.91 537.8,423.33 542.08,402.77 547.47,370.22 557.3,326.31 559.82,308.49 564.69,281.93 570.02,240.27 572.96,225.56 576.38,204.85 584.48,160.58 592.92,86.07 597.85,53.44 599.87,32.54"   /><polyline id="SvgjsPolyline3290" points="525.19,597.51 528.06,576.71 537.62,520.52 540.46,496.69 546.17,461.15 551.13,419.44 555.2,398.84 559.66,369.18 569,325.16 571.43,307.33 575.62,283.7 580.79,242.02 583.64,227.29 594.36,165.22 599.63,117.51"   /><polyline id="SvgjsPolyline3291" points="537.1,599.02 542.21,557.34 549.85,512.99 553.16,486.2 558.28,456.64 563.26,414.94 567.18,394.31 571.38,364.61 579.28,326.42 581.66,308.58 585.69,284.92 590.73,243.23 599.56,193"   /><polyline id="SvgjsPolyline3292" points="549.41,597.67 552,579.86 554.69,553 556.18,541.09 562.19,505.6 565.49,478.8 570.74,449.27 574.96,413.52 579.14,389.89 582.64,363.12 590.17,324.86 592.46,307 596.3,283.32 599.71,253.51"   /><polyline id="SvgjsPolyline3293" points="561.29,599.34 562.55,587.41 565.48,566.61 568.27,536.74 569.76,524.84 574.13,498.19 576.95,474.36 583.14,438.9 586.56,409.1 590.16,388.41 593.49,361.62 599.67,329.21"   /><polyline id="SvgjsPolyline3294" points="573.51,597.48 575.28,579.56 578.54,555.79 582.19,516.96 586.22,490.27 588.58,469.4 594.74,433.93 597.84,407.11 599.71,395.26"   /><polyline id="SvgjsPolyline3295" points="585.45,598.61 589.4,565.85 591.93,548.03 595.5,509.2 599.8,476.48"   /><polyline id="SvgjsPolyline3296" points="597.76,597.3 599.76,582.44"   /></g></svg>