<?xml version="1.0" standalone="no"?>
<svg id="SvgjsSvg1001" width="600" height="600" xmlns="http://www.w3.org/2000/svg" version="1.1" xmlns:xlink="http://www.w3.org/1999/xlink" xmlns:svgjs="http://svgjs.com/svgjs" class="svg-paper" viewBox="0 0 600 600"><title id="SvgjsTitle11320">x=y|y=max((cos(y)+y),y)|dTest=0.0|sd=0.2|sm=0.2|ts=0.05 | generated with FlowLines</title><style>*{fill:none;stroke:#777}</style><g id="SvgjsG11321"><polyline id="SvgjsPolyline11322" points="599.62,344.35 329.62,344.37 266.62,344.74 242.63,345.43 221.69,346.91 206.83,348.94 192.21,352.26 183.64,355.02 178.06,357.21 172.59,359.68 164.63,363.88 152.07,372.07 140.37,381.44 129.41,391.68 0,521.08"   /><polyline id="SvgjsPolyline11323" points="599.62,356.35 594.05,358.56 585.9,362.38 575.49,368.34 563.24,376.99 556.28,382.69 549.59,388.71 354.34,583.78 339.28,598.42"   /><polyline id="SvgjsPolyline11324" points="599.62,332.35 594.72,328.89 592.52,326.86 590.52,324.62 587.22,319.62 585.95,316.91 584.12,311.2 583.16,305.28 582.92,299.29 583.26,293.3 584.09,287.36 586.93,275.71 588.83,270.02 592.2,261.67 598.97,248.3"   /><polyline id="SvgjsPolyline11325" points="598.03,339.96 589.34,337.64 583.79,335.38 581.14,333.97 573.72,328.89 569.52,324.62 566.22,319.62 563.92,314.09 562.54,308.26 561.92,299.29 562.62,290.32 564.33,281.49 567.83,270.02 572.44,258.94 577.97,248.3 584.28,238.09 591.26,228.34 598.83,219.02"   /><polyline id="SvgjsPolyline11326" points="598.53,348.56 586.77,350.92 578.1,353.32 566.82,357.42 558.58,361.05 550.63,365.25 542.97,369.97 535.62,375.16 526.28,382.69 515.26,392.87 324.34,583.78 309.28,598.42"   /><polyline id="SvgjsPolyline11327" points="597.84,342.65 582.94,341.02 571.21,338.53 562.79,335.38 555.1,330.72 550.52,326.86 548.52,324.62 545.22,319.62 543.95,316.91 542.92,314.09 541.54,308.26 540.92,299.29 541.26,293.3 542.09,287.36 544.93,275.71 546.83,270.02 550.2,261.67 556.97,248.3 564.97,235.61 573.98,223.63 583.83,212.32 598.56,197.36"   /><polyline id="SvgjsPolyline11328" points="598.37,345.61 583.41,346.68 568.53,348.56 556.77,350.92 545.25,354.26 534.05,358.56 523.25,363.78 512.97,369.97 500.88,378.85 491.79,386.67 485.26,392.87 294.34,583.78 279.28,598.42"   /><polyline id="SvgjsPolyline11329" points="597.82,343.67 576.84,342.65 561.94,341.02 550.21,338.53 544.53,336.6 539.14,333.97 534.1,330.72 529.52,326.86 527.52,324.62 524.22,319.62 522.95,316.91 521.12,311.2 520.16,305.28 519.92,299.29 520.26,293.3 521.67,284.42 523.09,278.59 525.83,270.02 531.74,256.24 535.97,248.3 540.64,240.6 549.26,228.34 560.8,214.53 569.08,205.84 598.78,176.14"   /><polyline id="SvgjsPolyline11330" points="597.81,344.07 567.82,343.34 546.88,341.81 537.98,340.53 532.11,339.3 526.34,337.64 520.79,335.38 515.62,332.35 510.72,328.89 506.52,324.62 504.75,322.2 501.95,316.91 500.12,311.2 499.16,305.28 498.92,299.29 499.26,293.3 500.67,284.42 502.93,275.71 505.89,267.21 509.44,258.94 513.51,250.92 518.03,243.14 522.97,235.61 531.98,223.63 543.89,210.13 598.99,154.93"   /><polyline id="SvgjsPolyline11331" points="598.35,344.71 574.36,345.34 556.4,346.42 541.49,348.1 526.77,350.92 515.25,354.26 501.3,359.77 490.63,365.25 478.03,373.39 466.28,382.69 455.26,392.87 264.34,583.78 249.28,598.42"   /><polyline id="SvgjsPolyline11332" points="582.81,344.13 549.82,343.47 528.87,342.13 519.94,341.02 511.11,339.3 505.34,337.64 499.79,335.38 494.62,332.35 489.72,328.89 485.52,324.62 482.22,319.62 479.92,314.09 478.54,308.26 477.96,302.29 478.02,296.29 478.62,290.32 480.33,281.49 482.84,272.85 486.01,264.43 489.74,256.24 493.97,248.3 498.63,240.6 505.46,230.73 512.89,221.31 522.89,210.13 599.2,133.72"   /><polyline id="SvgjsPolyline11333" points="595.35,344.46 559.36,344.87 538.37,345.61 520.42,346.98 505.57,349.07 490.97,352.46 476.82,357.42 471.3,359.77 463.25,363.78 450.48,371.65 438.57,380.75 425.26,392.87 234.34,583.78 219.28,598.42"   /><polyline id="SvgjsPolyline11334" points="561.81,344.13 528.82,343.47 516.84,342.86 504.88,341.81 495.98,340.53 487.21,338.53 481.53,336.6 476.14,333.97 471.1,330.72 466.52,326.86 462.75,322.2 459.95,316.91 458.12,311.2 456.96,302.29 457.02,296.29 458.09,287.36 459.33,281.49 461.84,272.85 465.01,264.43 468.74,256.24 472.97,248.3 477.63,240.6 482.69,233.16 489.98,223.63 495.8,216.76 503.97,207.98 599.42,112.5"   /><polyline id="SvgjsPolyline11335" points="540.81,344.13 507.82,343.47 495.84,342.86 483.88,341.81 474.98,340.53 466.21,338.53 460.53,336.6 455.14,333.97 447.72,328.89 443.52,324.62 440.22,319.62 437.92,314.09 436.54,308.26 435.92,299.29 436.62,290.32 438.33,281.49 440.84,272.85 442.89,267.21 446.44,258.94 450.51,250.92 455.03,243.14 459.97,235.61 465.26,228.34 472.83,219.02 485.08,205.84 599.63,91.29"   /><polyline id="SvgjsPolyline11336" points="565.35,344.46 529.36,344.87 508.37,345.61 490.42,346.98 475.57,349.07 460.97,352.46 446.82,357.42 441.3,359.77 433.25,363.78 420.48,371.65 408.57,380.75 395.26,392.87 204.34,583.78 189.28,598.42"   /><polyline id="SvgjsPolyline11337" points="519.81,344.13 480.83,343.2 468.85,342.41 456.94,341.02 448.11,339.3 442.34,337.64 436.79,335.38 429.1,330.72 424.52,326.86 420.75,322.2 417.95,316.91 416.92,314.09 415.54,308.26 414.96,302.29 415.26,293.3 416.67,284.42 418.93,275.71 420.83,270.02 424.19,261.67 428.1,253.56 432.48,245.7 437.28,238.09 442.46,230.73 453.8,216.76 464.08,205.84 599.84,70.08"   /><polyline id="SvgjsPolyline11338" points="535.35,344.46 499.36,344.87 478.37,345.61 460.42,346.98 445.57,349.07 430.97,352.46 416.82,357.42 405.9,362.39 392.97,369.97 385.62,375.17 378.57,380.75 365.26,392.87 174.34,583.79 159.28,598.42"   /><polyline id="SvgjsPolyline11339" points="498.81,344.13 459.83,343.2 447.85,342.41 435.94,341.02 427.11,339.3 421.34,337.64 415.79,335.38 408.1,330.72 403.52,326.86 399.75,322.21 396.95,316.91 395.92,314.09 394.54,308.26 393.92,299.29 394.62,290.32 396.33,281.49 398.84,272.85 400.89,267.21 404.44,258.94 408.51,250.92 413.03,243.14 417.96,235.61 423.26,228.34 434.8,214.53 443.08,205.84 597.93,50.99"   /><polyline id="SvgjsPolyline11340" points="505.35,344.46 469.36,344.87 448.37,345.61 430.42,346.98 415.57,349.07 400.97,352.46 386.82,357.42 375.9,362.39 368.04,366.77 362.97,369.98 355.62,375.17 348.57,380.76 335.26,392.88 144.34,583.79 129.28,598.42"   /><polyline id="SvgjsPolyline11341" points="477.81,344.13 438.83,343.2 426.85,342.41 414.94,341.02 406.1,339.3 397.53,336.6 392.14,333.97 384.72,328.9 380.51,324.63 377.22,319.63 374.91,314.09 374.12,311.2 373.16,305.28 373.02,296.29 374.09,287.36 376.08,278.59 379.88,267.21 386.09,253.57 393.63,240.6 398.69,233.16 404.1,225.97 415.82,212.32 598.14,29.77"   /><polyline id="SvgjsPolyline11342" points="456.81,344.13 417.83,343.21 405.85,342.41 393.94,341.02 385.1,339.3 376.53,336.6 371.14,333.98 363.72,328.9 359.51,324.63 357.74,322.21 354.94,316.92 353.11,311.21 351.95,302.3 352.25,293.31 353.65,284.43 355.91,275.72 360,264.44 366.49,250.92 374.26,238.1 379.44,230.74 384.96,223.63 394.81,212.33 598.28,8.5"   /><polyline id="SvgjsPolyline11343" points="475.35,344.46 439.36,344.87 418.37,345.62 400.43,346.98 385.57,349.07 370.97,352.46 356.82,357.43 345.9,362.39 332.97,369.98 325.63,375.18 318.57,380.77 305.27,392.89 114.35,583.8 99.28,598.43"   /><polyline id="SvgjsPolyline11344" points="435.81,344.13 396.83,343.21 381.87,342.14 372.93,341.03 364.1,339.31 355.53,336.6 350.14,333.98 342.71,328.91 340.51,326.88 336.73,322.22 333.93,316.93 332.1,311.22 330.93,302.31 331.23,293.33 332.63,284.44 335.81,272.87 340.16,261.69 346.93,248.32 354.92,235.63 363.94,223.64 375.84,210.15 568.83,17.06 583.49,2.02"   /><polyline id="SvgjsPolyline11345" points="445.36,344.46 412.36,344.81 388.38,345.62 370.43,346.99 355.58,349.08 340.98,352.48 326.83,357.45 318.6,361.08 313.26,363.82 302.99,370.02 295.64,375.21 288.59,380.8 275.29,392.93 84.37,583.84 69.3,598.47"   /><polyline id="SvgjsPolyline11346" points="414.81,344.13 375.82,343.21 360.86,342.14 351.93,341.03 343.1,339.32 334.52,336.62 329.13,334 321.7,328.93 319.49,326.9 315.71,322.26 312.9,316.96 311.07,311.26 309.89,302.35 310.19,293.36 311.02,287.42 312.25,281.55 314.76,272.91 319.1,261.73 325.87,248.35 333.86,235.66 342.87,223.67 352.72,212.36 547.77,17.09 562.42,2.05"   /><polyline id="SvgjsPolyline11347" points="393.8,344.13 372.81,343.83 351.82,343.05 339.86,342.15 327.96,340.56 319.19,338.57 313.51,336.64 308.11,334.04 300.67,328.99 296.45,324.74 294.67,322.33 291.84,317.05 289.99,311.34 288.8,302.44 289.08,293.45 290.47,284.56 293.63,272.99 297.97,261.81 304.73,248.43 312.72,235.73 321.72,223.74 331.56,212.43 526.61,17.15 541.27,2.11"   /><polyline id="SvgjsPolyline11348" points="415.38,344.46 379.38,344.88 358.39,345.63 340.45,347.01 325.6,349.11 311,352.53 296.87,357.53 285.96,362.51 273.04,370.13 265.7,375.33 258.66,380.93 245.37,393.07 54.45,583.98 39.38,598.61"   /><polyline id="SvgjsPolyline11349" points="372.79,344.14 333.8,343.22 321.83,342.44 309.91,341.07 301.07,339.38 292.48,336.72 287.07,334.13 279.6,329.13 275.35,324.91 271.99,319.95 270.69,317.25 268.81,311.56 267.57,302.66 267.82,293.67 269.19,284.78 272.32,273.2 276.64,262.01 283.38,248.62 291.35,235.91 300.35,223.91 312.23,210.4 507.33,15.18 521.94,0.1"   /><polyline id="SvgjsPolyline11350" points="385.44,344.47 352.45,344.83 328.46,345.66 310.52,347.08 295.68,349.23 281.1,352.72 266.99,357.79 258.78,361.48 253.46,364.26 243.23,370.53 231.2,379.48 217.79,391.47 26.85,582.37 9.64,599.1"   /><polyline id="SvgjsPolyline11351" points="351.75,344.14 312.77,343.24 300.79,342.48 288.87,341.14 280.02,339.49 271.42,336.89 265.98,334.37 258.44,329.47 254.11,325.32 252.27,322.96 249.32,317.74 247.35,312.08 246.01,303.2 246.19,294.2 247.5,285.3 250.57,273.71 254.84,262.5 261.53,249.09 269.46,236.36 278.42,224.33 288.23,212.98 483.25,17.69 499.99,0.49"   /><polyline id="SvgjsPolyline11352" points="330.68,344.15 291.69,343.3 276.72,342.32 264.81,340.86 256,339.05 247.47,336.2 239.54,331.96 234.71,328.41 230.61,324.04 228.9,321.58 226.23,316.22 224.51,310.48 223.49,301.55 223.9,292.56 225.38,283.69 227.7,275 231.85,263.75 238.42,250.27 246.25,237.48 255.12,225.39 266.89,211.78 461.96,16.52 476.6,1.47"   /><polyline id="SvgjsPolyline11353" points="364.67,344.44 325.67,344.81 304.68,345.47 286.73,346.7 271.85,348.59 257.18,351.7 245.75,355.33 231.96,361.22 226.63,363.97 218.88,368.55 211.44,373.61 204.3,379.09 190.85,391.05 2.03,579.81"   /><polyline id="SvgjsPolyline11354" points="309.54,344.15 285.54,343.79 267.56,343.12 255.59,342.27 243.68,340.77 234.88,338.91 226.38,335.97 218.39,331.85 213.59,328.27 211.45,326.17 207.82,321.4 205.18,316.02 203.51,310.26 202.52,301.33 202.96,292.35 204.46,283.48 206.8,274.79 210.97,263.55 217.56,250.08 225.4,237.3 234.29,225.22 246.08,211.62 441.14,16.37 455.78,1.31"   /><polyline id="SvgjsPolyline11355" points="308.49,344.69 284.5,345.29 266.53,346.32 251.62,347.93 236.87,350.64 225.32,353.87 214.14,358.21 200.74,364.95 190.58,371.32 178.62,380.37 165.29,392.45 1.94,555.79"   /><polyline id="SvgjsPolyline11356" points="300.31,344.24 252.32,343.52 237.34,342.75 225.39,341.62 216.5,340.23 207.77,338.06 199.31,335.01 193.96,332.3 191.45,330.67 186.87,326.79 184.88,324.55 181.6,319.54 179.31,314 178.52,311.11 177.57,305.19 177.45,296.2 178.53,287.27 180.54,278.5 184.35,267.12 190.57,253.48 198.11,240.52 203.17,233.08 208.59,225.89 220.32,212.25 415.37,16.98 430.02,1.94"   /><polyline id="SvgjsPolyline11357" points="599.96,344.35 278.96,344.3 236.96,344.05 206.97,343.25 192.01,342.23 180.09,340.82 171.23,339.27 162.53,336.99 154.21,333.58 149.08,330.47 144.55,326.55 140.85,321.84 139.36,319.24 137.13,313.68 136.36,310.77 135.46,304.85 135.26,298.85 135.65,292.87 136.51,286.93 137.78,281.07 140.32,272.44 142.39,266.81 144.71,261.27 148.64,253.18 156.21,240.24 164.87,227.99 172.45,218.69 182.61,207.66 373.52,16.74 388.17,1.69"   /><polyline id="SvgjsPolyline11358" points="287.35,344.38 221.36,344.94 200.37,345.77 185.42,346.97 170.57,349.04 155.91,352.22 144.44,355.72 133.34,360.26 122.71,365.83 115.1,370.62 105.42,377.71 96.25,385.45 87.53,393.69 0.56,480.67"   /><polyline id="SvgjsPolyline11359" points="303.19,344.53 276.19,344.93 255.21,345.75 237.27,347.25 225.4,348.97 210.78,352.31 199.42,356.15 188.5,361.11 178.1,367.1 170.68,372.19 163.57,377.7 154.49,385.55 147.92,391.7 1.53,538.05"   /><polyline id="SvgjsPolyline11360" points="324.84,344.36 246.84,344.77 222.85,345.51 207.89,346.51 192.99,348.25 178.28,351.16 166.79,354.6 155.69,359.14 147.69,363.26 137.51,369.61 127.89,376.78 116.46,386.49 107.8,394.79 1.74,500.86"   /><polyline id="SvgjsPolyline11361" points="598.75,369.6 591.38,374.76 584.3,380.33 570.96,392.4 377.91,585.43 364.98,597.96"   /><polyline id="SvgjsPolyline11362" points="599.84,317.07 598.8,314.26 597.4,308.43 596.74,299.47 597.42,290.5 599.87,278.76"   /><polyline id="SvgjsPolyline11363" points="597.49,352.04 588.91,354.74 580.55,358.07 575.13,360.64 567.24,364.98 554.81,373.36 547.76,378.96 540.99,384.89 532.35,393.21 345.68,579.89 326.3,598.69"   /><polyline id="SvgjsPolyline11364" points="599.98,346.54 588.06,347.88 576.23,349.92 564.61,352.87 556.09,355.78 547.82,359.32 537.24,364.98 527.23,371.59 517.76,378.96 504.48,391.09 315.68,579.89 296.3,598.69"   /><polyline id="SvgjsPolyline11365" points="599.93,344.98 578.95,345.87 564.01,347.14 549.17,349.33 537.49,352.04 526.09,355.78 515.13,360.64 504.69,366.55 494.81,373.36 485.48,380.9 474.48,391.09 285.68,579.89 266.3,598.69"   /><polyline id="SvgjsPolyline11366" points="587.93,344.64 560.94,345.27 542.97,346.29 528.06,347.88 513.3,350.56 501.74,353.77 490.55,358.07 479.84,363.47 467.23,371.59 455.48,380.9 444.48,391.1 255.68,579.89 236.3,598.69"   /><polyline id="SvgjsPolyline11367" points="557.93,344.64 530.94,345.27 512.97,346.29 498.06,347.88 483.3,350.56 471.74,353.77 460.55,358.08 449.84,363.47 437.23,371.59 425.48,380.9 414.48,391.1 225.68,579.89 206.3,598.69"   /><polyline id="SvgjsPolyline11368" points="527.93,344.64 500.94,345.27 482.97,346.29 468.06,347.88 453.3,350.56 441.74,353.77 430.55,358.08 425.13,360.64 417.24,364.98 407.23,371.59 395.48,380.9 384.48,391.1 193.56,582.01 176.3,598.7"   /><polyline id="SvgjsPolyline11369" points="497.93,344.64 470.94,345.27 452.97,346.29 438.06,347.88 423.3,350.56 411.74,353.77 400.55,358.08 389.84,363.48 377.23,371.59 365.48,380.9 354.48,391.1 165.68,579.9 146.31,598.7"   /><polyline id="SvgjsPolyline11370" points="467.93,344.64 440.94,345.27 422.97,346.29 408.06,347.88 393.31,350.57 381.75,353.78 370.55,358.08 359.84,363.49 354.69,366.56 347.23,371.6 335.48,380.91 324.49,391.11 135.69,579.91 116.31,598.71"   /><polyline id="SvgjsPolyline11371" points="437.94,344.64 410.95,345.28 392.98,346.3 378.06,347.89 363.31,350.58 351.76,353.8 340.56,358.11 329.85,363.51 317.25,371.63 305.5,380.95 294.51,391.15 103.59,582.07 86.33,598.75"   /><polyline id="SvgjsPolyline11372" points="407.96,344.65 383.96,345.17 363,346.32 348.08,347.92 333.34,350.63 321.78,353.86 310.6,358.19 299.9,363.62 287.31,371.76 275.57,381.09 264.59,391.3 75.79,580.1 56.41,598.89"   /><polyline id="SvgjsPolyline11373" points="378.02,344.66 354.03,345.2 336.05,346.14 321.13,347.62 306.34,350.13 297.61,352.31 291.89,354.1 280.73,358.5 270.06,363.99 257.51,372.19 245.82,381.57 234.86,391.82 46.07,580.62 26.67,599.4"   /><polyline id="SvgjsPolyline11374" points="349.44,344.33 283.44,344.04 250.45,343.06 238.49,342.17 226.6,340.59 217.82,338.63 212.13,336.72 206.72,334.14 204.18,332.54 199.62,328.65 195.98,323.9 194.55,321.26 192.45,315.65 190.59,306.85 190.2,297.87 191.08,288.92 193.72,277.22 195.55,271.51 198.81,263.12 202.63,254.97 206.92,247.07 211.66,239.41 216.77,232.01 222.23,224.86 229.99,215.7 238.21,206.96 429.13,16.04 443.76,0.98"   /><polyline id="SvgjsPolyline11375" points="286.09,344.25 241.09,343.72 223.11,342.97 211.15,342.01 202.23,340.83 193.42,339 184.9,336.12 179.59,333.33 174.86,329.67 172.79,327.49 169.15,322.72 166.25,317.48 165.17,314.68 163.7,308.87 162.97,299.91 163.59,290.94 165.98,279.19 169.72,267.79 175.87,254.12 183.35,241.13 188.39,233.67 193.77,226.46 205.46,212.78 400.49,17.49 417.22,0.28"   /><polyline id="SvgjsPolyline11376" points="268.32,344.34 190.32,344.07 157.34,343.19 142.37,342.14 130.45,340.79 121.59,339.23 112.89,336.92 104.58,333.49 99.48,330.35 94.97,326.4 93.02,324.13 89.83,319.06 87.63,313.48 86.88,310.58 86,304.65 85.96,295.66 86.61,289.69 87.7,283.79 90.01,275.1 93.02,266.62 96.61,258.37 100.71,250.36 105.27,242.6 111.96,232.64 119.28,223.13 125.12,216.29 135.43,205.39 326.34,14.47 338.87,1.54"   /><polyline id="SvgjsPolyline11377" points="213.1,343.21 198.14,342.14 189.21,341.03 180.38,339.32 171.8,336.62 166.41,334 161.53,330.53 157.44,326.15 154.36,321.01 151.16,312.61 150,306.73 149.63,297.75 150.53,288.8 152.39,279.99 156.04,268.57 159.51,260.26 164.93,249.56 171.15,239.31 178.06,229.5 185.56,220.13 195.63,209.02 388.65,15.95 403.28,0.89"   /><polyline id="SvgjsPolyline11378" points="205.39,343.88 187.4,343.34 172.43,342.4 160.52,341 151.69,339.27 143.12,336.54 137.74,333.89 132.88,330.39 128.59,326.2 124.96,321.43 123.51,318.81 121.36,313.21 120.11,307.35 119.64,298.37 120.46,289.42 123.04,277.71 125.85,269.16 130.54,258.11 136.13,247.5 144.19,234.86 153.26,222.92 163.16,211.65 358.23,16.4 372.87,1.34"   /><polyline id="SvgjsPolyline11379" points="337.8,344.35 223.8,344.47 193.8,344.8 172.81,345.44 157.84,346.37 142.93,348.02 131.12,350.12 116.62,353.94 105.32,357.98 94.46,363.07 84.12,369.15 71.95,377.91 62.79,385.66 56.23,391.82 1.06,446.95"   /><polyline id="SvgjsPolyline11380" points="242.94,344.44 191.95,345.19 176.97,345.91 162.02,347.22 150.15,348.91 138.42,351.44 126.96,354.97 115.9,359.62 105.35,365.33 97.81,370.24 90.58,375.6 81.4,383.33 72.68,391.57 0.56,463.7"   /><polyline id="SvgjsPolyline11381" points="598.54,384.39 587.64,394.69 398.84,583.49 383.79,598.13"   /><polyline id="SvgjsPolyline11382" points="276.41,344.35 174.41,344.41 129.41,344.8 99.44,345.93 78.51,347.71 66.64,349.45 57.82,351.23 49.12,353.51 37.78,357.43 29.54,361.06 19,366.78 11.45,371.67 1.85,378.87"   /><polyline id="SvgjsPolyline11383" points="190.56,343.89 169.57,343.22 157.6,342.43 145.68,341.06 136.84,339.36 128.26,336.68 122.85,334.09 117.95,330.65 113.84,326.3 109.02,318.71 106.88,313.11 106.16,310.2 105.33,304.26 105.35,295.27 106.54,286.35 108.63,277.6 112.53,266.26 117.46,255.32 123.27,244.82 131.56,232.33 138.89,222.83 148.79,211.57 343.86,16.32 358.5,1.26"   /><polyline id="SvgjsPolyline11384" points="187.11,344.24 142.12,343.62 127.13,342.95 115.17,341.97 103.3,340.24 94.57,338.07 88.95,335.97 80.96,331.84 76.16,328.26 74.02,326.16 70.4,321.39 67.76,316.01 66.81,313.16 65.57,307.3 65.11,298.32 65.94,289.36 67.74,280.55 71.34,269.11 73.56,263.53 77.35,255.37 84.72,242.31 89.69,234.82 95.03,227.57 106.63,213.81 117.06,203.03 303.73,16.36 318.37,1.3"   /><polyline id="SvgjsPolyline11385" points="183.64,344.58 144.65,345.56 132.68,346.33 120.74,347.55 108.89,349.42 100.11,351.39 91.48,353.93 83.05,357.08 72.2,362.2 64.32,366.55 54.3,373.14 47.14,378.59 33.64,390.49 1.78,422.27"   /><polyline id="SvgjsPolyline11386" points="598.18,401.14 415.74,583.57 400.68,598.21"   /><polyline id="SvgjsPolyline11387" points="151.08,344.17 109.09,343.27 97.12,342.53 85.19,341.23 73.42,338.91 64.87,336.13 56.73,332.32 51.83,328.86 49.63,326.82 45.87,322.16 43.08,316.86 41.26,311.15 40.11,302.23 40.42,293.25 41.83,284.36 45.01,272.8 48.19,264.38 54.69,250.87 62.46,238.05 71.29,225.92 83.02,212.28 280.19,14.88 292.73,1.97"   /><polyline id="SvgjsPolyline11388" points="153.65,344.32 102.65,344.15 75.66,343.72 57.67,342.97 42.73,341.71 27.89,339.54 22.04,338.2 16.3,336.46 8.09,332.8 3.11,329.47 0.85,327.5"   /><polyline id="SvgjsPolyline11389" points="239.21,344.35 164.21,344.56 128.22,345.33 113.25,346.18 101.3,347.31 89.43,349.06 80.62,350.9 69.1,354.24 60.7,357.47 52.57,361.32 42.2,367.35 32.32,374.17 22.91,381.61 13.98,389.62 1.2,402.29"   /><polyline id="SvgjsPolyline11390" points="215.87,344.35 101.87,344.63 77.87,345.12 59.89,345.99 44.96,347.35 30.14,349.68 15.58,353.27 7.03,356.05 1.44,358.23"   /><polyline id="SvgjsPolyline11391" points="176,344.26 128.01,343.68 110.03,342.88 98.07,341.85 89.16,340.59 80.38,338.62 71.95,335.52 66.75,332.53 64.37,330.7 60.25,326.36 57.12,321.25 55.03,315.63 53.17,306.84 52.78,297.86 53.66,288.9 55.52,280.1 59.16,268.67 65.21,254.96 72.62,241.92 77.62,234.44 82.97,227.2 94.6,213.47 102.92,204.83 291.72,16.03 306.35,0.97"   /><polyline id="SvgjsPolyline11392" points="598.18,418.11 432.71,583.57 417.65,598.21"   /><polyline id="SvgjsPolyline11393" points="131.69,344.16 107.69,343.83 89.7,343.23 77.72,342.45 65.8,341.09 56.96,339.41 48.37,336.76 42.95,334.2 38.02,330.79 31.66,324.44 28.41,319.41 26.14,313.86 25.37,310.97 24.43,305.04 24.33,296.05 25.43,287.12 28.29,275.48 32.4,264.21 38.92,250.71 46.71,237.89 55.55,225.78 67.29,212.14 264.46,14.75 276.99,1.83"   /><polyline id="SvgjsPolyline11394" points="130.08,344.25 85.09,343.66 70.1,343.03 55.15,341.78 46.25,340.48 37.48,338.45 29.09,335.25 23.94,332.17 19.47,328.19 17.57,325.87 14.29,320.84 11.76,315.42 10.85,312.56 9.7,306.67 9.34,297.69 10.25,288.74 12.12,279.94 15.78,268.52 18.02,262.95 21.85,254.81 29.27,241.78 34.27,234.3 39.63,227.07 51.27,213.35 57.48,206.83 248.4,15.91 263.03,0.85"   /><polyline id="SvgjsPolyline11395" points="152.2,344.34 44.2,344.17 20.2,343.85 2.21,343.26"   /><polyline id="SvgjsPolyline11396" points="598.18,435.08 449.68,583.57 434.63,598.21"   /><polyline id="SvgjsPolyline11397" points="0.51,276.9 2.35,271.19 5.63,262.82 9.46,254.68 13.78,246.78 18.53,239.13 23.66,231.74 29.13,224.6 36.9,215.45 47.25,204.6 233.93,17.93 250.68,0.74"   /><polyline id="SvgjsPolyline11398" points="598.18,452.05 468.78,581.45 451.6,598.21"   /><polyline id="SvgjsPolyline11399" points="0.27,246.36 6.71,236.24 13.81,226.57 21.47,217.34 29.62,208.52 220.52,17.58 237.25,0.38"   /><polyline id="SvgjsPolyline11400" points="598.18,469.02 481.5,585.69 468.57,598.21"   /><polyline id="SvgjsPolyline11401" points="0.51,224.25 8.3,215.12 16.55,206.41 205.35,17.61 222.09,0.41"   /><polyline id="SvgjsPolyline11402" points="598.18,485.99 498.47,585.69 485.54,598.21"   /><polyline id="SvgjsPolyline11403" points="1.51,204.76 190.31,15.96 204.94,0.89"   /><polyline id="SvgjsPolyline11404" points="598.18,502.96 515.44,585.69 502.51,598.21"   /><polyline id="SvgjsPolyline11405" points="1.51,187.79 173.34,15.96 187.97,0.89"   /><polyline id="SvgjsPolyline11406" points="598.18,519.94 532.41,585.69 519.48,598.21"   /><polyline id="SvgjsPolyline11407" points="1.51,170.82 156.37,15.96 171,0.89"   /><polyline id="SvgjsPolyline11408" points="598.18,536.91 549.38,585.69 536.45,598.21"   /><polyline id="SvgjsPolyline11409" points="1.51,153.85 139.4,15.96 154.03,0.89"   /><polyline id="SvgjsPolyline11410" points="598.18,553.88 566.35,585.69 553.42,598.21"   /><polyline id="SvgjsPolyline11411" points="1.51,136.88 122.43,15.96 137.06,0.89"   /><polyline id="SvgjsPolyline11412" points="598.18,570.85 570.39,598.21"   /><polyline id="SvgjsPolyline11413" points="1.51,119.9 105.46,15.96 120.09,0.89"   /><polyline id="SvgjsPolyline11414" points="598.18,587.82 587.38,598.23"   /><polyline id="SvgjsPolyline11415" points="1.51,102.93 88.49,15.96 103.12,0.89"   /><polyline id="SvgjsPolyline11416" points="1.51,85.96 71.52,15.96 86.15,0.89"   /><polyline id="SvgjsPolyline11417" points="1.51,68.99 56.66,13.83 69.18,0.89"   /><polyline id="SvgjsPolyline11418" points="1.51,52.02 39.69,13.83 52.2,0.89"   /><polyline id="SvgjsPolyline11419" points="1.51,35.05 35.23,0.89"   /><polyline id="SvgjsPolyline11420" points="1.51,18.08 18.26,0.89"   /></g></svg>