<?xml version="1.0" standalone="no"?>
<svg id="SvgjsSvg1001" width="600" height="600" xmlns="http://www.w3.org/2000/svg" version="1.1" xmlns:xlink="http://www.w3.org/1999/xlink" xmlns:svgjs="http://svgjs.com/svgjs" class="svg-paper" viewBox="0 0 600 600"><title id="SvgjsTitle9155">x=sqrt(x*x + y*y)|y=sin(sin(x))*y|dTest=0.0|sd=0.2|sm=0.2|ts=0.05 | generated with FlowLines</title><style>*{fill:none;stroke:#777}</style><g id="SvgjsG9156"><polyline id="SvgjsPolyline9157" points="0,521.08 16.05,529.24 58.33,551.96 69.15,557.15 80.25,561.7 91.7,565.25 97.57,566.52 103.5,567.38 109.49,567.78 115.49,567.7 124.42,566.67 133.18,564.6 144.45,560.52 155.25,555.29 165.62,549.26 175.66,542.69 187.88,533.98 238.01,495.84 250.37,487.33 260.62,481.11 271.35,475.73 276.91,473.5 282.62,471.66 291.42,469.8 300.39,469.19 309.36,469.91 318.13,471.88 326.62,474.87 337.44,480.04 347.77,486.14 360.19,494.55 372.26,503.45 410.34,532.67 422.52,541.43 432.5,548.08 445.44,555.66 456.27,560.83 467.58,564.82 476.35,566.8 485.3,567.74 491.3,567.76 497.28,567.29 503.21,566.38 509.06,565.06 520.49,561.42 531.57,556.82 542.37,551.6 584.65,528.87 598.01,522.05"   /><polyline id="SvgjsPolyline9158" points="2.55,508.97 18.67,516.98 58.59,537.74 69.47,542.8 80.62,547.23 92.11,550.66 97.99,551.88 103.93,552.69 112.92,553.06 118.91,552.7 124.85,551.87 133.6,549.8 144.88,545.72 155.69,540.52 166.08,534.52 176.15,527.99 188.41,519.35 238.73,481.45 251.14,473.02 261.44,466.87 272.21,461.59 280.65,458.48 289.39,456.35 298.33,455.44 307.31,455.86 316.15,457.56 321.88,459.31 327.48,461.46 338.27,466.71 348.58,472.84 361,481.26 411.32,519.15 423.57,527.81 433.63,534.35 444.02,540.36 454.81,545.59 466.08,549.7 474.82,551.81 483.75,552.92 489.75,553.06 495.73,552.72 501.68,551.94 507.56,550.74 519.06,547.34 530.22,542.93 541.11,537.89 583.71,515.77 599.87,507.85"   /><polyline id="SvgjsPolyline9159" points="2.61,535.78 15.86,542.81 57.84,566.08 68.6,571.39 79.64,576.08 91.06,579.76 96.91,581.1 102.83,582.03 111.81,582.54 117.8,582.26 123.75,581.49 132.52,579.48 143.81,575.42 154.6,570.19 164.96,564.15 174.99,557.55 187.18,548.81 227.54,517.63 239.58,508.69 251.97,500.23 262.28,494.1 273.08,488.89 281.55,485.86 290.32,483.85 299.28,483.08 308.25,483.64 317.06,485.46 322.78,487.28 328.35,489.5 339.08,494.86 349.34,501.08 361.69,509.6 411.67,547.94 423.82,556.73 433.81,563.38 444.13,569.5 454.87,574.85 466.1,579.06 474.83,581.24 480.76,582.12 486.74,582.52 495.73,582.18 501.67,581.36 507.54,580.12 519,576.58 530.09,572 543.54,565.36 582.88,543.51 598.78,535.07"   /><polyline id="SvgjsPolyline9160" points="2.26,495.58 18.5,503.33 58.74,523.49 69.68,528.41 80.88,532.71 92.41,536.03 98.29,537.2 104.24,537.97 110.23,538.3 116.22,538.17 125.15,537.08 133.91,535.02 145.2,530.97 156.03,525.81 166.46,519.87 176.56,513.4 188.87,504.83 239.41,467.23 251.87,458.88 262.22,452.8 273.03,447.62 281.51,444.6 290.27,442.59 299.23,441.81 308.21,442.36 317.02,444.18 322.73,445.99 328.31,448.19 339.07,453.5 349.37,459.66 359.33,466.34 373.9,476.92 409.89,503.93 422.17,512.54 432.24,519.07 445.27,526.49 456.15,531.53 467.5,535.41 476.29,537.33 485.24,538.24 491.24,538.26 497.22,537.82 509.02,535.69 520.5,532.23 531.67,527.83 542.59,522.86 580.12,504.01 599.09,495.02"   /><polyline id="SvgjsPolyline9161" points="2.33,549.16 18.1,557.84 54.55,578.71 67.88,585.57 78.87,590.39 90.23,594.23 96.06,595.64 101.98,596.64 107.95,597.19 113.95,597.23 122.9,596.36 131.68,594.41 142.99,590.41 153.79,585.21 166.69,577.56 176.64,570.84 188.74,561.99 224.23,534.31 238.59,523.47 250.93,514.94 261.19,508.73 271.94,503.39 277.52,501.19 283.24,499.39 292.05,497.61 301.03,497.09 309.99,497.91 318.74,499.96 324.42,501.9 329.95,504.23 340.6,509.74 350.79,516.07 360.65,522.92 372.66,531.91 412.9,563.23 425.05,572.02 435.05,578.67 445.38,584.76 456.15,590.04 467.42,594.15 476.18,596.2 485.12,597.19 491.11,597.23 497.09,596.76 503.02,595.83 508.86,594.47 520.26,590.73 531.27,585.98 541.99,580.57 586.31,555.36 599.5,548.2"   /><polyline id="SvgjsPolyline9162" points="1.72,482.21 20.83,490.93 58.67,509.14 69.68,513.91 80.93,518.09 92.48,521.32 104.32,523.2 113.32,523.5 119.3,523.13 125.24,522.3 134.01,520.27 145.32,516.29 156.19,511.21 169.22,503.79 189.18,490.47 239.99,453.22 252.5,444.96 262.89,438.96 273.75,433.87 282.26,430.93 291.04,429.02 300.01,428.35 308.98,429.02 317.77,430.94 326.27,433.87 337.13,438.97 347.52,444.97 357.56,451.53 369.8,460.2 410.84,490.48 423.21,498.96 433.36,505.36 443.83,511.22 454.7,516.3 466.01,520.28 474.78,522.31 480.72,523.13 486.71,523.5 495.7,523.19 501.65,522.45 507.54,521.31 519.09,518.08 530.34,513.91 541.35,509.13 579.19,490.92 598.31,482.24"   /><polyline id="SvgjsPolyline9163" points="1.87,562.54 17.54,571.4 51.14,591.19 67.01,599.69"   /><polyline id="SvgjsPolyline9164" points="153.67,598.74 166.55,591.05 178.91,582.56 195.68,569.93 233.47,540.33 245.62,531.54 255.67,524.98 268.83,517.8 279.97,513.36 285.75,511.76 291.65,510.67 300.62,510.09 309.58,510.85 315.46,512.06 321.21,513.75 332.29,518.34 342.83,524.07 352.93,530.55 365.13,539.28 407.68,572.53 422.11,583.29 434.5,591.73 447.43,599.33"   /><polyline id="SvgjsPolyline9165" points="530.58,599.47 546.53,591.13 582.76,569.89 598.45,561.06"   /><polyline id="SvgjsPolyline9166" points="0.92,468.87 17.47,475.95 61.12,495.9 72.24,500.41 80.73,503.39 92.31,506.53 104.16,508.37 110.15,508.69 116.15,508.57 125.09,507.55 133.86,505.58 145.21,501.7 156.13,496.73 166.66,490.97 176.87,484.67 189.32,476.31 240.44,439.49 253.02,431.32 263.45,425.4 274.35,420.39 282.88,417.53 291.68,415.7 300.66,415.13 309.62,415.9 318.39,417.89 326.87,420.88 337.71,426.01 348.1,432.01 358.17,438.55 409.3,475.35 421.72,483.76 431.9,490.11 442.37,495.96 453.23,501.06 464.52,505.12 473.26,507.25 479.19,508.16 485.17,508.63 494.16,508.5 506.04,506.88 517.66,503.89 528.99,499.94 540.09,495.38 578.26,477.87 597.54,469.54"   /><polyline id="SvgjsPolyline9167" points="1.26,575.91 16.84,584.93 39.92,598.93"   /><polyline id="SvgjsPolyline9168" points="175.7,599.39 192.53,586.83 234.99,553.47 247.17,544.73 257.27,538.25 267.81,532.52 278.9,527.94 284.65,526.25 290.53,525.06 299.49,524.32 308.46,524.91 314.36,526.01 320.14,527.62 331.27,532.08 344.42,539.27 354.46,545.85 366.59,554.66 406.67,586.21 423.47,598.8"   /><polyline id="SvgjsPolyline9169" points="557.73,598.57 583.41,583.05 599,574.06"   /><polyline id="SvgjsPolyline9170" points="2.62,456.63 19.3,463.41 60.57,481.34 71.75,485.7 83.15,489.45 94.81,492.25 106.71,493.7 112.71,493.83 118.7,493.53 127.61,492.27 136.34,490.12 147.64,486.08 158.52,481.02 169.03,475.24 179.26,468.97 191.76,460.67 240.77,426.07 253.42,418 263.9,412.16 274.83,407.23 283.38,404.43 292.2,402.68 301.18,402.18 310.13,403.02 318.89,405.07 327.36,408.11 338.19,413.25 348.6,419.23 358.69,425.71 407.71,460.31 420.2,468.62 430.41,474.92 443.59,482.08 454.54,486.96 465.92,490.76 474.71,492.69 483.65,493.7 489.64,493.83 495.64,493.54 504.56,492.36 516.24,489.63 527.65,485.92 538.83,481.59 580.11,463.66 599.59,455.81"   /><polyline id="SvgjsPolyline9171" points="0.51,589.28 16,598.44"   /><polyline id="SvgjsPolyline9172" points="197.47,598.18 225.62,575.74 237.54,566.64 249.8,558 260,551.68 270.67,546.2 276.22,543.91 281.91,542.01 290.68,540.05 299.65,539.33 308.62,539.95 317.41,541.82 323.12,543.67 328.68,545.91 339.39,551.33 349.61,557.61 364.3,568.01 404.33,599.6"   /><polyline id="SvgjsPolyline9173" points="579.35,599.5 599.98,587.24"   /><polyline id="SvgjsPolyline9174" points="1.3,443.35 20.92,450.83 65.38,468.93 76.71,472.88 85.35,475.39 97.09,477.85 106.04,478.82 112.03,478.99 118.03,478.75 126.95,477.6 135.72,475.58 147.08,471.73 158.04,466.85 171.25,459.76 191.58,447.01 243.54,411.39 253.75,405.08 264.28,399.33 272.46,395.58 280.93,392.55 289.68,390.48 298.63,389.62 307.61,390.08 316.44,391.81 325,394.57 335.96,399.45 346.48,405.21 356.68,411.53 406.14,445.49 418.71,453.68 428.98,459.89 442.2,466.97 453.17,471.83 464.53,475.65 473.31,477.65 482.23,478.77 494.22,478.81 506.12,477.3 517.79,474.53 526.39,471.86 537.67,467.77 579.32,450.74 598.95,443.3"   /><polyline id="SvgjsPolyline9175" points="216.7,598.18 233.21,585.21 245.32,576.36 255.33,569.75 265.77,563.84 273.95,560.08 282.45,557.14 291.24,555.24 300.21,554.61 309.17,555.31 317.95,557.25 326.44,560.24 334.6,564.03 345.02,569.97 355.02,576.6 367.12,585.47 383.63,598.44"   /><polyline id="SvgjsPolyline9176" points="2.49,431.07 22.27,438.11 64.31,454.15 75.69,457.95 84.36,460.38 96.11,462.81 108.04,463.99 114.04,464.02 120.03,463.65 128.93,462.36 137.68,460.25 149.02,456.34 159.99,451.48 170.63,445.94 191.19,433.57 243.69,398.75 253.97,392.57 264.56,386.92 272.77,383.24 281.26,380.26 290.02,378.24 298.98,377.43 307.96,377.94 316.78,379.71 325.33,382.49 336.3,387.34 346.86,393.04 357.12,399.26 407.09,432.46 419.82,440.41 430.21,446.4 440.88,451.9 451.87,456.69 463.25,460.51 472.01,462.54 480.93,463.74 492.92,463.95 504.84,462.66 516.57,460.15 525.22,457.67 536.59,453.83 581.44,436.73 598.43,430.79"   /><polyline id="SvgjsPolyline9177" points="235.83,598.34 248.01,589.59 255.55,584.69 263.34,580.18 271.42,576.22 279.82,573 285.6,571.39 294.47,569.93 300.46,569.68 306.45,570.02 315.3,571.61 321.06,573.29 329.43,576.6 337.47,580.62 345.23,585.18 355.22,591.83 364.91,598.9"   /><polyline id="SvgjsPolyline9178" points="0.55,417.89 23.36,425.34 62.94,439.38 74.38,443 83.07,445.35 94.83,447.74 106.76,448.99 118.75,448.83 127.67,447.73 136.47,445.82 147.9,442.2 158.99,437.61 172.41,430.92 182.87,425.04 195.7,417.27 243.76,386.62 254.13,380.59 264.78,375.07 273.03,371.47 281.54,368.55 290.32,366.58 299.28,365.81 305.27,366.04 314.15,367.44 322.8,369.93 333.91,374.45 344.6,379.89 355,385.88 405.62,418.09 418.47,425.82 428.96,431.65 439.69,437.01 450.74,441.69 462.13,445.44 470.9,447.47 482.8,448.94 491.8,449.05 503.74,447.96 515.52,445.68 524.22,443.4 535.68,439.83 578.11,424.84 598.08,418.34"   /><polyline id="SvgjsPolyline9179" points="254.75,599.52 267.84,592.2 278.92,587.62 284.68,585.93 290.55,584.74 299.52,584 308.49,584.6 314.38,585.7 320.16,587.32 331.29,591.78 344.43,599.01"   /><polyline id="SvgjsPolyline9180" points="1.11,405.58 24.12,412.42 66.94,426.24 78.51,429.44 87.28,431.44 99.13,433.32 108.1,433.97 117.1,433.88 129.01,432.51 137.81,430.61 149.27,427.06 160.41,422.61 171.26,417.49 181.88,411.91 194.92,404.49 246.3,373.51 256.84,367.78 264.92,363.82 276.03,359.28 284.65,356.71 293.51,355.15 299.49,354.8 308.47,355.39 317.28,357.2 325.84,359.96 334.15,363.4 342.26,367.31 352.82,373.01 406.8,405.49 427.83,417.03 438.66,422.2 449.78,426.72 461.21,430.35 469.99,432.33 478.9,433.58 490.88,434 502.84,433.08 514.66,431.03 523.42,428.94 534.96,425.66 577.78,411.82 597.91,405.86"   /><polyline id="SvgjsPolyline9181" points="280.33,599.86 286.12,598.28 292.02,597.22 301,596.7 309.95,597.51 318.71,599.56"   /><polyline id="SvgjsPolyline9182" points="1.37,393.26 24.56,399.45 64.87,411.23 85.28,416.16 97.13,418.04 109.1,418.89 121.08,418.5 130.01,417.35 138.82,415.5 150.32,412.11 161.54,407.86 172.51,402.99 183.26,397.67 196.49,390.6 246.15,362.62 264.99,353.36 276.16,348.98 284.8,346.48 293.67,344.96 299.65,344.62 305.65,344.89 314.53,346.32 323.18,348.76 334.38,353.08 342.55,356.84 353.24,362.3 402.9,390.27 416.12,397.35 426.87,402.69 437.82,407.6 449.03,411.89 460.52,415.34 469.31,417.23 481.22,418.67 490.21,418.9 502.18,418.12 514.04,416.29 522.84,414.4 534.46,411.42 574.78,399.64 597.96,393.44"   /><polyline id="SvgjsPolyline9183" points="1.3,380.96 24.66,386.44 68.24,397.67 79.96,400.25 88.82,401.84 100.73,403.27 109.72,403.71 121.7,403.3 130.64,402.21 139.47,400.48 151.04,397.32 162.37,393.36 173.47,388.81 197.86,377.24 248.54,351.16 259.43,346.12 267.74,342.66 276.21,339.62 284.88,337.21 293.75,335.72 299.74,335.4 305.73,335.67 314.61,337.09 323.29,339.46 334.56,343.57 353.68,352.25 401.67,377 426.05,388.6 437.14,393.17 448.46,397.16 457.1,399.65 468.84,402.12 480.76,403.48 489.75,403.72 501.73,403.05 513.62,401.44 534.16,397.09 574.82,386.57 598.18,381.08"   /><polyline id="SvgjsPolyline9184" points="0.88,368.66 27.34,374.03 68.33,383.18 86.04,386.4 97.95,387.83 109.93,388.44 121.92,388.06 130.86,387.08 139.73,385.53 151.38,382.68 162.83,379.1 174.1,374.96 196.21,365.65 245.3,343.14 256.34,338.44 267.54,334.14 276.08,331.31 284.79,329.03 293.66,327.57 299.65,327.24 305.64,327.5 314.53,328.88 323.25,331.12 331.8,333.91 343.02,338.18 354.07,342.86 403.15,365.37 425.25,374.71 436.51,378.87 447.95,382.49 459.59,385.39 468.45,386.98 477.39,388 489.38,388.45 501.36,387.89 513.28,386.5 530.99,383.32 574.92,373.54 598.44,368.8"   /><polyline id="SvgjsPolyline9185" points="0.08,356.39 23.75,360.33 67.99,368.57 88.76,371.67 100.71,372.74 109.7,373.07 121.7,372.76 130.66,371.93 139.56,370.61 151.3,368.16 162.89,365.05 174.34,361.44 196.9,353.27 247.17,333.55 269.87,325.78 278.54,323.37 287.33,321.44 293.27,320.59 299.26,320.22 305.25,320.45 314.16,321.72 322.92,323.74 331.58,326.22 354.25,334.08 401.71,352.74 424.25,360.97 435.68,364.63 447.25,367.81 458.98,370.35 467.87,371.75 479.81,372.85 488.81,373.08 497.81,372.83 509.76,371.84 530.54,368.82 574.78,360.6 598.45,356.63"   /><polyline id="SvgjsPolyline9186" points="1.88,344.53 22.7,347.27 70.18,354.28 88.06,356.4 100.02,357.29 112.02,357.6 124.01,357.21 132.97,356.43 141.89,355.25 153.7,353.12 165.4,350.46 177.01,347.4 197.13,341.41 245.72,325.92 268.82,319.41 286.41,315.62 295.34,314.5 301.33,314.33 307.32,314.74 316.22,316.09 336.67,320.84 359.69,327.59 411.16,343.95 434.28,350.38 451.86,354.2 469.68,356.7 478.66,357.36 490.65,357.59 499.65,357.31 511.62,356.43 529.49,354.32 574.01,347.74 597.8,344.57"   /><polyline id="SvgjsPolyline9187" points="0.34,332.34 68.96,339.54 89.88,341.36 110.86,342.13 122.86,341.89 131.84,341.34 149.73,339.36 167.48,336.38 190.96,331.41 243.49,318.92 264.02,314.48 284.7,310.86 293.63,309.78 299.62,309.47 305.62,309.71 314.56,310.75 338.19,314.93 358.7,319.43 411.24,331.91 434.73,336.8 452.5,339.67 470.4,341.51 482.39,342.06 491.39,342.11 512.36,341.2 530.29,339.62 598.92,332.42"   /><polyline id="SvgjsPolyline9188" points="1.39,320.39 73.23,325.15 91.21,326.09 115.2,326.51 133.19,325.95 151.14,324.62 169.03,322.65 192.81,319.38 258.08,309.62 284.89,306.47 299.85,305.45 314.82,306.44 338.66,309.19 409.87,319.77 433.66,322.98 451.56,324.86 466.52,325.94 487.51,326.52 508.5,326.1 526.48,325.17 598.32,320.4"   /><polyline id="SvgjsPolyline9189" points="2.06,308.41 89.03,310.71 113.03,310.93 134.03,310.67 167,309.42 256.84,303.97 298.79,302.1 340.75,303.84 430.59,309.3 466.56,310.69 487.56,310.93 511.55,310.7 598.52,308.4"   /><polyline id="SvgjsPolyline9190" points="2.34,296.41 86.33,295.45 131.33,295.42 173.33,296.12 299.29,299.13 344.28,298.28 434.25,295.94 470.25,295.39 509.25,295.4 599.24,296.41"   /><polyline id="SvgjsPolyline9191" points="2.22,284.41 89.11,280.16 110.11,279.76 131.1,280.11 149.08,281.07 167.02,282.54 262.43,293.15 286.34,295.24 301.31,295.96 319.28,294.81 340.19,292.89 432.61,282.57 450.55,281.1 468.52,280.13 489.52,279.76 510.51,280.14 597.41,284.39"   /><polyline id="SvgjsPolyline9192" points="1.7,272.42 70.43,266.27 91.37,264.76 112.36,264.19 130.35,264.77 148.27,266.39 166.1,268.89 189.72,273.13 239.69,283.31 260.33,287.22 284.04,290.9 298.97,292.24 310.94,291.5 328.77,289.05 355.35,284.29 405.32,274.11 425.96,270.23 446.71,267.01 467.6,264.9 488.58,264.19 512.57,264.99 599.24,272.49"   /><polyline id="SvgjsPolyline9193" points="0.8,260.46 21.65,258.02 72.22,251.37 90.12,249.55 102.1,248.83 111.1,248.64 123.09,248.94 132.07,249.61 141.01,250.64 152.86,252.52 173.39,256.94 196.59,263.08 245.61,277.15 268.87,283.05 280.61,285.5 289.5,286.95 295.46,287.59 301.46,287.73 307.44,287.33 316.35,286.05 336.89,281.7 357.2,276.37 409.11,261.5 432.37,255.58 450.01,252.01 467.85,249.62 476.82,248.95 488.82,248.64 497.81,248.82 509.79,249.54 527.7,251.36 578.26,258.01 599.12,260.45"   /><polyline id="SvgjsPolyline9194" points="2.46,248.2 23.22,245.03 70.54,236.98 88.38,234.57 100.33,233.56 109.33,233.24 121.32,233.5 130.29,234.25 139.21,235.45 150.99,237.71 171.29,243.07 194.08,250.58 247.67,270 270.56,277.22 279.27,279.46 288.09,281.25 294.04,282.03 300.03,282.32 306.02,282.03 311.97,281.24 320.79,279.45 329.5,277.21 341,273.77 355.22,269 403.14,251.56 425.9,243.93 437.42,240.58 449.07,237.7 460.85,235.44 469.77,234.24 478.74,233.5 490.73,233.24 499.73,233.56 511.68,234.58 529.52,236.99 576.84,245.04 597.6,248.21"   /><polyline id="SvgjsPolyline9195" points="0.78,236.32 21.43,232.5 68.43,222.76 89.15,219.34 101.09,218.18 110.08,217.84 119.08,218.02 131.02,219.14 139.9,220.62 151.59,223.33 163.09,226.74 174.42,230.67 196.72,239.56 246.28,261 257.42,265.44 268.72,269.5 277.32,272.15 286.06,274.28 294.96,275.56 300.96,275.77 306.94,275.38 315.81,273.88 324.52,271.63 333.1,268.89 352.72,261.41 402.28,239.98 424.56,231.05 435.88,227.07 447.36,223.61 459.03,220.83 467.9,219.29 479.84,218.08 488.83,217.83 500.82,218.31 512.75,219.59 533.45,223.12 574.56,231.7 598.15,236.14"   /><polyline id="SvgjsPolyline9196" points="1.67,223.99 22.18,219.49 68.82,208.17 89.45,204.25 101.37,202.93 110.36,202.55 122.35,203.01 131.28,204.09 143.04,206.47 151.71,208.87 163.08,212.71 174.24,217.12 196.1,227.02 244.52,250.93 255.43,255.93 266.51,260.53 277.85,264.44 286.57,266.66 295.47,267.92 301.47,268.08 307.45,267.64 316.3,266.02 324.96,263.57 333.43,260.55 352.71,252.23 401.14,228.35 425.71,217.15 436.86,212.73 448.23,208.89 459.82,205.8 468.66,204.1 477.59,203.01 489.58,202.55 498.57,202.92 510.49,204.24 519.37,205.72 531.12,208.16 577.77,219.48 598.28,223.98"   /><polyline id="SvgjsPolyline9197" points="2.16,211.64 25.42,205.72 65.88,194.46 86.35,189.81 98.22,188.09 107.2,187.45 119.19,187.62 128.14,188.58 136.99,190.23 148.57,193.36 159.88,197.36 170.94,202.02 192.49,212.57 245.2,241.23 255.92,246.61 266.87,251.52 275.29,254.71 283.91,257.26 292.76,258.89 298.74,259.31 304.74,259.13 313.63,257.82 322.33,255.5 330.8,252.46 339.08,248.94 352.57,242.38 405.29,213.74 418.65,206.92 429.51,201.82 440.58,197.19 451.9,193.21 463.49,190.12 472.34,188.51 481.29,187.59 493.28,187.46 502.26,188.14 514.12,189.9 534.59,194.58 575.05,205.85 598.31,211.75"   /><polyline id="SvgjsPolyline9198" points="2.28,199.28 22.48,193.55 65.46,180.22 77.04,177.06 85.81,175.07 97.65,173.13 109.62,172.29 118.61,172.51 130.51,174 139.29,175.97 150.74,179.55 161.89,183.99 172.76,189.07 193.91,200.4 245.65,230.78 256.23,236.44 264.33,240.36 272.62,243.85 281.15,246.73 289.92,248.72 298.87,249.54 307.85,249.04 316.68,247.32 325.27,244.64 333.62,241.28 344.44,236.1 355.01,230.41 406.74,200.03 427.91,188.73 438.8,183.69 449.97,179.3 461.43,175.78 470.23,173.87 482.14,172.46 491.13,172.3 500.11,172.88 511.98,174.63 520.78,176.53 532.38,179.59 575.37,192.9 598.45,199.47"   /><polyline id="SvgjsPolyline9199" points="2.04,186.92 22.08,180.64 64.67,166.12 76.17,162.67 84.89,160.47 96.69,158.3 108.64,157.28 117.64,157.43 129.54,158.92 138.31,160.93 149.72,164.64 160.79,169.27 171.56,174.55 182.09,180.3 195.01,187.92 243.35,218.12 253.76,224.09 264.44,229.56 275.49,234.22 284.09,236.87 292.93,238.51 298.92,238.91 304.91,238.72 313.8,237.37 322.46,234.93 333.6,230.48 344.33,225.12 354.78,219.22 405.7,187.49 418.64,179.89 429.18,174.17 439.97,168.92 451.07,164.35 462.5,160.72 471.28,158.77 480.2,157.59 492.19,157.31 504.13,158.42 515.92,160.66 524.64,162.9 536.12,166.37 575.86,179.96 598.76,187.15"   /><polyline id="SvgjsPolyline9200" points="1.48,174.57 21.36,167.79 63.56,152.17 74.96,148.44 83.63,146.03 95.38,143.59 107.31,142.36 116.31,142.39 128.22,143.79 136.99,145.8 148.37,149.57 159.4,154.31 170.09,159.74 180.53,165.66 193.31,173.51 243.54,206.33 253.85,212.46 264.46,218.07 272.68,221.73 281.17,224.71 289.93,226.73 298.89,227.56 307.87,227.06 316.69,225.31 325.25,222.54 336.24,217.73 346.82,212.08 357.12,205.92 407.34,173.1 420.14,165.27 430.59,159.37 441.3,153.98 452.35,149.3 463.76,145.6 472.55,143.66 481.47,142.54 493.46,142.4 502.42,143.27 514.2,145.5 522.9,147.81 534.34,151.45 579.37,168.06 599.25,174.8"   /><polyline id="SvgjsPolyline9201" points="0.62,162.24 20.34,155.01 62.15,138.38 73.46,134.36 82.07,131.74 93.75,129.02 105.65,127.53 114.65,127.39 120.63,127.81 126.57,128.64 135.35,130.59 146.75,134.35 157.75,139.13 168.4,144.66 178.77,150.7 191.44,158.72 243.62,194.02 253.85,200.28 264.4,205.99 272.6,209.71 281.08,212.72 289.83,214.77 298.79,215.61 307.76,215.12 316.59,213.38 325.14,210.6 336.11,205.74 346.64,200 356.87,193.71 406.53,160.06 419.16,151.97 429.48,145.84 442.77,138.89 453.79,134.14 465.2,130.44 473.99,128.54 482.93,127.51 494.92,127.57 503.86,128.61 515.59,131.11 524.23,133.62 535.57,137.53 580.19,155.22 599.92,162.43"   /><polyline id="SvgjsPolyline9202" points="2.25,148.96 21.77,141.22 63.21,123.69 74.46,119.53 83.05,116.83 94.72,114.07 106.63,112.63 115.62,112.59 121.6,113.1 127.53,114.02 136.27,116.14 147.59,120.12 158.49,125.11 169.04,130.83 179.3,137.05 191.84,145.28 241.04,179.63 251.14,186.1 261.56,192.06 272.39,197.21 280.85,200.26 289.6,202.34 298.55,203.22 307.53,202.77 316.36,201.05 324.92,198.28 335.87,193.39 346.37,187.59 356.55,181.23 408.24,145.22 420.78,137 431.05,130.78 441.6,125.07 452.51,120.08 463.83,116.11 472.57,114 481.49,112.78 487.48,112.5 493.47,112.63 505.38,114.09 517.05,116.85 525.63,119.56 536.89,123.73 578.33,141.26 597.85,148.99"   /><polyline id="SvgjsPolyline9203" points="0.79,136.68 20.16,128.58 61.23,110.19 72.38,105.76 80.89,102.84 92.48,99.76 104.34,97.97 110.33,97.67 116.33,97.8 125.27,98.83 134.05,100.79 145.4,104.64 156.33,109.59 166.88,115.31 177.12,121.57 189.6,129.88 240.88,166.48 253.49,174.6 263.95,180.47 274.88,185.41 283.43,188.21 292.25,189.96 301.23,190.44 310.18,189.6 318.94,187.54 327.4,184.49 338.23,179.32 346.05,174.88 358.68,166.78 407.49,131.9 419.91,123.49 430.07,117.11 443.19,109.83 454.1,104.84 465.44,100.93 474.2,98.92 480.15,98.09 486.13,97.69 495.12,97.92 506.99,99.65 518.6,102.68 527.12,105.57 538.28,109.99 579.35,128.37 598.71,136.49"   /><polyline id="SvgjsPolyline9204" points="1.81,123.34 21,114.82 61.73,95.68 72.82,91.11 81.31,88.11 92.88,84.96 104.74,83.16 110.73,82.88 116.73,83.05 125.65,84.15 134.41,86.2 145.72,90.19 156.59,95.27 167.07,101.11 177.24,107.49 189.63,115.93 240.57,153 250.58,159.62 260.9,165.73 271.67,171.01 280.1,174.17 285.89,175.75 291.79,176.83 300.76,177.38 309.72,176.6 318.49,174.6 326.96,171.59 337.79,166.43 348.17,160.41 358.21,153.83 370.46,145.18 409.16,116.79 421.53,108.3 431.66,101.88 444.76,94.58 455.68,89.62 467.05,85.8 475.85,83.89 484.79,82.96 490.79,82.91 496.78,83.3 508.6,85.29 520.14,88.58 528.59,91.66 539.66,96.3 580.38,115.46 599.59,123.93"   /><polyline id="SvgjsPolyline9205" points="2.54,109.98 18.86,102.38 59.24,82.52 70.22,77.68 81.45,73.47 93,70.24 104.85,68.41 113.84,68.16 119.83,68.58 125.76,69.45 134.51,71.56 145.79,75.64 156.61,80.81 167.03,86.75 177.15,93.22 189.47,101.77 237.67,137.49 250.09,145.9 260.37,152.08 271.1,157.44 276.67,159.68 282.38,161.53 291.17,163.43 300.14,164.07 309.1,163.39 317.89,161.46 326.38,158.5 337.23,153.39 347.61,147.36 360.1,139.06 410.75,101.61 423.08,93.06 433.2,86.61 443.63,80.69 454.47,75.54 465.75,71.49 474.51,69.4 480.44,68.55 486.43,68.15 495.42,68.43 507.26,70.3 518.81,73.56 530.04,77.79 541.01,82.63 581.39,102.5 597.71,110.09"   /><polyline id="SvgjsPolyline9206" points="0.34,97.82 16.55,90.01 59.3,68.17 70.22,63.2 81.41,58.88 92.93,55.56 98.82,54.41 104.77,53.67 113.76,53.4 119.75,53.82 125.68,54.71 134.42,56.86 145.67,61 156.46,66.24 166.85,72.25 176.91,78.78 189.18,87.41 239.6,125.18 252.05,133.55 262.39,139.62 273.21,144.8 281.69,147.8 290.46,149.79 299.42,150.54 308.4,149.96 317.2,148.12 322.92,146.29 328.49,144.08 339.23,138.74 349.51,132.55 361.91,124.11 409.89,88.09 422.13,79.42 432.17,72.85 445.17,65.37 456.03,60.28 467.36,56.34 476.14,54.39 482.09,53.64 488.08,53.37 497.07,53.85 503,54.72 508.87,55.99 520.34,59.49 531.48,63.94 542.37,68.98 582.42,89.5 598.62,97.34"   /><polyline id="SvgjsPolyline9207" points="0.62,84.44 14.05,77.75 59.13,53.91 69.99,48.81 81.14,44.37 92.63,40.94 98.51,39.74 104.46,38.96 110.45,38.64 116.44,38.79 125.36,39.94 134.1,42.08 145.35,46.25 156.12,51.53 166.47,57.59 176.51,64.17 188.73,72.87 238.94,110.91 251.34,119.35 261.64,125.5 272.42,130.76 280.87,133.86 289.61,135.95 298.56,136.83 307.54,136.37 316.37,134.65 322.1,132.88 327.7,130.71 338.47,125.43 348.77,119.28 361.16,110.83 411.38,72.8 423.6,64.1 433.63,57.52 443.99,51.47 454.77,46.2 466.02,42.05 474.76,39.91 480.7,39.04 486.68,38.65 495.67,38.97 501.62,39.76 507.49,40.97 518.98,44.41 530.12,48.86 540.98,53.97 583.4,76.42 599.49,84.5"   /><polyline id="SvgjsPolyline9208" points="0.69,71.06 16.65,62.74 56.1,41.1 69.57,34.5 80.66,29.93 92.12,26.38 97.98,25.12 103.92,24.28 109.91,23.91 115.91,24.03 124.83,25.12 133.58,27.25 144.83,31.41 155.59,36.7 165.93,42.79 175.94,49.4 188.12,58.15 238.17,96.42 250.52,104.93 260.77,111.15 271.5,116.52 277.07,118.75 282.78,120.57 291.59,122.42 300.56,123 309.52,122.25 318.29,120.27 323.98,118.36 329.52,116.07 340.2,110.6 350.42,104.32 362.74,95.76 412.78,57.48 424.98,48.77 435.02,42.19 445.4,36.17 456.2,30.96 467.5,26.93 476.27,24.93 482.22,24.17 488.21,23.89 497.19,24.41 503.12,25.33 508.97,26.65 520.39,30.32 531.45,34.96 542.23,40.24 581.7,61.85 597.63,70.22"   /><polyline id="SvgjsPolyline9209" points="0.55,57.68 13.77,50.6 58.22,25.61 68.96,20.26 80,15.55 91.41,11.87 97.26,10.54 103.19,9.64 109.18,9.2 115.17,9.25 124.11,10.28 132.86,12.35 144.13,16.47 154.89,21.76 165.23,27.85 175.23,34.48 187.39,43.27 237.28,81.73 249.58,90.31 259.79,96.62 270.46,102.09 276,104.39 281.69,106.3 290.46,108.29 299.42,109.04 308.39,108.46 317.2,106.62 322.91,104.79 328.48,102.56 339.2,97.19 349.45,90.95 361.78,82.41 411.68,43.96 423.82,35.15 433.79,28.47 444.09,22.31 454.81,16.94 466.03,12.68 474.75,10.49 483.67,9.32 489.66,9.17 495.65,9.51 501.59,10.33 507.46,11.58 518.91,15.15 529.98,19.77 540.75,25.07 553.92,32.24 582.59,48.58 598.42,57.15"   /><polyline id="SvgjsPolyline9210" points="0.22,44.3 13.36,37.06 57.52,11.56 70.91,4.8 81.98,0.18"   /><polyline id="SvgjsPolyline9211" points="136.26,0.84 144.63,4.14 152.72,8.08 160.56,12.51 170.67,18.96 190.13,33.01 235.11,68.01 247.32,76.72 257.43,83.18 267.99,88.88 279.08,93.43 284.84,95.1 290.73,96.28 299.69,96.99 308.66,96.37 314.55,95.25 320.33,93.62 331.45,89.15 342.03,83.49 352.16,77.07 364.39,68.38 409.38,33.38 428.81,19.31 438.91,12.83 449.39,6.98 457.55,3.19 466,0.1"   /><polyline id="SvgjsPolyline9212" points="513.61,0.8 527.58,6.24 541.03,12.89 598.38,45.54"   /><polyline id="SvgjsPolyline9213" points="2.3,29.51 51.39,0.55"   /><polyline id="SvgjsPolyline9214" points="163.97,0.59 173.96,7.25 186.09,16.07 223.84,45.71 238.17,56.61 247.97,63.52 255.53,68.4 263.33,72.9 268.69,75.6 279.82,80.06 285.6,81.67 291.49,82.78 300.46,83.38 309.42,82.65 315.3,81.46 321.06,79.77 332.15,75.2 345.25,67.92 355.26,61.31 367.38,52.47 417.06,13.72 426.8,6.72 436.81,0.1"   /><polyline id="SvgjsPolyline9215" points="543.9,0.85 598.28,32.64"   /><polyline id="SvgjsPolyline9216" points="1.59,16.14 27.34,0.75"   /><polyline id="SvgjsPolyline9217" points="185.88,1 233.05,38.08 245.17,46.92 257.75,55.07 268.31,60.76 279.43,65.27 285.19,66.92 291.08,68.07 300.05,68.73 309.02,68.05 314.9,66.9 320.67,65.24 331.77,60.72 342.33,55.02 354.91,46.86 367.03,38.02 414.2,0.94"   /><polyline id="SvgjsPolyline9218" points="568.21,1.1 599.13,19.55"   /><polyline id="SvgjsPolyline9219" points="0.75,2.78 3.34,1.27"   /><polyline id="SvgjsPolyline9220" points="205.17,0.77 223.91,15.76 238.2,26.7 250.48,35.31 260.7,41.6 271.41,47 276.97,49.24 282.68,51.09 291.48,52.95 300.45,53.55 309.42,52.81 318.19,50.84 323.88,48.93 329.42,46.64 340.09,41.15 350.28,34.81 362.53,26.16 376.8,15.2 395.54,0.2"   /><polyline id="SvgjsPolyline9221" points="589.76,0.19 597.51,4.78"   /><polyline id="SvgjsPolyline9222" points="224.36,0.79 238.65,11.74 248.44,18.67 258.57,25.1 266.47,29.41 274.67,33.11 283.2,35.97 292.01,37.76 300.99,38.28 306.97,37.89 315.81,36.23 324.38,33.48 332.62,29.87 340.55,25.62 350.71,19.25 360.53,12.35 374.83,1.42"   /><polyline id="SvgjsPolyline9223" points="243.43,0.34 253.37,7.06 261.08,11.7 269.07,15.84 274.57,18.23 283.1,21.11 288.94,22.44 294.89,23.24 300.88,23.45 306.87,23.06 312.79,22.1 318.6,20.62 327.06,17.56 332.52,15.08 340.45,10.83 348.12,6.11 355.56,1.06"   /><polyline id="SvgjsPolyline9224" points="266.97,1.24 275.19,4.9 283.74,7.7 292.57,9.42 301.55,9.86 307.53,9.41 316.35,7.68 324.9,4.87 333.11,1.2"   /></g></svg>