<?xml version="1.0" standalone="no"?>
<svg id="SvgjsSvg1001" width="600" height="600" xmlns="http://www.w3.org/2000/svg" version="1.1" xmlns:xlink="http://www.w3.org/1999/xlink" xmlns:svgjs="http://svgjs.com/svgjs" class="svg-paper" viewBox="0 0 600 600"><title id="SvgjsTitle6329">x=((sqrt(x*x + y*y)+sqrt(x*x + y*y))-(cos(y)-cos(x)))|y=sin((min(x/sin(x),x)+x))|dTest=0.0|sd=0.2|sm=0.2|ts=0.05 | generated with FlowLines</title><style>*{fill:none;stroke:#777}</style><g id="SvgjsG6330"><polyline id="SvgjsPolyline6331" points="0,521.08 21,520.65 65.98,521.73 86.93,520.43 92.92,520.8 104.89,520.87 119.88,520.57 140.83,519.25 185.6,514.68 206.58,513.93 218.57,514.24 230.55,515.03 266.35,518.75 281.3,519.99 293.29,520.52 305.29,520.55 326.25,519.43 371.02,514.9 383,514.17 395,513.93 415.97,514.8 457.75,519.12 475.7,520.4 496.67,520.87 505.65,520.67 511.63,520.98 523.61,520.26 556.52,522.48 598.52,522.87"   /><polyline id="SvgjsPolyline6332" points="0.63,533.06 21.63,532.68 63.61,533.75 72.61,533.51 87.56,532.45 93.55,532.87 120.5,532.19 141.45,530.86 183.24,526.63 204.21,525.74 216.21,525.93 228.19,526.62 267,530.47 281.95,531.65 293.94,532.14 305.94,532.14 326.91,531.01 374.68,526.41 395.67,525.74 407.66,526.06 419.63,526.86 458.43,530.85 476.39,532.07 491.38,532.5 503.35,532.11 509.33,532.39 524.31,531.69 557.23,533.9 599.22,534.26"   /><polyline id="SvgjsPolyline6333" points="2.48,508.95 20.48,508.63 65.46,509.73 74.45,509.38 86.41,508.41 104.36,508.87 122.35,508.46 143.29,506.96 182.06,502.77 194.04,501.98 206.03,501.71 218.03,502 230,502.8 265.79,506.65 280.74,507.95 292.72,508.53 304.72,508.58 325.69,507.46 373.43,502.53 385.41,501.86 394.41,501.71 406.41,502 418.38,502.8 457.15,507 475.1,508.35 493.08,508.88 505.06,508.64 511.04,509.01 523.01,508.25 555.93,510.49 597.93,510.89"   /><polyline id="SvgjsPolyline6334" points="1.23,545.05 22.23,544.7 64.21,545.75 73.21,545.49 85.17,544.53 94.15,544.91 103.12,544.69 112.1,545.12 121.1,544.97 139.07,543.89 183.85,539.52 204.83,538.69 216.83,538.9 228.81,539.59 279.59,544.29 291.57,544.86 303.57,544.95 324.55,544 372.34,539.51 384.32,538.86 396.32,538.69 417.29,539.6 456.1,543.46 474.05,544.77 509.99,545.7 524.96,545.01 545.9,546.6 557.88,547.19 599.88,547.54"   /><polyline id="SvgjsPolyline6335" points="1.94,496.96 22.94,496.64 64.92,497.74 73.91,497.41 85.87,496.4 94.85,496.84 121.81,496.48 142.75,494.96 181.51,490.61 193.48,489.77 205.47,489.46 217.47,489.74 229.44,490.56 268.2,494.87 280.15,495.93 292.13,496.55 304.13,496.64 316.12,496.18 328.08,495.24 372.82,490.37 384.8,489.64 393.79,489.46 405.79,489.73 417.76,490.55 456.52,494.88 474.46,496.31 492.44,496.61 501.4,497.15 504.39,496.92 510.38,497.31 519.35,496.63 525.35,496.57 555.26,498.78 597.26,499.21"   /><polyline id="SvgjsPolyline6336" points="1.81,557.03 22.8,556.73 64.78,557.76 73.78,557.46 85.74,556.53 94.72,556.93 121.68,556.3 139.64,555.21 184.44,550.92 205.42,550.15 217.42,550.38 229.39,551.07 280.18,555.66 292.17,556.2 304.17,556.27 325.15,555.3 372.94,550.91 393.92,550.15 405.92,550.38 417.9,551.09 456.71,554.89 474.67,556.15 489.66,556.5 504.63,556.26 510.61,556.62 519.59,555.98 525.59,555.95 555.51,558.01 597.51,558.41"   /><polyline id="SvgjsPolyline6337" points="1.37,484.97 22.36,484.62 64.35,485.75 73.34,485.45 85.29,484.39 94.27,484.83 103.24,484.58 106.23,484.82 121.21,484.34 142.15,482.8 183.88,478 195.85,477.21 204.85,477 216.84,477.27 228.81,478.1 279.49,483.75 291.47,484.43 306.47,484.49 327.42,483.14 372.13,478.01 384.1,477.22 396.1,477.01 408.09,477.41 417.06,478.08 458.78,482.9 476.73,484.25 488.72,484.57 503.71,484.38 509.69,484.73 524.66,483.96 545.58,485.68 557.56,486.34 599.56,486.72"   /><polyline id="SvgjsPolyline6338" points="2.35,569.02 20.35,568.71 65.34,569.76 74.33,569.44 86.29,568.53 95.28,568.93 122.23,568.52 140.2,567.42 182.01,563.43 193.99,562.74 205.98,562.5 217.98,562.75 229.96,563.45 277.76,567.75 292.75,568.44 304.75,568.48 325.72,567.5 373.53,563.21 394.51,562.5 415.49,563.25 457.3,567.21 478.26,568.54 487.26,568.71 505.23,568.31 511.22,568.64 523.19,567.93 556.12,570.05 598.11,570.43"   /><polyline id="SvgjsPolyline6339" points="0.77,472.99 21.76,472.59 63.74,473.75 72.74,473.48 87.68,472.3 93.66,472.78 108.62,472.25 111.61,472.5 120.61,472.34 141.54,470.78 183.24,465.73 195.21,464.88 204.2,464.63 216.2,464.87 228.17,465.72 278.81,471.71 293.78,472.56 305.78,472.57 314.77,472.18 326.73,471.19 371.4,465.76 383.37,464.89 395.36,464.63 407.36,465.01 416.33,465.69 458.02,470.73 475.96,472.19 496.93,472.72 505.9,472.54 511.88,472.85 523.85,472.07 556.75,474.49 598.75,474.9"   /><polyline id="SvgjsPolyline6340" points="2.88,581.01 20.88,580.73 62.86,581.77 71.86,581.58 86.82,580.53 92.81,580.88 119.77,581.08 140.73,579.88 182.54,575.96 203.52,575.09 215.52,575.25 227.5,575.85 281.3,580.44 293.29,580.92 305.29,580.94 326.27,579.95 371.09,575.94 383.07,575.3 395.07,575.09 416.05,575.86 457.87,579.76 475.83,580.93 511.78,581.42 523.76,580.75 556.68,582.86 598.68,583.23"   /><polyline id="SvgjsPolyline6341" points="0.13,461 21.12,460.55 63.1,461.76 72.1,461.52 87.04,460.26 93.02,460.7 122.96,460.53 140.9,459.07 185.54,453.46 197.51,452.67 206.51,452.5 218.5,452.89 230.46,453.91 266.14,458.66 281.06,460.24 293.04,460.93 305.04,460.98 314.03,460.6 325.98,459.58 373.59,453.5 382.57,452.83 394.56,452.5 403.56,452.71 415.53,453.56 457.19,458.86 475.12,460.43 487.11,460.79 493.08,461.31 505.05,461.03 511.03,461.44 523,460.59 555.89,463.06 597.89,463.5"   /><polyline id="SvgjsPolyline6342" points="0.39,593.1 21.38,592.75 63.37,593.78 72.36,593.56 87.33,592.55 93.31,592.93 120.29,592.74 141.25,591.52 183.07,587.67 204.05,586.85 216.05,587.02 228.03,587.63 281.84,592.14 293.83,592.58 305.83,592.59 326.8,591.58 371.63,587.65 383.61,587.03 395.61,586.85 407.61,587.14 419.58,587.86 455.43,591.24 476.38,592.63 491.37,592.97 503.35,592.6 509.34,592.86 524.31,592.2 557.24,594.3 599.24,594.65"   /><polyline id="SvgjsPolyline6343" points="2.57,448.86 23.57,448.56 62.55,449.77 71.54,449.56 86.48,448.23 110.39,449.03 122.38,448.74 140.32,447.25 184.92,441.28 196.89,440.4 205.88,440.2 217.87,440.58 229.83,441.64 265.46,446.73 280.36,448.46 292.33,449.24 304.33,449.33 313.32,448.95 325.27,447.89 372.82,441.35 384.79,440.43 396.78,440.21 405.77,440.54 417.73,441.56 456.37,446.85 474.28,448.56 489.27,449.05 492.26,448.89 501.21,449.45 504.2,449.19 510.17,449.62 519.14,448.86 525.13,448.78 546.05,450.68 558.02,451.37 597.02,451.72"   /><polyline id="SvgjsPolyline6344" points="180.99,599.85 192.97,599.16 204.97,598.9 216.96,599.1 231.94,599.94"   /><polyline id="SvgjsPolyline6345" points="369.52,599.83 381.5,599.16 393.5,598.9 405.5,599.1 420.47,599.96"   /><polyline id="SvgjsPolyline6346" points="1.98,436.88 22.97,436.53 64.95,437.78 73.94,437.4 85.88,436.2 94.85,436.73 97.84,436.45 109.81,436.67 121.8,436.43 133.77,435.55 142.71,434.52 184.27,428.49 196.23,427.5 205.22,427.24 217.21,427.61 229.16,428.74 267.7,434.71 279.61,436.19 291.57,437.07 303.57,437.23 315.55,436.63 327.48,435.37 371.97,428.6 383.92,427.54 395.91,427.25 404.91,427.56 416.86,428.62 455.44,434.28 467.36,435.66 476.34,436.33 491.32,436.94 503.26,436.32 512.23,436.64 518.2,435.99 524.19,435.79 545.1,437.72 557.07,438.47 599.07,438.91"   /><polyline id="SvgjsPolyline6347" points="1.35,424.89 22.34,424.49 64.32,425.8 73.31,425.45 85.24,424.18 88.24,424.13 94.21,424.7 103.16,424.4 109.14,424.87 121.13,424.61 133.09,423.71 142.03,422.64 174.6,417.39 186.5,415.79 198.46,414.85 207.46,414.69 219.44,415.27 231.36,416.63 266.83,422.77 278.71,424.43 290.67,425.46 305.66,425.62 314.65,425.09 326.57,423.76 362.05,417.65 373.92,415.94 385.88,414.9 394.87,414.68 403.87,414.97 415.82,416.06 457.31,422.55 475.21,424.4 487.2,424.83 505.15,424.55 511.12,425.02 523.08,424.05 555.95,426.81 567.94,427.15 597.94,427.29"   /><polyline id="SvgjsPolyline6348" points="0.67,412.91 21.66,412.45 63.64,413.82 72.63,413.5 87.55,412.05 93.52,412.63 105.47,412.08 108.44,412.34 123.41,411.8 132.38,411.05 144.28,409.48 173.81,404.23 185.68,402.44 197.62,401.34 206.62,401.11 218.6,401.69 230.51,403.17 265.85,410.02 280.67,412.3 292.63,413.31 304.62,413.42 313.61,412.89 325.52,411.47 337.34,409.41 360.87,404.67 372.7,402.69 384.63,401.43 393.63,401.11 402.62,401.35 414.57,402.48 426.43,404.28 455.97,409.52 467.86,411.07 476.83,411.82 491.8,412.27 503.75,411.91 509.72,412.37 518.68,411.55 524.67,411.39 545.56,413.52 557.53,414.31 599.53,414.76"   /><polyline id="SvgjsPolyline6349" points="0.08,400.9 12.07,400.44 24.07,400.46 63.04,401.85 72.03,401.56 86.94,399.99 92.91,400.54 98.88,400.3 107.84,400.71 122.82,400.37 131.79,399.59 143.67,397.94 184.96,390.28 196.89,389 205.88,388.7 217.86,389.28 229.75,390.88 238.59,392.59 264.93,398.54 279.69,401.16 291.63,402.37 303.62,402.57 315.59,401.75 327.46,400.02 362.63,392.34 374.44,390.21 386.37,388.94 395.36,388.7 404.35,389.09 416.27,390.46 457.56,398.14 475.43,400.25 496.37,400.87 505.33,400.59 511.3,401.08 523.24,400.02 529.23,400.39 547.11,402.42 556.09,403.03 571.08,403.43 598.08,403.54"   /><polyline id="SvgjsPolyline6350" points="2.43,388.78 11.43,388.42 23.42,388.42 62.39,389.88 71.39,389.62 86.29,387.94 95.25,388.6 98.22,388.23 104.17,388.54 107.14,388.13 113.13,388.39 122.12,388.06 134.06,386.9 142.96,385.53 175.25,378.75 187.06,376.64 198.99,375.38 207.99,375.2 216.97,375.74 228.83,377.51 240.54,380.15 266.67,386.94 278.43,389.33 293.32,391.02 305.32,391.09 317.26,389.99 329.08,387.89 361.05,379.75 372.78,377.21 384.67,375.59 393.65,375.18 402.65,375.49 414.56,376.89 426.36,379.08 455.71,385.29 467.57,387.1 476.52,387.97 494.47,388.59 503.42,388.05 509.39,388.5 512.38,388.44 521.32,387.43 524.32,387.43 548.18,390.01 557.16,390.61 599.15,391.1"   /><polyline id="SvgjsPolyline6351" points="1.74,376.8 10.73,376.41 22.73,376.38 64.7,377.89 73.69,377.44 85.59,375.9 88.58,375.88 94.54,376.58 97.51,376.24 103.47,376.23 109.43,376.73 121.4,376.22 133.33,375.02 145.16,373.01 177.31,365.55 186.14,363.81 198.04,362.31 207.03,362.02 218.99,362.92 230.77,365.15 242.35,368.31 265.31,375.3 279.91,378.72 291.8,380.29 303.79,380.55 315.73,379.44 327.51,377.16 339.09,374.03 362.05,367.03 373.7,364.16 385.56,362.4 394.55,362.01 403.54,362.44 415.42,364.09 456.39,373.31 465.26,374.82 474.2,375.88 483.18,376.43 495.15,376.38 501.09,376.87 504.06,376.52 510.02,377.09 518.95,376.1 524.95,375.96 545.8,378.39 554.77,379.12 566.76,379.56 599.76,379.77"   /><polyline id="SvgjsPolyline6352" points="1,364.82 9.99,364.39 21.99,364.33 63.95,365.92 72.94,365.51 84.83,363.89 87.83,363.77 93.77,364.51 123.61,363.05 132.55,362.04 144.36,359.91 176.33,351.76 188.06,349.21 196.97,347.95 205.95,347.51 211.95,347.74 217.91,348.41 229.64,350.9 241.08,354.52 266.46,363.73 278,367 286.84,368.69 292.8,369.38 304.78,369.54 316.69,368.11 328.36,365.32 339.76,361.6 362.3,353.36 373.82,350.01 385.64,347.96 394.62,347.51 403.6,348.01 412.51,349.31 421.31,351.18 453.27,359.39 465.05,361.68 473.97,362.83 482.95,363.44 488.94,363.45 491.9,363.88 494.86,363.61 500.84,363.84 503.81,363.51 509.76,364.08 512.76,363.95 518.69,363.08 524.68,362.88 545.52,365.42 557.48,366.35 569.48,366.7 599.48,366.87"   /><polyline id="SvgjsPolyline6353" points="0.2,352.85 9.19,352.38 21.19,352.27 63.15,353.93 72.14,353.58 87.01,351.68 92.96,352.37 98.92,352.07 107.85,352.54 122.81,352.06 131.75,351.04 143.54,348.84 155.18,345.9 175.36,340.11 187.02,337.27 198.88,335.49 207.87,335.22 213.85,335.64 219.79,336.53 231.38,339.61 239.81,342.74 264.63,353.36 273.09,356.43 278.84,358.14 284.69,359.5 290.61,360.45 296.59,360.96 302.58,360.99 308.57,360.55 314.5,359.66 326.12,356.69 337.38,352.55 362.21,341.94 373.57,338.1 379.4,336.7 385.32,335.73 394.3,335.19 403.28,335.71 412.17,337.11 423.84,339.9 444.02,345.68 455.65,348.66 467.43,350.92 476.36,351.99 491.31,352.6 497.23,351.9 503.18,351.67 512.13,352.12 518.06,351.21 524.04,350.91 530.02,351.43 544.88,353.49 556.83,354.49 568.82,354.88 598.82,355.05"   /><polyline id="SvgjsPolyline6354" points="2.48,340.67 11.48,340.28 23.47,340.28 56.44,341.81 65.44,341.93 74.41,341.34 86.29,339.63 95.22,340.44 98.18,339.99 104.12,340.34 110.02,339.47 125,338.74 133.91,337.5 145.64,334.99 154.32,332.61 177.26,325.54 188.89,322.6 197.77,321.18 206.75,320.74 212.74,321.1 218.67,322.01 224.5,323.43 230.19,325.32 241.18,330.12 265.15,342.56 273.38,346.18 279.03,348.21 284.8,349.83 290.69,350.98 296.66,351.58 302.65,351.62 308.63,351.08 314.53,349.99 320.32,348.42 325.98,346.43 336.93,341.54 360.9,329.11 371.99,324.55 377.73,322.83 383.6,321.59 389.56,320.89 395.56,320.74 404.52,321.46 413.37,323.09 422.08,325.35 453.69,334.82 465.41,337.38 474.32,338.66 486.29,339.41 492.26,339.07 501.14,339.96 504.1,339.55 510.05,340.22 518.96,339.08 524.95,338.92 545.77,341.65 557.73,342.63 569.72,342.99 599.72,343.17"   /><polyline id="SvgjsPolyline6355" points="1.72,328.7 10.71,328.27 22.71,328.23 55.67,329.78 64.67,329.94 73.65,329.42 85.51,327.62 88.51,327.59 94.44,328.42 97.41,328.03 100.39,328.22 103.34,327.98 106.3,328.47 109.25,328.03 118.25,327.88 124.23,327.42 136.09,325.64 144.86,323.62 153.52,321.17 179.23,312.93 187.94,310.65 193.82,309.5 199.77,308.75 208.76,308.55 214.73,309.13 220.62,310.28 226.37,311.98 231.96,314.16 242.66,319.59 268.33,335.11 279.19,340.18 284.88,342.09 290.72,343.44 296.67,344.16 302.67,344.2 308.63,343.55 314.49,342.27 320.2,340.42 325.73,338.1 336.32,332.47 359.39,318.44 370.2,313.26 375.86,311.26 381.66,309.76 387.59,308.83 393.58,308.48 402.56,308.99 411.42,310.51 423.01,313.6 445.85,320.98 454.5,323.46 466.21,326.07 475.12,327.35 493.05,328.44 499,328.03 501.97,328.27 504.94,327.9 510.89,328.61 519.79,327.35 522.79,327.21 528.77,327.62 543.61,329.8 555.55,330.95 567.54,331.41 597.54,331.58"   /><polyline id="SvgjsPolyline6356" points="0.91,316.73 12.9,316.18 21.9,316.18 63.85,317.94 72.84,317.49 84.69,315.65 87.69,315.49 93.62,316.33 102.56,315.96 105.5,315.49 108.45,315.84 123.41,315.14 132.32,313.94 144.04,311.37 155.55,307.97 178.34,300.45 189.95,297.43 195.86,296.39 201.82,295.79 210.82,295.88 216.76,296.66 222.6,298.03 228.29,299.95 236.46,303.71 246.71,309.93 268.67,325.63 276.38,330.27 281.79,332.86 287.44,334.88 293.28,336.21 299.26,336.74 302.25,336.68 308.2,335.95 314.01,334.43 319.59,332.25 324.94,329.54 332.58,324.79 354.54,309.09 362.23,304.41 367.58,301.7 375.97,298.46 381.78,296.95 387.7,296.02 393.69,295.68 402.67,296.2 414.45,298.44 423.11,300.89 445.89,308.43 454.52,310.98 466.21,313.67 475.11,314.99 487.09,315.71 498.98,315.04 501.95,315.3 504.91,314.92 510.85,315.64 519.75,314.36 522.75,314.21 528.73,314.62 543.56,316.85 555.51,318.02 567.5,318.49 597.49,318.66"   /><polyline id="SvgjsPolyline6357" points="0.04,304.76 12.03,304.16 24.03,304.19 62.99,305.92 71.97,305.55 86.82,303.44 92.76,304.17 95.74,304.26 98.7,303.85 107.55,305 110.48,304.58 122.45,303.99 131.37,302.84 143.1,300.33 154.62,296.96 177.41,289.44 189.01,286.39 194.91,285.31 200.88,284.66 209.87,284.61 215.83,285.28 221.7,286.52 227.42,288.3 235.67,291.9 240.91,294.81 248.41,299.78 271.8,318.56 279.22,323.64 284.53,326.44 290.14,328.55 296.01,329.75 299,329.97 302,329.93 307.93,329.06 313.64,327.23 319.05,324.64 324.15,321.49 329,317.96 345.23,304.63 352.4,299.2 359.95,294.3 365.23,291.45 370.71,289.01 376.38,287.05 382.2,285.63 388.14,284.77 394.13,284.48 400.12,284.73 406.08,285.46 411.97,286.6 423.55,289.74 443.48,296.35 454.96,299.81 466.66,302.49 475.56,303.79 496.39,305.25 505.31,304.85 511.25,305.54 520.15,304.22 523.15,304.11 529.13,304.57 546.93,307.18 555.9,307.96 570.89,308.47 597.89,308.6"   /><polyline id="SvgjsPolyline6358" points="2.28,292.57 11.27,292.16 23.27,292.15 56.23,293.74 65.23,293.88 74.2,293.28 86.06,291.45 89.05,291.51 94.99,292.31 97.94,291.84 100.9,292.16 106.87,291.83 109.82,292.33 121.77,291.89 130.7,290.8 142.44,288.36 153.98,285.07 176.83,277.73 188.45,274.75 200.32,273.04 206.32,272.84 212.31,273.15 221.18,274.6 226.96,276.22 232.58,278.32 240.66,282.26 248.32,286.99 255.55,292.34 262.42,298.15 275.65,310.36 282.65,316 287.78,319.1 290.52,320.33 296.3,321.91 299.28,322.18 302.28,322.08 308.13,320.82 310.92,319.72 316.16,316.81 323.27,311.31 336.51,299.11 345.68,291.37 352.98,286.12 360.71,281.51 368.87,277.73 374.54,275.75 383.29,273.72 389.25,273.02 395.25,272.84 401.24,273.17 413.08,275.08 424.67,278.18 444.65,284.64 456.17,288 467.89,290.56 476.8,291.76 488.77,292.43 497.74,291.95 500.72,292.1 503.68,291.74 509.62,292.38 512.62,292.26 518.53,291.25 524.52,291 530.48,291.61 545.32,293.84 557.27,294.9 569.26,295.3 599.26,295.48"   /><polyline id="SvgjsPolyline6359" points="1.48,280.6 10.47,280.15 22.47,280.11 64.43,281.85 73.41,281.34 85.27,279.51 88.26,279.43 94.19,280.29 103.09,279.83 109,280.53 111.95,280.03 120.94,279.68 129.88,278.66 141.65,276.35 150.35,274.06 176.18,266.19 187.84,263.34 196.73,261.95 202.71,261.51 208.71,261.51 214.69,261.98 223.54,263.58 232.14,266.2 240.42,269.71 248.35,273.97 255.92,278.83 265.48,286.09 272.25,292.01 285.08,304.63 289.59,308.59 292.06,310.28 294.75,311.61 297.63,312.44 300.61,312.64 303.57,312.17 306.38,311.12 311.37,307.83 326.45,293.22 333.16,287.22 342.63,279.85 352.71,273.35 360.68,269.19 369.01,265.79 377.66,263.3 386.53,261.84 392.52,261.47 398.52,261.56 404.49,262.09 413.36,263.59 425,266.52 447.94,273.56 456.62,275.93 465.41,277.87 474.31,279.22 483.28,279.92 489.27,280.11 492.25,279.86 501.12,280.76 504.08,280.33 510.02,281.03 518.92,279.84 524.91,279.67 545.71,282.51 557.67,283.53 569.66,283.91 599.66,284.1"   /><polyline id="SvgjsPolyline6360" points="0.65,268.63 9.64,268.16 21.63,268.07 63.59,269.8 72.58,269.38 84.44,267.6 87.44,267.41 93.37,268.2 105.31,267.65 114.27,267.99 123.26,267.49 132.18,266.35 143.94,263.95 175.71,255.04 187.41,252.36 199.3,250.79 205.29,250.56 211.29,250.73 217.25,251.34 226.09,253.04 234.71,255.62 243.08,258.93 251.18,262.83 261.63,268.73 291.92,288.17 297.43,290.51 300.4,290.83 303.34,290.29 308.78,287.78 339.06,268.31 346.88,263.86 354.92,259.83 363.23,256.36 371.79,253.6 380.58,251.67 389.52,250.69 395.51,250.56 401.51,250.85 413.39,252.51 425.07,255.24 456.84,264.14 465.65,265.98 474.56,267.27 483.53,267.93 492.5,267.76 501.38,268.64 504.34,268.22 510.29,268.92 519.2,267.73 525.19,267.6 545.99,270.4 557.95,271.39 569.95,271.76 599.94,271.94"   /><polyline id="SvgjsPolyline6361" points="2.93,256.45 11.92,256.08 23.92,256.1 62.88,257.75 71.88,257.4 86.74,255.43 95.67,256.2 98.64,255.8 107.51,256.8 122.47,256.19 131.41,255.15 143.2,252.93 175.12,244.58 186.85,242.07 198.75,240.58 210.75,240.46 222.66,241.86 228.52,243.11 237.18,245.58 251.18,250.94 275.65,262.35 283.95,265.81 292.58,268.33 298.53,269.07 301.53,269.07 307.48,268.32 316.1,265.79 324.41,262.32 348.88,250.91 357.22,247.54 365.75,244.66 374.46,242.43 380.37,241.36 386.32,240.66 395.31,240.33 404.3,240.84 416.16,242.63 427.85,245.33 456.86,252.94 465.69,254.69 474.61,255.91 501.45,257.64 504.42,257.23 510.37,257.91 519.28,256.74 525.27,256.64 546.09,259.37 555.05,260.17 570.04,260.69 597.04,260.82"   /><polyline id="SvgjsPolyline6362" points="2.2,244.47 11.19,244.08 23.19,244.07 56.15,245.54 65.15,245.67 74.13,245.13 86.01,243.49 89.01,243.53 94.96,244.25 97.93,243.83 100.89,244.12 106.87,243.83 109.83,244.23 121.8,243.79 130.75,242.86 142.57,240.82 174.66,233.11 186.43,230.79 198.34,229.4 207.34,229.16 219.3,230.02 231.1,232.17 245.52,236.29 270.89,245.53 282.33,249.14 288.17,250.49 294.11,251.37 303.1,251.58 312.02,250.45 320.75,248.28 329.29,245.46 354.66,236.23 369.09,232.12 377.92,230.41 383.87,229.66 395.85,229.16 404.84,229.66 416.72,231.33 428.45,233.83 457.61,240.86 466.47,242.46 475.4,243.56 487.38,244.15 502.3,244.08 505.28,243.82 511.24,244.43 520.16,243.25 523.15,243.16 529.14,243.58 546.98,245.96 555.95,246.68 567.94,247.11 597.94,247.28"   /><polyline id="SvgjsPolyline6363" points="1.44,232.5 13.43,232.02 22.43,232.04 64.4,233.61 73.38,233.16 85.27,231.57 88.27,231.51 94.22,232.24 103.14,231.85 109.09,232.57 121.05,232.31 130.01,231.48 141.86,229.62 174.08,222.48 185.88,220.32 197.81,219.01 206.8,218.75 218.77,219.47 233.56,221.96 245.18,224.94 271.01,232.79 282.66,235.68 294.54,237.33 303.53,237.45 312.48,236.55 321.31,234.81 330.01,232.5 355.84,224.65 370.42,221.13 382.28,219.36 394.26,218.75 403.25,219.09 415.17,220.48 426.96,222.7 459.18,229.81 468.07,231.23 477.02,232.18 489,232.59 494.93,232.18 500.89,232.49 503.86,232.15 509.82,232.73 518.75,231.73 524.74,231.55 545.59,234.06 557.55,234.99 569.54,235.34 599.54,235.51"   /><polyline id="SvgjsPolyline6364" points="0.67,220.52 9.66,220.09 21.66,220.02 63.62,221.55 72.61,221.18 87.51,219.51 93.47,220.18 105.41,219.6 108.37,219.95 123.32,219.31 132.27,218.41 141.17,217.09 173.52,210.55 185.35,208.56 197.28,207.33 206.28,207.07 218.26,207.66 233.1,209.82 244.82,212.4 270.97,219.09 282.74,221.44 294.66,222.75 303.66,222.82 312.63,222.1 324.45,220.1 356.46,212.09 371.15,209.05 383.05,207.54 395.04,207.07 404.03,207.42 415.95,208.75 427.78,210.8 457.17,216.8 466.06,218.2 475,219.18 486.99,219.73 495.91,218.93 501.88,219.09 504.86,218.77 510.82,219.36 522.75,218.19 528.74,218.53 546.6,220.73 555.57,221.41 567.57,221.83 597.57,221.98"   /><polyline id="SvgjsPolyline6365" points="0.02,208.51 21.01,208 62.98,209.48 71.97,209.19 86.88,207.55 92.84,208.11 98.81,207.87 107.75,208.48 122.71,207.95 131.68,207.15 140.59,205.93 173.03,199.88 184.89,198.02 196.83,196.87 205.82,196.6 217.81,197.1 232.68,199.01 244.46,201.31 270.81,207.2 282.63,209.24 294.57,210.35 303.57,210.42 312.55,209.82 324.42,208.11 356.66,201.07 371.41,198.36 383.33,197.01 395.32,196.6 404.31,196.94 416.25,198.18 428.09,200.08 457.57,205.64 466.48,206.93 475.44,207.82 496.37,208.49 505.32,208.19 511.29,208.71 523.22,207.61 529.21,207.98 547.09,210.09 556.06,210.73 571.06,211.15 598.05,211.27"   /><polyline id="SvgjsPolyline6366" points="2.36,196.38 11.35,196.03 23.35,196.03 65.32,197.41 74.31,196.94 86.23,195.6 95.19,196.21 98.17,195.87 104.13,196.14 107.11,195.77 122.1,195.6 140,193.78 172.52,188.2 184.39,186.47 196.34,185.38 205.34,185.11 217.33,185.52 232.23,187.21 270.54,194.48 282.41,196.26 294.37,197.24 303.36,197.31 315.33,196.52 324.26,195.34 359.61,188.58 371.46,186.69 383.4,185.47 395.39,185.11 404.38,185.42 416.33,186.56 428.2,188.31 457.75,193.45 475.64,195.46 493.6,195.92 496.58,196.25 505.53,195.97 511.5,196.43 523.44,195.4 529.43,195.77 547.32,197.79 556.3,198.4 571.29,198.79 598.29,198.9"   /><polyline id="SvgjsPolyline6367" points="1.69,184.4 22.68,184.01 64.66,185.36 73.65,184.96 85.57,183.65 88.57,183.64 94.54,184.22 103.5,183.93 109.45,184.42 121.43,184.06 139.35,182.4 183.83,175.58 195.78,174.54 204.78,174.26 216.77,174.61 228.71,175.73 240.59,177.47 270.13,182.69 282.02,184.3 293.98,185.19 302.98,185.28 311.97,184.85 323.9,183.57 359.38,177.47 371.25,175.74 383.2,174.61 395.19,174.26 404.18,174.54 416.14,175.58 428.03,177.2 457.64,181.99 475.54,183.89 490.51,184.19 496.46,184.63 505.42,184.36 511.39,184.82 523.34,183.83 556.2,186.7 568.2,187.05 598.2,187.19"   /><polyline id="SvgjsPolyline6368" points="1.01,172.42 22,171.99 63.98,173.3 72.97,172.97 84.91,171.72 87.9,171.63 93.87,172.2 120.79,171.14 129.77,170.55 141.7,169.26 183.27,163.29 195.23,162.3 204.22,162.02 216.22,162.3 228.18,163.3 243.04,165.32 266.73,169.16 281.61,171.05 293.58,171.88 305.57,171.9 314.56,171.4 326.49,170.12 359.09,164.99 370.98,163.4 382.93,162.35 394.93,162.01 406.92,162.43 415.88,163.2 427.79,164.7 457.46,169.15 475.36,170.93 487.36,171.34 505.29,170.89 511.27,171.33 523.22,170.39 556.09,173.13 571.09,173.5 598.09,173.6"   /><polyline id="SvgjsPolyline6369" points="0.33,160.44 21.32,159.98 66.3,161.23 72.29,160.98 87.22,159.64 93.2,160.14 120.15,159.41 129.13,158.88 141.07,157.69 173.75,153.12 185.68,151.77 197.65,150.97 206.65,150.81 218.64,151.21 230.59,152.27 269.2,157.75 281.12,159.11 293.09,159.89 305.09,159.94 314.08,159.5 326.02,158.35 361.66,153.22 373.57,151.83 385.54,150.99 394.54,150.8 403.54,151.02 415.51,151.88 460.11,157.83 478.04,159.33 487.04,159.57 504.97,159.03 510.94,159.47 522.9,158.56 555.79,161.18 567.78,161.52 597.78,161.65"   /><polyline id="SvgjsPolyline6370" points="2.75,148.29 23.75,148.01 62.72,149.2 71.72,148.98 86.66,147.67 95.63,148.16 98.62,147.91 107.57,148.57 119.56,148.39 128.54,147.91 140.49,146.79 182.15,141.45 194.11,140.52 206.1,140.21 218.1,140.56 230.06,141.53 268.72,146.65 280.65,147.94 292.62,148.68 304.62,148.76 313.61,148.37 325.57,147.32 361.24,142.53 373.17,141.21 385.14,140.4 394.14,140.21 403.14,140.39 415.11,141.19 459.75,146.82 477.69,148.28 486.69,148.52 495.66,148 501.63,148.24 504.62,147.99 510.6,148.43 522.56,147.55 528.55,147.8 546.47,149.52 558.45,150.19 597.45,150.54"   /><polyline id="SvgjsPolyline6371" points="2.17,136.3 23.16,135.99 65.14,137.15 74.14,136.79 86.08,135.7 95.06,136.18 121.98,135.43 142.91,133.75 181.62,129.01 193.58,128.11 205.58,127.78 217.57,128.09 229.54,128.97 268.24,133.76 280.18,134.97 292.16,135.68 304.16,135.78 313.15,135.44 325.11,134.48 372.76,128.76 384.74,127.98 393.74,127.78 405.73,128.07 417.7,128.94 456.41,133.67 474.34,135.25 486.33,135.65 492.32,135.45 501.27,136.06 504.26,135.81 510.24,136.23 519.21,135.5 525.2,135.42 546.12,137.26 558.1,137.92 597.1,138.27"   /><polyline id="SvgjsPolyline6372" points="1.58,124.32 22.57,123.97 64.55,125.12 73.55,124.8 85.5,123.73 94.48,124.18 103.45,123.94 112.41,124.3 121.41,124.11 139.36,122.84 181.08,117.98 193.05,117.1 205.04,116.76 217.04,117.03 229.01,117.85 279.68,123.54 291.66,124.24 303.66,124.35 312.65,124.05 324.62,123.16 372.31,117.73 384.28,116.97 396.28,116.77 408.27,117.17 417.25,117.83 458.97,122.67 476.91,124.04 491.9,124.44 503.86,124.22 509.84,124.6 524.81,123.81 545.73,125.57 557.71,126.24 599.71,126.63"   /><polyline id="SvgjsPolyline6373" points="0.98,112.33 21.97,111.96 63.95,113.09 72.95,112.81 84.9,111.76 87.9,111.69 93.88,112.16 108.84,111.63 120.82,111.65 138.78,110.46 183.51,105.54 195.49,104.79 204.48,104.58 216.48,104.81 228.46,105.57 267.22,109.87 282.16,111.2 294.14,111.76 306.14,111.75 327.1,110.44 359.88,106.71 374.82,105.31 386.8,104.69 395.8,104.58 404.8,104.8 416.77,105.56 458.51,110.19 476.46,111.54 491.44,111.97 503.41,111.61 509.39,111.92 524.36,111.17 557.27,113.53 599.26,113.91"   /><polyline id="SvgjsPolyline6374" points="0.36,100.35 21.35,99.94 63.34,101.06 72.33,100.82 87.29,99.69 93.27,100.11 123.23,99.46 141.18,98.17 182.94,93.69 194.92,92.95 206.91,92.72 218.91,93.05 230.88,93.88 266.67,97.74 281.61,99.04 293.6,99.59 305.6,99.61 326.56,98.4 374.3,93.46 395.28,92.72 404.28,92.91 416.26,93.63 458.02,98.09 475.97,99.42 496.93,99.79 505.91,99.61 511.89,99.9 523.86,99.17 556.78,101.47 598.77,101.86"   /><polyline id="SvgjsPolyline6375" points="2.84,88.22 23.84,87.96 62.82,89.03 71.82,88.83 86.77,87.7 107.71,88.37 122.7,87.87 140.65,86.64 182.43,82.29 194.4,81.54 206.4,81.3 218.39,81.6 230.37,82.38 269.16,86.4 281.12,87.37 293.11,87.92 305.1,87.96 326.07,86.83 370.84,82.28 382.81,81.55 394.81,81.3 406.81,81.6 418.78,82.38 457.56,86.47 475.51,87.79 496.48,88.48 505.46,88.28 511.44,88.61 523.41,87.87 547.34,89.65 559.33,90.22 598.33,90.51"   /><polyline id="SvgjsPolyline6376" points="2.32,76.23 20.31,75.91 62.3,77.01 71.29,76.83 86.25,75.71 95.23,76.13 98.22,75.9 122.17,75.91 140.13,74.74 181.91,70.49 193.89,69.75 205.89,69.49 217.88,69.76 229.86,70.5 280.63,75.34 292.61,75.9 304.61,75.95 325.58,74.89 373.35,70.26 394.34,69.49 406.33,69.76 418.31,70.51 460.09,74.76 475.05,75.79 493.04,76.17 505.01,75.91 511,76.27 522.97,75.52 555.89,77.72 597.89,78.12"   /><polyline id="SvgjsPolyline6377" points="1.77,64.24 22.77,63.93 64.75,64.98 73.75,64.68 85.71,63.72 94.69,64.13 121.66,63.61 139.62,62.5 184.4,58.11 205.38,57.33 217.38,57.57 229.36,58.27 280.14,62.99 292.12,63.54 304.12,63.62 325.09,62.62 372.88,58.11 384.86,57.48 396.86,57.34 417.84,58.28 456.64,62.16 474.59,63.46 510.53,64.47 519.5,63.83 525.5,63.79 555.42,65.89 597.42,66.3"   /><polyline id="SvgjsPolyline6378" points="1.22,52.25 22.21,51.91 64.2,52.96 73.19,52.7 85.15,51.74 94.13,52.12 103.11,51.9 109.09,52.28 121.09,52.07 139.06,51 183.85,46.69 204.83,45.88 216.82,46.09 228.8,46.76 279.59,51.38 291.58,51.94 303.58,52.04 315.57,51.66 327.54,50.86 372.35,46.68 384.33,46.05 396.33,45.89 417.31,46.78 459.11,50.85 477.07,52.01 510.01,52.83 524.98,52.14 557.9,54.33 599.9,54.68"   /><polyline id="SvgjsPolyline6379" points="0.64,40.27 21.64,39.89 66.62,40.92 87.58,39.68 93.56,40.08 123.52,39.35 141.48,38.18 183.29,34.19 204.27,33.36 216.27,33.55 228.25,34.18 282.04,38.88 294.03,39.34 306.03,39.34 327,38.27 374.81,33.98 395.79,33.36 407.79,33.67 419.76,34.42 458.58,38.18 476.54,39.35 494.52,39.95 503.5,39.64 509.49,39.93 524.46,39.25 557.39,41.41 599.38,41.76"   /><polyline id="SvgjsPolyline6380" points="0.05,28.28 12.05,27.89 24.05,27.91 63.03,28.92 72.03,28.72 86.99,27.67 92.97,28.03 119.93,28.2 137.9,27.23 182.71,23.05 194.69,22.39 206.69,22.19 218.68,22.47 230.66,23.17 281.47,27.58 293.46,28.05 305.46,28.07 326.43,27.05 374.24,22.83 395.23,22.19 416.21,22.97 458.02,26.89 475.98,28.07 493.96,28.63 505.93,28.51 511.92,28.77 523.9,28.1 556.82,30.23 598.82,30.6"   /><polyline id="SvgjsPolyline6381" points="2.55,16.15 23.54,15.89 62.53,16.9 71.53,16.73 86.49,15.67 110.43,16.32 119.43,16.18 137.4,15.24 185.21,10.92 206.19,10.25 218.19,10.5 230.17,11.17 280.98,15.51 292.97,15.99 304.97,16.03 328.94,14.83 373.77,10.91 394.75,10.25 406.75,10.5 418.73,11.19 457.56,14.83 475.52,16.01 496.49,16.48 505.47,16.29 511.46,16.6 523.43,15.92 547.37,17.58 559.36,18.11 598.35,18.39"   /><polyline id="SvgjsPolyline6382" points="2.03,4.17 23.03,3.88 65.01,4.88 74.01,4.58 85.97,3.68 94.96,4.07 118.91,3.81 136.89,2.91 166.76,0.14"   /><polyline id="SvgjsPolyline6383" points="243.22,0.21 276.09,3.09 288.07,3.72 300.07,3.94 321.06,3.28 356.92,0.19"   /><polyline id="SvgjsPolyline6384" points="431.82,0.27 458.69,2.83 476.66,3.94 494.64,4.23 503.63,4.01 509.61,4.3 524.59,3.64 557.52,5.74 599.51,6.09"   /></g></svg>