<?xml version="1.0" standalone="no"?>
<svg id="SvgjsSvg1001" width="600" height="600" xmlns="http://www.w3.org/2000/svg" version="1.1" xmlns:xlink="http://www.w3.org/1999/xlink" xmlns:svgjs="http://svgjs.com/svgjs" class="svg-paper" viewBox="0 0 600 600"><title id="SvgjsTitle1469">x=y|y=x|dTest=0.0|sd=0.2|sm=0.2|ts=0.05 | generated with FlowLines</title><style>*{fill:none;stroke:#777}</style><g id="SvgjsG1470"><polyline id="SvgjsPolyline1471" points="1.18,76.35 15.33,95.74 25.65,110.49 35.67,125.43 46.93,143.16 56.11,158.64 63.38,171.77 70.22,185.11 76.57,198.7 81.25,209.75 86.5,223.8 90.17,235.23 93.99,249.73 96.38,261.49 98.12,273.36 99.17,285.31 99.51,297.3 99.13,309.3 98.05,321.25 96.29,333.11 93.89,344.87 90.9,356.49 86.42,370.8 81.2,384.86 76.56,395.93 70.26,409.54 62.07,425.57 54.79,438.69 45.61,454.17 36.02,469.4 22.69,489.36 0,521.08"   /><polyline id="SvgjsPolyline1472" points="1.4,57.46 18.24,78.57 34.72,99.95 47.21,116.84 59.34,133.98 69.39,148.91 80.61,166.66 89.69,182.2 96.79,195.41 103.39,208.88 109.37,222.64 113.64,233.85 118.22,248.13 121.19,259.76 123.92,274.5 125.24,286.43 125.77,298.41 125.46,310.41 124.34,322.35 122.45,334.2 119.06,348.81 115.63,360.31 110.55,374.42 104.71,388.23 96.87,404.43 89.77,417.65 80.69,433.19 71.12,448.43 59.44,465.88 45.55,485.45 31.2,504.69 1.49,542.39"   /><polyline id="SvgjsPolyline1473" points="0.38,95.51 20.07,125.64 29.4,141.03 36.84,154.06 43.93,167.28 50.62,180.7 55.65,191.6 61.46,205.42 66.68,219.48 70.37,230.9 73.58,242.46 76.26,254.16 78.38,265.97 79.89,277.87 80.61,286.84 81.01,298.83 80.74,310.83 79.83,322.79 78.28,334.69 76.72,343.56 74.14,355.27 71.03,366.86 67.43,378.31 62.31,392.41 57.78,403.52 51.62,417.2 45,430.65 37.96,443.9 22.88,469.83 11.66,487.58 1.69,502.57"   /><polyline id="SvgjsPolyline1474" points="1.61,66.19 28.71,102.12 42.56,121.71 52.59,136.66 62.25,151.85 71.45,167.31 80.11,183.1 86.81,196.51 92.96,210.19 98.46,224.15 102.31,235.51 105.61,247.05 109.03,261.65 111.05,273.48 112.56,288.4 112.92,300.39 112.51,312.38 110.94,327.3 108.87,339.12 106.14,350.8 102.81,362.33 97.88,376.49 92.23,390.38 85.95,404.01 79.15,417.37 70.4,433.1 61.12,448.53 51.42,463.69 41.35,478.61 27.46,498.18 0.34,534.09"   /><polyline id="SvgjsPolyline1475" points="0.89,38.56 39.82,84.22 56.89,105.14 71.73,124 86.16,143.17 98.36,160.26 110.04,177.72 119.51,193.02 128.34,208.71 135.08,222.11 141.1,235.84 146.25,249.93 150.32,264.36 152.68,276.12 154.14,288.03 154.63,300.02 154.13,312 152.68,323.91 150.32,335.67 146.24,350.1 141.09,364.19 135.06,377.92 128.32,391.32 119.49,407.01 110.02,422.31 98.34,439.76 86.14,456.85 71.71,476.03 56.87,494.89 39.8,515.81 0.85,561.45"   /><polyline id="SvgjsPolyline1476" points="1,46.62 20.2,69.66 37.16,90.67 51.91,109.61 64.49,126.42 76.69,143.51 88.42,160.93 97.99,176.17 107.01,191.75 115.32,207.71 121.58,221.34 127.19,235.25 131.99,249.46 135.11,261.05 137.95,275.77 139.3,287.69 139.77,299.68 139.35,311.67 138.04,323.6 135.91,335.4 132.17,349.93 127.41,364.15 121.78,378.05 115.42,391.63 108.47,404.93 99.5,420.53 89.97,435.8 78.29,453.25 66.13,470.37 51.77,489.6 37.02,508.53 20.07,529.54 0.87,552.6"   /><polyline id="SvgjsPolyline1477" points="0.34,117.04 15.43,142.97 27.91,166.91 34.28,180.48 39.05,191.5 43.49,202.65 47.55,213.93 51.22,225.36 54.44,236.92 57.18,248.6 58.89,257.44 60.7,269.3 61.68,278.24 62.48,290.22 62.68,299.21 62.54,308.21 61.82,320.19 60.9,329.14 59.16,341.01 57.5,349.86 54.82,361.56 51.67,373.13 48.06,384.58 39.65,407.05 29.9,428.98 23.23,442.41 16.19,455.66 1.16,481.62"   /><polyline id="SvgjsPolyline1478" points="1.75,21.88 54.47,79.36 74.4,101.78 95.99,126.75 111.38,145.16 126.4,163.87 139.16,180.56 151.39,197.63 161.31,212.65 170.5,228.12 177.39,241.44 182.23,252.42 186.32,263.7 189.47,275.27 191.5,287.09 192.27,299.06 191.71,311.04 189.87,322.9 186.88,334.51 182.93,345.84 176.9,359.57 169.95,372.86 162.3,385.77 152.45,400.83 142.05,415.52 127.56,434.65 112.56,453.39 95.26,474.11 75.64,496.81 53.72,521.47 0.98,578.94"   /><polyline id="SvgjsPolyline1479" points="1,29.24 42.81,76.36 62.31,99.16 81.42,122.28 98.17,143.46 110.79,160.24 122.95,177.37 132.87,192.38 142.29,207.72 150.96,223.49 157.43,237.02 163.01,250.94 166.68,262.37 170.04,276.98 171.61,288.87 172.1,300.86 171.46,312.83 169.73,324.71 167.02,336.39 162.43,350.67 157.95,361.8 151.55,375.36 144.43,388.56 135.16,403.99 125.28,419.03 113.17,436.19 98.75,455.38 83.88,474.21 66.74,495.07 49.27,515.66 27.58,540.53 1.59,569.61"   /><polyline id="SvgjsPolyline1480" points="0.6,141.07 12.69,165.21 21.18,184.41 28.72,204.01 35.13,224 39.6,241.44 43.45,262.08 44.62,271 45.7,282.95 46.27,300.94 45.56,318.92 44.4,330.86 43.17,339.78 39.84,357.46 34.61,377.8 28.09,397.76 20.46,417.32 11.89,436.49 1.13,457.94"   /><polyline id="SvgjsPolyline1481" points="2.09,5.16 94.72,99.2 146.95,153.02 188.16,196.63 216.21,227.89 227.75,241.71 236.93,253.57 243.78,263.42 248.45,271.11 252.49,279.15 254.66,284.74 256.81,293.46 257.31,299.44 256.97,305.42 255.01,314.2 251.71,322.56 247.52,330.52 242.75,338.15 235.81,347.94 226.56,359.75 214.98,373.53 186.89,404.75 147.73,446.17 89.21,506.43 0.77,596.17"   /><polyline id="SvgjsPolyline1482" points="0.75,11.97 66.89,81.55 111.56,130.14 129.48,150.33 147.07,170.81 162.35,189.32 175.27,205.87 185.86,220.43 195.77,235.45 203.27,248.44 208.56,259.21 212.96,270.37 215.51,279 217.26,287.82 217.92,293.78 218.16,299.78 217.69,308.76 216.85,314.7 215.61,320.57 213.1,329.21 208.74,340.38 203.48,351.17 196,364.17 186.11,379.2 175.54,393.77 162.63,410.33 147.36,428.85 131.71,447.05 111.8,469.48 60.95,524.61 0.96,587.62"   /><polyline id="SvgjsPolyline1483" points="1.95,16.69 57.36,75.77 81.64,102.35 105.57,129.24 123.2,149.7 140.41,170.5 153.39,187.01 164.1,201.47 174.29,216.31 182.22,229.04 189.42,242.19 194.48,253.07 199.6,267.16 202.54,278.8 204.42,290.64 204.87,299.63 204.17,311.6 202.04,323.4 198.67,334.91 194.3,346.08 187.76,359.58 180.33,372.61 172.26,385.25 161.97,400.02 149.36,416.81 136.29,433.24 119,453.99 101.34,474.41 57.16,523.44 1.83,582.59"   /><polyline id="SvgjsPolyline1484" points="0.57,167.66 7.53,184.26 13.79,201.13 19.25,218.28 23.12,232.77 26.86,250.38 29.16,265.2 30.88,283.11 31.4,298.1 31.09,313.1 29.62,331.03 27,348.84 23.99,363.53 19.47,380.95 14.05,398.11 7.82,415 0.89,431.61"   /><polyline id="SvgjsPolyline1485" points="14.84,0.99 71.58,54.51 98.04,78.92 127.01,105.02 149.61,124.76 170.27,142.14 186.64,155.29 203.37,167.98 218.09,178.34 233.28,188 246.39,195.28 257.24,200.4 268.45,204.67 280.01,207.85 291.87,209.68 300.86,210.04 309.84,209.51 321.66,207.47 333.17,204.12 344.33,199.72 357.78,193.09 370.75,185.56 383.33,177.38 398.01,166.97 414.7,154.23 433.36,139.14 451.69,123.64 474.27,103.89 525.28,57.43 584.23,1.88"   /><polyline id="SvgjsPolyline1486" points="6.42,1.23 83.7,76.68 142.23,132.67 186.33,173.35 202.07,187.26 218.08,200.85 232.13,212.1 244.18,221.03 256.68,229.31 267.14,235.19 275.32,238.93 283.83,241.85 292.64,243.66 301.62,244.12 310.56,243.15 319.27,240.91 327.66,237.67 335.73,233.69 346.06,227.6 358.45,219.15 370.42,210.11 384.41,198.78 416.07,171.19 455.74,134.55 518.59,74.39 593.71,1.03"   /><polyline id="SvgjsPolyline1487" points="2.65,1.7 168.72,166.55 213.84,210.51 244.41,239.32 264.7,257.12 271.75,262.72 279.1,267.92 284.24,271 289.66,273.56 295.41,275.24 301.39,275.62 304.37,275.28 310.13,273.64 315.57,271.11 323.21,266.37 330.45,261.02 337.43,255.35 359.84,235.4 388.14,208.57 433.23,164.57 597.17,1.83"   /><polyline id="SvgjsPolyline1488" points="2.03,8.73 73.04,81.95 124.62,136.4 162.98,178.55 178.69,196.7 192.04,212.91 203.03,227.16 211.69,239.41 219.71,252.08 225.51,262.59 230.37,273.55 233.15,282.11 234.95,290.92 235.58,299.89 234.98,308.86 233.2,317.68 230.44,326.24 225.6,337.22 219.83,347.73 211.73,360.36 202.98,372.54 191.94,386.76 176.62,405.23 162.85,421.08 124.5,463.25 70.87,519.89 1.97,590.98"   /><polyline id="SvgjsPolyline1489" points="1.12,2.03 166,168.07 207.91,211 236.79,241.5 254.64,261.75 260.24,268.79 267.25,278.53 270.36,283.66 272.96,289.07 274.72,294.79 275.25,300.76 274.98,303.74 273.49,309.54 271.06,315.02 266.41,322.72 261.12,330 255.48,337.02 235.59,359.47 208.79,387.8 162.71,435.05 2.1,596.88"   /><polyline id="SvgjsPolyline1490" points="0.5,199.57 7.41,222.55 10.93,237.13 13.26,248.9 15.13,260.75 16.8,275.66 17.57,287.63 17.84,299.63 17.61,311.62 16.6,326.59 15.23,338.51 13.39,350.37 11.08,362.14 8.35,373.83 4.36,388.28 0.74,399.73"   /><polyline id="SvgjsPolyline1491" points="31.8,0.57 61,26.42 83.71,46.02 123.01,78.52 141.91,93.31 161.16,107.64 178.38,119.67 193.47,129.48 208.93,138.69 222.15,145.77 235.73,152.15 249.67,157.66 264,162.07 275.72,164.66 287.61,166.28 299.59,166.85 311.57,166.35 323.47,164.8 335.2,162.28 349.55,157.93 363.52,152.48 377.11,146.14 390.35,139.09 405.84,129.91 420.94,120.13 438.17,108.12 457.44,93.81 476.35,79.03 497.29,61.99 515.66,46.55 538.38,26.96 567.59,1.12"   /><polyline id="SvgjsPolyline1492" points="22.54,0.68 78.02,51.15 100.54,70.97 125.65,92.39 144.19,107.62 163.05,122.46 179.9,134.99 197.11,147.03 212.25,156.77 225.2,164.32 238.54,171.19 252.29,177.16 263.63,181.1 275.24,184.12 287.07,186.06 299.04,186.79 311.03,186.26 322.89,184.51 334.54,181.64 345.92,177.84 359.74,172 373.12,165.24 386.12,157.76 401.3,148.09 416.1,137.85 435.37,123.54 451.89,110.57 472.76,93.45 497.87,72.04 520.4,52.23 575.9,1.78"   /><polyline id="SvgjsPolyline1493" points="10.43,1.46 77.49,65.89 132.29,117.09 172.59,153.03 190.93,168.52 207.32,181.64 221.74,192.42 234.11,200.89 246.93,208.68 260.21,215.64 271.28,220.27 279.87,222.94 285.72,224.26 291.65,225.15 300.64,225.62 309.61,225 315.53,224.01 321.36,222.61 329.92,219.83 340.94,215.1 351.55,209.5 364.33,201.66 379.13,191.4 393.48,180.54 407.51,169.27 423.59,155.76 441.68,139.99 468.42,115.89 518.88,68.83 590.33,0.3"   /><polyline id="SvgjsPolyline1494" points="4.23,1.55 83.2,79.55 154.09,148.66 195.43,187.9 213.12,204.12 228.86,218.01 240.35,227.65 252.18,236.87 262.02,243.74 269.73,248.38 277.82,252.32 286.25,255.46 295.04,257.34 301.03,257.62 307,257.06 315.7,254.82 323.99,251.31 331.87,246.98 339.44,242.12 349.17,235.1 360.93,225.79 374.67,214.15 408.03,183.96 453.7,140.57 522.45,73.56 595.05,1.92"   /><polyline id="SvgjsPolyline1495" points="0.77,0.75 270.28,270.05 291.86,290.89 296.54,294.64 299.26,295.84 302.17,295.37 307.03,291.87 324.37,275.29 598.18,1.79"   /><polyline id="SvgjsPolyline1496" points="1.17,1.24 202.62,202.84 266.01,266.73 280.49,281.94 286.27,288.83 287.92,291.34 289.13,294.08 289.56,297.03 289.16,300 288.19,302.83 285.52,308.2 282.21,313.2 272.57,324.69 258.23,340.03 233.11,365.82 180.32,419.09 0.18,599.58"   /><polyline id="SvgjsPolyline1497" points="0.37,245.33 2.72,260.15 4.35,275.06 5.12,287.03 5.4,302.03 5.07,314.02 3.98,328.98 2.16,343.87 0.18,355.7"   /><polyline id="SvgjsPolyline1498" points="50.96,1.58 74.14,20.63 92.91,35.58 111.94,50.2 128.84,62.66 146.02,74.74 163.54,86.32 178.86,95.77 194.52,104.65 207.85,111.51 221.47,117.79 235.41,123.34 249.65,128.04 264.19,131.72 276,133.83 287.92,135.13 299.91,135.58 311.9,135.15 323.83,133.86 335.64,131.76 350.18,128.09 361.61,124.41 375.6,119.03 389.29,112.9 405.33,104.73 420.99,95.86 436.32,86.42 453.83,74.84 468.58,64.51 485.52,52.11 504.59,37.53 525.73,20.74 548.9,1.69"   /><polyline id="SvgjsPolyline1499" points="40.74,1.44 68.12,24.82 88.91,42.04 109.99,58.91 126.63,71.72 143.53,84.19 163.23,97.89 178.34,107.68 193.78,116.92 209.63,125.46 225.85,133.25 239.73,138.94 251.08,142.83 265.56,146.72 277.35,148.93 289.28,150.26 301.27,150.64 313.25,150.05 325.15,148.54 336.91,146.15 351.34,142.06 362.64,138.04 376.46,132.21 389.95,125.65 405.73,117 421.14,107.69 436.21,97.86 451.01,87.61 470.37,73.43 489.39,58.8 510.47,41.92 533.56,22.77 558.64,1.33"   /><polyline id="SvgjsPolyline1500" points="599.48,599.47 323.77,323.64 309.14,308.57 305.4,303.89 303.95,301.27 304.09,298.34 305.64,295.78 311.59,289.03 322.04,278.28 599.79,0.24"   /><polyline id="SvgjsPolyline1501" points="598.68,598.8 399.15,399.52 335.13,336.27 322.02,323.93 312.79,316.27 307.59,313.3 304.7,312.53 301.71,312.48 298.77,313.07 293.15,315.16 290.49,316.54 285.48,319.84 273.92,329.38 258.5,343.65 234.79,366.6 189.96,410.86 0.91,599.4"   /><polyline id="SvgjsPolyline1502" points="67.76,0.05 89.26,16.37 106.23,28.74 123.45,40.76 138.44,50.72 156.24,61.87 171.79,70.93 185,78.05 198.44,84.7 212.13,90.82 226.1,96.29 240.33,101.01 251.91,104.17 263.63,106.71 275.49,108.59 287.43,109.75 299.42,110.16 311.41,109.82 323.36,108.73 335.22,106.92 346.96,104.44 358.55,101.34 372.81,96.68 386.79,91.26 400.51,85.2 413.97,78.58 429.81,70.03 445.33,60.92 460.58,51.36 478.06,39.72 495.26,27.67 514.61,13.48 531.32,0.76"   /><polyline id="SvgjsPolyline1503" points="58,1.19 95.8,30.77 115.11,45.02 134.77,58.79 152.3,70.34 167.63,79.77 183.28,88.67 196.58,95.6 210.16,101.97 224.02,107.7 235.32,111.73 249.71,115.97 264.34,119.28 276.17,121.24 288.11,122.44 300.1,122.84 312.09,122.42 324.03,121.21 338.8,118.64 350.46,115.79 361.94,112.32 376.04,107.21 389.85,101.35 403.38,94.88 419.27,86.43 434.83,77.37 452.6,66.18 467.55,56.16 484.71,44.06 501.62,31.6 520.67,17.01 541.82,0.23"   /><polyline id="SvgjsPolyline1504" points="599.48,582.5 542.3,520.97 518.19,494.23 498.39,471.69 480.89,451.13 465.69,432.56 452.77,416.01 440.35,399.08 430.26,384.17 422.39,371.4 415.21,358.24 408.96,344.61 404.85,333.33 401.76,321.74 399.9,309.9 399.41,300.91 400.02,288.93 402.01,277.11 405.21,265.55 409.41,254.31 415.74,240.72 422.99,227.58 430.9,214.84 441.03,199.96 451.67,185.45 464.55,168.86 481.65,147.97 501.13,125.15 543.09,78.16 598.23,18.83"   /><polyline id="SvgjsPolyline1505" points="599.26,591.06 530.56,519.77 481.29,467.27 461.1,445.08 441.23,422.61 427.61,406.63 414.35,390.34 403.42,376.04 394.77,363.78 386.75,351.11 381,340.58 376.1,329.63 373.21,321.11 371.75,315.29 370.72,309.38 370.1,300.41 370.62,291.43 372.23,282.58 375.81,271.14 380.63,260.15 386.34,249.6 394.32,236.9 402.93,224.62 413.84,210.3 427.08,194 442.66,175.75 462.57,153.31 480.77,133.37 530.06,80.88 598.75,9.59"   /><polyline id="SvgjsPolyline1506" points="599.1,595.26 521.31,516.07 462.93,455.68 421.89,411.91 394.03,380.48 382.58,366.59 373.41,354.72 364.78,342.46 360.05,334.8 354.56,324.14 351.39,315.72 349.42,306.95 348.94,300.97 349.19,294.98 350.85,286.15 353.79,277.65 359.08,266.88 365.36,256.66 372.25,246.84 381.4,234.95 392.86,221.07 406.65,205.23 424.77,185.22 465.87,141.51 520.08,85.42 599.94,4.07"   /><polyline id="SvgjsPolyline1507" points="599.87,598.25 506.91,504.54 445.91,442.5 406.3,401.51 373.62,366.36 356.07,345.85 348.78,336.31 343.75,328.86 337.9,318.38 335.56,312.86 333.9,307.1 333.17,301.15 333.5,295.17 334.83,289.32 336.94,283.71 341.09,275.73 345.96,268.17 353.1,258.52 362.59,246.91 372.44,235.59 405.02,200.35 446.65,157.14 516.03,86.52 598.41,3.44"   /><polyline id="SvgjsPolyline1508" points="598.37,597.94 418.39,417.29 374.2,372.38 347.24,344.21 333.26,328.54 327.67,321.49 324.3,316.53 321.53,311.21 320.54,308.38 319.95,305.44 319.66,299.46 319.97,296.47 321.72,290.75 324.47,285.42 327.75,280.4 333.2,273.24 338.98,266.34 357.13,246.35 384.12,218.2 428.26,173.25 599.65,0.99"   /><polyline id="SvgjsPolyline1509" points="581.71,598.8 524.59,545.69 495.65,519.55 470.85,497.77 450.27,480.29 431.68,465.12 412.71,450.42 398.14,439.84 383.21,429.8 367.8,420.5 354.51,413.56 343.53,408.72 332.22,404.7 320.6,401.73 308.73,400 299.74,399.62 287.77,400.37 275.97,402.48 264.43,405.78 253.23,410.06 242.34,415.1 229.15,422.24 213.84,431.71 198.99,441.87 182.1,454.35 165.58,467.31 147.03,482.55 126.49,500.07 106.21,517.89 77.25,544.01 17.92,599.15"   /><polyline id="SvgjsPolyline1510" points="590.28,598.57 516.8,527.83 466.45,480.66 424.01,442.6 405.74,427.04 389.43,413.82 375.09,402.94 362.79,394.34 350.07,386.4 339.5,380.73 328.49,375.96 319.94,373.18 314.1,371.81 308.17,370.88 299.19,370.42 290.22,371.09 284.31,372.14 278.5,373.62 269.99,376.54 259.05,381.45 248.53,387.22 235.86,395.25 223.6,403.89 209.3,414.82 193.01,428.08 177.03,441.7 159.03,457.57 134.6,479.76 82.08,529.01 8.62,599.77"   /><polyline id="SvgjsPolyline1511" points="594.5,598.42 508.85,514.37 450.53,458.16 408.85,419.28 379.58,393.51 365.65,382.11 353.74,373 343.91,366.1 333.7,359.81 322.96,354.48 314.48,351.48 305.66,349.73 299.67,349.41 293.69,349.81 284.89,351.67 276.44,354.74 268.35,358.68 258.04,364.82 248.16,371.62 236.21,380.69 222.28,392.09 206.41,405.83 188.57,421.89 144.77,462.9 84.34,521.24 5.12,598.99"   /><polyline id="SvgjsPolyline1512" points="597.57,599.27 501.7,504.22 439.62,443.27 396.38,401.67 367.74,375.2 354.17,363.37 344.89,355.77 335.28,348.59 327.74,343.67 317.13,338.08 311.54,335.92 305.72,334.49 299.74,334.01 293.78,334.58 287.97,336.08 279.7,339.61 271.91,344.11 264.48,349.18 254.94,356.46 245.68,364.09 232.12,375.93 201.27,404.42 158.01,446 93.76,509.02 2.12,599.81"   /><polyline id="SvgjsPolyline1513" points="89.28,1.39 106.56,13.33 121.59,23.24 149.72,40.48 165.44,49.26 178.76,56.15 192.3,62.59 203.31,67.38 217.28,72.83 228.63,76.71 240.14,80.12 251.79,83 263.56,85.31 275.44,87 287.39,88.05 299.39,88.42 311.38,88.12 323.34,87.14 335.23,85.51 347.01,83.26 358.67,80.44 370.2,77.08 381.56,73.25 395.56,67.84 406.58,63.1 422.83,55.36 436.12,48.42 449.22,41.1 464.68,31.89 479.9,22.28 497.38,10.65 512.16,0.37"   /><polyline id="SvgjsPolyline1514" points="600,565.55 578.26,540.72 556.85,515.61 539.65,494.8 522.82,473.68 508.28,454.59 495.98,437.57 484.2,420.19 474.63,404.94 467.14,391.94 460.21,378.64 453.98,365 448.61,351 444.31,336.63 441.79,324.9 440.19,313.01 439.59,301.03 440.01,289.04 441.45,277.13 444.54,262.46 447.95,250.96 452.06,239.68 458.02,225.92 464.74,212.51 473.57,196.83 483.07,181.54 494.8,164.12 507.05,147.07 521.55,127.95 538.35,106.8 555.52,85.97 574.95,63.11 598.63,36"   /><polyline id="SvgjsPolyline1515" points="599.92,574.95 553.8,523.64 534.13,500.98 516.73,480.34 501.58,461.72 485.02,440.4 472.63,423.45 460.78,406.11 451.17,390.89 442.31,375.23 435.68,361.77 429.95,347.91 426.2,336.52 423.33,324.87 421.5,313.01 420.8,301.04 421.29,289.05 422.94,277.17 425.63,265.48 430.28,251.22 434.83,240.12 441.34,226.61 450.11,210.89 459.64,195.63 471.48,178.29 483.89,161.35 498.59,142.37 513.7,123.72 531.05,103.04 554.63,75.84 598.75,26.76"   /><polyline id="SvgjsPolyline1516" points="598.29,586.39 534.31,518.89 487.74,467.99 467.94,445.45 452.43,427.13 437.36,408.46 426.46,394.13 416.09,379.42 408.01,366.78 400.68,353.7 395.58,342.84 391.19,331.67 387.85,320.15 385.92,308.32 385.51,299.33 386.05,290.35 388.16,278.55 391.63,267.07 396.18,255.97 401.55,245.23 409.09,232.27 417.29,219.72 427.76,205.07 440.57,188.43 455.74,169.84 473.27,149.3 493.14,126.82 539.78,75.98 599.63,12.83"   /><polyline id="SvgjsPolyline1517" points="564.75,599.33 519.39,560.06 498.62,542.8 475.21,524.05 456.14,509.48 436.69,495.41 419.29,483.66 404.02,474.13 391,466.68 374.97,458.5 361.23,452.48 349.98,448.32 335.59,444.11 323.84,441.67 311.94,440.16 299.95,439.65 287.97,440.17 276.07,441.68 264.33,444.13 249.93,448.35 235.91,453.65 222.24,459.84 208.92,466.73 193.33,475.73 178.12,485.35 160.78,497.19 143.79,509.53 124.72,524.11 103.63,540.96 80.54,560.12 35.18,599.39"   /><polyline id="SvgjsPolyline1518" points="574.18,599.25 522.85,553.14 497.9,531.54 477.21,514.19 458.55,499.1 437.15,482.64 420.13,470.34 402.71,458.62 387.39,449.16 374.28,441.88 360.8,435.31 346.91,429.66 335.49,425.98 323.82,423.2 311.95,421.47 299.97,420.88 287.99,421.48 276.12,423.22 264.45,426 253.03,429.69 239.14,435.34 225.66,441.91 209.97,450.72 197.24,458.66 182.31,468.71 165.28,481 143.87,497.45 122.88,514.43 102.21,531.8 77.27,553.41 25.95,599.53"   /><polyline id="SvgjsPolyline1519" points="587.7,599.63 520.21,535.65 469.32,489.06 449.06,471.21 428.49,453.72 414.54,442.34 397.94,429.48 383.33,418.97 370.81,410.72 357.86,403.13 347.15,397.74 336.08,393.11 324.7,389.32 312.97,386.82 307.01,386.13 301.02,385.85 292.03,386.21 280.19,388.1 268.65,391.39 257.49,395.79 246.71,401.04 233.68,408.48 221.08,416.61 206.39,427.01 189.71,439.76 173.38,452.97 155.05,468.46 132.48,488.23 81.52,534.74 13.96,598.65"   /><polyline id="SvgjsPolyline1520" points="108.38,0.05 133.96,15.71 160.22,30.21 173.64,36.91 187.27,43.18 209.53,52.14 220.87,56.05 232.36,59.53 243.97,62.53 255.71,65.03 267.55,66.97 279.47,68.33 288.45,68.95 300.45,69.24 309.44,69.05 321.42,68.25 330.36,67.25 342.22,65.41 353.97,63.01 365.61,60.09 377.12,56.69 388.49,52.85 399.71,48.62 413.55,42.82 437.9,31.17 464.22,16.77 489.85,1.18"   /><polyline id="SvgjsPolyline1521" points="599.11,546.38 567.25,506.55 552.76,487.42 540.43,470.43 528.5,453.14 517.09,435.52 506.31,417.49 499.11,404.33 492.42,390.91 486.34,377.2 480.98,363.19 477.32,351.77 473.63,337.23 471.49,325.43 470.13,313.51 469.6,301.52 469.91,289.53 471.07,277.58 473.62,262.81 476.48,251.16 480,239.68 485.19,225.61 491.14,211.84 497.71,198.36 506.29,182.54 515.48,167.06 525.16,151.89 536.95,134.51 550.95,115.02 563.57,98.23 582.06,74.61 599.08,53.65"   /><polyline id="SvgjsPolyline1522" points="599.29,556.86 579.93,533.95 560.91,510.74 544.19,489.55 531.51,472.81 519.2,455.8 507.34,438.46 497.65,423.3 488.51,407.79 480.06,391.9 473.66,378.33 467.88,364.5 462.96,350.33 459.08,335.84 456.85,324.05 455.47,312.14 454.99,300.15 455.45,288.16 456.81,276.24 459.02,264.45 462.87,249.96 467.77,235.78 473.54,221.94 480.03,208.42 488.58,192.58 496.22,179.67 507.54,161.98 519.43,144.67 531.77,127.68 544.46,110.95 561.19,89.76 580.21,66.56 599.57,43.64"   /><polyline id="SvgjsPolyline1523" points="545.59,598.44 505.74,566.61 486.6,552.14 467.14,538.09 449.79,526.26 432.1,514.95 416.6,505.79 403.43,498.62 389.98,491.97 376.26,485.93 365.06,481.62 350.79,477.01 339.16,474.03 324.41,471.32 312.49,470.03 300.5,469.57 288.51,469.96 276.57,471.18 264.74,473.2 250.17,476.74 238.71,480.31 224.66,485.55 208.2,492.82 194.8,499.55 179.06,508.28 163.65,517.59 146.04,529.03 131.22,539.25 111.79,553.33 92.67,567.84 52.86,599.72"   /><polyline id="SvgjsPolyline1524" points="556.1,598.63 533.18,579.28 509.96,560.27 491.13,545.4 472,530.9 454.98,518.61 437.63,506.78 422.44,497.12 406.92,488.01 391,479.6 377.42,473.25 363.56,467.52 349.37,462.66 334.86,458.86 323.06,456.7 311.13,455.39 299.14,454.99 287.16,455.52 275.25,456.95 260.55,459.93 249,463.17 234.84,468.13 221.02,473.95 207.52,480.48 194.31,487.59 178.81,496.74 163.65,506.43 148.76,516.55 129.28,530.58 110.16,545.07 88.98,561.82 68.09,578.93 45.16,598.27"   /><polyline id="SvgjsPolyline1525" points="132.41,0.84 156.24,13.51 177.94,23.76 200.16,32.83 220.03,39.61 240.3,45.1 260.9,49.13 269.82,50.36 281.76,51.52 299.74,52.19 308.74,52.04 320.72,51.33 338.59,49.2 359.2,45.22 379.48,39.76 390.89,36.05 402.17,31.96 421.59,23.97 443.3,13.74 467.15,1.09"   /><polyline id="SvgjsPolyline1526" points="598.94,527.21 586.36,510.39 572.36,490.9 562.17,476.06 550.7,458.47 541.29,443.12 532.36,427.5 525.36,414.23 518.83,400.73 513.99,389.75 508.52,375.78 503.78,361.55 500.59,349.99 497.45,335.32 495.67,323.46 494.6,311.51 494.26,299.51 494.66,287.52 495.79,275.58 497.62,263.72 500.11,251.98 503.2,240.39 507.84,226.12 513.22,212.12 519.24,198.38 525.8,184.9 534.29,169.03 543.33,153.46 551.22,140.71 561.05,125.62 572.92,108.3 585.16,91.24 599.53,72.01"   /><polyline id="SvgjsPolyline1527" points="599.87,539.93 585.05,521.05 568.77,499.51 554.74,480.04 544.56,465.2 533.13,447.58 523.81,432.18 515.04,416.46 508.23,403.1 501.97,389.47 496.37,375.55 491.54,361.35 488.32,349.79 485.75,338.08 483.42,323.26 482.29,311.32 481.94,299.32 482.38,287.33 483.6,275.4 486.15,260.62 488.97,248.96 492.39,237.46 497.44,223.33 503.21,209.49 509.61,195.92 516.52,182.61 525.4,166.95 534.79,151.6 544.6,136.51 558.23,116.75 570.56,99.75 583.19,82.98 599.81,61.7"   /><polyline id="SvgjsPolyline1528" points="526.42,598.28 507.17,583.95 490.08,571.73 460.17,551.72 444.85,542.26 431.88,534.73 416.03,526.21 402.56,519.6 388.84,513.54 377.68,509.14 366.34,505.2 351.94,501.01 340.25,498.31 328.43,496.25 313.52,494.65 301.53,494.19 289.53,494.47 277.58,495.47 265.7,497.19 253.94,499.57 242.33,502.57 228.03,507.09 213.99,512.38 200.22,518.32 186.7,524.82 170.79,533.24 155.2,542.23 139.88,551.68 124.81,561.53 107.51,573.42 73.63,598.25"   /><polyline id="SvgjsPolyline1529" points="539.17,599.23 515.53,580.77 498.74,568.16 484.16,557.61 466.89,545.65 449.31,534.17 433.94,524.8 418.27,515.96 404.94,509.08 391.34,502.74 377.47,497.04 363.31,492.1 351.78,488.78 340.09,486.08 325.29,483.65 313.36,482.39 301.37,481.91 289.38,482.21 277.43,483.3 265.57,485.13 250.93,488.4 239.41,491.73 225.24,496.66 211.36,502.35 197.76,508.66 181.78,516.94 168.72,524.33 153.33,533.66 135.72,545.1 118.43,557.01 98.99,571.09 63.31,598.51"   /><polyline id="SvgjsPolyline1530" points="156.39,0.13 175.52,8.8 195.02,16.59 214.9,23.33 232.24,28.17 249.82,32.01 267.61,34.76 282.54,36.17 300.53,36.75 318.51,36.1 333.44,34.63 351.21,31.81 368.78,27.91 386.1,23.02 405.97,16.22 422.69,9.56 441.85,0.96"   /><polyline id="SvgjsPolyline1531" points="599.56,508.06 579.59,478.11 570.1,462.82 562.51,449.88 553.83,434.11 547.03,420.74 540.68,407.15 535.98,396.12 530.62,382.11 526.82,370.72 523.49,359.2 520.69,347.53 518.46,335.74 516.83,323.85 515.84,311.89 515.51,299.9 515.85,287.91 516.85,275.95 518.49,264.06 520.73,252.28 523.55,240.61 526.88,229.09 530.69,217.71 536.05,203.7 540.76,192.66 547.12,179.08 553.93,165.71 562.61,149.94 571.76,134.45 581.31,119.19 599.67,91.77"   /><polyline id="SvgjsPolyline1532" points="507.27,598.92 489.89,587.14 474.77,577.37 462,569.51 446.44,560.45 433.27,553.28 419.89,546.5 406.28,540.18 395.24,535.5 381.21,530.19 369.82,526.42 358.28,523.13 346.6,520.37 334.8,518.18 322.91,516.6 310.95,515.66 298.95,515.39 286.96,515.78 277.99,516.51 266.09,518.04 254.28,520.18 242.6,522.9 231.05,526.15 219.64,529.89 205.6,535.16 194.54,539.82 180.93,546.11 167.53,552.86 151.73,561.48 123.46,578.49 93.47,598.41"   /><polyline id="SvgjsPolyline1533" points="185.62,0.03 199.73,5.12 214.02,9.66 228.49,13.62 243.12,16.91 257.89,19.51 269.79,21.05 284.74,22.27 299.73,22.69 314.73,22.3 326.69,21.41 341.58,19.59 356.36,17.02 371,13.74 385.47,9.82 399.77,5.29 413.88,0.21"   /><polyline id="SvgjsPolyline1534" points="599.41,486.53 584.06,460.75 569.97,434.27 563.5,420.74 558.65,409.76 549.98,387.39 546.23,375.99 542.91,364.46 540.08,352.8 537.77,341.02 536.01,329.15 535.08,320.2 534.35,308.23 534.21,299.23 534.55,287.23 535.21,278.26 536.61,266.34 538.04,257.46 539.77,248.63 542.54,236.95 545.8,225.4 549.5,213.99 558.08,191.58 562.89,180.59 569.32,167.03 581.88,143.14 598.64,114.71"   /><polyline id="SvgjsPolyline1535" points="485.74,598.79 459.94,583.47 446.79,576.26 433.44,569.41 422.63,564.22 408.91,558.14 386.52,549.52 375.11,545.8 363.57,542.52 343.07,537.97 331.22,536.11 322.28,535.1 313.3,534.42 301.31,534.04 289.31,534.28 277.35,535.13 268.4,536.16 256.55,538.04 244.8,540.46 236.06,542.62 224.53,545.91 213.12,549.65 201.86,553.78 190.74,558.29 179.75,563.12 166.22,569.58 142.34,582.19 113.94,598.99"   /><polyline id="SvgjsPolyline1536" points="225.79,0.52 246.32,4.94 264.11,7.65 282.03,9.3 300.02,9.86 318.01,9.3 335.93,7.64 353.72,4.93 374.25,0.51"   /><polyline id="SvgjsPolyline1537" points="598.91,462.5 587.88,441.18 577.84,419.39 569.01,397.08 562.47,377.12 557.23,356.79 553.91,339.1 551.78,321.23 551.18,312.25 550.89,300.26 551.51,282.27 552.63,270.33 553.84,261.41 557.12,243.71 562.33,223.37 565.9,211.92 569.86,200.59 577.64,181.09 586.34,161.98 598.67,137.96"   /><polyline id="SvgjsPolyline1538" points="464.25,599.81 442.98,588.7 418.47,577.38 398.96,569.63 379.04,562.97 358.74,557.6 338.12,553.69 329.2,552.5 317.25,551.4 299.26,550.81 281.28,551.51 272.32,552.33 260.42,553.91 242.74,557.26 222.42,562.54 202.47,569.1 180.17,577.96 161.08,586.71 137.08,599.08"   /><polyline id="SvgjsPolyline1539" points="599.96,438.53 592.71,422.05 585.11,402.48 579.42,385.4 574.62,368.06 571.36,353.42 568.43,335.66 566.64,317.75 566.06,302.77 566.33,287.77 567.76,269.83 569.83,254.98 573.33,237.32 577.85,219.9 583.27,202.74 590.61,183.07 598.9,163.77"   /><polyline id="SvgjsPolyline1540" points="437.65,599.45 418.39,591.1 401.57,584.68 384.48,579.04 367.12,574.28 349.52,570.51 331.73,567.83 316.79,566.47 298.8,565.94 283.81,566.43 265.9,568.12 248.12,570.95 233.47,574.14 216.1,578.86 199,584.48 182.18,590.87 162.9,599.2"   /><polyline id="SvgjsPolyline1541" points="599.44,406.61 594.68,392.38 590.49,377.98 587.58,366.34 584.55,351.65 582.64,339.8 580.93,324.9 580.12,312.93 579.83,297.94 580.18,285.94 581.03,273.97 582.8,259.08 584.76,247.24 587.84,232.56 590.78,220.93 595.02,206.54 599.82,192.33"   /><polyline id="SvgjsPolyline1542" points="408.56,600 394.36,595.18 379.98,590.9 365.44,587.24 353.69,584.8 338.89,582.38 326.97,580.99 315,580.09 300.01,579.69 288.01,579.95 276.04,580.72 264.11,581.98 249.28,584.25 234.58,587.24 222.93,590.11 208.52,594.27 194.29,599"   /><polyline id="SvgjsPolyline1543" points="599.94,366.46 596.52,348.79 594.44,333.93 592.92,316 592.48,301.01 592.97,283.02 594.22,268.07 596.68,250.24 599.51,235.51"   /><polyline id="SvgjsPolyline1544" points="365.59,599.6 350.86,596.72 333.05,594.19 315.11,592.72 300.12,592.33 285.12,592.71 267.18,594.17 252.32,596.19 234.64,599.55"   /></g></svg>