<?xml version="1.0" standalone="no"?>
<svg id="SvgjsSvg1001" width="600" height="600" xmlns="http://www.w3.org/2000/svg" version="1.1" xmlns:xlink="http://www.w3.org/1999/xlink" xmlns:svgjs="http://svgjs.com/svgjs" class="svg-paper" viewBox="0 0 600 600"><title id="SvgjsTitle8423">x=(sqrt(x*x + y*y)+y)|y=(exp(cos(x))+x)|dTest=0.0|sd=0.2|sm=0.2|ts=0.05 | generated with FlowLines</title><style>*{fill:none;stroke:#777}</style><g id="SvgjsG8424"><polyline id="SvgjsPolyline8425" points="0,521.08 11.42,538.7 21.92,556.88 31.6,575.52 41.76,597.26"   /><polyline id="SvgjsPolyline8426" points="1.49,501.85 16.34,524.4 29.79,547.8 41.93,571.92 54.07,599.35"   /><polyline id="SvgjsPolyline8427" points="1.18,544.95 9.03,557.73 16.42,570.78 23.39,584.07 29.97,597.55"   /><polyline id="SvgjsPolyline8428" points="0.78,480.2 9.55,492.37 19.52,507.36 27.34,520.16 34.72,533.21 41.7,546.49 49.58,562.67 58.14,581.85 64.98,598.5"   /><polyline id="SvgjsPolyline8429" points="0.16,566.34 9.21,581.9 17.63,597.81"   /><polyline id="SvgjsPolyline8430" points="1.23,460.96 13.83,477.75 22.31,490.13 31.88,505.37 42.26,523.62 51.86,542.3 59.53,558.58 67.86,577.86 75.59,597.38"   /><polyline id="SvgjsPolyline8431" points="0.12,590.28 4.54,598.12"   /><polyline id="SvgjsPolyline8432" points="1.16,441.73 14.22,458.17 26.42,475.26 37.71,492.96 48.17,511.17 57.86,529.8 68.06,551.52 77.41,573.62 87.01,598.86"   /><polyline id="SvgjsPolyline8433" points="0.52,422.52 15.94,440.91 28.5,457.73 41.75,477.74 53.91,498.43 65.06,519.68 76.48,544.14 86.84,569.08 97.23,597.22"   /><polyline id="SvgjsPolyline8434" points="1.33,405.55 11.37,416.69 19.12,425.85 33.7,444.91 42.22,457.25 48.73,467.33 60.93,487.99 68.05,501.2 74.78,514.6 86.01,539.16 97.24,566.97 108.28,598.07"   /><polyline id="SvgjsPolyline8435" points="1.71,388.57 12.04,399.45 20.02,408.4 29.58,419.96 36.9,429.47 43.93,439.2 52.33,451.62 60.3,464.33 67.87,477.28 75.04,490.46 83.14,506.53 95.5,533.86 107.6,564.56 119.24,598.62"   /><polyline id="SvgjsPolyline8436" points="1.63,371.61 12.26,382.19 22.5,393.15 32.29,404.51 41.64,416.24 50.55,428.31 59.03,440.68 67.09,453.33 76.22,468.84 84.78,484.67 91.49,498.09 99.07,514.42 105,528.19 112.77,547.7 118.96,564.6 130.19,598.8"   /><polyline id="SvgjsPolyline8437" points="1.07,354.67 14.16,367.03 24.63,377.76 34.67,388.9 46.16,402.77 57.02,417.11 65.62,429.41 75.38,444.53 83.06,457.41 91.75,473.17 99.88,489.23 107.47,505.55 114.57,522.09 121.19,538.83 128.37,558.56 135.02,578.48 141.2,598.55"   /><polyline id="SvgjsPolyline8438" points="0,337.77 15.66,351.76 26.39,362.25 36.7,373.14 48.52,386.71 59.75,400.78 70.39,415.3 82.04,432.77 91.38,448.15 100.14,463.88 109.64,482.6 117.19,498.94 124.24,515.5 131.87,535.07 138.93,554.84 146.36,577.66 152.38,597.78"   /><polyline id="SvgjsPolyline8439" points="0.76,322.8 16.76,336.4 29.89,348.71 42.46,361.59 54.46,375.01 65.89,388.91 78.48,405.71 88.64,420.57 99.72,438.41 108.59,454.07 118.19,472.74 127.05,491.78 135.22,511.13 142.75,530.73 149.72,550.54 157.08,573.38 164.71,599.28"   /><polyline id="SvgjsPolyline8440" points="1.17,307.83 15.2,319.1 30.94,332.99 43.87,345.52 58.27,360.8 71.92,376.75 84.81,393.33 96.9,410.5 108.17,428.22 118.61,446.44 128.26,465.09 137.16,484.11 145.35,503.44 152.93,523.03 161.87,548.5 169.19,571.36 176.87,597.24"   /><polyline id="SvgjsPolyline8441" points="1.22,292.86 17.87,305.65 33.89,319.23 49.24,333.56 63.91,348.59 79.81,366.56 92.92,382.96 105.25,399.96 116.75,417.52 127.43,435.61 137.29,454.14 146.38,473.07 154.78,492.32 162.56,511.82 171.8,537.19 181.32,565.64 192.17,599.97"   /><polyline id="SvgjsPolyline8442" points="0.91,277.9 20.26,292.1 36.56,305.33 52.24,319.29 67.31,333.92 83.72,351.43 97.33,367.42 110.18,384.03 122.23,401.23 131.89,416.41 142.4,434.59 150.77,450.53 159.85,469.46 167.12,485.92 176.21,508.14 202.87,578.23 209,591.92 213.44,599.75"   /><polyline id="SvgjsPolyline8443" points="0.23,262.97 17.51,274.89 31.9,285.71 45.88,297.04 61.68,310.88 76.9,325.35 91.51,340.43 105.46,356.12 116.83,370.07 127.64,384.47 137.84,399.29 148.99,417.09 157.91,432.72 164.93,445.98 172.92,462.1 199,519.45 204.26,530.24 208.58,538.13 211.83,543.17 215.67,547.77 217.99,549.67 220.72,550.85 223.68,550.63 226.18,549.01 228.13,546.74 229.7,544.19 232.19,538.73 234.17,533.07 236.61,524.41 240.99,503.87 244.45,483.16 247.83,459.4 258.82,370.07 262.4,343.31 266.22,319.62 269.94,302.01 272.29,293.32 275.06,284.76 278.33,276.38 282.09,268.2 286.29,260.25 290.91,252.52 295.87,245.01 301.16,237.73 306.74,230.67 314.61,221.61 322.93,212.97 331.68,204.76 340.85,197.02 350.4,189.75 360.28,182.95 370.46,176.59 386.14,167.76 404.86,158.24 486.41,120.17 526.82,100.39 564,80.86 582.31,70.57 597.82,61.42"   /><polyline id="SvgjsPolyline8444" points="0.15,267.16 17.31,279.27 31.54,290.29 47.62,303.79 63.12,317.96 78.01,332.77 92.25,348.2 105.79,364.25 118.56,380.91 128.86,395.67 138.55,410.84 149.1,429 157.52,444.91 166.7,463.8 174.1,480.2 199.66,541.05 204.74,551.92 208.96,559.87 212.06,565 215.75,569.73 218,571.7 220.7,572.97 223.64,572.75 226.1,571.07 227.98,568.74 230.77,563.43 232.89,557.82 236.82,543.35 240.86,522.75 244.09,502 248.01,472.25 258.47,379.85 262.11,350.07 266.05,323.36 269.47,305.69 271.61,296.95 274.17,288.32 277.2,279.85 280.73,271.57 284.74,263.51 289.18,255.69 294,248.08 299.15,240.71 306.49,231.22 314.33,222.13 322.62,213.46 331.36,205.23 340.5,197.47 350.03,190.17 359.9,183.35 370.06,176.97 385.73,168.11 404.44,158.57 488.68,119.19 531.75,97.99 568.84,78.28 599.97,60.21"   /><polyline id="SvgjsPolyline8445" points="1.78,272.83 18.79,285.15 32.88,296.33 48.78,310.05 64.08,324.44 78.75,339.46 92.74,355.12 106.01,371.4 118.49,388.28 130.15,405.75 139.47,421.14 149.6,439.53 158.98,458.32 172.43,488.46 199.03,555.36 203.78,566.38 207.72,574.47 210.72,579.66 214.39,584.39 216.8,586.17 222.66,586.92 225.32,585.6 227.33,583.38 230.23,578.14 232.37,572.54 236.31,558.08 240.31,537.46 243.91,513.73 247.68,483.97 258.98,379.58 262.9,346.82 266.88,320.11 270.43,302.47 273.54,290.88 276.41,282.35 279.78,274.01 283.65,265.88 287.95,257.98 292.66,250.31 299.47,240.43 304.94,233.29"   /><polyline id="SvgjsPolyline8446" points="1.73,249.65 16.77,259.54 31.45,269.95 45.76,280.86 62,294.18 75.53,306.06 88.66,318.36 101.38,331.1 115.63,346.52 127.3,360.22 138.42,374.37 147.26,386.5 157.33,401.41 172.95,427.02 197.59,471.68 206.95,487.04 210.52,491.86 214.6,496.25 216.97,498.08 219.67,499.38 222.63,499.67 225.43,498.66 227.73,496.75 229.6,494.41 232.53,489.18 236.74,477.95 240.62,463.47 243.76,448.8 247.5,428.14 259.33,351.04 262.8,330.33 266.95,309.75 271.6,292.36 274.53,283.85 277.92,275.52 281.78,267.39 286.06,259.48 290.74,251.79 295.76,244.32 302.93,234.7 308.64,227.74 316.65,218.81 322.96,212.39 331.74,204.21 338.59,198.38 345.66,192.81 355.4,185.8 365.45,179.25 375.76,173.1 388.92,165.91 407.7,156.51 483.86,121.08 527,100.03 566.81,79.06 597.99,61.07"   /><polyline id="SvgjsPolyline8447" points="1.33,253.94 16.26,263.98 30.81,274.59 47.29,287.6 63.26,301.23 78.69,315.47 91.47,328.15 103.78,341.28 115.59,354.86 126.86,368.9 135.81,380.93 146.01,395.76 155.63,410.98 170.45,437.05 197.64,490.54 203.42,501.05 208.13,508.72 211.61,513.6 215.7,517.99 218.14,519.73 220.94,520.73 223.9,520.42 226.43,518.85 228.45,516.63 231.5,511.47 233.82,505.94 235.73,500.26 239.55,485.76 243.15,468.12 246.66,447.42 259.61,355.32 263.3,331.61 266,316.86 269.28,302.22 273.51,287.83 277.79,276.63 282.92,265.78 287.27,257.91 293.67,247.75 298.85,240.4 306.22,230.93 312.07,224.09 320.27,215.32 328.9,206.99 335.65,201.04 345,193.52 352.25,188.19 369.85,176.74 390.82,165.09 417.76,151.88"   /><polyline id="SvgjsPolyline8448" points="0.23,258.04 15.12,268.15 31.97,280.67 45.99,291.96 61.85,305.73 77.15,320.11 89.79,332.92 101.96,346.18 115.5,362.23 126.5,376.48 136.9,391.17 146.71,406.26 155.93,421.72 163.19,434.84 171.46,450.83 198.5,507.73 202.61,515.74 207.08,523.54 210.49,528.48 214.64,532.79 217.29,534.17 223.22,534.24 225.86,532.85 227.94,530.7 229.61,528.21 232.25,522.83 234.33,517.2 236.87,508.57 240.85,491.02 244.54,470.35 247.7,449.59 262,342.54 265.41,321.82 269.09,304.2 273.11,289.75 277.22,278.48 283.57,264.9 291.1,251.93 297.83,242 305.12,232.47 312.89,223.33 321.13,214.6 329.8,206.31 338.89,198.47 348.36,191.11 358.18,184.22 376.06,173.2 397.23,161.91 418.84,151.46 489.56,118.58"   /><polyline id="SvgjsPolyline8449" points="288.94,598.96 289.54,364.96 289.88,325.96 290.42,304.97 291.14,296 292.02,290.07 294.88,278.42 299.07,267.18 301.6,261.74 305.86,253.82 312.29,243.69 319.37,234 327.03,224.77 335.29,216.06 344.07,207.89 353.32,200.25 362.97,193.12 372.96,186.47 388.41,177.24 409.59,165.96 490.52,126.58 533.31,104.85 567.58,86.22 598.58,67.93"   /><polyline id="SvgjsPolyline8450" points="232.18,597.72 235.22,586.12 238.19,571.42 240.64,556.62 243.92,532.84 248.69,491.12 261.6,362.77 264.93,335.97 268.19,315.23 270.57,303.47 272.75,294.74 275.37,286.13 278.49,277.69 282.12,269.45 286.23,261.45 290.75,253.67 295.65,246.12 302.69,236.4 310.26,227.09 318.3,218.18 326.8,209.71 335.72,201.69 345.05,194.14 357.21,185.37 367.3,178.87 382.87,169.86 404.21,158.87 488.45,119.46 531.51,98.26 565.97,80.01 581.66,71.18 599.73,60.48"   /><polyline id="SvgjsPolyline8451" points="0.43,234.77 15.7,244.29 28.19,252.6 42.87,263.01 54.86,272.03 66.63,281.32 80.46,292.84 93.96,304.75 107.09,317.06 117.73,327.63 130.1,340.71 141.99,354.22 151.52,365.8 167.8,387.34 198.33,431.88 207.53,443.71 211.72,448 216.55,451.55 219.31,452.7 222.28,453.05 225.18,452.34 227.71,450.75 229.83,448.64 233.19,443.68 235.81,438.29 238.01,432.7 241.64,421.27 244.67,409.66 248.59,392.09 258.9,339.08 263.23,318.54 268.5,298.21 273.35,284.02 276.82,275.72 280.74,267.62 285.07,259.73 289.77,252.05 296.55,242.16 301.98,234.98 309.65,225.75 315.7,219.09 328.52,206.46 337.59,198.61 344.65,193.02 359.34,182.63 377.3,171.74 390.5,164.63 409.31,155.3 482.79,121.21 523.27,101.56 563.16,80.73 581.48,70.48 599.57,59.81"   /><polyline id="SvgjsPolyline8452" points="1.81,240.71 14.45,248.79 29.28,258.97 43.78,269.65 57.93,280.76 71.76,292.29 85.22,304.23 98.32,316.59 110.99,329.36 121.21,340.34 133.02,353.93 142.46,365.59 153.28,379.97 161.89,392.25 171.78,407.29 196.98,448.14 207.33,462.86 211.24,467.41 215.75,471.35 218.37,472.8 221.27,473.53 224.22,473.15 226.84,471.7 229,469.63 230.79,467.23 233.69,461.98 237.03,453.63 241.28,439.25 244.7,424.64 248.23,406.99 259.02,344.92 263.52,321.35 268.4,300.93 272.92,286.63 276.21,278.25 279.96,270.07 284.13,262.1 288.71,254.35 295.34,244.35 300.68,237.11 306.3,230.08 314.2,221.05 322.55,212.43 329.1,206.25 342.86,194.67 352.51,187.53 359.96,182.48 377.93,171.62 391.14,164.52 407.25,156.5 486.14,119.81 523.89,101.41 563.77,80.56 582.08,70.29 597.59,61.15"   /><polyline id="SvgjsPolyline8453" points="276.94,598.95 278.9,403.96 280.12,346.97 281.56,314 283.36,296.1 284.38,290.19 286.49,281.44 289.31,272.9 291.56,267.33 295.43,259.21 299.81,251.35 306.34,241.28 313.53,231.68 321.3,222.54 329.61,213.88 338.4,205.71 347.62,198.04 357.25,190.87 369.74,182.57 385.25,173.45 406.51,162.32 487.76,123.61 530.72,102.2 567.74,82.37 598.82,64.21"   /><polyline id="SvgjsPolyline8454" points="300.94,598.98 301.07,295.98 302,287.03 304.66,275.34 308.76,264.07 314.04,253.3 318.66,245.58 325.55,235.76 331.21,228.76 339.33,219.93 348.03,211.66 357.22,203.95 366.83,196.77 376.78,190.07 392.19,180.76 413.29,169.34 493.89,129.28 533.86,108.62 568.02,89.8 598.93,71.36"   /><polyline id="SvgjsPolyline8455" points="244.5,598.17 249.15,544.37 261.41,385.84 264.85,350.01 267.76,326.19 270.1,311.37 271.85,302.54 274.77,290.91 277.53,282.34 280.82,273.97 284.62,265.81 290.4,255.3 295.21,247.69 302.14,237.9 309.61,228.51 317.58,219.54 328.19,208.93 337.16,200.97 346.53,193.47 356.26,186.45 368.86,178.32 387.12,167.95 405.84,158.44 490.06,118.99 530.42,99.09 567.52,79.41 598.67,61.38"   /><polyline id="SvgjsPolyline8456" points="1.37,221.41 24.45,235.42 49.32,252.19 73.43,270.04 99.08,290.8 112.65,302.62 123.71,312.75 134.53,323.14 147.16,335.96 163.4,353.64 194.53,390.17 204.78,401.11 211.67,406.89 216.92,409.78 219.8,410.6 222.78,410.74 225.69,410.05 228.33,408.63 230.62,406.7 234.36,402.03 238.65,394.12 242.05,385.8 244.97,377.28 248.39,365.78 259.65,322.21 264.5,304.88 270.3,287.84 276.23,274.07 280.33,266.06 284.8,258.25 289.62,250.65 296.52,240.83 302.03,233.71 309.77,224.55 317.95,215.77 324.37,209.46 337.88,197.58 349.8,188.47 364.77,178.49 380.32,169.42 393.59,162.43 407.05,155.8 485.98,119.21 526.43,99.51 563.64,80.04 579.37,71.27 597.49,60.66"   /><polyline id="SvgjsPolyline8457" points="2.28,227.25 15.08,235.08 27.65,243.26 40.01,251.76 54.57,262.35 66.48,271.46 80.5,282.74 103.2,302.36 114.19,312.57 127.03,325.18 139.45,338.21 149.46,349.38 166.7,370.15 195.96,408.2 205.75,419.57 210.06,423.73 214.88,427.29 217.57,428.62 220.46,429.4 223.45,429.35 226.27,428.38 228.74,426.69 232.67,422.18 236.99,414.3 241.32,403.11 244.82,391.63 247.87,380.02 259.15,330.29 264.17,309.9 269.38,292.67 272.5,284.23 276.03,275.96 279.98,267.87 284.34,259.99 289.05,252.33 295.84,242.44 301.27,235.26 308.93,226.03 321.26,212.91 334.53,200.76 348.68,189.64 363.59,179.56 381.72,168.97 395.01,162.02 411.18,154.11 484.68,120.07 522.46,101.73 543.84,90.82 565,79.51 583.31,69.22 598.81,60.06"   /><polyline id="SvgjsPolyline8458" points="264.94,598.86 267.35,490.89 269.56,415.92 271.81,361.97 274.44,323.06 275.71,311.13 277.47,299.26 279.32,290.45 281.75,281.79 284.8,273.33 288.44,265.1 292.6,257.12 297.21,249.39 303.95,239.46 311.3,229.97 319.17,220.92 329.71,210.25 338.64,202.24 347.99,194.72 357.71,187.69 370.3,179.54 385.91,170.57 404.56,160.92 485.95,122.51 528.99,101.26 566.08,81.57 584.34,71.2 599.8,61.98"   /><polyline id="SvgjsPolyline8459" points="312.94,598.98 313.52,394.98 314.02,337.98 314.67,310.99 315.19,302.01 316.14,293.06 318.47,281.29 322.15,269.88 324.46,264.34 328.49,256.3 333.11,248.57 338.26,241.19 343.88,234.17 352.01,225.34 358.52,219.13 367.67,211.37 377.24,204.14 387.16,197.38 402.48,187.93 423.42,176.21 500.55,135.97 540.15,114.59 571.39,96.71 599.51,79.43"   /><polyline id="SvgjsPolyline8460" points="2.08,208.05 25.42,221.61 50.67,237.8 77.71,256.72 101.66,274.79 122.67,291.74 140.88,307.38 158.63,323.52 191.28,354.5 198.01,360.46 205.08,366.03 210.11,369.3 215.53,371.85 218.41,372.67 221.39,373.03 224.37,372.81 227.25,371.97 229.9,370.58 234.42,366.66 238.09,361.91 242.56,354.11 246.31,345.93 249.65,337.57 261.68,303.65 268.26,286.9 276.02,270.66 285.12,255.13 295.42,240.38 302.88,230.98 308.76,224.17 321.23,211.19 334.61,199.15 346.4,189.89 358.73,181.35 371.51,173.49 384.62,166.21 411.48,152.86 482.33,120.23 525.53,99.31 562.77,79.9 583.72,68.18 599.22,59.03"   /><polyline id="SvgjsPolyline8461" points="1.97,213.86 22.6,226.12 45.21,240.88 64.82,254.71 86.38,270.96 100.44,282.2 114.23,293.77 138.76,315.84 160.12,336.9 193.24,371.64 204.23,381.84 211.47,387.18 216.87,389.77 219.78,390.49 222.77,390.61 225.7,390.02 228.42,388.76 230.84,386.99 234.86,382.56 238.1,377.51 242.07,369.44 245.42,361.08 249.32,349.74 260.61,312.41 266.31,295.34 273.12,278.68 279.91,265.31 289.34,249.99 294.52,242.63 301.85,233.13 307.65,226.24 315.75,217.4 322.11,211.02 330.94,202.9 342.53,193.38 354.68,184.58 367.3,176.49 382.94,167.58 407.04,155.41 480.57,121.43 523.78,100.53 563.68,79.73 582.01,69.48 597.53,60.36"   /><polyline id="SvgjsPolyline8462" points="324.94,599 326.54,428.01 327.67,374.02 329.28,335.05 331.03,314.13 332.23,305.21 333.88,296.36 336.09,287.64 338.94,279.11 341.21,273.55 345.17,265.47 349.73,257.72 354.87,250.33 360.5,243.31 366.56,236.66 373,230.37 382.06,222.51 389.14,216.96 398.88,209.94 413.94,200.08 434.51,187.73 513.03,143.74 546.85,124.32 572.56,108.87 597.87,92.76"   /><polyline id="SvgjsPolyline8463" points="2.55,194.67 23.55,206.29 44.14,218.62 64.37,231.54 86.75,246.65 120.84,271.17 144.69,289.37 182.4,319.06 192.05,326.2 199.52,331.21 207.36,335.62 212.89,337.94 215.77,338.79 221.7,339.58 224.69,339.37 227.62,338.72 230.41,337.63 235.43,334.37 239.72,330.18 245.12,322.99 251.19,312.64 266.02,283.17 273.22,270.01 282.76,254.75 293.29,240.16 304.75,226.28 317.1,213.19 330.31,200.97 341.97,191.54 351.69,184.5 364.27,176.34 374.62,170.26 387.83,163.15 409.37,152.57 480.28,120.08 520.85,100.61 544.93,88.4 563.47,78.55 581.82,68.33 599.92,57.69"   /><polyline id="SvgjsPolyline8464" points="1.51,200.33 24.96,213.7 47.86,228.01 70.27,243.06 92.25,258.74 113.81,275 130.26,288.04 151.03,305.3 185.13,334.66 194.51,342.15 201.84,347.37 209.55,352 215.07,354.32 220.95,355.44 223.95,355.33 226.87,354.69 229.64,353.54 232.19,351.97 234.51,350.07 238.55,345.64 243.54,338.16 250.28,324.76 263.13,294.37 269.39,280.74 277.91,264.89 287.6,249.73 298.37,235.31 306.08,226.12 312.14,219.46 324.93,206.8 338.61,195.1 350.62,186.13 360.6,179.46 373.45,171.72 386.62,164.54 413.54,151.32 484.42,118.75 522.24,100.49 562.19,79.78 580.54,69.58 598.66,58.96"   /><polyline id="SvgjsPolyline8465" points="336.94,599.07 338.11,524.08 339.89,449.1 341.73,401.14 344.18,362.21 347.06,335.37 348.96,323.52 350.76,314.71 352.99,305.99 355.72,297.41 359.01,289.04 362.89,280.92 367.36,273.11 372.38,265.64 377.9,258.54 383.85,251.78 390.16,245.37 399.04,237.31 415.5,224.27 432.69,212.21 450.29,200.76 550.08,139.67 572.86,125.18 597.81,108.53"   /><polyline id="SvgjsPolyline8466" points="0.13,179.94 18.74,189.65 37.08,199.89 73.04,221.59 110.79,246.07 172.88,288.14 190.74,299.19 201.4,304.69 206.94,306.98 212.66,308.78 218.56,309.84 221.55,310.01 227.52,309.44 233.22,307.6 238.43,304.66 243.12,300.92 249.36,294.44 256.73,284.97 275.63,257.93 284.6,245.9 295.97,231.95 308.06,218.62 318.73,208.08 329.95,198.13 341.72,188.83 351.51,181.89 369.33,170.78 390.48,159.45 414.84,147.82 485.86,115.57 521.04,98.73 561.07,78.18 579.46,68.05 597.62,57.5"   /><polyline id="SvgjsPolyline8467" points="0.69,186.75 19.18,196.7 37.36,207.21 55.28,218.16 77.98,232.77 112.68,256.44 170.96,298.72 180.77,305.63 190.81,312.2 195.98,315.24 203.98,319.36 212.33,322.7 218.18,324 221.17,324.24 227.12,323.66 232.73,321.58 237.74,318.29 242.12,314.2 246.01,309.64 249.56,304.8 254.46,297.25 269.81,271.47 277.92,258.86 290.21,241.84 301.66,227.94 311.82,216.92 322.57,206.45 333.89,196.62 348.22,185.73 365.82,174.29 386.81,162.65 411.07,150.81 476.59,120.96 519.92,100.3 544.02,88.13 562.58,78.31 580.95,68.13 599.07,57.53"   /><polyline id="SvgjsPolyline8468" points="348.94,599.23 351.07,524.26 353.28,470.3 355.95,425.38 359.12,389.53 360.91,374.63 363.14,359.8 365.33,348 368.01,336.31 371.32,324.77 374.28,316.28 377.72,307.96 381.65,299.87 386.09,292.04 391.02,284.51 396.39,277.29 402.15,270.37 408.25,263.76 416.81,255.35 425.76,247.36 435,239.7 451.66,226.92 476.12,209.55 558.41,154.52 597.78,127.06"   /><polyline id="SvgjsPolyline8469" points="342.39,598.98 343.98,523.99 345.84,464.02 348.1,416.08 351,377.19 354.23,350.38 356.24,338.55 358.78,326.83 361.15,318.14 363.97,309.6 368.43,298.46 372.33,290.35 376.77,282.52 381.73,275.02 387.17,267.85 393.03,261.02 399.24,254.51 407.97,246.28 424.14,232.88 443.49,218.69 463.35,205.22 556.83,145.36 579.33,130.43 599.07,116.78"   /><polyline id="SvgjsPolyline8470" points="0.08,166.56 26.84,180.11 55.72,196.07 89.34,215.84 155.96,256.4 168.93,263.95 182.12,271.09 195.7,277.44 207.01,281.42 212.85,282.79 218.8,283.55 224.8,283.55 227.78,283.22 233.62,281.86 239.18,279.64 244.4,276.69 251.61,271.31 258.25,265.23 264.52,258.78 296.85,223.31 313.98,206.5 325.26,196.62 334.64,189.14 344.34,182.06 356.87,173.82 375.05,163.33 396.49,152.53 415.55,143.73 484.03,113.14 527.38,92.54 564.73,73.33 583.11,63.18 598.68,54.14"   /><polyline id="SvgjsPolyline8471" points="2.02,174.41 28.57,188.38 44.24,197.23 64.9,209.44 100.58,231.59 161.13,270.55 173.93,278.38 184.36,284.3 197.88,290.8 209.24,294.65 218.06,296.37 224.05,296.49 227.03,296.16 232.84,294.7 238.3,292.22 243.33,288.96 247.95,285.14 252.25,280.95 258.27,274.27 280.84,246.22 290.49,234.73 306.74,217.08 317.51,206.64 328.79,196.76 340.6,187.51 352.9,178.94 370.85,168.04 394.8,155.58 413.81,146.65 487.63,113.33 530.89,92.52 568.13,73.11 599.39,55.26"   /><polyline id="SvgjsPolyline8472" points="360.94,599.51 363.57,539.57 366.86,485.67 370.18,446.81 374.05,414.04 378.4,387.4 381.52,372.73 384.49,361.1 387.99,349.62 391,341.15 395.62,330.07 399.55,321.97 403.89,314.09 410.3,303.95 421.12,289.57 426.98,282.75 435.19,273.99 443.75,265.58 452.59,257.47 470.9,241.95 494.52,223.46 516.17,207.33 569.52,168.47 598.3,146.84"   /><polyline id="SvgjsPolyline8473" points="354.39,598.79 356.73,532.83 359.44,478.9 362.72,434.02 366.59,398.23 370.84,371.57 373.32,359.83 376.29,348.2 379.86,336.75 384.05,325.51 387.63,317.25 391.66,309.2 396.15,301.4 401.07,293.87 406.4,286.62 414.06,277.38 420.15,270.76 428.66,262.3 437.51,254.19 446.62,246.39 463.03,233.28 487.11,215.39 565.74,160.32 599.72,135.64"   /><polyline id="SvgjsPolyline8474" points="2.53,154.45 24.13,164.91 48.09,177.36 77.04,193.19 145.12,231.26 163.71,241.04 177.22,247.55 185.47,251.15 193.87,254.37 202.45,257.07 208.29,258.47 214.21,259.45 220.19,259.91 226.18,259.76 232.12,258.94 237.92,257.43 246.24,254.01 251.49,251.11 258.96,246.09 270.62,236.67 306.11,204.35 322.21,190.87 331.75,183.59 341.56,176.68 351.64,170.17 361.96,164.05 377.82,155.55 396.74,146.44 479.18,110.32 522.73,90.14 544.25,79.53 562.91,69.9 583.99,58.42 599.59,49.43"   /><polyline id="SvgjsPolyline8475" points="372.93,599.96 376.15,549.07 379.9,504.22 384.25,465.47 388.67,435.8 391.39,421.05 394.54,406.38 397.45,394.74 400.75,383.2 404.51,371.81 408.79,360.6 413.62,349.62 417.64,341.56 426.65,325.99 431.63,318.49 438.71,308.81 446.24,299.46 454.15,290.44 470.88,273.23 488.47,256.92 511.25,237.39 532.18,220.34 597.83,167.93"   /><polyline id="SvgjsPolyline8476" points="366.19,599.64 369.21,542.72 372.42,497.83 376.18,459.02 380.52,426.3 383.01,411.51 385.96,396.81 388.71,385.13 391.9,373.56 394.61,364.98 398.73,353.71 403.42,342.67 408.64,331.86 412.99,323.98 417.7,316.31 424.5,306.43 429.97,299.28 435.7,292.34 443.71,283.41 454.2,272.69 462.9,264.42 478.6,250.48 501.77,231.42 599.21,156.37"   /><polyline id="SvgjsPolyline8477" points="2.12,141.08 23.88,151.19 45.4,161.83 141.29,211.5 157.52,219.3 171.23,225.38 188.04,231.8 196.64,234.44 205.39,236.53 214.29,237.86 220.28,238.22 226.28,238.09 232.24,237.44 238.12,236.24 246.68,233.49 254.87,229.76 262.69,225.31 277.48,215.07 310.51,189.13 327.42,176.67 344.97,165.16 363.21,154.74 379.28,146.64 395.64,139.13 478.49,103.98 522.21,84.19 541.13,75.08 562.56,64.26 581.08,54.37 599.37,44.04"   /><polyline id="SvgjsPolyline8478" points="385.08,597.64 388.68,555.8 393.29,514.05 397.93,481.38 403.29,451.87 409.39,425.57 416.19,402.55 420.17,391.24 424.6,380.08 429.49,369.13 433.48,361.06 439.23,350.53 443.85,342.8 455.6,325.41 462.86,315.85 470.47,306.57 486.52,288.73 503.42,271.7 525.37,251.25 543.34,235.34 597.87,188.32"   /><polyline id="SvgjsPolyline8479" points="1.5,127.71 20.69,136.23 39.71,145.13 128.68,188.56 150.53,198.47 167.17,205.33 178.44,209.45 187.01,212.2 195.7,214.56 204.5,216.41 213.42,217.61 219.41,217.96 228.4,217.74 234.36,217.04 243.16,215.17 251.71,212.37 259.97,208.8 267.95,204.64 283.25,195.18 315.34,173.01 330.39,163.13 348.45,152.43 367.08,142.74 394.42,130.39 472.2,98.68 513.47,80.75 540.66,68.08 562.18,57.45 583.43,46.29 599.15,37.53"   /><polyline id="SvgjsPolyline8480" points="397.04,598.56 400.97,562.78 405.79,527.1 410.74,497.51 416.81,468.14 423.54,441.99 430.81,419.12 434.97,407.87 439.51,396.76 448.43,377.76 458.61,359.39 469.99,341.74 484.27,322.46 499.66,304.05 515.91,286.39 534.91,267.21 554.41,248.54 598.4,207.73"   /><polyline id="SvgjsPolyline8481" points="0.67,114.36 36.43,129.92 123.6,170.15 145.68,179.54 165.29,187.04 185.31,193.39 194.04,195.56 202.87,197.28 211.8,198.43 220.78,198.9 226.78,198.78 235.74,197.9 244.56,196.18 253.2,193.65 261.61,190.45 269.79,186.69 285.58,178.06 318.78,157.6 334.29,148.47 350.14,139.95 366.34,132.1 391.13,121.41 466.58,91.93 510.86,73.42 532.76,63.6 557.15,52.02 578.56,41.18 599.66,29.73"   /><polyline id="SvgjsPolyline8482" points="408.98,599.75 413.38,567.05 418.64,534.47 423.78,507.96 429.87,481.66 436.27,458.53 443.77,435.74 452.55,413.4 457.45,402.45 462.72,391.67 472.78,373.24 483.9,355.43 495.96,338.24 510.72,319.32 526.33,301.09 544.63,281.24 567.68,257.63 599.62,225.93"   /><polyline id="SvgjsPolyline8483" points="2.44,102.13 32.9,114.85 90.51,140.33 120.84,153.34 143.13,162.22 162.91,169.28 174.36,172.86 185.96,175.96 194.75,177.88 203.62,179.37 212.57,180.35 221.56,180.7 227.56,180.56 236.51,179.73 245.37,178.16 254.08,175.88 262.6,172.99 270.93,169.58 287.1,161.68 334.38,135.61 358.65,123.79 386.32,112.19 467.78,81.65 512.26,63.6 536.98,52.75 558.73,42.6 580.21,31.91 598.75,22.05"   /><polyline id="SvgjsPolyline8484" points="421.26,598.26 426,568.64 431.55,539.16 437.4,512.8 443.43,489.57 450.37,466.6 458.36,443.97 466.32,424.54 475.23,405.53 486.6,384.4 497.55,366.48 509.35,349.11 521.89,332.27 536.97,313.6 554.65,293.19 572.86,273.25 599.6,244.87"   /><polyline id="SvgjsPolyline8485" points="1.29,88.81 29.15,99.94 112.18,134.66 137.39,144.31 160.12,152.03 180.34,157.69 192.06,160.24 200.94,161.72 209.88,162.74 218.86,163.23 227.86,163.12 236.83,162.36 245.71,160.94 254.47,158.89 263.08,156.26 274.3,152.02 290.69,144.58 336.21,121.59 358.07,111.69 371.96,106.01 388.78,99.61 470.67,70.25 506.99,56.04 531.87,45.56 553.78,35.75 578.11,24.06 599.41,13"   /><polyline id="SvgjsPolyline8486" points="433.57,597.08 439.05,567.59 444.07,544.12 449.75,520.8 456.19,497.68 463.52,474.83 470.75,455.11 478.8,435.72 487.71,416.71 497.5,398.13 508.13,380.02 519.55,362.4 531.66,345.24 544.36,328.52 559.45,309.86 576.95,289.3 598.78,264.55"   /><polyline id="SvgjsPolyline8487" points="2.77,76.54 27.96,86.25 80.82,107.59 108.75,118.53 136.96,128.75 159.83,136 171.41,139.17 183.09,141.91 191.92,143.62 203.8,145.34 212.76,146.12 221.76,146.39 230.75,146.11 239.71,145.24 248.58,143.76 257.35,141.72 265.98,139.18 274.47,136.2 291.1,129.32 337.34,107.8 362.25,97.39 390.41,87.07 461.4,62.87 503.57,47.16 528.59,37.03 556.1,25.05 577.82,14.84 599.22,3.99"   /><polyline id="SvgjsPolyline8488" points="445.39,599.12 450.19,575.6 455.56,552.21 461.58,528.98 468.35,505.96 474.96,486.02 482.28,466.34 490.35,446.96 499.21,427.92 507.43,411.91 517.75,393.62 528.79,375.75 540.48,358.31 552.74,341.26 565.45,324.55 582.3,303.45 599.52,282.66"   /><polyline id="SvgjsPolyline8489" points="1.31,63.24 23.82,71.56 82.58,94.28 107.88,103.7 136.26,113.42 159.26,120.28 170.88,123.26 182.6,125.82 194.42,127.89 203.35,129.03 212.32,129.77 221.31,130.05 230.31,129.81 239.28,129.04 248.18,127.72 256.99,125.88 265.68,123.56 277.09,119.84 296.62,112.13 337.9,94.23 363.04,84.39 388.55,75.53 454.17,54.21 493.78,40.26 519,30.61 543.98,20.36 565.94,10.69 587.63,0.4"   /><polyline id="SvgjsPolyline8490" points="457.74,598.47 462.34,577.98 468.15,554.7 473.76,534.46 479.94,514.39 485.71,497.34 493.06,477.67 499.91,461.03 508.57,441.9 517.96,423.12 526.57,407.31 537.24,389.22 546.88,374.02 556.92,359.08 570.83,339.53 583.4,322.7 599.93,301.35"   /><polyline id="SvgjsPolyline8491" points="2.51,50.94 103.96,87.99 129.58,96.49 152.61,103.26 164.23,106.24 178.88,109.47 187.73,111.08 199.61,112.76 208.57,113.6 217.56,114.04 226.56,114.03 235.55,113.53 247.45,112.07 259.23,109.75 270.82,106.66 282.23,102.95 299.07,96.59 340.79,79.72 363.32,71.47 386.1,63.93 454.85,42.54 497.43,27.99 533.88,14.12 567.03,0.09"   /><polyline id="SvgjsPolyline8492" points="470.1,598.08 475.09,577.69 480.53,557.4 486.47,537.26 491.99,520.13 497.95,503.14 504.36,486.32 511.24,469.69 518.61,453.27 525.12,439.76 533.38,423.77 540.62,410.63 551.27,392.53 560.82,377.28 572.41,359.76 586.11,340.06 598.43,323.05"   /><polyline id="SvgjsPolyline8493" points="0.76,37.68 102.66,73.46 128.4,81.62 151.51,88.08 174.9,93.44 195.62,96.81 207.56,97.99 216.55,98.44 225.55,98.48 234.54,98.07 243.5,97.19 255.34,95.29 267.04,92.64 278.58,89.34 295.61,83.52 337.68,67.55 360.32,59.59 383.19,52.32 437.85,36.14 472.21,25.41 506.28,13.76 539.95,1.05"   /><polyline id="SvgjsPolyline8494" points="482.47,597.93 487.01,580.51 492.73,560.3 498.02,543.1 503.7,526.02 515.18,495.08 522.06,478.45 528.14,464.74 535.84,448.47 542.6,435.08 558.49,406.16 577.23,375.42 598.8,342.93"   /><polyline id="SvgjsPolyline8495" points="1.72,25.36 95.46,57.19 121.24,65.2 147.27,72.35 170.68,77.65 191.39,81.1 203.32,82.41 212.3,83 221.29,83.22 230.29,83.04 242.25,82.12 254.13,80.43 265.89,78.01 280.37,74.13 294.65,69.54 339.86,53.4 362.65,45.88 385.63,38.98 434.71,25.1 460.6,17.45 486.35,9.32 511.9,0.62"   /><polyline id="SvgjsPolyline8496" points="494.83,597.98 503.89,566.25 514.12,534.87 525.63,503.95 537.28,476.3 550.07,449.17 565.39,419.95 581.88,391.36 599.31,363.34"   /><polyline id="SvgjsPolyline8497" points="2.56,13.03 93.78,42.94 119.65,50.68 142.84,56.86 166.26,62.11 186.96,65.63 207.84,67.77 225.83,68.18 237.82,67.59 249.74,66.27 261.57,64.24 276.17,60.82 293.44,55.75 341.77,39.47 361.81,33.2 381.99,27.37 445.65,9.99 477.3,0.65"   /><polyline id="SvgjsPolyline8498" points="507.19,598.21 514.87,572.33 524.27,543.84 533.58,518.5 544.91,490.72 557.29,463.4 569.29,439.21 584.97,410.18 598.51,386.82"   /><polyline id="SvgjsPolyline8499" points="3.31,0.7 91.96,28.81 117.9,36.29 141.14,42.27 164.6,47.35 185.31,50.78 203.2,52.71 221.19,53.45 236.17,52.97 248.12,51.82 259.98,50 274.64,46.86 294.88,41.25 340.59,26.61 363.59,19.75 436.09,0.56"   /><polyline id="SvgjsPolyline8500" points="519.55,598.62 527.52,572.82 536.2,547.25 544.55,524.75 554.68,499.73 564.34,477.76 575.91,453.36 586.78,431.97 599.61,408.21"   /><polyline id="SvgjsPolyline8501" points="41.31,0.17 69.96,9.08 98.73,17.59 124.8,24.62 148.16,30.13 168.76,34.16 186.56,36.85 204.47,38.61 222.46,39.22 234.45,38.87 246.41,37.88 261.25,35.73 273.01,33.35 296.22,27.26 353.65,9.9 388.44,0.65"   /><polyline id="SvgjsPolyline8502" points="531.91,599.16 538.23,579.14 545.96,556.41 554.23,533.89 561.94,514.35 571.28,492.24 579.89,473.09 590.23,451.43 599.66,432.67"   /><polyline id="SvgjsPolyline8503" points="82.03,0.19 102.25,5.85 122.58,11.12 143.04,15.87 160.68,19.41 175.48,21.88 190.35,23.83 205.29,25.12 220.28,25.65 235.27,25.28 247.23,24.29 259.12,22.68 270.92,20.5 294.23,14.81 343.2,0.55"   /><polyline id="SvgjsPolyline8504" points="544.25,599.82 556.57,562.82 568.04,531.88 582.85,495.81 598.95,460.29"   /><polyline id="SvgjsPolyline8505" points="128.33,0.17 154.75,5.73 181.4,10 202.29,12.1 223.28,12.79 235.27,12.44 244.25,11.79 262.1,9.48 279.75,5.99 303,0.05"   /><polyline id="SvgjsPolyline8506" points="557.49,597.75 567.06,569.32 577.36,541.15 588.39,513.25 598.93,488.39"   /><polyline id="SvgjsPolyline8507" points="203.13,0.13 221.11,0.75 239.1,0.17"   /><polyline id="SvgjsPolyline8508" points="569.83,598.61 583.51,558.9 599.62,516.89"   /><polyline id="SvgjsPolyline8509" points="582.16,599.51 591.81,571.1 599.98,548.54"   /><polyline id="SvgjsPolyline8510" points="595.43,597.6 599.23,586.22"   /></g></svg>