<?xml version="1.0" standalone="no"?>
<svg id="SvgjsSvg1001" width="600" height="600" xmlns="http://www.w3.org/2000/svg" version="1.1" xmlns:xlink="http://www.w3.org/1999/xlink" xmlns:svgjs="http://svgjs.com/svgjs" class="svg-paper" viewBox="0 0 600 600"><title id="SvgjsTitle5565">x=max(sqrt(x*x + y*y),sin(x*y))|y=log(abs(max(sin(cos(x)),sqrt(x*x + y*y))*sqrt(x*x + y*y)*x))|dTest=0.0|sd=0.2|sm=0.2|ts=0.05 | generated with FlowLines</title><style>*{fill:none;stroke:#777}</style><g id="SvgjsG5566"><polyline id="SvgjsPolyline5567" points="0,521.08 20.47,503.46 42.87,483.51 64.9,463.14 86.55,442.38 118.34,410.53 178.29,347.49 188.78,336.76 199.55,326.32 208.52,318.35 218.02,311.03 225.69,306.34 231.17,303.9 236.97,302.41 239.96,302.19 242.95,302.42 245.86,303.13 248.61,304.32 251.14,305.92 255.54,309.98 260.9,317.21 276.27,342.97 294.25,370.64 298.37,378.63 301.31,387.12 302.77,389.73 304.6,392.11 306.78,394.17 309.25,395.87 311.95,397.16 317.77,398.56 323.76,398.65 329.69,397.79 335.48,396.24 343.88,393 351.93,388.99 359.69,384.43 372.05,375.94 383.81,366.64 395.1,356.75 408.13,344.34 433.12,318.43 489.78,256.42 520.7,223.72 537.51,206.59 558.87,185.53 578.44,166.92 598.31,148.65"   /><polyline id="SvgjsPolyline5568" points="0.88,536.03 26,514.63 46.25,496.77 68.4,476.55 90.2,455.93 124.32,422.18 180.57,363.89 199.74,344.88 208.65,336.84 218.02,329.35 225.54,324.42 230.9,321.72 236.58,319.82 239.53,319.3 242.53,319.16 245.51,319.45 248.41,320.19 251.18,321.35 253.78,322.85 258.47,326.57 262.66,330.87 266.54,335.44 290.23,366.42 296.62,376.57 299.14,382.01 300.96,387.72 302.36,390.37 304.13,392.79 306.25,394.9 308.69,396.64 311.37,397.98 314.22,398.91 320.16,399.67 326.14,399.28 332.02,398.07 337.74,396.27 346.02,392.77 353.98,388.57 361.66,383.88 371.5,377.02 383.28,367.74 396.79,355.84 409.77,343.37 430.6,321.78 491.34,255.37 524.38,220.55 560.51,184.56 577.9,168.02 599.99,147.72"   /><polyline id="SvgjsPolyline5569" points="1.31,504.19 19.38,488.39 41.63,468.27 63.5,447.74 87.12,424.69 122.74,388.19 178.11,329.07 197.18,309.97 208.38,299.98 217.9,292.69 225.56,287.97 230.99,285.43 233.82,284.44 239.69,283.25 242.69,283.2 245.66,283.61 248.52,284.51 251.17,285.9 253.57,287.7 257.55,292.17 260.71,297.26 263.43,302.61 274.86,330.34 279.87,341.25 285.38,351.9 295.64,370.23 298.17,375.66 300.98,384.2 302.29,386.9 303.96,389.39 305.97,391.61 308.29,393.51 310.88,395.02 313.66,396.13 319.55,397.23 325.54,397.1 331.44,396.07 340.03,393.39 348.26,389.76 356.17,385.47 368.74,377.29 380.67,368.2 394.31,356.46 407.38,344.08 430.35,320.4 489.06,256.2 524.15,219.19 543.15,200 564.62,179.05 599.79,146.39"   /><polyline id="SvgjsPolyline5570" points="1.64,550.99 26.92,529.78 47.32,512.08 69.65,492.05 89.44,473.69 128.2,436.09 184.98,378.32 204.35,359.52 213.35,351.59 220.41,346 227.87,340.97 233.14,338.12 238.73,335.94 241.64,335.2 247.6,334.71 250.58,335.03 256.31,336.77 258.99,338.11 264,341.41 270.83,347.26 277.18,353.64 285.2,362.56 290.83,369.58 294.27,374.49 297.32,379.66 299.69,385.16 300.49,388.05 301.74,390.78 303.4,393.27 305.43,395.48 307.79,397.32 310.42,398.76 313.24,399.78 316.17,400.41 322.16,400.67 328.11,399.92 333.92,398.45 339.58,396.46 347.77,392.75 355.65,388.41 363.26,383.6 373.03,376.63 384.74,367.26 395.98,357.32 408.98,344.88 431.89,321.13 490.58,256.91 521.5,224.22 542.56,202.85 559.69,186.04 581.45,165.39 599.13,149.16"   /><polyline id="SvgjsPolyline5571" points="0.23,489.25 20.42,471.32 38.11,455.1 57.71,436.54 79.13,415.53 98.07,396.29 118.79,374.59 177.96,310.82 197.03,291.7 210.5,279.77 220.07,272.54 230.33,266.33 238.63,262.86 244.46,261.5 247.45,261.23 250.45,261.32 253.4,261.81 256.25,262.75 258.91,264.13 261.32,265.91 263.45,268.02 265.29,270.38 268.33,275.55 270.75,281.04 273.47,289.62 280.25,321.91 284.4,336.31 288.56,347.57 297.94,369.66 301.53,381.09 304.59,386.24 306.59,388.47 308.89,390.38 311.46,391.94 314.22,393.1 320.08,394.32 326.07,394.3 331.99,393.36 340.6,390.76 348.86,387.19 356.78,382.93 369.37,374.77 381.3,365.68 392.7,355.94 407.98,341.54 432.97,315.63 489.64,253.63 522.68,218.8 558.8,182.81 578.38,164.22 598.28,145.97"   /><polyline id="SvgjsPolyline5572" points="2.3,565.95 23.14,548.79 48.28,527.41 70.79,507.57 90.76,489.4 129.89,452.2 189.41,392.92 208.99,374.33 218.08,366.5 225.19,360.98 232.68,356 237.96,353.15 243.51,350.9 246.4,350.09 252.34,349.28 255.33,349.35 258.3,349.75 264.05,351.46 266.78,352.69 271.97,355.7 276.83,359.22 281.41,363.09 287.81,369.41 291.73,373.95 296.85,381.34 299.45,386.74 301.49,392.36 303.13,394.87 305.16,397.08 307.53,398.91 310.17,400.33 312.99,401.32 318.92,402.18 324.9,401.84 330.78,400.66 336.51,398.88 342.08,396.65 350.16,392.69 357.93,388.16 365.45,383.22 375.12,376.11 386.73,366.61 397.89,356.59 410.82,344.08 431.62,322.46 490.31,258.24 521.22,225.53 540.14,206.27 559.38,187.33 576.74,170.76 598.8,150.42"   /><polyline id="SvgjsPolyline5573" points="1.28,472.34 21.32,454.25 41.05,435.82 77.46,400.11 112.77,363.32 175.79,294.92 188.33,282.01 199.09,271.56 212.58,259.65 219.65,254.08 226.99,248.87 234.66,244.16 239.98,241.39 245.48,239 251.18,237.13 257.05,235.93 263.04,235.67 268.95,236.61 274.45,238.97 276.91,240.67 281.14,244.91 284.42,249.93 286.92,255.38 289.68,263.94 291.97,275.71 293.15,287.65 294.01,311.64 294.69,320.61 296.2,332.51 300.18,356.18 301.48,362.03 303.48,367.68 306.31,372.96 308.09,375.38 312.42,379.51 317.66,382.39 323.47,383.85 329.45,384.07 335.4,383.31 344.06,380.89 349.63,378.65 357.68,374.64 367.92,368.39 380.04,359.57 393.81,347.97 406.93,335.65 429.91,311.98 490.73,245.63 523.87,210.91 540.79,193.89 560.13,175.05 579.78,156.54 599.75,138.36"   /><polyline id="SvgjsPolyline5574" points="0.98,479.24 21.05,461.17 40.8,442.77 60.24,424.04 79.37,404.98 112.63,370.37 173.68,304.25 194.81,282.95 208.23,270.96 220.15,261.86 230.38,255.61 235.8,253.03 241.44,251 247.3,249.75 250.29,249.53 253.29,249.65 259.2,250.65 262.06,251.56 264.75,252.87 267.23,254.56 269.44,256.58 273.08,261.34 275.87,266.64 278.95,275.09 281,283.85 282.35,292.75 285.06,316.59 286.57,325.46 288.56,334.24 291.9,345.76 298.59,365.67 300.83,374.38 303.22,379.87 306.77,384.69 308.98,386.71 311.45,388.4 314.15,389.72 319.93,391.25 325.92,391.48 331.87,390.73 340.53,388.33 348.84,384.88 356.81,380.7 369.44,372.62 381.4,363.57 395.04,351.83 408.1,339.44 431.03,315.72 485.69,255.94 520.73,218.89 539.7,199.67 558.98,180.77 578.58,162.2 598.49,143.97"   /><polyline id="SvgjsPolyline5575" points="0.5,582.79 39.97,550.5 78.57,517.16 100.84,497.06 127.15,472.49 189.52,411.84 206.95,395.34 215.91,387.36 225.17,379.73 232.42,374.39 240.05,369.63 248.19,365.81 253.94,364.11 256.89,363.6 262.88,363.4 265.86,363.72 268.8,364.33 274.46,366.29 282.3,370.68 287.06,374.33 291.4,378.47 295.26,383.06 296.95,385.54 298.43,388.14 300.5,393.76 301.88,396.42 303.71,398.79 305.93,400.8 308.47,402.4 311.24,403.55 317.12,404.65 320.12,404.69 326.07,404.03 331.9,402.61 337.57,400.66 343.09,398.3 351.09,394.19 358.81,389.56 366.28,384.54 375.89,377.36 387.45,367.8 398.58,357.74 411.49,345.2 434.31,321.36 488.91,261.54 521.85,226.62 542.89,205.24 562.16,186.33 583.94,165.7 599.42,151.51"   /><polyline id="SvgjsPolyline5576" points="2.19,455.42 22.09,437.18 39.52,420.68 60.95,399.69 77.82,382.61 110.86,347.8 169.59,283.62 192.56,259.92 205.64,247.56 219.32,235.86 231.31,226.86 243.99,218.86 251.99,214.74 260.34,211.38 269.04,209.11 275,208.5 280.98,208.91 286.7,210.66 289.33,212.09 291.73,213.89 293.85,216 295.68,218.38 298.47,223.68 301.69,235.23 307.47,252.27 310.91,263.77 313.01,272.52 314.63,281.37 317.76,308.18 319.17,317.07 321.31,325.81 324.52,334.21 327.41,339.46 329.18,341.88 333.51,346.01 336.06,347.59 338.81,348.78 344.68,349.94 350.66,349.68 356.51,348.38 362.15,346.34 367.56,343.76 377.8,337.51 389.73,328.42 403.15,316.44 413.85,305.92 426.34,292.96 485.37,229.05 520.78,192.35 539.96,173.35 557.28,156.74 579.28,136.34 599.4,118.34"   /><polyline id="SvgjsPolyline5577" points="0.48,464.24 18.23,448.08 37.9,429.59 57.26,410.76 76.3,391.62 107.37,359.07 170.26,290.56 191.2,269.08 204.35,256.79 215.82,247.13 227.91,238.26 238.17,232.03 246.26,228.11 254.76,225.16 260.63,223.96 269.6,223.36 275.54,224.16 281.12,226.3 285.99,229.79 289.92,234.31 292.93,239.49 295.18,245.05 296.86,250.81 298.61,259.63 299.68,268.57 300.39,280.54 301.03,310.53 301.93,325.5 303.03,334.44 304.75,343.27 306.34,349.05 308.42,354.68 311.18,360 314.78,364.78 319.33,368.67 321.93,370.16 327.6,372.1 333.55,372.71 339.53,372.23 345.38,370.93 351.07,369.01 356.57,366.63 361.9,363.88 369.61,359.24 377.01,354.11 384.14,348.63 399.97,334.83 412.87,322.28 427.43,307.15 486.28,243.07 521.49,206.18 540.57,187.07 562.13,166.22 579.66,149.83 599.68,131.71"   /><polyline id="SvgjsPolyline5578" points="0.9,597.75 38.33,567.7 79.54,532.81 104.25,510.93 126.4,490.7 191.7,428.77 211.53,410.45 220.59,402.58 229.93,395.04 237.2,389.75 244.82,384.95 250.13,382.17 255.67,379.87 261.44,378.24 264.4,377.73 270.38,377.46 273.37,377.72 279.21,379.05 284.73,381.38 287.33,382.89 292.12,386.49 294.27,388.58 297.95,393.31 301.75,401.42 303.67,403.71 306,405.6 308.64,407.02 311.48,407.99 317.41,408.74 323.39,408.28 329.25,407.01 334.95,405.15 340.5,402.87 348.55,398.85 353.75,395.86 361.34,391.02 368.7,385.84 378.2,378.51 389.64,368.81 400.69,358.66 411.41,348.18 432.2,326.55 492.91,260.11 523.83,227.42 542.77,208.17 562.01,189.24 579.39,172.68 599.23,154.37"   /><polyline id="SvgjsPolyline5579" points="0.77,440.51 18.39,424.22 37.92,405.57 73.95,369.48 104.87,336.79 165.57,270.33 186.29,248.64 199.12,236.02 207.91,227.85 219.23,218.01 228.59,210.5 243.25,200.07 250.92,195.37 258.86,191.13 269.94,186.54 275.71,184.91 281.64,183.98 287.62,184.08 290.56,184.67 293.37,185.71 295.93,187.26 298.1,189.33 299.69,191.86 300.91,194.6 302.64,197.05 304.73,199.19 309.67,202.58 312.4,203.8 318.2,205.31 324.18,205.64 327.17,205.4 333.05,204.25 341.52,201.22 352.1,195.59 359.62,190.64 366.87,185.31 383.11,172 403.25,154.02 464.99,97.06 496.33,69.1 535.09,35.96 579.37,0.07"   /><polyline id="SvgjsPolyline5580" points="1.41,446.67 16.85,432.43 38.57,411.73 74.6,375.64 107.56,340.75 164.19,278.71 187.04,254.9 199.97,242.38 211.12,232.35 222.7,222.82 232.35,215.69 239.84,210.7 247.6,206.14 255.65,202.13 261.21,199.87 266.93,198.06 272.81,196.88 281.79,196.56 284.78,196.85 287.71,197.49 290.51,198.53 293.12,200.01 295.44,201.9 297.4,204.17 298.95,206.74 300.89,212.39 302.19,215.09 307.25,222.52 311.25,226.99 315.62,231.1 320.31,234.83 325.34,238.11 330.71,240.77 333.52,241.8 339.38,243.08 342.37,243.28 345.37,243.17 351.26,242.11 359.64,238.87 364.9,235.98 372.39,230.99 379.51,225.49 388.64,217.7 408.33,199.24 472.52,136.14 507.51,103.29 529.8,83.21 550.14,65.46 575.36,44.17 598.6,25.21"   /><polyline id="SvgjsPolyline5581" points="0.42,448.34 20.25,430.02 37.61,413.45 73.68,377.4 108.71,340.33 165.35,278.3 190.37,252.42 205.64,238.01 217.01,228.23 228.87,219.04 241.32,210.69 249.15,206.25 254.53,203.6 262.9,200.3 268.68,198.7 274.61,197.81 280.6,197.93 283.54,198.48 286.39,199.42 289.07,200.77 291.5,202.52 293.65,204.6 295.49,206.97 298.22,212.29 299.93,218.04 301.1,220.8 305.44,228.68 323.87,256.05 338.22,278.92 343.64,286.09 347.99,290.21 350.48,291.89 353.18,293.19 356.06,294.03 359.03,294.39 362.03,294.29 367.87,292.98 373.39,290.65 381.12,286.04 390.66,278.77 399.65,270.83 410.44,260.41 420.95,249.7 478.9,188.89 512.82,154.94 532.32,136.26 556.56,113.87 578.98,93.94 599.47,76.35"   /><polyline id="SvgjsPolyline5582" points="1.58,448.71 19.22,432.43 38.76,413.8 74.82,377.73 105.76,345.06 168.53,276.44 191.55,252.8 204.65,240.46 218.32,228.74 230.26,219.67 242.83,211.49 250.74,207.2 258.97,203.58 267.57,200.95 273.5,200.02 279.49,200.07 285.31,201.46 288.01,202.74 290.5,204.41 292.72,206.43 294.64,208.73 297.58,213.94 301.42,225.29 313.68,249.34 318.59,260.29 323.8,274.35 332.85,302.95 336.39,311.22 339.35,316.44 343.11,321.1 345.4,323.03 347.97,324.56 350.77,325.64 353.71,326.23 356.7,326.36 359.69,326.1 365.51,324.66 373.71,320.99 383.81,314.52 393.21,307.07 404.32,296.99 425.38,275.64 486.8,209.85 518.29,177.71 537.59,158.83 559.41,138.23 581.6,118.05 599.62,102.2"   /><polyline id="SvgjsPolyline5583" points="1.05,450.24 36.11,417.45 57.51,396.43 74.35,379.33 109.39,342.27 168.09,278.06 191.09,254.4 206.41,240.04 220.17,228.44 232.22,219.51 244.93,211.56 252.95,207.48 261.31,204.16 267.09,202.56 273.02,201.64 279.01,201.72 281.96,202.23 284.82,203.13 287.53,204.41 290.02,206.08 292.25,208.08 294.19,210.37 297.2,215.54 298.3,218.33 300.71,226.99 308.96,246.3 314.27,260.33 318.39,274.74 323.49,301.25 325.52,310.02 328.4,318.54 331,323.94 334.32,328.93 338.46,333.26 340.82,335.12 343.43,336.58 346.25,337.6 349.19,338.18 352.19,338.33 355.18,338.13 361.03,336.85 369.36,333.45 374.61,330.55 379.65,327.3 391.55,318.18 402.73,308.18 411.33,299.82 423.88,286.91 483.05,223.13 518.53,186.5 539.9,165.45 557.28,148.9 579.36,128.58 599.54,110.65"   /><polyline id="SvgjsPolyline5584" points="1.02,455.26 18.71,439.03 40.46,418.38 74.46,384.49 111.59,345.29 168.28,283.31 191.28,259.65 206.64,245.32 220.47,233.81 232.64,225.05 242.9,218.83 250.96,214.83 259.38,211.65 265.19,210.2 271.15,209.5 277.13,209.84 282.87,211.53 285.52,212.92 287.96,214.67 292.09,219 295.22,224.11 296.45,226.84 298.34,232.53 304.27,261.93 305.7,270.82 306.71,279.76 307.98,306.73 309.08,318.67 311.31,330.46 314.05,339.02 316.56,344.47 321.65,351.88 325.94,356.05 328.44,357.7 331.15,359 334,359.92 339.93,360.7 345.91,360.27 351.75,358.93 357.41,356.92 362.86,354.42 368.13,351.55 375.71,346.71 382.97,341.39 389.97,335.73 403.34,323.69 414.03,313.16 426.51,300.19 487.49,234 520.74,199.39 542.01,178.23 559.31,161.59 579.06,143.19 599.13,125.12"   /><polyline id="SvgjsPolyline5585" points="17.78,599.72 59.76,565.77 100.84,530.71 134.39,500.72 198.22,441.61 218.38,423.65 234.7,410.44 247.06,401.95 257.64,396.32 266.11,393.3 272,392.18 274.99,391.96 280.97,392.32 286.77,393.84 289.51,395.05 294.5,398.36 296.65,400.45 298.49,402.81 301.14,408.18 303.05,410.48 305.43,412.3 308.12,413.61 311,414.44 313.97,414.85 319.96,414.69 325.86,413.59 331.6,411.85 342.61,407.11 355.63,399.67 370.37,389.35 379.77,381.9 391.13,372.1 402.11,361.89 412.81,351.36 435.6,327.5 490.18,267.66 523.08,232.7 559.03,196.53 580.69,175.78 598.31,159.48"   /><polyline id="SvgjsPolyline5586" points="1.46,423.59 36.24,390.51 72.13,354.27 102.97,321.5 161.64,257.26 182.31,235.52 195.06,222.81 205.95,212.5 217.14,202.52 228.7,192.95 243.15,182.22 255.79,174.16 266.41,168.58 271.92,166.22 277.59,164.27 283.43,162.9 286.41,162.54 292.39,162.75 295.28,163.55 297.89,165 301.58,169.67 304,171.42 306.76,172.59 309.68,173.27 315.66,173.44 321.58,172.49 330.12,169.68 338.25,165.83 346.04,161.32 353.55,156.38 363.27,149.34 382.03,134.37 398.03,120.77 479.48,49.85 509.37,24.8 539.67,0.24"   /><polyline id="SvgjsPolyline5587" points="0.3,429.96 35.11,396.91 54.25,377.88 73.1,358.54 103.91,325.74 160.53,263.69 183.31,239.82 196.13,227.18 207.11,216.96 218.42,207.12 227.76,199.58 242.35,189.04 255.17,181.26 265.98,176.08 271.62,174.03 277.42,172.53 283.38,171.84 286.37,171.95 289.33,172.47 292.15,173.47 294.7,175.03 296.84,177.12 299.91,182.24 302.2,184.17 304.85,185.57 307.7,186.49 313.61,187.52 319.6,187.56 322.58,187.18 328.41,185.78 336.79,182.53 347.35,176.83 354.89,171.93 364.6,164.87 383.24,149.76 405.82,130.01 461.68,79.97 488.81,56.3 520.9,29.2 555.84,0.85"   /><polyline id="SvgjsPolyline5588" points="0.19,442.18 17.79,425.87 37.3,407.21 58.61,386.09 75.38,368.92 108.26,333.96 162.85,274.11 185.66,250.27 198.54,237.7 209.62,227.58 221.09,217.92 230.61,210.61 243.02,202.2 256.14,194.94 261.63,192.53 267.28,190.5 273.09,189.03 279.04,188.32 285.01,188.77 287.9,189.57 290.63,190.81 293.1,192.5 295.25,194.59 297.01,197.01 300.78,205.14 304.65,209.7 306.93,211.65 312.01,214.83 317.61,216.96 326.45,218.6 329.44,218.7 335.41,218.12 344.05,215.64 349.53,213.21 354.8,210.35 362.37,205.48 369.62,200.15 378.95,192.61 388.02,184.75 407.9,166.48 469,108.84 495.63,84.61 518.13,64.77 554.75,33.74 594.48,1.76"   /><polyline id="SvgjsPolyline5589" points="301.62,212.39 303.35,214.84 307.33,219.32 311.88,223.23 314.34,224.94 319.6,227.83 322.38,228.94 328.2,230.38 334.18,230.66 340.15,230.08 346,228.78 354.34,225.42 359.61,222.55 364.67,219.33 371.96,214.05 378.99,208.43 394.73,194.54 472.71,119.82 514.78,81.36 555.66,46.08 576.47,28.88 599.88,10.12"   /><polyline id="SvgjsPolyline5590" points="287.6,197.95 290.22,199.41 292.57,201.26 294.62,203.45 296.34,205.9 297.73,208.56 299.55,214.26 302.08,219.69 305.28,224.76 308.88,229.57 318.87,240.74 325.44,246.9 330.14,250.62 335.24,253.77 340.71,256.23 346.48,257.84 349.46,258.13 352.46,258.06 358.35,256.95 361.19,256 366.65,253.51 371.83,250.49 379.19,245.31 386.19,239.66 395.17,231.7 414.57,212.92 471.64,155.44 510.59,118.05 534.94,95.77 555.17,77.89 580.26,56.46 598.76,41.17"   /><polyline id="SvgjsPolyline5591" points="0.21,447.99 20.04,429.66 37.4,413.09 73.47,377.04 108.5,339.97 167.18,275.75 188.02,254.16 200.98,241.68 212.17,231.69 223.8,222.22 235.98,213.47 243.6,208.68 251.5,204.37 259.72,200.72 265.4,198.79 271.24,197.44 277.21,196.89 283.17,197.5 286.04,198.35 288.76,199.62 291.24,201.29 293.45,203.32 295.34,205.64 298.16,210.92 299.92,216.65 301.12,219.4 304.03,224.64 307.34,229.65 314.58,239.22 326.03,253.1 332.05,259.79 336.39,263.93 341.21,267.49 343.86,268.89 349.49,270.95 352.42,271.6 355.41,271.84 358.4,271.67 361.35,271.14 367.03,269.24 372.4,266.55 379.94,261.65 389.34,254.2 398.28,246.19 419.64,225.13 474.08,169.27 510.55,133.62 532.47,113.14 554.75,93.06 577.38,73.36 598.04,55.98"   /><polyline id="SvgjsPolyline5592" points="0.46,448.83 35.51,416.03 54.78,397.12 73.74,377.9 106.73,343.04 167.46,276.62 190.44,252.93 203.49,240.54 217.09,228.75 228.96,219.58 241.43,211.26 249.27,206.84 257.42,203.03 265.93,200.11 271.8,198.89 277.78,198.54 283.71,199.4 286.53,200.4 289.18,201.81 291.59,203.6 293.7,205.72 297.01,210.7 298.21,213.45 299.86,219.21 302.25,224.71 306.61,232.58 318.89,253.2 324.38,263.87 335.88,288.29 338.77,293.55 342.09,298.54 346.32,302.78 351.39,305.98 354.15,307.14 357.08,307.79 360.07,307.96 363.05,307.7 368.84,306.16 376.95,302.27 384.46,297.32 393.83,289.84 402.73,281.78 421.8,262.67 483.58,197.23 515.25,165.26 534.65,146.49 556.57,126.01 576.62,107.93 599.25,88.22"   /><polyline id="SvgjsPolyline5593" points="37.02,599.78 74.3,569.55 110.91,538.5 137.95,514.73 198.06,460.44 216.09,444.6 234.68,429.43 244.38,422.37 251.94,417.48 259.82,413.14 268.11,409.65 276.83,407.49 282.82,407.15 288.74,408.02 291.58,408.99 294.25,410.35 296.67,412.12 298.71,414.3 301.87,419.37 304.19,421.25 306.9,422.54 309.8,423.3 312.78,423.62 315.77,423.59 321.71,422.75 327.5,421.17 333.12,419.08 343.92,413.87 356.74,406.09 371.32,395.53 380.64,387.98 391.93,378.11 402.89,367.86 415.67,355.19 436.35,333.46 492.96,271.4 525.87,236.46 561.82,200.29 598.89,165.26"   /><polyline id="SvgjsPolyline5594" points="2.04,406.66 34.5,375.49 68.2,341.31 97,310.74 155.76,246.58 182.69,218.38 197.66,203.65 208.64,193.43 219.91,183.53 231.52,174.03 243.54,165.06 256.06,156.81 266.54,150.96 277.53,146.18 286.21,143.82 292.18,143.37 295.15,143.76 297.95,144.81 302.36,148.79 305.15,149.85 308.11,150.3 314.09,149.97 319.93,148.62 328.34,145.43 336.38,141.39 344.13,136.81 351.66,131.88 361.43,124.92 382.74,108.34 467.78,37 511.94,0.96"   /><polyline id="SvgjsPolyline5595" points="56.26,599.77 88.88,573.31 118.73,548.22 143.71,526.65 200,477.09 218.24,461.49 236.99,446.51 246.72,439.49 254.26,434.59 262.09,430.14 270.27,426.41 278.88,423.8 284.82,423.05 290.79,423.5 293.67,424.33 296.35,425.66 298.67,427.55 300.34,430.04 302.36,432.22 304.98,433.67 307.86,434.48 310.84,434.8 313.84,434.74 319.77,433.82 325.53,432.17 331.13,430.02 341.9,424.73 354.68,416.89 369.26,406.34 380.89,396.87 392.15,386.96 403.09,376.7 415.87,364.03 436.59,342.33 497.29,275.88 526.07,245.29 547.03,223.83 564.07,206.93 598.88,173.89"   /><polyline id="SvgjsPolyline5596" points="0.36,391.77 34.85,358.39 64.27,328.42 91.05,300.06 149.98,236.06 179.02,205.72 191.82,193.07 204.93,180.73 218.41,168.8 229.98,159.26 244.36,148.44 256.86,140.15 267.28,134.21 278.19,129.23 286.8,126.62 292.74,125.91 295.73,126.14 298.56,127.09 300.72,129.12 303.4,130.42 306.35,130.89 312.33,130.47 318.14,129.01 326.52,125.73 334.55,121.68 342.32,117.13 359.73,105.41 383.63,87.28 490.72,0.23"   /><polyline id="SvgjsPolyline5597" points="75.5,599.73 124.25,559.82 201.8,493.57 220.25,478.22 239.18,463.46 248.96,456.52 256.52,451.63 264.33,447.17 272.47,443.33 281,440.5 286.92,439.54 292.9,439.81 295.77,440.63 298.37,442.11 300.33,444.37 302.58,446.32 305.37,447.39 308.33,447.85 311.33,447.85 314.31,447.53 320.16,446.22 325.84,444.29 331.36,441.94 341.99,436.38 354.65,428.35 369.14,417.68 380.74,408.17 391.99,398.24 405.1,385.91 417.86,373.22 440.63,349.33 495.27,289.54 528.1,254.52 563.9,218.2 598.59,185.03"   /><polyline id="SvgjsPolyline5598" points="0.79,374.84 28.77,347.67 60.33,315.59 89.2,285.09 148.37,221.31 175.47,193.27 190.47,178.57 203.63,166.29 217.14,154.4 228.71,144.86 243.06,134 255.49,125.6 268.46,118.07 279.36,113.07 287.94,110.39 293.88,109.63 296.87,109.89 299.58,111.07 302.11,112.65 305.05,113.19 311.02,112.74 316.82,111.22 322.43,109.12 330.57,105.27 338.44,100.9 348.62,94.55 358.54,87.81 380.28,71.79 403.92,53.33 469.57,0.92"   /><polyline id="SvgjsPolyline5599" points="94.74,599.67 132.01,569.42 217.39,498.49 241.19,480.23 258.64,468.55 266.46,464.11 274.59,460.25 280.21,458.16 286.02,456.69 291.99,456.21 294.97,456.57 297.79,457.55 302.29,461.39 305.15,462.26 308.14,462.5 311.13,462.32 319.89,460.3 325.51,458.21 330.97,455.74 344.09,448.47 356.58,440.17 370.93,429.31 382.47,419.72 395.89,407.73 408.92,395.32 421.66,382.59 446.47,356.51 501.2,296.8 532.02,264.01 565.68,229.8 598.09,198.58"   /><polyline id="SvgjsPolyline5600" points="1.14,357.9 29.03,330.64 56.37,302.83 81.21,276.77 142.71,211.07 167.78,185.23 184.9,168.42 200.26,154.09 213.77,142.2 227.67,130.76 242.03,119.91 254.43,111.47 267.33,103.83 278.12,98.6 286.59,95.57 292.47,94.37 295.46,94.23 298.41,94.71 300.87,96.36 303.75,97.13 306.74,97.14 312.64,96.09 318.35,94.26 323.89,91.96 337.19,85.03 354.94,73.81 376.93,58.15 405.57,36.34 450.47,1.22"   /><polyline id="SvgjsPolyline5601" points="113.97,599.62 218.96,514.75 242.99,496.8 260.55,485.29 268.41,480.9 276.54,477.05 282.17,474.97 287.98,473.49 293.95,473.05 296.9,473.54 299.53,474.91 301.91,476.71 304.81,477.44 307.8,477.53 313.73,476.66 322.29,473.91 333.17,468.84 343.56,462.85 356.03,454.52 370.4,443.68 381.97,434.13 395.44,422.2 408.56,409.87 423.48,395.1 450.45,366.93 507.38,305.16 536.2,274.61 565.61,244.63 597.9,213.29"   /><polyline id="SvgjsPolyline5602" points="1.43,340.96 29.26,313.64 54.49,287.97 135.02,203.09 162.27,175.19 181.61,156.35 197.02,142.08 212.84,128.28 226.8,116.91 241.19,106.11 253.6,97.67 266.46,89.97 277.19,84.61 285.59,81.37 291.4,79.89 294.37,79.51 297.36,79.59 302.87,81.7 305.86,81.75 311.76,80.7 317.47,78.86 323.02,76.57 336.35,69.7 351.68,60.28 371.47,46.7 395.64,28.93 431.43,1.66"   /><polyline id="SvgjsPolyline5603" points="133.2,599.62 198.95,547.34 220.29,530.79 242.07,514.84 259.64,503.34 267.45,498.87 275.5,494.86 281.05,492.58 286.77,490.78 292.68,489.79 295.68,489.83 298.58,490.54 300.84,492.4 303.68,493.31 306.68,493.42 312.6,492.51 321.14,489.71 332.01,484.63 344.95,477.06 357.36,468.64 371.7,457.76 383.28,448.22 396.79,436.34 412.13,421.99 427.09,407.25 454.17,379.19 511.33,317.64 540.21,287.15 571.78,255.07 599.75,227.89"   /><polyline id="SvgjsPolyline5604" points="1.67,324.02 23.1,303.02 48.44,277.45 125.25,197.32 156.81,165.24 174.03,148.53 191.64,132.22 207.45,118.4 223.71,105.11 238.08,94.28 252.94,84.13 265.8,76.41 276.5,70.97 284.84,67.59 290.6,65.93 293.55,65.4 296.54,65.24 299.45,65.83 302.25,66.89 305.24,66.95 311.14,65.89 316.84,64.04 322.39,61.76 333.13,56.4 348.62,47.25 366.14,35.67 388.15,20.04 414.68,0.41"   /><polyline id="SvgjsPolyline5605" points="152.43,599.71 199.79,562.88 223.74,544.81 245.79,529.22 263.58,518.08 276.91,511.22 282.47,508.96 288.2,507.19 294.12,506.26 297.11,506.41 302.47,508.83 305.46,509.04 308.44,508.75 314.28,507.39 322.7,504.23 333.45,498.92 346.32,491.21 358.7,482.74 373.05,471.88 389.22,458.48 402.67,446.52 417.99,432.16 435.08,415.31 464.26,385.1 519.64,325.99 544.49,299.95 573.97,270.03 599.74,244.89"   /><polyline id="SvgjsPolyline5606" points="1.89,307.07 44.47,264.8 121.74,185.11 153.53,153.26 170.86,136.67 188.57,120.46 204.44,106.71 220.73,93.46 237.53,80.87 252.44,70.78 265.3,63.07 278.71,56.36 287.12,53.17 292.94,51.72 295.92,51.4 298.9,51.66 301.56,52.97 304.54,53.11 310.44,52.07 318.95,49.15 329.82,44.08 342.91,36.76 358.16,27.19 375.55,15.43 395.12,1.54"   /><polyline id="SvgjsPolyline5607" points="171.64,599.95 207.53,572.81 229.36,556.92 249.2,543.42 264.58,534.07 277.96,527.3 283.53,525.06 289.26,523.31 295.18,522.42 298.16,522.67 300.82,524.01 303.75,524.57 306.74,524.42 312.61,523.17 321.07,520.11 331.87,514.89 344.8,507.31 359.71,497.23 374.1,486.41 388.06,475.04 403.89,461.25 419.32,447.01 436.55,430.31 463.91,402.51 550.82,311.28 576.14,285.69 599.73,262.62"   /><polyline id="SvgjsPolyline5608" points="2.1,290.13 38.39,254.3 114.04,177.22 148.14,143.43 169.95,122.84 187.81,106.81 203.8,93.2 220.2,80.09 232.21,71.1 247.01,60.85 259.72,52.9 270.22,47.08 281.09,42.01 289.58,39.05 295.47,37.92 298.46,37.98 301.09,39.26 304.07,39.45 307.05,39.07 312.85,37.56 321.24,34.33 332.03,29.08 345.09,21.7 360.35,12.15 377.79,0.47"   /><polyline id="SvgjsPolyline5609" points="193.22,598.6 217.46,580.93 237.15,567.21 252.23,557.39 267.78,548.33 281.32,541.88 289.85,539.04 295.77,538.13 298.74,538.42 301.18,540.06 304.16,540.35 307.14,540.05 312.97,538.64 321.38,535.47 332.16,530.2 347.63,521.01 360.06,512.61 376.88,500.05 393.17,486.8 409.02,473.02 426.68,456.77 443.96,440.11 473.53,410.29 554.71,326.03 577.97,302.63 599.41,281.64"   /><polyline id="SvgjsPolyline5610" points="0.18,275.27 38.7,237.43 112.72,162.96 144.95,131.56 164.7,113.15 182.62,97.18 200.95,81.69 217.4,68.64 231.87,57.92 246.72,47.77 259.48,39.87 272.66,32.73 283.64,27.88 292.23,25.23 295.18,24.72 298.18,24.65 300.99,25.6 303.98,25.75 309.87,24.65 315.57,22.8 323.87,19.31 334.59,13.92 345.03,8.01 357.83,0.18"   /><polyline id="SvgjsPolyline5611" points="212.38,599.41 229.63,587.44 244.64,577.51 259.99,568.11 270.52,562.36 281.4,557.31 289.91,554.41 295.82,553.4 298.8,553.6 301.38,555.02 304.37,555.16 307.34,554.77 313.14,553.25 321.53,550.02 334.93,543.29 347.81,535.59 362.73,525.53 377.2,514.83 395.92,499.81 411.85,486.12 431.82,467.96 449.19,451.39 483.17,417.5 560.68,338.05 599.09,300.08"   /><polyline id="SvgjsPolyline5612" points="0.43,258.32 36.93,222.7 107.19,152.95 139.63,121.76 161.7,101.45 179.73,85.61 195.83,72.12 212.28,59.07 229.15,46.57 246.53,34.78 261.93,25.47 275.23,18.55 283.5,14.99 292.07,12.27 298.01,11.56 300.89,12.32 303.88,12.43 309.76,11.29 315.46,9.42 321.02,7.17 334.5,0.59"   /><polyline id="SvgjsPolyline5613" points="233.92,599.03 246.55,590.93 259.41,583.21 269.95,577.47 280.81,572.39 289.28,569.36 295.15,568.14 298.15,568.1 300.96,569.07 303.94,569.25 309.84,568.2 318.35,565.29 329.24,560.26 342.34,552.97 355.02,544.95 369.8,534.67 384.18,523.85 400.53,510.67 416.5,497.04 436.56,478.97 454.03,462.51 481.89,435.22 557.81,358.41 598.39,318.38"   /><polyline id="SvgjsPolyline5614" points="0.72,241.37 88.75,155.46 121.17,124.26 154.26,93.77 181.48,70.2 197.75,56.93 214.37,44.1 231.41,31.82 243.88,23.48 259.24,14.11 269.79,8.39 280.66,3.32 289.11,0.24"   /><polyline id="SvgjsPolyline5615" points="297.02,0.3 299.91,0.81 305.87,0.12"   /><polyline id="SvgjsPolyline5616" points="255.39,599.57 265.86,593.71 273.88,589.64 282.11,585.99 287.75,583.94 293.55,582.43 296.52,582.06 302.41,582.96 308.34,582.17 316.9,579.41 325.15,575.82 338.44,568.86 353.8,559.48 368.69,549.37 385.57,536.88 404.34,521.93 420.37,508.37 438.33,492.44 460.31,472.03 492.62,440.7 564.8,368.63 599.11,335.07"   /><polyline id="SvgjsPolyline5617" points="1.05,224.41 107.03,122.54 133.43,98.07 158.09,76.14 185.67,53 211.74,32.77 236.27,15.51 246.35,9.01 259.24,1.33"   /><polyline id="SvgjsPolyline5618" points="281.59,599.28 290.08,596.3 295.95,595.09 298.94,595.12 301.8,595.95 304.79,595.8 307.74,595.25 316.31,592.54 327.29,587.7 340.52,580.64 358.38,569.6 375.66,557.67 394.84,543.24 411.21,530.09 429.52,514.57 447.47,498.64 469.5,478.28 499.8,449.19 568.18,381.82 598.32,352.57"   /><polyline id="SvgjsPolyline5619" points="1.45,207.46 95.01,118.64 119.26,96.26 146.14,72.32 169,52.89 194.77,32.27 216.43,16.17 238.76,0.98"   /><polyline id="SvgjsPolyline5620" points="329.66,599.87 340.24,594.2 350.57,588.1 363.2,580.01 375.57,571.51 387.7,562.7 402,551.76 416.04,540.5 432.14,527.02 459.15,503.22 489.95,474.66 597.83,370.45"   /><polyline id="SvgjsPolyline5621" points="1.93,190.5 85.13,112.57 109.49,90.31 131.92,70.38 154.71,50.87 177.95,31.91 196.95,17.24 218.82,1.42"   /><polyline id="SvgjsPolyline5622" points="354.21,599.93 376.74,585.06 398.55,569.15 422.13,550.6 449.66,527.41 474.34,505.5 505.18,476.99 598.55,387.98"   /><polyline id="SvgjsPolyline5623" points="0.31,175.6 77.45,104.36 119.95,66.37 140.44,48.8 163.59,29.72 182.46,14.88 201.68,0.52"   /><polyline id="SvgjsPolyline5624" points="378.56,598.38 398.08,584.41 419.51,567.99 442.78,549.06 467.84,527.59 485.79,511.65 512.37,487.37 599.87,405.26"   /><polyline id="SvgjsPolyline5625" points="0.99,158.65 67.53,98.05 110.21,60.27 149.26,27.47 182.32,1.57"   /><polyline id="SvgjsPolyline5626" points="397.84,599.45 417.08,585.09 438.28,568.38 459.1,551.19 477.33,535.58 522.09,495.62 599.21,424.37"   /><polyline id="SvgjsPolyline5627" points="1.77,141.7 57.58,91.6 98.18,56 134.94,25.14 165.49,0.89"   /><polyline id="SvgjsPolyline5628" points="419.55,598.3 438.53,583.62 454.9,570.46 493.88,537.57 534.29,501.76 598.66,443.22"   /><polyline id="SvgjsPolyline5629" points="0.43,126.76 49.87,83.04 88.42,49.64 118.31,24.6 148.74,0.2"   /><polyline id="SvgjsPolyline5630" points="438.82,598.64 469.32,574.34 503.78,545.4 542.18,511.84 598.08,461.84"   /><polyline id="SvgjsPolyline5631" points="1.45,109.82 42.17,74.35 76.34,45.08 103.99,22.02 129.68,1.3"   /><polyline id="SvgjsPolyline5632" points="458.08,598.8 488.45,574.34 518.33,549.27 554.63,517.87 599.66,478.22"   /><polyline id="SvgjsPolyline5633" points="0.33,94.86 66.55,38.43 113,0.45"   /><polyline id="SvgjsPolyline5634" points="477.34,598.84 503,578.1 528.36,556.99 598.89,496.37"   /><polyline id="SvgjsPolyline5635" points="1.61,77.93 49.82,37.38 93.97,1.33"   /><polyline id="SvgjsPolyline5636" points="496.58,598.8 543.02,560.81 597.96,514.27"   /><polyline id="SvgjsPolyline5637" points="0.72,62.96 44.62,26.6 77.27,0.18"   /><polyline id="SvgjsPolyline5638" points="515.82,598.74 550.75,570.36 599.14,530.03"   /><polyline id="SvgjsPolyline5639" points="2.26,46.05 58.19,0.71"   /><polyline id="SvgjsPolyline5640" points="535.06,598.67 597.85,547.5"   /><polyline id="SvgjsPolyline5641" points="1.62,31.06 39.08,1.05"   /><polyline id="SvgjsPolyline5642" points="554.29,598.62 598.69,562.88"   /><polyline id="SvgjsPolyline5643" points="1.1,16.07 19.91,1.17"   /><polyline id="SvgjsPolyline5644" points="573.51,598.63 599.34,578.09"   /><polyline id="SvgjsPolyline5645" points="592.73,598.7 599.81,593.14"   /></g></svg>