<?xml version="1.0" standalone="no"?>
<svg id="SvgjsSvg1001" width="600" height="600" xmlns="http://www.w3.org/2000/svg" version="1.1" xmlns:xlink="http://www.w3.org/1999/xlink" xmlns:svgjs="http://svgjs.com/svgjs" class="svg-paper" viewBox="0 0 600 600"><title id="SvgjsTitle6160">x=y|y=(exp(y)-cos(x))|dTest=0.0|sd=0.2|sm=0.2|ts=0.05 | generated with FlowLines</title><style>*{fill:none;stroke:#777}</style><g id="SvgjsG6161"><polyline id="SvgjsPolyline6162" points="599.85,553.36 584.86,553.7 572.87,553.33 557.92,552.1 543.06,550.08 528.3,547.39 513.65,544.18 467.09,532.49 446.6,527.9 425.89,524.46 407.97,522.79 395.98,522.46 383.98,522.77 372.02,523.7 360.12,525.2 348.28,527.19 333.59,530.19 284,542.1 260.5,546.99 248.66,548.92 233.77,550.7 221.8,551.54 209.8,551.84 197.81,551.56 185.84,550.72 173.92,549.35 159.11,546.98 135.64,541.98 80.35,528.12 65.67,525.03 53.84,523.01 38.96,521.21 26.98,520.45 11.98,520.39 0,521.08"   /><polyline id="SvgjsPolyline6163" points="599.1,541.38 587.11,541.84 572.11,541.58 557.16,540.41 542.3,538.4 527.55,535.66 512.92,532.36 460.71,518.58 440.24,513.87 428.44,511.71 416.55,510.08 404.6,509.06 392.61,508.7 380.61,509.03 371.64,509.72 359.73,511.17 347.89,513.16 327.37,517.61 272.1,531.51 257.41,534.57 245.58,536.59 230.7,538.45 218.73,539.32 203.74,539.59 191.75,539.14 182.78,538.41 170.87,536.97 150.2,533.27 129.76,528.45 77.59,514.53 65.89,511.84 54.12,509.55 39.27,507.41 27.32,506.39 12.32,506.06 0.34,506.58"   /><polyline id="SvgjsPolyline6164" points="597.48,565.48 582.48,565.85 570.49,565.53 558.52,564.69 543.62,562.95 531.77,561.06 517.04,558.22 461.54,545.25 438.01,540.54 426.15,538.74 414.22,537.42 402.24,536.66 393.25,536.49 381.25,536.78 369.29,537.66 357.37,539.08 345.52,540.96 324.93,545.09 275.22,556.46 260.5,559.35 245.69,561.72 230.79,563.43 218.81,564.24 203.82,564.52 191.83,564.13 170.92,562.19 147.24,558.32 126.71,553.89 82.94,543.45 71.2,540.96 56.44,538.31 41.57,536.35 29.61,535.38 17.62,534.99 2.62,535.37"   /><polyline id="SvgjsPolyline6165" points="598.35,529.41 586.36,529.84 571.36,529.5 556.42,528.21 541.58,526.03 526.87,523.1 512.29,519.58 460.32,504.93 439.94,499.89 425.2,497.08 413.31,495.47 404.35,494.7 392.36,494.31 383.36,494.49 371.39,495.37 359.49,496.91 347.68,499.02 327.22,503.73 272.14,518.38 257.49,521.6 245.67,523.72 230.8,525.66 218.84,526.58 203.85,526.86 191.86,526.37 182.89,525.6 170.99,524.06 159.17,521.99 147.44,519.47 127.11,514.23 78.1,500.12 63.53,496.54 51.77,494.15 36.94,491.96 24.98,490.96 12.98,490.69 1,491.18"   /><polyline id="SvgjsPolyline6166" points="598.1,577.47 583.11,577.86 571.11,577.59 559.14,576.81 544.23,575.18 532.36,573.41 517.61,570.71 461.96,558.38 441.34,554.39 429.48,552.57 417.56,551.2 405.59,550.34 393.6,550.04 381.6,550.32 369.63,551.15 357.71,552.49 345.84,554.27 325.21,558.19 272.44,569.66 257.69,572.34 245.82,574.12 233.9,575.49 218.94,576.55 206.94,576.84 191.95,576.47 171.03,574.64 150.27,571.49 129.68,567.38 79.92,556.22 65.18,553.42 53.33,551.56 38.42,549.87 26.45,549.11 14.45,548.91 2.46,549.29"   /><polyline id="SvgjsPolyline6167" points="597.61,517.43 582.62,517.83 570.63,517.4 555.7,515.97 540.89,513.61 526.22,510.46 511.71,506.7 457.15,490.19 436.82,484.92 425.06,482.54 413.2,480.78 404.24,479.92 392.25,479.45 383.25,479.62 371.29,480.54 359.4,482.16 347.61,484.4 327.22,489.4 275.27,504.15 260.69,507.66 245.97,510.53 231.12,512.59 219.16,513.56 204.16,513.86 192.17,513.34 180.23,512.17 171.33,510.88 159.53,508.68 147.84,506 127.6,500.41 78.92,485.2 64.45,481.25 52.75,478.58 40.93,476.48 26.03,474.86 14.04,474.44 2.05,474.85"   /><polyline id="SvgjsPolyline6168" points="598.73,589.45 586.74,589.84 571.74,589.63 559.76,588.92 544.84,587.39 530,585.24 515.24,582.59 465.35,572 441.76,567.59 429.89,565.85 417.96,564.54 405.99,563.72 393.99,563.42 382,563.67 370.02,564.45 358.09,565.72 346.21,567.41 325.55,571.15 272.68,582.13 257.9,584.72 246.03,586.43 231.11,588.02 219.14,588.79 204.14,589.07 192.15,588.73 171.22,587 150.44,584.01 129.81,580.09 79.93,569.46 56.27,565.44 41.37,563.71 29.4,562.87 17.41,562.55 2.42,562.93"   /><polyline id="SvgjsPolyline6169" points="599.88,505.3 584.9,505.81 572.9,505.47 557.97,504.09 543.16,501.71 528.52,498.47 511.17,493.68 457.01,475.92 436.81,470.17 425.11,467.53 413.28,465.55 401.34,464.33 392.35,463.98 383.35,464.11 371.39,465.04 359.51,466.75 347.75,469.12 327.44,474.44 275.76,490.1 261.24,493.84 246.55,496.9 234.7,498.74 219.77,500.14 207.77,500.5 192.79,499.93 180.85,498.69 169,496.79 157.27,494.31 145.64,491.32 125.56,485.18 74.47,467.71 62.96,464.31 51.33,461.38 36.58,458.63 24.66,457.3 12.67,456.86 0.68,457.33"   /><polyline id="SvgjsPolyline6170" points="546.44,599.67 531.57,597.66 516.78,595.17 463.85,584.48 440.21,580.34 428.32,578.74 416.38,577.55 404.4,576.84 392.4,576.63 371.43,577.51 359.48,578.67 347.59,580.25 323.94,584.34 268.02,595.38 250.24,598.14 235.34,599.84"   /><polyline id="SvgjsPolyline6171" points="179.12,599.87 164.21,598.24 146.42,595.55 125.78,591.67 81.69,582.66 55.04,578.35 40.13,576.76 28.15,576.02 13.16,575.8 1.16,576.21"   /><polyline id="SvgjsPolyline6172" points="599.01,493.33 584.03,493.82 569.04,493.16 554.15,491.37 539.42,488.55 524.88,484.87 510.54,480.49 493.53,474.61 456.89,461.23 436.88,454.87 425.26,451.9 413.48,449.62 401.57,448.17 392.58,447.69 383.59,447.75 371.62,448.66 359.76,450.45 348.03,452.96 327.81,458.63 276.47,475.37 262.02,479.36 247.38,482.65 232.57,485.03 217.64,486.34 205.64,486.54 190.67,485.72 178.76,484.21 166.97,482.02 155.3,479.21 143.77,475.88 123.91,469.08 73.49,449.73 62.12,445.9 50.6,442.56 35.95,439.35 24.06,437.76 12.08,437.16 0.09,437.6"   /><polyline id="SvgjsPolyline6173" points="479.04,599.82 452.5,594.84 431.73,591.78 410.82,589.88 392.83,589.38 374.84,590 356.92,591.64 336.13,594.63 309.58,599.53"   /><polyline id="SvgjsPolyline6174" points="105.69,599.76 73.26,593.67 58.43,591.45 46.51,590.07 25.56,588.7 13.56,588.59 1.56,588.97"   /><polyline id="SvgjsPolyline6175" points="598.17,481.36 583.18,481.77 568.2,480.95 553.34,478.93 538.67,475.83 524.22,471.8 507.18,466.02 490.39,459.53 454.25,444.87 434.46,437.87 422.92,434.59 411.19,432.06 399.3,430.46 390.31,429.95 381.32,430.06 369.37,431.13 360.49,432.58 348.78,435.22 340.12,437.64 325.84,442.25 289.15,455.46 274.93,460.23 260.53,464.43 245.92,467.84 231.12,470.25 216.18,471.48 201.18,471.44 189.22,470.46 177.36,468.68 165.63,466.16 154.06,462.97 142.67,459.22 120.34,450.43 68.25,427.27 57.07,422.93 45.68,419.14 34.07,416.13 22.25,414.11 13.28,413.36 1.29,413.45"   /><polyline id="SvgjsPolyline6176" points="599.09,487.74 587.1,488.04 572.12,487.34 557.24,485.48 542.53,482.56 528.03,478.72 510.9,473.19 457.64,452.9 437.72,446.24 426.13,443.16 414.36,440.82 402.45,439.37 393.46,438.94 381.47,439.27 372.52,440.17 363.63,441.57 351.9,444.11 340.32,447.26 328.87,450.83 291.98,463.49 277.7,468.07 263.26,472.12 248.62,475.4 233.81,477.72 218.86,478.91 203.86,478.88 191.9,477.95 180.02,476.24 168.27,473.82 156.67,470.77 145.22,467.18 122.74,458.78 75.69,439.11 61.6,433.95 50.13,430.43 38.46,427.65 26.61,425.82 14.64,425.07 2.64,425.39"   /><polyline id="SvgjsPolyline6177" points="597.35,469.39 582.36,469.7 567.4,468.69 552.58,466.41 535.09,462.15 520.82,457.55 504.03,451.05 487.54,443.84 449.38,426.3 429.88,418.52 418.45,414.88 409.72,412.69 397.89,410.69 388.92,409.99 376.93,410.16 367.98,411.12 359.13,412.7 347.49,415.64 338.9,418.32 327.6,422.35 288.55,437.82 274.46,442.96 260.16,447.48 245.61,451.12 230.83,453.65 215.89,454.88 200.9,454.7 185.99,453.07 174.21,450.78 159.76,446.79 148.44,442.82 134.59,437.04 123.75,431.91 110.44,425 58.11,395.64 47.36,390.31 39.13,386.69 27.85,382.6 19.15,380.29 10.28,378.79 1.3,378.23"   /><polyline id="SvgjsPolyline6178" points="599.33,476.62 584.33,476.87 569.37,475.85 554.54,473.6 539.93,470.26 525.55,465.97 508.62,459.86 491.97,453.04 456.16,437.59 436.52,430.16 425.05,426.64 413.37,423.92 401.5,422.18 392.52,421.62 383.52,421.71 371.58,422.83 362.71,424.35 351.03,427.12 331,433.42 291.63,448.05 277.46,452.94 263.09,457.25 248.5,460.73 233.71,463.17 218.76,464.39 203.77,464.26 191.82,463.18 179.98,461.25 168.29,458.55 156.78,455.15 142.67,450.07 131.58,445.48 117.95,439.23 66.85,413.97 53.1,407.99 41.85,403.82 30.32,400.5 21.5,398.73 9.57,397.51 0.57,397.54"   /><polyline id="SvgjsPolyline6179" points="599.58,457.26 590.59,457.66 581.59,457.6 566.64,456.37 557.76,454.96 548.95,453.09 540.26,450.78 531.67,448.07 517.63,442.8 498.5,434.15 482.48,425.94 442.91,404.51 426.71,396.67 418.41,393.21 409.93,390.2 401.26,387.78 392.43,386.08 383.47,385.23 374.47,385.29 365.53,386.25 353.8,388.75 345.19,391.36 333.94,395.54 322.89,400.23 284.61,417.49 270.66,423.02 259.31,426.88 244.83,430.79 233.04,433 221.11,434.29 209.12,434.55 200.13,434.05 194.17,433.38 179.44,430.56 165.09,426.23 151.2,420.57 135.22,412.3 122.48,404.39 112.66,397.5 105.5,392.04 91.75,380.44 80.9,370.08 70.73,359.05 63.27,349.66 56.66,339.65 53.79,334.38 51.28,328.93 48.31,320.44 46.41,311.65 45.76,305.69 45.57,299.69 45.78,293.7 46.74,284.75 49.57,270.02 54.12,252.61 66.06,212.34 72.44,189.21 78.66,162.94 83.72,136.42 87.67,109.71 91.19,76.9 93.76,40.99 95.5,2.03"   /><polyline id="SvgjsPolyline6180" points="598.72,463.8 583.72,463.94 568.78,462.72 559.88,461.34 551.07,459.52 536.6,455.57 522.44,450.64 505.82,443.73 489.55,436.04 449.34,415.83 430.13,407.37 418.82,403.37 407.22,400.29 398.36,398.76 386.4,397.83 377.4,397.88 368.44,398.71 359.58,400.27 347.97,403.28 339.41,406.08 328.18,410.31 292.26,425.49 275.51,432.08 258.43,437.73 243.89,441.4 235.04,443.04 226.11,444.2 211.14,444.96 196.16,444.19 181.35,441.88 166.83,438.15 158.29,435.3 149.9,432.05 136.25,425.83 120.41,417.3 105.06,407.9 90.11,397.87 43.99,364.38 26.74,352.41 11.35,343.08 0.53,337.9"   /><polyline id="SvgjsPolyline6181" points="599.33,467.66 584.34,467.88 569.39,466.76 554.59,464.35 537.14,459.93 520.1,454.14 506.2,448.5 489.8,441.09 451.91,422.98 432.54,414.87 421.17,411.03 412.48,408.72 400.67,406.58 391.71,405.8 382.71,405.77 370.77,406.88 361.92,408.48 350.29,411.46 341.72,414.18 330.43,418.26 291.47,433.94 277.41,439.16 263.12,443.74 248.59,447.43 239.75,449.11 230.83,450.35 215.87,451.3 200.89,450.78 186.02,448.78 174.31,446.18 162.81,442.78 151.54,438.65 137.8,432.65 124.41,425.89 108.75,417.02 60.46,386.74 42.24,376.31 28.67,369.93 20.27,366.68 11.63,364.19 2.77,362.67"   /><polyline id="SvgjsPolyline6182" points="598.65,445.3 589.65,445.67 577.66,445.31 568.71,444.39 559.83,442.93 551.05,440.95 539.54,437.57 531.07,434.53 520.01,429.89 511.88,426.02 501.27,420.43 480.69,408.08 460.78,394.68 419.16,365.21 401.48,353.89 393.61,349.52 385.47,345.68 377.01,342.64 371.18,341.24 362.23,340.38 356.24,340.75 350.35,341.84 341.79,344.59 336.28,346.97 328.26,351.05 289.54,373.97 278.96,379.65 270.86,383.56 259.79,388.18 251.28,391.1 239.67,394.11 230.79,395.61 218.83,396.43 206.85,395.81 197.97,394.35 186.43,391.09 175.4,386.4 165.02,380.38 155.45,373.16 148.87,367.02 142.87,360.32 135.88,350.57 131.49,342.72 127.91,334.47 125.16,325.9 122.84,314.14 122.05,305.17 122.12,293.18 123.68,278.27 127.06,260.59 130.66,246.03 143.54,199.79 148.06,182.37 153.41,158.97 158.35,132.43 162.18,105.7 165.57,72.88 168.03,36.97 169.59,1"   /><polyline id="SvgjsPolyline6183" points="597.65,452.89 588.66,453.05 579.66,452.68 570.71,451.78 561.82,450.36 553.03,448.46 544.34,446.1 527.36,440.16 510.9,432.89 492.28,423.17 476.72,414.14 440.83,392.31 422.43,382.2 411.59,377.06 403.23,373.72 394.65,371.04 385.84,369.19 376.89,368.37 367.9,368.65 359,370 350.29,372.26 341.79,375.2 330.74,379.88 287.7,401.12 276.76,406.05 265.62,410.5 254.25,414.33 242.64,417.38 230.83,419.5 218.89,420.56 209.89,420.6 203.9,420.25 192.01,418.67 180.33,415.91 174.61,414.12 166.19,410.94 155.32,405.86 142.38,398.3 130.19,389.56 118.84,379.76 110.44,371.19 102.74,362 95.88,352.16 90.06,341.67 86.51,333.4 83.05,321.92 81.12,310.08 80.66,298.1 81.78,283.15 84.88,265.42 89.1,247.93 101.84,201.65 107.72,178.38 112.81,154.93 117.02,131.3 120.76,104.56 123.82,74.72 125.98,44.8 127.91,2.85"   /><polyline id="SvgjsPolyline6184" points="597.1,456.37 582.11,456.32 573.14,455.59 564.22,454.36 555.39,452.64 546.66,450.47 538.04,447.88 529.54,444.9 512.93,438 496.75,430.1 480.92,421.53 447.03,402.24 428.38,392.59 420.16,388.93 411.75,385.73 403.14,383.13 394.33,381.3 385.38,380.37 376.39,380.42 367.44,381.41 355.74,384.01 347.15,386.71 335.94,391 289.53,412.13 278.46,416.76 267.21,420.93 252.86,425.29 241.16,427.91 229.28,429.62 217.31,430.32 211.31,430.26 202.33,429.65 190.47,427.86 181.7,425.83 175.94,424.15 161.89,418.92 148.39,412.39 140.58,407.91 133,403.07 120.87,394.26 107.2,382.55 96.66,371.89 88.9,362.73 80.2,350.52 74.2,340.13 69.49,329.11 66.96,320.48 65.36,311.62 64.66,299.65 64.85,293.65 65.68,284.69 67.06,275.8 68.84,266.98 73.18,249.51 85.4,206.2 91.46,182.98 97.34,156.63 102.1,130.06 106.13,100.33 109.05,70.48 111.1,40.55 112.83,1.59"   /><polyline id="SvgjsPolyline6185" points="597.45,462.09 582.45,462.11 567.52,460.74 552.77,458.05 544.04,455.86 535.42,453.27 518.52,447.09 502.04,439.86 488.56,433.28 448.57,412.65 429.45,403.97 418.19,399.84 409.55,397.33 397.77,395.04 388.81,394.23 379.82,394.26 370.86,395.11 362.01,396.71 350.41,399.78 339.05,403.65 330.67,406.92 297.58,421.1 280.9,427.86 263.89,433.74 249.41,437.64 234.66,440.36 219.73,441.67 204.73,441.44 189.85,439.62 178.13,437.07 163.81,432.63 149.92,426.97 133.86,418.85 118.44,409.57 103.61,399.38 86.96,386.58 73.23,374.94 60.06,362.68 49.63,351.89 41.77,342.83 34.73,333.12 30.32,325.28 27.01,316.92 25.08,308.14 24.56,299.17 24.87,293.18 25.61,287.22 28.72,272.55 32.86,258.14 44.79,221.01 52.5,195.13 59.14,168.96 65.08,139.56 69.58,109.9 73.12,77.1 75.53,44.19 77.45,2.23"   /><polyline id="SvgjsPolyline6186" points="597.94,463.64 582.94,463.71 568.01,462.41 553.24,459.8 535.87,455.12 518.92,449.05 502.39,441.93 486.18,434.12 448.68,415.2 429.46,406.76 418.14,402.79 409.46,400.41 400.63,398.68 391.68,397.7 379.69,397.66 370.74,398.56 361.89,400.17 350.28,403.22 341.74,406.04 330.51,410.27 294.56,425.39 277.79,431.93 260.69,437.53 246.13,441.15 231.33,443.55 216.37,444.53 201.39,443.98 186.54,441.88 171.98,438.33 163.41,435.56 155,432.36 138.64,424.86 122.89,416.16 107.68,406.54 88.1,392.66 69.13,377.96 46.05,358.8 32.6,346.84 23.98,338.49 15.91,329.61 10.52,322.41 7.56,317.2 6.35,314.45 4.58,308.73 3.75,302.79 3.77,296.8 4.98,287.88 8.8,273.39 26.71,222.45 35.72,193.83 41.81,170.62 46.86,147.16 51.78,117.57 54.07,99.72 55.95,81.82 58.88,42.93 60.77,0.97"   /><polyline id="SvgjsPolyline6187" points="597.79,433.33 585.8,433.55 573.83,432.71 561.99,430.79 550.36,427.86 539,423.99 525.25,418 512.03,410.92 499.36,402.91 487.21,394.11 475.59,384.62 462.41,372.37 452.18,361.41 442.88,349.64 436.41,339.54 431.19,328.75 428.34,320.22 426.54,311.41 425.79,302.44 426.22,290.46 427.9,278.58 429.72,269.76 432.62,258.12 447.69,206.27 454.57,180.16 457.94,165.54 461.52,147.9 465.93,121.27 469.3,94.48 472.03,64.61 474.09,31.67 475.34,1.7"   /><polyline id="SvgjsPolyline6188" points="598.62,441.59 586.62,441.69 574.66,440.78 562.82,438.86 551.17,435.99 539.77,432.25 525.92,426.51 512.52,419.77 499.57,412.2 484.59,402.23 467.78,389.65 451.65,376.2 436.24,361.94 425.75,351.22 416.08,339.76 409.38,329.81 406.59,324.5 404.31,318.96 402.03,310.26 401.17,301.31 401.57,292.32 403.47,280.48 408,263.07 422.6,217.34 430.96,188.53 437.93,159.36 443.38,129.86 447.1,103.12 450.13,73.27 452.43,40.35 454.16,1.39"   /><polyline id="SvgjsPolyline6189" points="597.97,444.7 585.97,444.77 574.01,443.84 562.17,441.94 550.51,439.1 539.09,435.43 525.18,429.81 511.71,423.22 498.65,415.84 480.97,404.51 463.88,392.32 440.18,373.93 417.05,354.82 403.51,342.96 390.59,330.43 386.62,325.94 383,321.16 379.93,316.01 378.69,313.28 376.94,307.55 376.21,301.6 376.75,292.63 378.57,283.82 382.98,269.48 399.42,224.39 407.77,198.71 411.87,184.29 415.56,169.75 419.43,152.17 422.21,137.43 426.29,110.74 429.89,77.94 432.51,42.04 434.39,0.08"   /><polyline id="SvgjsPolyline6190" points="598.28,449.22 589.28,449.4 580.29,449.04 571.34,448.14 562.45,446.71 553.66,444.78 544.99,442.37 536.45,439.53 525.29,435.14 509,427.48 498.44,421.79 488.07,415.74 467.8,402.9 432.84,379.62 414.88,368.75 404.19,363.3 395.88,359.86 387.27,357.26 381.38,356.13 372.43,355.2 366.43,355.22 357.51,356.34 348.8,358.59 340.35,361.69 332.14,365.38 321.45,370.83 287.13,389.35 276.32,394.54 265.27,399.22 253.96,403.22 242.38,406.36 230.57,408.49 221.61,409.33 209.62,409.34 197.7,408.04 185.99,405.42 174.64,401.55 163.75,396.51 153.42,390.43 143.7,383.39 136.87,377.54 132.54,373.38 124.52,364.46 117.43,354.79 111.44,344.4 107.78,336.18 104.92,327.65 102.39,315.93 101.44,306.98 101.33,294.98 102.71,280.05 105.94,262.35 110.19,244.86 122.08,201.46 127.96,178.19 133.07,154.75 137.3,131.12 141.4,101.41 144.11,74.54 146.27,44.62 148.2,2.67"   /><polyline id="SvgjsPolyline6191" points="597.95,445.8 588.95,445.95 576.97,445.28 568.04,444.14 556.28,441.78 547.59,439.44 536.22,435.61 525.12,431.06 514.28,425.91 495.93,415.71 485.76,409.35 473.31,400.99 451.44,385.15 408.42,352.51 388.8,338.7 378.62,332.35 368.05,326.66 359.79,323.11 354.03,321.44 348.09,320.65 345.09,320.69 339.18,321.68 333.54,323.71 328.19,326.41 323.06,329.52 291.03,351.76 280.85,358.12 272.99,362.5 262.16,367.67 253.78,370.93 245.17,373.55 236.37,375.41 230.42,376.17 224.43,376.51 215.44,376.19 206.55,374.8 197.91,372.32 189.65,368.76 181.91,364.18 174.82,358.65 168.49,352.25 163.03,345.11 158.51,337.33 156.06,331.86 153.22,323.32 151.37,314.52 150.45,305.57 150.35,296.57 150.96,287.59 152.65,275.72 155.78,261.05 160.47,243.67 171.69,206.32 178.14,183.21 183.75,159.87 188.37,136.32 192.84,106.66 196.05,76.83 198.66,40.93 200.41,1.97"   /><polyline id="SvgjsPolyline6192" points="536.76,436.28 525.64,431.78 514.78,426.68 504.18,421.06 493.82,415.01 481.15,406.96 466.31,396.78 418.03,361.16 400.81,349.14 390.63,342.81 382.69,338.56 374.41,335.06 368.64,333.41 362.71,332.52 356.72,332.56 350.8,333.5 342.25,336.28 336.79,338.76 328.87,343.04 290.63,366.75 280.11,372.53 272.04,376.5 260.97,381.13 252.44,384.01 240.8,386.87 231.89,388.16 219.91,388.59 210.94,387.86 202.1,386.19 196.33,384.55 190.7,382.5 185.22,380.04 179.94,377.2 172.44,372.24 167.75,368.5 163.34,364.43 155.21,355.61 149.93,348.33 145.48,340.51 141.91,332.26 139.25,323.66 137.51,314.84 136.62,305.88 136.51,296.89 137.06,287.9 139.15,273.06 142.29,258.39 146.88,240.99 156.88,206.4 163.15,183.24 169.25,156.94 173.68,133.35 177.58,106.64 180.77,76.81 183.19,43.9 185.12,1.94"   /><polyline id="SvgjsPolyline6193" points="0.28,260.94 13.36,227.4 22.08,201.85 26.36,187.47 30.2,172.97 36.01,146.61 40.95,117.02 43.24,99.17 45.12,81.27 48.03,42.38 49.92,0.42"   /><polyline id="SvgjsPolyline6194" points="597.04,421.35 588.04,421.49 576.08,420.63 564.25,418.59 552.69,415.42 541.46,411.2 533.3,407.4 522.8,401.59 512.78,395 500.95,385.79 492.09,377.69 483.85,368.97 476.33,359.62 469.69,349.64 465.4,341.73 460.81,330.65 458.33,322 456.72,313.15 455.89,301.18 456.38,289.2 458.39,274.34 460.78,262.58 463.61,250.92 477.12,201.74 483.69,175.55 489.79,146.18 494.11,119.53 497.41,92.74 499.62,68.84 501.79,35.91 503.22,2.94"   /><polyline id="SvgjsPolyline6195" points="597.05,430.4 585.06,430.26 573.13,429.01 561.36,426.67 549.85,423.3 538.65,419 527.81,413.85 517.35,407.97 504.84,399.71 492.97,390.55 481.79,380.55 471.41,369.73 463.81,360.44 457.04,350.54 451.27,340.02 446.57,328.99 444.05,320.35 442.48,311.5 441.79,299.52 442.48,287.55 444.21,275.68 448.8,255.19 463.35,203.19 470.01,177.02 475.64,150.62 480.58,121.03 483.93,94.24 486.42,67.36 488.39,37.42 489.95,1.46"   /><polyline id="SvgjsPolyline6196" points="598.19,439.64 586.2,439.69 571.27,438.3 559.48,436.05 547.92,432.86 536.62,428.82 522.92,422.72 509.7,415.64 496.95,407.74 482.24,397.37 468.13,386.2 454.64,374.28 441.9,361.58 432.11,350.22 425.16,340.44 422.12,335.27 419.48,329.88 416.42,321.43 414.57,312.63 413.6,300.67 414.01,291.69 415.74,279.82 417.66,271.03 420.72,259.42 435.52,210.62 442.68,184.59 449.35,155.34 454.57,125.8 458.45,96.06 461,69.18 463.02,39.25 464.72,0.28"   /><polyline id="SvgjsPolyline6197" points="598.06,443.81 586.06,443.88 574.1,442.95 559.32,440.41 547.73,437.34 536.38,433.44 522.58,427.57 509.22,420.75 496.27,413.18 478.76,401.59 459.48,387.31 438.52,370.29 422.73,356.45 409.77,343.96 401.77,335.02 398.17,330.23 394.98,325.14 392.39,319.74 391.38,316.91 390.56,314.03 389.55,308.12 389.09,299.14 389.86,290.18 391.58,281.34 396.53,264.04 411.94,218.58 419.78,192.75 423.63,178.25 427.08,163.66 432.81,134.21 436.72,107.5 439.92,77.67 442.35,44.76 444.29,2.81"   /><polyline id="SvgjsPolyline6198" points="597.02,445.46 585.02,445.46 576.05,444.8 564.17,443.08 552.48,440.42 541,436.9 527.03,431.46 516.16,426.39 502.93,419.31 487.56,409.96 472.63,399.89 455.65,387.54 436.61,372.93 379.99,328.46 375.47,324.51 371.23,320.27 367.62,315.49 366.22,312.83 364.16,307.2 363.19,301.3 363.49,295.31 365.4,286.53 370.29,272.35 388.01,227.74 395.91,205.08 400.31,190.74 405,173.37 408.42,158.76 411.42,144.06 416.24,114.46 420.01,81.68 423.12,39.79 424.84,0.83"   /><polyline id="SvgjsPolyline6199" points="568.66,444.08 559.81,442.43 551.08,440.28 542.47,437.65 531.22,433.48 520.24,428.65 509.52,423.24 499.06,417.37 488.83,411.1 473.85,401.12 459.22,390.63 409.16,352.39 392.26,339.92 377.45,329.69 354.77,315.04 350.23,311.14 346.87,306.18 345.78,303.4 345.38,300.43 345.55,297.44 346.12,294.49 347.91,288.77 351.35,280.46 370.15,239.57 375.86,225.7 381.12,211.66 385.9,197.44 389.37,185.95 396.06,159.8 399.7,142.17 402.74,124.43 405.26,106.61 407.32,88.73 409.23,67.81 410.71,46.87 412.82,1.92"   /><polyline id="SvgjsPolyline6200" points="599.54,445.58 590.54,445.83 578.56,445.29 569.62,444.24 557.83,442.01 546.25,438.88 534.91,434.96 523.84,430.33 513.04,425.11 502.5,419.38 492.19,413.23 482.1,406.75 469.73,398.26 452.77,385.87 402.7,347.64 380.66,332.05 368,324 357.59,318.05 346.8,312.8 341.12,310.88 338.15,310.44 335.16,310.6 329.34,312.01 323.87,314.47 316.39,319.46 290.21,339.54 282.77,344.61 275.11,349.32 267.19,353.59 258.99,357.31 250.53,360.36 241.82,362.61 232.92,363.92 223.93,364.13 214.99,363.12 209.16,361.73 200.75,358.55 192.95,354.08 188.19,350.43 181.86,344.05 178.23,339.27 175.12,334.15 172.53,328.73 169.66,320.21 168.38,314.35 167.35,305.42 167.26,296.42 167.94,287.45 170.42,272.66 174.03,258.1 178.31,243.73 191.12,203.73 198.54,177.77 203.45,157.36 207.56,136.76 211.72,110.09 215.38,77.29 217.84,44.39 219.79,2.43"   /><polyline id="SvgjsPolyline6201" points="0.03,228.78 9.26,203.41 16.18,180.43 21.89,157.12 26.97,130.61 30.81,103.88 33.92,74.05 36.26,41.13 38.02,2.17"   /><polyline id="SvgjsPolyline6202" points="599.42,409.3 587.42,409.32 578.46,408.54 569.6,407 560.89,404.74 552.39,401.78 541.47,396.82 531.1,390.8 523.72,385.65 514.47,378 508.03,371.72 500.17,362.66 494.9,355.37 488.84,345.01 485.13,336.82 482.2,328.31 480.1,319.57 478.82,310.66 478.33,298.68 479.01,286.7 481.12,271.85 483.53,260.1 486.35,248.44 500.53,196.33 506.26,173.03 511.73,146.59 516.08,119.94 519.09,96.13 521.88,66.26 523.99,33.33 525.37,0.36"   /><polyline id="SvgjsPolyline6203" points="597.27,445.69 588.28,445.8 576.3,445.08 567.38,443.89 555.63,441.48 544.09,438.2 532.8,434.13 521.78,429.39 511.03,424.06 492.81,413.62 480.21,405.49 470.33,398.68 450.96,384.5 403.29,348.08 381.27,332.45 368.65,324.36 355.63,316.9 344.88,311.57 333.82,306.92 332.02,304.56 331.95,301.58 332.64,298.66 335.88,290.27 356.61,250.34 364.15,233.99 369.89,220.14 375.11,206.07 379.81,191.83 383.19,180.32 386.96,165.8 390.86,148.23 394.13,130.53 396.83,112.73 399.05,94.87 401.12,73.97 402.92,50.04 405.22,2.1"   /><polyline id="SvgjsPolyline6204" points="369.67,324.98 356.69,317.47 343.25,310.83 334.93,307.38 326.48,304.32 323.53,303.76 320.7,302.78 315.25,305.26 312.77,306.94 296.81,320.59 287.44,328.08 277.59,334.94 269.85,339.52 259.02,344.67 250.52,347.61 241.73,349.54 232.77,350.26 223.81,349.53 217.98,348.14 212.38,346 207.12,343.11 202.34,339.51 198.11,335.25 194.53,330.45 190.43,322.45 187.85,313.84 186.9,307.92 186.5,301.93 186.57,295.93 187.06,289.96 189.01,278.12 191.92,266.48 195.44,255.01 212.34,206.89 219.53,183.99 223.47,169.52 226.95,154.93 229.99,140.24 232.59,125.47 235.97,101.71 239.07,71.87 241.21,41.95 243,2.99"   /><polyline id="SvgjsPolyline6205" points="0.53,191.3 5.49,173.99 10.36,153.57 14.34,132.95 17.94,109.22 20.39,88.37 22.76,61.47 24.62,31.53 25.88,1.56"   /><polyline id="SvgjsPolyline6206" points="598.68,397.32 589.68,397.28 580.73,396.4 571.9,394.68 563.27,392.13 554.92,388.78 546.92,384.68 539.31,379.87 532.16,374.41 525.51,368.35 519.43,361.72 513.97,354.57 509.21,346.93 505.21,338.88 502.03,330.46 499.7,321.77 498.21,312.9 497.53,303.93 497.73,291.93 498.96,280 500.97,268.17 505.74,247.72 520.13,195.68 525.93,172.39 530.89,148.91 535.39,122.29 538.83,95.51 541.38,68.63 543.56,35.7 544.99,2.74"   /><polyline id="SvgjsPolyline6207" points="352.09,315.06 341.23,309.94 327.27,304.49 324.28,304.38 321.74,302.86 318.77,302.47 316.16,303.92 315.71,301.25 318.61,296.01 330.18,278.48 338.08,265.73 345.44,252.67 352.22,239.29 358.43,225.63 365.1,208.92 370.94,191.9 376,174.62 380.3,157.14 383.92,139.51 386.93,121.77 390.12,97.98 392.27,77.09 393.94,56.16 395.38,32.2 396.66,2.23"   /><polyline id="SvgjsPolyline6208" points="302.9,299.69 300.75,301.78 312.65,288.28 321.78,276.39 330.18,263.95 339.32,248.45 347.49,232.41 354.72,215.93 361.05,199.09 366.53,181.94 371.21,164.56 375.74,144.06 379.39,123.38 382.3,102.58 384.58,81.71 386.57,57.79 388.05,33.84 389.45,0.87"   /><polyline id="SvgjsPolyline6209" points="302.37,299.46 295.83,305.63 286.64,313.35 279.37,318.65 274.29,321.85 266.33,326.03 260.77,328.3 252.11,330.71 246.17,331.47 240.17,331.38 234.28,330.28 228.74,328.02 223.84,324.57 219.88,320.08 217.02,314.82 215.25,309.1 214.43,303.16 214.41,297.16 215.5,288.24 216.8,282.38 219.33,273.75 224.58,259.7 241.16,221.11 249.82,198.73 253.68,187.37 258.01,173.01 261.8,158.49 264.45,146.79 267.33,132.07 269.77,117.27 272.2,99.43 274.16,81.54 277.17,42.66 279.09,0.71"   /><polyline id="SvgjsPolyline6210" points="314.19,300.61 311.69,302.25 298.25,314.22 288.96,321.81 281.64,327.05 273.99,331.79 265.98,335.87 257.59,339.13 248.87,341.32 242.91,342.03 236.92,342.04 233.93,341.74 228.07,340.47 222.5,338.27 214.94,333.41 210.5,329.38 206.86,324.63 204.07,319.32 202.99,316.52 201.45,310.73 200.64,304.79 200.59,295.79 201.62,286.86 204.21,275.15 209.69,258.01 226.94,213.21 234.78,190.53 238.26,179.05 242.16,164.57 247.96,138.2 250.55,123.42 252.74,108.59 256.4,75.79 259.02,39.89 260.77,0.93"   /><polyline id="SvgjsPolyline6211" points="0.39,142.45 5.28,112.85 8.78,83.06 11.61,47.17 13.73,2.22"   /><polyline id="SvgjsPolyline6212" points="598.2,385.33 589.21,384.95 583.27,384.17 574.49,382.18 568.79,380.32 560.53,376.75 555.27,373.87 547.81,368.84 540.94,363.04 536.73,358.76 531.03,351.81 527.67,346.84 523.34,338.95 519.92,330.63 518.16,324.9 516.8,319.05 515.51,310.15 515.03,301.17 515.28,292.17 516.54,280.24 518.63,268.42 523.55,248.01 536.81,201.88 542.96,178.68 548.87,152.34 553.13,128.72 556.85,101.98 559.88,72.14 562.33,36.22 563.88,0.26"   /><polyline id="SvgjsPolyline6213" points="285.72,303.42 286.23,300.67 287.98,298.24 303.83,280.22 313.11,268.43 319.96,258.58 327.81,245.8 334.9,232.59 342.46,216.26 349.03,199.5 354.67,182.41 359.47,165.06 363.49,147.52 367.33,126.87 370.38,106.1 373.07,82.25 375.08,58.34 376.73,31.39 377.99,1.41"   /><polyline id="SvgjsPolyline6214" points="294.86,300.01 291.94,300.68 284.03,304.97 278.51,307.32 275.63,308.17 269.72,309.19 266.73,309.32 263.77,308.9 261.02,307.72 258.88,305.65 257.66,302.93 257.31,299.96 257.59,296.97 259.25,291.22 263.14,283.11 267.76,275.39 280.91,255.31 288.8,242.55 296.1,229.45 301.45,218.71 306.33,207.75 311.78,193.77 315.65,182.41 319.9,168.03 324.22,150.56 327.78,132.92 330.7,115.15 333.06,97.31 335.25,76.43 337.14,52.5 338.53,28.54 339.65,1.57"   /><polyline id="SvgjsPolyline6215" points="297.11,299.08 287.61,306.41 282.62,309.74 277.41,312.72 269.16,316.28 263.35,317.77 260.37,318.13 257.37,318.16 251.43,317.39 248.55,316.57 245.85,315.26 243.47,313.44 241.52,311.17 240.07,308.55 239.11,305.71 238.45,299.77 239.03,293.8 240.43,287.97 244.68,276.76 249.94,265.97 269.62,228.87 274.77,218.03 280.66,204.24 284.91,193.02 288.75,181.65 292.19,170.15 295.24,158.55 299.17,140.98 301.89,126.23 304.61,108.44 306.8,90.58 308.82,69.67 310.37,48.73 312.67,0.79"   /><polyline id="SvgjsPolyline6216" points="302.64,298.3 296.12,304.51 289.25,310.31 281.97,315.61 276.88,318.79 268.87,322.87 263.27,325.02 257.47,326.55 251.52,327.29 245.54,327.01 239.77,325.42 237.09,324.07 234.65,322.33 232.5,320.25 230.69,317.86 228.16,312.43 227.42,309.53 226.37,300.6 226.7,294.62 227.72,288.71 231.14,277.21 236.87,263.35 253.66,228.15 263.13,206.1 267.35,194.87 272.09,180.64 276.24,166.23 279.15,154.59 282.89,136.98 285.49,122.21 287.68,107.37 289.84,89.5 291.58,71.58 293.17,50.64 295.53,2.7"   /><polyline id="SvgjsPolyline6217" points="0.15,37.52 1.74,1.56"   /><polyline id="SvgjsPolyline6218" points="598.09,373.33 589.13,372.48 583.25,371.28 577.5,369.57 571.93,367.36 566.57,364.66 561.49,361.48 556.71,357.86 552.27,353.82 548.22,349.4 544.58,344.64 539.94,336.93 537.43,331.48 535.38,325.84 533.8,320.06 532.26,311.19 531.76,305.22 531.69,296.22 532.34,287.25 533.57,278.33 535.91,266.56 540.42,249.14 554.32,203.2 559.98,182.98 566.26,156.72 570.78,133.15 575.11,103.47 577.95,76.62 580.38,43.71 582.31,1.75"   /><polyline id="SvgjsPolyline6219" points="293.42,300.03 282.44,304.84 279.58,305.75 276.63,306.27 273.7,305.68 272.72,302.91 273.29,299.98 275.98,294.63 281.06,287.21 295.81,268.28 302.86,258.57 309.47,248.55 317.04,235.61 323.85,222.24 329.91,208.52 335.25,194.51 339.93,180.26 344.73,162.91 348.74,145.36 352.05,127.67 355.16,106.9 357.59,86.05 359.71,62.14 361.6,32.2 362.88,2.23"   /><polyline id="SvgjsPolyline6220" points="297.41,298.79 285.16,307.42 277.38,311.93 269.05,315.32 263.2,316.59 260.2,316.77 257.21,316.55 254.31,315.81 251.65,314.44 249.44,312.42 247.85,309.89 246.9,307.05 246.51,304.07 246.96,298.1 248.48,292.31 250.65,286.71 253.22,281.29 257.52,273.39 277.22,239.73 288.05,218.32 294.04,204.57 299.35,190.54 303.99,176.28 308,161.82 311.43,147.22 314.36,132.51 317.27,114.75 319.98,93.93 322.08,73.03 323.7,52.09 325.23,25.14 326.2,1.16"   /><polyline id="SvgjsPolyline6221" points="598.49,361.34 592.56,360.46 586.75,358.97 581.13,356.88 575.78,354.17 568.4,349.04 564.01,344.95 560.1,340.4 555.23,332.85 552.68,327.42 550.67,321.77 549.21,315.95 548.25,310.03 547.76,304.05 547.69,298.05 547.99,292.06 549.03,283.13 550.64,274.27 552.68,265.51 557.63,248.2 569.72,211.12 575.88,191.05 582.07,167.86 587.2,144.42 591.73,117.8 595.43,88.04 598.03,58.15 599.96,25.21"   /><polyline id="SvgjsPolyline6222" points="597.17,369.38 591.24,368.45 585.43,366.98 579.78,364.95 574.36,362.39 569.22,359.29 564.42,355.7 557.96,349.44 554.22,344.76 550.95,339.73 548.19,334.4 545.95,328.84 544.22,323.1 542.99,317.23 542.21,311.28 541.87,305.29 542.06,296.29 542.97,287.34 544.45,278.47 546.38,269.67 551.13,252.31 564.74,209.42 571.46,186.39 577.25,163.1 582.51,136.62 586.91,106.94 590.05,77.11 592.41,44.2 594.3,2.24"   /><polyline id="SvgjsPolyline6223" points="599.67,349.4 593.87,347.88 591.05,346.83 588.32,345.6 583.14,342.58 580.73,340.8 576.31,336.74 572.52,332.1 569.39,326.99 565.98,318.67 564.03,309.89 563.36,300.92 563.51,294.93 564.47,285.98 566.11,277.13 569.08,265.51 573.59,251.2 591.41,200.23 595.84,185.9 599.84,171.44"   /><polyline id="SvgjsPolyline6224" points="598.92,357.58 590.23,355.27 582.09,351.45 574.81,346.19 568.65,339.64 563.81,332.07 560.37,323.77 558.27,315.02 557.56,309.07 557.33,303.07 557.53,297.08 558.5,288.13 560.11,279.28 562.22,270.53 566.46,256.14 581.99,210.73 588.26,190.69 593.75,170.42 599.61,144.06"   /><polyline id="SvgjsPolyline6225" points="599.78,337.12 597.07,335.85 592.04,332.59 587.68,328.47 584.15,323.64 581.48,318.27 579.66,312.56 578.62,306.65 578.25,300.67 578.46,294.67 579.62,285.75 580.84,279.88 583.17,271.19 588.98,254.16 599.92,226.22"   /><polyline id="SvgjsPolyline6226" points="598.52,344.62 593.08,342.11 588.1,338.77 585.84,336.81 581.82,332.36 578.56,327.33 576.09,321.87 574.37,316.12 573.36,310.21 572.98,301.23 573.36,295.24 574.68,286.34 578.3,271.79 584.04,254.73 599.93,212.63"   /><polyline id="SvgjsPolyline6227" points="599.45,323.16 595.85,318.37 593.36,312.92 591.93,307.11 591.4,301.13 591.6,295.14 592.95,286.25 595.19,277.53 599.08,266.18"   /></g></svg>