<?xml version="1.0" standalone="no"?>
<svg id="SvgjsSvg1001" width="600" height="600" xmlns="http://www.w3.org/2000/svg" version="1.1" xmlns:xlink="http://www.w3.org/1999/xlink" xmlns:svgjs="http://svgjs.com/svgjs" class="svg-paper" viewBox="0 0 600 600"><title id="SvgjsTitle4348">x=cos(x)*y|y=max(x,sqrt(x*x + y*y))|dTest=0.0|sd=0.2|sm=0.2|ts=0.05 | generated with FlowLines</title><style>*{fill:none;stroke:#777}</style><g id="SvgjsG4349"><polyline id="SvgjsPolyline4350" points="10,598.41 5.8,559.64 2.88,538.85 0,521.08"   /><polyline id="SvgjsPolyline4351" points="21.96,597.38 25.21,552.5 29.7,510.74 32.54,489.93 36.24,466.22 50.12,389.47 54.84,359.84 56.71,344.96 58.12,330.03 59.01,315.05 59.31,300.06 59.01,285.06 58.13,270.09 56.72,255.16 54.86,240.27 50.14,210.65 36.26,133.89 32.99,113.15 29.72,89.37 25.22,47.62 21.96,2.74"   /><polyline id="SvgjsPolyline4352" points="15.83,597.06 14.91,555.07 13.12,501.1 6.62,360.25 5.73,327.26 5.49,297.26 5.72,273.26 6.6,240.28 13.1,99.43 14.8,48.46 15.85,0.47"   /><polyline id="SvgjsPolyline4353" points="33.94,598.06 38.62,577.59 45.19,554.51 52.07,534.68 59.98,515.22 67.5,498.87 75.59,482.79 84.1,466.93 107.44,424.99 117.19,406.39 124.9,390.13 131.77,373.49 135.76,362.18 138.38,353.57 142.57,336.07 144.08,327.2 145.18,318.26 145.85,309.29 146.09,300.29 145.88,291.3 145.24,282.32 144.16,273.39 142.68,264.51 138.54,247 135.94,238.38 131.98,227.05 125.14,210.41 116.1,191.46 106.29,172.89 75.86,117.73 66.46,98.95 59.02,82.56 51.23,63.06 44.47,43.18 38.76,22.98 34.06,2.51"   /><polyline id="SvgjsPolyline4354" points="27.37,597.78 30.83,574.03 35.23,550.44 41.35,524.14 46.96,503.91 53.33,483.9 60.37,464.11 89.87,388.68 95.71,371.65 99.96,357.27 103.47,342.69 106.08,327.92 107.43,316 108.09,301.02 107.58,286.03 105.95,271.12 103.27,256.37 99.71,241.8 95.41,227.43 89.54,210.41 61.08,137.79 53.02,115.19 47.55,98.04 40.38,72.01 35.12,48.6 30.85,24.98 27.47,1.22"   /><polyline id="SvgjsPolyline4355" points="18.85,599.14 19.9,557.15 21.59,512.18 23.91,467.24 30.21,362.43 31.37,332.46 31.83,302.46 31.5,272.46 30.7,248.48 29.03,215.52 24.55,143.66 22.12,98.73 20.2,50.76 18.95,2.78"   /><polyline id="SvgjsPolyline4356" points="24.36,597.91 26.8,574.04 29.48,553.21 32.74,532.46 36.6,511.82 41.09,491.31 46.92,468.03 53.33,444.9 69.29,390.18 75.97,364.02 79.56,346.39 81.82,331.56 83.27,316.63 83.84,301.64 83.48,286.65 82.53,274.69 80.6,259.82 77.93,245.06 71.72,218.78 49.36,140.93 44.78,123.53 39.93,103.09 35.11,79.59 31.08,55.93 27.45,29.17 24.65,2.32"   /><polyline id="SvgjsPolyline4357" points="20.25,599.92 22.24,557.96 25.44,513.08 29.54,471.28 39.61,387.89 42.12,364.02 44.64,331.12 45.48,301.13 44.9,274.14 42.88,244.21 39.47,211.39 30.11,133.95 26.75,101.13 23.21,56.27 20.44,2.34"   /><polyline id="SvgjsPolyline4358" points="22.99,599.31 24.96,575.39 27.84,548.55 31.06,524.77 34.96,501.09 38.32,483.4 42.68,462.86 60.66,386.96 64.34,369.34 66.97,354.58 69.07,339.72 70.28,327.79 71.14,315.82 71.56,300.82 71.35,288.83 70.4,273.86 69.14,261.93 67,247.08 61.3,217.63 44.14,144.62 39.72,124.09 35.21,100.52 31.35,76.83 28.14,53.05 25.26,26.2 23.27,2.29"   /><polyline id="SvgjsPolyline4359" points="11.55,599.96 9.64,576.04 6.91,549.18 3.93,525.37 0.46,501.62"   /><polyline id="SvgjsPolyline4360" points="12.22,599.97 10.29,573.04 7.81,546.16 4.35,516.36 0.2,486.65"   /><polyline id="SvgjsPolyline4361" points="17.4,599.86 18.51,314.86 17.41,2.86"   /><polyline id="SvgjsPolyline4362" points="0.09,122.87 4.46,90.16 7.48,63.33 10.19,33.45 12.44,0.53"   /><polyline id="SvgjsPolyline4363" points="46.29,597.61 51.62,583.59 58.88,567.12 65.62,553.72 72.91,540.61 87.16,517.68 121.11,468.21 132.6,450.64 144.78,429.96 150.33,419.32 155.45,408.47 160.1,397.41 165.19,383.3 169.46,368.92 172.27,357.26 175.03,342.52 176.95,327.64 177.9,315.68 178.34,300.69 177.97,285.69 176.78,270.74 175.24,258.84 172.56,244.09 169.04,229.51 165.62,218.01 160.6,203.87 156.01,192.79 150.94,181.91 145.43,171.25 133.33,150.53 120.2,130.44 87.92,83.47 79.81,70.84 72.09,57.98 63.48,42.18 56.93,28.69 51.01,14.91 45.75,0.86"   /><polyline id="SvgjsPolyline4364" points="39.15,597.54 44.38,580.32 50.51,563.4 57.51,546.82 65.35,530.62 73.87,514.76 82.9,499.19 116.47,445.88 127.26,427.87 137.27,409.41 146.15,390.39 150.59,379.24 154.51,367.9 157.87,356.38 160.63,344.7 162.77,332.9 163.95,323.98 164.94,312.02 165.28,300.03 164.95,288.03 163.95,276.07 162.3,264.19 160.64,255.34 157.88,243.67 154.53,232.15 150.61,220.81 146.17,209.66 138.64,193.31 127.29,172.17 114.91,151.61 84.48,103.42 75.36,87.9 66.8,72.06 58.95,55.87 50.81,36.51 44.78,19.56 39.6,2.32"   /><polyline id="SvgjsPolyline4365" points="30.14,597.89 34.53,574.3 40.06,550.95 46.83,527.92 53.77,508.11 61.58,488.61 68.85,472.15 103.72,399.04 110.75,382.47 116.98,365.59 122.12,348.34 125.36,333.7 126.79,324.81 127.8,315.87 128.5,300.89 127.95,285.91 127.03,276.95 125.68,268.06 121.81,250.48 117.54,236.11 111.4,219.19 104.44,202.59 96.92,186.24 69.64,129.45 61.23,110.21 54.6,93.47 46.75,70.8 40.88,50.64 34.69,24.36 30.37,0.75"   /><polyline id="SvgjsPolyline4366" points="25.66,599.47 28.55,575.64 32.76,548.98 37.45,525.44 43.09,502.11 48.78,481.9 55.08,461.87 80.43,388.11 85.59,370.86 89.29,356.33 92.28,341.63 94.05,329.76 95.44,314.83 95.96,299.84 95.42,284.85 94.24,272.91 92.46,261.05 89.47,246.35 84.97,228.92 80.65,214.56 55.53,140.72 49.29,120.67 42.89,97.54 37.39,74.18 32.81,50.62 28.69,23.94 25.84,0.11"   /><polyline id="SvgjsPolyline4367" points="0.1,5.78 0.68,2.83"   /><polyline id="SvgjsPolyline4368" points="58.58,598.89 64.11,588.24 70.05,577.82 82.95,557.59 95.09,540.45 129.19,494.78 142.75,474.98 149.09,464.79 155.04,454.37 160.56,443.72 165.61,432.83 171.2,418.92 176,404.71 180.02,390.26 183.87,372.68 186.74,354.91 188.74,337.02 189.93,319.06 190.35,298.07 189.89,280.08 188.66,262.12 186.63,244.24 183.7,226.48 179.81,208.91 175.75,194.47 170.9,180.27 165.26,166.38 160.18,155.51 154.63,144.87 148.64,134.47 142.28,124.3 128.69,104.52 96.36,61.27 82.47,41.7 74.28,29.13 68.09,18.85 58.2,0.33"   /><polyline id="SvgjsPolyline4369" points="71.94,599.07 80.19,586.55 88.9,574.34 99.78,560 127.57,524.61 143.45,502.77 151.63,490.2 159.19,477.25 166.03,463.9 170.93,452.95 176.31,438.95 181.72,421.78 186.05,404.31 189.42,386.64 192.33,365.84 194.3,344.93 195.48,323.97 195.93,299.97 195.58,278.98 194.3,255.01 192.33,234.11 189.41,213.31 186.04,195.63 181.7,178.17 176.3,161 170.91,147.01 164.7,133.35 159.17,122.71 151.6,109.75 143.42,97.19 127.54,75.35 90.65,28.03 80.16,13.41 71.91,0.88"   /><polyline id="SvgjsPolyline4370" points="86.82,598.16 99.68,581.56 131.68,541.86 140.7,529.87 147.6,520.05 157.26,504.87 164.54,491.75 171.03,478.23 176.69,464.34 182.38,447.27 186.97,429.87 190.58,412.24 193.37,394.46 195.76,373.59 197.6,349.67 198.65,325.69 199.01,301.69 198.66,274.7 197.62,250.72 195.8,226.79 193.42,205.93 190.11,185.19 186.36,167.59 181.63,150.22 176.82,136.02 171.19,122.12 164.72,108.59 157.45,95.47 149.48,82.76 140.92,70.44 131.92,58.45 99.92,18.74 87.05,2.15"   /><polyline id="SvgjsPolyline4371" points="101.76,598.33 134.15,558.94 144.96,544.55 153.42,532.16 161.22,519.36 169.57,503.41 175.61,489.68 180.78,475.61 185.14,461.26 189.39,443.77 192.71,426.08 195.64,405.29 198,381.4 199.56,357.46 200.58,330.48 200.96,300.48 200.6,270.48 199.61,243.5 198.07,219.55 196.09,198.64 192.87,174.86 189.59,157.17 185.39,139.67 181.09,125.3 174.84,108.42 168.69,94.74 161.7,81.48 153.94,68.64 145.52,56.23 134.74,41.81 100.46,0.09"   /><polyline id="SvgjsPolyline4372" points="116.72,599.08 130.19,582.97 141.34,568.83 151.83,554.21 159.89,541.57 167.2,528.47 173.67,514.94 179.27,501.02 184.85,483.92 188.65,469.41 192.3,451.78 195.13,434.01 197.6,413.15 199.39,392.23 200.93,365.28 201.9,335.29 202.27,305.3 202.05,272.3 201.35,245.31 200.08,218.34 198.32,194.4 195.74,170.54 193.09,152.74 189.01,132.14 185.29,117.61 180.81,103.3 174.31,86.52 167.93,72.95 160.71,59.8 152.72,47.11 144.09,34.84 133.08,20.6 117.75,2.14"   /><polyline id="SvgjsPolyline4373" points="131.72,599.92 142.9,585.82 151.71,573.68 159.88,561.1 168.67,545.4 175.05,531.83 180.55,517.87 185.17,503.61 189.01,489.11 192.69,471.49 195.55,453.72 197.74,435.85 199.64,414.94 201.16,390.99 202.27,364.01 202.97,334.02 203.22,304.02 203.04,271.02 202.51,244.03 201.55,217.05 200.01,190.09 198.25,169.17 195.83,148.31 193.06,130.52 189.47,112.89 184.9,95.48 180.22,81.23 174.68,67.3 168.24,53.75 160.94,40.65 152.86,28.01 144.14,15.81 133.02,1.66"   /><polyline id="SvgjsPolyline4374" points="148.69,597.97 157.18,585.61 164.95,572.78 171.88,559.48 176.78,548.53 181.1,537.34 185.72,523.07 190.21,505.64 193.19,490.94 196.02,473.16 198.18,455.29 199.83,437.37 201.42,413.42 202.5,389.45 203.35,359.46 203.94,299.47 203.19,233.47 202.46,209.48 201.19,182.51 199.74,161.56 198.07,143.64 195.87,125.78 193,108.01 189.97,93.32 186.25,78.79 181.74,64.48 176.37,50.48 170.09,36.87 164.42,26.29 156.6,13.49 148.06,1.16"   /><polyline id="SvgjsPolyline4375" points="162.01,599.93 167.96,589.51 173.34,578.79 179.24,565 183.3,553.71 186.81,542.24 190.49,527.7 193.48,513 195.89,498.19 197.82,483.32 199.62,465.41 201.18,444.47 202.3,423.5 203.86,372.52 204.49,303.53 204.08,240.53 203.48,210.53 202.48,180.55 201.24,156.58 199.96,138.63 198.27,120.71 196.04,102.85 193.67,88.04 190.72,73.33 187.1,58.78 183.63,47.29 179.62,35.98 173.78,22.17 168.45,11.42 162.56,0.97"   /><polyline id="SvgjsPolyline4376" points="177.02,597.95 181.43,586.79 185.25,575.42 188.53,563.88 191.32,552.21 193.68,540.44 196.1,525.64 199.57,495.85 202.24,456.94 203.76,414.97 204.72,354.98 204.94,291.98 204.59,231.98 203.57,177.99 201.87,136.02 199.19,100.13 197.55,85.22 195.5,70.36 192.93,55.58 190.44,43.84 187.48,32.21 184.02,20.72 181.07,12.22 176.61,1.08"   /><polyline id="SvgjsPolyline4377" points="189.28,599.74 193.76,579.23 197.44,555.51 200.25,528.66 202.09,501.72 203.69,462.76 204.55,423.77 205.17,360.77 205.32,303.77 205.16,237.77 204.62,180.77 203.82,141.78 202.33,102.81 200.37,72.88 197.63,46.02 194.04,22.29 189.66,1.76"   /><polyline id="SvgjsPolyline4378" points="201.67,599.66 203.54,560.71 204.79,506.73 205.43,431.73 205.65,311.73 205.44,170.73 204.87,98.73 203.72,44.74 201.82,2.79"   /><polyline id="SvgjsPolyline4379" points="213.83,597.41 211.55,576.53 209.92,555.6 208.36,525.64 207.48,498.65 206.34,423.66 205.96,294.66 206.38,171.66 207.61,96.68 208.69,66.7 210.03,42.73 211.7,21.8 214.05,0.93"   /><polyline id="SvgjsPolyline4380" points="226.62,598.74 220.93,578.53 218.35,566.81 216.21,555 212.63,528.25 210.3,501.35 208.53,468.4 207.35,429.42 206.55,372.42 206.28,303.42 206.52,231.42 207.21,177.43 208.38,135.44 210.24,99.49 213.2,66.63 216.57,42.87 220.73,22.29 223.76,10.68 226.4,2.07"   /><polyline id="SvgjsPolyline4381" points="239.34,597.66 234.17,586.83 229.63,575.73 225.72,564.38 222.41,552.85 218.99,538.24 216.77,526.45 214.51,511.62 212.72,496.73 211.32,481.8 209.84,460.85 207.94,415.89 206.9,358.9 206.63,286.9 207.11,223.91 208.29,172.92 210.36,130.97 213.29,98.11 215.23,83.23 217.68,68.44 220.76,53.76 223.77,42.14 227.34,30.68 231.51,19.44 236.34,8.45 240.4,0.42"   /><polyline id="SvgjsPolyline4382" points="255,599.59 246.74,587.07 240.73,576.69 235.38,565.95 230.69,554.91 226.65,543.61 222.44,529.21 219.06,514.6 216.35,499.85 214.21,485 212.23,467.11 210.54,446.18 209.33,425.22 208.28,398.24 207.56,368.25 207,305.25 207.59,230.25 209.12,179.28 210.44,155.31 211.82,137.37 213.66,119.46 216.12,101.63 218.76,86.87 222.07,72.24 226.19,57.82 230.15,46.49 234.76,35.41 240.03,24.63 247.54,11.66 254.24,1.7"   /><polyline id="SvgjsPolyline4383" points="270.49,599.46 259.11,585.52 252.05,575.82 244.02,563.15 236.98,549.91 230.99,536.16 226.93,524.87 222.7,510.49 219.29,495.88 216.11,478.17 213.7,460.33 211.89,442.42 210.17,418.48 209.01,394.51 208.04,361.53 207.43,295.53 208.17,232.53 209.13,202.55 210.54,175.59 212.15,154.65 214.42,133.77 217.06,115.97 219.9,101.24 223.46,86.67 227.87,72.34 232.08,61.1 238.28,47.45 243.99,36.9 252.02,24.23 260.92,12.16 270.53,0.64"   /><polyline id="SvgjsPolyline4384" points="285.7,598.09 271.42,582.69 261.77,571.21 252.8,559.19 244.7,546.57 238.93,536.05 232.66,522.43 227.42,508.38 223.13,494.01 219.07,476.47 216.44,461.7 213.66,440.89 211.92,422.98 210.45,402.03 209.18,375.06 208.36,345.07 207.95,306.07 208.09,273.07 208.79,237.08 209.95,207.1 211.22,186.14 213.01,165.22 215.53,144.37 218.47,126.62 222.34,109.04 226.44,94.61 231.48,80.49 237.53,66.77 244.63,53.56 252.72,40.93 261.68,28.9 273.32,15.18 285.63,2.05"   /><polyline id="SvgjsPolyline4385" points="302.78,598.23 283.8,579.03 271.57,565.82 260.06,551.99 251.25,539.85 243.34,527.11 236.44,513.79 230.6,499.98 225.76,485.79 221.15,468.39 217.62,450.74 214.58,429.97 212.42,409.08 210.72,385.14 209.51,358.17 208.79,328.18 208.59,295.18 208.96,262.18 210,229.2 211.32,205.24 213.32,181.32 215.85,160.47 218.81,142.72 222.71,125.15 226.85,110.74 231.92,96.62 238.02,82.92 245.17,69.74 253.31,57.15 262.31,45.15 274,31.46 286.33,18.36 303.24,1.32"   /><polyline id="SvgjsPolyline4386" points="319.64,598.35 279.7,557.69 267.67,544.3 258.27,532.61 249.65,520.34 241.95,507.47 235.28,494.04 229.67,480.13 225.05,465.86 220.67,448.41 216.87,427.76 214.16,406.94 212.02,383.03 210.51,356.08 209.63,326.09 209.4,296.09 209.79,266.09 210.87,236.11 212.38,212.16 214.7,188.28 217.15,170.44 221.06,149.82 225.56,132.39 230.3,118.16 236.03,104.3 242.83,90.94 250.65,78.14 259.38,65.94 268.86,54.32 278.89,43.17 320.85,0.29"   /><polyline id="SvgjsPolyline4387" points="336.24,599.16 318.2,579.07 278.31,538.36 270.27,529.46 262.57,520.26 253.57,508.26 245.45,495.65 239.67,485.14 233.39,471.52 228.16,457.46 223.16,440.18 219.33,422.59 216.05,401.85 213.75,380.98 212,357.04 210.97,333.07 210.48,300.07 210.88,270.07 211.83,246.09 213.73,219.16 216.03,198.29 219.3,177.55 223.12,159.96 228.12,142.67 233.34,128.61 238.26,117.67 245.38,104.47 253.49,91.86 262.48,79.85 270.17,70.65 278.21,61.74 318.1,21.03 328.27,10 336.06,0.87"   /><polyline id="SvgjsPolyline4388" points="350.72,598.92 338.29,582 326.64,568.28 314.33,555.15 280.65,520.95 272.53,512.11 264.73,503 255.58,491.11 248.86,481.17 242.76,470.84 237.33,460.14 231.51,446.32 225.88,429.23 221.55,411.76 218.3,394.06 215.58,373.24 213.56,349.33 212.43,325.36 212.05,298.36 212.54,271.37 213.99,244.41 215.94,223.5 218.82,202.7 222.26,185.03 226.8,167.62 231.61,153.41 237.45,139.6 242.9,128.91 249.01,118.59 255.75,108.66 264.91,96.79 270.73,89.92 280.84,78.84 314.53,44.65 326.83,31.51 340.31,15.42 350.77,0.77"   /><polyline id="SvgjsPolyline4389" points="363.52,597.68 357.92,587.07 353.36,579.31 346.75,569.3 339.6,559.66 332.01,550.37 322.01,539.18 282.13,498.46 266.12,480.59 258.68,471.18 251.75,461.38 245.42,451.19 239.76,440.61 233.67,426.91 228.66,412.77 224.63,398.33 220.92,380.72 217.86,359.94 216.13,342.03 214.94,321.06 214.56,300.07 214.94,279.07 216.35,255.12 218.21,237.21 220.89,219.42 224.59,201.8 228.62,187.36 233.62,173.22 239.7,159.51 245.35,148.93 251.67,138.73 258.6,128.93 267.96,117.22 284.11,99.47 321.92,60.92 331.92,49.74 339.52,40.45 346.67,30.82 353.28,20.81 357.85,13.05 363.38,2.4"   /><polyline id="SvgjsPolyline4390" points="376.15,598.21 370.43,581.15 367.1,572.79 363.4,564.59 359.33,556.56 354.9,548.73 345.03,533.68 335.9,521.78 324.11,508.18 311.72,495.13 284.28,467.41 270.1,451.93 262.47,442.67 255.33,433.02 248.78,422.97 244.31,415.16 238.98,404.42 233.35,390.51 228.85,376.21 225.99,364.56 223.25,349.81 221.32,334.94 220.12,319.99 219.55,302 219.91,284 220.93,269.04 222.66,254.14 225.18,239.36 228.59,224.75 232.05,213.26 236.21,202.01 242.45,188.37 248.27,177.88 253.08,170.28 260.04,160.5 267.51,151.12 275.4,142.08 283.59,133.31 311.02,105.58 323.44,92.55 335.27,78.99 344.45,67.13 354.39,52.13 358.86,44.32 362.96,36.31 370.08,19.78 375.8,2.72"   /><polyline id="SvgjsPolyline4391" points="388,597.88 386.31,582.97 383.72,565.16 380.96,550.42 378.28,538.72 374.25,524.28 370.4,512.91 365.96,501.77 360.88,490.89 355.18,480.34 348.86,470.14 341.98,460.31 334.61,450.84 324.83,439.47 316.66,430.68 289.25,402.93 276.91,389.84 267.23,378.38 258.46,366.22 253.78,358.53 249.64,350.54 247.21,345.06 244.09,336.62 241.63,327.96 239.84,319.14 238.73,310.21 238.3,301.23 238.55,292.23 239.47,283.28 241.08,274.43 243.35,265.72 245.24,260.03 248.62,251.69 252.6,243.62 257.13,235.85 265.72,223.55 277.27,209.76 287.54,198.83 319.1,166.75 327.19,157.88 334.95,148.74 342.3,139.25 349.16,129.4 355.45,119.19 361.13,108.62 366.17,97.73 370.59,86.58 374.41,75.2 377.68,63.66 381.07,49.05 383.8,34.3 385.99,19.46 388.04,1.58"   /><polyline id="SvgjsPolyline4392" points="383.1,599.82 380.68,588.07 377.78,576.42 374.33,564.93 370.28,553.64 365.62,542.58 360.44,531.76 356.13,523.86 349.83,513.64 339.35,499.02 325.84,482.95 313.52,469.83 284,439.95 269.87,424.42 262.31,415.1 256.98,407.85 250.43,397.8 245.98,389.97 240.74,379.18 237.34,370.85 233.52,359.48 230.48,347.87 228.18,336.1 226.58,324.2 225.63,312.24 225.31,300.25 225.6,288.25 226.53,276.29 228.1,264.4 230.37,252.62 233.37,241 237.16,229.62 240.54,221.27 245.75,210.47 250.17,202.63 256.7,192.56 262.01,185.3 269.55,175.96 283.65,160.41 313.17,130.53 325.5,117.42 339.04,101.37 349.56,86.77 355.88,76.57 360.21,68.68 365.42,57.88 369.99,46.78 373.94,35.45 377.32,23.94 380.18,12.29 382.58,0.53"   /><polyline id="SvgjsPolyline4393" points="399.67,599.67 402.52,572.83 405.64,552.06 410.49,528.56 416.05,508.31 422.94,488.48 431.1,469.13 440.23,450.23 458.29,415.66 466.34,399.56 472.56,385.91 478.13,371.99 483.73,354.89 487.94,337.39 489.47,328.52 490.59,319.59 491.29,310.62 491.58,301.63 491.45,292.63 490.89,283.65 489.92,274.7 488.54,265.81 484.6,248.25 479.24,231.07 473.82,217.08 466.45,200.67 459.78,187.23 438.99,147.32 431.2,131.1 423.03,111.75 418.92,100.48 415.24,89.06 409.85,68.76 405.69,48.19 402.55,27.42 399.7,0.58"   /><polyline id="SvgjsPolyline4394" points="393.83,599 393.33,551.01 392.49,509.02 391.36,476.04 390.15,452.07 388.51,428.12 386.37,404.22 377.25,326.76 376.2,311.8 375.93,299.8 376.22,287.8 377.28,272.84 386.41,195.38 388.54,171.48 390.17,147.53 391.62,117.57 392.65,84.58 393.82,0.59"   /><polyline id="SvgjsPolyline4395" points="391.14,598.01 389.84,577.05 388.02,556.13 385.47,535.29 382.53,517.53 378.72,499.94 374.01,482.57 369.19,468.37 363.45,454.51 358.19,443.73 350.76,430.71 344.17,420.68 335.22,408.64 327.57,399.4 319.56,390.46 281.95,351.73 276.08,344.9 270.65,337.73 267.38,332.7 264.46,327.46 260.91,319.19 258.57,310.51 257.6,301.57 258.07,292.6 259.95,283.8 263.1,275.38 265.8,270.02 268.89,264.89 274.12,257.56 281.85,248.39 290.07,239.65 317.41,211.84 327.47,200.71 335.13,191.47 344.09,179.45 352.24,166.86 358.12,156.4 364.62,142.88 370.17,128.95 374.83,114.7 378.69,100.2 382.39,82.59 385.25,64.82 387.45,46.95 389.36,26.04 390.9,2.09"   /><polyline id="SvgjsPolyline4396" points="386.06,597.6 383.76,582.78 381.49,571 378,556.41 374.62,544.9 370.65,533.58 366.03,522.5 360.75,511.73 354.82,501.3 349.97,493.72 343.04,483.93 335.7,474.43 329.92,467.54 315.73,452.05 282.07,417.84 268.13,402.14 262.55,395.08 257.3,387.77 252.44,380.2 248.01,372.36 244.07,364.27 240.64,355.95 237.73,347.44 235.34,338.76 233.47,329.96 232.1,321.07 231.21,312.11 230.78,300.12 231.01,291.13 231.72,282.15 233.42,270.28 235.28,261.47 237.66,252.79 240.55,244.27 243.97,235.95 247.9,227.86 252.31,220.01 257.16,212.43 262.4,205.12 267.97,198.05 281.9,182.34 313.48,150.28 327.78,134.91 341.1,118.67 348.08,108.91 352.95,101.35 358.92,90.94 364.26,80.19 368.95,69.15 373.03,57.87 376.52,46.39 380.16,31.84 383.09,17.13 385.44,2.31"   /><polyline id="SvgjsPolyline4397" points="390.13,599.15 388.41,578.22 386.39,560.33 383.72,542.53 380.85,527.81 378.06,516.14 373.83,501.75 368.7,487.66 363.88,476.67 356.96,463.37 350.72,453.12 342.15,440.82 334.83,431.31 327.09,422.14 319.02,413.26 289.57,383.31 279.27,372.41 269.58,360.96 262.57,351.23 257.93,343.52 255.19,338.18 250.73,327.05 249.05,321.29 247.28,312.47 246.62,306.51 246.37,300.52 246.79,291.53 247.59,285.58 248.8,279.71 250.41,273.93 253.53,265.49 256.06,260.05 258.89,254.76 263.66,247.13 270.8,237.49 278.58,228.36 288.85,217.43 318.31,187.49 326.41,178.63 334.18,169.49 343.3,157.59 350.03,147.66 356.2,137.36 361.75,126.73 367.82,113.01 371.98,101.76 376.39,87.42 380,72.87 382.93,58.16 385.69,40.37 387.8,22.5 389.62,1.58"   /><polyline id="SvgjsPolyline4398" points="411.89,597.76 417.17,580.55 422.46,566.52 428.58,552.83 435.48,539.51 443.04,526.56 451.12,513.92 481.89,469.54 493.32,451.93 499.44,441.61 505.17,431.07 510.46,420.3 514.1,412.07 519.53,398.09 523.27,386.69 527.21,372.21 530.34,357.55 532.29,345.71 534.06,330.81 535.12,315.85 535.5,300.86 535.2,285.86 534.21,270.9 532.53,255.99 530.1,241.19 526.9,226.54 523.76,214.96 519.09,200.7 514.76,189.51 511.17,181.26 505.96,170.46 500.28,159.88 494.21,149.53 482.85,131.88 450.42,85 442.37,72.35 434.86,59.36 426.75,43.3 420.86,29.5 415.81,15.38 411.56,1"   /><polyline id="SvgjsPolyline4399" points="404.89,597.66 409.1,577.09 414.69,556.85 421.77,537.08 428.91,520.56 435.65,507.16 444.49,491.49 474.83,443.24 485.51,425.15 495.17,406.51 498.91,398.33 503.45,387.22 507.46,375.91 510.9,364.42 513.75,352.76 515.51,343.94 516.94,335.05 518.34,323.13 519.16,311.16 519.4,299.17 519.08,287.17 518.46,278.19 517.12,266.27 515.21,254.42 512.71,242.69 509.63,231.09 505.97,219.67 502.85,211.22 498.24,200.15 494.45,191.98 484.69,173.39 475.53,157.9 453.02,122.44 443.64,107.08 436.27,94.01 428.21,77.93 420.09,58.56 414.35,41.5 409.02,21.2 404.98,0.59"   /><polyline id="SvgjsPolyline4400" points="396.57,597.36 398.24,564.4 400.73,534.5 403.68,510.69 408.21,484.07 412.8,463.58 419.28,440.48 425.86,420.54 441.93,375.31 445.59,363.88 448.86,352.33 452.23,337.72 454.23,325.89 455.52,313.96 456.05,298.97 455.59,286.99 454.36,275.05 452.41,263.21 449.1,248.59 445.86,237.03 441.28,222.75 426.17,180.36 419.56,160.43 413.78,140.24 408.39,116.86 404.28,93.22 400.95,66.42 398.47,36.53 396.65,0.58"   /><polyline id="SvgjsPolyline4401" points="401.56,598.88 405.02,575.14 407.27,563.35 409.93,551.65 415.67,531.45 422.89,511.74 430.22,495.3 438.41,479.28 450.22,458.38 468.41,427.32 478.45,408.87 487.45,389.9 494.02,373.15 497.71,361.73 500.08,353.05 503.75,335.43 505.95,317.57 506.67,299.59 505.89,281.62 504.54,269.69 503.09,260.81 499.12,243.26 493.75,226.08 487.12,209.35 478.08,190.4 469.49,174.58 446.81,135.72 439.52,122.61 431.34,106.58 424.02,90.14 419.7,78.94 415.85,67.58 410.24,47.35 405.41,23.84 401.95,0.09"   /><polyline id="SvgjsPolyline4402" points="397.68,599.65 399.87,569.74 402.93,542.91 405.22,528.09 407.43,516.29 412.2,495.85 417.27,478.58 424.29,458.79 434.7,433.88 454.31,390.07 459.94,376.16 464.95,362.03 469.88,344.72 472.88,330.03 474.74,315.15 475.38,300.17 474.77,285.18 472.93,270.3 469.96,255.6 465.05,238.29 460.05,224.14 454.44,210.24 434.83,166.43 426.69,147.07 418.52,124.51 412.61,104.36 407.31,80.95 403.39,57.28 400.29,30.46 398.02,0.55"   /><polyline id="SvgjsPolyline4403" points="392.61,598.75 391.56,568.77 390.06,541.81 388.07,517.89 385.61,497.04 382.81,479.26 379.2,461.63 374.77,444.18 369.32,427.03 363.9,413.05 357.66,399.41 350.59,386.18 342.75,373.4 332.41,358.67 321.18,344.6 311.21,333.39 294.46,316.21 290.53,311.68 287.39,306.58 286.38,303.76 285.92,300.8 286.06,297.81 286.79,294.9 288.01,292.17 291.4,287.23 310.12,267.78 320.14,256.62 331.44,242.61 341.87,227.94 349.79,215.21 356.94,202.03 363.27,188.43 368.78,174.48 373.48,160.24 378.14,142.85 381.85,125.24 385.18,104.51 387.66,83.66 389.49,62.74 391.13,35.79 392.4,2.81"   /><polyline id="SvgjsPolyline4404" points="395.07,598.14 395.74,562.15 397.06,523.17 398.75,493.22 400.72,469.3 403.72,442.47 406.65,421.67 409.57,403.91 418.09,356.67 420.77,338.88 422.87,317.99 423.47,300 422.87,282.01 420.77,261.12 418.09,243.32 409.57,196.09 406.65,178.32 403.35,154.55 400.77,130.69 398.65,103.78 397.18,76.82 396.09,46.84 395.16,1.85"   /><polyline id="SvgjsPolyline4405" points="393.3,599 392.15,551.01 390.11,509.06 388.48,488.13 386.62,470.22 384.67,455.35 382.28,440.54 377.41,417.05 371.17,393.87 367.56,382.43 362.57,368.29 348.24,332.02 344.23,320.71 342.59,314.94 341.36,309.06 340.59,300.11 340.92,294.12 341.87,288.2 345.09,276.65 349.24,265.39 363.53,229.1 368.43,214.92 371.96,203.46 377.27,183.14 382.04,159.62 384.39,144.81 386.33,129.93 388.19,112.03 389.63,94.09 391.72,55.15 393.17,1.17"   /><polyline id="SvgjsPolyline4406" points="394.43,597.95 394.96,513.95 395.97,456.96 397.35,414.98 400.95,337.07 401.72,301.08 401.14,268.08 397.57,190.17 395.99,142.19 394.96,82.2 394.45,1.2"   /><polyline id="SvgjsPolyline4407" points="393.45,586.92 392.49,538.93 391.11,502.96 388.99,470.03 386.36,443.16 383.12,419.38 378.91,395.76 374.43,375.24 364.52,334.43 362.15,322.66 360.53,310.78 360.02,298.79 360.77,286.82 362.58,274.96 365.74,260.3 374.26,225.32 378.69,204.8 382.85,181.16 386.4,154.4 389.17,124.53 391.3,88.59 392.56,52.61 393.49,1.62"   /><polyline id="SvgjsPolyline4408" points="394.13,598.6 393.84,523.6 393.15,460.6 392.07,412.62 389.26,328.66 388.88,298.67 389.42,265.67 391.7,199.71 392.96,148.73 393.72,88.73 394.11,1.73"   /><polyline id="SvgjsPolyline4409" points="392.09,599.58 391.03,575.61 389.22,548.67 387.18,527.77 384.35,506.96 381.12,489.26 376.94,471.75 372.62,457.39 367.43,443.32 361.32,429.62 354.27,416.39 346.32,403.67 337.68,391.41 330.27,381.97 320.46,370.62 310.19,359.7 289.12,338.34 283.1,331.65 277.6,324.53 273.07,316.77 270.86,311.19 269.49,305.36 269.1,299.38 269.7,293.41 271.26,287.63 273.62,282.12 278.32,274.45 281.98,269.69 287.92,262.94 311.06,239.41 321.3,228.45 329.15,219.38 336.62,209.99 345.32,197.77 353.21,185.02 360.23,171.76 366.33,158.06 371.54,144 375.91,129.65 380.16,112.16 383.5,94.48 386.45,73.69 388.62,52.8 390.2,31.86 391.73,1.9"   /><polyline id="SvgjsPolyline4410" points="424.24,598.13 429.37,587.29 435.02,576.7 441.15,566.39 447.68,556.32 459.83,539.19 490.44,498.4 503.96,478.58 510.22,468.34 516.05,457.85 521.42,447.12 526.29,436.16 531.66,422.15 536.23,407.87 540.73,390.44 543.71,375.74 546.45,357.95 548.38,340.06 549.57,322.1 550.08,301.11 549.78,283.11 548.57,262.15 546.73,244.24 544.09,226.44 540.55,208.79 536.84,194.26 531.4,177.11 525.99,163.12 521.09,152.17 515.69,141.45 505.14,123.29 491.74,103.39 459.36,60.18 447.24,43.03 440.74,32.94 434.64,22.61 429.02,12.01 423.92,1.15"   /><polyline id="SvgjsPolyline4411" points="395.69,598.46 396.98,559.48 398.69,529.53 401.04,502.63 404.44,475.85 408.56,452.21 413.06,431.7 418.27,411.36 430.25,367.98 435.11,347.55 437.32,335.76 439,323.88 440.04,311.93 440.39,299.93 440.19,290.94 439.31,278.97 437.78,267.07 435.68,255.25 430.97,234.79 418.27,188.5 413.13,168.14 408.15,144.67 404.67,123.96 401.3,97.17 398.95,70.28 397.07,37.33 395.85,1.35"   /><polyline id="SvgjsPolyline4412" points="393,597.92 392.09,564.93 391.05,540.95 389.97,522.98 387.97,499.07 385.92,481.19 383.26,463.39 379.87,445.71 376.37,431.12 372.21,416.71 368.35,405.35 364.03,394.16 357.96,380.44 352.61,369.7 345.38,356.56 318.85,313.01 316.24,307.61 315.24,304.78 314.63,301.85 314.56,298.86 315.06,295.9 315.98,293.05 318.51,287.62 345.01,244.05 352.17,230.87 357.46,220.1 363.46,206.35 367.75,195.14 372.46,180.9 375.72,169.36 379.22,154.77 382.64,137.1 385.34,119.31 387.76,98.45 389.32,80.51 390.85,56.56 392.8,2.6"   /><polyline id="SvgjsPolyline4413" points="390.77,541.06 389.36,520.1 387.73,502.18 385.59,484.31 382.82,466.52 379.93,451.81 376.41,437.22 372.19,422.83 367.22,408.68 361.47,394.83 354.93,381.33 347.68,368.21 339.77,355.46 329.56,340.64 318.71,326.27 309.24,314.65 299.01,303.68 297.23,301.29 297.37,298.4 309.34,284.98 322.41,268.55 334.68,251.51 345.97,233.81 353.27,220.71 359.87,207.24 365.7,193.42 371.69,176.45 376.62,159.14 380.6,141.59 383.76,123.87 386.59,103.06 388.69,82.17 390.59,55.24 391.85,28.27 392.69,1.28"   /><polyline id="SvgjsPolyline4414" points="392.15,559.93 390.09,517.98 387.23,485.11 385.4,470.22 383.13,455.39 380.97,443.59 377.75,428.94 374.73,417.33 371.29,405.83 367.42,394.48 361.97,380.5 353.33,361.36 336.98,329.29 332.04,318.36 329.4,309.77 328.49,300.82 328.55,297.83 329.46,291.9 331.17,286.15 333.36,280.57 338.45,269.7 354.45,237.45 360.51,223.73 364.94,212.58 371.7,192.71 377.21,172.44 380.41,157.79 383.08,143.03 385.28,128.19 387.39,110.32 390.1,77.43 392.19,32.48"   /><polyline id="SvgjsPolyline4415" points="437.58,597.81 445.64,585.16 454.28,572.89 463.32,560.92 491.11,525.53 500.04,513.48 506.87,503.62 514.92,490.96 522.29,477.9 528.91,464.44 533.63,453.41 538.81,439.33 544.02,422.11 548.21,404.6 551.5,386.91 554.37,366.11 556.33,345.2 557.61,321.24 557.96,300.24 557.52,276.25 556.36,255.28 554.42,234.37 552.05,216.53 548.31,195.87 544.14,178.36 539.9,163.97 533.81,147.04 529.11,136 522.51,122.53 515.16,109.45 507.14,96.78 500.32,86.91 491.4,74.85 465.45,41.82 454.56,27.49 445.91,15.24 436.3,0.02"   /><polyline id="SvgjsPolyline4416" points="450.88,599.1 463.59,582.38 495.57,542.66 504.56,530.65 511.41,520.8 519.45,508.14 526.79,495.06 533.35,481.57 539.11,467.72 544.96,450.7 549.76,433.36 553.61,415.78 557.09,395.07 559.65,374.23 561.64,350.31 562.9,323.34 563.23,302.34 562.86,275.35 561.75,251.37 559.82,227.45 557.32,206.6 553.93,185.88 550.16,168.28 545.45,150.91 539.7,133.86 534.04,119.97 527.57,106.44 520.31,93.31 512.35,80.6 505.54,70.72 496.6,58.68 464.64,18.94 451.87,2.27"   /><polyline id="SvgjsPolyline4417" points="465.8,599.11 486.87,573.71 500.02,557.34 509,545.32 517.46,532.94 526.74,517.52 533.64,504.2 539.72,490.49 545,476.45 550.31,459.26 554.63,441.78 558.58,421.16 561.58,400.38 564.06,376.51 565.72,352.57 566.7,328.59 567.1,301.59 566.78,274.59 565.73,247.62 564.07,223.67 561.6,199.8 558.61,179.02 555.3,161.33 550.36,140.92 545.06,123.72 538.64,106.91 532.4,93.27 525.35,80.03 517.56,67.22 509.1,54.83 498.29,40.44 465.92,1.03"   /><polyline id="SvgjsPolyline4418" points="480.76,599.81 496.16,581.4 507.27,567.24 517.7,552.58 525.71,539.89 532.97,526.77 539.42,513.23 545.04,499.33 550.74,482.26 555.4,464.87 559.15,447.27 562.14,429.52 565.17,405.71 567.32,381.81 568.78,357.86 569.68,333.87 570.13,300.88 569.8,270.88 569,246.89 567.66,222.93 565.35,196.03 562.4,172.22 559.47,154.46 555.8,136.84 551.24,119.43 546.66,105.14 540.12,88.38 533.76,74.79 526.6,61.62 518.67,48.88 508.32,34.16 497.26,19.96 481.89,1.53"   /><polyline id="SvgjsPolyline4419" points="497.7,598.36 508.89,584.26 517.7,572.12 525.88,559.55 533.34,546.54 539.97,533.09 545.77,519.26 550.76,505.11 555.75,487.82 559.78,470.28 563.02,452.58 565.96,431.78 568.18,410.9 570.04,386.98 571.44,360.01 572.26,333.03 572.6,303.03 572.32,270.03 571.56,243.04 570.23,216.07 568.46,192.14 566.32,171.25 563.5,150.44 560.38,132.71 556.5,115.14 551.68,97.8 546.85,83.6 541.22,69.7 534.75,56.17 527.47,43.06 519.42,30.4 508.92,15.78 497.73,1.69"   /><polyline id="SvgjsPolyline4420" points="512.76,598.83 521.46,586.62 529.5,573.95 536.76,560.83 543.19,547.28 547.72,536.17 552.65,522.01 556.82,507.6 560.94,490.08 564.25,472.39 566.88,454.58 569.26,433.72 571.07,412.8 572.57,388.84 573.81,358.87 574.44,331.88 574.69,301.88 574.45,268.88 573.74,238.89 572.61,211.91 571.34,190.95 569.34,167.04 566.97,146.17 564.37,128.36 561.1,110.66 557.76,96.04 553.76,81.58 549.03,67.35 543.49,53.41 537.1,39.84 529.88,26.7 521.88,14.01 513.21,1.78"   /><polyline id="SvgjsPolyline4421" points="527.86,598.47 535.46,585.54 540.95,574.87 545.89,563.94 551.29,549.95 555.03,538.55 559.04,524.1 562.39,509.48 565.67,491.78 568.27,473.97 570.34,456.09 572.22,435.17 573.63,414.22 574.69,393.25 575.79,360.27 576.5,303.27 575.94,246.28 575.18,219.29 574,192.31 572.7,171.35 570.7,147.44 568.72,129.55 566.23,111.72 563.67,96.94 559.89,79.34 556.04,64.85 551.47,50.56 546.1,36.56 541.18,25.62 535.72,14.93 528.14,1.99"   /><polyline id="SvgjsPolyline4422" points="541.3,599.51 546.35,588.62 550.85,577.5 554.81,566.17 559.06,551.79 562.61,537.22 565.01,525.46 567.54,510.68 569.63,495.82 571.36,480.92 573.27,460.01 575.96,415.09 577.57,361.12 578.11,304.12 577.61,241.12 576.05,187.15 573.67,145.22 572.17,127.28 570.27,109.38 567.88,91.54 565.42,76.75 562.44,62.04 559.63,50.38 555.49,35.96 551.63,24.6 547.23,13.44 542.28,2.51"   /><polyline id="SvgjsPolyline4423" points="554.78,599.15 560.81,579.04 563.63,567.38 566.6,552.68 570.7,525.99 574.1,493.17 576.47,457.25 578.22,412.28 579.33,352.3 579.59,292.3 579.14,232.3 578.12,184.31 576.45,142.34 574.07,106.42 570.65,73.6 566.53,46.92 563.54,32.23 560.71,20.57 554.65,0.46"   /><polyline id="SvgjsPolyline4424" points="568.09,597.08 571.73,573.36 574.08,552.49 576.48,522.59 578.23,489.64 579.6,447.66 580.3,411.67 580.91,348.67 581.03,291.67 580.32,189.67 579.4,144.68 578.02,105.71 576.17,72.76 574.21,48.84 571.11,22.02 567.8,1.28"   /><polyline id="SvgjsPolyline4425" points="579.91,599.2 581.07,554.21 581.82,497.22 582.41,329.22 581.93,116.22 581.15,50.23 579.95,2.24"   /><polyline id="SvgjsPolyline4426" points="591.9,599.61 589.91,578.71 588.21,554.77 586.84,527.8 585.54,488.83 584.22,404.84 583.83,284.84 584.4,176.84 585.71,104.85 586.73,74.87 588.23,44.91 589.69,23.96 591.93,0.06"   /><polyline id="SvgjsPolyline4427" points="599.85,548.11 596.57,527.37 594.01,506.53 591.33,476.65 589.64,449.7 588.33,419.73 587.14,374.75 586.61,332.75 586.5,290.75 587.33,215.76 588.35,179.77 589.83,146.8 591.83,116.87 593.75,95.96 596.63,72.14 599.94,51.4"   /><polyline id="SvgjsPolyline4428" points="599.93,407.37 597.99,383.45 596.65,359.49 595.66,329.51 595.35,302.51 595.62,272.51 596.43,245.52 597.86,218.56 599.74,194.64"   /></g></svg>