<?xml version="1.0" standalone="no"?>
<svg id="SvgjsSvg1001" width="600" height="600" xmlns="http://www.w3.org/2000/svg" version="1.1" xmlns:xlink="http://www.w3.org/1999/xlink" xmlns:svgjs="http://svgjs.com/svgjs" class="svg-paper" viewBox="0 0 600 600"><title id="SvgjsTitle8944">x=sqrt(x*x + y*y)|y=pow(sqrt(x*x + y*y), sin(y))|dTest=0.0|sd=0.2|sm=0.2|ts=0.05 | generated with FlowLines</title><style>*{fill:none;stroke:#777}</style><g id="SvgjsG8945"><polyline id="SvgjsPolyline8946" points="0,521.08 19.63,513.62 42.47,506.25 65.58,499.77 94.69,492.51 132.73,483.94 244.23,460.2 337.85,438.96 376.07,431.18 396.76,427.57 420.49,424.02 447.29,420.71 471.16,418.3 498.07,416.07 531,413.89 599.92,410.66"   /><polyline id="SvgjsPolyline8947" points="1.94,533.58 20.71,524.17 31.73,519.4 42.9,515.03 68.45,506.31 97.26,497.96 123.41,491.23 152.6,484.29 249.18,462.57 328.12,444.42 360.4,437.54 386.94,432.57 410.63,428.76 437.39,425.18 461.25,422.55 494.12,419.64 524.05,417.55 562.99,415.41 598.95,413.87"   /><polyline id="SvgjsPolyline8948" points="1.18,507.67 33.07,499.2 71.1,490.57 103.43,483.94 221.19,460.85 268.12,450.77 350.04,432.22 370.62,428.04 391.28,424.28 429.86,418.57 453.7,415.82 477.59,413.54 531.46,409.73 597.38,406.67"   /><polyline id="SvgjsPolyline8949" points="0.41,549.22 10.27,542.37 20.42,535.97 30.89,530.12 41.63,524.76 52.58,519.86 66.5,514.28 80.62,509.2 97.73,503.64 126.56,495.32 164.33,485.63 298.67,454.06 336.7,445.4 366.07,439.3 395.59,433.98 422.29,429.97 452.07,426.33 484.92,423.17 520.82,420.5 553.76,418.58 598.72,416.55"   /><polyline id="SvgjsPolyline8950" points="0.77,495.3 50.87,485.75 160.26,466.92 213.37,457.19 260.39,447.53 359.86,424.96 383.41,420.34 407.08,416.36 445.74,411.26 490.54,407.07 535.45,404.12 598.38,401.28"   /><polyline id="SvgjsPolyline8951" points="0.85,564.73 16.9,551.19 26.56,544.07 34.05,539.09 41.74,534.41 52.25,528.63 63.02,523.34 73.99,518.47 85.12,513.98 99.2,508.82 127.75,499.62 162.42,489.92 208.96,478.18 287.72,459.27 337.42,447.81 372.68,440.57 408.17,434.51 428.96,431.58 449.81,429.05 491.61,425.04 539.5,421.73 599.43,418.84"   /><polyline id="SvgjsPolyline8952" points="1.32,482.94 132,464.3 173.5,457.83 206.02,452.25 235.49,446.66 264.85,440.5 343.69,421.89 367.11,416.69 387.72,412.62 414.35,408.19 453.04,403.28 494.87,399.51 545.76,396.32 599.71,393.98"   /><polyline id="SvgjsPolyline8953" points="0.42,581.99 19.86,563.26 28.92,555.38 35.95,549.77 45.66,542.73 53.19,537.79 60.91,533.16 71.45,527.43 82.23,522.17 93.21,517.33 104.34,512.84 118.42,507.66 146.95,498.39 181.57,488.54 242.6,472.91 318.42,454.61 362.39,445.05 400.77,438.1 418.57,435.4 442.36,432.29 487.13,427.73 514.05,425.63 543.99,423.72 597.92,421.1"   /><polyline id="SvgjsPolyline8954" points="2.57,470.63 65.2,463.87 124.78,456.76 172.33,450.19 210.82,443.95 240.31,438.41 269.63,432.1 298.79,425.04 348.18,412.33 374.47,406.17 398,401.47 421.68,397.57 457.4,393.04 496.23,389.48 541.13,386.53 598.07,383.9"   /><polyline id="SvgjsPolyline8955" points="0.3,598.84 30.24,569.38 43.57,557.29 52.89,549.73 60.13,544.38 70.09,537.71 77.79,533.04 96.36,523.24 107.27,518.25 121.13,512.51 146.51,503.33 178.01,493.49 206.89,485.37 235.9,477.7 308.67,459.57 355.5,449.03 376.1,444.95 396.77,441.28 417.52,438.04 441.31,434.87 486.06,430.2 539.92,426.26 599.84,423.26"   /><polyline id="SvgjsPolyline8956" points="1.32,458.69 70.07,452.89 123.79,447.44 174.4,441.11 201.09,437.08 218.84,434.05 251.2,427.63 277.48,421.43 306.43,413.56 355.38,399.24 378.59,393.16 404.97,387.41 431.58,382.83 464.3,378.55 503.12,374.81 545.01,371.84 598.94,369.05"   /><polyline id="SvgjsPolyline8957" points="17.32,599.02 47.31,569.62 60.62,557.5 69.91,549.91 77.12,544.53 84.54,539.44 94.73,533.11 102.57,528.68 113.24,523.19 126.86,516.92 137.94,512.3 151.95,506.95 166.11,501.98 200.45,491.19 252.49,476.77 313.56,461.33 360.4,450.82 383.95,446.24 401.69,443.18 422.45,440 443.27,437.25 488.02,432.56 541.87,428.58 598.8,425.66"   /><polyline id="SvgjsPolyline8958" points="0.38,446.73 63.24,442.52 120.03,437.66 167.73,432.32 191.51,429.02 212.24,425.68 229.93,422.39 247.54,418.64 265.02,414.37 279.48,410.37 293.82,405.96 308.03,401.17 355.87,383.49 372.89,377.65 395.91,370.85 422.18,364.65 436.9,361.78 454.65,358.79 493.3,353.57 541.06,348.75 597.89,344.41"   /><polyline id="SvgjsPolyline8959" points="2.12,452.16 64.94,447.46 115.73,442.79 160.43,437.68 199.04,432.13 234.45,425.68 254.95,421.15 269.51,417.51 298.34,409.22 349.6,392.25 369.67,386.06 392.87,379.94 416.34,374.92 431.1,372.29 451.87,369.15 469.72,366.87 493.58,364.3 541.42,360.3 598.31,356.82"   /><polyline id="SvgjsPolyline8960" points="34.39,599.27 64.38,569.86 77.66,557.72 86.93,550.1 94.12,544.69 104.03,537.92 111.67,533.18 130.12,523.15 143.71,516.79 154.75,512.1 180.01,502.58 214.25,491.46 237.27,484.68 263.29,477.46 318.49,463.28 362.39,453.37 382.99,449.32 403.68,445.7 424.44,442.51 445.25,439.74 487.01,435.29 537.86,431.37 597.77,428.15"   /><polyline id="SvgjsPolyline8961" points="2.65,434.57 41.6,432.5 80.52,430 119.4,426.91 152.23,423.64 179.03,420.34 205.72,416.26 229.29,411.77 249.73,406.94 261.29,403.73 275.57,399.15 286.83,395.01 300.65,389.18 311.48,384 322.09,378.41 358.41,357.32 374.25,348.77 390.52,341.07 410,333.22 429.84,326.36 449.92,320.21 473.03,313.72 554.14,291.92 577.13,285.03 599.88,277.37"   /><polyline id="SvgjsPolyline8962" points="2.02,441.16 73.87,436.58 109.75,433.65 133.64,431.35 160.47,428.34 184.26,425.17 205.01,421.91 225.65,418.07 243.23,414.22 257.77,410.53 272.18,406.36 286.42,401.65 297.67,397.49 311.56,391.82 355.25,371.94 374.6,363.78 397.17,355.63 420.19,348.88 437.67,344.58 452.33,341.41 490.7,334.4 535.2,327.76 597.7,319.82"   /><polyline id="SvgjsPolyline8963" points="1.84,443.6 73.69,438.86 130.46,433.83 154.32,431.2 178.12,428.14 198.89,425.03 219.57,421.4 234.28,418.43 251.81,414.37 266.31,410.51 283.52,405.26 297.69,400.34 311.7,394.98 353.21,377.61 372.8,370.05 395.62,362.61 418.83,356.52 436.41,352.69 454.1,349.36 489.68,343.84 537.32,338.04 597.04,332.25"   /><polyline id="SvgjsPolyline8964" points="51.46,599.52 81.44,570.11 94.71,557.95 103.95,550.3 111.12,544.86 121,538.04 128.62,533.26 139.03,527.3 149.69,521.78 171.56,511.91 185.5,506.38 199.59,501.23 233.8,490.01 277.02,477.49 326.38,464.7 367.36,455.48 405.7,448.36 444.29,442.73 489.02,437.85 539.86,433.87 599.77,430.59"   /><polyline id="SvgjsPolyline8965" points="2.07,422.59 56.01,419.99 106.9,416.64 148.72,412.84 184.44,408.36 214,403.27 237.38,397.85 248.91,394.52 260.27,390.67 271.41,386.2 279.55,382.38 287.47,378.1 297.56,371.62 306.99,364.2 313.54,358.04 319.64,351.42 325.3,344.42 342.62,319.93 348.05,312.75 355.87,303.66 364.35,295.17 377.96,283.39 415.8,253.86 434.21,238.46 451.86,222.21 488.24,186.47 504.02,172.62 513.52,165.29 525.94,156.88 536.29,150.82 546.97,145.34 557.92,140.43 569.08,136.04 583.28,131.21 597.67,126.99"   /><polyline id="SvgjsPolyline8966" points="2.81,429.97 56.73,427.12 107.6,423.53 146.43,419.88 182.15,415.42 211.74,410.5 238.1,404.68 249.68,401.53 261.13,397.94 272.41,393.85 280.73,390.41 288.89,386.62 299.48,380.98 307.17,376.31 314.62,371.26 321.83,365.87 331.15,358.31 360.69,332.86 370.2,325.53 382.55,317.02 392.75,310.71 405.78,303.28 448.23,280.87 466.6,270.71 482.01,261.4 496.93,251.34 511.25,240.44 524.91,228.71 535.84,218.45 563.6,191.05 574.66,180.92 586.25,171.4 598.46,162.7"   /><polyline id="SvgjsPolyline8967" points="2.55,432.67 56.47,429.73 101.36,426.56 140.19,423.02 172.97,419.17 202.63,414.68 229.12,409.47 252.38,403.56 272.34,397.07 283.51,392.69 291.74,389.04 299.82,385.07 310.33,379.29 325.53,369.65 354.85,348.76 364.81,342.07 377.62,334.27 393.45,325.71 406.97,319.21 423.46,312.01 479.21,289.84 501.36,280.6 520.44,271.81 536.41,263.53 554.42,252.72 569.12,242.35 583.07,230.98 598.47,216.71"   /><polyline id="SvgjsPolyline8968" points="2.34,438 44.28,435.61 83.18,432.94 110.09,430.75 142.94,427.56 169.75,424.39 193.51,421 217.16,416.91 237.71,412.58 252.26,408.96 266.68,404.81 280.91,400.07 294.91,394.69 305.92,389.93 316.76,384.79 356.65,363.96 372.87,356.15 392.26,348.11 414.97,340.34 443.87,332.3 478.94,324.21 517.16,316.45 599.68,300.72"   /><polyline id="SvgjsPolyline8969" points="1.05,434.12 48.98,431.52 90.88,428.67 126.75,425.62 162.54,421.76 192.26,417.65 215.9,413.53 239.35,408.42 259.59,402.86 273.83,398.13 285.02,393.8 296,388.97 306.74,383.61 324.91,373.1 355.07,353.44 367.87,345.62 381.03,338.43 397.28,330.69 413.9,323.77 430.76,317.47 510.39,290.74 541.35,279.34 557.96,272.39 571.54,266.04 584.82,259.05 597.68,251.34"   /><polyline id="SvgjsPolyline8970" points="68.53,599.78 100.68,568.3 114.03,556.23 120.98,550.51 130.55,543.28 145.56,533.35 155.94,527.33 166.57,521.75 177.39,516.57 191.14,510.58 219.16,499.87 250.48,489.49 293.67,476.84 334.32,466.3 354.77,461.53 375.31,457.16 413.68,450.19 452.29,444.71 497.04,439.95 547.89,436.05 598.81,433.23"   /><polyline id="SvgjsPolyline8971" points="1.57,410.6 55.52,408.2 100.43,405.43 136.3,402.42 172.06,398.26 198.71,393.95 222.14,388.77 233.69,385.5 242.23,382.66 250.62,379.42 258.82,375.71 266.73,371.43 271.81,368.23 281.29,360.89 285.6,356.72 289.56,352.22 293.14,347.4 296.31,342.31 300.27,334.23 304.15,322.89 306.67,311.16 308.77,296.31 311.05,287.61 314.82,279.45 318,274.37 321.55,269.53 327.35,262.65 335.61,253.95 367.91,222.62 399.86,190.93 415.2,176.59 426.67,166.92 433.8,161.44 443.65,154.58 459.08,145.33 467.07,141.19 477.96,136.16 497.54,128.57 517.58,122.31 540.85,116.43 570.26,110.55 599.89,105.85"   /><polyline id="SvgjsPolyline8972" points="0.22,419.25 54.16,416.7 99.07,413.84 140.91,410.19 176.64,405.86 206.23,400.89 229.61,395.53 241.14,392.2 252.49,388.3 260.83,384.93 268.98,381.1 279.41,375.18 289.15,368.17 293.67,364.23 297.91,360 303.7,353.11 310.32,343.11 314.64,335.21 319.49,324.24 327.14,304.68 331.04,296.58 334.07,291.4 337.44,286.44 345.02,277.14 351.2,270.6 359.83,262.26 399.54,225.68 438.01,187.78 449.05,177.63 458.22,169.88 472.63,159.11 485.29,151.07 501.18,142.62 517.67,135.41 534.6,129.31 554.73,123.35 575.14,118.39 598.67,113.68"   /><polyline id="SvgjsPolyline8973" points="0.15,427.25 54.09,424.52 104.97,421.06 146.79,417.19 179.54,413.13 197.32,410.38 212.08,407.69 226.75,404.57 238.4,401.69 249.94,398.39 261.33,394.62 272.51,390.27 280.72,386.58 291.35,381.02 299.03,376.33 308.8,369.36 315.72,363.62 326.51,353.2 346.56,330.89 354.86,322.23 365.82,311.98 375.05,304.33 392.01,291.95 424.48,270.34 439.29,260.11 453.73,249.37 465.39,239.93 476.66,230.03 485.42,221.84 521.85,186.14 530.8,178.15 540.08,170.55 554.75,160.12 567.63,152.44 581.02,145.7 597.62,138.75"   /><polyline id="SvgjsPolyline8974" points="0.84,422.05 51.79,419.61 102.68,416.3 141.52,412.85 177.26,408.52 206.85,403.62 230.27,398.39 241.83,395.17 253.23,391.43 264.41,387.07 272.59,383.31 283.1,377.54 293.02,370.78 299.93,365.02 308.28,356.41 313.83,349.34 318.8,341.83 323.28,334.03 333.07,315.45 339.29,305.2 348.26,293.18 356.33,284.3 369.44,271.97 396.78,248.55 414.69,232.58 427.74,220.18 459.76,188.56 468.56,180.41 477.65,172.57 489.51,163.4 501.97,155.04 514.99,147.6 528.48,141.06 542.36,135.37 559.37,129.5 576.67,124.52 597.09,119.61"   /><polyline id="SvgjsPolyline8975" points="0.02,428.6 50.95,426.01 101.83,422.58 143.66,418.78 179.39,414.42 197.18,411.68 211.94,409.02 223.7,406.6 238.28,403.11 249.84,399.88 261.26,396.2 272.49,391.97 280.75,388.41 288.84,384.46 299.29,378.56 309.27,371.91 316.42,366.45 329.89,354.51 349.05,335.49 357.82,327.3 367,319.57 376.58,312.34 386.48,305.57 396.61,299.13 445.45,269.76 462.97,258.18 475.13,249.4 486.9,240.09 500.46,228.26 511.36,217.96 539.11,190.56 554.73,176.52 566.54,167.29 576.45,160.52 586.74,154.35 597.37,148.78"   /><polyline id="SvgjsPolyline8976" points="0.55,431.28 57.47,428.23 105.34,424.84 144.18,421.23 179.91,416.85 209.52,412.05 235.92,406.43 247.53,403.39 259.03,399.96 267.55,397.08 278.76,392.78 287.01,389.19 297.76,383.86 305.6,379.45 313.24,374.69 327.92,364.27 360.93,338.32 373.28,329.8 383.49,323.5 396.61,316.22 409.99,309.45 458.97,286.72 480.53,276.18 499.04,266.26 516.97,255.34 534.08,243.18 550.24,229.77 561.23,219.57 586.84,194.26 597.79,184.01"   /><polyline id="SvgjsPolyline8977" points="2.51,433.38 50.44,430.78 89.35,428.15 128.21,424.86 164,420.97 196.67,416.33 223.22,411.43 246.57,405.9 266.68,399.86 277.97,395.79 286.31,392.41 297.22,387.43 307.87,381.9 325.84,371.04 353.11,352.46 365.71,344.32 378.69,336.81 394.75,328.69 408.45,322.57 427.94,314.75 487.17,293.29 509.61,284.78 528.99,276.7 545.29,269.06 561.16,260.57 573.93,252.71 588.61,242.3 598.02,234.86"   /><polyline id="SvgjsPolyline8978" points="2.65,431.99 56.57,429.07 98.46,426.15 137.31,422.69 173.07,418.54 202.73,414.03 229.21,408.8 240.88,406 255.33,401.98 275.2,395.2 283.54,391.81 294.43,386.79 305.04,381.17 312.77,376.57 327.7,366.52 351.69,348.51 363.91,339.81 376.55,331.74 389.61,324.36 403,317.61 416.62,311.32 469.07,289.02 488.26,280.48 507.12,271.24 525.45,261 535.59,254.59 543,249.49 550.23,244.13 559.58,236.6 575.17,222.54 598.65,199.35"   /><polyline id="SvgjsPolyline8979" points="0.1,434.99 48.03,432.37 86.94,429.74 119.83,427.02 155.64,423.33 185.38,419.43 209.07,415.57 232.59,410.8 252.95,405.66 264.44,402.22 278.62,397.32 292.51,391.67 303.39,386.6 321.85,376.6 355.02,356.09 367.99,348.55 383.98,340.31 400.44,333.01 420.05,325.5 442.79,317.85 517.49,295.39 548.88,285.23 574.18,275.82 587.98,269.93 598.82,264.78"   /><polyline id="SvgjsPolyline8980" points="85.6,599.98 115.57,570.55 128.79,558.34 137.99,550.64 145.12,545.15 154.94,538.24 162.51,533.38 172.86,527.31 183.45,521.67 194.24,516.43 207.96,510.36 233.1,500.53 264.34,489.9 301.7,478.71 321.97,473.2 345.24,467.35 383.33,458.98 418.76,452.61 457.37,447.15 499.13,442.67 543.99,439.08 597.89,435.92"   /><polyline id="SvgjsPolyline8981" points="1.12,398.61 46.08,396.71 91,394.11 126.88,391.23 159.68,387.56 186.35,383.4 198.12,381.06 209.8,378.3 227.03,373.12 235.45,369.93 243.65,366.23 254.08,360.31 259,356.88 263.64,353.08 270,346.72 273.75,342.04 277.07,337.04 281.22,329.06 284.43,320.66 286.83,311.99 290.99,291.41 293.86,282.89 296.47,277.49 299.55,272.34 306.69,262.7 314.65,253.72 323.01,245.12 380.64,188.2 398.33,171.98 412.36,160.72 427.21,150.54 434.93,145.92 445.51,140.26 453.63,136.38 464.66,131.68 475.9,127.45 487.28,123.67 510.4,117.22 536.75,111.37 563.33,106.64 598.98,101.61"   /><polyline id="SvgjsPolyline8982" points="0.7,416.41 54.64,413.91 102.54,410.84 138.41,407.71 174.15,403.44 200.79,399.07 224.22,393.89 235.77,390.65 244.33,387.85 255.52,383.54 263.69,379.77 274.15,373.88 283.87,366.86 288.35,362.88 292.53,358.58 296.37,353.96 299.83,349.07 304.3,341.26 308.97,330.21 311.65,321.62 316.89,301.29 320.06,292.87 324.34,284.97 331.43,275.29 337.38,268.55 345.79,259.99 382.77,224.87 419.05,189.02 430.02,178.79 441.42,169.05 455.83,158.26 471.06,148.69 487.04,140.41 498.02,135.58 506.4,132.29 526.3,125.6 546.56,120.06 569.98,114.83 599.51,109.54"   /><polyline id="SvgjsPolyline8983" points="104.83,598.09 132.62,570.73 148.09,556.54 162.12,545.27 169.43,540.01 179.46,533.43 189.78,527.3 200.34,521.61 222.04,511.36 247.07,501.27 278.24,490.41 312.68,479.94 350.38,469.98 388.45,461.53 420.92,455.63 441.68,452.45 462.49,449.68 501.26,445.47 546.11,441.78 597.02,438.68"   /><polyline id="SvgjsPolyline8984" points="0.68,386.61 48.63,384.49 90.55,381.9 123.43,379.09 150.25,375.99 173.96,372.3 194.51,367.97 206.09,364.84 214.66,362.08 228.55,356.44 239.12,350.77 246.54,345.68 251.16,341.87 255.48,337.7 261.29,330.84 266.28,323.35 270.5,315.4 274.11,307.16 280.72,290.42 285.93,279.62 290.64,271.95 294.14,267.08 303.76,255.58 316.23,242.6 376.02,183.59 384.85,175.47 393.96,167.66 403.39,160.24 410.7,155 425.94,145.42 436.51,139.74 444.62,135.85 455.65,131.12 464.05,127.9 484,121.33 507.19,115.18 533.6,109.58 563.18,104.59 598.86,99.83"   /><polyline id="SvgjsPolyline8985" points="121.88,598.28 151.84,568.84 165.13,556.7 174.37,549.06 181.53,543.6 196.41,533.48 214.58,522.96 225.28,517.52 238.89,511.21 263.88,501.02 292.17,491.04 326.59,480.51 361.41,471.37 396.57,463.64 429.05,457.8 467.66,452.3 506.42,448.05 551.27,444.32 599.17,441.33"   /><polyline id="SvgjsPolyline8986" points="0.23,374.62 39.18,372.79 78.11,370.33 108,367.79 137.8,364.37 161.51,360.67 182.06,356.34 199.37,351.43 207.84,348.4 216.13,344.9 226.77,339.35 234.3,334.43 241.33,328.82 249.78,320.31 253.59,315.67 258.83,308.36 274.35,282.69 282.78,270.28 292.24,258.65 306.64,243.37 357.74,192.64 372.94,178.16 381.93,170.21 391.22,162.62 400.87,155.49 408.35,150.48 423.88,141.39 434.62,136.04 442.84,132.38 462.46,124.91 485.42,117.93 511.67,111.64 535.24,107.1 564.87,102.45 597.61,98.33"   /><polyline id="SvgjsPolyline8987" points="138.94,598.47 166.73,571.11 179.91,558.85 193.75,547.35 200.95,541.96 210.85,535.17 221.04,528.84 231.5,522.95 253.01,512.33 275.12,503 303.31,492.73 334.8,482.87 366.67,474.33 401.8,466.47 434.26,460.56 466.91,455.76 508.64,450.98 550.48,447.34 598.37,444.18"   /><polyline id="SvgjsPolyline8988" points="2.72,362.51 41.66,360.33 74.57,357.9 104.43,354.99 131.2,351.51 154.84,347.39 172.38,343.36 189.62,338.18 203.57,332.69 214.3,327.32 221.99,322.65 229.3,317.4 236.17,311.6 242.61,305.31 248.64,298.63 271.12,270.51 284.94,254.71 299.57,239.64 346.39,193.13 363.78,176.58 377.42,164.85 391.82,154.05 404.43,145.94 420.25,137.36 431.14,132.32 439.46,128.88 459.25,121.87 479.42,116.05 502.79,110.57 529.31,105.54 561.94,100.62 597.69,96.35"   /><polyline id="SvgjsPolyline8989" points="155.99,598.67 183.79,571.31 196.95,559.03 210.76,547.5 217.95,542.08 227.82,535.26 245.79,524.41 256.39,518.78 267.18,513.53 278.13,508.62 291.99,502.9 317.34,493.6 348.82,483.72 377.81,476.01 407.08,469.42 439.53,463.41 472.16,458.53 513.88,453.67 555.71,449.95 597.61,447.07"   /><polyline id="SvgjsPolyline8990" points="2.14,350.52 35.06,348.32 64.96,345.77 88.82,343.21 115.56,339.53 136.24,335.85 156.7,331.15 173.95,326 187.97,320.69 198.85,315.62 209.31,309.75 219.27,303.06 228.68,295.62 241.87,283.39 279.42,244.58 332.62,191.72 347.82,177.22 359.08,167.32 370.83,158 383.13,149.41 395.97,141.67 412.02,133.53 420.26,129.9 431.42,125.5 442.75,121.55 454.21,118 474.51,112.62 497.96,107.52 527.51,102.35 560.2,97.81 598.96,93.56"   /><polyline id="SvgjsPolyline8991" points="173.05,598.87 200.84,571.51 213.99,559.22 230.15,545.82 244.8,535.37 262.74,524.46 281.39,514.81 303.33,505.1 328.59,495.56 354.27,487.24 383.19,479.25 412.41,472.49 444.83,466.34 477.45,461.36 516.17,456.7 557.99,452.82 599.88,449.81"   /><polyline id="SvgjsPolyline8992" points="1.43,338.54 37.29,335.44 67.1,332.09 90.86,328.71 114.48,324.45 137.84,318.97 155.07,313.77 171.9,307.39 185.47,301.01 195.94,295.15 208.47,286.92 218.05,279.69 229.53,270.04 240.63,259.94 260.13,241.27 319.94,182.29 330.98,172.14 342.42,162.45 354.38,153.39 369.45,143.55 382.57,136.29 398.87,128.67 415.65,122.17 435.65,115.78 455.96,110.45 479.42,105.39 503.05,101.19 532.74,96.87 565.51,93.02 598.36,89.87"   /><polyline id="SvgjsPolyline8993" points="190.11,599.08 220.05,569.63 231.03,559.41 244.8,547.82 259.3,537.17 266.82,532.22 277.09,526.02 295.63,516.16 317.5,506.29 339.89,497.65 365.53,489.19 391.53,481.9 420.73,475.05 450.18,469.35 482.78,464.24 518.5,459.78 554.33,456.23 599.19,452.75"   /><polyline id="SvgjsPolyline8994" points="0.52,326.58 30.33,323.24 57.07,319.48 80.7,315.32 101.22,310.83 121.48,305.32 138.52,299.55 155.14,292.64 168.54,285.91 178.91,279.88 191.4,271.57 203.37,262.54 214.9,252.93 226.07,242.93 239.16,230.57 290.48,180.07 303.84,168.02 315.45,158.52 330.05,148 342.79,140.09 358.71,131.69 375.17,124.43 392.06,118.2 415.03,111.27 438.35,105.59 461.88,100.89 491.5,96.09 521.24,92.19 557.04,88.4 598.89,84.88"   /><polyline id="SvgjsPolyline8995" points="207.16,599.29 234.96,571.93 248.08,559.61 261.82,548 276.31,537.31 291.48,527.64 309.92,517.59 328.95,508.73 351.25,499.86 373.97,492.14 399.91,484.66 426.16,478.32 455.57,472.43 485.18,467.59 520.87,462.9 556.67,459.17 598.53,455.73"   /><polyline id="SvgjsPolyline8996" points="2.28,314.34 26.01,310.74 46.67,306.96 67.17,302.43 84.56,297.78 98.86,293.27 115.71,286.93 129.39,280.78 142.66,273.79 152.93,267.59 162.87,260.87 172.49,253.7 184.08,244.18 201.83,228.03 251.1,179.73 264.53,167.74 276.17,158.28 290.77,147.77 306.08,138.31 322.03,129.96 341.27,121.57 352.51,117.37 363.89,113.56 386.96,106.96 413.27,100.89 445.73,94.95 475.41,90.63 514.15,86.15 550,82.85 597.87,79.37"   /><polyline id="SvgjsPolyline8997" points="2.41,321.09 26.21,317.99 49.92,314.23 70.53,310.23 90.96,305.36 108.23,300.32 125.19,294.29 138.98,288.4 152.37,281.64 162.74,275.6 175.31,267.43 187.4,258.55 199.02,249.06 210.25,239.12 221.19,228.85 259.58,190.88 272.59,178.44 286.04,166.48 297.72,157.07 309.9,148.32 325.18,138.82 341.13,130.47 357.6,123.24 377.33,116.05 400.34,109.25 426.61,103.02 453.13,97.97 482.78,93.4 518.51,89.01 560.32,84.99 599.21,82.02"   /><polyline id="SvgjsPolyline8998" points="224.22,599.51 254.17,570.07 265.13,559.82 278.85,548.18 290.86,539.19 298.3,534.13 308.48,527.78 324.24,519.08 343.21,510.09 362.66,502.18 385.33,494.31 408.35,487.52 434.55,481.03 463.95,475.03 493.54,470.11 523.26,466.07 559.05,462.13 597.9,458.72"   /><polyline id="SvgjsPolyline8999" points="0.65,302.45 18.29,298.87 35.79,294.7 50.24,290.68 64.52,286.07 75.77,281.89 89.55,275.99 100.31,270.68 110.79,264.82 120.94,258.43 128.33,253.29 137.88,246.03 147.11,238.36 162.61,224.2 194.62,192.56 207.65,180.16 221.17,168.26 235.29,157.11 250.08,146.86 268.15,136.17 286.97,126.86 306.37,118.83 317.66,114.76 331.93,110.15 357.97,103.03 387.27,96.59 422.74,90.43 461.39,85.23 503.16,80.88 548.01,77.25 598.91,74.07"   /><polyline id="SvgjsPolyline9000" points="1.72,309.03 22.4,305.37 40.01,301.67 57.48,297.33 71.87,293.11 86.06,288.25 99.98,282.66 113.54,276.26 126.66,268.99 136.86,262.67 146.74,255.86 156.29,248.6 165.53,240.94 183.24,224.75 215.23,193.11 230.43,178.61 243.95,166.74 255.69,157.4 265.42,150.37 272.91,145.39 288.4,136.22 304.47,128.11 321,121.01 332.23,116.79 343.6,112.95 357.96,108.61 369.55,105.49 398.79,98.81 431.27,92.96 466.91,87.92 505.67,83.63 553.5,79.54 598.4,76.57"   /><polyline id="SvgjsPolyline9001" points="241.28,599.74 271.23,570.29 282.18,560.04 295.89,548.38 307.88,539.37 322.92,529.49 338.59,520.64 354.76,512.74 374.12,504.6 396.73,496.56 419.72,489.68 442.98,483.8 469.4,478.23 496,473.57 525.69,469.28 558.46,465.42 597.28,461.75"   /><polyline id="SvgjsPolyline9002" points="1.33,290.11 24.35,283.34 35.67,279.37 46.82,274.93 57.75,269.99 65.78,265.92 81.33,256.86 96.09,246.57 110.06,235.23 123.36,223.1 155.39,191.49 166.3,181.2 179.88,169.39 194.11,158.36 203.96,151.52 211.55,146.68 229.81,136.31 248.73,127.22 270.98,118.22 285.13,113.27 299.45,108.77 316.78,103.93 334.25,99.61 351.84,95.77 369.51,92.34 405.04,86.56 446.7,81.26 494.48,76.62 545.34,72.88 599.25,69.86"   /><polyline id="SvgjsPolyline9003" points="2.6,296.85 17.18,293.32 31.63,289.29 43.06,285.64 54.34,281.56 65.44,276.99 73.61,273.23 84.27,267.72 94.63,261.66 102.17,256.75 111.93,249.77 128.3,236.63 143.78,222.44 184.49,182.55 197.95,170.6 212.03,159.38 229.29,147.43 247.4,136.81 266.22,127.51 285.6,119.43 296.87,115.31 311.12,110.62 325.51,106.39 340.02,102.57 357.54,98.48 372.23,95.43 407.69,89.25 449.31,83.63 491.09,79.29 544.92,75.04 598.82,71.85"   /><polyline id="SvgjsPolyline9004" points="258.34,599.97 297.01,562.29 308.28,552.39 322.47,541.32 337.4,531.26 352.97,522.25 369.09,514.23 385.62,507.12 405.32,499.84 428.23,492.7 451.44,486.63 477.83,480.9 501.44,476.61 534.08,471.73 566.84,467.78 599.68,464.55"   /><polyline id="SvgjsPolyline9005" points="1.11,277.75 17.85,271.14 34.08,263.37 47.1,255.92 61.99,245.82 73.76,236.52 85,226.6 121.44,190.91 134.64,178.69 150.83,165.31 165.46,154.83 183.35,143.85 201.99,134.17 221.18,125.66 243.62,117.15 257.85,112.41 275.09,107.23 289.56,103.3 307.04,99.01 342.28,91.65 365.92,87.53 386.68,84.37 431.33,78.77 485.09,73.7 535.96,70.11 598.88,66.78"   /><polyline id="SvgjsPolyline9006" points="2.05,284.97 19.09,279.2 35.74,272.37 51.84,264.32 67.23,254.99 79.42,246.26 93.31,234.81 106.52,222.6 136.39,193.07 147.28,182.75 160.83,170.9 175.03,159.85 192.47,148.16 210.72,137.79 229.63,128.66 240.67,123.96 254.66,118.55 268.83,113.62 286.01,108.27 303.36,103.47 317.92,99.86 335.49,95.93 353.14,92.42 391.61,86 433.25,80.59 481.02,75.83 534.87,71.8 597.77,68.32"   /><polyline id="SvgjsPolyline9007" points="277.57,598.07 305.34,570.69 316.27,560.42 327.63,550.63 339.5,541.47 354.43,531.42 367.39,523.86 383.44,515.73 399.95,508.55 416.79,502.22 436.78,495.77 459.94,489.49 483.34,484.17 509.87,479.16 536.54,474.98 566.29,471.12 599.11,467.61"   /><polyline id="SvgjsPolyline9008" points="2.46,264.46 13.08,258.88 23.37,252.71 33.3,245.97 42.84,238.7 52.01,230.96 60.87,222.87 90.79,193.4 103.94,181.1 120.05,167.64 134.66,157.12 152.55,146.14 163.13,140.48 173.91,135.21 195.97,125.77 221.36,116.58 238.52,111.16 252.93,107.01 270.34,102.43 290.77,97.59 311.32,93.24 331.95,89.34 373.43,82.75 418.08,77.19 471.84,72.11 531.7,67.95 597.61,64.61"   /><polyline id="SvgjsPolyline9009" points="294.61,598.24 331.1,562.61 342.36,552.7 354.13,543.41 368.94,533.19 381.82,525.51 395.12,518.57 411.52,511.16 428.3,504.65 448.24,498.05 468.46,492.39 491.82,486.89 515.36,482.24 542,477.84 568.75,474.16 598.55,470.73"   /><polyline id="SvgjsPolyline9010" points="2.23,251.11 14.53,242.55 28.51,231.2 41.74,219.01 67.34,193.69 80.49,181.41 94.28,169.85 108.83,159.25 118.93,152.77 129.31,146.76 139.94,141.19 150.78,136.03 161.78,131.24 175.72,125.71 189.83,120.62 204.07,115.92 221.3,110.71 241.56,105.18 259.03,100.84 279.51,96.2 300.09,92 320.74,88.2 344.42,84.31 368.17,80.87 415.83,75.17 466.62,70.53 526.48,66.45 598.39,62.92"   /><polyline id="SvgjsPolyline9011" points="311.66,598.42 348.15,562.78 359.4,552.87 368.78,545.38 380.97,536.66 393.69,528.7 406.85,521.51 423.13,513.84 439.83,507.13 456.85,501.27 477,495.36 497.38,490.29 520.86,485.37 544.5,481.2 568.23,477.65 598,473.92"   /><polyline id="SvgjsPolyline9012" points="0.44,237.9 9.64,230.2 18.5,222.11 48.44,192.66 61.66,180.44 75.56,169.01 85.26,161.95 92.76,156.97 103.02,150.75 113.55,145 124.31,139.69 138.02,133.6 151.95,128.03 166.05,122.92 194.63,113.81 211.95,108.93 232.29,103.68 252.73,98.88 276.2,93.88 296.82,89.91 320.47,85.8 364.99,79.25 415.65,73.43 469.45,68.74 526.33,65.03 598.24,61.61"   /><polyline id="SvgjsPolyline9013" points="328.71,598.6 363,565.01 374.16,554.99 383.45,547.39 395.55,538.53 408.18,530.44 421.28,523.14 434.77,516.6 451.39,509.67 468.34,503.64 485.56,498.39 502.96,493.8 523.45,489.17 547.02,484.66 573.68,480.4 597.46,477.19"   /><polyline id="SvgjsPolyline9014" points="1.72,221.17 31.66,191.72 47.23,177.62 56.56,170.08 66.25,163 73.74,158.02 84,151.8 94.55,146.07 108.04,139.53 121.82,133.59 132.99,129.22 147.11,124.16 161.36,119.49 193.05,110.29 213.39,105.07 236.76,99.6 280.85,90.6 322.26,83.56 369.8,76.99 420.51,71.52 471.33,67.32 528.22,63.75 597.14,60.57"   /><polyline id="SvgjsPolyline9015" points="345.76,598.78 380.05,565.2 391.21,555.18 400.5,547.58 412.61,538.73 422.69,532.22 435.72,524.81 446.46,519.44 462.96,512.27 477.02,507.03 494.14,501.5 511.49,496.69 528.99,492.49 552.51,487.69 576.16,483.64 599.91,480.18"   /><polyline id="SvgjsPolyline9016" points="1.9,204.28 21.3,185.51 30.32,177.6 39.68,170.09 49.4,163.06 59.47,156.53 69.85,150.51 80.5,144.97 91.36,139.87 105.18,134.04 119.2,128.72 133.38,123.84 164.97,114.3 199.83,105.31 237.89,96.81 282.09,88.35 326.52,81.23 374.12,75.04 427.84,69.6 475.69,65.87 532.59,62.47 598.52,59.54"   /><polyline id="SvgjsPolyline9017" points="362.81,598.98 394.92,567.45 406,557.34 415.2,549.64 427.21,540.65 437.22,534.03 447.55,527.94 460.88,521.05 474.57,514.93 488.55,509.51 505.62,503.8 520.03,499.63 537.48,495.23 558.01,490.79 578.66,486.98 599.39,483.68"   /><polyline id="SvgjsPolyline9018" points="2.03,187.26 10.99,179.28 20.3,171.7 27.52,166.33 37.47,159.62 47.75,153.43 58.31,147.75 69.11,142.52 80.11,137.71 94.06,132.21 108.19,127.18 136.83,118.26 171.62,109.02 209.63,100.27 250.81,92 292.18,84.81 336.71,78.27 384.36,72.57 432.15,68.05 480.02,64.5 539.92,61.1 599.87,58.55"   /><polyline id="SvgjsPolyline9019" points="379.87,599.18 411.98,567.66 420.8,559.53 429.93,551.73 439.4,544.37 449.24,537.51 459.44,531.18 472.62,524.02 483.45,518.87 497.3,513.1 511.4,508.01 525.71,503.49 540.16,499.49 560.59,494.62 581.17,490.45 598.9,487.35"   /><polyline id="SvgjsPolyline9020" points="0.83,172.2 8.06,166.83 18.02,160.14 28.32,153.99 38.91,148.34 49.73,143.17 60.75,138.41 83.21,129.97 111.82,120.93 143.68,112.35 181.65,103.48 225.74,94.46 270.04,86.55 311.55,80.15 353.19,74.71 391.96,70.48 436.78,66.49 484.66,63.11 541.58,60.01 598.53,57.64"   /><polyline id="SvgjsPolyline9021" points="396.92,599.4 429.04,567.88 444.67,553.86 454.06,546.39 463.83,539.42 473.95,532.98 484.4,527.08 495.14,521.72 508.88,515.73 520.09,511.44 534.31,506.66 548.7,502.43 563.22,498.68 577.84,495.33 598.44,491.24"   /><polyline id="SvgjsPolyline9022" points="1.1,157.06 11.6,151.24 19.65,147.22 30.57,142.25 41.67,137.69 67.11,128.66 92.98,120.93 127.85,111.98 165.91,103.49 204.16,95.87 251.42,87.47 292.91,80.99 328.58,76.12 373.28,70.94 409.12,67.49 450.98,64.15 495.89,61.26 543.83,58.8 597.78,56.62"   /><polyline id="SvgjsPolyline9023" points="413.98,599.62 446.11,568.11 461.74,554.09 471.13,546.63 478.43,541.36 485.93,536.39 496.24,530.25 506.86,524.67 517.74,519.61 528.83,515.04 540.1,510.91 554.37,506.3 565.91,503.01 580.45,499.32 598.02,495.41"   /><polyline id="SvgjsPolyline9024" points="0.51,143.59 20.05,135.91 42.83,128.36 68.81,121.01 100.86,113.15 141.93,104.36 183.18,96.47 230.47,88.28 274.94,81.38 310.6,76.46 349.32,71.79 388.12,67.81 420.99,64.95 465.88,61.71 504.81,59.42 555.75,57 597.72,55.4"   /><polyline id="SvgjsPolyline9025" points="431.04,599.86 461.01,570.44 474.24,558.23 483.45,550.55 490.61,545.09 505.57,535.08 513.34,530.55 523.98,525 534.88,519.98 545.99,515.46 560.12,510.42 571.57,506.83 597.67,499.94"   /><polyline id="SvgjsPolyline9026" points="1.52,130.16 27.56,123 53.81,116.72 86.09,109.87 118.5,103.64 165.77,95.32 213.16,87.64 254.69,81.43 296.31,75.79 329.07,71.82 361.88,68.3 397.73,64.97 436.61,61.92 478.52,59.21 517.47,57.13 598.4,53.85"   /><polyline id="SvgjsPolyline9027" points="450.28,597.97 478.07,570.61 491.29,558.4 505.26,547.06 520.1,536.88 535.74,527.97 546.53,522.74 554.79,519.15 574.46,511.8 597.43,504.88"   /><polyline id="SvgjsPolyline9028" points="1.03,117.79 24.58,113.15 60.01,106.79 95.53,100.92 148.9,92.69 243.95,79.21 282.63,74.26 321.37,69.77 351.21,66.67 387.06,63.39 443.9,59.13 521.78,54.85 599.73,51.86"   /><polyline id="SvgjsPolyline9029" points="467.33,598.15 495.12,570.79 506.1,560.57 517.57,550.91 529.65,542.02 544.92,532.51 560.94,524.3 577.51,517.28 597.34,510.38"   /><polyline id="SvgjsPolyline9030" points="1.58,105.43 78.89,95.1 212.84,78.29 275.41,70.92 335.08,64.69 397.85,59.32 457.72,55.35 523.64,52.06 598.59,49.34"   /><polyline id="SvgjsPolyline9031" points="484.38,598.34 510.03,573.08 520.92,562.77 532.29,552.98 541.81,545.68 554.27,537.33 567.29,529.9 580.79,523.36 597.46,516.59"   /><polyline id="SvgjsPolyline9032" points="2.89,93.13 122.31,81.41 277.49,65.44 322.29,61.22 361.16,57.94 412.02,54.27 468.93,50.98 528.87,48.3 597.83,45.98"   /><polyline id="SvgjsPolyline9033" points="501.44,598.53 535.77,565 544.74,557.02 554.07,549.48 563.8,542.45 573.92,536.01 584.4,530.17 597.92,523.67"   /><polyline id="SvgjsPolyline9034" points="1.73,81.19 112.44,73.13 300.76,57.13 378.54,51.3 429.45,48.21 477.39,45.82 537.34,43.44 597.31,41.6"   /><polyline id="SvgjsPolyline9035" points="518.5,598.74 548.47,569.32 564.1,555.3 571.13,549.69 580.87,542.68 591.01,536.26 598.85,531.84"   /><polyline id="SvgjsPolyline9036" points="0.93,69.21 63.85,65.96 132.72,61.83 327.24,48.07 396.1,43.81 489,39.44 539.97,37.65 599.94,35.98"   /><polyline id="SvgjsPolyline9037" points="535.56,598.96 563.38,571.63 574.34,561.4 585.83,551.76 597.95,542.92"   /><polyline id="SvgjsPolyline9038" points="0.35,57.23 78.29,54.09 144.21,50.86 332.88,39.64 410.77,35.53 500.69,31.91 599.65,29.15"   /><polyline id="SvgjsPolyline9039" points="552.62,599.2 582.61,569.79 598.23,555.77"   /><polyline id="SvgjsPolyline9040" points="2.91,45.13 71.88,42.92 149.82,39.79 350.56,29.61 425.48,26.24 503.43,23.47 599.4,20.99"   /><polyline id="SvgjsPolyline9041" points="569.69,599.44 599.69,570.05"   /><polyline id="SvgjsPolyline9042" points="2.57,33.13 77.54,31.08 155.49,28.35 356.29,19.35 440.22,15.98 518.18,13.5 599.16,11.54"   /><polyline id="SvgjsPolyline9043" points="586.76,599.71 599.71,587.2"   /><polyline id="SvgjsPolyline9044" points="2.28,21.13 77.26,19.28 155.22,16.8 365.04,8.12 445.98,5.05 517.95,2.81 598.92,0.82"   /><polyline id="SvgjsPolyline9045" points="2.02,9.14 130.98,5.73 277.87,0.1"   /></g></svg>