<?xml version="1.0" standalone="no"?>
<svg id="SvgjsSvg1001" width="600" height="600" xmlns="http://www.w3.org/2000/svg" version="1.1" xmlns:xlink="http://www.w3.org/1999/xlink" xmlns:svgjs="http://svgjs.com/svgjs" class="svg-paper" viewBox="0 0 600 600"><title id="SvgjsTitle11425">x=max(sqrt(x*x + y*y),y)|y=cos(sign(min(sqrt(x*x + y*y),sin(x))))|dTest=0.0|sd=0.2|sm=0.2|ts=0.05 | generated with FlowLines</title><style>*{fill:none;stroke:#777}</style><g id="SvgjsG11426"><polyline id="SvgjsPolyline11427" points="0,521.08 47.8,516.68 92.56,512.06 137.26,506.87 181.88,501.03 220.47,495.38 258.98,489.19 383.04,467.21 445.22,457.06 483.82,451.51 516.55,447.26 558.26,442.4 597.05,438.35"   /><polyline id="SvgjsPolyline11428" points="1.04,533.03 45.86,529 90.64,524.52 138.34,519.17 180.01,513.94 215.67,509.02 254.24,503.24 387.46,481.34 449.74,471.86 488.38,466.62 521.14,462.58 559.89,458.23 598.69,454.3"   /><polyline id="SvgjsPolyline11429" points="1.95,508.86 49.73,504.35 94.48,499.58 139.16,494.19 180.77,488.5 216.35,483.05 254.8,476.53 296.1,468.87 390.35,450.64 449.48,440.48 482.12,435.58 520.77,430.38 556.51,426.1 598.28,421.64"   /><polyline id="SvgjsPolyline11430" points="2.07,544.99 43.91,541.31 91.68,536.66 136.42,531.81 178.12,526.8 216.78,521.72 255.4,516.24 391.79,495.26 448.22,487.17 516.68,478.57 558.43,473.99 597.24,470.14"   /><polyline id="SvgjsPolyline11431" points="0.88,496.91 48.66,492.31 102.33,486.38 144,481.08 185.56,475.05 224.04,468.7 262.39,461.59 297.66,454.42 379.83,436.96 412.21,430.59 441.74,425.28 480.24,419.1 515.89,414.07 560.55,408.55 599.32,404.35"   /><polyline id="SvgjsPolyline11432" points="0.08,557.19 47.9,553.07 95.69,548.5 176.2,539.62 256.52,529.18 387.16,510.27 455.53,501 527.03,492.55 598.67,485.37"   /><polyline id="SvgjsPolyline11433" points="2.78,484.69 56.51,479.34 101.22,474.21 148.8,467.9 187.35,461.98 228.71,454.66 263.99,447.53 299.12,439.68 380.9,420.48 413.18,413.6 439.69,408.49 472.21,402.89 513.75,396.68 555.4,391.33 597.14,386.66"   /><polyline id="SvgjsPolyline11434" points="1.06,569.15 87.73,561.52 174.25,552.4 257.61,542.07 397.31,523.01 450.87,516.13 522.4,507.92 597.04,500.59"   /><polyline id="SvgjsPolyline11435" points="1.67,472.74 58.38,466.97 109.02,460.91 156.54,454.19 195.02,447.81 227.43,441.62 262.6,433.94 297.55,425.32 381.69,403.2 407.97,397.02 434.39,391.44 469.79,384.9 508.31,378.83 555.89,372.49 597.62,367.75"   /><polyline id="SvgjsPolyline11436" points="2.03,581.11 79.74,574.48 169.29,565.46 252.72,555.66 395.53,537.21 458.07,529.59 529.64,521.79 598.33,515.29"   /><polyline id="SvgjsPolyline11437" points="0.55,460.79 54.26,455.26 104.89,449.12 152.4,442.26 193.78,435.11 231.98,427.24 266.95,418.72 298.73,409.83 353.24,393.16 379.17,385.62 405.28,378.76 431.59,372.69 466.9,365.72 508.35,358.9 549.95,353.17 597.63,347.61"   /><polyline id="SvgjsPolyline11438" points="2.97,593.08 89.67,585.77 170.28,577.83 247.79,569.13 381.78,552.68 453.29,544.26 527.87,536.38 599.57,529.77"   /><polyline id="SvgjsPolyline11439" points="2.39,448.56 62.05,442.2 112.63,435.73 160.07,428.4 198.4,421.23 216,417.46 236.44,412.61 268.26,403.89 299.66,393.75 350.44,375.37 373.14,367.59 398.98,359.76 425.11,353 460.3,345.42 501.67,338.17 546.22,331.78 599.84,325.43"   /><polyline id="SvgjsPolyline11440" points="66.81,599.86 132.54,593.91 207.15,586.31 275.72,578.62 412.78,562.57 475.41,555.73 532.13,550.07 597.87,544.19"   /><polyline id="SvgjsPolyline11441" points="1.22,436.62 60.87,430.16 117.38,422.69 161.79,415.46 182.43,411.55 202.97,407.2 223.4,402.33 240.78,397.66 258.02,392.47 275.06,386.7 289.1,381.41 302.97,375.7 346.71,355.92 366.04,347.74 388.58,339.5 414.42,331.69 431.86,327.22 449.41,323.23 467.05,319.65 490.67,315.38 538.12,308.19 567.88,304.37 597.68,300.96"   /><polyline id="SvgjsPolyline11442" points="2.05,442.81 61.7,436.34 109.3,430.15 133.03,426.61 159.67,422.18 180.31,418.34 200.88,414.1 218.42,410.08 235.87,405.66 253.2,400.78 267.52,396.33 284.55,390.51 298.61,385.28 345.88,366.13 368.32,357.62 393.97,349.21 420.01,342.08 437.53,337.95 455.14,334.22 475.77,330.28 499.42,326.24 540.98,320.13 597.57,313.31"   /><polyline id="SvgjsPolyline11443" points="193.49,599.83 262.11,592.55 393.28,577.83 458.91,570.79 530.56,563.77 599.3,557.78"   /><polyline id="SvgjsPolyline11444" points="0.04,424.68 35.85,420.9 68.62,417.03 95.39,413.51 125.07,409.13 151.69,404.67 172.33,400.78 195.8,395.77 213.29,391.52 230.65,386.77 247.83,381.4 264.76,375.28 278.6,369.51 292.14,363.05 305.31,355.88 343.48,332.06 359.21,323.31 367.31,319.38 378.31,314.6 389.52,310.31 403.74,305.55 421.03,300.56 441.42,295.51 461.95,291.12 485.55,286.72 512.2,282.38 538.92,278.55 568.68,274.76 598.49,271.37"   /><polyline id="SvgjsPolyline11445" points="2.07,431.2 61.71,424.62 91.46,420.79 121.15,416.49 144.84,412.65 168.45,408.35 189.03,404.14 206.57,400.13 224.01,395.68 241.31,390.7 258.41,385.09 275.26,378.77 289.07,372.9 302.63,366.49 342.44,345.51 364.08,335.15 375.14,330.49 386.36,326.23 409.18,318.83 429.46,313.36 446.98,309.26 467.55,305.02 488.21,301.25 511.9,297.41 538.62,293.56 565.4,290.11 598.19,286.34"   /><polyline id="SvgjsPolyline11446" points="305.19,599.82 397.65,589.84 466.29,582.79 534.99,576.32 597.76,570.99"   /><polyline id="SvgjsPolyline11447" points="1.83,412.44 34.64,408.92 70.38,404.62 103.07,400.13 132.71,395.48 159.28,390.68 182.78,385.8 203.2,380.91 223.43,375.29 243.36,368.69 260.08,362.01 273.59,355.51 286.53,347.94 296.29,340.96 305.32,333.07 313.53,324.32 328.83,305.83 335.15,299.43 339.69,295.5 346.92,290.15 357.18,283.93 367.92,278.59 381.78,272.86 401.68,266.17 421.92,260.57 445.3,255.15 468.84,250.49 498.41,245.46 528.09,241.09 560.82,236.87 599.58,232.5"   /><polyline id="SvgjsPolyline11448" points="2.9,419.84 38.69,415.97 74.43,411.61 104.15,407.5 127.86,403.82 157.41,398.62 177.99,394.47 198.47,389.8 218.78,384.47 238.85,378.3 255.77,372.16 269.57,366.29 282.99,359.61 293.37,353.59 305.79,345.18 315.28,337.84 336.16,320.72 343.39,315.36 350.88,310.38 361.29,304.4 369.35,300.4 380.36,295.63 391.58,291.4 408.71,285.88 428.98,280.39 449.45,275.67 472.99,271 499.59,266.42 529.26,261.99 561.99,257.72 597.75,253.63"   /><polyline id="SvgjsPolyline11449" points="416.8,599.89 506.39,591.28 599.06,583.43"   /><polyline id="SvgjsPolyline11450" points="0.61,400.5 45.34,395.56 86.99,390.18 119.62,385.26 152.12,379.51 181.47,373.3 204.73,367.39 227.66,360.32 238.92,356.19 247.25,352.76 260.76,346.27 265.99,343.34 273.58,338.5 282.98,331.05 289.2,324.55 294.3,317.15 296.83,311.72 298.45,305.95 299.64,294.02 300.31,291.1 302.36,285.47 306.89,277.71 310.66,273.04 314.85,268.76 319.38,264.82 326.64,259.51 339.57,251.91 347.65,247.96 355.91,244.37 372.77,238.09 392.83,231.9 413.16,226.61 439.53,220.81 466.06,215.84 492.71,211.49 525.38,206.84 561.11,202.4 599.87,198.17"   /><polyline id="SvgjsPolyline11451" points="0.84,409.66 39.61,405.42 75.33,400.97 108,396.31 134.65,391.97 164.12,386.41 187.56,381.23 207.9,376 227.99,369.91 244.91,363.77 261.37,356.51 274.53,349.31 282.03,344.35 286.82,340.73 291.37,336.82 295.64,332.61 299.57,328.08 303.09,323.22 307.48,315.37 314.44,298.77 317.13,293.41 320.36,288.37 324.14,283.7 330.59,277.44 340.23,270.31 350.61,264.29 364.18,257.92 375.35,253.53 383.85,250.57 403.95,244.49 427.23,238.65 453.65,233.09 483.18,227.83 518.77,222.44 560.43,217.08 599.19,212.78"   /><polyline id="SvgjsPolyline11452" points="546.26,599.81 597.1,595.72"   /><polyline id="SvgjsPolyline11453" points="2.36,388.25 47.08,383.22 85.74,378.14 118.36,373.14 147.89,367.84 174.3,362.25 197.57,356.37 217.65,350.25 228.95,346.2 237.3,342.83 248.18,337.78 258.65,331.93 268.46,325.03 275.12,318.98 280.85,312.06 283.99,306.95 286.55,301.53 292.05,287.57 296.33,279.66 299.79,274.76 303.68,270.2 307.92,265.96 312.46,262.03 317.23,258.39 324.72,253.41 337.87,246.2 354.33,238.93 371.25,232.81 391.35,226.73 411.7,221.52 435.13,216.37 464.62,210.83 494.24,206.06 523.94,201.87 559.67,197.44 598.44,193.22"   /><polyline id="SvgjsPolyline11454" points="1.11,376.32 42.85,371.61 78.55,366.96 111.18,362.03 137.77,357.37 164.22,351.96 187.54,346.28 207.69,340.39 224.66,334.38 238.43,328.44 249.04,322.85 259.09,316.31 266.06,310.61 272.34,304.17 276.07,299.48 287.57,281.91 294.84,272.37 303.26,263.84 312.65,256.37 325.32,248.35 333.27,244.14 341.41,240.3 358.1,233.56 375.15,227.8 395.34,222.03 415.74,217.04 442.16,211.5 465.77,207.21 492.43,202.94 525.11,198.35 563.82,193.62 599.62,189.78"   /><polyline id="SvgjsPolyline11455" points="2.83,364.07 41.58,359.65 74.3,355.38 103.97,350.95 133.53,345.83 157.05,341.08 180.4,335.53 200.6,329.79 217.62,323.95 228.74,319.43 239.56,314.25 249.95,308.26 257.34,303.12 262.02,299.36 268.6,293.23 286.59,273.1 292.9,266.69 301.97,258.84 314.25,250.23 327.3,242.85 340.89,236.49 357.65,229.94 377.61,223.44 397.86,217.88 415.37,213.7 438.86,208.78 465.42,203.95 495.05,199.27 524.77,195.14 557.52,191.11 599.28,186.59"   /><polyline id="SvgjsPolyline11456" points="1.56,352.14 31.37,348.78 64.11,344.64 96.77,339.89 123.39,335.43 146.96,330.88 170.37,325.6 190.65,320.18 207.81,314.73 221.84,309.43 232.8,304.56 240.81,300.45 251.09,294.27 258.45,289.08 265.47,283.46 285.58,265.44 294.87,257.86 307.18,249.29 317.52,243.21 330.94,236.5 347.54,229.56 364.52,223.6 381.76,218.4 402.08,213.11 422.56,208.48 449.05,203.27 469.74,199.69 499.39,195.13 529.12,191.1 564.87,186.82 597.68,183.32"   /><polyline id="SvgjsPolyline11457" points="0.28,340.21 30.09,336.84 62.83,332.69 89.55,328.85 119.16,323.98 142.73,319.49 163.24,314.99 183.59,309.79 200.82,304.61 212.16,300.68 226.08,295.09 234.25,291.31 244.86,285.71 252.57,281.07 260.06,276.08 284.18,258.25 294.03,251.4 304.21,245.04 317.38,237.87 330.98,231.54 347.71,224.91 364.76,219.16 384.94,213.33 402.39,208.94 422.89,204.39 446.45,199.8 473.06,195.25 499.76,191.22 529.49,187.22 559.28,183.64 598.06,179.49"   /><polyline id="SvgjsPolyline11458" points="1.97,327.96 61.54,320.76 88.26,316.92 114.91,312.57 138.5,308.16 159.03,303.75 179.41,298.69 196.7,293.68 208.09,289.9 219.33,285.72 230.39,281.05 241.21,275.87 256.94,267.13 284.89,249.58 295.2,243.45 308.41,236.34 319.23,231.16 335.83,224.2 349.93,219.09 369.96,212.79 387.33,208.06 407.75,203.18 428.3,198.85 448.94,194.98 475.57,190.53 502.28,186.58 532.02,182.66 597.61,175.33"   /><polyline id="SvgjsPolyline11459" points="0.68,316.02 30.49,312.63 60.25,308.84 84.01,305.46 110.67,301.19 131.33,297.44 151.9,293.23 172.34,288.42 189.72,283.71 204.04,279.27 215.37,275.33 226.56,270.98 237.57,266.21 256.39,256.9 296.01,235.57 309.55,229.11 323.33,223.2 337.35,217.86 354.41,212.13 371.68,207.05 392.01,201.81 412.5,197.17 433.08,193.04 453.75,189.31 480.41,185.02 507.13,181.19 536.89,177.37 599.51,170.5"   /><polyline id="SvgjsPolyline11460" points="2.36,303.77 58.95,296.94 106.42,289.83 127.1,286.18 150.63,281.46 171.09,276.74 185.6,272.95 211.41,265.04 233.88,256.62 253.11,248.19 296.49,227.64 310.27,221.72 324.24,216.26 341.23,210.32 358.43,205 375.79,200.24 393.27,195.96 413.79,191.47 434.4,187.45 478.78,180.05 529.31,173.16 565.07,169 597.89,165.58"   /><polyline id="SvgjsPolyline11461" points="1.06,291.84 57.65,285.05 102.17,278.49 125.82,274.4 146.43,270.37 164.01,266.52 181.49,262.23 207.44,254.79 230.15,247.02 249.7,239.36 299.48,218.43 327.63,208.07 344.77,202.59 359.18,198.43 379.51,193.16 397.05,189.1 420.55,184.25 441.2,180.44 488.62,172.96 536.21,166.75 598.84,159.97"   /><polyline id="SvgjsPolyline11462" points="2.74,279.59 56.35,273.17 100.88,266.69 142.23,259.3 177.37,251.53 203.45,244.55 229.2,236.41 248.97,229.35 299.48,210.24 330.76,199.73 362.51,190.76 379.99,186.47 400.5,181.94 441.76,174.14 492.17,166.39 545.74,159.65 599.45,153.99"   /><polyline id="SvgjsPolyline11463" points="1.44,267.66 55.06,261.3 99.6,254.91 140.98,247.68 173.26,240.84 199.45,234.28 225.38,226.76 245.36,220.3 302.13,200.88 330.79,192.04 348.14,187.24 365.59,182.83 403.68,174.47 445.01,166.99 489.51,160.29 540.11,153.92 599.78,147.64"   /><polyline id="SvgjsPolyline11464" points="0.15,255.73 53.78,249.44 98.34,243.15 136.79,236.64 172.07,229.49 198.34,223.24 221.51,217 247.39,209.3 301.79,192.29 333.53,183.26 368.48,174.64 403.72,167.27 448.04,159.52 492.57,153.03 546.17,146.48 599.89,140.94"   /><polyline id="SvgjsPolyline11465" points="1.85,243.48 49.53,237.96 97.08,231.41 135.56,225.07 167.95,218.79 194.31,212.92 220.5,206.36 243.64,200.02 304.21,182.67 336.12,174.29 368.27,166.83 403.56,159.74 444.96,152.67 492.47,145.85 540.12,140.06 599.81,133.92"   /><polyline id="SvgjsPolyline11466" points="0.57,231.54 45.28,226.47 89.89,220.55 128.42,214.53 166.78,207.47 193.19,201.88 219.47,195.7 303.64,173.69 338.61,165.14 373.8,157.52 412.13,150.34 456.57,143.26 498.18,137.6 548.84,131.68 599.58,126.59"   /><polyline id="SvgjsPolyline11467" points="2.28,219.3 49.98,213.89 88.64,208.81 130.16,202.47 162.66,196.72 189.14,191.46 218.44,185.02 305.9,163.79 335.14,157.08 370.38,149.75 411.71,142.26 447.27,136.67 494.83,130.2 539.53,124.97 599.23,118.97"   /><polyline id="SvgjsPolyline11468" points="1.03,207.36 45.75,202.4 84.44,197.48 123.03,191.86 158.54,185.92 185.08,180.95 214.47,174.92 302.25,155.09 337.44,147.5 372.77,140.58 414.16,133.44 455.7,127.22 500.32,121.43 548.02,116.06 598.78,111.09"   /><polyline id="SvgjsPolyline11469" points="2.77,195.12 47.5,190.2 83.22,185.74 121.83,180.28 157.38,174.57 186.91,169.28 213.41,164.12 304.4,144.89 342.63,137.19 378.04,130.7 416.53,124.4 458.1,118.41 499.77,113.15 550.46,107.56 598.24,102.95"   /><polyline id="SvgjsPolyline11470" points="1.54,183.18 37.34,179.37 82.01,174 114.71,169.56 153.27,163.69 182.85,158.68 215.3,152.71 338.94,128.42 380.31,121.18 415.87,115.6 454.49,110.17 499.15,104.63 546.87,99.44 597.64,94.59"   /><polyline id="SvgjsPolyline11471" points="0.33,171.24 45.08,166.51 80.83,162.26 116.52,157.54 158.06,151.37 217.21,141.31 341.11,118.38 382.54,111.5 421.11,105.73 459.76,100.55 504.45,95.22 552.18,90.2 599.97,85.75"   /><polyline id="SvgjsPolyline11472" points="2.12,159 37.93,155.31 76.68,150.88 112.39,146.34 151.01,140.89 213.21,130.92 346.2,107.72 384.73,101.66 420.36,96.54 467.97,90.41 506.71,85.97 548.49,81.65 599.28,76.97"   /><polyline id="SvgjsPolyline11473" points="0.94,147.06 36.76,143.44 78.5,138.77 111.25,134.72 152.86,129.04 212.17,119.95 348.33,97.46 383.93,92.11 422.56,86.77 461.26,81.91 508.95,76.54 553.73,72.05 598.55,68.01"   /><polyline id="SvgjsPolyline11474" points="2.77,134.83 80.34,126.67 148.79,118.02 208.17,109.38 347.46,87.53 386.07,81.98 421.75,77.24 460.47,72.51 499.23,68.2 549.97,63.13 597.78,58.87"   /><polyline id="SvgjsPolyline11475" points="1.63,122.88 79.22,114.92 147.71,106.56 210.11,97.85 349.56,77.04 420.93,67.54 462.64,62.61 507.39,57.82 552.18,53.49 599.99,49.32"   /><polyline id="SvgjsPolyline11476" points="0.51,110.93 75.14,103.49 146.65,95.08 203.15,87.56 348.69,66.86 426.06,56.99 506.58,48.23 554.37,43.71 599.2,39.87"   /><polyline id="SvgjsPolyline11477" points="2.4,98.71 77.04,91.4 142.62,83.94 205.11,75.96 344.82,56.95 428.19,46.69 514.72,37.63 598.4,30.28"   /><polyline id="SvgjsPolyline11478" points="1.32,86.76 73,79.93 150.52,71.35 216.02,63.21 343.94,46.53 424.37,36.95 504.94,28.63 597.59,20.56"   /><polyline id="SvgjsPolyline11479" points="0.27,74.8 68.97,68.44 140.57,60.85 203.14,53.47 349.01,35.29 429.48,26.12 516.06,17.54 599.76,10.49"   /><polyline id="SvgjsPolyline11480" points="2.21,62.59 79.89,55.47 142.55,48.95 214.08,40.76 345.14,25.05 419.68,16.76 503.28,8.54 598.95,0.54"   /><polyline id="SvgjsPolyline11481" points="1.2,50.63 63.95,45.1 129.63,38.62 201.21,30.83 368.12,11.72 421.82,6.04 481.54,0.24"   /><polyline id="SvgjsPolyline11482" points="0.2,38.68 65.96,33 140.61,25.77 376.21,0.11"   /><polyline id="SvgjsPolyline11483" points="2.21,26.47 64.99,21.17 118.76,16.19 172.49,10.84 273.92,0.08"   /><polyline id="SvgjsPolyline11484" points="1.25,14.51 81.97,7.76 162.61,0.19"   /><polyline id="SvgjsPolyline11485" points="0.31,2.55 30.22,0.2"   /></g></svg>