<?xml version="1.0" standalone="no"?>
<svg id="SvgjsSvg1001" width="600" height="600" xmlns="http://www.w3.org/2000/svg" version="1.1" xmlns:xlink="http://www.w3.org/1999/xlink" xmlns:svgjs="http://svgjs.com/svgjs" class="svg-paper" viewBox="0 0 600 600"><title id="SvgjsTitle5729">x=y|y=cos(min(cos(x),y))|dTest=0.0|sd=0.2|sm=0.2|ts=0.05 | generated with FlowLines</title><style>*{fill:none;stroke:#777}</style><g id="SvgjsG5730"><polyline id="SvgjsPolyline5731" points="598.81,396.36 556.82,397.55 520.86,399.06 487.91,401 455.02,403.64 425.19,406.79 398.42,410.36 371.78,414.69 348.21,419.23 327.7,423.74 310.21,427.99 272.6,438.3 235.33,449.8 141.39,481.04 95.63,495.52 72.61,502.31 46.59,509.51 26.26,514.77 0,521.08"   /><polyline id="SvgjsPolyline5732" points="599.07,408.36 566.42,413.13 533.96,419.08 504.67,425.54 472.7,433.74 443.88,442.06 418.11,450.1 321.31,482.26 281.28,494.97 240.96,506.74 197.41,518.05 153.51,527.94 106.37,536.96 76.77,541.86 53.03,545.4 2.46,551.94"   /><polyline id="SvgjsPolyline5733" points="598.54,384.37 580.7,382.02 565.9,379.58 551.2,376.59 539.56,373.68 528.07,370.21 516.82,366.04 508.61,362.37 498.07,356.63 487.83,350.38 477.98,343.53 468.88,335.72 462.86,329.04 457.85,321.57 454.2,313.36 452.69,307.56 452.02,301.6 452.01,298.6 452.65,292.64 454.13,286.83 456.37,281.27 459.28,276.02 462.73,271.12 466.64,266.57 470.91,262.36 477.82,256.59 485.15,251.37 497.9,243.47 537,221.21 580.81,195.1 599.29,185.12"   /><polyline id="SvgjsPolyline5734" points="598.21,390.28 571.25,388.83 544.32,386.8 517.47,384.04 496.67,381.14 478.96,377.91 464.35,374.51 449.97,370.28 435.95,364.97 427.81,361.13 422.54,358.25 412.55,351.62 407.9,347.83 403.54,343.7 397.68,336.89 394.29,331.93 391.39,326.69 388.02,318.35 385.92,309.61 385.15,300.65 385.72,291.68 386.84,285.78 388.49,280.02 391.86,271.68 397.71,261.21 404.8,251.54 412.87,242.66 421.74,234.59 426.44,230.86 433.79,225.67 446.7,218.05 454.77,214.06 463.02,210.47 477.05,205.16 514.06,192.87 533.78,185.65 550.42,178.79 586.04,162.91 599.86,157.09"   /><polyline id="SvgjsPolyline5735" points="598.94,401.63 557.11,405.41 536.26,407.87 515.46,410.77 494.72,414.08 477.01,417.29 456.43,421.49 438.88,425.48 404.02,434.47 372.35,443.74 340.9,453.72 266.92,478.43 232.68,489.55 195.37,500.92 166.5,509.05 128.71,518.7 87.73,527.89 43.54,536.4 2.1,543.19"   /><polyline id="SvgjsPolyline5736" points="598,393.16 547.01,392.33 505.02,391.17 469.06,389.61 439.12,387.75 412.22,385.39 385.43,382.07 361.79,377.94 344.28,373.78 327.12,368.35 318.76,365.02 310.62,361.19 302.78,356.78 297.77,353.47 292.99,349.86 288.47,345.91 282.31,339.35 278.7,334.57 275.53,329.47 272.87,324.1 270.75,318.49 269.19,312.7 268.21,306.78 267.83,300.8 268.05,294.8 268.87,288.86 271.19,280.17 273.45,274.62 276.23,269.3 281.31,261.88 287.32,255.19 291.76,251.16 298.93,245.72 306.58,240.98 346.16,219.58 385.07,196.98 400.8,188.22 414.17,181.43 425.1,176.47 436.23,172 447.56,168.05 467.74,162.24 514.46,151.25 534.74,145.78 554.76,139.45 597.26,124.66"   /><polyline id="SvgjsPolyline5737" points="597.71,394.62 471.71,395.7 423.72,396.68 378.75,398.13 339.79,400 306.87,402.21 274,405.17 247.18,408.27 220.45,412.07 193.84,416.65 167.39,422.04 138.2,428.96 112.13,435.97 83.36,444.49 49.07,455.45 0.71,471.63"   /><polyline id="SvgjsPolyline5738" points="599.41,398.56 566.45,400.31 539.52,402.21 515.62,404.34 491.76,406.95 465,410.55 441.31,414.4 420.68,418.3 397.21,423.33 362.27,431.98 324.78,442.72 287.6,454.5 187.95,487.58 159.31,496.5 133.4,504.11 104.46,512.01 69.52,520.66 37.3,527.79 1.97,534.71"   /><polyline id="SvgjsPolyline5739" points="597.23,395.38 540.24,396.33 495.26,397.61 456.3,399.3 423.36,401.33 390.48,404.08 360.66,407.36 333.91,411.05 301.38,416.57 277.85,421.31 254.46,426.68 231.22,432.66 205.24,440.02 159.44,454.38 62.65,486.55 28.28,497.26 2.36,504.82"   /><polyline id="SvgjsPolyline5740" points="597.67,420.64 562.61,428.81 527.88,438.28 484.88,451.54 393.79,481.86 350.9,495.47 325.01,503.13 298.99,510.33 278.65,515.59 252.4,521.89 226.03,527.67 199.55,532.96 170.03,538.27 137.44,543.48 104.76,548.08 72.01,552.14 39.21,555.72 0.38,559.4"   /><polyline id="SvgjsPolyline5741" points="599.93,372.45 591.36,369.72 582.92,366.6 574.67,363.01 569.31,360.31 561.54,355.77 556.6,352.36 551.89,348.64 547.47,344.59 543.39,340.2 537.9,333.07 533.03,325.5 530.26,320.18 527.99,314.63 526.37,308.86 525.53,302.92 525.42,299.93 525.54,296.93 526.4,291 528.04,285.23 530.32,279.68 533.11,274.37 536.28,269.28 543.46,259.67 549.35,252.86 555.54,246.34 570.88,232 584.87,220.67 599.61,210.36"   /><polyline id="SvgjsPolyline5742" points="599.68,379.18 579.23,374.42 570.61,371.86 562.1,368.91 553.78,365.49 542.97,360.28 535.21,355.73 530.27,352.32 523.29,346.65 514.38,338.61 508.07,332.2 502.29,325.3 497.41,317.75 494.92,312.3 493.26,306.54 492.6,300.58 492.69,297.59 493.66,291.67 494.52,288.8 496.87,283.28 499.89,278.1 503.41,273.24 507.28,268.66 513.54,262.2 522.4,254.11 531.59,246.39 557.63,226.12 577.14,212.15 587.17,205.56 597.43,199.34"   /><polyline id="SvgjsPolyline5743" points="597.63,387.45 576.72,385.51 558.85,383.37 541.06,380.63 526.34,377.75 511.78,374.14 500.32,370.58 486.31,365.23 475.5,360.04 465.24,353.83 457.96,348.53 453.38,344.66 449.07,340.49 443.24,333.64 438.33,326.11 434.57,317.94 432.18,309.27 431.32,300.33 431.64,294.34 433.43,285.53 435.43,279.88 439.51,271.86 442.85,266.88 448.62,259.99 455.15,253.79 462.23,248.25 469.74,243.28 480.18,237.38 534.28,211.45 581.87,185.93 597.95,177.84"   /><polyline id="SvgjsPolyline5744" points="598.18,382.18 583.39,379.67 571.64,377.23 560,374.3 551.38,371.73 542.89,368.75 534.57,365.31 526.51,361.32 518.79,356.69 506.53,348.06 494.67,338.87 488.01,332.83 481.96,326.17 476.91,318.74 474.32,313.33 472.56,307.6 472.03,304.65 471.74,298.66 472.49,292.71 473.24,289.81 475.39,284.21 478.28,278.96 481.76,274.08 485.69,269.54 494.43,261.33 503.87,253.92 513.64,246.97 563.43,213.48 581.13,202.17 599.32,191.7"   /><polyline id="SvgjsPolyline5745" points="599.57,389.18 578.62,387.78 554.72,385.64 533.87,383.13 516.09,380.32 501.39,377.37 486.85,373.66 472.61,368.98 461.55,364.32 450.98,358.64 440.99,352.01 436.31,348.26 431.92,344.17 425.99,337.4 422.56,332.49 419.6,327.27 416.13,318.97 413.88,310.27 412.97,301.32 413.47,292.34 415.34,283.55 418.45,275.11 422.65,267.16 427.77,259.76 433.65,252.96 440.17,246.76 449.66,239.42 459.84,233.07 473.2,226.27 486.98,220.34 520.4,206.95 534.14,200.95 550.42,193.26 585.33,175.87 598.93,169.55"   /><polyline id="SvgjsPolyline5746" points="598.01,391.72 562.03,390.44 529.08,388.67 502.16,386.58 478.3,384.01 457.52,380.96 439.86,377.52 422.41,373.09 405.33,367.45 391.62,361.38 381.22,355.4 371.63,348.2 367.24,344.11 363.2,339.68 359.56,334.92 356.36,329.84 353.66,324.48 351.5,318.89 349.31,310.17 348.59,304.21 348.47,298.22 348.95,292.24 350.02,286.34 352.72,277.76 355.2,272.3 358.2,267.11 365.23,257.39 371.03,250.5 377.15,243.91 390.22,231.54 404.23,220.24 419.13,210.15 426.9,205.62 437.58,200.14 445.79,196.47 456.97,192.11 474.08,186.53 514.51,175.14 531.67,169.73 551.42,162.6 598.84,143.84"   /><polyline id="SvgjsPolyline5747" points="597.77,391.18 564.8,389.77 537.85,388.12 513.93,386.11 490.09,383.36 469.35,380.09 451.74,376.38 437.27,372.42 423.14,367.4 414.92,363.74 409.59,360.99 399.45,354.59 394.72,350.91 388.09,344.81 382.08,338.13 378.58,333.26 375.54,328.08 371.96,319.84 369.63,311.15 368.81,305.21 368.59,299.22 368.97,293.23 369.94,287.31 372.5,278.69 374.84,273.17 377.58,267.83 384.02,257.72 387.63,252.92 393.43,246.04 401.8,237.45 413.13,227.62 425.31,218.88 432.98,214.18 440.89,209.89 449.01,206.01 457.3,202.51 474.25,196.43 514.41,184.15 534.28,177.36 551.06,170.85 598.12,151.2"   /><polyline id="SvgjsPolyline5748" points="599.97,390.05 573.02,388.51 549.09,386.63 525.23,384.08 507.41,381.54 489.71,378.27 475.12,374.79 460.78,370.41 449.6,366.07 438.83,360.77 428.72,354.33 424,350.62 419.58,346.56 413.64,339.82 408.67,332.32 405.86,327.02 403.44,321.53 401.58,315.83 400.28,309.98 399.46,301.02 399.98,292.05 401.8,283.24 404.8,274.76 407.38,269.34 410.35,264.13 417.33,254.38 423.33,247.68 429.88,241.51 439.32,234.11 446.84,229.17 452.03,226.16 465.46,219.49 479.33,213.78 513.18,201.51 532.72,193.84 549.21,186.62 581.78,171.28 598.2,163.91"   /><polyline id="SvgjsPolyline5749" points="598.39,392.48 556.4,391.41 520.43,389.97 490.49,388.19 463.58,385.91 439.75,383.08 419.03,379.71 401.44,375.89 384.16,370.86 370.12,365.58 361.94,361.84 356.64,359.03 348.99,354.29 344.15,350.75 339.56,346.88 335.29,342.67 331.37,338.13 327.87,333.26 324.83,328.09 322.31,322.65 320.33,316.99 318.92,311.16 318.1,305.22 317.88,299.22 318.25,293.24 319.23,287.32 321.78,278.7 324.17,273.2 327.09,267.96 330.48,263.01 334.3,258.39 338.5,254.11 347.51,246.18 370.86,227.35 390.24,213.19 400.23,206.55 410.47,200.3 420.99,194.53 431.79,189.3 442.86,184.65 451.3,181.55 471.36,175.36 512.04,164.89 532.21,159.06 552.11,152.36 599.92,134.6"   /><polyline id="SvgjsPolyline5750" points="599.05,393.82 524.05,393.27 467.06,392.4 422.07,391.18 383.11,389.45 353.18,387.44 320.34,384.25 296.57,380.95 273.01,376.37 261.38,373.42 252.76,370.84 244.26,367.89 235.93,364.49 227.83,360.57 220.04,356.06 212.68,350.89 208.08,347.03 201.78,340.62 198.05,335.92 194.75,330.91 191.95,325.61 189.67,320.06 187.29,311.39 186.42,305.45 186.16,299.46 186.53,293.48 187.51,287.56 189.06,281.77 191.1,276.13 194.97,268 197.99,262.82 201.31,257.83 206.77,250.67 216.92,239.64 223.55,233.55 230.53,227.87 242.86,219.34 250.63,214.81 258.64,210.69 269.61,205.83 283.65,200.58 326.55,186.99 346.36,180.02 365.85,172.2 407.23,154.52 421.24,149.16 432.59,145.28 446.98,141.03 461.53,137.41 511.52,127.31 534.91,121.93 558.03,115.5 598.16,103.13"   /><polyline id="SvgjsPolyline5751" points="599.24,392.88 554.25,391.99 515.27,390.74 482.31,389.12 449.41,386.69 425.54,384.15 404.76,381.15 384.15,377.11 366.77,372.47 352.63,367.46 344.4,363.82 339.07,361.07 326.34,353.15 319.3,347.55 314.97,343.4 310.99,338.92 307.41,334.1 304.29,328.98 301.68,323.58 299.61,317.95 298.1,312.14 297.18,306.22 296.86,300.23 297.14,294.24 298.01,288.3 299.47,282.49 301.5,276.84 304.08,271.43 307.16,266.28 310.7,261.44 316.76,254.8 321.23,250.79 325.97,247.12 358.2,225.16 383.17,208.53 403.65,196.02 416.86,188.92 427.7,183.77 438.77,179.16 450.06,175.09 470.19,169.13 513.89,158.36 534.1,152.67 556.88,145.13 599.21,129.86"   /><polyline id="SvgjsPolyline5752" points="597.18,393.5 543.18,392.89 489.19,391.76 456.21,390.63 420.26,388.77 390.35,386.45 363.53,383.43 339.83,379.64 319.34,375.05 302.15,369.74 293.73,366.57 285.48,362.97 277.49,358.82 272.36,355.72 265.04,350.49 260.47,346.6 254.22,340.13 250.54,335.4 247.29,330.35 244.54,325.02 242.33,319.45 240.67,313.69 239.59,307.79 239.1,298.81 239.95,289.86 242.13,281.13 244.29,275.54 246.99,270.18 251.95,262.68 257.87,255.91 262.25,251.82 266.92,248.04 276.83,241.29 289.96,234.04 300.79,228.88 339.1,211.67 355.23,203.69 403.09,178.68 416.69,172.36 430.57,166.67 447.6,160.84 462.04,156.77 514.68,144.78 537.89,138.68 557.95,132.45 597.74,119.03"   /><polyline id="SvgjsPolyline5753" points="575.17,392.75 527.18,391.69 488.21,390.26 458.25,388.61 428.35,386.21 401.53,383.09 380.81,379.73 363.22,375.91 345.94,370.89 331.97,365.44 323.89,361.48 318.69,358.48 311.26,353.41 306.62,349.62 302.28,345.47 298.32,340.97 294.78,336.13 290.12,328.43 287.56,323.01 285.54,317.36 284.1,311.54 283.24,305.6 282.98,299.61 283.32,293.62 284.25,287.7 285.77,281.9 287.86,276.27 290.49,270.88 293.62,265.77 297.21,260.96 301.2,256.48 307.82,250.4 317.59,243.44 345.84,226.39 386.65,201.11 407.5,189.24 418.22,183.84 429.16,178.92 440.32,174.51 451.68,170.63 468.98,165.67 512.73,155.16 532.99,149.65 553,143.27 598.25,127.26"   /><polyline id="SvgjsPolyline5754" points="598.54,393.41 538.54,392.62 496.55,391.64 460.58,390.32 427.63,388.5 397.73,386.05 370.92,382.86 350.21,379.42 329.74,374.74 312.58,369.34 304.22,365.99 296.11,362.1 290.87,359.18 283.36,354.22 278.66,350.49 274.25,346.42 270.2,342 266.56,337.24 261.86,329.56 259.19,324.19 257.05,318.59 255.48,312.8 254.5,306.89 254.11,300.9 254.32,294.91 255.75,286.03 257.43,280.27 261,272.02 265.72,264.36 269.43,259.65 273.52,255.27 280.28,249.33 287.62,244.13 295.39,239.59 346.37,214.1 398.97,185.24 412.4,178.56 426.11,172.49 437.31,168.17 448.68,164.35 468.92,158.74 509.86,149.38 533.1,143.38 556.02,136.28 598.59,121.7"   /><polyline id="SvgjsPolyline5755" points="599.83,394.17 404.83,393.58 341.83,392.9 281.85,391.61 236.88,389.92 197.95,387.54 165.1,384.43 138.36,380.71 126.56,378.57 111.91,375.33 100.33,372.18 88.94,368.42 80.58,365.1 72.43,361.27 64.58,356.87 57.14,351.81 50.25,346.03 46.04,341.76 40.45,334.72 37.27,329.63 33.45,321.49 31.59,315.79 29.87,306.96 29.47,300.98 30,292 31.87,283.21 34.94,274.75 39.05,266.75 44.05,259.27 51.84,250.16 58.39,243.99 67.87,236.65 78.03,230.27 91.39,223.46 105.2,217.6 138.84,204.79 155.48,197.93 171.88,190.51 209.69,172.22 228.9,163.74 248.59,156.44 268.73,150.52 286.24,146.36 327.32,137.61 350.58,131.69 367.82,126.54 410.62,112.64 433.71,106.12 448.32,102.7 463.03,99.77 513.34,91.44 533.97,87.48 557.34,82.03 597.96,71.36"   /><polyline id="SvgjsPolyline5756" points="599.47,394.36 449.47,394.8 344.47,395.98 299.49,397.05 266.51,398.22 236.54,399.67 206.61,401.6 176.71,404.07 149.86,406.9 123.09,410.4 99.38,414.14 72.84,419.1 49.39,424.19 26.08,429.9 0.03,437.01"   /><polyline id="SvgjsPolyline5757" points="598.47,394.91 535.48,395.55 490.48,396.36 448.5,397.55 409.54,399.22 370.61,401.65 337.74,404.51 307.93,407.91 281.2,411.72 254.6,416.33 228.15,421.76 198.97,428.71 170,436.51 144.12,444.19 118.38,452.34 41.54,477.97 1.59,490.91"   /><polyline id="SvgjsPolyline5758" points="598.86,394.45 472.86,395.05 418.87,395.69 367.88,396.74 331.9,397.9 292.94,399.73 260.01,401.92 230.13,404.56 200.33,407.97 173.6,411.8 147,416.42 120.56,421.87 94.28,428.09 65.3,435.82 33.66,445.21 2.24,455.28"   /><polyline id="SvgjsPolyline5759" points="597.26,433 571.29,440.4 539.77,450.16 445.82,481.39 394.33,497.64 368.4,505.18 345.25,511.48 319.07,518.1 292.77,524.2 257.53,531.54 225.07,537.51 195.46,542.35 156.86,547.88 121.13,552.31 82.36,556.47 43.52,560.04 1.65,563.33"   /><polyline id="SvgjsPolyline5760" points="597.91,359.26 587.78,352.84 580.77,347.2 574.45,340.81 568.98,333.66 564.56,325.83 561.31,317.45 559.27,308.69 558.59,299.73 559.35,290.77 561.47,282.03 564.74,273.65 568.91,265.68 573.79,258.12 581.17,248.67 589.35,239.88 598.18,231.77"   /><polyline id="SvgjsPolyline5761" points="598.61,367.76 590.36,364.16 585.01,361.44 574.8,355.14 570.03,351.51 565.54,347.54 559.45,340.91 552.61,331.06 549.75,325.79 547.3,320.31 545.34,314.65 543.96,308.81 543.18,299.86 544.02,290.91 546.35,282.22 548.59,276.66 551.27,271.29 557.64,261.13 564.99,251.65 575.13,240.6 586.12,230.4 597.85,221.05"   /><polyline id="SvgjsPolyline5762" points="597.53,376.16 580.23,371.22 571.76,368.17 563.49,364.64 555.48,360.54 550.34,357.45 545.4,354.05 540.7,350.31 534.23,344.07 528.2,337.38 522.67,330.29 517.8,322.72 514.97,317.43 512.75,311.86 511.31,306.04 510.8,300.07 510.92,297.08 511.89,291.16 514.91,282.7 517.72,277.4 520.99,272.37 524.59,267.57 530.43,260.73 536.64,254.21 545.29,245.89 563.41,230.17 580.04,217.34 597.46,205.63"   /><polyline id="SvgjsPolyline5763" points="599.11,392.21 563.12,391.2 524.16,389.48 497.22,387.72 470.34,385.24 449.5,382.6 428.8,379.07 411.26,375.05 394.07,369.75 380.22,363.99 369.69,358.25 364.7,354.93 359.94,351.27 355.47,347.27 351.34,342.92 347.61,338.22 344.22,333.28 341.18,328.1 338.65,322.67 336.67,317 335.26,311.17 334.44,305.23 334.22,299.24 335.01,290.28 336.27,284.42 338.11,278.71 341.9,270.56 345.06,265.46 348.68,260.67 354.67,253.96 363.1,245.42 378.69,231.35 387.99,223.78 397.59,216.57 407.49,209.8 415.13,205.05 425.61,199.19 433.67,195.2 444.67,190.41 453.09,187.21 470.21,181.68 513.65,169.94 533.74,163.83 556.35,155.79 598.35,139.63"   /><polyline id="SvgjsPolyline5764" points="546.17,393.23 486.18,392.27 444.2,391.07 411.23,389.61 378.3,387.43 348.45,384.47 324.69,381.1 304.09,377.03 295.36,374.87 283.85,371.46 275.37,368.45 267.08,364.96 259.04,360.91 251.27,356.37 243.88,351.24 239.26,347.42 234.94,343.26 230.97,338.76 225.79,331.41 222.94,326.13 220.61,320.61 218.84,314.88 217.64,309 216.96,300.03 217.26,294.04 218.15,288.11 220.56,279.45 222.8,273.88 225.49,268.52 230.28,260.91 237.84,251.6 246.49,243.29 256,235.98 266.17,229.63 279.55,222.85 293.37,217.02 327.04,204.29 343.7,197.48 360.11,190.09 406.14,168.13 419.95,162.28 434.02,157.06 448.32,152.56 462.82,148.72 512.67,137.96 535.97,132.2 558.97,125.36 598.92,112.39"   /><polyline id="SvgjsPolyline5765" points="545.09,393.77 470.09,393.15 416.1,392.24 371.12,390.91 335.16,389.2 302.25,386.81 275.41,383.95 251.68,380.36 239.9,378.06 228.21,375.37 216.63,372.23 208.06,369.47 199.63,366.31 191.4,362.67 186.06,359.95 178.33,355.34 171.04,350.06 166.51,346.13 160.32,339.61 154.7,332.59 149.66,325.13 146.77,319.87 143.47,311.51 142.18,305.66 141.76,299.68 142.28,293.71 143.66,287.87 145.77,282.26 148.47,276.91 153.31,269.32 156.91,264.53 162.71,257.65 168.85,251.07 177.42,242.66 193.18,228.79 202.58,221.34 212.28,214.27 222.29,207.65 230.01,203.03 240.59,197.37 248.73,193.53 262.63,187.89 276.84,183.11 328.92,168.83 348.96,162.56 368.71,155.43 407.89,140.31 422.06,135.38 433.52,131.82 445.09,128.64 459.69,125.2 512.74,115.16 536.19,110.05 556.5,104.73 599.71,92.17"   /><polyline id="SvgjsPolyline5766" points="599.81,393.78 530.81,393.25 476.82,392.43 428.84,391.12 395.87,389.69 362.94,387.55 333.08,384.65 306.35,380.85 285.77,376.69 274.16,373.66 265.57,370.99 257.12,367.9 248.86,364.32 240.87,360.18 235.75,357.05 228.48,351.76 223.97,347.81 219.79,343.5 216.01,338.85 210.94,331.41 208.09,326.14 204.8,317.77 203.31,311.96 202.41,306.03 202.11,300.04 202.41,294.05 203.29,288.11 204.73,282.29 206.67,276.62 209.07,271.12 211.87,265.81 216.71,258.23 220.32,253.44 224.19,248.86 230.44,242.38 237.16,236.4 241.87,232.68 254.34,224.35 267.58,217.32 275.8,213.65 286.96,209.25 326.67,195.57 343.52,189.24 362.87,181.09 406.63,161.36 420.54,155.76 434.69,150.77 449.05,146.46 463.6,142.79 513.52,132.39 536.85,126.76 559.9,120.07 599.94,107.41"   /><polyline id="SvgjsPolyline5767" points="461.17,392.74 410.18,391.58 377.2,390.36 344.25,388.56 311.37,385.84 287.54,382.99 263.87,379.01 243.44,374.19 234.82,371.6 226.34,368.6 218.03,365.14 209.98,361.12 202.28,356.46 197.41,352.96 190.46,347.25 186.15,343.07 180.37,336.18 177.06,331.18 174.2,325.91 170.72,317.61 169.05,311.85 168,305.95 167.65,299.96 168.01,293.98 169.07,288.07 171.79,279.5 174.24,274.03 177.08,268.74 180.25,263.65 185.48,256.33 195.2,244.91 205.86,234.37 212.64,228.45 219.69,222.85 232,214.28 244.96,206.74 258.49,200.27 269.63,195.82 280.97,191.91 327.03,178.39 346.97,171.81 366.6,164.37 408.3,147.44 419.56,143.3 433.81,138.63 448.26,134.58 462.85,131.13 512.91,121.38 536.32,116.1 559.47,109.78 599.7,97.72"   /><polyline id="SvgjsPolyline5768" points="494.83,393.7 434.83,393.19 368.84,392.03 323.87,390.56 290.91,388.85 261,386.56 234.17,383.6 210.46,379.87 189.95,375.37 178.38,372.19 166.99,368.42 158.63,365.1 150.48,361.28 142.63,356.88 132.7,350.15 123.04,343.04 113.84,335.34 107.51,328.95 103.72,324.3 100.42,319.29 97.75,313.92 95.89,308.22 94.98,302.3 95.1,296.31 96.25,290.42 97.17,287.57 99.64,282.1 102.79,277 106.46,272.26 110.52,267.85 114.88,263.72 126.54,254.3 141.25,243.92 176.08,220.45 203.75,202.47 216.67,194.86 227.25,189.19 238.07,184 246.34,180.46 260.4,175.23 274.72,170.8 289.22,166.95 327.11,157.69 347.3,151.94 367.23,145.33 409.56,130.06 423.83,125.43 435.36,122.1 449.91,118.45 461.64,115.92 511.83,106.91 535.33,102.04 558.6,96.17 599.04,84.83"   /><polyline id="SvgjsPolyline5769" points="598.55,394.25 169.55,394.37 1.55,395"   /><polyline id="SvgjsPolyline5770" points="597.24,394.12 423.24,393.39 363.25,392.57 315.26,391.37 273.3,389.6 240.38,387.41 210.52,384.45 183.81,380.56 172.03,378.29 160.34,375.58 148.79,372.32 140.26,369.44 129.09,365.06 120.95,361.23 110.46,355.41 100.29,349.03 93.04,343.71 86.27,337.79 80.2,331.15 76.67,326.3 72.38,318.4 70.32,312.77 68.98,306.92 68.45,300.95 68.73,294.96 69.81,289.07 71.65,283.36 75.66,275.31 79.03,270.36 84.92,263.55 89.27,259.43 96.29,253.8 103.71,248.72 114.01,242.55 158.91,218.37 205.71,191.43 221.64,183.05 238,175.55 254.82,169.15 272.02,163.87 286.55,160.13 327.45,150.6 350.59,144.22 367.72,138.71 410.23,123.94 424.54,119.47 436.11,116.26 447.76,113.4 462.44,110.3 512.68,101.54 533.27,97.41 556.59,91.76 599.99,79.89"   /><polyline id="SvgjsPolyline5771" points="495.38,394.12 345.38,393.58 252.39,392.36 189.42,390.4 156.47,388.61 132.54,386.77 108.67,384.27 84.92,380.85 67.23,377.53 52.64,374.05 38.29,369.7 24.33,364.23 16.24,360.28 11.03,357.32 1.16,350.5"   /><polyline id="SvgjsPolyline5772" points="526.34,394.04 424.35,393.6 361.35,392.94 313.36,392.01 265.39,390.39 226.45,388.19 193.58,385.28 166.81,381.75 154.99,379.71 143.24,377.27 131.6,374.36 120.13,370.85 108.91,366.6 100.74,362.82 92.89,358.43 82.94,351.73 75.91,346.11 71.54,341.99 67.48,337.58 62.1,330.38 59.06,325.2 55.5,316.95 53.88,311.17 52.7,302.26 53.09,293.28 54.22,287.39 56,281.66 58.37,276.16 61.28,270.91 66.51,263.59 70.48,259.1 77.03,252.93 81.71,249.18 89.11,244.06 96.83,239.44 107.47,233.89 142.86,217.51 159.04,209.61 214.73,180.17 228.3,173.78 242.16,168.05 256.31,163.07 273.59,158.06 326.22,145.98 346.54,140.66 366.61,134.5 412.09,119.15 435.14,112.48 446.8,109.65 461.48,106.59 511.75,97.97 532.36,93.95 558.62,87.67 599.17,76.73"   /><polyline id="SvgjsPolyline5773" points="597.94,394.19 375.94,393.59 312.94,392.92 261.95,391.9 216.98,390.33 181.04,388.31 145.18,385.14 118.42,381.55 103.66,378.88 91.94,376.29 80.36,373.18 71.79,370.43 60.6,366.09 52.48,362.22 44.63,357.81 37.1,352.89 30.09,347.26 23.75,340.87 18.28,333.74 15.2,328.59 12.62,323.17 9.79,314.64 8.25,305.78 7.97,299.79 8.29,293.8 9.21,287.87 10.67,282.06 13.8,273.63 16.42,268.23 21.01,260.49 26.29,253.2 32.13,246.36 38.46,239.97 42.93,235.96 49.95,230.34 57.33,225.18 65.01,220.49 72.95,216.26 81.1,212.44 89.41,208.99 103.5,203.86 134.84,193.53 151.79,187.48 174.03,178.44 209.65,162.57 223.48,156.77 240.34,150.48 257.53,145.12 277.9,140.03 321.99,131.04 345.36,125.61 365.59,119.97 414.29,104.84 437.49,98.7 463.95,93.31 511.34,85.72 534.93,81.33 555.42,76.7 599.02,65.56"   /><polyline id="SvgjsPolyline5774" points="508.05,394.37 379.05,394.75 301.05,395.42 238.06,396.56 178.1,398.61 127.19,401.61 82.38,405.71 61.53,408.19 40.73,411.07 19.99,414.41 2.29,417.66"   /><polyline id="SvgjsPolyline5775" points="597.54,445.36 568.97,454.5 477.88,484.82 429.18,499.94 397.42,508.92 368.38,516.45 339.19,523.34 309.85,529.6 280.38,535.25 244.89,541.28 206.31,546.96 167.62,551.86 128.85,556.08 84.04,560.22 45.16,563.27 0.26,566.26"   /><polyline id="SvgjsPolyline5776" points="599.17,346.06 592.99,339.52 589.36,334.75 586.18,329.66 583.5,324.3 581.35,318.7 579.77,312.91 578.78,307 578.37,301.01 578.57,295.02 579.36,289.07 580.71,283.23 583.69,274.74 586.22,269.3 590.73,261.52 594.15,256.58 599.78,249.57"   /><polyline id="SvgjsPolyline5777" points="469.89,393.37 412.9,392.59 367.91,391.5 328.94,389.96 296,387.96 266.13,385.26 239.36,381.72 215.79,377.23 198.39,372.63 187.04,368.76 178.72,365.32 170.66,361.33 162.94,356.7 158.05,353.23 153.42,349.41 144.57,341.3 136.2,332.71 130.5,325.76 127.14,320.78 124.31,315.5 122.18,309.9 121.43,306.99 120.71,301.04 121.06,295.06 122.45,289.23 124.7,283.67 127.62,278.44 131.04,273.51 134.82,268.85 140.95,262.26 147.43,256.01 165.6,240.34 186.85,223.69 198.99,214.88 208.93,208.15 219.1,201.8 229.55,195.89 237.57,191.81 248.5,186.86 262.5,181.49 276.79,176.93 326.13,164.04 346.28,158.11 366.14,151.31 411.13,134.58 425.37,129.88 436.89,126.51 448.51,123.52 463.16,120.28 513.32,111.07 533.86,106.72 557.11,100.79 597.49,89.23"   /><polyline id="SvgjsPolyline5778" points="595.61,393.96 517.62,393.56 454.62,392.86 400.63,391.71 361.66,390.29 328.71,388.45 295.83,385.68 269.04,382.33 245.42,378.09 233.74,375.34 225.07,372.92 216.52,370.13 208.12,366.91 199.93,363.17 192.04,358.84 184.57,353.82 179.9,350.06 173.48,343.77 169.67,339.13 164.63,331.68 161.69,326.45 159.19,321 157.26,315.32 155.29,306.55 154.81,300.57 155.14,294.58 156.25,288.69 158.05,282.97 161.79,274.79 164.81,269.61 169.9,262.19 175.51,255.15 181.48,248.42 187.75,241.96 196.49,233.74 205.62,225.96 212.72,220.43 220.03,215.18 230.11,208.66 237.9,204.17 248.6,198.74 262.4,192.86 276.54,187.88 290.91,183.56 325.6,173.96 348.47,166.68 368.17,159.4 407.22,143.95 421.35,138.9 432.78,135.25 447.23,131.24 461.84,127.82 514.87,117.65 535.36,113.09 555.67,107.73 598.83,95.01"   /><polyline id="SvgjsPolyline5779" points="596.48,394.06 500.48,393.7 431.48,393.07 377.49,392.09 335.51,390.78 299.56,389 266.65,386.51 239.82,383.51 216.12,379.76 195.62,375.21 186.96,372.77 175.6,368.92 167.27,365.51 159.19,361.55 151.45,356.96 146.55,353.51 134.79,344.19 128.04,338.24 121.72,331.84 116.12,324.8 113.01,319.67 110.61,314.18 108.24,305.51 107.77,299.53 108.41,293.57 110.06,287.81 112.56,282.37 115.73,277.27 119.38,272.52 123.39,268.05 129.85,261.79 136.65,255.9 148.39,246.56 165.19,233.96 184.65,219.91 199.5,209.74 209.6,203.26 222.53,195.67 233.16,190.1 244.05,185.06 258,179.56 275.13,174.03 289.61,170.11 327.44,160.63 347.6,154.76 367.49,148.03 412.58,131.56 435.5,124.48 447.12,121.48 461.76,118.23 514.89,108.55 535.43,104.19 555.79,99.05 599.09,86.81"   /><polyline id="SvgjsPolyline5780" points="425.51,393.28 365.52,392.36 323.54,391.22 284.57,389.51 254.64,387.53 227.76,384.97 203.98,381.78 183.33,377.96 171.66,375.19 163,372.74 154.45,369.93 146.06,366.67 137.89,362.9 132.61,360.05 122.35,353.82 112.37,347.17 105.23,341.7 98.58,335.63 94.55,331.19 90.96,326.39 87.93,321.21 84.31,312.98 82.76,307.19 82.1,301.23 82.38,295.24 83.57,289.37 84.49,286.52 86.9,281.03 89.98,275.88 93.6,271.1 97.64,266.66 102,262.55 106.61,258.71 113.85,253.36 126.42,245.18 205.76,196.67 216.22,190.79 226.88,185.28 235.02,181.43 246.07,176.76 260.17,171.65 274.53,167.32 289.05,163.56 324.08,155.24 347.21,148.87 364.35,143.36 412.44,126.4 435.43,119.5 449.99,115.9 464.67,112.83 511.94,104.5 532.52,100.35 558.74,93.88 599.2,82.64"   /><polyline id="SvgjsPolyline5781" points="421.09,394.1 316.09,393.77 241.09,393.15 178.1,392.03 136.12,390.68 94.18,388.45 61.3,385.68 46.4,383.97 28.58,381.46 13.8,378.9 2.06,376.43"   /><polyline id="SvgjsPolyline5782" points="252.52,392.09 195.56,390.13 168.6,388.62 144.67,386.78 126.76,384.98 105.94,382.25 91.15,379.76 76.47,376.66 61.99,372.77 50.62,368.92 39.57,364.26 29.01,358.57 21.57,353.51 14.71,347.7 6.67,338.8 1.49,331.45"   /><polyline id="SvgjsPolyline5783" points="0.27,275.26 4.26,267.2 10.72,257.09 18.18,247.7 24.31,241.11 30.82,234.9 40.05,227.23 49.83,220.29 60.1,214.09 73.52,207.4 90.23,200.73 104.46,195.98 138.86,185.35 158.68,178.42 178.18,170.64 214.06,155.34 233.65,147.8 250.77,142.23 268.16,137.59 285.74,133.72 326.94,125.58 350.29,120.06 370.5,114.36 413.54,101.21 436.76,95.15 463.22,89.8 513.59,81.84 534.24,78.03 557.66,72.79 598.38,62.5"   /><polyline id="SvgjsPolyline5784" points="598.26,457.71 507.15,487.96 475.63,497.73 452.59,504.45 423.64,512.32 391.61,520.26 359.4,527.43 327.03,533.85 294.53,539.56 258.95,545.05 217.32,550.58 181.55,554.66 136.76,559.03 91.91,562.7 44.03,565.97 2.1,568.38"   /><polyline id="SvgjsPolyline5785" points="599.23,327.92 596.72,322.47 593.99,313.9 592.89,308.01 592.36,299.03 593.18,290.08 594.46,284.22 596.28,278.5 599.9,270.27"   /><polyline id="SvgjsPolyline5786" points="0.98,250.09 7.03,243.43 15.59,235.02 24.65,227.15 31.75,221.62 39.09,216.42 46.68,211.58 54.49,207.11 65.22,201.75 76.27,197.06 90.39,192 136.44,178.5 159.25,171.03 178.89,163.59 220.6,146.72 240.41,139.76 257.7,134.73 272.28,131.21 325.27,120.85 348.67,115.54 368.94,110.03 414.94,96.35 438.21,90.48 461.75,85.82 509.19,78.47 532.82,74.3 559.19,68.51 599.95,58.37"   /><polyline id="SvgjsPolyline5787" points="599.2,470.04 556.49,484.22 527.9,493.3 496.28,502.75 464.46,511.51 435.37,518.83 400.26,526.77 370.85,532.7 338.37,538.54 305.78,543.72 270.13,548.68 234.39,553.01 189.63,557.64 150.78,561.05 105.9,564.4 49.01,567.89 1.07,570.29"   /><polyline id="SvgjsPolyline5788" points="0.58,232.84 16.95,219.7 26.72,212.73 34.26,207.81 49.89,198.9 66.22,191.34 77.43,187.07 91.7,182.44 138.02,169.84 158.08,163.66 177.86,156.61 219.85,140.41 242.6,132.78 257.05,128.77 271.65,125.34 324.71,115.29 348.15,110.15 371.34,104 411.66,92.24 437.85,85.69 464.37,80.62 511.83,73.45 535.46,69.26 558.91,64.16 599.71,54.2"   /><polyline id="SvgjsPolyline5789" points="597.33,483.33 563.02,494.22 531.38,503.61 505.35,510.78 473.36,518.86 441.18,526.17 411.78,532.16 376.36,538.56 340.8,544.17 305.13,549.08 272.37,553.02 233.58,557.08 188.76,561.06 146.88,564.2 101.97,567.05 51.04,569.74 0.09,571.95"   /><polyline id="SvgjsPolyline5790" points="2.36,215.8 22.42,202.64 38.03,193.68 54.21,185.81 68.13,180.21 79.48,176.35 90.99,172.94 137.52,161.15 157.7,155.33 180.43,147.64 219.84,133.14 234.07,128.4 245.58,124.98 260.1,121.23 274.75,118.03 321.99,109.49 345.49,104.62 365.86,99.53 414.95,85.73 438.29,80.13 461.87,75.68 512.32,68.19 533.01,64.64 556.5,59.73 597.35,49.96"   /><polyline id="SvgjsPolyline5791" points="598.18,495.67 566.52,504.96 537.56,512.8 505.52,520.69 479.17,526.58 446.82,533.09 411.37,539.38 378.77,544.46 346.07,548.95 310.33,553.24 268.55,557.55 232.69,560.73 193.81,563.71 157.89,566.09 106.97,568.95 53.03,571.43 2.06,573.35"   /><polyline id="SvgjsPolyline5792" points="0.59,202.48 18.78,191.98 34.7,183.59 51.08,176.12 65.08,170.76 76.49,167.04 88.03,163.77 137.65,151.96 157.91,146.46 177.92,140.1 223.25,124.32 246.25,117.45 260.81,113.87 275.5,110.81 322.78,102.57 346.31,97.83 366.71,92.86 415.91,79.44 439.29,74.02 462.9,69.74 510.41,62.88 531.13,59.47 557.59,54.08 598.48,44.5"   /><polyline id="SvgjsPolyline5793" points="598.79,508.03 569.77,515.63 540.59,522.59 514.2,528.32 484.76,534.1 452.26,539.78 422.61,544.38 389.92,548.88 354.18,553.18 321.36,556.63 285.51,559.93 243.64,563.24 198.74,566.24 153.81,568.77 99.87,571.28 0.94,574.75"   /><polyline id="SvgjsPolyline5794" points="2.32,187.54 23.74,176.72 37.35,170.43 51.23,164.74 65.38,159.76 76.87,156.32 88.48,153.28 138.27,142.21 158.6,136.99 178.71,130.92 224.27,115.83 247.36,109.3 259.04,106.53 273.74,103.54 324.02,95.05 347.57,90.42 368,85.56 414.4,73.26 437.79,67.92 461.41,63.68 511.91,56.55 535.59,52.64 559.11,47.85 597.12,39.13"   /><polyline id="SvgjsPolyline5795" points="599.03,520.4 572.69,526.31 540.34,532.85 510.82,538.17 484.17,542.49 451.51,547.21 418.77,551.37 385.98,555.04 353.13,558.27 281.37,564.04 203.51,568.73 149.57,571.25 101.6,573.1 2.65,576.01"   /><polyline id="SvgjsPolyline5796" points="2.16,174.12 21.26,165.39 37.83,158.36 51.88,153.1 66.15,148.5 89.38,142.49 136.38,132.74 156.81,127.87 179.89,121.3 225.67,106.88 248.86,100.68 272.34,95.76 325.64,87.07 346.27,83.15 369.66,77.78 416.15,65.85 439.6,60.74 463.25,56.69 510.81,50.19 534.51,46.41 555.12,42.4 599.04,32.61"   /><polyline id="SvgjsPolyline5797" points="598.83,532.77 569.3,538.1 539.69,542.88 509.99,547.15 483.22,550.6 453.41,554.04 420.58,557.39 357.81,562.71 285.96,567.41 205.06,571.36 109.12,574.72 1.15,577.31"   /><polyline id="SvgjsPolyline5798" points="2.58,160.71 35.94,147.18 50.09,142.19 64.43,137.81 87.73,132.08 134.84,122.88 158.26,117.61 178.53,112.13 227.39,97.52 250.66,91.66 274.2,87.03 324.59,79.16 348.2,74.82 371.61,69.55 415.28,58.68 438.75,53.68 462.41,49.71 512.97,42.96 533.71,39.72 557.29,35.23 598.32,26.28"   /><polyline id="SvgjsPolyline5799" points="598.1,545.12 541.57,552.41 484.88,558.26 425.08,563.18 353.23,567.76 284.31,571.12 197.37,574.28 104.4,576.7 2.41,578.55"   /><polyline id="SvgjsPolyline5800" points="0.71,148.48 37.25,134.85 51.52,130.22 63.06,126.93 86.42,121.46 133.63,112.77 157.11,107.81 177.46,102.64 226.5,88.65 249.82,82.98 273.39,78.48 323.83,70.9 347.46,66.74 368,62.34 417.59,50.46 441.11,45.7 461.85,42.36 512.42,35.8 533.18,32.66 556.78,28.3 597.87,19.57"   /><polyline id="SvgjsPolyline5801" points="599.81,557 546.02,561.71 486.16,565.92 423.26,569.41 354.33,572.39 285.37,574.69 192.39,576.99 96.41,578.67 0.42,579.85"   /><polyline id="SvgjsPolyline5802" points="2.01,135.13 36.03,123.34 50.37,118.95 61.95,115.82 73.63,113.05 88.32,110.04 135.61,101.83 156.2,97.7 179.53,92.04 225.83,79.4 249.19,73.92 272.79,69.57 326.23,61.81 346.93,58.26 370.43,53.38 414.25,43.16 437.78,38.41 461.47,34.63 512.07,28.25 535.81,24.72 556.47,20.97 597.6,12.46"   /><polyline id="SvgjsPolyline5803" points="597.97,569.23 547.02,571.54 484.06,573.84 361.11,577.04 196.13,579.59 1.13,581.17"   /><polyline id="SvgjsPolyline5804" points="0.84,122.82 37.96,110.86 52.39,106.78 64.04,103.88 87.54,99.06 134.91,91.27 158.47,86.74 178.93,81.99 228.28,69.15 251.72,64 275.37,59.92 322.92,53.34 346.61,49.49 370.14,44.78 416.97,34.26 440.54,29.75 464.27,26.19 511.92,20.38 532.71,17.43 559.3,12.74 597.53,5.01"   /><polyline id="SvgjsPolyline5805" points="598.57,581.22 361.57,582.09 1.57,582.56"   /><polyline id="SvgjsPolyline5806" points="2.78,109.55 37.24,99.14 63.41,92.5 86.96,87.9 134.38,80.49 157.99,76.2 181.42,70.97 227.99,59.36 251.47,54.39 275.14,50.46 322.72,44.11 346.43,40.4 369.99,35.85 419.84,25.06 443.46,20.8 464.24,17.82 508.93,12.55 529.75,9.76 553.42,5.84 582.87,0.11"   /><polyline id="SvgjsPolyline5807" points="598.63,593.22 481.68,589.76 346.71,587.14 190.72,585.29 1.72,584.06"   /><polyline id="SvgjsPolyline5808" points="2.12,97.2 36.74,87.35 62.99,81.02 86.58,76.64 134.06,69.58 160.65,64.92 184.1,59.82 227.86,49.35 251.38,44.56 272.11,41.19 322.69,34.65 346.42,31.07 370.01,26.67 416.98,16.79 440.6,12.55 461.39,9.57 512.05,3.72 538.79,0.02"   /><polyline id="SvgjsPolyline5809" points="397.48,599.99 319.58,596.06 223.65,592.37 115.7,589.39 1.72,587.22"   /><polyline id="SvgjsPolyline5810" points="1.67,84.84 39.34,74.76 62.75,69.47 86.38,65.28 133.91,58.55 157.59,54.64 181.1,49.86 227.89,39.14 248.49,35.06 275.16,30.88 322.8,24.98 343.58,22 367.22,17.83 426.05,6.05 443.81,3.13 464.62,0.33"   /><polyline id="SvgjsPolyline5811" points="46.49,599.98 1.56,597.6"   /><polyline id="SvgjsPolyline5812" points="1.42,72.48 42.14,62.2 68.58,56.74 86.35,53.84 133.91,47.41 157.62,43.67 181.17,39.08 228.05,28.76 251.64,24.33 272.4,21.21 323.04,15.12 343.84,12.23 370.44,7.64 408.69,0.04"   /><polyline id="SvgjsPolyline5813" points="1.34,60.11 39.25,50.97 62.76,46.15 86.46,42.33 134.06,36.18 157.79,32.59 181.38,28.17 228.34,18.24 248.99,14.46 275.71,10.59 332.33,3.96 356.06,0.42"   /><polyline id="SvgjsPolyline5814" points="1.42,47.75 36.49,39.65 62.98,34.41 86.7,30.77 134.33,24.87 158.08,21.41 181.7,17.15 234.63,6.47 255.35,3.02 276.16,0.22"   /><polyline id="SvgjsPolyline5815" points="1.63,35.38 39.72,27.03 63.32,22.63 90.04,18.76 131.75,13.85 152.56,11.05 179.18,6.58 211.56,0.2"   /><polyline id="SvgjsPolyline5816" points="1.97,23.02 40.14,15.02 66.73,10.35 90.51,7.11 150.09,0.1"   /><polyline id="SvgjsPolyline5817" points="2.42,10.66 34.76,4.11 55.42,0.37"   /></g></svg>