<?xml version="1.0" standalone="no"?>
<svg id="SvgjsSvg1001" width="600" height="600" xmlns="http://www.w3.org/2000/svg" version="1.1" xmlns:xlink="http://www.w3.org/1999/xlink" xmlns:svgjs="http://svgjs.com/svgjs" class="svg-paper" viewBox="0 0 600 600"><title id="SvgjsTitle1278">x=(x-y)|y=cos(y)|dTest=0.0|sd=0.2|sm=0.2|ts=0.05 | generated with FlowLines</title><style>*{fill:none;stroke:#777}</style><g id="SvgjsG1279"><polyline id="SvgjsPolyline1280" points="206.78,394.11 197.89,395.47 186.22,398.28 174.74,401.75 163.45,405.81 152.36,410.4 141.5,415.5 130.88,421.08 120.51,427.11 105.43,436.93 88.52,449.39 72.24,462.65 40.52,490.18 26.71,501.72 12.42,512.67 0,521.08"   /><polyline id="SvgjsPolyline1281" points="209.59,393.79 211.74,391.71 210.98,388.83 209.27,386.37 207.19,384.22 202.65,380.29 197.82,376.73 190.17,371.99 179.58,366.35 165.99,360.02 152.14,354.26 138.12,348.93 121.12,343.02 86.71,332.44 63.55,326.16 43.17,321.09 2.16,312"   /><polyline id="SvgjsPolyline1282" points="207.46,394.14 201.47,394.54 200.55,397.35 201.97,399.97 206.25,404.16 213.52,409.45 221.25,414.07 229.23,418.21 248.4,426.79 273.64,436.37 299.27,444.84 328.07,453.26 357.1,460.83 383.38,467.01 415.66,473.87 445.12,479.52 480.59,485.65 519.14,491.61 560.74,497.33 599.45,502.08"   /><polyline id="SvgjsPolyline1283" points="206,394.13 200.15,395.43 197.4,396.62 194.89,398.26 192.88,400.48 191.7,403.23 191.46,406.21 192.47,412.12 194.72,417.66 196.27,420.23 199.87,425.03 206.11,431.5 212.97,437.33 220.22,442.66 230.32,449.13 240.78,455.02 251.49,460.42 265.16,466.58 279.08,472.19 293.17,477.31 318.9,485.5 347.86,493.31 382.97,501.25 418.34,507.96 459.82,514.56 501.45,520.13 549.15,525.5 599.92,530.3"   /><polyline id="SvgjsPolyline1284" points="208.38,394.72 206.05,392.86 203.34,391.57 189.16,386.7 166.04,380.25 139.81,373.86 107.59,366.75 72.31,359.59 36.93,352.94 1.47,346.72"   /><polyline id="SvgjsPolyline1285" points="197.85,395.98 192.3,398.26 189.67,399.7 184.84,403.25 180.92,407.77 179.45,410.39 177.31,415.99 176.2,421.87 176.14,424.87 176.93,430.81 178.7,436.53 182.74,444.57 187.95,451.9 193.98,458.57 202.91,466.58 212.57,473.69 222.75,480.03 233.31,485.73 244.16,490.86 258.02,496.58 272.14,501.66 286.44,506.19 300.87,510.25 315.42,513.91 330.05,517.23 350.64,521.37 389.09,527.84 436.68,534.15 484.41,539.16 541.21,543.92 598.08,547.74"   /><polyline id="SvgjsPolyline1286" points="207.18,394.27 0.21,390.6"   /><polyline id="SvgjsPolyline1287" points="208.27,394.37 205.27,394.22 199.38,395.37 193.63,397.06 188.02,399.18 182.6,401.74 177.41,404.76 172.53,408.25 168.05,412.24 164.09,416.74 160.6,421.61 156.3,429.5 153.6,438.08 152.77,444.01 152.73,450.01 154.07,458.9 155.83,464.63 158.21,470.13 162.78,477.88 166.39,482.67 170.37,487.15 179.24,495.22 189,502.2 199.37,508.22 212.93,514.64 224.09,519.05 238.3,523.82 252.73,527.92 267.3,531.49 284.92,535.19 305.59,538.88 344.2,544.38 391.92,549.49 448.74,554.02 517.62,558.07 598.54,561.56"   /><polyline id="SvgjsPolyline1288" points="200.29,395.09 188.74,398.31 180.33,401.52 174.88,404.02 169.57,406.81 161.93,411.56 152.49,418.96 148.17,423.12 142.21,429.86 138.54,434.61 135.22,439.6 132.29,444.84 129.77,450.28 127.71,455.92 126.14,461.7 125.1,467.61 124.62,473.59 125.04,482.57 126.12,488.47 127.87,494.2 131.71,502.33 136.87,509.7 140.92,514.12 145.36,518.15 150.12,521.8 155.13,525.1 160.33,528.08 168.42,532.04 179.55,536.5 193.84,541.07 208.37,544.8 223.04,547.9 240.77,550.99 258.59,553.56 279.44,556.07 303.32,558.45 357.17,562.48 426.07,566.01 504.03,568.75 600,571.09"   /><polyline id="SvgjsPolyline1289" points="198.53,395.02 165.92,400.07 118.76,409.03 65.95,420.29 1.59,434.92"   /><polyline id="SvgjsPolyline1290" points="192.3,396.96 178.05,401.61 164.3,407.61 151.2,414.89 138.9,423.47 127.58,433.3 117.37,444.28 108.18,456.13 100.32,468.89 96.31,476.95 93.97,482.47 90.2,493.86 88.84,499.7 87.93,505.63 87.54,511.61 87.79,517.61 88.8,523.52 89.63,526.4 91.98,531.91 93.5,534.5 95.24,536.94 99.28,541.37 103.92,545.16 108.98,548.38 117.07,552.32 128.37,556.34 139.97,559.38 151.73,561.78 166.54,564.13 184.41,566.33 208.31,568.54 232.25,570.21 286.18,572.82 367.15,575.17 478.13,577.02 598.13,578.21"   /><polyline id="SvgjsPolyline1291" points="195.59,395.76 178,399.6 160.62,404.27 140.59,410.56 117.99,418.65 95.69,427.51 73.6,436.9 2.49,468.95"   /><polyline id="SvgjsPolyline1292" points="192.77,396.72 181.25,400.08 167.2,405.32 153.59,411.62 140.51,418.96 128.04,427.28 116.25,436.55 105.17,446.66 94.84,457.53 83.29,471.33 70.9,488.28 59.61,505.99 49.29,524.27 39.91,543.06 36.29,551.3 33.16,559.73 31.7,565.55 31.43,568.53 31.81,571.49 33.22,574.12 35.54,576 38.27,577.23 44.09,578.69 50.03,579.51 67.98,580.72 97.97,581.49 232.97,582.28 598.97,582.57"   /><polyline id="SvgjsPolyline1293" points="186.96,397.83 169.64,402.72 149.83,409.68 130.46,417.8 111.56,426.94 95.7,435.46 80.13,444.47 21.49,480.85 0.81,493.02"   /><polyline id="SvgjsPolyline1294" points="178.13,400.91 169.66,403.93 158.56,408.5 147.73,413.66 139.8,417.91 129.5,424.06 121.99,429.03 114.67,434.27 105.23,441.67 91.69,453.53 76.78,468.31 64.56,481.53 36.71,512.97 26.38,523.84 19.9,530.08 13.13,536.01 8.43,539.75 1.09,544.94"   /><polyline id="SvgjsPolyline1295" points="171.69,402.46 154.78,408.62 138.28,415.81 122.22,423.92 106.6,432.87 93.91,440.86 81.48,449.25 25.67,489.83 13.28,498.29 0.61,506.31"   /><polyline id="SvgjsPolyline1296" points="210.13,393.47 212.95,392.43 215.58,390.99 217.84,389.03 219.4,386.47 220,383.54 219.52,377.56 218.76,374.66 216.19,369.25 212.75,364.35 208.78,359.85 199.9,351.79 187.75,343.01 172.26,333.84 156.16,325.81 139.63,318.68 119.97,311.31 100.01,304.78 76.94,298.19 53.65,292.37 30.22,287.2 0.76,281.51"   /><polyline id="SvgjsPolyline1297" points="203.05,393.15 205.78,394.35 208.73,393.84 211.58,392.9 214.18,391.4 216,389.03 216.43,386.07 215.79,383.15 214.53,380.43 211.05,375.56 206.87,371.25 202.33,367.34 192.59,360.33 177.14,351.11 163.8,344.24 147.4,336.83 130.69,330.15 110.9,323.11 90.88,316.77 70.69,311.02 47.43,305.08 24.04,299.72 0.54,294.87"   /><polyline id="SvgjsPolyline1298" points="208.41,391.07 206.2,389.04 201.2,385.73 193.22,381.59 184.99,377.93 162.56,369.42 136.88,361.08 108.07,352.71 73.23,343.67 38.16,335.54 2.92,328.17"   /><polyline id="SvgjsPolyline1299" points="204.88,395.21 210.36,397.64 221.76,401.37 239.1,406.21 256.56,410.58 306.35,421.6 362.3,432.47 421.42,442.72 477.74,451.52 543.09,460.71 599.64,467.88"   /><polyline id="SvgjsPolyline1300" points="202.67,394.69 199.83,395.66 197.3,397.26 195.81,399.85 195.8,402.84 196.74,405.69 199.97,410.73 204.05,415.12 210.92,420.92 220.78,427.77 228.43,432.5 238.94,438.3 249.69,443.62 260.63,448.55 282.91,457.47 311.29,467.17 340.08,475.6 366.24,482.28 401.38,490.09 436.74,496.86 472.25,502.77 510.85,508.37 552.52,513.63 597.25,518.53"   /><polyline id="SvgjsPolyline1301" points="204.14,393.32 202.45,395.72 204.45,397.94 209.42,401.29 220.18,406.58 236.92,413.19 256.81,419.94 279.78,426.9 308.71,434.81 337.82,442.08 364.14,448.12 396.42,454.95 425.87,460.68 458.35,466.52 496.83,472.85 529.46,477.77 597.85,486.93"   /><polyline id="SvgjsPolyline1302" points="197.52,396.21 192.14,398.85 189.69,400.58 187.5,402.63 185.67,405 184.31,407.67 183.48,410.55 183.19,413.54 183.96,419.47 186.05,425.09 189,430.31 192.41,435.24 196.16,439.92 202.42,446.38 211.58,454.13 218.88,459.39 229.03,465.79 239.54,471.58 253.04,478.11 266.86,483.95 278.08,488.19 292.28,493.04 306.62,497.43 335.62,505.09 370.81,512.69 406.26,518.97 447.81,525.03 492.49,530.38 546.24,535.64 597.07,539.72"   /><polyline id="SvgjsPolyline1303" points="199.95,392.8 170.33,388.07 125.75,381.91 60.28,373.62 0.69,366.59"   /><polyline id="SvgjsPolyline1304" points="194.52,396.92 186.29,400.54 178.76,405.45 174.36,409.52 172.42,411.81 170.68,414.25 167.94,419.57 166.27,425.33 165.87,428.3 165.87,434.29 167.22,443.19 170.12,451.69 174.4,459.6 179.72,466.85 185.83,473.46 194.86,481.35 204.65,488.28 214.97,494.4 225.67,499.82 239.45,505.76 250.69,509.94 264.95,514.59 279.38,518.68 296.86,522.99 329.2,529.55 349.91,533.02 370.69,536.06 415.36,541.47 469.12,546.5 534.95,551.19 597.86,554.65"   /><polyline id="SvgjsPolyline1305" points="200.61,394.55 122.84,400.52 0.29,410.98"   /><polyline id="SvgjsPolyline1306" points="203.84,394 123.1,387.47 0.42,378.6"   /><polyline id="SvgjsPolyline1307" points="185.85,399.62 175.01,404.75 169.87,407.84 164.97,411.3 160.35,415.13 156.08,419.34 150.46,426.37 147.34,431.48 144.79,436.91 142.16,445.51 141.26,451.44 140.9,457.42 141.37,466.4 143.35,475.17 146.76,483.49 151.41,491.18 155.11,495.91 159.2,500.29 165.94,506.25 175.76,513.13 186.25,518.95 199.97,525.02 211.25,529.1 225.6,533.45 240.14,537.14 254.8,540.31 272.5,543.56 293.26,546.76 334.95,551.79 382.76,556.03 442.64,559.92 520.55,563.54 598.51,566.16"   /><polyline id="SvgjsPolyline1308" points="193.53,396.7 187.78,398.42 179.32,401.48 165.72,407.78 160.49,410.73 152.93,415.61 143.47,422.99 139.05,427.04 132.87,433.58 125.57,443.09 119.52,453.45 117.03,458.91 114.94,464.53 113.28,470.29 111.43,479.1 110.75,485.06 110.62,491.05 111.1,497.03 112.26,502.91 115.34,511.36 120,519.04 123.86,523.62 128.22,527.74 132.97,531.41 138.01,534.66 148.69,540.11 159.88,544.45 171.35,547.97 185.92,551.53 200.64,554.41 218.42,557.21 236.27,559.49 260.14,561.95 284.06,563.93 340.96,567.38 415.9,570.35 502.87,572.61 598.85,574.3"   /><polyline id="SvgjsPolyline1309" points="189.48,396.66 171.83,400.19 154.29,404.23 133.95,409.45 113.72,415.11 73.57,427.4 2.33,450.87"   /><polyline id="SvgjsPolyline1310" points="164.57,407.79 151.58,415.29 141.83,422.27 134.96,428.08 130.62,432.22 122.57,441.12 115.46,450.78 109.41,461.13 104.58,472.11 102.7,477.81 101.22,483.62 99.89,492.52 99.86,501.51 100.52,507.47 101.72,513.34 103.7,519 105,521.71 106.48,524.31 110,529.17 116.41,535.47 121.24,539.02 126.38,542.12 137.25,547.18 148.59,551.1 160.17,554.23 171.9,556.77 186.67,559.35 201.53,561.45 222.39,563.81 246.3,565.92 273.23,567.79 336.16,570.85 408.12,573.09 483.11,574.67 597.09,576.27"   /><polyline id="SvgjsPolyline1311" points="175.3,402.4 161.54,408.34 148.33,415.44 138.24,421.93 126.33,431.05 115.3,441.2 105.21,452.3 96.15,464.24 88.15,476.93 81.35,490.29 76.93,501.44 74.23,510.02 72.79,515.85 71.78,521.76 71.33,527.74 71.62,533.73 72.11,536.69 73.92,542.4 75.27,545.08 76.91,547.58 80.96,552 83.29,553.89 88.34,557.11 96.54,560.81 105.11,563.55 116.8,566.26 128.63,568.27 143.5,570.17 161.42,571.86 206.34,574.57 263.31,576.52 347.29,578.13 449.28,579.23 599.28,580.14"   /><polyline id="SvgjsPolyline1312" points="187.8,398.11 173.59,402.9 159.82,408.84 146.57,415.86 133.94,423.95 122.02,433.05 110.89,443.1 100.58,453.99 89.33,468.04 79.31,482.98 70.56,498.7 64.39,512.37 61.35,520.84 59.71,526.61 57.62,538.42 57.45,544.41 57.75,547.39 59.39,553.15 60.81,555.79 62.6,558.19 67.09,562.15 72.31,565.09 80.75,568.2 89.48,570.35 98.35,571.92 110.24,573.47 125.18,574.86 143.14,576.05 170.11,577.28 233.09,578.91 311.08,579.94 440.08,580.8 599.08,581.33"   /><polyline id="SvgjsPolyline1313" points="207.84,394.15 204.84,394.29 198.93,395.3 184.4,399.02 173.03,402.85 159.18,408.59 145.77,415.31 135.42,421.38 123,429.79 113.52,437.13 104.43,444.97 95.76,453.26 85.46,464.17 77.63,473.26 62.84,492.16 36.45,528.61 30.92,535.71 23.18,544.88 16.91,551.33 12.41,555.3 7.63,558.91 2.56,562.12"   /><polyline id="SvgjsPolyline1314" points="140.38,419.22 127.96,427.63 118.53,435.05 107.41,445.11 99.07,453.73 91.21,462.8 82.06,474.68 73.63,487.08 65.89,499.93 58.86,513.18 53.84,524.08 49.58,535.3 47.29,543.99 46.64,549.95 46.78,552.94 47.98,558.82 49.08,561.6 50.72,564.11 52.82,566.25 55.24,568.02 60.62,570.64 66.34,572.46 75.14,574.32 84.05,575.59 95.99,576.77 110.96,577.78 149.93,579.29 209.92,580.38 299.91,581.14 599.91,581.97"   /><polyline id="SvgjsPolyline1315" points="143.19,417.12 130.53,425.15 116.17,436 102.81,448.05 90.44,461.13 77.21,477.42 63.43,497.07 50.78,517.47 29.88,553.89 23.33,563.94 17.4,570.71 12.77,574.5 7.39,577.14 1.61,578.72"   /><polyline id="SvgjsPolyline1316" points="18.18,581.09 21.11,581.64 30.08,582.32 63.08,582.63 597.08,582.73"   /><polyline id="SvgjsPolyline1317" points="208.37,393.96 214.24,392.75 222.91,390.32 236.98,385.13 250.58,378.83 263.57,371.33 275.79,362.65 287.13,352.83 297.44,341.94 306.62,330.09 314.57,317.38 321.12,303.89 324.28,295.47 325.99,289.72 327.34,283.87 328.25,277.94 328.62,271.96 328.33,265.97 327.89,263 326.32,257.21 323.78,251.79 322.14,249.28 320.29,246.92 316.01,242.72 311.17,239.18 303.25,234.93 294.87,231.64 286.26,229.04 274.57,226.31 262.77,224.18 247.91,222.08 233.01,220.43 194.13,217.4 140.19,214.83 86.21,213.2 2.23,211.58"   /><polyline id="SvgjsPolyline1318" points="213.23,392.59 218.73,390.2 221.3,388.65 225.8,384.71 227.59,382.3 228.94,379.62 229.81,376.76 230.19,373.78 230.05,367.79 228.91,361.91 226.73,356.32 223.81,351.08 220.35,346.19 214.43,339.41 207.88,333.24 203.25,329.43 196.01,324.09 188.47,319.17 172.75,310.41 156.43,302.84 136.86,295.23 114.04,287.81 90.89,281.49 61.64,274.81 35.13,269.71 2.56,264.4"   /><polyline id="SvgjsPolyline1319" points="209.01,394.35 598.88,404.52"   /><polyline id="SvgjsPolyline1320" points="207.9,394.99 228.6,398.55 267.19,404.13 314.78,410.39 371.36,417.36 475.68,429.22 598.04,441.77"   /><polyline id="SvgjsPolyline1321" points="207.08,395.37 215.75,397.77 227.44,400.46 262.76,407.46 307.08,415.23 363.37,424.2 422.74,432.88 479.22,440.52 529.82,446.9 598.35,454.93"   /><polyline id="SvgjsPolyline1322" points="8.65,597.71 9.58,594.86 9.56,591.88 5.76,587.35 3.04,586.13 0.12,585.43"   /><polyline id="SvgjsPolyline1323" points="15.26,599.16 19.89,595.36 25.01,592.23 27.7,590.91 33.36,588.93 39.21,587.62 48.13,586.38 72.08,584.87 108.07,584.04 171.06,583.51 438.06,583.03"   /><polyline id="SvgjsPolyline1324" points="306.18,599.9 366.12,597.15 429.09,595.06 504.06,593.22 597.05,591.58"   /><polyline id="SvgjsPolyline1325" points="215.92,391.92 224.2,388.4 229.35,385.33 234.06,381.62 238.14,377.23 241.36,372.17 244.77,363.86 245.97,357.99 246.17,352 245.44,346.05 243.89,340.26 241.65,334.7 237.22,326.87 231.78,319.7 225.59,313.18 218.83,307.25 211.62,301.86 204.06,296.97 196.24,292.52 185.49,287.19 177.25,283.59 157.57,276.27 146.12,272.67 131.67,268.65 105.38,262.51 72.94,256.46 37.33,251.19 1.59,246.91"   /><polyline id="SvgjsPolyline1326" points="214.27,393.23 232.03,390.3 252.65,386.29 296.55,376.41 345.97,363.84 450.19,335.5 499.54,322.65 549.14,310.78 599.01,300.11"   /><polyline id="SvgjsPolyline1327" points="211.81,393.23 220.45,390.7 231.48,386 239.25,381.48 246.42,376.04 252.75,369.65 257.97,362.33 262.16,354.37 265.11,345.88 266.25,340 266.64,331.02 265.45,322.11 262.77,313.53 258.75,305.48 253.6,298.11 247.54,291.47 238.39,283.72 230.94,278.67 223.14,274.18 215.07,270.2 204.01,265.54 192.71,261.51 181.24,257.99 169.65,254.9 155.03,251.52 140.32,248.58 122.58,245.53 86.93,240.58 48.15,236.47 0.3,232.59"   /><polyline id="SvgjsPolyline1328" points="214.57,392.87 232.04,388.57 251.99,382.04 271.46,374.16 293.06,363.72 311.48,353.65 329.46,342.8 349.6,329.74 389.52,303.09 407.33,291.97 420.33,284.48 430.92,278.83 441.68,273.53 455.39,267.44 472.17,260.93 486.39,256.16 500.78,251.94 518.24,247.54 538.78,243.19 556.5,240.03 574.29,237.3 598.09,234.22"   /><polyline id="SvgjsPolyline1329" points="210.77,393.5 222.35,390.35 233.53,386 244.2,380.52 254.18,373.88 258.85,370.11 263.25,366.03 269.29,359.36 274.52,352.05 280.16,341.46 282.48,335.93 284.32,330.23 286.13,321.42 286.68,312.44 285.83,303.49 283.5,294.81 279.71,286.66 274.6,279.26 270.58,274.81 266.16,270.76 258.95,265.38 251.23,260.76 243.16,256.78 232.03,252.28 220.64,248.53 209.07,245.34 197.39,242.61 182.67,239.7 167.88,237.23 150.05,234.71 111.29,230.46 60.44,226.51 0.53,223.24"   /><polyline id="SvgjsPolyline1330" points="209.89,393.69 221.52,390.77 235.61,385.63 241.07,383.16 249.05,378.99 259.19,372.59 268.65,365.21 277.27,356.87 284.88,347.6 291.32,337.49 294.04,332.14 296.39,326.62 300.07,315.2 301.37,309.35 302.19,303.41 302.39,294.42 301.16,285.51 298.33,276.98 293.89,269.17 290.13,264.5 285.84,260.3 278.68,254.87 270.91,250.34 262.74,246.56 254.32,243.38 242.86,239.85 231.21,236.95 216.51,233.97 201.71,231.53 183.88,229.12 165.99,227.13 121.14,223.41 67.23,220.38 1.28,217.86"   /><polyline id="SvgjsPolyline1331" points="212.25,393.27 223.91,390.44 235.35,386.83 246.56,382.55 257.51,377.65 268.17,372.13 278.5,366.02 288.47,359.35 298.07,352.16 307.29,344.48 313.96,338.43 324.69,327.95 332.94,319.24 348.67,301.12 375.2,268.56 383.09,259.52 389.28,252.99 398.08,244.83 405.17,239.29 412.71,234.39 420.68,230.21 431.82,225.75 446.25,221.68 460.97,218.82 478.8,216.42 499.71,214.49 526.66,212.81 556.64,211.56 598.62,210.4"   /><polyline id="SvgjsPolyline1332" points="213.31,393.03 227.79,389.13 241.87,383.99 255.49,377.72 268.56,370.35 280.96,361.93 292.62,352.49 303.46,342.13 313.44,330.94 324.26,316.56 333.8,301.3 342.12,285.35 345.75,277.11 348.92,268.69 352.11,257.13 353.03,251.2 353.24,245.21 352.39,239.28 351.44,236.44 350.1,233.76 348.38,231.31 346.32,229.13 341.5,225.58 336.12,222.93 330.47,220.91 321.76,218.67 312.91,217.03 301.02,215.42 271.13,212.91 232.17,211.12 178.19,209.75 112.2,208.8 1.2,207.94"   /><polyline id="SvgjsPolyline1333" points="217.68,391.93 231.96,387.37 243.02,382.72 256.27,375.7 266.3,369.11 275.71,361.67 282.3,355.55 286.45,351.21 294.09,341.97 300.78,332.01 305.1,324.12 307.61,318.67 311.62,307.37 313.05,301.54 314,295.62 314.42,289.64 314.37,283.64 313.27,274.72 311.59,268.96 310.43,266.19 309.08,263.52 305.78,258.52 303.86,256.21 299.58,252.01 294.82,248.35 287.09,243.77 278.89,240.05 267.56,236.12 255.97,233.02 244.24,230.51 229.45,227.99 214.59,225.94 196.7,223.95 175.79,222.08 127.89,219 70.94,216.59 1.97,214.64"   /><polyline id="SvgjsPolyline1334" points="222.76,390.62 236.96,385.81 250.71,379.81 263.88,372.66 276.38,364.37 288.09,355 298.9,344.61 308.75,333.3 315.89,323.66 323.85,310.95 330.62,297.57 334.02,289.24 335.94,283.56 337.53,277.77 338.69,271.89 339.37,262.92 338.41,253.98 337.76,251.06 335.61,245.47 334.09,242.88 332.31,240.47 328.04,236.26 323.12,232.84 317.8,230.08 309.4,226.86 300.74,224.42 288.99,221.96 277.14,220.09 262.25,218.3 247.31,216.92 208.39,214.46 154.43,212.44 88.45,210.97 1.46,209.8"   /><polyline id="SvgjsPolyline1335" points="221.52,389.41 226.67,386.35 231.29,382.53 235.09,377.9 237.74,372.53 238.57,369.65 239.2,363.69 238.59,357.73 236.97,351.96 234.56,346.47 231.53,341.3 226.33,333.96 220.4,327.19 216.09,323.02 209.21,317.22 201.94,311.91 194.37,307.05 186.56,302.58 178.55,298.47 170.39,294.68 159.31,290.06 139.54,283 116.52,276.23 90.28,269.88 63.81,264.57 34.22,259.61 1.54,255.04"   /><polyline id="SvgjsPolyline1336" points="212.65,393.8 260.5,389.95 341.18,382.72 598.01,358.21"   /><polyline id="SvgjsPolyline1337" points="203.35,394.3 599.16,382.06"   /><polyline id="SvgjsPolyline1338" points="209.32,394.69 269.09,399.89 358.82,406.9 466.53,414.82 598.21,423.98"   /><polyline id="SvgjsPolyline1339" points="38.88,599.92 47.32,596.78 56,594.44 64.83,592.68 76.7,590.96 88.64,589.72 106.59,588.41 151.55,586.58 223.54,585.26 313.53,584.5 598.53,583.64"   /><polyline id="SvgjsPolyline1340" points="217.03,391.72 225.42,388.47 233.36,384.24 240.63,378.95 244.96,374.8 248.74,370.14 250.38,367.63 253.11,362.3 255.01,356.61 256.02,350.7 256.16,344.71 254.8,335.83 252.15,327.23 248.29,319.11 243.3,311.63 237.42,304.82 230.86,298.67 223.76,293.14 216.27,288.16 208.46,283.68 200.42,279.64 189.42,274.84 178.19,270.62 166.79,266.88 143.64,260.57 114.3,254.31 81.75,248.91 46.05,244.25 1.29,239.69"   /><polyline id="SvgjsPolyline1341" points="220.4,391.9 237.94,387.9 258.19,382.32 278.19,375.95 300.79,367.86 320.35,360.23 339.76,352.21 403.09,324.81 430.75,313.21 458.7,302.3 484.15,293.28 509.88,285.12 538.79,277.09 567.96,270.11 597.35,264.09"   /><polyline id="SvgjsPolyline1342" points="212.14,393.65 253.77,388.13 310.06,379.2 369.18,368.94 516.81,342.37 599.62,328.29"   /><polyline id="SvgjsPolyline1343" points="226.17,390.99 246.69,386.53 264.15,382.15 284.38,376.55 304.49,370.5 344.41,357.43 443.63,323.09 472.17,313.83 498,305.99 524,298.68 550.14,291.95 576.43,285.8 599.91,280.81"   /><polyline id="SvgjsPolyline1344" points="226.27,391.62 264.71,385.1 311.8,375.79 364.58,364.35 499.24,334.2 549.16,323.74 599.22,313.99"   /><polyline id="SvgjsPolyline1345" points="221.62,390.49 232.76,386.03 240.73,381.86 245.82,378.68 250.68,375.17 257.47,369.26 263.5,362.59 268.61,355.19 272.61,347.14 275.36,338.58 276.7,329.69 276.52,320.7 274.8,311.88 271.91,303.36 267.82,295.35 262.55,288.07 256.33,281.57 249.38,275.86 241.9,270.85 234.04,266.47 225.91,262.63 214.76,258.2 203.37,254.41 191.83,251.14 180.17,248.29 165.49,245.21 150.73,242.55 132.94,239.81 97.21,235.42 52.4,231.33 1.52,227.89"   /><polyline id="SvgjsPolyline1346" points="225.83,390.07 242.97,384.59 254.15,380.24 262.4,376.63 273.19,371.39 281.12,367.14 299.09,356.27 313.87,346 328.13,335.02 344.26,321.57 380.52,290.12 399.33,275.23 409.15,268.33 419.29,261.91 429.77,256.08 440.57,250.85 454.47,245.2 468.7,240.46 486.08,235.82 503.69,232.11 524.41,228.67 545.23,225.96 572.1,223.24 599.01,221.14"   /><polyline id="SvgjsPolyline1347" points="215.81,392.69 233.34,388.59 253.45,382.57 273.22,375.48 295.37,366.26 311.7,358.69 330.49,349.3 393.9,315.2 420.58,301.49 445.06,290.1 470.05,279.9 484.16,274.81 498.41,270.12 512.79,265.84 530.18,261.21 562.38,254 597.82,247.71"   /><polyline id="SvgjsPolyline1348" points="237.89,385.76 251.72,379.97 262.45,374.6 275.37,366.98 285.26,360.19 294.73,352.82 305.93,342.85 314.38,334.33 324.32,323.1 335.39,308.91 345.62,294.1 356.66,276.24 366.94,257.93 377.99,236.63 385.57,220.3 387.52,214.63 387.86,211.67 386.5,209.09 383.77,207.91 377.84,207.04 368.85,206.56 344.86,206.16 2.86,205.8"   /><polyline id="SvgjsPolyline1349" points="218.5,391.9 227.2,389.57 238.61,385.87 247.03,382.68 258.04,377.92 268.79,372.6 276.67,368.25 286.91,362 296.84,355.26 313.45,342.42 329.16,328.49 344.15,313.78 375.48,281.48 390.85,267.17 400.14,259.58 409.82,252.5 420.02,246.18 430.69,240.71 441.77,236.09 456.02,231.44 473.51,227.17 491.22,223.98 512.03,221.19 538.91,218.6 568.84,216.55 598.8,215.05"   /><polyline id="SvgjsPolyline1350" points="234.38,387.08 242.81,383.93 253.82,379.14 264.52,373.72 272.32,369.24 282.41,362.74 292.1,355.66 299.09,350 308.05,342.02 316.59,333.58 322.72,327 330.56,317.92 338.05,308.54 350.47,291.61 375.72,254.36 381.02,247.09 386.66,240.08 395.01,231.47 399.55,227.55 404.45,224.08 409.68,221.15 418.01,217.75 429.61,214.73 444.43,212.44 462.36,210.82 483.32,209.69 516.31,208.65 597.3,207.51"   /><polyline id="SvgjsPolyline1351" points="262.51,374.3 272.83,368.18 285.15,359.63 294.49,352.11 305.5,341.92 313.75,333.21 323.38,321.71 332.26,309.63 340.43,297.05 349.3,281.39 355.83,267.89 360.29,256.75 362.12,251.04 363.51,245.2 364.14,239.24 363.86,233.25 363.32,230.31 362.29,227.49 360.73,224.94 358.69,222.74 356.32,220.91 350.98,218.19 345.29,216.31 339.45,214.94 330.57,213.47 309.67,211.4 279.71,209.86 243.73,208.85 189.74,208.02 0.74,206.93"   /><polyline id="SvgjsPolyline1352" points="218.8,393.1 266.5,387.77 337.93,378.71 599.52,343.14"   /><polyline id="SvgjsPolyline1353" points="116.18,599.91 142.98,596.68 175.87,594.02 211.82,592.05 265.78,590.1 322.76,588.76 397.75,587.59 598.75,585.93"   /><polyline id="SvgjsPolyline1354" points="219.57,391.57 231.08,388.17 245.12,382.9 256.04,377.93 269.23,370.8 279.37,364.39 291.47,355.53 300.66,347.82 311.52,337.47 319.7,328.7 327.46,319.54 334.81,310.06 343.48,297.82 351.65,285.24 360.91,269.81 369.72,254.11 383.91,227.68 388.44,219.9 392.11,215.17 394.41,213.25 397.02,211.78 402.61,209.61 408.46,208.32 417.42,207.41 432.4,206.78 480.4,206.21 597.4,205.95"   /><polyline id="SvgjsPolyline1355" points="585.33,17.38 582.33,17.23 576.41,18.21 561.88,21.92 553.34,24.74 544.93,27.96 531.28,34.17 518.13,41.38 505.58,49.58 493.67,58.7 482.45,68.65 471.94,79.35 464.03,88.37 454.71,100.12 447.69,109.85 437.77,124.87 426.98,142.88 399.77,192.97 396.14,197.72 391.37,201.34 388.66,202.62 382.81,203.93 373.85,204.68 337.86,205.36 1.86,205.7"   /><polyline id="SvgjsPolyline1356" points="253.95,378.87 267.21,371.86 277.4,365.52 287.18,358.57 298.78,349.08 307.55,340.89 317.86,329.99 327.46,318.47 336.4,306.43 346.33,291.42 356.94,273.3 366.49,254.6 372.4,240.82 375.05,232.22 375.54,229.26 375.6,226.27 374.97,223.34 373.48,220.75 369.19,216.58 366.64,215.01 361.02,212.94 355.16,211.65 349.23,210.76 331.3,209.23 304.32,208.15 259.33,207.34 205.33,206.88 1.33,206.3"   /><polyline id="SvgjsPolyline1357" points="584.41,17.11 578.45,17.82 572.58,19.04 558.14,23.11 544.09,28.33 530.47,34.62 517.37,41.92 504.87,50.21 493.04,59.41 481.91,69.46 471.49,80.25 459.91,94.03 447.55,111 437.83,126.15 427.37,144.36 416.52,165.76 410.74,179.59 409.15,185.38 408.89,188.36 409.46,191.29 411.08,193.79 415.72,197.57 418.41,198.89 424.17,200.54 436.05,202.19 454.02,203.32 484,204.15 598,205.05"   /><polyline id="SvgjsPolyline1358" points="577.1,20.42 578.33,23.14 582.44,27.5 589.56,32.99 599.8,39.23"   /><polyline id="SvgjsPolyline1359" points="587.45,16.4 586.79,13.52 584.89,11.2 582.65,9.21 575.23,4.12 570.06,1.08"   /><polyline id="SvgjsPolyline1360" points="585.03,17.31 582.03,17.24 579.09,17.83 573.52,20.03 571.05,21.74 569.06,23.98 567.85,26.71 567.5,29.69 568.26,35.63 569.1,38.51 571.73,43.89 577.11,51.09 581.25,55.43 585.68,59.48 597.6,68.56"   /><polyline id="SvgjsPolyline1361" points="584.58,17.42 581.83,16.23 576.08,14.52 561.5,11.03 538.01,6.11 505.58,0"   /><polyline id="SvgjsPolyline1362" points="573.62,19.4 568.13,21.81 563.08,25.03 558.75,29.18 555.59,34.25 553.54,39.89 552.51,45.79 552.75,51.77 554.08,57.62 556.26,63.2 560.73,71 564.31,75.82 570.33,82.5 576.94,88.6 584.01,94.18 591.41,99.29 599.09,103.98"   /><polyline id="SvgjsPolyline1363" points="585.65,17.32 561.67,18.11 450.78,23.09 1.28,44.41"   /><polyline id="SvgjsPolyline1364" points="576.78,17.96 561.99,20.47 541.43,24.75 518.1,30.38 492.02,37.37 446.01,51.04 357.43,79.35 317.28,91.69 273.98,103.95 230.35,114.93 206.94,120.23 177.56,126.31 148.07,131.81 121.45,136.3 88.82,141.24 62.07,144.88 2.47,151.85"   /><polyline id="SvgjsPolyline1365" points="570.72,19.27 553.27,23.69 536.13,29.18 519.31,35.57 500.09,44.04 483.97,52.05 462.89,63.5 444.76,74.11 390.94,106.84 375.28,115.74 362.04,122.77 345.85,130.65 326.57,138.95 309.71,145.27 289.73,151.72 263.64,158.67 240.19,163.76 210.65,168.96 177.96,173.51 139.19,177.72 100.33,181.02 55.43,184.02 1.51,186.8"   /><polyline id="SvgjsPolyline1366" points="558.97,22.52 541.94,28.32 525.37,35.36 509.34,43.54 493.9,52.77 479.04,62.94 462.42,75.77 446.4,89.33 405.99,125.16 394.39,134.66 382.34,143.59 369.75,151.74 356.6,158.96 342.94,165.15 326.02,171.26 314.5,174.62 302.85,177.5 291.11,179.97 276.34,182.58 249.59,186.24 213.76,189.72 171.86,192.53 123.91,194.76 69.94,196.53 0.95,198.11"   /><polyline id="SvgjsPolyline1367" points="565.04,20.91 553.58,24.46 545.13,27.55 536.82,30.99 525.96,36.11 510.24,44.87 500.17,51.39 492.85,56.62 485.72,62.12 476.53,69.83 461.25,84.23 446.84,99.5 409.26,142.36 400.93,150.99 392.13,159.15 382.72,166.59 372.64,173.09 361.93,178.49 356.39,180.79 347.89,183.75 339.24,186.22 330.47,188.27 318.68,190.48 306.81,192.25 279.97,195.1 247.04,197.33 208.08,199.02 151.1,200.56 79.11,201.73 1.12,202.52"   /><polyline id="SvgjsPolyline1368" points="583.38,17.14 574.5,18.6 560.01,22.45 548.67,26.37 534.85,32.2 521.5,39.02 511.19,45.17 501.26,51.9 491.72,59.17 482.59,66.96 473.86,75.2 463.51,86.05 455.64,95.11 440.8,113.96 410.84,155.23 403.23,164.51 397.09,171.09 388.23,179.16 380.83,184.29 372.85,188.42 364.43,191.59 358.66,193.25 349.88,195.2 341,196.68 329.09,198.15 308.16,199.86 275.2,201.42 227.22,202.64 176.22,203.36 2.23,204.41"   /><polyline id="SvgjsPolyline1369" points="579.92,17.6 571.23,19.91 565.63,22.06 560.24,24.68 555.11,27.79 550.34,31.42 546.04,35.61 544.12,37.91 542.37,40.35 537.88,48.14 536.69,50.89 534.93,56.62 534,62.54 533.86,65.54 534.63,74.49 537.07,83.14 539.5,88.63 542.46,93.84 547.75,101.12 551.74,105.59 556.04,109.78 565.37,117.32 575.41,123.88 588.66,130.9 599.65,135.73"   /><polyline id="SvgjsPolyline1370" points="583.97,17.11 578.03,17.95 569.33,20.24 560.87,23.3 555.39,25.74 550.06,28.5 542.43,33.27 535.35,38.81 531.01,42.95 527.02,47.43 521.74,54.72 517.23,62.5 514.82,67.99 512.95,73.69 511.22,82.51 510.83,88.5 511.08,94.49 511.98,100.42 513.54,106.21 515.74,111.79 518.53,117.09 521.87,122.08 525.67,126.72 529.88,130.99 534.42,134.91 539.23,138.5 546.84,143.3 552.11,146.16 560.25,150 568.59,153.38 577.08,156.37 597.26,162.16"   /><polyline id="SvgjsPolyline1371" points="576.06,18.34 567.35,20.62 556.03,24.59 547.79,28.2 537.21,33.86 529.65,38.75 522.49,44.18 515.77,50.17 509.58,56.7 503.99,63.75 497.41,73.78 493.17,81.72 489.7,90.02 487.1,98.63 485.49,107.48 485.06,116.46 485.54,122.44 486.69,128.32 488.57,134.02 491.19,139.41 494.5,144.41 498.41,148.95 502.83,153.01 507.62,156.61 515.34,161.24 520.72,163.88 529.04,167.31 537.56,170.2 549.12,173.43 560.82,176.1 572.6,178.35 599.31,182.31"   /><polyline id="SvgjsPolyline1372" points="562.29,22.02 553.81,25.02 542.78,29.74 532.13,35.27 521.93,41.59 512.27,48.7 503.23,56.58 494.88,65.19 489.11,72.1 482.13,81.86 477.48,89.56 471.99,100.23 467.41,111.32 464.07,122.84 462.63,131.71 462.41,140.7 463.15,146.65 464.76,152.43 467.31,157.85 470.78,162.73 472.82,164.93 477.36,168.85 482.36,172.15 487.67,174.94 496,178.34 504.58,181.05 513.31,183.25 525.07,185.62 536.92,187.52 566.72,190.97 599.62,193.48"   /><polyline id="SvgjsPolyline1373" points="548.24,26.95 537.29,31.85 526.69,37.46 516.5,43.8 506.77,50.83 497.57,58.52 488.93,66.84 480.87,75.74 473.44,85.15 466.64,95.03 460.5,105.34 455.09,116.05 450.53,127.15 446.85,138.57 444.96,147.36 444.27,156.33 444.82,162.29 445.49,165.22 447.78,170.75 449.4,173.27 451.32,175.58 455.83,179.52 460.95,182.63 466.42,185.1 472.08,187.07 480.78,189.4 489.6,191.18 501.45,193.01 525.32,195.54 558.25,197.71 597.21,199.3"   /><polyline id="SvgjsPolyline1374" points="536.64,31.87 525.99,37.39 515.71,43.59 505.87,50.45 496.49,57.93 487.61,65.99 479.24,74.6 469.53,86.02 462.35,95.64 455.69,105.62 448.11,118.56 441.43,131.98 436.89,143.09 433.46,154.58 432.01,163.46 431.73,169.45 431.99,172.43 432.59,175.37 433.59,178.2 435.02,180.83 436.85,183.2 439.03,185.26 444.04,188.53 449.54,190.92 455.27,192.71 461.11,194.1 469.96,195.68 490.82,198.07 517.77,199.84 553.74,201.22 598.73,202.23"   /><polyline id="SvgjsPolyline1375" points="569.12,19.9 557.61,23.31 543.58,28.61 532.68,33.62 519.53,40.83 506.98,49.03 497.43,56.29 486.13,66.16 475.59,76.83 465.79,88.18 454.98,102.57 445.14,117.64 436.23,133.27 428.33,149.44 422.9,163.42 420.73,172.14 420.39,178.12 420.87,181.08 423.03,186.67 424.69,189.15 426.85,191.23 429.33,192.91 432.02,194.24 437.68,196.21 443.52,197.59 452.4,199.02 473.31,200.93 500.28,202.21 542.27,203.24 599.26,203.94"   /><polyline id="SvgjsPolyline1376" points="580.21,15.8 581.72,18.23 584.39,19.59 589.98,21.78 598.54,24.56"   /><polyline id="SvgjsPolyline1377" points="573.87,20.46 572.26,22.98 572.03,25.96 572.78,28.86 575.76,34.05 579.69,38.58 584.09,42.65 588.78,46.39 598.58,53.32"   /><polyline id="SvgjsPolyline1378" points="585.21,16.97 588.09,16.14 590.82,14.9 593.22,13.1 594.86,10.6 595.38,7.65 594.56,1.72"   /><polyline id="SvgjsPolyline1379" points="573.37,19.64 568.06,22.41 565.65,24.2 563.5,26.29 561.7,28.69 560.36,31.37 559.52,34.24 559.19,37.22 559.32,40.22 560.69,46.05 563.14,51.52 566.31,56.61 571.77,63.76 575.81,68.19 580.13,72.35 587.02,78.14 599.28,86.78"   /><polyline id="SvgjsPolyline1380" points="574.55,18.94 566.14,22.13 558.33,26.58 553.64,30.32 551.51,32.43 547.83,37.16 545.08,42.49 543.43,48.24 542.9,54.21 543.04,57.21 544.04,63.12 545.88,68.83 548.24,74.34 551.04,79.65 556.13,87.06 562.06,93.82 568.63,99.97 578.12,107.31 588.22,113.79 598.76,119.51"   /><polyline id="SvgjsPolyline1381" points="578.83,16.73 504.15,9.81 387.55,0.22"   /><polyline id="SvgjsPolyline1382" points="576.11,17.86 534.44,23.11 475.1,31.97 412.91,42.07 247.22,69.82 161.28,83.32 81.1,94.82 0.76,105.13"   /><polyline id="SvgjsPolyline1383" points="579.23,17.18 0.35,5.57"   /><polyline id="SvgjsPolyline1384" points="576.36,17.69 522.57,22.45 453.91,29.25 152.58,61.07 0.34,76.26"   /><polyline id="SvgjsPolyline1385" points="573.43,17.37 0.48,24.91"   /><polyline id="SvgjsPolyline1386" points="564.53,18.34 429.87,27.92 2.1,60.41"   /><polyline id="SvgjsPolyline1387" points="564.93,20.29 547.43,24.49 532.99,28.56 515.84,34 496.04,41.02 476.47,48.63 454.33,57.89 380.34,90.85 341.61,107.08 319.17,115.59 299.33,122.47 282.17,127.92 259.1,134.53 232.92,141.11 206.54,146.86 180,151.85 147.42,157.09 114.72,161.52 81.94,165.29 43.12,169.06 1.26,172.46"   /><polyline id="SvgjsPolyline1388" points="570.08,18.8 552.3,21.63 528.69,25.93 484.63,35.08 434.93,46.51 292,80.86 245.15,91.31 204.02,99.82 153.91,109.26 103.61,117.7 56.13,124.75 2.59,131.73"   /><polyline id="SvgjsPolyline1389" points="573.47,18.53 555.81,22.04 535.41,27.01 515.19,32.69 495.15,38.94 478.08,44.67 452.66,53.77 374.15,83.64 331.84,98.94 306.21,107.44 283.28,114.52 263.08,120.28 242.77,125.62 219.43,131.21 193.04,136.89 163.57,142.48 136.94,146.94 104.29,151.73 71.55,155.91 32.79,160.17 2.92,163.03"   /><polyline id="SvgjsPolyline1390" points="553.28,24.01 536.27,29.88 519.66,36.81 503.48,44.69 485.17,54.97 469.94,64.56 455.08,74.71 411.53,106.65 396.84,117.05 379.32,128.62 366.43,136.29 350.5,144.67 336.85,150.88 322.89,156.37 305.82,162.04 282.63,168.24 256.19,173.69 226.55,178.32 193.78,182.19 154.94,185.62 113.03,188.39 65.09,190.78 2.13,193.08"   /><polyline id="SvgjsPolyline1391" points="571.31,19.08 553.79,23.23 536.53,28.32 516.7,35.23 499.98,41.88 480.76,50.34 461.83,59.43 390.02,96.9 371.22,106.27 354.92,113.89 335.63,122.2 313.27,130.9 293.41,137.72 273.3,143.78 250.08,149.84 220.77,156.24 194.21,161.06 161.58,165.96 125.84,170.33 87.03,174.17 45.17,177.52 0.26,180.44"   /><polyline id="SvgjsPolyline1392" points="565.44,21.74 554.55,26.76 549.39,29.83 544.5,33.31 539.94,37.19 535.76,41.5 530.41,48.72 526.39,56.76 524.58,62.48 523.5,68.38 523.32,77.36 523.95,83.33 525.11,89.21 528.05,97.71 530.75,103.06 533.97,108.12 539.61,115.13 543.82,119.4 548.33,123.36 558.04,130.4 563.15,133.53 571.08,137.79 584.78,143.9 598.88,149.01"   /><polyline id="SvgjsPolyline1393" points="558.69,23.8 550.46,27.43 542.53,31.67 537.43,34.85 530.16,40.13 523.39,46.06 519.21,50.37 513.53,57.34 510.18,62.32 507.21,67.53 503.58,75.76 501.75,81.47 500.45,87.33 499.71,93.28 499.6,102.27 500.11,108.25 501.27,114.13 503.1,119.85 505.59,125.3 508.69,130.43 512.35,135.18 516.48,139.53 520.99,143.48 525.82,147.05 530.88,150.26 536.13,153.16 544.28,157 558.31,162.28 566.91,164.92 578.52,167.97 599.06,172.31"   /><polyline id="SvgjsPolyline1394" points="558.98,23.24 550.6,26.51 539.75,31.62 529.34,37.6 521.89,42.65 514.79,48.17 508.09,54.17 501.82,60.63 494.22,69.92 487.59,79.91 483.32,87.83 479.73,96.08 476.93,104.63 475.06,113.43 474.34,122.39 474.65,128.38 476.12,137.25 477.96,142.96 479.18,145.7 482.23,150.86 486,155.52 490.36,159.64 495.16,163.22 500.29,166.33 508.39,170.24 516.8,173.44 525.4,176.1 534.12,178.34 545.86,180.83 569.55,184.62 599.36,187.96"   /><polyline id="SvgjsPolyline1395" points="560.97,19.91 522.45,25.99 472.27,35.1 422.23,44.95 284.06,73.03 236.92,82.12 192.65,90.19 142.38,98.74 94.96,106.17 50.41,112.56 2.82,118.78"   /><polyline id="SvgjsPolyline1396" points="561.16,19.28 510.49,25.1 450.97,32.68 254.78,59.36 162.58,71.56 76.25,82.32 1.75,90.95"   /><polyline id="SvgjsPolyline1397" points="557.99,14.93 477.24,8.5 363.55,0.14"   /><polyline id="SvgjsPolyline1398" points="540.06,13.73 444.31,6.82 345.54,0.12"   /><polyline id="SvgjsPolyline1399" points="507.15,11.59 333.53,0.15"   /></g></svg>