<?xml version="1.0" standalone="no"?>
<svg id="SvgjsSvg1001" width="600" height="600" xmlns="http://www.w3.org/2000/svg" version="1.1" xmlns:xlink="http://www.w3.org/1999/xlink" xmlns:svgjs="http://svgjs.com/svgjs" class="svg-paper" viewBox="0 0 600 600"><title id="SvgjsTitle1657">x=(sin((y-x))+x)|y=sqrt(x*x + y*y)|dTest=0.0|sd=0.2|sm=0.2|ts=0.05 | generated with FlowLines</title><style>*{fill:none;stroke:#777}</style><g id="SvgjsG1658"><polyline id="SvgjsPolyline1659" points="52.75,597.64 40.23,580.78 28.08,563.65 18,548.74 0,521.08"   /><polyline id="SvgjsPolyline1660" points="69.57,599.98 49.74,573.6 35.78,554.08 24.03,536.68 1.14,501.46"   /><polyline id="SvgjsPolyline1661" points="37.74,597.63 18.44,570.86 0.1,543.43"   /><polyline id="SvgjsPolyline1662" points="84.56,599.94 61.07,568.81 45.28,546.91 33.51,529.52 10.68,494.27 0.58,479.37"   /><polyline id="SvgjsPolyline1663" points="24.51,599.93 12.26,582.88 0.41,565.54"   /><polyline id="SvgjsPolyline1664" points="97.76,597.6 67.11,556.84 54.84,539.8 41.4,519.92 16.98,482.12 1.47,460.03"   /><polyline id="SvgjsPolyline1665" points="9.48,599.68 0.84,587.42"   /><polyline id="SvgjsPolyline1666" points="112.72,597.84 66.22,535.22 51.02,512.91 19.98,465.1 9.47,450.49 0.17,438.73"   /><polyline id="SvgjsPolyline1667" points="127.63,598.42 113.86,578.77 84.93,540.46 70.91,520.98 57.56,501.04 34.92,465.67 24.79,450.79 12.15,434.02 0.49,420.31"   /><polyline id="SvgjsPolyline1668" points="142.48,599.5 134.43,586.84 124.13,572.08 93.39,531.39 79.37,511.91 67.68,494.46 41.84,454.02 31.62,439.2 24.43,429.59 16.89,420.25 9,411.21 0.79,402.47"   /><polyline id="SvgjsPolyline1669" points="155.77,598.62 146.65,583.11 136.61,568.17 125.96,553.66 100.54,520.23 86.6,500.69 76.63,485.71 52.53,447.71 40.69,430.36 31.66,418.39 22.06,406.87 11.91,395.82 1.3,385.22"   /><polyline id="SvgjsPolyline1670" points="169.06,598.35 163.6,587.66 159.18,579.82 149.51,564.64 139.05,550 109.98,511.8 97.72,494.75 84.43,474.77 60.42,436.71 48.52,419.41 37.51,405.17 27.69,393.84 15.21,380.87 2.13,368.5"   /><polyline id="SvgjsPolyline1671" points="182.29,598.8 177.5,587.8 173.52,579.73 167.69,569.24 161.33,559.07 149.27,541.88 120.15,503.72 106.14,484.24 92.92,464.21 70.66,428.6 58.86,411.23 47.91,396.94 34.05,381.17 19.18,366.34 1.35,350.29"   /><polyline id="SvgjsPolyline1672" points="194.47,597.28 189.22,583.23 184.26,572.31 178.62,561.71 172.4,551.45 165.72,541.48 158.71,531.75 129.53,493.63 117.23,476.61 103.97,456.61 80.23,418.38 68.46,401 55.57,384.42 41.49,368.85 24.21,352.2 1.56,332.53"   /><polyline id="SvgjsPolyline1673" points="207.44,599.37 203.33,584.95 198.14,570.88 191.78,557.3 184.38,544.25 177.86,534.18 170.93,524.38 139.92,483.9 125.89,464.43 114.35,446.88 90.79,408.55 79.09,391.11 71.9,381.5 64.3,372.22 56.29,363.29 47.91,354.69 39.24,346.4 28.08,336.38 0.56,313.17"   /><polyline id="SvgjsPolyline1674" points="219.66,599.54 215.98,581.93 213.55,573.26 210.68,564.73 204.91,550.9 200.87,542.85 196.45,535.01 190.06,524.86 181.45,512.58 150.35,472.16 136.34,452.67 124.88,435.08 101.53,396.61 89.86,379.16 82.65,369.57 75.01,360.32 66.95,351.43 56.36,340.8 38.56,324.71 1.72,293.94"   /><polyline id="SvgjsPolyline1675" points="231.5,597.6 230.03,585.69 228.52,576.82 226.62,568.02 224.28,559.33 221.47,550.78 218.19,542.41 214.44,534.22 210.26,526.25 202.48,513.43 193.92,501.11 160.93,458.37 148.69,441.3 135.69,421.13 112.61,382.5 102.66,367.51 95.51,357.88 87.89,348.6 79.84,339.71 69.24,329.1 51.39,313.06 0.75,270.74"   /><polyline id="SvgjsPolyline1676" points="243.57,599.39 242.79,584.41 241.65,572.46 239.88,560.6 238.07,551.78 235.78,543.08 231.95,531.71 228.49,523.4 224.55,515.31 217.06,502.32 208.67,489.89 199.68,477.88 175.6,447.21 166.7,435.13 159.89,425.25 148.68,407.5 127.55,371.2 117.84,356.05 109,343.93 101.38,334.67 93.3,325.8 82.65,315.24 64.71,299.3 18.48,261.05 0.65,244.99"   /><polyline id="SvgjsPolyline1677" points="255.56,599.03 255.82,578.03 255.31,563.04 253.92,548.11 251.36,533.33 247.41,518.87 243.17,507.65 236.58,494.18 228.78,481.37 218.32,466.73 190.43,431.41 178.09,414.42 165.23,394.17 146.14,360.16 138.49,347.25 130.2,334.76 119.17,320.54 107.03,307.25 94.01,294.83 78.11,281.11 47.89,256.46 31.85,242.91 16.35,228.75 1.58,213.82"   /><polyline id="SvgjsPolyline1678" points="267.56,599.39 269.59,572.46 270.35,551.48 269.88,533.49 268.29,518.58 265.31,503.88 261.77,492.42 259.6,486.83 255.88,478.64 248.55,465.55 238.35,450.73 208.45,413.19 201.25,403.59 194.4,393.73 183.42,375.84 163.8,338.7 156.39,325.66 148.2,313.1 139.09,301.19 127.03,287.84 114.03,275.39 100.43,263.6 58.72,229.31 38.67,211.22 28.07,200.62 19.91,191.81 10.14,180.44 0.78,168.71"   /><polyline id="SvgjsPolyline1679" points="262.77,599.65 263.9,575.68 263.92,557.68 263.01,542.71 260.93,527.86 257.4,513.29 253.43,501.97 248.47,491.05 244.26,483.09 239.66,475.35 234.7,467.85 227.64,458.14 199.66,422.9 185.6,403.46 179.1,393.37 172.97,383.06 154.31,348.81 148.29,338.43 138.41,323.39 129.24,311.53 117.15,298.19 101.93,283.74 88.26,272.02 51.11,241.63 33.07,225.81 18,211.18 1.82,193.46"   /><polyline id="SvgjsPolyline1680" points="251.01,597.21 250.73,582.22 250,570.24 248.67,558.32 247.19,549.44 245.24,540.66 241.83,529.15 238.65,520.74 233.61,509.85 226.19,496.82 217.81,484.38 208.81,472.38 182.85,439.37 168.96,419.8 157.83,401.99 136.97,365.54 127.34,350.34 120.35,340.58 110.9,328.94 102.8,320.08 92.12,309.55 74.14,293.66 27.87,255.47 14.44,243.49 1.48,230.99"   /><polyline id="SvgjsPolyline1681" points="279.77,597.4 284.98,558.75 287.29,537.88 288.48,519.92 288.42,501.92 287.01,487 285.41,478.14 283.99,472.31 282.28,466.56 279.16,458.12 276.73,452.64 272.58,444.65 267.91,436.96 261.05,427.11 253.69,417.64 228.96,387.49 221.81,377.85 215.16,367.86 209.08,357.52 203.57,346.86 188.8,314.03 182.21,300.56 174.69,287.58 166.06,275.32 160.38,268.34 154.37,261.65 141.59,248.97 125.86,235.07 95.91,210.09 84.58,200.26 71.37,188.03 58.77,175.18 46.91,161.64 34.02,145.07 21.95,127.89 0.24,95.49"   /><polyline id="SvgjsPolyline1682" points="274.19,599.24 277.68,566.42 279.17,545.48 279.4,527.48 278.44,512.52 276.07,497.71 274.8,491.85 272.38,483.18 269.34,474.71 266.97,469.2 259.97,455.94 255.15,448.35 248.18,438.58 218.1,401.18 210.92,391.56 204.15,381.66 197.86,371.44 192.03,360.95 174.69,326.02 169.01,315.45 164.41,307.71 159.47,300.19 150.43,288.23 138.39,274.86 125.39,262.41 111.79,250.62 72.48,218.13 59.03,206.17 48.21,195.78 37.84,184.94 26.05,171.34 14.93,157.19 0.86,137.75"   /><polyline id="SvgjsPolyline1683" points="291.66,598.97 296.65,572.44 309.43,510.75 312.47,493.01 314.38,478.14 315.52,460.18 315.06,445.19 313.99,436.26 312.89,430.36 309.69,418.8 307.58,413.19 303.79,405.03 299.33,397.21 296.03,392.2 286.95,380.26 267.23,357.66 259.63,348.37 254.38,341.07 251.17,336 245.66,325.35 241.52,314.09 239.96,308.3 238.21,299.47 236.44,284.58 234.23,254.66 233.12,245.73 231.54,236.88 229.37,228.14 226.55,219.6 223.07,211.3 220.4,205.93 215.94,198.11 212.68,193.07 207.45,185.75 201.89,178.67 190.09,165.09 165.53,138.76 153.57,125.32 142.26,111.32 131.85,96.63 122.49,81.26 112.84,62.61 105.41,46.22 86.48,2.11"   /><polyline id="SvgjsPolyline1684" points="285.69,598.86 293.64,551.53 297.24,527.8 299.43,506.92 300.1,488.93 299.49,473.95 298.4,465.02 297.32,459.12 295.14,450.39 293.29,444.68 291.12,439.09 287.31,430.94 281.3,420.56 274.45,410.71 267.03,401.28 242.05,371.33 234.95,361.66 228.5,351.54 222.8,340.99 217.85,330.06 213.51,318.87 204.47,293.43 198.74,279.57 191.85,266.25 183.63,253.71 174.26,242.01 161.87,228.96 148.7,216.69 117.03,189.1 103.72,176.98 88.85,162.16 76.88,148.72 67.55,136.98 57.11,122.32 47.34,107.2 20.65,63.74 10.67,48.76 0.16,34.15"   /><polyline id="SvgjsPolyline1685" points="283.56,598.42 290.48,553.95 292.94,536.12 294.76,518.21 295.47,500.23 294.79,485.25 294.1,479.29 292.54,470.43 290.3,461.72 288.42,456.02 285.01,447.69 282.38,442.3 276.35,431.93 269.52,422.07 262.15,412.6 237.3,382.55 230.16,372.9 223.56,362.88 217.61,352.46 212.31,341.7 207.54,330.69 197.43,305.65 191.15,292.03 186.97,284.06 182.42,276.3 173.86,263.99 164.23,252.49 151.63,239.65 138.3,227.55 106.29,200.36 92.82,188.42 79.82,175.97 67.49,162.86 54.09,146.7 43.45,132.18 31.77,114.73 12.33,84.43 0.52,67.07"   /><polyline id="SvgjsPolyline1686" points="277.82,598.16 282.27,562.43 284.25,541.53 285.01,523.55 284.6,508.56 282.84,493.67 281,484.86 279.42,479.07 275.37,467.78 272.93,462.3 268.77,454.32 262.45,444.12 255.47,434.36 225.29,397.04 218.12,387.42 211.4,377.48 205.19,367.21 199.5,356.65 184.08,324.12 177.27,310.76 172.78,302.96 167.91,295.39 158.96,283.36 149.05,272.1 136.22,259.49 120.43,245.64 78.96,211.06 65.65,198.94 52.92,186.22 40.89,172.83 29.59,158.82 18.92,144.33 0.17,117.17"   /><polyline id="SvgjsPolyline1687" points="303.99,598.09 309.35,574.7 316.51,548.67 324.63,522.92 334.52,494.6 347.36,460.97 359.99,430.48 372.31,403.13 385.64,376.26 398.59,352.56 413.82,326.72 461.07,250.12 517.39,157.97 557.34,94.49 598.54,31.82"   /><polyline id="SvgjsPolyline1688" points="297.16,598.94 300.8,581.31 305.58,560.87 323.81,491.21 331.33,459.08 334.52,441.37 336.03,429.47 336.87,417.5 336.85,405.5 335.76,393.56 334.12,384.71 331.73,376.04 327.35,364.87 321.69,354.3 318.45,349.25 313.13,341.99 305.36,332.85 290.9,317.62 287.14,312.95 285.51,310.44 283.11,304.95 282.51,302.02 282.38,299.02 282.74,296.05 283.53,293.16 286.15,287.77 291.58,280.61 316.26,254.4 336.18,231.97 361.33,202.16 389.78,167.3 425.29,122.71 456.68,82.52 485.93,44.46 518.48,1.37"   /><polyline id="SvgjsPolyline1689" points="289.33,598.67 304.16,519.04 306.72,501.23 308.26,483.3 308.36,468.3 307.71,459.33 306.93,453.38 305.84,447.48 303.58,438.77 298.31,424.74 292.88,414.04 284.67,401.49 275.4,389.7 257.8,369.23 250.25,359.9 243.26,350.15 237.07,339.88 231.84,329.08 227.58,317.87 224.1,306.38 216.57,277.35 211.93,263.09 208.51,254.76 205.92,249.35 203.09,244.06 198.39,236.39 189.53,224.29 177.6,210.82 164.81,198.16 133.94,169.68 121.03,157.14 106.71,141.78 95.31,127.85 86.52,115.71 78.34,103.13 69.21,87.62 48.99,50.81 39.99,35.22 28.8,17.45 16.81,0.22"   /><polyline id="SvgjsPolyline1690" points="294.75,598.4 300.8,569.02 316.56,501.85 321.72,475.35 323.76,460.49 324.82,445.53 324.69,433.54 323.52,421.6 321.32,409.81 318.76,401.18 314.12,390.12 309.78,382.24 304.83,374.73 297.48,365.25 277.47,342.9 271.7,335.99 266.44,328.69 261.99,320.87 258.65,312.53 257.15,306.72 256.03,297.8 256.19,288.81 256.93,282.85 258.82,274.06 261.44,265.45 265.74,254.25 273.24,237.89 299.06,187.07 310.62,162.68 316.61,148.92 322.18,135 326.31,123.73 330.97,109.47 335.02,95.03 337.78,83.35 340.57,68.62 342.25,56.74 343.45,44.8 344.18,32.82 344.49,20.82 344.3,2.83"   /><polyline id="SvgjsPolyline1691" points="293.34,598.69 298.6,572.21 312.91,507.78 315.75,493.05 318.08,478.23 319.64,463.32 320.09,448.33 319.34,436.35 317.37,424.52 314.98,415.85 311.78,407.44 307.82,399.36 303.19,391.65 298.01,384.29 292.42,377.24 272.59,354.72 263.22,343.02 256.71,332.95 253.95,327.62 251.57,322.11 249.62,316.44 247.51,307.7 246.63,301.76 246.02,292.79 246.12,283.79 246.75,274.81 251.78,233.12 252.87,215.16 252.75,206.16 251.69,194.21 250.15,185.34 247.96,176.62 245.12,168.08 241.7,159.76 237.77,151.66 233.41,143.79 223.8,128.57 194.75,86.66 186.84,73.91 179.61,60.77 173.17,47.23 167.54,33.33 162.66,19.14 157.6,1.87"   /><polyline id="SvgjsPolyline1692" points="290.79,598.85 294.04,581.15 307.54,513.48 310.3,495.7 311.88,480.78 312.45,465.8 311.6,450.83 310.22,441.94 308.9,436.08 305.22,424.67 300.2,413.78 297.24,408.56 292.33,401.02 283.22,389.11 263.61,366.4 256.06,357.08 247.51,344.76 241.74,334.25 237.1,323.19 235.21,317.49 232.86,308.81 230.42,297.06 225.79,270.46 223.84,261.67 221.48,252.99 218.7,244.43 215.32,236.09 212.73,230.68 208.35,222.82 199.93,210.42 190.43,198.82 178.12,185.68 148.11,156.3 135.55,143.41 121.67,127.65 110.71,113.38 100.72,98.41 91.67,82.85 83.32,66.91 63.22,26.65 56.09,13.45 48.54,0.49"   /><polyline id="SvgjsPolyline1693" points="292.67,599.14 297.24,575.58 311.82,508.14 314.51,493.39 316.65,478.54 317.96,463.6 318.06,448.61 317.36,439.64 316.51,433.7 313.81,422.01 311.93,416.32 308.45,408.02 304.24,400.07 301.08,394.97 295.9,387.61 290.32,380.54 270.56,357.98 261.17,346.29 256.11,338.85 253.08,333.67 250.38,328.31 247.03,319.96 245.28,314.22 243.92,308.38 242.91,302.47 241.99,293.52 241.62,278.52 242.15,245.53 241.77,236.54 240.88,227.59 238.87,215.76 236.7,207.02 233.85,198.49 230.36,190.2 227.7,184.82 223.27,176.99 218.39,169.42 213.18,162.09 203.94,150.27 180.76,122.73 169.49,108.7 158.91,94.13 150.83,81.5 142.14,65.74 134.54,49.43 127.83,32.73 116.67,1.67"   /><polyline id="SvgjsPolyline1694" points="291.76,597.95 296.26,574.37 308.48,515.63 312.02,494.93 313.84,480.05 314.76,462.08 314,447.1 312.68,438.2 311.38,432.34 307.76,420.91 302.77,410.01 299.82,404.78 294.91,397.24 285.78,385.35 266.1,362.7 258.55,353.38 250.09,341 244.5,330.39 240.17,319.2 238.48,313.45 236.49,304.67 234.63,292.82 231.27,263.01 229.85,254.12 227.94,245.33 226.34,239.55 223.4,231.05 219.79,222.8 215.56,214.86 207.34,202.32 196.06,188.3 183.86,175.07 158.62,149.4 144.27,134.07 132.63,120.34 121.87,105.92 112.12,90.79 101.97,72.41 94.08,56.23 77.73,20.83 68.37,2.03"   /><polyline id="SvgjsPolyline1695" points="292.59,598.21 297.16,574.65 311,510.12 314.16,492.4 316.17,477.53 317.29,462.58 317.13,447.59 316.24,438.63 315.26,432.71 312.26,421.1 309.09,412.68 306.55,407.25 302.16,399.39 298.9,394.36 289.87,382.38 268.2,357.5 260.71,348.13 255.59,340.73 252.5,335.59 247.3,324.78 243.55,313.39 242.22,307.54 240.83,298.65 239.78,283.69 239.16,250.7 238.51,241.73 237.35,232.8 235.58,223.98 233.13,215.32 229.98,206.9 226.17,198.74 218.58,185.81 209.83,173.64 200.33,162.03 174.43,132.87 162.81,119.13 151.86,104.84 141.84,89.89 132.74,74.37 123.46,55.53 116.4,38.98 102.17,2.67"   /><polyline id="SvgjsPolyline1696" points="288.33,597.22 301.51,523.39 304.22,502.57 305.27,487.61 305.39,478.61 305.02,469.62 304.06,460.67 303.06,454.76 300.96,446.01 299.14,440.29 294.53,429.22 288.74,418.72 282.01,408.78 274.65,399.31 255.21,376.46 247.7,367.1 240.69,357.36 234.41,347.14 229,336.44 224.44,325.34 220.58,313.97 212.79,288.13 207.71,274.02 201.34,260.44 196.83,252.66 193.53,247.64 184.44,235.72 172.29,222.45 157.17,207.88 125.85,179.89 112.71,167.59 100.1,154.75 86.33,138.9 75.48,124.54 65.47,109.58 56.11,94.21 36.55,60.47 23.88,40.09 12,22.78 1.22,8.36"   /><polyline id="SvgjsPolyline1697" points="316.34,597.63 322.42,574.41 329.81,551.58 338.43,529.19 348.22,507.28 357.77,488.58 369.86,467.85 383.24,447.93 396.01,431.26 407.69,417.57 419.94,404.38 434.83,389.57 452.41,373.24 479.47,349.49 559.65,281.7 598.31,248.44"   /><polyline id="SvgjsPolyline1698" points="308.44,599.99 314.15,576.69 321.92,550.83 330.94,525.38 341.1,500.37 352.45,475.88 365.04,452 377.34,431.39 390.86,411.56 401.77,397.25 413.27,383.4 425.25,369.97 439.69,354.72 465.12,329.25 546.82,249.74 570.19,226.44 599.61,196.46"   /><polyline id="SvgjsPolyline1699" points="300.17,598.91 306.08,572.57 312.98,546.46 321.44,517.68 343.44,445.98 348.98,425.73 353.25,408.24 356.81,390.6 359.77,369.81 361.17,351.87 362.32,318.89 363.8,303.97 365.44,295.12 367.71,286.42 370.57,277.88 373.9,269.52 381.62,253.27 393.32,232.32 407.58,209.39 425.88,181.93 446.49,152.41 474.55,113.47 504.79,72.4 558.63,0.28"   /><polyline id="SvgjsPolyline1700" points="301.6,599.06 306.17,578.57 313.06,552.46 320.8,526.6 329.13,500.91 361.38,407.31 384.72,336.04 391.52,316.17 402.21,288.15 413.09,263.43 425.07,239.24 439.43,212.9 454.65,187.05 473.73,156.53 496.83,121.45 520.56,86.79 548.2,47.56 581.53,1.31"   /><polyline id="SvgjsPolyline1701" points="305.45,599.22 311,575.87 318.46,549.92 327.99,521.48 337.54,496.23 347.97,471.32 359.34,446.84 370.39,425.53 382.46,404.79 397.29,382.24 415.07,358.08 433.86,334.69 493.77,263.56 525.99,224.03 544.54,200.45 562.76,176.62 598.29,128.27"   /><polyline id="SvgjsPolyline1702" points="302.33,599.12 309.16,569.91 317.33,541.05 328.4,506.8 342.46,467.22 360.56,419.54 378.58,375.05 393.08,342.1 409.82,306.88 428.78,269.4 448.62,232.38 469.36,195.87 490.99,159.86 513.39,124.34 539.78,84.24 565.11,47.05 597.81,0.36"   /><polyline id="SvgjsPolyline1703" points="304.23,598.96 310.46,572.7 317.03,549.61 325.34,523.93 336.59,492.91 346.6,467.83 358.59,440.33 370.31,416.01 381.64,394.86 395.51,371.69 412.11,346.71 425.99,327.13 475.33,259.15 492.6,234.62 512.95,204.92 546.09,154.91 599.88,71.79"   /><polyline id="SvgjsPolyline1704" points="303.81,598.84 309.27,575.47 316.54,549.47 325.74,520.92 334.83,495.5 345.7,467.54 357.37,439.9 368.68,415.39 380.95,391.34 392.76,370.45 406.97,347.49 421.84,324.96 463.9,262.86 485.37,230.3 506.49,197.51 564.32,106.3 598.49,53.37"   /><polyline id="SvgjsPolyline1705" points="298.97,598.2 304.08,574.75 309.19,554.38 314.71,534.12 330.43,479.33 338.04,450.31 342.94,426.82 344.72,414.96 345.65,406.01 346.2,394.02 346.01,385.02 345.05,373.07 343.68,364.17 341.69,355.4 338.14,343.94 333.76,332.77 326.58,316.26 323.65,307.76 322.71,301.84 322.74,298.85 323.13,295.87 324.79,290.11 328.58,281.96 336.3,269.1 349.87,249.31 363.99,229.9 405.51,174.8 538.45,0.76"   /><polyline id="SvgjsPolyline1706" points="296.16,599.99 303.02,567.72 322.02,492.07 327.15,468.62 329.7,453.84 331.42,438.94 331.97,426.96 331.53,414.97 329.88,403.09 327.73,394.36 323.57,383.11 318.04,372.47 311.53,362.39 306.08,355.23 300.23,348.39 285.94,333.01 280.07,326.19 274.9,318.83 272.13,313.51 270.13,307.86 269.04,301.97 268.94,295.97 269.26,292.99 270.55,287.14 272.59,281.5 275.21,276.1 279.93,268.44 285.22,261.17 294.68,249.52 323.98,215.37 347.08,187.76 367.87,162.13 390.19,133.88 415.79,100.59 440.94,66.96 463.9,35.43 488.15,1.14"   /><polyline id="SvgjsPolyline1707" points="298.54,597.84 302.95,577.31 308.69,554.01 328.69,481.73 335.97,452.63 338.97,437.93 341.26,423.11 342.39,411.16 342.69,399.17 341.97,387.2 340.05,375.36 336.83,363.8 332.34,352.68 326.74,342.08 320.21,332.01 314.92,324.73 309.3,317.7 297.08,304.5 295.48,301.97 295.18,299.03 296.42,296.33 310.67,280.92 329.89,257.88 387.86,185.16 461.7,90.57 529.12,2.39"   /><polyline id="SvgjsPolyline1708" points="309.59,541.77 323.62,486.52 327.46,468.94 330.1,454.17 331.94,439.29 332.62,427.31 332.35,415.32 331.39,406.37 329.66,397.54 327.13,388.91 323.78,380.56 318.12,369.99 313.11,362.51 307.59,355.4 283.46,328.7 278.17,321.43 275.29,316.17 273.2,310.55 272.52,307.63 271.99,301.66 272.6,295.7 274.24,289.94 278.23,281.88 285.23,272.15 295.05,260.81 323.2,229.64 342.83,206.96 373.52,170.05 403.57,132.62 453.18,68.59 478.41,35.02 503.31,1.19"   /><polyline id="SvgjsPolyline1709" points="290.09,599.43 293.85,578.77 305.43,519.9 308.67,499.15 310.23,484.23 310.71,475.25 310.75,466.25 310.27,457.26 309.6,451.3 308.02,442.44 306.55,436.63 302.58,425.31 297.32,414.53 294.26,409.37 289.23,401.91 280.01,390.09 262.36,369.65 252.96,357.97 246.12,348.11 240.16,337.7 235.27,326.75 231.42,315.38 228.43,303.77 222.19,274.42 218.15,259.98 215.04,251.54 212.64,246.04 209.97,240.67 205.48,232.87 196.89,220.58 185.2,206.9 172.59,194.06 142.08,165.2 129.33,152.49 115.24,136.92 104.07,122.81 95.49,110.51 86.04,95.19 77.3,79.46 60.65,47.54 52.05,31.73 42.99,16.18 33.32,1"   /><polyline id="SvgjsPolyline1710" points="295.33,598.22 302.8,563 318.89,495.91 323.56,472.37 325.7,457.52 326.75,445.57 326.99,433.58 326.18,421.61 324.1,409.8 321.6,401.16 318.28,392.79 312.66,382.2 307.7,374.69 302.23,367.54 294.41,358.45 280.27,342.92 274.52,336 269.34,328.64 265.06,320.74 262.03,312.27 260.52,303.41 260.58,294.42 262.1,285.56 263.79,279.8 267.13,271.45 271.2,263.43 277.36,253.13 292.65,230.88 324.62,187.36 345.66,158.15 362.83,133.55 381.25,106.17 400.71,75.88 414.81,52.86 431.38,24.32 444.32,0.62"   /><polyline id="SvgjsPolyline1711" points="294.17,597.5 299.53,571.04 314.2,506.69 318.74,483.13 320.85,468.28 321.9,456.33 322.18,444.33 321.46,432.36 319.5,420.53 317.11,411.85 313.91,403.44 309.94,395.37 305.29,387.67 298.25,377.95 290.56,368.74 272.62,348.56 263.55,336.63 258.93,328.91 256.33,323.51 254.17,317.91 251.86,309.21 250.95,303.29 250.45,294.31 250.64,288.31 251.6,279.36 253.18,270.5 255.21,261.74 269.23,212.7 272.11,201.06 274.53,189.3 276.32,177.44 277.38,165.49 277.62,156.49 277.12,144.51 276.12,135.56 273.96,123.76 271.76,115.04 268.18,103.59 260.56,84.02 245.98,51.11 239.11,34.47 233.07,17.52 228.12,0.21"   /><polyline id="SvgjsPolyline1712" points="294.18,599.04 300.81,566.72 314.99,505.33 320.09,478.82 322.11,463.96 323.04,452 323.15,440 322.21,428.05 320.68,419.18 317.39,407.65 313.98,399.32 308.27,388.77 303.27,381.29 297.79,374.16 275.96,349.42 270.21,342.49 264.92,335.21 260.33,327.48 256.68,319.26 254.86,313.54 253.57,307.68 252.64,298.74 252.63,292.74 253.45,283.78 254.45,277.87 256.52,269.11 259.09,260.48 263.04,249.15 282.56,198.81 290.08,176.02 294.06,161.56 296.67,149.85 298.69,138.02 300.05,126.1 300.68,114.12 300.41,99.12 299.36,87.17 297.65,75.3 295.37,63.52 292.66,51.83 279.82,2.47"   /><polyline id="SvgjsPolyline1713" points="294.81,598.87 301.53,566.57 317.37,499.41 322,475.86 324.14,461.02 325.19,449.07 325.44,437.07 324.66,425.1 323.26,416.21 320.15,404.63 316.86,396.26 311.3,385.63 306.37,378.11 299.04,368.61 279.05,346.24 273.27,339.34 267.97,332.07 263.46,324.29 260.02,315.98 257.9,307.25 257.19,298.28 257.46,292.29 258.28,286.35 260.4,277.61 263.35,269.11 266.93,260.85 272.37,250.16 282.9,231.99 311.47,186.17 331.59,152.76 347.76,123.99 361.51,97.34 374.15,70.13 383.28,47.94 391.42,25.36 398.46,2.42"   /><polyline id="SvgjsPolyline1714" points="294.57,597.72 301.27,565.41 315.53,504.05 320.65,477.54 322.66,462.68 323.59,450.72 323.69,438.72 322.73,426.76 321.18,417.9 317.86,406.38 314.43,398.06 308.7,387.53 303.68,380.06 298.18,372.93 276.32,348.22 270.59,341.28 265.34,333.98 260.82,326.2 258.33,320.74 255.57,312.18 254.04,303.32 253.72,294.33 254.49,285.37 255.52,279.46 257.67,270.72 260.4,262.15 266.97,245.39 287.84,198.86 298.08,173.88 303.14,159.76 306.77,148.32 310.67,133.84 313.86,119.18 316.25,104.38 317.47,92.44 318.07,80.46 317.95,65.46 317.21,53.48 315.62,38.57 313.5,23.72 309.59,0.04"   /><polyline id="SvgjsPolyline1715" points="294.51,599.63 301.84,564.38 316.27,503.06 321.5,476.57 323.59,461.72 324.61,449.77 324.81,437.77 323.98,425.8 321.87,414 319.36,405.36 316.03,397 310.41,386.41 305.45,378.9 300,371.74 292.21,362.61 278.12,347.04 272.36,340.13 267.07,332.85 262.54,325.08 259.05,316.79 256.83,308.08 255.94,299.13 256.34,290.14 257.85,281.28 260.25,272.61 263.34,264.15 268.2,253.18 277.87,234.54 304.42,187.52 318.62,161.1 331.84,134.17 337.96,120.48 343.69,106.62 353,81.27 357.49,66.96 360.68,55.4 364.15,40.8 366.48,29.03 368.44,17.19 370.37,2.32"   /><polyline id="SvgjsPolyline1716" points="310.56,526.37 315.92,502.98 319.49,485.34 321.91,470.54 323.31,458.62 324.02,446.64 323.85,434.65 322.54,422.73 320.69,413.92 318.02,405.33 314.55,397.03 310.32,389.09 305.46,381.52 296.28,369.66 272.46,342.67 267.06,335.47 262.33,327.82 258.54,319.66 255.91,311.07 254.55,302.18 254.43,293.18 254.96,287.21 256.56,278.35 258.91,269.67 261.84,261.16 270.05,241.84 292.23,195.91 304.47,168.53 311.08,151.79 315.08,140.47 319.54,126.15 322.62,114.56 325.77,99.89 327.68,88.05 329.02,76.12 329.8,64.15 330.1,49.15 329.7,34.16 328.69,19.19 326.95,1.28"   /><polyline id="SvgjsPolyline1717" points="307.7,539.19 317.2,498.28 320.66,480.61 322.93,465.79 324.34,450.86 324.59,438.86 323.81,426.89 322.41,418 320.23,409.28 317.23,400.8 313.43,392.64 308.92,384.85 303.82,377.44 298.26,370.36 272.52,341.07 267.18,333.83 262.57,326.11 258.96,317.87 256.57,309.2 255.51,300.27 255.71,291.28 256.48,285.33 258.42,276.55 261.13,267.97 265.58,256.83 274.75,237.94 301.82,187.78 314.09,163.73 326.62,136.47 332.32,122.6 337.55,108.54 341.36,97.16 345.59,82.77 349.19,68.21 351.58,56.45 353.94,41.64 355.33,29.72 357.12,2.79"   /><polyline id="SvgjsPolyline1718" points="293.63,598.92 299.55,569.51 314.04,505.12 318.37,481.52 320.28,466.64 321.2,451.68 320.95,439.68 319.57,427.77 317.67,418.97 314.96,410.4 311.45,402.11 307.21,394.18 302.34,386.61 295.09,377.05 271.37,349.98 264,340.51 259.11,332.96 256.27,327.68 253.83,322.2 251.83,316.54 249.7,307.8 248.86,301.86 248.45,295.88 248.54,286.88 249.33,277.92 250.63,269.01 258.95,227.85 260.89,216 261.94,207.07 262.64,195.09 262.44,183.09 261.39,171.14 259.88,162.27 257.76,153.53 255.07,144.94 251.85,136.54 246.9,125.61 238.43,109.73 214.18,68.31 208.57,57.7 203.37,46.89 198.67,35.85 194.49,24.6 190.84,13.17 187.69,1.59"   /><polyline id="SvgjsPolyline1719" points="295.91,584.1 312.51,507.89 315.79,490.19 317.92,475.35 319.19,460.4 319.23,445.41 318.06,433.47 315.6,421.73 313.84,416 310.53,407.63 307.9,402.24 303.4,394.45 298.32,387.02 292.81,379.91 271.08,355.07 261.77,343.31 256.83,335.8 253.92,330.55 250.24,322.34 248.3,316.67 246.77,310.87 245.65,304.97 244.66,296.03 244.41,290.04 244.83,275.05 247.67,239.16 247.88,227.16 247.48,218.18 246.47,209.23 244.07,197.48 241.45,188.87 238.18,180.49 234.3,172.37 230.03,164.45 222.09,151.73 213.37,139.53 191.33,111.06 182.38,99.02 172.28,84.13 164.59,71.25 157.69,57.93 150.46,41.46 144.21,24.58 136.88,1.72"   /><polyline id="SvgjsPolyline1720" points="319.97,466.65 320.63,457.68 320.84,448.68 320.69,442.68 319.94,433.72 319.06,427.78 317.09,419 314.32,410.44 312.02,404.9 306.45,394.28 301.54,386.74 297.98,381.91 290.39,372.62 270.54,350.13 261.51,338.16 256.89,330.44 254.26,325.05 251.11,316.62 249.57,310.83 248.49,304.92 247.66,295.97 247.67,286.97 248.06,280.98 249.95,266.11 256.64,227.69 258.03,215.77 258.67,203.79 258.36,191.8 257.4,182.85 255.78,174 252.61,162.43 247.17,148.46 243.26,140.35 238.97,132.44 231.25,119.58 205.3,79.21 197.78,66.23 192.23,55.59 187.17,44.71 181.59,30.79 176.82,16.57 172.75,2.13"   /><polyline id="SvgjsPolyline1721" points="328.7,597.48 334.36,577.26 340.18,560.23 348.05,540.77 357.05,521.79 367.15,503.38 378.33,485.61 390.56,468.55 403.77,452.23 415.79,438.83 428.35,425.93 443.55,411.44 461.45,395.46 493.59,368.43 563.46,311.7 598.18,283.07"   /><polyline id="SvgjsPolyline1722" points="311.34,597.78 317.31,574.54 325.44,548.8 333.8,526.3 344.43,501.49 355.01,479.95 366.74,459.01 378.03,441.31 390.3,424.27 401.58,410.24 415.49,394.51 430.05,379.39 445.09,364.73 473.74,338.27 549.83,270.35 598.62,225.9"   /><polyline id="SvgjsPolyline1723" points="319.51,599.75 324.93,579.46 332.47,556.68 340.17,537.14 350.19,515.34 361.53,494.19 372.55,476.32 384.62,459.14 397.68,442.7 411.63,427.01 424.19,414.12 439.39,399.62 457.27,383.62 487.04,358.42 561.26,297.54 598.12,266.79"   /><polyline id="SvgjsPolyline1724" points="306.56,599.64 312.95,573.41 319.75,550.39 329.5,522.02 339.34,496.88 350.2,472.16 362.16,447.96 373.89,427.02 386.76,406.77 395.4,394.51 404.46,382.56 415.8,368.58 427.54,354.94 451.77,328.31 505.2,271.48 537.72,236.18 569.65,200.34 598.97,166.21"   /><polyline id="SvgjsPolyline1725" points="309.89,598.59 316.56,572.43 323.71,549.52 331.87,526.95 342.21,502.01 353.81,477.64 365.28,456.56 377.96,436.19 390.1,419.05 401.25,404.92 412.99,391.28 427.31,375.93 444.26,358.93 474.76,330.06 551.95,258.87 599.83,213.45"   /><polyline id="SvgjsPolyline1726" points="299.47,599.55 304.59,576.1 311.3,549.95 317.85,526.86 335.87,466.49 341.49,446.26 346.45,425.85 349.86,408.18 351.51,396.3 352.35,387.34 352.83,375.35 352.66,366.35 352.04,357.37 351,348.44 345.84,315.84 345.34,309.87 345.27,303.87 345.74,297.89 346.78,291.98 348.34,286.19 351.44,277.75 357.93,264.23 368.48,246.07 381.54,225.94 400.34,198.82 419.64,172.06 448.17,133.45 547.49,1.69"   /><polyline id="SvgjsPolyline1727" points="301.2,597.29 307.24,570.97 315.97,539.15 325.69,507.61 347.85,439.11 357.21,407.47 361.75,390.05 365.74,372.5 375.04,322.36 378.89,304.78 381.24,296.09 384.88,284.65 389.08,273.42 393.79,262.38 402.97,243.49 414.53,222.47 430.04,196.78 447.95,169.07 469.87,136.81 495.78,100.03 525.66,58.69 568.35,0.71"   /><polyline id="SvgjsPolyline1728" points="304.96,598.27 311.27,572.02 317.93,548.97 327.36,520.49 336.75,495.18 348.12,467.42 359.24,442.81 371.38,418.7 381.66,400.39 396.01,377.52 404.5,365.15 415.06,350.58 431.45,329.12 488.8,255.91 508.67,229.57 526.4,205.37 560.98,156.34 599.6,99.16"   /><polyline id="SvgjsPolyline1729" points="305.98,599.39 311.56,576.05 318.18,552.98 326.69,527.36 337.28,499.29 349.04,471.69 360.7,447.34 372.08,426.22 384.55,405.72 392.92,393.27 401.72,381.12 420.33,357.59 439.85,334.81 497.8,269.93 531.28,231.45 565.85,189.97 599.45,147.7"   /><polyline id="SvgjsPolyline1730" points="303.04,598.59 308.45,575.21 315.64,549.18 324.67,520.58 335.57,489.43 348.34,455.77 361.95,422.44 375.32,392.28 388.46,365.31 404.01,336.2 421.81,304.91 467.19,227.19 499.47,173.09 526.3,129.72 548.94,94.34 575.38,54.28 598.96,19.53"   /><polyline id="SvgjsPolyline1731" points="295.46,599.31 301.58,569.94 318.58,499.98 324.16,473.56 326.52,458.75 328.02,443.83 328.35,431.84 327.64,419.86 325.68,408.03 323.27,399.36 320.04,390.97 314.53,380.32 309.62,372.78 302.29,363.28 282.2,341 276.43,334.1 271.25,326.75 268.31,321.52 264.99,313.16 263.66,307.32 263.29,304.34 263.34,295.35 265.04,286.53 266.93,280.84 270.67,272.65 275.16,264.86 281.88,254.92 292.74,240.57 326.43,198.36 348.61,170 364.97,148.53 386.42,119.61 407.45,90.4 428.03,60.86 449.75,28.47 467.61,0.72"   /><polyline id="SvgjsPolyline1732" points="298.59,598.79 302.99,578.26 308.73,554.95 328.93,482.73 336.45,453.69 339.64,439.03 341.75,427.22 343.33,415.32 344.21,403.36 344.2,391.36 343.51,382.39 342.16,373.49 339.26,361.85 335.17,350.58 330.02,339.75 324.06,329.33 312.74,311.64 310.03,306.3 309.46,303.37 310.12,297.42 311.11,294.6 313.95,289.31 318.9,281.8 340.28,252.84 465.02,91.42 534.21,0.82"   /><polyline id="SvgjsPolyline1733" points="294.79,599.91 300.83,570.53 316.13,506.33 322.23,476.96 324.5,462.13 325.89,447.2 326.11,435.21 325.29,423.24 323.18,411.43 320.67,402.79 317.34,394.43 311.72,383.84 306.75,376.34 301.29,369.19 295.47,362.33 279.36,344.54 273.6,337.62 268.38,330.29 264,322.44 260.78,314.04 258.96,305.24 258.63,296.26 259.18,290.28 260.29,284.39 262.84,275.76 266.22,267.42 270.2,259.35 276.12,248.92 287.4,231.21 319.41,184.04 339.24,154 358.37,123.5 375.11,95.06 388.16,71.43 400.54,47.44 412.12,23.04 421.63,1.01"   /><polyline id="SvgjsPolyline1734" points="293.89,599.94 299.82,570.54 314.58,506.21 319.18,482.66 321.33,467.81 322.43,455.87 322.77,443.87 322.38,434.88 320.82,422.99 318.76,414.23 315.88,405.71 310.82,394.84 306.21,387.11 299.21,377.37 291.54,368.14 273.58,347.98 267.95,340.96 264.47,336.07 259.84,328.36 256.12,320.17 253.49,311.58 252.38,305.68 251.78,299.71 251.76,290.72 252.66,281.77 254.28,272.92 259.02,255.56 274.57,210.15 278.12,198.68 281.28,187.11 283.93,175.4 285.96,163.58 287.25,151.65 287.73,139.66 287.38,127.67 286.32,115.72 284.42,103.87 281.78,92.17 275.77,72.05 258.77,23.97 255.2,12.51 252.03,0.94"   /><polyline id="SvgjsPolyline1735" points="296.43,585.27 301.46,561.8 313.49,509.16 316.49,494.46 319.05,479.68 320.93,464.8 321.73,452.83 321.68,440.84 320.55,428.89 318.85,420.06 316.35,411.42 313.04,403.05 307.46,392.43 302.54,384.9 297.13,377.71 289.4,368.53 271.49,348.33 264.19,338.81 259.39,331.2 256.64,325.87 254.31,320.34 252.44,314.64 251.06,308.81 249.89,299.89 249.71,290.89 250.35,281.92 251.65,273.01 253.41,264.19 264.42,220.56 266.91,208.82 268.42,199.95 269.82,188.03 270.37,176.05 269.94,164.06 268.92,155.12 267.3,146.27 265.11,137.54 261.48,126.1 258.32,117.68 250.99,101.24 231.77,63.9 222.73,44.95 218.1,33.88 213.95,22.62 210.32,11.18 207.95,2.5"   /><polyline id="SvgjsPolyline1736" points="321.48,420.86 319.36,412.11 316.42,403.61 312.7,395.42 306.63,385.07 301.41,377.74 295.78,370.73 271.98,343.72 266.56,336.54 261.78,328.91 257.91,320.8 255.93,315.13 253.98,306.36 253.36,300.39 253.38,291.39 253.97,285.42 255.56,276.57 257.84,267.86 260.62,259.3 264.85,248.08 284.75,201.12 294.37,175.9 298.99,161.63 302.92,147.15 305.47,135.43 307.41,123.59 308.7,111.66 309.28,99.67 309.15,87.68 308.05,72.72 306.51,60.82 303.98,46.03 294.69,2.01"   /><polyline id="SvgjsPolyline1737" points="322.65,434.25 321.6,425.31 319.01,413.6 316.13,405.08 311.06,394.21 306.44,386.49 299.43,376.75 291.75,367.54 273.78,347.39 268.17,340.36 264.7,335.46 260.1,327.73 256.43,319.52 254.6,313.81 252.83,304.99 252.3,299.01 252.41,290.02 253.45,281.08 255.22,272.26 257.55,263.57 260.28,254.99 278.98,204.34 286.23,181.46 289.87,166.91 292.13,155.13 293.71,143.23 294.53,131.26 294.53,119.27 293.7,107.3 292.08,95.41 289.76,83.64 285.26,66.21 271.08,20.36 265.56,0.09"   /><polyline id="SvgjsPolyline1738" points="324.87,449.9 325.06,434.9 324,422.95 321.64,411.2 317.83,399.83 312.62,389.03 309.54,383.87 304.44,376.46 295,364.81 275.02,342.44 269.51,335.32 264.65,327.75 261.92,322.41 259.7,316.84 257.45,308.13 256.58,299.18 257.03,290.2 258.62,281.35 261.13,272.71 264.34,264.3 269.38,253.42 279.4,234.97 310.06,183.39 324.9,157.32 340.25,128.11 353.02,100.97 362.21,78.8 371.22,53.35 374.72,41.87 378.62,27.39 384.47,1.03"   /><polyline id="SvgjsPolyline1739" points="341.06,597.55 346.04,580.25 352.02,563.28 360.21,543.95 368.23,527.84 377.13,512.19 388.57,494.59 399.22,480.08 412.54,463.84 424.61,450.49 437.19,437.62 454.59,421.09 467.99,409.07 497.66,383.76 599.53,299.83"   /><polyline id="SvgjsPolyline1740" points="353.41,597.74 358.48,580.47 364.62,563.55 371.8,547.05 379.95,531 389.03,515.46 398.96,500.45 409.66,485.98 421.06,472.05 433.05,458.62 445.53,445.66 460.59,431.02 478.29,414.81 512.31,385.36 599.62,312.07"   /><polyline id="SvgjsPolyline1741" points="365.76,597.97 369.91,583.56 375.92,566.6 381.76,552.78 389.72,536.64 398.64,521.01 408.44,505.91 419.03,491.36 430.31,477.33 440.16,466.02 452.44,452.86 465.12,440.09 482.51,423.55 516.05,393.55 597.98,323.19"   /><polyline id="SvgjsPolyline1742" points="378.11,598.2 383.14,580.92 388.21,566.81 394.04,552.99 402.01,536.85 410.96,521.24 419.1,508.64 429.58,494.01 440.76,479.9 452.51,466.27 464.74,453.06 479.48,438.1 494.6,423.54 530.07,391.19 599.93,329.81"   /><polyline id="SvgjsPolyline1743" points="390.47,598.4 394.53,583.96 399.37,569.77 405,555.87 412.74,539.62 419.96,526.47 429.46,511.18 439.76,496.43 450.76,482.18 462.34,468.4 474.4,455.04 488.94,439.89 503.87,425.12 521.26,408.59 543.33,388.26 599.1,338.11"   /><polyline id="SvgjsPolyline1744" points="402.82,598.55 406.84,584.1 411.62,569.89 417.16,555.95 423.45,542.34 430.45,529.07 439.7,513.63 448.04,501.16 458.7,486.67 468.06,474.94 479.76,461.27 493.94,445.77 508.54,430.68 523.46,415.91 542.97,397.24 598.04,346.33"   /><polyline id="SvgjsPolyline1745" points="415.17,598.68 419.18,584.23 423.9,569.99 429.37,556.02 435.55,542.36 442.44,529.04 449.96,516.06 459.75,500.96 468.47,488.75 479.49,474.53 491.03,460.71 502.99,447.26 515.27,434.1 532.04,416.93 549.12,400.07 599.13,352.53"   /><polyline id="SvgjsPolyline1746" points="427.53,598.81 431.57,584.37 436.27,570.13 441.67,556.13 447.75,542.42 454.51,529.03 461.9,515.98 469.86,503.27 480.08,488.45 489.08,476.45 500.35,462.42 512.06,448.75 524.11,435.38 553.18,405.07 598.14,360.94"   /><polyline id="SvgjsPolyline1747" points="439.88,599 444.03,584.58 448.76,570.35 454.12,556.34 460.12,542.59 466.76,529.14 474.01,516.01 481.81,503.2 490.11,490.71 500.65,476.12 509.84,464.27 521.28,450.37 535.08,434.54 561.64,405.98 599.57,367.55"   /><polyline id="SvgjsPolyline1748" points="452.24,599.29 456.56,584.92 462.41,567.9 467.9,553.95 472.72,542.95 479.26,529.46 486.37,516.25 492.45,505.9 500.49,493.24 510.71,478.43 519.65,466.38 530.8,452.25 542.33,438.43 568.28,409.32 599.28,376.7"   /><polyline id="SvgjsPolyline1749" points="464.59,599.75 469.17,585.47 475.22,568.52 479.62,557.36 485.59,543.59 492.08,530.07 497.65,519.44 505.05,506.4 511.32,496.17 519.54,483.62 528.15,471.34 537.09,459.3 548.21,445.14 571.43,417.63 599.63,386.51"   /><polyline id="SvgjsPolyline1750" points="477.82,597.66 488.11,569.49 498.7,544.65 505.19,531.13 510.72,520.48 518.03,507.38 524.19,497.09 538.97,474.49 554.84,452.65 573.46,429.13 598.79,399.48"   /><polyline id="SvgjsPolyline1751" points="490.13,598.73 501.15,570.83 510.84,548.88 521.45,527.35 534.57,503.75 547.22,483.36 562.46,461.08 578.59,439.43 599.24,413.68"   /><polyline id="SvgjsPolyline1752" points="503.47,597.4 514.2,572.63 524.39,550.9 533.9,532.18 545.51,511.18 557.92,490.64 569.4,473.05 584.92,450.96 599.33,431.77"   /><polyline id="SvgjsPolyline1753" points="515.69,599.29 525.98,577.61 535.37,558.83 545.19,540.27 555.47,521.95 566.22,503.92 577.46,486.18 587.46,471.21 599.52,454.02"   /><polyline id="SvgjsPolyline1754" points="529.09,598.95 547.45,564.54 565.41,533.35 581.21,507.84 599.45,480.35"   /><polyline id="SvgjsPolyline1755" points="542.49,599.16 557.61,573.25 570.13,552.78 584.68,530.03 599.72,507.61"   /><polyline id="SvgjsPolyline1756" points="555.87,599.94 578.67,564.66 599.08,535.01"   /><polyline id="SvgjsPolyline1757" points="570.8,598.74 584.5,579.04 598.56,559.58"   /><polyline id="SvgjsPolyline1758" points="585.76,598.15 598.35,581.34"   /></g></svg>