<?xml version="1.0" standalone="no"?>
<svg id="SvgjsSvg1001" width="600" height="600" xmlns="http://www.w3.org/2000/svg" version="1.1" xmlns:xlink="http://www.w3.org/1999/xlink" xmlns:svgjs="http://svgjs.com/svgjs" class="svg-paper" viewBox="0 0 600 600"><title id="SvgjsTitle2318">x=cos(x)|y=x|dTest=0.0|sd=0.2|sm=0.2|ts=0.05 | generated with FlowLines</title><style>*{fill:none;stroke:#777}</style><g id="SvgjsG2319"><polyline id="SvgjsPolyline2320" points="0,521.08 3.94,598.98"   /><polyline id="SvgjsPolyline2321" points="0.1,169.62 4.5,259.51 8.29,364.44 11.11,475.41 13.24,598.39"   /><polyline id="SvgjsPolyline2322" points="8.08,0.99 11.03,114.95 13.23,240.93 14.95,399.93 16.1,597.92"   /><polyline id="SvgjsPolyline2323" points="20.07,0.62 18.39,255.61 17.59,597.61"   /><polyline id="SvgjsPolyline2324" points="32.07,0.74 29.4,54.67 27.01,114.62 25.27,168.6 23.43,240.57 20.78,396.55 18.98,597.54"   /><polyline id="SvgjsPolyline2325" points="44.06,1.39 38.9,58.16 34.76,115.01 30.82,183.9 27.79,252.83 25.36,324.79 23.3,405.76 21.63,495.74 20.29,597.74"   /><polyline id="SvgjsPolyline2326" points="55.99,2.6 51.84,32.31 48.49,59.1 42.46,115.78 37.17,178.56 32.67,247.41 28.7,328.31 25.96,403.26 23.47,496.23 21.56,598.21"   /><polyline id="SvgjsPolyline2327" points="68.43,1.41 62.98,30.91 58.09,60.51 54.13,87.22 50.18,116.96 46,152.71 42.93,182.56 37.54,245.32 34.8,284.23 32.11,329.15 28.41,407.06 25.29,497 22.82,598.97"   /><polyline id="SvgjsPolyline2328" points="80.9,0.79 74.88,27.11 68.79,56.49 63.31,85.98 58.38,115.57 53.97,145.25 49.67,177.97 46.2,207.76 42.54,243.58 39.1,282.42 36.57,315.33 33.6,360.23 31.41,399.17 27.43,489.08 24.13,597.03"   /><polyline id="SvgjsPolyline2329" points="93.36,0.69 84.92,32.59 78.58,58.83 72.14,88.13 66.87,114.61 61.08,147.1 56.39,176.73 51.41,212.39 47.07,248.12 43,286.91 39.75,322.76 34.27,397.56 31.35,448.48 29.2,493.42 25.4,598.36"   /><polyline id="SvgjsPolyline2330" points="105.8,1.02 96.41,32.66 89.24,58.69 81.16,90.68 73.85,122.86 67.29,155.2 61.96,184.73 56.72,217.31 51.7,252.95 46.99,291.67 43.22,327.47 39.69,366.31 36.65,405.19 33.85,447.1 30.85,501.01 26.72,599.93"   /><polyline id="SvgjsPolyline2331" points="118.2,1.7 107.23,35.99 97.75,67.6 88.18,102.3 81.59,128.48 74.24,160.65 67.64,192.98 61.76,225.46 56.55,258.04 51.55,293.69 46.86,332.41 42.53,374.18 39.1,413.03 36.14,451.92 33.24,496.83 30.5,547.75 28.24,598.7"   /><polyline id="SvgjsPolyline2332" points="130.56,2.59 117.29,42.44 106.37,76.75 96.94,108.37 88.2,140.19 80.91,169.29 74.89,195.61 68.8,224.99 62.28,260.39 56.56,295.93 51.56,331.58 46.87,370.3 42.54,412.08 38.86,453.91 35.73,495.8 32.72,543.7 29.93,597.63"   /><polyline id="SvgjsPolyline2333" points="143.82,0.73 112.61,94.68 102.81,126.19 95.24,152.11 86.64,183.96 79.48,213.1 73.58,239.44 67.05,271.79 61.24,304.27 55.65,339.84 50.39,378.48 46.18,414.23 41.68,459.01 38.13,500.86 34.91,545.74 31.72,599.64"   /><polyline id="SvgjsPolyline2334" points="156.11,1.62 144.24,38.77 114.86,127.01 99.77,175.72 90.81,207.48 84.03,233.61 77.09,262.8 71.39,289.19 64.56,324.54 58.56,360.03 52.9,398.62 48.37,434.33 44.12,473.1 40.99,505.95 37.32,550.8 34.04,598.69"   /><polyline id="SvgjsPolyline2335" points="168.36,2.24 161.08,28.24 151.43,59.8 115.58,168.01 101.28,213.84 94.61,236.89 87.56,262.95 80.32,292.07 74.99,315.47 68.31,347.78 62.87,377.28 57.53,409.85 52.41,445.48 47.94,481.2 44.05,516.99 39.89,561.8 37.05,597.69"   /><polyline id="SvgjsPolyline2336" points="180.58,2.39 176.11,22.91 171.91,40.41 166.58,60.73 160.86,80.93 149.36,118.2 118.12,212.14 104.51,255.03 91.21,301.15 85.13,324.37 79.45,347.69 72.93,376.97 67.59,403.43 61.72,435.91 57.41,462.56 53.11,492.25 48.55,527.96 44.58,563.74 41.13,599.57"   /><polyline id="SvgjsPolyline2337" points="192.7,1.82 188.21,34.51 182.57,67.03 175.72,99.31 167.7,131.32 159.52,160.18 149.75,191.7 118.52,285.64 104.01,331.4 91.55,374.63 81.13,415.32 75.74,438.71 70.75,462.18 62.44,506.41 55.82,547.88 49.06,598.43"   /><polyline id="SvgjsPolyline2338" points="204.65,0.26 203.94,48.26 202.77,96.24 201.31,135.21 199.19,174.15 196.44,210.05 193.05,242.87 189.1,272.61 184.75,299.26 179.6,325.76 174.34,349.18 168.47,372.45 161.21,398.45 146.97,444.29 112.95,546.79 104,575.42 97.19,598.44"   /><polyline id="SvgjsPolyline2339" points="199.3,0.62 197.54,24.56 195.05,51.44 193.04,69.33 189.89,93.12 187.19,110.91 183.59,131.6 179.5,152.2 174.92,172.69 165.99,207.57 155.01,244.99 144.95,276.42 110.98,378.93 101.27,410.47 92.2,442.2 83.13,477.04 73.71,517.97 65.51,559.16 58.92,597.6"   /><polyline id="SvgjsPolyline2340" points="216.65,0.4 218.79,15.25 221.41,30.01 224.64,44.66 227.78,56.24 231.54,67.63 236.07,78.75 240.07,86.81 244.67,94.54 249.95,101.82 255.98,108.5 260.41,112.54 267.69,117.83 275.63,122.05 284.09,125.07 289.95,126.37 298.9,127.2 304.9,127.01 313.78,125.61 322.35,122.9 330.43,118.96 335.48,115.71 342.44,110.02 348.65,103.51 354.11,96.36 358.87,88.73 363.01,80.74 367.69,69.69 371.58,58.34 374.83,46.79 378.16,32.17 380.86,17.41 383.06,2.58"   /><polyline id="SvgjsPolyline2341" points="210.64,0.73 212.21,24.68 214.66,51.57 216.8,69.44 219.98,90.2 223.52,107.84 227.27,122.37 231.95,136.61 236.56,147.69 242.12,158.32 248.82,168.26 252.65,172.88 256.81,177.2 263.69,182.99 268.68,186.32 273.96,189.17 282.34,192.44 291.1,194.43 300.07,195.1 309.04,194.41 317.8,192.4 326.17,189.11 331.44,186.25 336.42,182.91 343.29,177.1 347.44,172.78 351.27,168.15 357.95,158.2 363.5,147.56 368.1,136.48 372.77,122.23 376.51,107.71 380.05,90.06 383.21,69.3 385.62,48.44 387.47,27.52 389.25,0.58"   /><polyline id="SvgjsPolyline2342" points="207.81,0.88 209.05,42.86 210.57,75.82 212.59,105.75 215.15,132.63 217.79,153.46 221.29,174.17 225.22,191.73 230.33,208.98 235.81,222.94 238.38,228.36 242.73,236.24 247.73,243.72 251.46,248.41 255.53,252.83 259.93,256.9 264.66,260.58 269.71,263.82 275.05,266.56 280.62,268.78 286.39,270.43 292.29,271.49 301.27,271.98 307.25,271.55 313.16,270.53 321.76,267.91 327.24,265.47 332.46,262.51 337.38,259.08 341.97,255.22 346.23,251 350.15,246.46 353.75,241.66 358.55,234.05 361.41,228.77 365.21,220.62 370.48,206.58 375.4,189.27 379.19,171.68 382.57,150.95 385.44,127.12 387.56,103.22 389.63,70.28 391.15,34.32 392.08,1.33"   /><polyline id="SvgjsPolyline2343" points="202.42,0.17 200.75,39.13 198.95,69.07 196.84,95.99 194.16,122.86 191.22,146.68 187.22,173.38 182.51,199.96 177.64,223.46 172.86,243.91 167.62,264.25 156.83,301.72 145.01,338.89 113.78,432.83 104.79,461.45 97.11,487.34 90.67,510.46 82.46,542.42 76.32,568.71 70.09,598.06"   /><polyline id="SvgjsPolyline2344" points="206.37,1.04 207.03,67.04 207.94,115.03 209.27,157.01 211.24,195.96 213.74,228.86 216.7,255.7 220.36,279.42 224.72,299.95 229.68,317.25 232.72,325.72 236.21,334.02 240.23,342.07 243.24,347.25 248.32,354.68 252.1,359.34 258.41,365.75 263.03,369.57 267.98,372.97 273.22,375.88 278.72,378.28 284.43,380.12 290.29,381.38 299.25,382.17 308.22,381.61 314.11,380.49 319.87,378.79 325.42,376.53 330.73,373.74 335.76,370.47 340.46,366.75 346.89,360.46 350.76,355.88 355.95,348.53 359.04,343.38 363.15,335.38 366.73,327.12 369.84,318.68 374.91,301.41 379.37,280.9 383.11,257.19 386.4,227.37 388.85,194.47 390.51,161.51 391.89,119.53 392.89,68.54 393.58,2.55"   /><polyline id="SvgjsPolyline2345" points="205.63,1.32 205.04,163.32 203.98,247.31 202.92,292.3 201.66,328.28 200.21,358.24 198.3,388.18 195.51,421.06 192.93,444.92 189.39,471.69 185.62,495.39 181.21,518.98 175.49,545.37 168.98,571.57 161.77,597.59"   /><polyline id="SvgjsPolyline2346" points="203.73,2.57 202.6,44.55 201.15,80.53 199.29,113.47 197.02,143.39 194.05,173.24 190.27,203 186.06,229.67 181.04,256.19 172.39,294.22 167.11,314.55 161.42,334.76 148.13,377.75 117.81,468.84 104.22,511.74 91.73,554.97 80.6,598.57"   /><polyline id="SvgjsPolyline2347" points="205.25,1.81 204.61,76.81 203.71,130.8 202.45,175.78 201.09,208.75 199,244.69 196.64,274.6 193.91,301.46 189.65,334.18 184.87,363.8 179.74,390.31 173.8,416.64 166.3,445.69 157.98,474.51 149.03,503.14 116.86,599.94"   /><polyline id="SvgjsPolyline2348" points="228.94,1.76 234.05,15.86 240.51,29.39 245.18,37.08 248.68,41.96 252.49,46.59 256.64,50.92 261.13,54.89 265.95,58.46 271.08,61.58 276.48,64.18 282.11,66.25 287.92,67.75 293.84,68.66 299.83,68.98 305.82,68.7 311.76,67.82 317.57,66.35 323.21,64.31 328.63,61.74 333.77,58.65 338.61,55.1 343.12,51.15 347.29,46.84 351.12,42.22 354.63,37.36 359.32,29.68 362.11,24.37 365.82,16.17 370.96,2.08"   /><polyline id="SvgjsPolyline2349" points="222.33,2.01 225.16,13.67 227.66,22.32 230.54,30.84 233.87,39.2 239.07,50.01 241.97,55.26 246.86,62.82 252.46,69.86 258.81,76.23 263.46,80.01 268.44,83.37 273.7,86.24 282.06,89.55 287.87,91.05 293.8,91.97 299.78,92.29 305.78,92.01 311.71,91.14 317.53,89.68 325.91,86.42 333.73,81.99 338.57,78.44 343.08,74.49 349.21,67.91 352.89,63.17 357.81,55.63 362.09,47.72 365.8,39.52 369.03,31.12 371.84,22.57 374.29,13.92 377.1,2.25"   /><polyline id="SvgjsPolyline2350" points="213.53,1.76 215.41,19.66 217.8,37.5 220.31,52.29 223.42,66.96 227.33,81.44 231.2,92.79 235.83,103.86 241.25,114.57 247.77,124.63 253.5,131.57 259.98,137.8 267.2,143.16 275.1,147.45 283.55,150.55 292.35,152.36 301.33,152.84 310.28,151.96 316.13,150.64 324.59,147.59 332.51,143.34 339.77,138.02 346.28,131.81 352.03,124.9 358.59,114.86 362.76,106.89 367.49,95.86 371.41,84.52 375.42,70.07 378.63,55.42 381.25,40.65 383.76,22.83 386.03,1.95"   /><polyline id="SvgjsPolyline2351" points="218.59,0.48 221.28,15.23 223.91,26.94 227.06,38.52 229.85,47.08 233.07,55.48 236.8,63.67 241.13,71.56 246.14,79.03 251.9,85.94 258.37,92.19 262.99,96.02 270.52,100.94 275.89,103.6 284.37,106.58 290.23,107.85 299.19,108.64 308.17,108.09 314.06,106.98 319.81,105.29 328.06,101.7 335.71,96.98 340.42,93.26 344.8,89.16 350.73,82.4 355.92,75.05 360.45,67.28 364.38,59.18 368.83,48.04 371.67,39.5 374.9,27.94 377.61,16.26 380.41,1.52"   /><polyline id="SvgjsPolyline2352" points="214.48,2.04 216.62,19.91 219.35,37.7 222.23,52.42 225.04,64.09 228.43,75.6 232.53,86.87 237.51,97.78 241.95,105.61 247.09,112.99 252.99,119.78 259.68,125.79 267.13,130.83 275.23,134.73 283.78,137.52 292.6,139.3 301.58,139.73 307.56,139.28 316.37,137.48 324.81,134.39 332.72,130.11 339.96,124.76 346.44,118.54 352.18,111.6 357.19,104.13 361.55,96.26 366.48,85.33 370.57,74.05 373.98,62.54 377.48,47.96 380.31,33.23 382.61,18.41 384.83,0.55"   /><polyline id="SvgjsPolyline2353" points="211.9,1.91 213.64,22.84 215.55,40.74 217.98,58.57 221.11,76.3 224.43,90.92 228.61,105.33 232.74,116.59 237.77,127.48 243.9,137.79 251.14,147.35 257.32,153.89 264.26,159.61 269.28,162.89 274.59,165.68 283.01,168.85 291.8,170.75 300.77,171.3 309.73,170.52 318.47,168.4 326.8,165.01 334.55,160.45 341.6,154.88 345.89,150.68 349.84,146.17 355.15,138.9 361.18,128.54 366.18,117.63 370.32,106.37 374.54,91.98 377.93,77.37 381.16,59.66 383.69,41.84 385.98,20.97 387.75,0.04"   /><polyline id="SvgjsPolyline2354" points="209.18,1.63 210.94,37.59 212.87,64.52 214.91,85.42 217.6,106.25 220.62,123.99 224.54,141.55 228.74,155.95 233.97,170.01 236.36,175.51 240.4,183.55 246.76,193.72 250.4,198.49 254.37,202.98 260.96,209.11 265.76,212.69 270.88,215.83 279.06,219.57 287.69,222.06 293.62,223 299.61,223.34 305.6,223.08 311.53,222.22 320.21,219.84 328.43,216.2 333.58,213.13 338.43,209.6 345.09,203.55 349.1,199.09 352.78,194.36 359.21,184.23 362.01,178.92 365.73,170.73 370.89,156.65 375,142.23 378.88,124.66 381.9,106.91 384.95,83.11 386.95,62.2 389.05,32.28 390.52,2.31"   /><polyline id="SvgjsPolyline2355" points="209.59,0.35 211.18,30.31 213.21,57.23 215.35,78.12 218.19,98.93 221.38,116.64 224.76,131.25 229.02,145.63 234.44,159.61 239.84,170.32 246.42,180.35 250.2,185.01 254.33,189.36 261.19,195.18 266.17,198.51 271.39,201.47 279.6,205.14 288.26,207.55 294.2,208.43 300.19,208.71 306.18,208.39 312.11,207.47 320.75,205.01 326.27,202.66 331.54,199.8 338.88,194.61 345.49,188.5 349.47,184.02 353.12,179.26 359.5,169.1 364.78,158.33 370.14,144.32 374.4,129.94 377.81,115.34 381.06,97.64 383.98,76.84 386.21,55.96 388.34,29.04 389.88,2.09"   /><polyline id="SvgjsPolyline2356" points="208.43,2.47 209.64,35.45 211.25,65.41 213.31,92.33 216.22,119.17 219.35,139.93 222.89,157.58 226.66,172.09 231.43,186.31 237.51,200.01 243.58,210.36 250.58,220.1 254.56,224.58 258.89,228.74 263.55,232.51 268.53,235.86 273.8,238.72 279.32,241.06 285.05,242.84 290.92,244.04 299.89,244.73 308.86,244.07 314.74,242.89 320.47,241.13 326,238.81 331.28,235.97 336.28,232.65 340.95,228.88 345.28,224.74 349.28,220.27 356.3,210.54 362.13,200.06 368.04,186.28 372.72,172.04 377.12,154.59 380.53,136.91 383.58,116.14 386.18,92.28 388.32,65.36 390.01,35.41 391.3,2.44"   /><polyline id="SvgjsPolyline2357" points="207.09,1.15 207.97,46.14 209.32,88.12 210.97,121.08 213.17,150.99 216.03,177.84 219.09,198.62 223.22,219.2 227.88,236.59 230.64,245.15 233.82,253.57 240.22,267.13 244.85,274.84 248.31,279.74 252.09,284.4 256.21,288.76 260.67,292.78 265.45,296.39 270.55,299.55 275.93,302.21 281.53,304.33 287.33,305.89 293.24,306.86 299.23,307.24 305.22,307.02 311.16,306.2 316.99,304.79 322.66,302.81 328.1,300.28 333.27,297.25 338.14,293.74 342.68,289.83 346.88,285.55 350.75,280.96 354.29,276.12 359.03,268.47 361.84,263.17 365.59,254.99 368.84,246.6 371.68,238.06 376.32,220.67 380.42,200.08 383.87,176.33 386.66,149.48 388.85,119.56 390.51,86.6 391.73,50.62 392.75,2.63"   /><polyline id="SvgjsPolyline2358" points="207.36,1.53 208.24,40.52 209.76,82.49 211.23,109.45 213.55,139.36 216.18,163.22 219.29,183.98 223.49,204.56 228.32,221.89 233.55,235.95 236.02,241.41 240.23,249.37 245.1,256.93 248.75,261.69 257.02,270.38 261.54,274.32 266.39,277.85 271.54,280.92 276.96,283.49 282.61,285.51 288.43,286.95 294.36,287.81 300.36,288.08 306.34,287.74 312.27,286.81 318.07,285.3 323.69,283.21 329.09,280.59 334.2,277.46 339.01,273.87 343.49,269.88 347.63,265.54 351.44,260.91 356.55,253.5 359.58,248.32 362.34,243 366.02,234.79 371.12,220.68 375.89,203.33 380.1,182.76 383.25,162 385.94,138.15 388.35,108.25 389.89,81.3 391.41,42.33 392.45,0.34"   /><polyline id="SvgjsPolyline2359" points="207.97,1.6 209.19,40.58 210.61,70.55 212.65,100.48 214.94,124.37 218.09,148.16 221.25,165.87 225.37,183.39 229.8,197.72 235.43,211.62 241.05,222.22 247.87,232.07 251.79,236.62 256.06,240.83 260.69,244.65 265.64,248.03 270.9,250.92 279.14,254.51 287.79,257 293.71,257.92 299.7,258.25 308.67,257.62 314.55,256.46 320.29,254.72 325.83,252.42 331.12,249.59 336.12,246.28 340.81,242.53 345.15,238.4 349.16,233.94 356.2,224.23 359.26,219.07 363.35,211.05 369,197.16 374.27,179.96 378.32,162.42 381.46,144.7 384.63,120.91 386.96,97.02 388.88,70.09 390.53,37.14 391.74,1.16"   /><polyline id="SvgjsPolyline2360" points="206.72,0.59 207.4,48.58 208.58,96.57 209.87,129.54 211.79,162.49 214.07,189.39 217.31,216.19 220.81,236.9 225.57,257.34 228.13,265.97 231.08,274.47 234.38,282.85 238.13,291.03 242.44,298.93 245.67,303.98 251.09,311.16 255.12,315.6 261.8,321.62 266.67,325.13 271.84,328.17 277.27,330.71 282.93,332.69 288.76,334.11 294.7,334.94 300.69,335.17 306.68,334.8 312.6,333.83 318.39,332.28 324.01,330.17 329.38,327.51 334.48,324.36 339.28,320.75 343.74,316.74 347.86,312.38 353.42,305.31 358.27,297.73 361.15,292.47 367.26,278.78 370.3,270.31 372.95,261.71 377.92,241.31 381.61,220.64 384.74,196.84 387.28,169.96 389.28,140.03 391.13,98.07 392.34,53.09 393.14,2.1"   /><polyline id="SvgjsPolyline2361" points="206.03,0.14 207.05,141.14 208.05,192.13 209.58,237.1 211.56,273.05 214.03,302.94 217.56,332.73 219.9,347.55 222.15,359.34 224.81,371.04 227.98,382.61 230.77,391.17 233.97,399.58 237.65,407.79 241.89,415.73 246.76,423.29 250.4,428.06 256.48,434.68 260.96,438.68 268.29,443.89 273.55,446.77 281.9,450.11 287.7,451.63 293.62,452.56 299.61,452.9 305.6,452.64 311.54,451.78 317.36,450.34 325.75,447.11 333.59,442.7 338.43,439.17 342.95,435.23 349.1,428.66 352.78,423.92 357.72,416.4 362.01,408.49 365.73,400.3 368.97,391.9 372.65,380.48 377.69,360.1 381.9,336.48 385.27,309.69 388.3,273.82 390.27,237.87 391.74,195.9 392.85,141.91 393.54,78.92 393.94,0.92"   /><polyline id="SvgjsPolyline2362" points="206.53,2.62 207.32,65.62 208.35,110.6 209.67,146.58 211.69,182.52 214.23,212.41 217.11,236.24 220.54,256.95 225.19,277.43 227.69,286.07 230.58,294.6 233.91,302.95 237.78,311.08 242.26,318.88 247.28,326.35 250.97,331.08 254.99,335.53 261.65,341.57 266.51,345.1 271.67,348.16 277.09,350.7 282.75,352.71 288.57,354.14 294.51,354.99 300.5,355.24 306.49,354.89 312.41,353.95 318.21,352.42 323.83,350.32 329.21,347.68 334.32,344.54 339.13,340.95 345.71,334.81 351.53,327.96 355,323.06 358.17,317.97 362.4,310.03 366.07,301.82 369.27,293.4 374.48,276.18 379.05,255.68 382.87,231.99 386.24,202.19 388.36,175.27 390.31,139.32 391.68,100.35 392.62,58.36 393.36,1.36"   /><polyline id="SvgjsPolyline2363" points="206.19,2.26 206.76,77.26 207.53,128.25 208.61,170.24 210.21,209.2 212.3,242.14 215.12,272 218.34,295.78 220.4,307.6 222.86,319.35 225.01,328.09 228.39,339.6 231.38,348.09 236.06,359.14 240.05,367.2 243.05,372.4 248.1,379.85 251.86,384.52 255.95,388.9 262.73,394.81 267.66,398.23 272.89,401.18 278.37,403.6 284.07,405.48 292.89,407.21 298.87,407.62 304.87,407.44 313.75,406.04 319.51,404.38 325.08,402.15 330.41,399.4 335.45,396.15 340.18,392.46 346.64,386.2 350.53,381.63 355.75,374.31 360.3,366.54 364.25,358.46 367.68,350.14 370.66,341.65 373.27,333.03 376.24,321.41 380.36,300.82 384.18,274.1 386.89,247.23 389.35,211.32 390.96,175.35 392.3,127.37 393.23,67.38 393.74,1.38"   /><polyline id="SvgjsPolyline2364" points="206.4,1.67 207.7,100.66 208.78,139.64 210.32,175.61 212.23,205.55 214.37,229.45 217.31,253.27 220.81,273.97 224.79,291.53 230.04,308.74 235.74,322.6 241.43,333.17 244.71,338.18 248.33,342.97 252.29,347.47 256.61,351.64 261.27,355.41 266.27,358.73 271.56,361.56 277.05,363.98 282.7,365.99 288.52,367.43 294.45,368.28 303.45,368.44 309.41,367.79 315.28,366.56 320.99,364.75 329.17,361 334.28,357.86 339.08,354.27 343.56,350.28 349.64,343.65 353.27,338.87 358.14,331.31 362.38,323.37 366.05,315.16 369.25,306.74 372.03,298.19 374.46,289.52 377.24,277.85 381.11,257.21 384.71,230.45 387.5,200.59 389.59,167.65 391.32,125.69 392.45,80.7"   /><polyline id="SvgjsPolyline2365" points="206.26,5.63 206.8,71.63 207.67,125.62 208.83,167.61 210.56,206.57 212.58,236.5 215.53,266.35 218.91,290.11 221.08,301.91 223.67,313.63 226.77,325.22 229.51,333.79 232.68,342.21 236.35,350.43 240.61,358.36 243.81,363.43 249.23,370.61 253.28,375.04 260.01,381 264.92,384.45 270.13,387.41 275.62,389.84 284.19,392.57 290.05,393.86 296,394.55 302,394.65 307.98,394.16 316.77,392.3 322.44,390.34 327.89,387.83 333.07,384.82 337.96,381.33 342.51,377.43 348.71,370.91 352.42,366.2 357.4,358.71 360.36,353.49 364.3,345.4 367.73,337.07 370.7,328.58 373.3,319.97 376.27,308.34 380.38,287.75 384.2,261.02 386.9,234.16 389.19,201.24 391.07,159.28 392.24,117.3 393.09,66.31 393.67,0.31"   /><polyline id="SvgjsPolyline2366" points="205.85,2.05 206.58,194.05 207.48,260.04 208.62,305.03 210.55,349.99 213.01,385.9 216.03,415.75 219.94,442.46 222.83,457.18 225.62,468.85 228.96,480.37 231.88,488.88 235.25,497.23 239.12,505.35 243.58,513.16 248.71,520.56 254.56,527.39 258.89,531.55 266,537.05 271.13,540.16 279.32,543.86 285.05,545.64 290.93,546.85 299.89,547.54 305.88,547.25 314.74,545.7 323.27,542.85 328.68,540.26 333.82,537.17 340.95,531.69 347.33,525.35 351.16,520.73 356.3,513.35 360.78,505.54 364.66,497.43 368.04,489.09 371.87,477.72 375.07,466.15 377.75,454.46 380.53,439.72 383.95,415.97 387.22,383.13 389.56,347.21 391.49,299.25 392.61,251.26 393.39,191.27 394.13,2.27"   /><polyline id="SvgjsPolyline2367" points="205.76,59.29 206.15,422.29 206.91,521.28 208.45,599.27"   /><polyline id="SvgjsPolyline2368" points="205.48,0.95 204.65,129.95 203.78,183.94 202.76,222.93 201.52,255.91 199.42,294.85 196.93,327.75 193.6,360.58 189.69,390.33 185.36,416.98 179.64,446.42 173.68,472.76 166.96,498.91 158.71,527.75 148.88,559.25 135.69,599.13"   /><polyline id="SvgjsPolyline2369" points="205.71,2.7 205.48,164.7 204.94,263.7 203.74,347.69 202.18,401.67 199.3,458.59 197.54,482.53 195.35,506.43 192.36,533.26 189.57,554.07 185.83,577.78 182.04,598.43"   /><polyline id="SvgjsPolyline2370" points="205.37,71.81 204.4,188.81 202.54,269.78 201.06,305.75 199.37,335.71 197.12,365.62 194.19,395.48 191.26,419.3 187.26,446 182.46,472.57 178.15,493.12 172.63,516.47 166.51,539.68 157.26,571.36 148.22,599.96"   /><polyline id="SvgjsPolyline2371" points="241.25,0.81 247.78,10.87 253.5,17.81 259.98,24.04 267.21,29.4 275.11,33.69 283.55,36.79 292.36,38.6 301.34,39.07 307.32,38.64 316.14,36.88 324.59,33.82 332.52,29.57 339.77,24.25 346.28,18.05 352.03,11.13 358.59,1.09"   /><polyline id="SvgjsPolyline2372" points="232.71,0.06 237.73,10.95 243.85,21.27 247.38,26.12 251.25,30.7 257.72,36.94 262.47,40.61 267.46,43.94 272.68,46.9 278.15,49.35 283.84,51.25 289.69,52.57 298.64,53.45 307.62,52.98 313.52,51.92 319.29,50.28 327.57,46.77 332.77,43.79 337.67,40.33 342.25,36.45 346.48,32.2 350.39,27.64 353.96,22.83 360.19,12.58 365.36,1.75"   /><polyline id="SvgjsPolyline2373" points="207.05,16.05 207.97,64.04 209.45,109.02 210.97,138.98 213.18,168.9 215.67,192.77 219.1,216.52 223.23,237.1 227.98,254.46 230.9,262.97 234.29,271.31 236.84,276.74 241.18,284.62 246.2,292.09 249.96,296.76 254.07,301.13 258.53,305.14 263.34,308.73 268.46,311.85 276.53,315.82 282.17,317.88 287.97,319.37 293.9,320.28 299.89,320.59 305.88,320.3 311.82,319.41 317.63,317.94 323.27,315.9 328.68,313.31 333.82,310.22 338.65,306.67 343.16,302.71 347.33,298.4 351.16,293.78 354.66,288.91 357.86,283.84 362.13,275.92 368.04,262.14 373.54,245 377.75,227.51 381.49,206.84 384.65,183.06 387.22,156.18 389.24,126.25 390.77,93.28 391.98,54.3 392.98,0.31"   /><polyline id="SvgjsPolyline2374" points="206.1,1.61 206.63,85.6 207.41,142.6 208.41,184.59 209.9,223.56 212.05,259.49 214.76,289.37 218.3,316.13 222.15,336.77 224.19,345.54 227.4,357.1 231.28,368.45 234.73,376.76 238.73,384.83 241.74,390.01 246.76,397.48 252.35,404.53 258.68,410.92 263.33,414.71 268.29,418.08 273.55,420.96 281.9,424.3 287.7,425.82 293.63,426.75 299.62,427.09 305.61,426.83 314.47,425.32 320.21,423.59 325.76,421.29 333.59,416.88 338.44,413.35 342.96,409.41 349.11,402.84 352.79,398.1 357.72,390.58 362.01,382.67 365.74,374.48 368.97,366.08 371.79,357.53 374.25,348.88 377.07,337.21 380.97,316.58 384.62,289.83 387.43,259.97 389.7,224.04 391.39,182.07 392.55,134.09 393.36,74.09 393.83,2.1"   /><polyline id="SvgjsPolyline2375" points="205.94,0.64 206.79,156.63 207.65,210.63 208.91,255.61 210.69,294.57 213.28,330.47 216.18,357.31 219.82,381.03 222.17,392.8 224.97,404.47 227.43,413.12 231.17,424.53 234.43,432.91 238.18,441.09 242.5,448.99 245.73,454.04 251.17,461.21 255.21,465.64 259.58,469.75 266.77,475.15 271.94,478.19 280.19,481.77 285.95,483.46 291.84,484.57 297.82,485.09 306.8,484.74 315.63,483.06 321.34,481.21 326.84,478.81 334.59,474.25 339.37,470.63 345.92,464.47 349.87,459.95 355.17,452.69 359.8,444.97 363.81,436.91 367.3,428.62 370.34,420.15 373.78,408.65 376.67,397.01 379.11,385.26 381.63,370.47 385.08,343.7 387.97,310.82 390.19,271.89 391.69,229.92 392.87,172.93 393.57,106.93 393.96,25.93"   /><polyline id="SvgjsPolyline2376" points="206.18,61.76 207.31,178.76 208.42,226.74 209.64,259.72 211.44,292.67 213.86,322.57 216.21,343.44 219.86,367.16 224.27,387.69 229.36,404.95 234.87,418.89 238.88,426.94 241.91,432.12 245.25,437.11 248.92,441.85 252.94,446.31 257.31,450.42 264.42,455.92 269.46,459.18 274.78,461.95 280.34,464.19 286.1,465.87 294.98,467.29 300.97,467.49 306.96,467.09 315.79,465.39 321.49,463.52 329.63,459.71 334.71,456.53 339.49,452.9 346.03,446.73 349.97,442.2 355.26,434.93 358.41,429.82 362.61,421.86 366.25,413.63 369.42,405.21 372.18,396.65 375.33,385.07 379.68,364.53 383.33,340.81 386.55,310.98 388.77,281.07 390.7,242.11 392.15,194.14 393.07,140.14"   /><polyline id="SvgjsPolyline2377" points="210.58,251.97 212.61,281.9 215.23,308.77 218.49,332.55 222.4,353.18 226.88,370.61 229.64,379.17 232.83,387.59 236.52,395.8 239.3,401.11 245.76,411.21 251.47,418.17 255.71,422.41 260.31,426.26 265.24,429.68 270.47,432.6 275.97,435 281.64,436.97 287.43,438.52 296.34,439.74 302.34,439.81 308.31,439.27 314.2,438.15 319.95,436.44 325.5,434.17 330.81,431.38 335.83,428.09 340.53,424.37 344.9,420.26 348.93,415.81 352.62,411.09 359.08,400.98 361.89,395.68 365.63,387.5 370.81,373.42 375.65,356.09 379.39,338.49 382.71,317.75 385.55,293.92 387.64,270.01 389.69,237.08 391.08,204.11 392.89,126.13 393.86,9.14"   /><polyline id="SvgjsPolyline2378" points="205.91,10.27 206.77,181.27 207.61,235.26 208.84,280.24 210.75,322.2 213.11,355.11 215.94,381.96 220.02,408.65 222.4,420.41 225.25,432.07 228.68,443.56 231.71,452.04 235.23,460.32 240.59,471.05 245.27,478.74 248.77,483.61 254.63,490.43 258.96,494.59 263.62,498.36 271.21,503.18 276.62,505.78 282.25,507.83 291.02,509.84 296.98,510.44 305.97,510.22 311.9,509.32 317.72,507.84 326.09,504.56 333.9,500.1 338.73,496.54 343.23,492.58 349.34,485.98 353,481.23 357.91,473.69 362.17,465.76 365.88,457.56 369.09,449.16 372.75,437.73 375.8,426.13 378.37,414.41 382.39,390.75 386.19,357.97 388.71,325.07 390.66,286.12 392.26,232.14 393.14,178.15 394.04,22.15"   /><polyline id="SvgjsPolyline2379" points="205.84,46.53 206.46,235.53 207.13,295.52 208.19,346.51 209.55,385.49 211.51,421.43 214.26,454.32 217.59,481.11 222.24,507.7 224.93,519.4 228.12,530.96 230.93,539.51 234.15,547.91 237.86,556.11 242.13,564.03 247.04,571.57 250.7,576.32 256.83,582.91 261.33,586.87 266.16,590.43 273.98,594.88 282.35,598.15 288.16,599.62"   /><polyline id="SvgjsPolyline2380" points="205.95,50.58 206.74,197.58 207.68,257.57 208.85,299.55 210.43,335.52 212.63,368.45 215.61,398.29 219.02,422.05 221.22,433.85 223.83,445.56 226.96,457.14 229.73,465.7 232.94,474.11 236.65,482.31 239.44,487.62 244.19,495.26 249.67,502.4 255.84,508.94 260.26,512.99 265.02,516.64 270.09,519.85 278.22,523.71 283.91,525.6 289.76,526.92 298.71,527.78 304.7,527.61 313.59,526.24 319.36,524.59 327.63,521.08 332.83,518.08 337.73,514.62 344.46,508.65 348.52,504.24 354,497.1 358.77,489.48 362.92,481.5 366.53,473.25 370.61,461.97 373.22,453.36 376.2,441.73 380.83,418.19 384.85,388.46 387.59,358.59 389.95,319.66 391.36,283.69 392.59,232.7 393.46,163.71 393.91,82.71"   /><polyline id="SvgjsPolyline2381" points="205.92,76.02 206.28,181.02 206.89,250.01 207.98,310 209.46,354.98 211.57,393.92 214.35,426.8 218.17,456.55 222.62,480.13 225.51,491.78 228.99,503.26 233.21,514.49 236.97,522.67 241.32,530.54 246.11,538.16 251.6,545.28 257.84,551.76 264.84,557.41 269.9,560.63 275.24,563.36 283.69,566.44 289.54,567.78 298.48,568.68 304.48,568.53 313.37,567.19 319.14,565.56 324.73,563.37 330.07,560.65 337.55,555.65 344.3,549.71 348.37,545.31 352.12,540.62 357.14,533.15 361.5,525.29 365.3,517.13 368.59,508.75 371.46,500.22 373.96,491.58 376.82,479.92 379.23,468.17 381.73,453.38 385.15,426.6 387.8,396.72 390.22,354.79 391.71,312.82 392.74,264.83 393.43,207.83 394.13,24.83"   /><polyline id="SvgjsPolyline2382" points="527.37,597.82 522.17,574.38 516.57,551.05 509.77,524.92 503.31,501.8 494.73,473.06 486.59,447.31 455.35,353.37 443.57,316.19 436.81,293.17 431.29,272.91 426.9,255.45 422.21,234.98 416.88,208.51 412.35,181.9 408.57,155.16 405.47,128.34 402.93,101.46 400.72,71.54 398.9,38.6 397.48,2.62"   /><polyline id="SvgjsPolyline2383" points="205.87,122.64 206.3,263.64 207.15,347.64 208.49,407.62 209.74,440.6 211.01,464.56 212.72,488.5 214.71,509.41 216.91,527.27 219.71,545.05 222.54,559.78 226.04,574.37 230.4,588.71 234.7,599.92"   /><polyline id="SvgjsPolyline2384" points="205.6,203.82 204.94,356.82 204.34,407.82 203.31,458.81 202.06,497.79 200.38,533.75 198.23,566.68 195.35,599.55"   /><polyline id="SvgjsPolyline2385" points="206.15,284.57 207.26,404.57 208.25,449.56 209.78,491.53 211.66,524.48 213.88,551.38 217.04,578.2 220.45,598.91"   /><polyline id="SvgjsPolyline2386" points="255.9,1.6 260.33,5.65 267.59,10.95 272.82,13.9 278.3,16.34 283.99,18.22 289.84,19.53 295.8,20.25 301.79,20.37 307.77,19.89 313.67,18.81 319.44,17.16 325.01,14.94 330.34,12.19 335.39,8.95 340.12,5.27 344.52,1.19"   /><polyline id="SvgjsPolyline2387" points="206.79,173.46 207.58,224.46 208.79,269.44 210.5,308.4 212.98,344.32 216.13,374.15 219.75,397.87 224.12,418.41 229.15,435.68 232.26,444.13 235.87,452.37 240.04,460.34 243.19,465.45 248.52,472.7 252.5,477.19 259.13,483.27 263.98,486.8 269.14,489.85 274.58,492.38 280.24,494.35 288.97,496.52 294.91,497.33 300.91,497.54 306.89,497.15 315.72,495.45 321.43,493.59 326.92,491.18 332.15,488.25 337.09,484.85 341.71,481.02 345.99,476.82 349.93,472.29 355.23,465.02 358.37,459.92 362.58,451.96 368.39,438.14 373.81,420.98 377.96,403.47 382.09,379.83 385.09,356.02 387.76,326.14 389.46,299.19 391.03,263.23 392.21,221.25 393.52,125.26"   /><polyline id="SvgjsPolyline2388" points="206.77,256.26 207.6,310.25 208.72,352.23 210.39,391.2 212.57,424.12 215.17,451 218.41,474.78 222.3,495.41 226.75,512.85 229.49,521.42 232.65,529.85 235.03,535.35 239.08,543.39 243.77,551.07 247.29,555.92 251.16,560.51 255.37,564.78 262.27,570.56 267.17,574.02 272.36,577.01 277.82,579.49 283.5,581.43 289.34,582.78 295.29,583.55 304.28,583.59 310.24,582.86 316.09,581.54 321.78,579.65 327.26,577.21 332.47,574.25 337.39,570.82 341.99,566.96 348.25,560.5 353.76,553.39 357.03,548.37 360.02,543.16 364.01,535.1 369.52,521.15 374.67,503.91 378.63,486.35 382.57,462.68 385.44,438.86 388,408.97 389.93,376.02 391.44,337.05 392.47,295.07 393.25,241.07"   /><polyline id="SvgjsPolyline2389" points="205.83,54.49 206.3,237.49 207.4,336.49 208.31,375.48 209.47,408.45 210.65,432.43 212.71,462.35 215.37,489.22 218.69,512.99 222.03,530.67 226.4,548.13 231.1,562.37 234.51,570.7 237.09,576.12 244.6,589.09 248.03,594.01 251.79,598.69"   /><polyline id="SvgjsPolyline2390" points="498.05,597.18 482.69,548.55 452.38,457.46 439.12,414.46 431.9,388.44 426.06,365.16 420.22,338.8 415.18,312.28 410.92,285.62 407.05,255.87 403.67,223.05 400.89,187.15 398.88,151.21 397.36,112.24 396.03,58.26 395.23,1.26"   /><polyline id="SvgjsPolyline2391" points="539.61,598.3 532.22,556.96 524.97,521.7 516.81,486.64 507.74,451.8 498.66,420.07 488.95,388.53 454.97,286.02 443.16,248.85 433.15,214.27 424.34,179.37 419.84,158.86 415.29,135.29 412.3,117.54 409.25,96.77 406.98,78.91 404.42,55.05 402.33,31.14 400.26,1.21"   /><polyline id="SvgjsPolyline2392" points="515,597.38 504.94,559.7 493,519.43 482.05,485.14 451.73,394.05 440.15,356.82 434.35,336.63 428.23,313.43 423.34,293 418.94,272.47 414.01,245.92 409.87,219.24 406.13,189.48 403.19,159.62 400.54,123.72 398.5,84.78 397.19,48.8 396.04,0.81"   /><polyline id="SvgjsPolyline2393" points="273.99,0.79 279.52,3.11 288.18,5.54 294.11,6.42 300.1,6.71 306.09,6.4 314.94,4.82 320.67,3.04 326.19,0.71"   /><polyline id="SvgjsPolyline2394" points="205.82,27.14 206.27,210.14 206.83,276.14 207.72,330.13 209.14,378.11 210.87,414.07 213.03,443.99 215.82,470.84 219.32,494.58 221.57,506.37 224.25,518.07 227.47,529.63 230.32,538.16 233.62,546.54 237.43,554.68 241.86,562.52 245.2,567.5 250.82,574.52 255.01,578.82 259.55,582.74 266.98,587.8 272.31,590.55 277.89,592.75 283.66,594.39 292.55,595.73 298.55,595.87 307.52,595.27 313.43,594.22 319.2,592.59 327.49,589.1 332.69,586.12 339.93,580.78 344.34,576.71 348.41,572.31 353.9,565.18 358.69,557.57 362.85,549.59 366.47,541.35 369.61,532.91 372.35,524.34 375.47,512.76 379.78,492.21 383.78,465.51 386.86,435.67 389.33,399.75 391.05,360.79 392.23,318.81 393.15,261.82"   /><polyline id="SvgjsPolyline2395" points="485.69,597.77 449.82,489.56 441.8,463.78 435.1,440.73 428.17,414.64 421.35,385.42 415.52,356 411.13,329.36 407.14,299.63 403.7,266.81 401.11,233.91 399.04,197.97 397.37,156 396.27,114.02 395.4,60.03 394.86,0.03"   /><polyline id="SvgjsPolyline2396" points="551.8,599.33 548.09,569.56 544.37,542.82 536.75,495.43 528.3,451.23 518.47,407.32 507.21,363.75 495.49,323.42 481.88,280.53 450.64,186.59 440.85,155.08 433.42,129.12 425.25,97.15 418.25,64.9 412.94,35.38 408.2,2.72"   /><polyline id="SvgjsPolyline2397" points="546.24,598.84 538.39,548.44 530.72,507.15 521.85,466.1 511.73,425.34 501.23,387.78 489.88,350.47 477.83,313.38 454.06,242.24 443.18,207.93 433.17,173.35 425.04,141.37 418.07,109.11 412.31,76.62 406.99,37.99 403.33,2.18"   /><polyline id="SvgjsPolyline2398" points="332.94,599.78 337.83,596.31 342.4,592.42 346.62,588.16 350.51,583.59 357.32,573.72 360.29,568.51 364.24,560.42 369.71,546.46 374.81,529.2 379.3,508.69 382.65,487.96 385.19,467.12 387.6,440.23 389.51,410.29 390.96,377.32 392.17,335.34 392.97,290.35 393.95,155.35"   /><polyline id="SvgjsPolyline2399" points="473.35,598.61 457.14,550.26 446.09,516 437.45,487.27 429.55,458.33 422.55,429.16 417.66,405.66 413.41,382.04 408.97,352.37 405.42,322.59 402.64,292.71 400.14,256.8 398.35,220.85 397,181.87 395.97,136.88 395.11,70.89 394.67,1.89"   /><polyline id="SvgjsPolyline2400" points="563.72,597.93 560.5,556.05 556.41,511.24 552.59,475.44 548.2,439.71 543.61,407.03 537.41,368.53 532,339.02 525.36,306.7 519.36,280.37 512.85,254.17 505.83,228.1 498.33,202.16 484,156.35 449.98,53.85 441.95,28.07 434.43,2.14"   /><polyline id="SvgjsPolyline2401" points="557.94,597.5 554.63,564.66 550.86,531.88 546.57,499.16 542.18,469.48 536.74,436.94 531.21,407.45 525.76,381.01 520.48,357.59 514.8,334.28 508.72,311.06 501.41,285.07 494.53,262.08 481.79,222.06 452.4,133.82 438.22,87.97 431.78,64.85 425.88,41.58 421.23,21.11 417.06,0.53"   /><polyline id="SvgjsPolyline2402" points="353.07,598.78 359.45,588.63 364.75,577.86 370.11,563.86 374.37,549.48 378.4,531.94 381.52,514.21 384.33,493.4 386.74,469.53 388.53,445.59 390.02,418.63 391.31,385.66 392.26,349.67 393.52,256.68 394.09,112.68"   /><polyline id="SvgjsPolyline2403" points="461.02,599.59 447.97,559.67 439.2,530.98 432.68,507.88 425.3,478.8 420.08,455.38 414.46,425.91 409.82,396.27 406.43,369.49 403.69,342.63 400.9,306.74 398.89,270.79 397.37,231.82 396.27,189.84 395.47,141.85 394.53,0.85"   /><polyline id="SvgjsPolyline2404" points="575.69,597.08 572.53,495.13 568.22,399.23 565.4,351.31 562.69,312.4 560.06,279.51 556.49,240.67 553.02,207.86 549.08,175.09 544.61,142.4 540.03,112.75 535.46,86.14 529.83,56.67 523.59,27.33 517.44,1.04"   /><polyline id="SvgjsPolyline2405" points="569.84,599.74 566.97,545.82 563.86,497.92 560.11,450.07 556.8,414.22 552.01,369.48 547.93,336.73 542.86,301.09 537.57,268.52 531.03,233.12 524.92,203.75 518.18,174.51 510.03,142.54 501.98,113.64 491.59,79.17 481.5,47.75 466.29,2.23"   /><polyline id="SvgjsPolyline2406" points="567.08,599.03 563.78,548.14 560.27,503.27 556.69,464.44 552.52,425.66 548.46,392.91 542.95,354.31 537.61,321.74 531,286.35 525.47,259.93 518.01,227.78 509.83,195.81 501.76,166.92 485.9,115.3 448.21,1.38"   /><polyline id="SvgjsPolyline2407" points="368.31,597.32 372.1,585.93 375.26,574.36 377.91,562.66 380.66,547.91 382.9,533.08 384.73,518.19 387.96,482.34 390.18,443.41 392,389.44 393.11,326.45 393.81,236.45"   /><polyline id="SvgjsPolyline2408" points="447.73,597.69 438.98,568.99 431.7,542.99 425.12,516.81 418.72,487.5 413.82,460.95 409.71,434.26 406.34,407.48 403.62,380.61 401.25,350.71 399.29,317.77 397.75,281.8 396.59,242.82 395.16,152.83 394.44,2.83"   /><polyline id="SvgjsPolyline2409" points="587.64,599.77 589.7,497.79 592.41,401.83 595.98,308.9 599.89,231"   /><polyline id="SvgjsPolyline2410" points="581.57,599.58 580.39,404.59 578.67,251.6 576.05,113.62 572.72,2.67"   /><polyline id="SvgjsPolyline2411" points="572.85,597.58 570.93,549.62 568.14,492.68 565.46,447.76 562.73,408.86 559.29,367 555.23,325.2 550.82,286.45 546.53,253.73 541.69,221.09 536.25,188.54 530.13,156.11 523.92,126.76 517.08,97.55 508.83,65.6 500.69,36.73 490.2,2.29"   /><polyline id="SvgjsPolyline2412" points="578.65,599.26 576.68,491.28 574.22,398.31 571.38,320.36 567.89,248.45 563.32,176.59 557.89,110.82 552.29,57.11 548.64,27.33 544.97,0.58"   /><polyline id="SvgjsPolyline2413" points="574.45,598.22 570.53,493.3 567.98,442.36 565.66,403.43 562.74,361.53 559.56,322.66 555.86,283.84 551.91,248.06 547.77,215.32 542.61,179.69 537.74,150.09 532.31,120.59 526.27,91.2 518.9,59.03 510.78,27.05 503.61,1.02"   /><polyline id="SvgjsPolyline2414" points="577.28,598.63 574.73,493.66 571.2,394.73 567.14,313.83 562.06,239 556.49,176.25 553.31,146.42 549.36,113.66 544.87,80.96 540.76,54.28 536.22,27.66 531.26,1.12"   /><polyline id="SvgjsPolyline2415" points="380.65,598.45 382.89,583.62 384.73,568.74 387.74,535.87 390.18,493.95 392,439.98 393.11,376.99 393.74,301.99 394.22,37.99"   /><polyline id="SvgjsPolyline2416" points="435.38,598.42 428.43,572.33 422.87,548.98 417.94,525.5 413.16,498.92 409.57,475.2 406.56,451.38 403.53,421.54 401.18,391.63 399.39,361.69 397.93,328.72 395.89,250.75 394.79,145.75 394.37,1.75"   /><polyline id="SvgjsPolyline2417" points="599.63,599.98 599.97,593.99"   /><polyline id="SvgjsPolyline2418" points="584.72,599.36 586.63,407.37 589.39,254.4 591.18,185.42 593.2,122.45 595.42,65.49 598.39,2.56"   /><polyline id="SvgjsPolyline2419" points="580.11,599.64 578.9,494.65 577.47,407.66 575.5,320.68 573.2,245.72 570.29,173.78 567.17,113.86 563.67,59.97 558.86,0.17"   /><polyline id="SvgjsPolyline2420" points="583.08,599.25 583.9,248.25 585.52,2.25"   /><polyline id="SvgjsPolyline2421" points="392.98,597.39 393.72,516.4 394.06,420.4 394.25,0.4"   /><polyline id="SvgjsPolyline2422" points="423.02,598.74 418.65,578.2 414.78,557.56 411.84,539.8 408.46,516.04 403.86,474.3 401.87,450.38 400.09,423.44 397.63,369.49 396.01,306.52 395,225.52 394.51,123.52"   /><polyline id="SvgjsPolyline2423" points="404.98,597.56 402.07,564.68 399.41,522.77 397.62,480.81 396.3,432.83 395.38,375.83 394.81,309.84 394.31,93.84"   /></g></svg>