<?xml version="1.0" standalone="no"?>
<svg id="SvgjsSvg1001" width="600" height="600" xmlns="http://www.w3.org/2000/svg" version="1.1" xmlns:xlink="http://www.w3.org/1999/xlink" xmlns:svgjs="http://svgjs.com/svgjs" class="svg-paper" viewBox="0 0 600 600"><title id="SvgjsTitle5196">x=y|y=(sin(y)-min(cos((x-x)),cos(y)))|dTest=0.0|sd=0.2|sm=0.2|ts=0.05 | generated with FlowLines</title><style>*{fill:none;stroke:#777}</style><g id="SvgjsG5197"><polyline id="SvgjsPolyline5198" points="298.02,599.76 259.45,593.93 224.02,587.59 188.78,580.21 150.9,570.95 119.12,562.07 81.91,550.39 45.05,537.64 0,521.08"   /><polyline id="SvgjsPolyline5199" points="373.64,599.96 329.16,593.19 284.92,584.98 261.44,579.98 240.99,575.2 203.27,565.3 165.92,554.09 134.6,543.69 100.69,531.6 33.17,506.62 2.05,495.63"   /><polyline id="SvgjsPolyline5200" points="224.74,599.95 192.09,595.18 162.5,590.21 135.98,585.16 106.65,578.85 83.31,573.25 54.32,565.54 31.29,558.81 2.69,549.73"   /><polyline id="SvgjsPolyline5201" points="335.83,599.86 294.31,593.57 253,586 214.89,577.68 177.11,568.04 142.55,557.95 105.48,545.85 68.72,532.83 1.19,507.84"   /><polyline id="SvgjsPolyline5202" points="262.88,599.98 227.28,594.68 194.77,589.02 159.49,581.87 130.27,575.07 98.36,566.67 69.57,558.21 35.33,547.12 1.34,535.23"   /><polyline id="SvgjsPolyline5203" points="446.3,599.69 398.87,592.36 357.59,584.6 319.52,576.16 299.14,571.07 275.98,564.77 244.37,555.32 207.35,543.06 176.26,531.97 103.1,504.94 69.1,493.09 34.76,482.3 17.44,477.41 0.01,472.91"   /><polyline id="SvgjsPolyline5204" points="408.36,599.68 363.88,592.85 322.6,585.14 302.06,580.75 281.61,575.97 261.25,570.81 241,565.26 209.4,555.76 178.06,545.42 144.12,533.43 51.18,499.32 25.61,490.66 2.7,483.5"   /><polyline id="SvgjsPolyline5205" points="148.47,599.82 106.94,593.61 71.49,587.3 39.18,580.63 1.25,571.54"   /><polyline id="SvgjsPolyline5206" points="521.93,599.91 480.4,593.63 436.14,585.51 398.04,577.22 363.14,568.4 328.54,558.45 291.42,546.49 257.45,534.57 170.18,502.44 144.67,493.6 118.96,485.34 90.13,477.05 61.02,469.82 31.65,463.71 2.08,458.68"   /><polyline id="SvgjsPolyline5207" points="484,599.89 442.48,593.6 401.17,586.04 360.15,577.04 339.77,571.96 319.5,566.49 287.85,557.12 250.81,544.94 216.87,532.92 138.07,503.84 95.49,489.28 69.67,481.39 46.52,475.05 23.2,469.41 2.65,465.06"   /><polyline id="SvgjsPolyline5208" points="72.2,599.65 36.59,594.37 1.13,588.19"   /><polyline id="SvgjsPolyline5209" points="594.58,599.66 570.84,596.19 547.15,592.32 505.88,584.55 464.89,575.4 444.53,570.25 424.27,564.71 389.8,554.34 355.64,542.98 321.74,530.86 254.22,505.88 220.24,493.97 185.93,483.08 154.12,474.31 133.7,469.41 116.1,465.65 80.66,459.32 62.86,456.7 42.02,454.08 0.22,450"   /><polyline id="SvgjsPolyline5210" points="556.64,599.64 512.17,592.8 470.88,585.08 447.42,580.02 426.99,575.19 403.75,569.19 386.41,564.35 351.98,553.85 317.86,542.38 286.78,531.27 219.26,506.28 188.14,495.31 156.74,485.15 125.01,476.11 95.86,469.01 63.51,462.5 33.9,457.7 1.16,453.53"   /><polyline id="SvgjsPolyline5211" points="599.15,588.34 566.81,581.8 537.57,575.08 508.53,567.57 476.83,558.4 451.09,550.23 422.7,540.56 329.76,506.45 292.96,493.54 270.12,486.17 252.87,481.02 235.52,476.23 218.07,471.83 197.59,467.2 171.08,462.06 144.43,457.77 120.63,454.62 93.79,451.73 66.89,449.42 36.96,447.43 1,445.65"   /><polyline id="SvgjsPolyline5212" points="599.65,595.01 561.23,588.3 523.05,580.38 485.16,571.15 453.37,562.28 421.86,552.5 387.77,540.93 292.01,505.8 258.03,493.9 220.84,482.17 203.52,477.29 186.09,472.8 162.69,467.43 145.05,463.88 124.37,460.23 100.64,456.67 76.82,453.71 52.94,451.27 29.03,449.28 2.09,447.49"   /><polyline id="SvgjsPolyline5213" points="598.45,575.98 575.18,570.12 552.04,563.75 529.04,556.89 503.34,548.62 460.86,533.78 373.58,501.66 333.79,488.22 313.71,482.09 296.38,477.22 278.95,472.74 261.42,468.65 234.96,463.28 208.34,458.78 178.61,454.72 148.79,451.52 118.89,449.04 85.96,446.97 47,445.21 2.02,443.85"   /><polyline id="SvgjsPolyline5214" points="598.37,563.62 566.79,554.05 532.64,542.66 504.38,532.59 428.4,504.53 408.6,497.53 382.99,488.99 360.04,481.96 336.91,475.57 313.6,469.86 293.06,465.46 263.55,460.11 236.84,456.17 204.06,452.35 174.18,449.68 135.26,447.11 96.31,445.31 54.33,443.98 0.34,442.91"   /><polyline id="SvgjsPolyline5215" points="598.84,551.26 553.46,535.63 463.36,502.48 420.74,488.06 397.77,481.1 371.71,474.05 345.42,467.89 318.94,462.64 292.3,458.25 262.56,454.3 226.74,450.66 193.84,448.18 151.9,445.92 115.93,444.58 67.94,443.37 1.95,442.41"   /><polyline id="SvgjsPolyline5216" points="599.73,538.93 501.16,502.75 472.81,492.94 447.09,484.74 421.14,477.29 394.96,470.7 365.62,464.44 339.03,459.75 309.34,455.49 279.53,452.13 243.66,449.06 204.73,446.67 162.77,444.9 117.79,443.64 66.8,442.74 0.8,442.08"   /><polyline id="SvgjsPolyline5217" points="598.13,525.62 550.31,507.88 519.22,496.82 490.73,487.42 464.86,479.7 438.75,472.82 412.43,466.83 385.91,461.74 356.28,457.09 323.52,453.06 293.66,450.23 260.75,447.86 218.8,445.7 179.83,444.33 125.84,443.11 2.85,441.89"   /><polyline id="SvgjsPolyline5218" points="599.49,513.32 562.83,500.02 534.42,490.39 508.63,482.4 482.61,475.2 459.29,469.54 432.86,464.03 400.33,458.49 373.58,454.85 343.75,451.63 310.86,448.9 277.93,446.87 238.97,445.14 196.99,443.87 145.99,442.88 2,441.73"   /><polyline id="SvgjsPolyline5219" points="598.02,499.99 569.61,490.35 543.82,482.37 517.8,475.17 491.55,468.86 468.04,464.01 438.48,458.93 411.74,455.21 381.92,451.9 352.03,449.33 319.1,447.19 283.14,445.48 244.16,444.18 151.18,442.49 1.18,441.62"   /><polyline id="SvgjsPolyline5220" points="599.15,487.66 573.28,479.92 547.18,473.01 523.8,467.62 500.26,462.94 473.63,458.5 449.85,455.23 426.01,452.52 396.13,449.81 366.2,447.72 333.25,446 297.27,444.63 255.29,443.53 150.3,442.13 0.3,441.54"   /><polyline id="SvgjsPolyline5221" points="599.86,475.31 576.54,469.64 553.06,464.68 529.44,460.43 505.71,456.84 481.9,453.85 455.04,451.11 431.12,449.15 401.18,447.22 341.24,444.64 257.26,442.8 161.26,441.92 2.26,441.48"   /><polyline id="SvgjsPolyline5222" points="2.03,252.91 68.03,253.21 104.02,254 119,254.76 130.96,255.74 142.86,257.29 151.68,259.05 160.3,261.63 168.43,265.46 173.29,268.96 177.41,273.31 180.58,278.4 182.72,283.99 183.95,289.86 184.38,298.84 183.94,304.82 183.03,310.75 180.06,322.37 175.83,333.59 173.3,339.04 169.04,346.96 164.23,354.57 160.74,359.44 153.1,368.69 148.97,373.05 142.42,379.22 130.65,388.51 118,396.56 107.39,402.15 93.65,408.17 76.68,414.15 59.35,419.01 41.79,422.95 24.08,426.16 0.32,429.54"   /><polyline id="SvgjsPolyline5223" points="599.92,462.94 579.22,459.41 558.44,456.38 537.6,453.8 516.71,451.63 492.8,449.57 465.87,447.72 411.93,445.14 339.95,443.23 267.96,442.28 153.96,441.66 6.96,441.44"   /><polyline id="SvgjsPolyline5224" points="2.04,240.91 16.31,236.3 27.47,231.89 41.07,225.57 54.3,218.51 77.38,204.51 119.92,176.36 140.13,163.43 160.77,151.18 181.93,139.86 203.63,129.61 223.03,121.58 242.77,114.42 265.67,107.25 283.04,102.54 297.62,99 329.94,92.34 365.47,86.56 404.16,81.67 445.96,77.64 493.84,74.2 544.77,71.54 598.73,69.52"   /><polyline id="SvgjsPolyline5225" points="2.01,264.91 7.25,267.84 12,271.5 16.05,275.91 17.74,278.39 20.41,283.75 22.12,289.5 22.99,295.43 23.15,301.42 22.75,307.41 21.26,316.28 19.79,322.1 16.97,330.64 13.5,338.94 10.84,344.32 6.39,352.14 1.4,359.63"   /><polyline id="SvgjsPolyline5226" points="0.26,257.63 9.06,259.54 17.6,262.35 25.66,266.34 28.23,267.89 32.97,271.55 37.01,275.98 38.7,278.46 41.35,283.83 43.04,289.58 44.06,298.51 43.64,307.49 42.75,313.43 41.46,319.28 37.85,330.72 33.07,341.72 27.26,352.22 20.48,362.12 12.81,371.34 8.66,375.67 2.07,381.8"   /><polyline id="SvgjsPolyline5227" points="2.87,248.37 20.62,245.39 35.19,241.84 52.35,236.41 60.75,233.17 71.73,228.33 85.11,221.56 100.73,212.61 121.01,199.78 171.11,166.78 191.63,154.33 209.99,144.14 231.48,133.46 253.49,123.9 275.97,115.49 298.82,108.18 324.89,101.16 354.18,94.66 386.66,88.85 422.3,83.81 458.08,79.84 499.93,76.25 547.83,73.18 598.77,70.8"   /><polyline id="SvgjsPolyline5228" points="0.41,255.13 15.33,256.71 24.2,258.22 30.04,259.58 38.58,262.41 49.19,267.99 53.92,271.67 56.03,273.8 57.93,276.12 61.04,281.24 62.22,284 63.9,289.75 64.88,298.69 64.72,304.68 64.04,310.64 62.93,316.54 60.58,325.22 57.51,333.68 55.11,339.18 51.02,347.19 46.37,354.9 42.98,359.84 37.46,366.95 33.51,371.47 27.2,377.88 22.76,381.91 15.76,387.58 8.42,392.78 0.77,397.52"   /><polyline id="SvgjsPolyline5229" points="0.43,253.98 21.4,255.15 39.28,257.2 51.02,259.66 56.74,261.44 62.27,263.77 67.56,266.59 72.53,269.95 76.89,274.06 78.77,276.4 81.82,281.55 83.9,287.17 85.09,293.05 85.52,299.03 85.33,305.03 84.11,313.94 81.98,322.68 79.11,331.21 75.6,339.49 71.48,347.49 66.81,355.19 61.62,362.53 55.91,369.49 49.74,376.04 43.13,382.14 36.12,387.79 28.76,392.97 21.11,397.69 10.51,403.32 2.32,407.06"   /><polyline id="SvgjsPolyline5230" points="0.08,251.56 15.06,250.77 30,249.53 41.92,248.1 53.76,246.17 65.49,243.63 77.06,240.47 88.48,236.77 99.66,232.43 107.89,228.79 118.65,223.47 136.94,213.16 157.24,200.37 209.88,165.75 227.84,154.86 246.17,144.64 267.64,133.91 289.63,124.3 312.09,115.84 334.93,108.48 360.99,101.41 387.32,95.47 416.82,89.99 446.48,85.5 479.23,81.5 515.06,78.01 556.94,74.86 598.87,72.45"   /><polyline id="SvgjsPolyline5231" points="0.41,253.43 30.39,254.41 51.32,256.07 60.24,257.3 69.06,259.07 74.84,260.67 80.46,262.76 88.43,266.94 90.95,268.57 95.57,272.38 99.44,276.96 102.38,282.18 104.35,287.83 105.45,293.73 105.8,299.72 105.22,308.69 103.61,317.54 101.16,326.2 98.02,334.63 92.87,345.46 88.34,353.24 83.28,360.68 75.73,370 69.53,376.52 60.58,384.51 50.96,391.68 43.38,396.52 35.53,400.92 24.72,406.13 13.61,410.67 2.27,414.59"   /><polyline id="SvgjsPolyline5232" points="0.27,252.47 21.27,252.07 45.25,251.13 63.2,249.83 78.1,248.11 92.89,245.61 104.58,242.91 119,238.78 130.31,234.77 138.63,231.35 149.51,226.3 160.16,220.76 170.59,214.83 190.96,202.14 230.96,175.62 248.65,164.3 266.65,153.49 285.05,143.35 306.57,132.75 325.84,124.4 348.29,115.93 371.13,108.56 394.27,102.2 417.64,96.75 441.19,92.1 467.82,87.67 500.52,83.24 530.34,79.97 563.21,77.04 599.12,74.49"   /><polyline id="SvgjsPolyline5233" points="3.34,253.19 42.33,254.05 66.28,255.57 75.22,256.59 84.1,258.04 92.85,260.14 98.53,262.07 103.97,264.59 111.6,269.35 116.07,273.34 119.75,278.07 122.47,283.41 124.24,289.14 125.15,295.06 125.36,301.05 124.61,310.02 122.09,321.74 119.3,330.29 114.56,341.31 108.79,351.83 103.82,359.33 96.4,368.76 88.13,377.45 79.11,385.35 71.9,390.74 61.79,397.2 51.23,402.89 40.3,407.85 26.27,413.14 14.82,416.73 0.32,420.56"   /><polyline id="SvgjsPolyline5234" points="21.19,253.19 60.18,254.02 84.13,255.5 96.04,256.91 104.9,258.5 113.59,260.82 119.2,262.95 124.51,265.73 131.82,270.97 135.98,275.28 139.25,280.3 141.56,285.83 142.95,291.66 143.54,297.63 143.25,306.62 141.85,315.5 138.66,327.06 134.24,338.22 128.76,348.88 123.99,356.51 116.83,366.14 108.79,375.04 99.97,383.18 90.47,390.49 80.38,396.99 69.83,402.7 58.91,407.68 44.89,413 30.57,417.44 16.03,421.15 1.36,424.25"   /><polyline id="SvgjsPolyline5235" points="0.79,252.76 60.79,252.09 81.77,251.33 99.74,250.16 114.65,248.61 129.48,246.32 144.14,243.18 155.73,240.06 169.93,235.24 181.03,230.67 191.88,225.55 205.11,218.49 218.02,210.86 230.71,202.86 273.23,174.69 288.39,164.99 306.37,154.14 322.08,145.37 338.11,137.17 351.69,130.81 368.25,123.77 382.26,118.39 402.12,111.59 425.15,104.81 451.35,98.32 477.8,92.88 501.44,88.79 534.11,84.14 566.9,80.4 599.76,77.39"   /><polyline id="SvgjsPolyline5236" points="2.64,252.97 53.64,253.37 89.62,254.56 101.59,255.43 113.51,256.79 122.38,258.32 131.09,260.56 139.45,263.86 144.61,266.91 146.99,268.74 153.37,275.07 156.69,280.06 159.04,285.57 160.46,291.39 161.15,300.36 160.84,306.35 160.03,312.29 157.23,323.95 153.12,335.22 147.92,346.03 141.71,356.29 138.25,361.19 132.64,368.23 124.42,376.96 115.43,384.91 105.78,392.04 92.96,399.81 82.22,405.16 68.36,410.89 54.15,415.68 36.78,420.4 19.19,424.2 1.45,427.27"   /><polyline id="SvgjsPolyline5237" points="56.03,252.8 125.02,252.1 146.01,251.36 163.97,250.21 181.89,248.48 196.73,246.32 211.42,243.32 225.89,239.36 237.23,235.45 248.34,230.92 259.2,225.82 269.83,220.24 280.24,214.27 293.01,206.42 345.62,171.75 373.71,154.44 386.78,147.08 402.74,138.76 416.28,132.3 430.01,126.27 446.74,119.64 466.56,112.7 486.65,106.58 506.95,101.21 527.42,96.53 550.97,91.9 574.64,87.96 598.41,84.6"   /><polyline id="SvgjsPolyline5238" points="1.15,252.89 82.15,253.13 124.14,253.93 151.09,255.55 163,256.98 171.85,258.61 180.53,260.97 188.95,264.16 196.81,268.51 201.44,272.31 205.32,276.88 206.92,279.41 209.39,284.87 210.93,290.67 211.74,299.62 211.49,305.61 210.74,311.56 209.57,317.45 207.14,326.11 205.12,331.76 201.56,340.02 198.86,345.38 194.33,353.16 191.02,358.16 185.62,365.35 181.74,369.93 175.54,376.45 171.16,380.55 164.25,386.32 151.96,394.91 138.89,402.25 125.23,408.44 108.31,414.57 91,419.5 73.45,423.47 52.77,427.16 28.99,430.4 2.14,433.14"   /><polyline id="SvgjsPolyline5239" points="97.98,253.48 118.97,254.11 133.94,254.94 145.89,256.02 157.77,257.73 166.55,259.69 175.07,262.58 180.44,265.25 182.96,266.87 187.54,270.73 191.27,275.42 192.76,278.02 195.96,286.42 196.71,289.33 197.6,295.26 197.66,304.25 196.52,313.17 193.61,324.8 189.42,336.04 184.13,346.81 179.51,354.53 172.53,364.28 166.71,371.15 158.23,379.63 151.38,385.47 141.69,392.54 131.45,398.79 120.78,404.28 106.98,410.15 95.67,414.15 84.18,417.61 69.64,421.29 52.01,424.92 37.22,427.41 22.36,429.5 1.5,431.89"   /><polyline id="SvgjsPolyline5240" points="599.09,450.59 569.18,448.32 527.24,446.02 479.27,444.28 434.28,443.24 311.29,441.92 125.29,441.46"   /><polyline id="SvgjsPolyline5241" points="0.34,252.88 144.34,252.95 201.34,253.38 237.32,254.6 249.28,255.49 261.2,256.88 272.98,259.13 281.59,261.75 289.69,265.63 294.52,269.18 298.6,273.57 300.28,276.05 302.88,281.45 304.49,287.22 305.39,296.16 305.19,302.16 303.96,311.07 301.83,319.81 298.96,328.34 295.45,336.62 291.35,344.63 286.7,352.34 281.53,359.7 275.86,366.69 269.73,373.28 263.17,379.43 256.21,385.14 248.91,390.4 241.31,395.21 233.45,399.59 225.37,403.57 217.12,407.17 205.91,411.42 185.83,417.58 174.19,420.49 162.46,423.01 138.82,427.14 112.05,430.67 79.21,433.83 43.29,436.19 1.33,438.01"   /><polyline id="SvgjsPolyline5242" points="1.48,228.58 14.87,221.84 33.07,211.36 48.28,201.74 88.28,175.21 105.98,163.9 124,153.11 145.07,141.63 169.42,129.97 191.6,120.82 217.07,111.88 242.98,104.28 272.14,97.23 292.72,93.05 307.48,90.41 343.08,85.04 384.79,80.2 429.62,76.29 477.52,73.21 534.46,70.59 597.43,68.6"   /><polyline id="SvgjsPolyline5243" points="0.7,277.9 3.45,283.22 5.25,288.94 6.19,294.86 6.42,300.85 6.07,306.84 4.64,315.72 3.21,321.54 0.43,330.1"   /><polyline id="SvgjsPolyline5244" points="49.16,252.67 100.15,251.79 118.13,250.95 133.09,249.81 145.01,248.49 159.83,246.14 171.55,243.6 183.11,240.39 191.64,237.53 202.81,233.14 213.77,228.26 227.15,221.48 237.61,215.59 250.42,207.8 310.61,168.29 336.26,152.74 352.03,144.05 370.81,134.65 387.23,127.28 401.12,121.63 420.86,114.46 440.88,108.13 461.13,102.57 487.42,96.44 510.97,91.83 537.62,87.45 567.34,83.42 597.16,80.12"   /><polyline id="SvgjsPolyline5245" points="103.93,252.78 169.93,252.01 190.91,251.19 208.87,249.92 223.77,248.24 238.57,245.8 253.18,242.43 267.57,238.21 278.85,234.11 289.88,229.39 300.67,224.13 311.22,218.42 331.77,206.03 381.85,172.99 404.73,158.65 417.69,151.1 430.85,143.9 444.22,137.12 457.81,130.76 474.38,123.72 491.2,117.32 505.39,112.47 522.6,107.2 539.98,102.49 560.41,97.64 578.03,93.98 598.69,90.23"   /><polyline id="SvgjsPolyline5246" points="1.6,252.89 85.6,253.02 136.59,253.69 166.55,255.14 178.49,256.34 190.33,258.26 199.06,260.46 207.44,263.72 215.16,268.32 219.83,272.08 223.76,276.61 225.38,279.12 227.91,284.56 229.49,290.34 230.36,299.29 230.15,305.28 229.42,311.23 228.27,317.12 225.87,325.79 223.86,331.45 220.33,339.72 216.2,347.72 211.51,355.4 208.1,360.33 202.55,367.41 196.51,374.09 192.24,378.3 187.78,382.31 180.76,387.94 173.39,393.11 165.73,397.82 152.41,404.72 135.77,411.56 118.64,417.07 101.2,421.52 77.65,426.14 53.91,429.63 27.07,432.57 0.16,434.74"   /><polyline id="SvgjsPolyline5247" points="597.1,438.38 528.12,439.89 423.13,440.86 282.13,441.25 30.13,441.36"   /><polyline id="SvgjsPolyline5248" points="127.62,253.17 157.62,253.67 175.6,254.35 193.56,255.62 205.46,257.1 217.22,259.49 225.77,262.27 231.18,264.85 236.3,267.98 241.03,271.66 243.15,273.79 246.73,278.59 248.16,281.22 250.3,286.82 251.03,289.73 251.86,295.67 252.01,301.66 251.58,307.65 250.68,313.58 249.37,319.43 247.72,325.2 244.65,333.66 239.59,344.53 236.68,349.78 231.85,357.37 224.61,366.93 216.5,375.78 207.62,383.84 198.06,391.08 187.93,397.51 177.34,403.16 166.4,408.08 152.35,413.33 138.01,417.72 123.46,421.38 108.78,424.44 91.04,427.47 73.21,429.93 49.35,432.51 25.43,434.49 1.48,436.01"   /><polyline id="SvgjsPolyline5249" points="142.42,253.14 172.41,253.59 196.39,254.49 211.35,255.6 226.22,257.55 237.91,260.23 246.33,263.38 251.58,266.29 256.44,269.79 260.83,273.87 264.4,278.69 265.82,281.33 267,284.08 268.66,289.84 269.63,298.78 269.46,304.77 268.77,310.73 267.66,316.63 266.16,322.44 263.32,330.97 261.05,336.53 257.15,344.64 254.23,349.88 249.39,357.47 245.88,362.33 238.19,371.54 231.88,377.95 222.81,385.8 213.09,392.83 202.83,399.05 189.41,405.75 178.33,410.33 164.14,415.22 149.71,419.29 132.17,423.31 114.46,426.55 96.65,429.18 78.78,431.32 54.89,433.57 30.95,435.31 1,436.93"   /><polyline id="SvgjsPolyline5250" points="2.92,252.88 170.92,252.73 203.92,252.44 230.92,251.83 254.88,250.63 272.81,248.99 290.63,246.5 308.26,242.87 322.69,238.78 336.78,233.67 350.51,227.61 363.85,220.76 374.28,214.83 389.6,205.39 437.16,173.97 454.89,162.71 478.17,149.05 499.43,137.91 523.99,126.69 546.33,117.94 571.95,109.42 597.96,102.2"   /><polyline id="SvgjsPolyline5251" points="147.62,253.05 180.62,253.41 204.61,254.07 222.58,255.1 237.5,256.65 249.31,258.76 255.11,260.28 260.78,262.25 266.19,264.81 268.76,266.37 273.44,270.11 279.37,276.86 280.97,279.4 283.45,284.86 284.98,290.65 285.7,296.6 285.75,302.6 285.24,308.58 284.27,314.5 282.09,323.23 280.23,328.93 276.88,337.28 274.31,342.7 269.97,350.58 265.09,358.14 259.69,365.34 251.72,374.31 242.97,382.51 233.51,389.9 223.47,396.46 212.96,402.24 199.3,408.44 185.23,413.63 170.88,417.97 156.32,421.59 138.68,425.16 117.95,428.48 100.09,430.75 76.21,433.14 52.28,434.97 1.35,437.59"   /><polyline id="SvgjsPolyline5252" points="134.06,252.9 221.06,253.27 245.06,253.76 266.03,254.69 280.98,255.95 292.86,257.62 307.46,261.05 315.92,264.1 323.79,268.43 328.44,272.21 330.5,274.39 332.34,276.76 335.32,281.96 336.45,284.74 338,290.53 338.84,299.47 338.61,305.47 337.87,311.42 335.17,323.11 331.16,334.41 327.41,342.59 324.58,347.88 319.89,355.56 316.46,360.48 312.81,365.24 306.92,372.05 300.58,378.43 293.81,384.36 281.71,393.21 268.78,400.81 260.72,404.79 252.47,408.39 235.55,414.52 218.24,419.46 197.75,424.03 174.09,428.03 147.3,431.39 114.43,434.33 84.49,436.22 42.53,438.03 0.55,439.19"   /><polyline id="SvgjsPolyline5253" points="50.63,252.88 164.63,252.97 224.63,253.6 245.61,254.35 260.58,255.36 272.5,256.68 284.31,258.8 290.11,260.34 295.77,262.33 301.18,264.92 303.73,266.49 308.39,270.26 310.42,272.46 313.77,277.43 317.39,285.66 318.2,288.55 319.2,294.46 319.47,300.45 319.15,306.44 318.34,312.38 317.11,318.25 315.52,324.04 312.55,332.53 308.93,340.77 306.19,346.11 301.62,353.86 296.51,361.27 290.9,368.3 286.88,372.76 282.67,377.03 275.99,383.06 268.93,388.63 261.52,393.74 253.82,398.4 245.87,402.62 237.72,406.43 229.4,409.86 212.38,415.71 192.09,421.11 168.56,425.83 141.85,429.78 112.02,432.95 79.12,435.41 40.17,437.39 1.19,438.7"   /><polyline id="SvgjsPolyline5254" points="1.54,215.22 21.93,202.57 64.44,174.4 84.72,161.55 105.43,149.43 126.67,138.26 151.2,127 176.35,117.19 202,108.78 230.96,100.94 260.25,94.48 277.95,91.18 298.67,87.79 337.33,82.62 376.12,78.63 426.97,74.73 477.89,71.92 534.85,69.69 597.82,68"   /><polyline id="SvgjsPolyline5255" points="152.48,252.67 182.48,252.34 209.47,251.59 227.44,250.6 242.38,249.28 257.25,247.3 269.05,245.1 280.71,242.27 295.01,237.77 303.42,234.56 314.41,229.75 325.17,224.43 338.34,217.26 358.83,204.76 406.38,173.34 426.68,160.54 450.07,147.04 463.35,140.07 476.84,133.52 490.54,127.41 504.43,121.75 518.49,116.53 532.71,111.75 547.06,107.38 564.42,102.65 581.92,98.44 599.53,94.69"   /><polyline id="SvgjsPolyline5256" points="599.7,425.9 570.01,430.18 540.17,433.24 504.26,435.79 465.3,437.64 411.33,439.22 357.33,440.13 204.34,441.1"   /><polyline id="SvgjsPolyline5257" points="191.31,252.86 293.31,252.54 326.3,251.9 347.29,251.07 365.25,249.87 383.14,247.94 400.89,244.98 415.49,241.53 429.81,237.07 441.01,232.77 454.67,226.58 467.96,219.62 480.92,212.07 493.63,204.12 538.67,174.33 558.94,161.48 579.66,149.36 598.21,139.54"   /><polyline id="SvgjsPolyline5258" points="201.05,252.75 240.05,252.42 264.04,251.88 285.02,250.93 302.96,249.49 317.84,247.61 332.59,244.89 347.12,241.18 361.36,236.48 372.53,232.1 383.46,227.13 394.14,221.66 404.6,215.78 425.01,203.17 465.02,176.65 485.23,163.71 503.25,152.93 519.01,144.23 537.78,134.82 559.73,125.11 579.32,117.56 599.22,110.86"   /><polyline id="SvgjsPolyline5259" points="226.91,253.1 262.91,253.6 286.89,254.52 304.83,255.96 319.66,258.2 325.5,259.55 331.24,261.31 342.19,266.17 347.23,269.42 349.55,271.33 353.63,275.71 355.35,278.17 358.05,283.52 359.8,289.25 360.7,295.18 360.89,301.17 360.51,307.16 359.05,316.04 357.6,321.86 354.79,330.41 351.33,338.71 347.28,346.74 342.66,354.47 339.28,359.43 333.8,366.56 329.86,371.09 323.58,377.53 316.87,383.53 307.34,390.8 297.23,397.26 286.66,402.94 272.95,409.02 258.85,414.12 244.46,418.38 229.89,421.93 212.24,425.44 194.46,428.28 176.61,430.58 155.73,432.74 131.8,434.67 104.85,436.31 71.89,437.77 2.91,439.59"   /><polyline id="SvgjsPolyline5260" points="0.47,201.89 42.98,173.72 65.84,159.35 89.28,145.95 113.39,133.82 138.17,123.11 152.2,117.78 166.38,112.89 180.69,108.42 195.13,104.35 221.35,97.93 253.72,91.48 289.28,85.88 325,81.47 366.81,77.49 414.69,74.09 468.62,71.33 531.58,69.1 597.56,67.54"   /><polyline id="SvgjsPolyline5261" points="597.67,414.07 583.29,418.34 565.79,422.54 548.11,425.93 527.35,429.08 506.49,431.55 485.59,433.51 461.65,435.26 428.7,437.03 371.73,438.95 287.74,440.34 191.75,440.98 2.75,441.31"   /><polyline id="SvgjsPolyline5262" points="81.99,252.88 228.99,252.97 285.99,253.53 306.97,254.21 321.95,255.11 336.86,256.67 345.74,258.16 351.58,259.51 357.32,261.25 362.94,263.36 368.38,265.89 373.46,269.07 375.81,270.93 379.97,275.24 381.73,277.67 383.26,280.25 385.57,285.78 386.38,288.67 387.36,294.58 387.51,303.57 386.93,309.54 385.89,315.45 383.63,324.16 380.64,332.65 377.02,340.88 372.81,348.84 368.05,356.47 362.76,363.75 356.98,370.64 350.73,377.12 344.04,383.14 336.97,388.71 329.56,393.81 321.86,398.46 313.91,402.67 305.75,406.48 294.62,410.97 286.13,413.93 274.65,417.42 263.03,420.45 239.54,425.33 212.85,429.41 183.03,432.69 150.13,435.23 111.19,437.27 60.21,438.94 0.22,440.05"   /><polyline id="SvgjsPolyline5263" points="274.15,253.05 313.15,253.52 337.14,254.33 358.07,255.9 372.91,258.1 378.76,259.43 387.4,261.93 393,264.08 398.35,266.79 403.29,270.19 405.53,272.18 407.6,274.36 411.06,279.24 413.56,284.69 415.12,290.47 415.87,296.42 415.75,305.42 415.01,311.37 413.13,320.17 410.46,328.76 407.13,337.12 403.18,345.2 398.67,352.99 393.62,360.44 388.07,367.51 382.03,374.18 375.54,380.42 368.64,386.2 361.38,391.51 351.22,397.89 340.61,403.49 326.86,409.48 312.73,414.51 298.33,418.7 280.81,422.83 263.12,426.16 245.33,428.86 224.48,431.39 200.59,433.63 176.65,435.35 149.69,436.82 89.73,438.91 2.74,440.35"   /><polyline id="SvgjsPolyline5264" points="193.84,252.84 274.84,252.33 298.83,251.69 319.8,250.57 337.72,248.88 352.56,246.72 367.24,243.65 381.67,239.54 392.96,235.49 406.77,229.65 417.57,224.42 430.75,217.25 451.23,204.75 511.43,165.25 526.81,155.91 542.47,147.03 555.75,140.06 571.97,132.25 585.71,126.23 599.64,120.66"   /><polyline id="SvgjsPolyline5265" points="148.45,252.88 295.45,252.95 361.45,253.56 382.43,254.27 397.4,255.22 412.32,256.78 424.17,258.68 435.79,261.62 444.16,264.92 449.39,267.85 451.84,269.58 456.27,273.62 458.19,275.92 461.34,281.02 462.54,283.77 463.51,286.6 464.78,292.46 465.28,301.44 464.88,307.42 463.99,313.36 461.92,322.11 459.1,330.65 454.33,341.66 450.06,349.58 445.25,357.19 439.91,364.43 432.03,373.48 425.59,379.76 418.74,385.59 411.51,390.96 401.39,397.4 393.5,401.71 385.39,405.61 374.31,410.21 362.99,414.2 351.5,417.66 339.88,420.65 328.16,423.24 313.42,426 298.6,428.31 265.83,432.2 229.95,435.09 185.01,437.43 137.04,438.96 74.05,440.1 2.05,440.75"   /><polyline id="SvgjsPolyline5266" points="256.94,252.86 352.93,252.53 397.92,251.39 415.88,250.27 430.81,248.77 448.62,246.19 463.31,243.15 477.75,239.14 491.88,234.11 505.63,228.12 519.01,221.33 532.04,213.9 544.8,206.03 599.93,169.74"   /><polyline id="SvgjsPolyline5267" points="227.96,252.86 323.96,252.57 350.95,252.13 371.94,251.41 389.9,250.3 407.81,248.45 422.62,246.08 437.24,242.78 448.75,239.38 462.82,234.18 476.49,228.01 492.43,219.67 513.05,207.39 570.71,169.49 583.42,161.53 598.91,152.35"   /><polyline id="SvgjsPolyline5268" points="248.99,253.14 278.99,253.6 302.97,254.51 320.91,255.93 335.74,258.15 347.33,261.23 355.55,264.87 360.53,268.21 362.78,270.19 364.82,272.39 368.18,277.35 369.48,280.05 372.38,288.56 373.37,294.47 373.64,300.46 373.32,306.45 371.94,315.34 369.69,324.05 366.71,332.54 364.37,338.07 360.36,346.12 355.78,353.87 350.68,361.28 345.06,368.31 338.97,374.93 332.43,381.11 325.49,386.84 315.68,393.75 305.36,399.86 294.62,405.21 280.75,410.93 266.54,415.71 252.08,419.7 234.52,423.64 216.8,426.82 198.99,429.4 178.13,431.81 157.22,433.71 133.28,435.41 79.34,437.96 1.36,439.83"   /><polyline id="SvgjsPolyline5269" points="1.38,186.94 34.02,165.61 57.18,151.74 81,139.02 105.49,127.67 130.6,117.76 144.79,112.88 159.1,108.41 185.16,101.35 217.38,94.23 249.88,88.51 285.53,83.54 324.31,79.34 366.16,75.87 414.07,72.9 465.02,70.6 530.98,68.53 599.97,67.11"   /><polyline id="SvgjsPolyline5270" points="599.31,400 583.03,407.65 569,412.98 551.79,418.22 534.29,422.44 513.66,426.35 489.91,429.79 463.07,432.68 436.15,434.83 403.21,436.73 373.23,437.96 340.25,438.94 289.26,439.92 178.26,440.9 1.26,441.29"   /><polyline id="SvgjsPolyline5271" points="277.92,253.16 307.92,253.65 331.9,254.64 349.83,256.18 364.62,258.61 370.44,260.08 376.12,261.99 384.17,266 388.93,269.64 391.02,271.78 392.9,274.13 395.88,279.32 398.11,284.89 399.64,290.69 400.35,296.64 400.2,305.63 399.45,311.58 397.55,320.38 394.86,328.96 391.51,337.31 387.55,345.39 383.03,353.17 377.97,360.61 372.4,367.68 366.35,374.34 359.85,380.56 352.94,386.33 345.67,391.64 335.5,398 322.17,404.86 311.13,409.56 297,414.57 282.59,418.75 268.01,422.25 250.34,425.69 232.56,428.48 214.7,430.75 190.82,433.14 169.89,434.77 139.94,436.54 76.98,438.84 1.99,440.19"   /><polyline id="SvgjsPolyline5272" points="294.05,253.06 333.05,253.55 360.03,254.57 377.97,256.06 392.78,258.38 398.61,259.79 404.33,261.61 409.83,263.99 414.97,267.07 419.51,270.99 423.42,275.53 426.65,280.58 428.9,286.13 430.24,291.98 430.8,297.95 430.46,306.93 429.03,315.81 426.74,324.51 423.72,332.99 420.07,341.22 415.84,349.16 411.06,356.78 405.75,364.04 399.94,370.92 393.67,377.37 386.97,383.38 379.89,388.93 372.46,394.01 362.12,400.09 348.63,406.63 337.49,411.1 323.27,415.85 308.8,419.82 291.23,423.73 273.52,426.89 252.72,429.84 228.87,432.44 204.95,434.44 157.03,437.16 88.06,439.29 1.07,440.51"   /><polyline id="SvgjsPolyline5273" points="261.83,252.91 342.83,253.43 363.82,254 381.79,254.96 396.72,256.42 408.55,258.38 417.26,260.64 425.6,263.99 430.74,267.08 433.1,268.93 437.23,273.27 440.66,278.19 442.13,280.8 444.35,286.37 445.11,289.27 446,295.2 446.2,301.19 445.81,307.18 444.94,313.12 443.67,318.98 442.04,324.75 439.01,333.22 436.63,338.73 432.57,346.76 429.55,351.95 424.58,359.44 419.09,366.57 415.15,371.1 408.87,377.55 404.44,381.59 392.62,390.82 379.91,398.76 371.94,402.95 363.77,406.73 346.98,413.18 326.85,419.15 306.37,423.78 282.72,427.85 255.93,431.25 229.05,433.77 202.12,435.64 163.16,437.54 121.19,438.88 79.19,439.74"   /><polyline id="SvgjsPolyline5274" points="312.16,252.91 393.16,253.43 414.15,254 432.12,254.96 447.05,256.42 461.84,258.89 473.44,261.96 481.75,265.39 486.91,268.45 489.31,270.25 493.61,274.42 495.45,276.79 497.06,279.32 499.55,284.77 500.43,287.63 501.55,293.52 501.93,299.51 501.69,305.5 500.95,311.45 499.79,317.34 496.39,328.84 494.23,334.44 490.48,342.62 486.15,350.5 481.27,358.06 475.88,365.27 469.99,372.07 463.64,378.45 456.87,384.38 449.72,389.84 442.25,394.85 434.48,399.4 426.49,403.52 415.52,408.4 407.12,411.63 398.6,414.53 387.1,417.94 375.47,420.89 363.75,423.45 337.14,428.04 307.37,431.71 274.49,434.55 238.56,436.68 199.59,438.23 145.6,439.56 76.61,440.47 1.61,440.95"   /><polyline id="SvgjsPolyline5275" points="333.96,253.01 375.95,253.43 399.94,254.12 420.9,255.45 429.85,256.42 438.74,257.79 450.39,260.63 456.02,262.71 461.37,265.42 466.24,268.91 468.42,270.97 470.38,273.24 473.81,278.16 476.51,283.5 478.27,289.24 479.17,295.16 479.24,304.15 478.12,313.08 476.84,318.94 474.28,327.57 471.03,335.96 467.17,344.08 462.74,351.91 457.77,359.41 452.28,366.54 446.3,373.27 439.87,379.57 433.03,385.41 425.82,390.79 415.71,397.26 402.44,404.24 391.44,409.02 377.33,414.12 360.05,419.14 345.45,422.57 327.77,425.95 309.98,428.69 289.14,431.25 268.24,433.27 241.31,435.27 214.35,436.76 154.39,438.88 67.4,440.34"   /><polyline id="SvgjsPolyline5276" points="334.42,252.86 412.42,252.63 451.41,251.99 484.37,250.38 508.25,248.01 520.11,246.19 531.87,243.84 543.5,240.87 554.94,237.25 566.15,232.99 577.12,228.13 587.85,222.75 598.35,216.94"   /><polyline id="SvgjsPolyline5277" points="290.27,252.86 374.27,252.63 404.27,252.22 425.26,251.58 443.23,250.59 458.17,249.26 473.04,247.27 484.83,245.07 499.38,241.41 510.79,237.71 524.74,232.2 538.36,225.93 551.61,218.9 564.55,211.31 579.76,201.69 599.77,188.43"   /><polyline id="SvgjsPolyline5278" points="2.22,171.95 27.71,156.15 51.3,143.02 75.58,131.21 100.5,120.83 125.97,111.89 140.32,107.51 154.78,103.52 183.97,96.6 213.42,90.92 246.03,85.85 281.76,81.45 323.57,77.47 368.45,74.26 419.38,71.58 470.34,69.64 533.32,67.96 599.31,66.78"   /><polyline id="SvgjsPolyline5279" points="598.47,385.93 591.16,391.17 583.6,396.06 570.43,403.22 562.25,406.97 553.91,410.35 536.86,416.1 516.54,421.41 493,426.06 469.26,429.57 439.44,432.8 412.52,434.92 376.58,436.93 340.61,438.3 292.62,439.49 181.63,440.76 1.63,441.27"   /><polyline id="SvgjsPolyline5280" points="390.04,253.1 429.03,253.68 453.01,254.7 470.93,256.32 485.71,258.85 491.51,260.39 497.16,262.4 502.64,264.84 507.88,267.75 512.65,271.38 516.73,275.78 518.43,278.24 521.13,283.59 522.86,289.33 523.93,298.25 523.81,304.25 522.67,313.17 520.62,321.93 517.81,330.48 514.35,338.78 508.81,349.42 504,357.03 498.68,364.29 492.86,371.15 484.38,379.63 475.17,387.32 467.84,392.54 460.2,397.3 449.63,402.98 435.92,409.05 421.82,414.15 407.43,418.4 392.86,421.95 375.21,425.45 357.43,428.29 336.6,430.93 312.72,433.28 288.78,435.08 261.83,436.62 225.86,438.09 192.87,439.03 114.88,440.31 0.89,441.03"   /><polyline id="SvgjsPolyline5281" points="369.38,252.91 447.38,253.34 471.37,253.92 489.35,254.81 504.29,256.15 516.15,257.94 527.86,260.56 533.58,262.35 539.14,264.61 546.89,269.14 551.41,273.09 553.38,275.35 555.13,277.78 557.91,283.09 558.94,285.91 560.31,291.74 560.9,297.71 560.83,303.71 560.23,309.67 559.19,315.58 555.99,327.14 553.92,332.77 550.29,341 546.07,348.95 541.3,356.58 536.01,363.86 528.18,372.95 521.77,379.26 514.95,385.13 507.75,390.54 500.24,395.48 492.44,399.98 484.41,404.04 476.2,407.71 465,412.04 453.6,415.78 442.05,419.02 430.38,421.83 415.69,424.82 389.02,429.04 356.23,432.7 320.33,435.43 275.39,437.64 233.41,438.94 170.42,440.09 92.42,440.79 2.42,441.13"   /><polyline id="SvgjsPolyline5282" points="345.74,252.88 525.74,253.08 567.73,253.66 597.71,254.86"   /><polyline id="SvgjsPolyline5283" points="427.4,252.77 463.4,252.52 493.4,251.93 517.37,250.84 535.31,249.33 553.14,246.89 567.83,243.89 585.17,239.05 599.29,234"   /><polyline id="SvgjsPolyline5284" points="363.06,252.8 420.06,252.36 456.04,251.22 468.02,250.47 482.95,249.07 494.85,247.48 506.65,245.34 518.33,242.57 529.82,239.12 538.29,236.09 549.37,231.48 560.2,226.3 573.39,219.18 586.28,211.5 598.95,203.47"   /><polyline id="SvgjsPolyline5285" points="0.82,158.59 24.29,145.26 45.73,134.47 67.69,124.8 92.96,115.29 118.7,107.17 147.73,99.61 177.08,93.39 209.6,87.83 242.3,83.37 278.09,79.49 313.96,76.43 361.86,73.31 406.8,71.14 466.77,69.06 535.75,67.45 598.74,66.48"   /><polyline id="SvgjsPolyline5286" points="599.43,367.92 593.21,374.43 586.66,380.6 574.95,389.95 567.46,394.95 559.69,399.49 551.69,403.61 543.49,407.32 535.14,410.66 523.8,414.59 503.58,420.24 480.1,425.18 453.42,429.3 423.6,432.61 390.7,435.17 351.76,437.23 309.78,438.68 258.79,439.77 198.8,440.5 30.8,441.21"   /><polyline id="SvgjsPolyline5287" points="371.37,252.94 443.36,253.62 464.35,254.39 482.3,255.71 497.15,257.74 508.81,260.55 517.18,263.85 522.34,266.9 524.71,268.73 528.89,273.03 532.37,277.92 533.87,280.51 536.13,286.06 537.48,291.9 538.05,297.87 537.97,303.87 537.36,309.83 536.3,315.74 534.02,324.44 531.01,332.92 528.65,338.44 524.61,346.48 521.6,351.67 516.65,359.18 513.05,363.98 507.25,370.86 500.99,377.32 496.57,381.38 489.61,387.08 482.29,392.32 474.67,397.11 466.79,401.45 458.69,405.38 442,412.09 430.6,415.83 421.94,418.3 398.57,423.72 374.92,427.8 348.14,431.22 318.27,433.98 288.33,435.97 249.37,437.76 207.39,439.02 156.4,439.97 93.41,440.63 0.41,441.08"   /><polyline id="SvgjsPolyline5288" points="358.13,252.89 454.13,253.16 496.12,254.05 514.09,255.06 529.01,256.6 540.82,258.67 549.49,261.06 557.75,264.62 562.78,267.88 567.52,271.54 569.65,273.66 573.25,278.44 575.91,283.82 577.61,289.56 578.13,292.52 578.63,298.49 578.48,304.49 577.82,310.45 576.72,316.35 573.44,327.88 570.17,336.26 566.29,344.38 561.83,352.2 556.84,359.69 549.39,369.09 543.24,375.66 536.65,381.79 529.67,387.46 522.33,392.67 514.69,397.42 506.79,401.74 495.94,406.84 487.6,410.23 476.28,414.22 464.79,417.67 453.17,420.66 441.45,423.25 426.71,426.01 397.02,430.27 364.18,433.55 328.27,436 286.31,437.89 238.33,439.24 172.34,440.28 91.34,440.89"   /><polyline id="SvgjsPolyline5289" points="368.07,252.89 470.06,253.13 515.05,254.04 533.03,255.04 547.95,256.56 559.77,258.61 568.45,260.98 576.72,264.49 581.9,267.52 586.71,271.09 590.84,275.44 594.09,280.47 595.34,283.19 596.36,286.01 597.72,291.85 598.32,300.82 597.97,306.81 597.13,312.75 594.27,324.4 591.27,332.88 588.91,338.39 584.87,346.44 580.28,354.17 575.15,361.56 569.51,368.58 563.4,375.18 556.84,381.35 549.89,387.05 542.57,392.3 534.95,397.09 527.07,401.43 518.98,405.36 507.91,409.99 499.45,413.06 488.01,416.67 476.42,419.79 464.73,422.5 438.17,427.34 411.41,430.88 378.55,433.98 342.63,436.29 303.67,437.97 255.68,439.29 192.69,440.27"   /><polyline id="SvgjsPolyline5290" points="2.55,143.64 24.07,133.01 46.1,123.51 71.44,114.18 94.35,107.05 120.46,100.2 146.84,94.45 176.37,89.16 209.03,84.43 244.79,80.33 280.65,77.09 319.55,74.34 358.49,72.2 409.45,70.09 460.42,68.56 520.41,67.28 598.4,66.19"   /><polyline id="SvgjsPolyline5291" points="599.82,343.38 595.43,351.24 590.51,358.77 586.93,363.59 581.16,370.49 574.92,376.97 568.25,383.01 561.18,388.59 553.78,393.7 546.08,398.36 538.13,402.58 529.98,406.4 518.86,410.89 507.51,414.79 496,418.17 484.36,421.09 472.63,423.62 446.02,428.16 419.23,431.49 383.36,434.61 347.43,436.72 305.46,438.35 251.47,439.63 188.48,440.45 113.48,440.94"   /><polyline id="SvgjsPolyline5292" points="2.43,130.19 24.6,121.01 47.21,112.97 70.17,106 93.41,100.01 119.8,94.29 146.37,89.51 173.07,85.51 205.83,81.5 235.68,78.54 277.55,75.26 310.49,73.24 355.44,71.09 397.41,69.56 457.39,67.97 589.37,65.99"   /><polyline id="SvgjsPolyline5293" points="221.82,0.1 274.38,12.5 315.47,21.18 359.72,29.36 404.18,36.34 445.82,41.79 493.55,46.89 544.37,51.15 598.26,54.6"   /><polyline id="SvgjsPolyline5294" points="0.37,117.98 20.25,111.23 43.29,104.5 66.58,98.72 90.06,93.78 116.65,89.08 143.36,85.15 173.14,81.54 203,78.57 238.88,75.7 277.8,73.26 322.75,71.1 361.73,69.67 460.7,67.27 598.69,65.64"   /><polyline id="SvgjsPolyline5295" points="172.22,0.71 227.71,13.71 274.71,23.48 321.96,31.9 369.44,38.94 423.06,45.3 479.83,50.45 533.7,54.12 599.62,57.36"   /><polyline id="SvgjsPolyline5296" points="274.1,0.14 317.86,10.61 358.9,19.54 397.19,26.96 435.64,33.46 471.27,38.66 509.97,43.45 554.74,48 599.59,51.64"   /><polyline id="SvgjsPolyline5297" points="2.06,104.64 25.35,98.84 45.89,94.46 69.49,90.14 93.21,86.46 119.98,82.96 146.82,80.03 173.71,77.58 212.6,74.72 248.54,72.65 284.51,71 365.46,68.41 476.45,66.43 599.44,65.36"   /><polyline id="SvgjsPolyline5298" points="119.7,0.66 148.86,7.68 181.05,14.96 231.03,25.12 257.6,29.89 284.25,34.21 334.77,41.21 361.59,44.32 394.42,47.62 454.23,52.4 520.12,56.17 598.06,59.16"   /><polyline id="SvgjsPolyline5299" points="326.36,0.23 358.43,7.99 393.55,15.91 428.82,23.15 458.31,28.61 493.84,34.44 526.51,39.11 565.22,43.83 598.05,47.2"   /><polyline id="SvgjsPolyline5300" points="1.89,92.26 25.56,88.27 46.34,85.26 91.03,80.06 120.91,77.36 147.84,75.34 210.74,71.79 282.69,69.14 369.66,67.18 471.65,65.89 597.65,65.09"   /><polyline id="SvgjsPolyline5301" points="67.17,0.61 99.26,8.31 131.46,15.55 160.83,21.66 190.3,27.26 216.91,31.83 246.56,36.4 270.34,39.67 303.1,43.64 326.96,46.17 362.81,49.45 398.71,52.18 431.64,54.27 509.56,57.94 599.52,60.58"   /><polyline id="SvgjsPolyline5302" points="378.62,0.32 437.02,14.07 460.49,19.09 489.92,24.91 516.49,29.7 543.14,34.04 569.85,37.95 599.61,41.79"   /><polyline id="SvgjsPolyline5303" points="2.72,79.92 44.57,76.31 95.46,73.06 149.41,70.6 215.37,68.53 293.36,66.96 377.35,65.93 599.35,64.79"   /><polyline id="SvgjsPolyline5304" points="14.65,0.56 46.74,8.26 78.94,15.5 108.3,21.62 140.73,27.75 170.31,32.75 202.95,37.63 232.69,41.52 265.48,45.23 298.33,48.4 334.21,51.31 370.13,53.72 409.07,55.86 490.01,59.06 597.98,61.57"   /><polyline id="SvgjsPolyline5305" points="430.88,0.4 477.57,11.52 518.63,20.36 559.89,28.21 598.37,34.54"   /><polyline id="SvgjsPolyline5306" points="1.55,67.98 100.53,66.35 217.53,65.35 376.53,64.75 598.53,64.48"   /><polyline id="SvgjsPolyline5307" points="0.06,9.55 32.28,16.71 61.67,22.73 94.11,28.75 123.71,33.65 153.39,38.01 183.14,41.85 218.92,45.82 248.79,48.64 281.68,51.29 314.61,53.52 359.54,55.99 398.5,57.69 452.47,59.5 497.46,60.64 599.44,62.33"   /><polyline id="SvgjsPolyline5308" points="483.13,0.47 518.13,8.9 544.47,14.85 570.89,20.42 597.39,25.58"   /><polyline id="SvgjsPolyline5309" points="1.28,55.98 43.24,57.8 103.21,59.75 214.19,61.98 376.18,63.47 598.18,64.14"   /><polyline id="SvgjsPolyline5310" points="0.3,21.91 29.78,27.49 59.35,32.52 89.01,37.01 115.77,40.6 139.6,43.45 172.42,46.88 205.29,49.8 238.2,52.27 280.12,54.85 313.08,56.5 391.03,59.38 478,61.39 597.99,62.91"   /><polyline id="SvgjsPolyline5311" points="535.39,0.54 567.47,8.28 599.66,15.54"   /><polyline id="SvgjsPolyline5312" points="1.86,43.99 52.62,48.96 109.46,53.19 169.37,56.45 229.33,58.79 292.3,60.52 370.29,61.95 466.28,63.01 598.28,63.76"   /><polyline id="SvgjsPolyline5313" points="587.65,0.6 599.3,3.46"   /></g></svg>