<?xml version="1.0" standalone="no"?>
<svg id="SvgjsSvg1001" width="600" height="600" xmlns="http://www.w3.org/2000/svg" version="1.1" xmlns:xlink="http://www.w3.org/1999/xlink" xmlns:svgjs="http://svgjs.com/svgjs" class="svg-paper" viewBox="0 0 600 600"><title id="SvgjsTitle11241">x=y|y=x/exp(sin(sqrt(x*x + y*y)))|dTest=0.0|sd=0.2|sm=0.2|ts=0.05 | generated with FlowLines</title><style>*{fill:none;stroke:#777}</style><g id="SvgjsG11242"><polyline id="SvgjsPolyline11243" points="0.77,73.51 5.65,81.07 10,88.95 13.87,97.07 18.37,108.2 22.23,119.56 25.57,131.08 28.5,142.72 31.69,157.37 34.98,175.07 37.8,192.85 42.23,228.57 44.06,249.49 44.99,264.46 45.67,282.45 45.84,297.45 45.57,315.44 44.79,333.43 42.15,366.32 39.75,387.18 37.26,405.01 34.36,422.77 31.56,437.51 29.02,449.23 25.37,463.78 21.97,475.29 18.03,486.62 13.43,497.71 9.47,505.78 5,513.6 0,521.08"   /><polyline id="SvgjsPolyline11244" points="1.04,54.72 6.86,61.59 13.89,71.31 18.63,78.95 24.17,89.6 28.91,100.62 33.01,111.89 36.57,123.35 40.44,137.84 44.46,155.39 49.02,178.95 52.46,199.67 55.81,223.43 57.88,241.31 59.72,262.23 60.72,280.2 61.1,298.2 60.84,316.19 59.97,334.17 58.24,355.1 55.88,375.97 53,396.77 49.13,420.45 44.58,444.02 40.59,461.57 37.56,473.18 33.2,487.53 29.14,498.82 24.43,509.85 18.93,520.52 14.23,528.19 7.12,537.85 1.17,544.6"   /><polyline id="SvgjsPolyline11245" points="0.66,97.1 4.61,105.19 8.1,113.48 13.95,130.5 19.31,150.8 24.59,177.28 28.99,206.95 32.43,239.77 34.34,269.71 35,299.7 34.36,329.69 32.48,359.63 29.43,389.47 25.19,419.17 20.74,442.75 18.06,454.44 14.97,466.04 11.4,477.49 8.32,485.95 4.86,494.26 0.94,502.36"   /><polyline id="SvgjsPolyline11246" points="0.96,38.15 9.68,46.39 17.74,55.27 23.18,62.44 29.6,72.58 35.14,83.22 39.92,94.22 44.07,105.48 48.57,119.79 53.23,137.17 59.21,163.5 63.87,187.04 69.01,216.6 72.47,240.35 74.81,261.22 76.13,279.17 76.68,300.16 76.26,318.15 75.05,336.11 72.81,356.99 69.43,380.75 64.36,410.31 59.15,436.81 53.87,460.22 48.48,480.51 43.97,494.82 38.67,508.85 33.69,519.76 27.92,530.28 21.24,540.24 15.61,547.26 9.46,553.83 0.52,561.83"   /><polyline id="SvgjsPolyline11247" points="0.75,128.52 5.96,145.74 10.1,163.26 13.93,183.9 16.95,204.69 19.6,228.54 21.48,252.46 22.61,276.44 22.98,300.43 22.58,324.43 21.42,348.4 19.23,375.31 16.45,399.15 12.78,422.86 9.28,440.52 4.94,457.98 0.47,472.3"   /><polyline id="SvgjsPolyline11248" points="1.34,23.48 10.92,30.7 19.94,38.62 28.12,47.39 35.39,56.93 41.73,67.11 47.22,77.78 52,88.78 57.17,102.86 64.14,125.83 70.84,151.98 78.89,187.07 86.91,225.23 91.16,248.85 93.63,266.68 95.01,281.62 95.63,299.6 95.24,314.6 93.72,332.53 91.28,350.36 87.06,373.99 79.06,412.16 70.32,450.16 63.55,476.3 56.46,499.22 51.17,513.26 46.27,524.21 40.63,534.8 34.12,544.88 28.63,552.01 20.5,560.83 11.54,568.8 1.89,575.92"   /><polyline id="SvgjsPolyline11249" points="0.06,174.31 4.47,200.94 6.33,215.83 8.12,233.74 10.11,263.67 10.95,296.66 10.82,314.66 10.27,332.65 8.18,365.58 6.74,380.51 4.56,398.38 0.19,425.02"   /><polyline id="SvgjsPolyline11250" points="0.3,8.87 13.07,16.73 22.79,23.76 31.83,31.64 38.08,38.12 45.63,47.44 52.28,57.43 58.07,67.93 64.32,81.57 70.69,98.4 77.97,121.26 112.97,245.42 116.52,259.99 119.32,274.73 120.76,286.64 121.34,298.62 120.97,310.61 119.72,322.54 117.1,337.31 113.67,351.91 77.9,478.97 70.61,501.83 64.22,518.66 57.96,532.29 52.15,542.78 45.49,552.76 37.92,562.07 29.46,570.57 20.22,578.22 10.35,585.04 0.01,591.12"   /><polyline id="SvgjsPolyline11251" points="2.53,14.12 12.49,20.81 21.85,28.32 30.43,36.7 38.12,45.9 44.89,55.81 50.79,66.26 55.92,77.1 61.48,91.03 68.1,110.95 74.66,134.04 88.72,189.28 99.33,233.01 103.56,253.58 106.3,271.37 107.79,286.29 108.24,301.28 107.6,316.26 105.96,331.17 103.51,345.97 99.19,366.52 87.85,413.16 75.28,462.58 67.87,488.54 61.11,508.42 55.41,522.29 50.12,533.06 44.04,543.4 37.06,553.16 29.17,562.19 20.41,570.39 10.92,577.73 0.86,584.27"   /><polyline id="SvgjsPolyline11252" points="8.92,0.15 19.4,6 29.47,12.51 36.67,17.92 45.64,25.87 53.81,34.66 59.35,41.75 65.97,51.75 71.8,62.24 78.15,75.83 84.77,92.56 90.71,109.56 107.63,160.83 118.22,188.9 124.15,202.68 129.22,213.55 151.23,256.21 155.11,264.33 158.58,272.63 161.42,281.17 162.82,287 163.75,292.92 164.14,298.91 163.96,304.9 162.66,313.8 161.19,319.62 158.29,328.14 154.77,336.42 150.86,344.52 130.17,384.48 123.81,398.07 117.91,411.86 107.36,439.94 90.45,491.22 84.49,508.21 77.83,524.93 71.43,538.49 65.55,548.95 60.62,556.47 53.28,565.96 47.19,572.59 40.64,578.75 31.25,586.22 21.26,592.87 10.84,598.81"   /><polyline id="SvgjsPolyline11253" points="1.85,0.8 12.35,6.61 22.42,13.13 31.92,20.46 40.68,28.65 48.58,37.67 55.58,47.41 61.72,57.72 67.11,68.44 72.99,82.24 78.16,96.32 83.78,113.42 97.69,159.36 105.93,185.07 113.87,207.72 128.52,247.08 133.31,261.29 136.51,272.86 138.33,281.67 139.52,290.59 139.95,299.58 139.59,308.57 138.47,317.49 136.7,326.32 133.56,337.89 128.81,352.12 115.21,388.67 106.29,414.16 98.97,437.01 85.04,482.95 79.45,500.05 74.3,514.14 68.47,527.96 63.14,538.71 57.06,549.05 50.12,558.84 42.29,567.92 33.6,576.19 24.16,583.6 14.14,590.2 1.03,597.47"   /><polyline id="SvgjsPolyline11254" points="33.7,0.86 41.26,5.74 48.51,11.07 53.14,14.89 59.73,21.01 63.88,25.35 69.7,32.21 75.04,39.45 79.93,47.01 87.16,60.14 94.68,76.49 101.39,93.19 117.31,135.28 126.78,157.33 132.1,168.09 137.95,178.57 144.39,188.69 149.65,195.99 157.25,205.27 163.37,211.87 172.06,220.14 181.26,227.84 198.26,240.17 233.38,263.19 240.66,268.49 247.62,274.19 254.01,280.52 257.72,285.23 259.33,287.76 261.79,293.22 262.53,296.13 262.87,299.1 262.79,302.1 262.28,305.06 260.18,310.66 258.7,313.27 255.17,318.12 248.94,324.61 242.07,330.42 234.85,335.78 197.26,360.51 180.32,372.91 171.16,380.67 164.63,386.86 156.45,395.64 150.74,402.59 143.71,412.31 138.87,419.9 132.94,430.33 127.54,441.05 122.59,451.98 116.87,465.84 100.96,507.94 95.38,521.86 87.96,538.25 80.85,551.46 76.05,559.07 70.8,566.38 65.08,573.32 60.99,577.72 54.48,583.93 47.55,589.67 40.26,594.94 32.67,599.77"   /><polyline id="SvgjsPolyline11255" points="24.54,0.38 32.16,5.16 39.48,10.4 46.44,16.11 52.97,22.3 57.06,26.69 62.79,33.62 68.03,40.94 72.8,48.57 79.84,61.81 87.11,78.28 93.53,95.09 107.43,134.72 113.69,151.6 120.53,168.24 128.22,184.52 138.4,202.88 144.82,213.02 149.95,220.41 160.92,234.68 184.06,262.25 189.49,269.43 192.83,274.41 197.15,282.3 199.35,287.88 200.8,293.7 201.34,299.67 200.9,305.65 199.55,311.48 197.42,317.09 193.18,325.02 189.88,330.03 184.48,337.23 161.34,364.8 150.34,379.05 143.53,388.93 138.74,396.55 129.98,412.27 122.25,428.52 115.35,445.15 109.05,462.01 94.08,504.44 87.56,521.22 80.14,537.62 72.94,550.77 68.05,558.32 62.69,565.55 56.84,572.39 50.51,578.78 43.73,584.7 36.57,590.15 29.08,595.13 21.33,599.71"   /><polyline id="SvgjsPolyline11256" points="19.1,0.6 29.29,6.92 36.59,12.18 43.53,17.92 50.03,24.13 56.06,30.82 61.59,37.92 66.63,45.37 72.64,55.75 79.2,69.24 86.03,85.89 92.13,102.82 108.58,151.09 114.94,167.93 120.73,181.77 128.42,198.04 136.99,213.87 146.37,229.23 164.46,256.83 169.15,264.51 173.47,272.4 177.11,280.63 178.99,286.33 180.67,295.16 180.9,301.15 180.38,307.12 178.33,315.88 176.27,321.51 172.42,329.64 166.41,340.02 146.73,370.17 138.93,382.98 130.31,398.78 122.55,415.02 116.71,428.83 110.29,445.65 92.77,496.73 86.58,513.63 79.63,530.23 72.92,543.64 66.76,553.93 61.59,561.3 55.94,568.3 49.8,574.88 43.19,580.99 33.75,588.38 26.27,593.39 15.91,599.44"   /><polyline id="SvgjsPolyline11257" points="7.54,0.06 17.96,6 27.94,12.66 37.31,20.15 43.85,26.33 51.81,35.3 58.88,44.99 65.09,55.26 70.55,65.94 76.53,79.7 82.81,96.56 103.03,159.39 113.03,187.67 122.01,209.92 139.16,248.26 145.83,264.98 148.52,273.56 150.53,282.33 151.66,291.26 152.03,300.25 151.79,306.24 150.61,315.16 148.58,323.93 145.9,332.52 140.49,346.5 123.59,384.95 113.52,410 104.53,435.46 83.39,501.14 75.95,520.77 69.76,534.43 64.09,545.01 57.63,555.11 50.3,564.61 44.21,571.23 35.37,579.34 28.26,584.86 18.27,591.5 5.18,598.82"   /><polyline id="SvgjsPolyline11258" points="55.93,1.64 67.67,10.97 76.24,19.36 84.02,28.49 92.62,40.78 98.7,51.12 105.52,64.48 111.73,78.13 129.53,119.46 134.69,130.29 140.29,140.91 146.45,151.2 153.31,161.04 160.96,170.28 169.44,178.77 173.98,182.69 181.14,188.14 193.86,196.07 207.33,202.66 215.67,206.05 224.15,209.06 241.43,214.1 253.12,216.8 261.96,218.48 273.83,220.23 282.78,221.15 300.76,221.86 318.74,221.02 336.59,218.72 354.23,215.17 362.95,212.95 374.45,209.52 391.31,203.24 404.84,196.78 410.07,193.83 417.65,188.98 422.51,185.46 429.46,179.75 438.04,171.37 445.79,162.21 452.74,152.43 458.99,142.19 464.64,131.61 471.1,118.07 486.48,82.23 493.85,65.81 500.6,52.42 508.2,39.49 516.92,27.29 524.8,18.25 533.48,9.96 545.32,0.77"   /><polyline id="SvgjsPolyline11259" points="46.91,1.33 58.73,10.55 67.37,18.88 73.31,25.64 77,30.36 85.36,42.82 92.6,55.94 99.01,69.51 104.86,83.32 121.62,125.08 127.73,138.78 133.07,149.52 140.51,162.54 147.22,172.49 156.57,184.21 164.81,192.93 171.47,198.98 176.13,202.76 183.4,208.06 190.97,212.92 198.79,217.38 206.81,221.47 217.73,226.44 226.06,229.84 237.32,234 248.71,237.77 260.23,241.11 268.97,243.27 277.79,245.05 286.7,246.34 292.67,246.87 301.67,247.09 310.65,246.61 316.61,245.93 325.49,244.44 334.28,242.51 354.47,236.76 365.83,232.88 377.04,228.61 393.5,221.33 401.51,217.22 409.31,212.75 416.88,207.87 424.14,202.55 431.05,196.79 435.43,192.7 443.65,183.96 451.09,174.55 457.8,164.6 465.25,151.59 470.61,140.85 476.74,127.16 493.58,85.43 500.69,68.9 507.27,55.42 514.76,42.43 523.39,30.17 529.18,23.28 533.31,18.92 537.63,14.77 544.47,8.92 556.68,0.21"   /><polyline id="SvgjsPolyline11260" points="29.97,0.75 37.49,5.69 44.69,11.08 51.51,16.96 55.81,21.14 61.86,27.8 67.43,34.87 72.52,42.29 77.15,50 84.02,63.33 91.18,79.85 97.61,96.66 111.89,136.15 120.87,158.41 129.91,177.36 135.75,187.84 140.51,195.48 145.59,202.91 152.88,212.43 164.85,225.87 177.79,238.38 204.62,262.38 215.06,273.14 220.51,280.3 224.75,288.22 226.52,293.95 227.16,299.9 226.56,305.86 224.82,311.6 222.19,316.98 217.09,324.39 213.2,328.96 206.93,335.41 175.78,363.58 163.1,376.34 157.13,383.08 149.64,392.46 144.41,399.78 137.94,409.88 129.28,425.66 120.51,444.74 112.77,464.25 96.28,509.33 88.31,528.76 80.39,544.92 72.65,557.76 67.41,565.07 63.64,569.75 59.66,574.24 53.3,580.6 48.81,584.58 41.75,590.15 34.34,595.26 26.65,599.94"   /><polyline id="SvgjsPolyline11261" points="39.33,0.49 51.44,9.33 58.2,15.27 62.47,19.49 68.47,26.19 72.2,30.89 80.63,43.29 87.91,56.4 95.5,72.72 102.28,89.39 118.49,131.37 124.41,145.15 129.57,155.98 136.74,169.15 143.17,179.28 152.2,191.26 160.24,200.16 171.26,210.33 183.19,219.41 198.41,229.02 214.25,237.55 230.44,245.42 246.8,252.92 263.3,260.11 274.45,264.55 282.98,267.42 288.79,268.9 294.71,269.87 300.7,270.15 306.68,269.7 312.58,268.6 318.36,267.01 326.86,264.06 337.99,259.57 354.48,252.35 381.62,239.58 397.52,231.14 412.82,221.67 420.14,216.44 427.18,210.83 438.15,200.61 446.16,191.68 453.44,182.14 460.03,172.11 467.38,159.04 472.66,148.27 478.7,134.54 496.2,89.84 503.08,73.21 510.81,56.96 518.23,43.93 526.83,31.64 530.63,27 536.73,20.39 543.29,14.22 547.89,10.38 555.1,5 562.63,0.07"   /><polyline id="SvgjsPolyline11262" points="32.03,0.33 39.53,5.29 46.71,10.72 53.5,16.62 57.78,20.82 63.82,27.5 69.36,34.59 74.43,42.02 79.05,49.74 85.91,63.08 93.09,79.58 113,132.99 122.09,155.2 127.16,166.07 132.71,176.71 138.81,187.04 143.79,194.54 149.12,201.79 156.79,211.02 165.05,219.71 171.6,225.9 185.36,237.49 216.32,261.2 227.48,271.21 231.51,275.66 235.22,280.37 238.52,285.38 241.04,290.81 241.92,293.68 242.7,299.62 242.09,305.57 240.21,311.26 238.89,313.95 235.68,319.01 229.88,325.89 225.61,330.11 218.85,336.04 188.03,359.94 172.05,373.56 165.58,379.81 157.42,388.6 151.68,395.54 146.29,402.74 141.26,410.2 135.08,420.49 129.45,431.09 124.31,441.93 115.11,464.09 100.51,503.47 93.94,520.23 86.62,536.67 79.59,549.92 74.85,557.57 69.66,564.91 63.98,571.9 57.83,578.47 53.47,582.59 46.58,588.38 39.32,593.69 31.76,598.56"   /><polyline id="SvgjsPolyline11263" points="37.33,0.84 49.48,9.63 54.05,13.52 60.55,19.74 66.58,26.42 70.33,31.1 75.56,38.43 80.33,46.05 87.42,59.27 93.66,72.91 100.41,89.59 116.36,131.67 122.13,145.51 127.14,156.42 132.61,167.1 138.65,177.47 145.32,187.44 152.69,196.91 158.67,203.63 167.23,212.03 176.38,219.79 186.01,226.95 203.68,238.29 247.94,263.64 258.04,270.11 267.74,277.17 274.67,282.91 280.87,289.42 284.07,294.48 285.05,297.31 285.36,300.28 284.91,303.24 283.82,306.03 280.52,311.03 276.44,315.42 269.66,321.34 259.97,328.42 249.88,334.9 208.27,358.83 198.04,365.09 188.05,371.75 178.43,378.91 169.29,386.68 162.8,392.93 154.73,401.8 147.35,411.26 140.65,421.21 134.58,431.56 129.08,442.22 119.35,464.16 103.22,506.17 96.5,522.87 89.02,539.24 81.86,552.41 77.03,560 71.75,567.29 67.97,571.95 61.9,578.59 55.36,584.78 50.77,588.64 43.58,594.04 36.06,598.99"   /><polyline id="SvgjsPolyline11264" points="27.81,0.71 35.36,5.6 42.61,10.94 49.47,16.75 53.81,20.9 57.94,25.25 63.73,32.14 72.3,44.44 79.64,57.52 87.19,73.85 93.82,90.59 108.97,132.96 116.46,152.57 124.87,171.81 133.12,187.81 139.27,198.11 144.25,205.61 149.53,212.89 157.04,222.25 169.13,235.59 194.43,261.19 200.37,267.95 204.03,272.71 208.75,280.36 211.13,285.86 213.25,294.6 213.7,300.57 213.04,306.53 211.37,312.28 208.89,317.75 204.12,325.37 200.47,330.13 194.58,336.93 169.58,362.83 157.65,376.3 150.23,385.74 145.01,393.07 140.09,400.6 134,410.94 125.81,426.96 117.44,446.22 110.99,463.02 95.79,505.38 88.04,524.9 80.39,541.18 72.93,554.19 67.87,561.64 62.34,568.73 56.31,575.41 52.03,579.62 47.56,583.61 40.51,589.21 33.12,594.34 25.44,599.03"   /><polyline id="SvgjsPolyline11265" points="73.33,0.11 82.47,7.88 88.88,14.19 96.77,23.23 103.9,32.88 110.35,43 117.66,56.09 140.07,101.9 150.17,120.31 156.69,130.38 163.93,139.94 172.01,148.81 178.64,154.89 188.21,162.13 193.26,165.36 201.14,169.71 214.86,175.74 229.11,180.44 246.61,184.62 264.38,187.47 282.3,189.14 300.29,189.69 318.27,189.11 336.19,187.4 353.95,184.51 371.44,180.28 385.67,175.54 399.37,169.45 409.77,163.47 417.13,158.29 421.79,154.52 428.39,148.41 436.43,139.5 441.91,132.36 448.56,122.38 454.6,112.01 460.19,101.39 482.61,55.59 488.42,45.09 494.75,34.9 501.73,25.14 509.46,15.97 517.95,7.49 524.8,1.65"   /><polyline id="SvgjsPolyline11266" points="66.48,1.78 75.52,9.66 81.81,16.1 89.49,25.31 96.39,35.13 102.61,45.39 109.61,58.66 116.03,72.21 132.07,107.76 137.38,118.52 143.12,129.05 149.46,139.24 156.53,148.94 162.37,155.78 170.93,164.18 182.64,173.54 190.16,178.49 195.36,181.47 208.9,187.92 222.99,193.07 240.34,197.83 252.09,200.27 260.97,201.74 269.89,202.92 281.84,204.02 299.82,204.66 317.81,204.05 329.76,202.96 338.68,201.79 356.39,198.57 373.81,194.06 387.99,189.18 401.67,183.04 406.95,180.19 414.6,175.45 421.87,170.16 426.48,166.32 435.07,157.95 440.95,151.14 448.07,141.48 454.47,131.33 460.27,120.83 465.63,110.09 483.05,71.87 489.58,58.37 496.75,45.2 503.12,35.03 510.21,25.35 518.08,16.3 526.73,7.99 536.09,0.49"   /><polyline id="SvgjsPolyline11267" points="50.41,1.52 57.55,6.99 62.1,10.9 70.63,19.34 78.33,28.54 86.8,40.91 94.16,53.97 100.68,67.48 106.63,81.25 122.5,120.14 128.63,133.83 133.98,144.57 141.43,157.58 148.15,167.52 155.65,176.89 163.95,185.55 168.39,189.58 175.4,195.22 182.78,200.37 190.47,205.04 198.41,209.27 206.56,213.1 223.3,219.71 243.35,225.92 255,228.81 263.81,230.61 272.7,232.07 284.61,233.48 299.59,234.21 308.58,233.98 317.55,233.27 335.35,230.57 355.78,225.74 375.8,219.41 392.49,212.69 400.6,208.79 408.5,204.48 421.06,196.29 425.82,192.63 432.62,186.75 441.03,178.19 448.63,168.91 455.46,159.05 463.04,146.11 468.48,135.41 473.51,124.52 490.8,82.97 498.06,66.5 504.77,53.09 510.77,42.7 519.29,30.36 523.04,25.68 529.07,19 537.8,10.77 549.7,1.65"   /><polyline id="SvgjsPolyline11268" points="37.38,0.27 49.56,9.02 56.38,14.89 60.68,19.07 66.74,25.72 70.52,30.39 75.78,37.68 80.59,45.29 87.73,58.48 94.01,72.1 100.79,88.77 117.95,133.6 123.85,147.39 128.99,158.23 136.13,171.42 142.52,181.57 149.6,191.26 157.39,200.38 165.87,208.87 177.32,218.55 189.54,227.24 202.3,235.13 215.39,242.44 249.92,260.58 281.5,277.86 286.97,280.32 292.64,282.28 298.52,283.41 301.51,283.41 307.39,282.28 315.71,278.87 392.46,237.91 407.83,228.55 420.08,219.89 429.35,212.27 440.09,201.82 447.93,192.74 455.07,183.09 461.52,172.98 468.74,159.83 473.94,149.01 479.89,135.25 497.22,90.49 504.06,73.84 510.39,60.24 517.58,47.08 522.43,39.5 527.72,32.22 531.51,27.57 537.6,20.95 544.15,14.77 548.75,10.92 555.95,5.53 563.48,0.6"   /><polyline id="SvgjsPolyline11269" points="37.93,0.94 50.05,9.77 56.82,15.7 61.08,19.92 65.14,24.33 70.83,31.31 76.04,38.64 80.8,46.28 87.87,59.51 94.09,73.15 99.75,87.05 116.84,131.9 122.64,145.73 127.69,156.62 134.67,169.89 140.91,180.14 147.82,189.94 155.44,199.21 161.61,205.77 170.4,213.93 177.36,219.63 187.06,226.69 197.13,233.22 207.44,239.35 244.26,259.57 262.34,270.24 272.34,276.87 279.62,282.16 295.88,295.43 296.03,298.35 298.86,298.02 295.85,303.13 291.67,307.43 284.87,313.32 275.34,320.61 265.42,327.36 255.21,333.68 208.09,360.04 190.29,371.17 180.55,378.18 171.27,385.78 164.68,391.91 156.46,400.65 148.92,409.98 142.07,419.83 135.88,430.11 128.94,443.41 123.92,454.3 118.12,468.14 102,510.15 96.33,524.04 88.78,540.37 81.53,553.5 76.65,561.06 71.31,568.3 67.49,572.93 61.35,579.51 57.01,583.65 50.14,589.46 42.9,594.8 35.35,599.69"   /><polyline id="SvgjsPolyline11270" points="92.97,1.29 99.58,7.4 107.77,16.16 115.25,25.54 120.43,32.9 131.41,50.79 154.57,92.83 160.9,103.03 166.01,110.44 171.51,117.56 177.46,124.31 183.89,130.6 188.45,134.5 198.17,141.53 208.6,147.45 219.56,152.32 233.79,157.07 248.37,160.56 266.14,163.39 281.07,164.78 299.06,165.39 317.05,164.89 331.99,163.61 346.84,161.47 355.67,159.72 364.41,157.57 378.68,152.99 389.72,148.28 400.24,142.53 410.08,135.67 416.94,129.85 423.31,123.49 429.2,116.69 434.65,109.53 439.71,102.09 446,91.87 469.14,49.82 480.19,31.97 487.24,22.26 492.97,15.32 501.22,6.61 507.88,0.56"   /><polyline id="SvgjsPolyline11271" points="83.09,1.5 89.69,7.62 95.87,14.16 101.62,21.08 108.66,30.79 115.06,40.94 120.96,51.39 142.72,94.17 148.5,104.68 153.15,112.39 159.88,122.32 165.42,129.41 173.56,138.23 180.24,144.26 189.87,151.4 194.97,154.56 202.9,158.81 213.91,163.58 228.15,168.28 245.67,172.37 263.45,175.18 281.37,176.88 299.35,177.47 317.34,176.96 335.27,175.34 350.09,173.08 367.64,169.09 379.1,165.53 392.97,159.84 400.95,155.68 406.08,152.57 415.81,145.55 422.56,139.61 430.81,130.91 436.45,123.89 443.29,114.04 448.02,106.38 453.9,95.92 477.38,50.65 483.43,40.29 490.01,30.25 497.24,20.68 503.14,13.88 509.46,7.47 516.18,1.49"   /><polyline id="SvgjsPolyline11272" points="563.25,599.81 555.81,594.74 548.72,589.2 544.21,585.25 537.81,578.92 533.81,574.45 528.21,567.41 519.91,554.92 512.75,541.74 506.46,528.12 499.68,511.45 483.69,469.39 477.93,455.54 472.93,444.63 466.03,431.32 459.86,421.03 453.03,411.17 445.49,401.83 439.39,395.22 430.67,386.98 423.75,381.22 414.1,374.09 404.07,367.5 393.78,361.33 354.37,339.62 336.34,328.85 326.39,322.15 316.82,314.91 310,309.04 307.89,306.91 306.29,304.38 306.32,301.42 307.43,298.64 309.03,296.11 312.75,291.4 319.18,285.12 326.19,279.47 336,272.57 346.15,266.17 390.56,241.1 400.85,234.92 410.88,228.35 420.57,221.26 429.78,213.57 436.31,207.39 444.46,198.58 451.91,189.18 458.68,179.27 464.8,168.95 470.36,158.32 475.44,147.45 481.29,133.64 498.51,88.83 504.21,74.96 510.48,61.33 517.6,48.13 522.39,40.52 527.63,33.2 533.35,26.25 537.42,21.85 543.92,15.63 548.49,11.74 555.66,6.3 563.15,1.32"   /><polyline id="SvgjsPolyline11273" points="553.43,593.24 546.45,587.56 542.03,583.51 533.79,574.79 526.4,565.34 518.32,552.71 511.34,539.44 505.17,525.77 499.54,511.87 482.4,467.03 476.54,453.23 471.42,442.37 464.34,429.15 457.99,418.97 450.97,409.24 443.24,400.07 434.81,391.53 425.76,383.65 413.73,374.71 401.1,366.61 385.46,357.71 345.74,336.55 317.05,320.25 311.61,317.74 308.76,316.78 305.83,316.17 302.84,315.97 296.86,316.43 293.93,317.04 285.54,320.28 208.82,361.29 193.41,370.58 181.1,379.15 169.52,388.68 160.92,397.05 153,406.05 144.08,418.11 137.71,428.27 130.58,441.47 124.21,455.05 119.53,466.1 103.32,508.07 96.53,524.74 88.93,541.06 81.64,554.16 76.73,561.7 71.36,568.92 65.51,575.76 61.35,580.08 54.73,586.18 50.09,589.98 37.81,598.58"   /><polyline id="SvgjsPolyline11274" points="110.29,1.16 116.72,7.45 122.78,14.11 128.49,21.07 133.87,28.28 143.86,43.25 165.96,78.96 176.38,93.63 182.11,100.57 188.26,107.14 194.86,113.25 199.53,117.02 209.44,123.77 220.03,129.41 231.12,133.97 242.57,137.56 257.2,140.85 269.06,142.67 286.99,144.22 301.99,144.54 316.97,143.99 331.9,142.54 346.7,140.09 358.36,137.3 369.79,133.64 380.85,128.99 391.39,123.27 401.24,116.43 405.87,112.62 412.43,106.45 418.53,99.84 424.21,92.86 434.57,78.15 456.66,42.42 466.7,27.49 472.11,20.3 477.85,13.37 483.95,6.75 490.42,0.5"   /><polyline id="SvgjsPolyline11275" points="584.73,599.19 574.47,592.97 564.65,586.09 557.63,580.45 551.03,574.33 542.96,565.46 537.49,558.32 532.5,550.83 526.54,540.42 520.05,526.9 513.28,510.22 507.22,493.27 490.86,444.97 481.17,419.77 473.86,403.33 464.31,384.62 455.33,369.03 438.1,340.88 431.08,327.63 427.68,319.3 425.95,313.56 424.41,304.7 424.21,298.71 424.7,292.73 426.63,283.95 428.57,278.27 432.2,270.04 439.41,256.89 455.11,231.33 464.11,215.74 472.38,199.76 479.84,183.38 485.49,169.48 490.72,155.42 507.08,107.12 514.2,87.36 521.1,70.74 527.76,57.31 533.88,46.99 539.01,39.59 544.63,32.56 550.74,25.96 557.32,19.82 566.73,12.38 574.18,7.35 584.53,1.27"   /><polyline id="SvgjsPolyline11276" points="571.54,599.08 564,594.17 556.78,588.8 552.17,584.96 545.62,578.79 541.51,574.42 535.75,567.5 527.23,555.17 519.93,542.07 512.4,525.72 504.75,506.17 491.65,469.44 484.21,449.8 475.91,430.51 467.77,414.46 461.7,404.11 455.11,394.08 448.08,384.36 442.46,377.33 430.49,363.9 403.17,336.06 397.26,329.28 393.62,324.51 388.91,316.85 386.52,311.35 384.98,305.56 384.49,299.59 385.13,293.63 386.8,287.87 389.29,282.42 394.1,274.82 397.79,270.09 403.73,263.33 428.99,237.68 441.06,224.34 448.58,214.98 453.88,207.71 458.87,200.22 465.05,189.93 473.35,173.97 481.82,154.75 488.33,137.97 504.61,92.82 511.26,76.1 518.84,59.77 526.21,46.71 531.21,39.23 536.68,32.09 542.64,25.35 546.88,21.1 551.32,17.06 558.32,11.41 565.67,6.22 573.31,1.46"   /><polyline id="SvgjsPolyline11277" points="567.35,599.23 559.87,594.23 552.72,588.76 545.97,582.82 541.71,578.59 537.66,574.16 532,567.17 526.82,559.81 522.09,552.15 515.09,538.89 507.8,522.44 502.32,508.47 485.69,463.45 476.42,441.31 471.21,430.5 466.98,422.56 460.84,412.25 455.84,404.77 450.48,397.54 444.76,390.59 438.71,383.94 430.15,375.52 423.43,369.54 414.16,361.92 380.86,336.33 374.05,330.44 369.75,326.26 363.88,319.45 360.59,314.44 359.22,311.77 357.22,306.12 356.48,300.18 357.14,294.23 359.07,288.56 360.41,285.88 363.66,280.84 369.5,274 376.01,267.79 382.9,262 411.48,240.11 427.51,226.55 436.1,218.18 442.2,211.56 447.96,204.65 453.37,197.46 460.04,187.48 464.64,179.75 470.29,169.16 475.45,158.33 484.68,136.18 500.35,94 505.85,80.04 513.16,63.59 517.25,55.57 521.7,47.75 526.57,40.19 531.9,32.94 535.72,28.32 541.86,21.73 548.45,15.61 555.46,9.96 562.82,4.78 570.46,0.04"   /><polyline id="SvgjsPolyline11278" points="565.07,599.38 557.62,594.33 550.51,588.81 543.8,582.82 539.57,578.56 533.63,571.8 529.94,567.07 524.8,559.68 520.11,552 514.46,541.42 507.01,525.04 500.37,508.31 484.58,466.17 475.19,444.09 469.91,433.31 464.1,422.81 457.7,412.67 452.46,405.35 444.89,396.04 438.78,389.44 430.1,381.15 423.25,375.32 416.15,369.78 406.4,362.8 368.84,338.01 361.61,332.65 354.75,326.83 348.36,320.5 342.89,313.37 340.23,308 339.35,305.13 338.84,302.18 338.74,299.18 339.79,293.29 342.2,287.81 343.78,285.26 347.45,280.52 353.8,274.15 360.72,268.4 367.97,263.07 402.96,239.85 419.87,227.39 429,219.61 435.52,213.4 443.68,204.62 449.38,197.65 456.4,187.92 462.77,177.76 468.55,167.24 473.83,156.46 483.22,134.38 499.11,92.28 504.68,78.35 512.09,61.95 519.19,48.74 523.97,41.12 529.21,33.81 534.93,26.86 541.12,20.33 547.77,14.26 552.43,10.48 559.72,5.21 567.31,0.37"   /><polyline id="SvgjsPolyline11279" points="562.6,598.8 550.49,589.97 543.72,584.04 539.46,579.82 535.4,575.4 529.71,568.42 524.51,561.08 519.75,553.44 512.7,540.21 505.32,523.79 483.85,467.77 474.39,445.72 467.64,432.33 461.62,421.94 456.7,414.41 449.53,404.79 441.68,395.72 435.34,389.33 426.38,381.36 416.9,374 399.45,362.32 358.17,337.84 348.16,331.22 340.98,325.8 334.31,319.76 330.41,315.21 328.75,312.71 327.38,310.05 325.43,304.38 324.92,301.42 324.94,298.43 325.47,295.48 327.82,289.98 329.44,287.45 333.25,282.82 339.78,276.63 346.86,271.08 356.76,264.3 397.8,239.42 415.18,227.64 424.62,220.23 433.56,212.23 441.9,203.6 447.72,196.74 454.88,187.12 461.38,177.03 467.27,166.58 472.62,155.84 482.14,133.81 498.17,91.76 504.94,75.09 511.21,61.46 518.33,48.26 523.12,40.65 528.37,33.34 532.13,28.67 538.18,22 544.68,15.78 549.26,11.9 556.43,6.47 563.93,1.5"   /><polyline id="SvgjsPolyline11280" points="541.27,598.91 531.83,591.51 523.09,583.29 515.14,574.3 506.33,562.17 500.08,551.93 493.09,538.66 485.5,522.34 468.6,483.89 463.36,473.1 457.68,462.53 451.42,452.3 444.44,442.53 436.66,433.4 428.04,425.07 423.42,421.23 416.15,415.93 411.1,412.69 403.26,408.28 389.64,402 381.23,398.81 372.68,396 355.29,391.39 346.48,389.54 334.65,387.54 316.76,385.58 298.77,384.97 280.79,385.77 268.86,387.05 259.96,388.38 242.32,391.94 224.97,396.73 216.46,399.64 208.09,402.94 194.57,409.43 189.36,412.41 181.82,417.32 174.67,422.77 170.13,426.7 163.71,433.01 155.89,442.11 148.88,451.84 142.59,462.06 136.89,472.61 131.63,483.4 113.5,524.58 107.15,538.17 100.18,551.46 93.97,561.72 85.2,573.88 77.28,582.9 68.58,591.15 59.17,598.59"   /><polyline id="SvgjsPolyline11281" points="549.87,598.57 545.06,594.99 538.15,589.21 529.62,580.79 521.9,571.6 513.41,559.24 506.03,546.19 499.51,532.68 493.56,518.91 476.51,477.27 470.29,463.62 464.84,452.93 458.83,442.55 450.44,430.12 442.99,420.71 434.75,411.99 423.39,402.21 416.07,396.97 408.44,392.2 400.56,387.85 392.48,383.91 375.85,377.03 364.51,373.08 353.03,369.6 341.42,366.58 332.63,364.66 323.76,363.1 314.84,361.97 299.86,361.22 284.89,362 275.96,363.15 267.1,364.72 258.31,366.65 246.7,369.68 226.71,376.09 210,382.78 201.86,386.62 193.91,390.84 186.21,395.48 178.79,400.58 171.72,406.15 167.23,410.12 158.81,418.67 151.18,427.93 144.32,437.77 136.71,450.69 129.95,464.08 125.01,475.02 107.9,516.64 100.68,533.12 92.55,549.18 86.38,559.47 77.62,571.64 71.75,578.46 67.58,582.77 58.65,590.78 46.55,599.63"   /><polyline id="SvgjsPolyline11282" points="556.49,598.52 551.6,595.04 544.58,589.42 535.85,581.18 531.79,576.76 526.11,569.79 517.66,557.4 510.36,544.3 503.94,530.75 497,514.14 479.42,469.48 473.35,455.76 468.03,445.01 460.61,431.97 453.95,422 446.54,412.56 438.38,403.76 427.18,393.8 419.99,388.39 412.51,383.39 396.87,374.48 380.62,366.75 355.58,356.66 344.27,352.64 332.83,349.02 324.14,346.7 315.33,344.89 306.4,343.8 300.4,343.56 294.41,343.74 285.47,344.76 270.83,347.99 250.81,354.34 236.76,359.59 225.66,364.14 206.62,373 190.93,381.81 183.41,386.75 176.17,392.09 164.86,401.94 156.6,410.64 147.33,422.42 140.72,432.43 133.37,445.5 128.07,456.27 122.01,469.99 104.28,514.59 98.42,528.4 90.6,544.61 83.08,557.59 74.4,569.81 68.56,576.66 64.41,580.99 60.06,585.12 53.18,590.92 40.92,599.56"   /><polyline id="SvgjsPolyline11283" points="560.42,599.29 548.33,590.41 541.59,584.46 537.34,580.22 533.29,575.79 527.63,568.8 519.23,556.38 511.98,543.25 505.61,529.67 498.74,513.04 481.44,468.26 475.52,454.48 470.34,443.66 463.16,430.49 456.71,420.37 447.67,408.41 439.62,399.52 428.59,389.36 421.52,383.79 414.17,378.6 398.83,369.2 380.22,359.47 347.54,344.38 333.72,338.54 325.3,335.36 319.59,333.54 310.84,331.44 304.91,330.53 298.92,330.3 292.94,330.79 287.05,331.9 278.41,334.41 269.95,337.5 242.38,349.3 215.28,362.17 199.47,370.77 184.31,380.47 172.45,389.64 161.51,399.89 153.53,408.85 146.27,418.4 139.72,428.45 132.4,441.54 127.14,452.33 121.11,466.06 102.51,513.55 96.71,527.38 90.32,540.95 83.06,554.07 74.66,566.49 70.95,571.2 64.97,577.93 60.73,582.17 54,588.14 46.88,593.65 39.43,598.69"   /><polyline id="SvgjsPolyline11284" points="127.58,1.47 137.93,12.33 147.43,23.93 156.31,36.02 175.14,63.12 186.09,77.4 192.02,84.17 198.33,90.58 205.07,96.55 212.24,101.98 219.83,106.82 230.5,112.29 238.84,115.67 250.28,119.28 261.97,121.97 273.82,123.84 288.76,125.15 300.76,125.44 312.75,125.07 327.68,123.65 339.52,121.68 351.18,118.88 362.58,115.14 370.88,111.66 381.48,106.04 389,101.1 396.1,95.58 400.59,91.6 406.97,85.25 412.95,78.53 423.99,64.32 444.57,34.79 453.5,22.73 463.08,11.19 473.51,0.43"   /><polyline id="SvgjsPolyline11285" points="598.19,593.21 585.35,585.46 575.57,578.52 566.44,570.74 560.11,564.34 552.45,555.11 545.69,545.2 539.78,534.76 533.42,521.18 526.9,504.4 521.22,487.32 500.19,415.33 483.11,360.95 478.87,346.57 475.24,332.01 473.08,320.21 471.81,308.28 471.55,299.29 471.9,290.3 473.29,278.38 475.55,266.6 479.25,252.06 500.6,183.3 520.75,114.18 527.38,94.26 533.98,77.51 540.44,63.98 546.45,53.6 553.31,43.76 561.08,34.62 569.72,26.3 579.11,18.83 589.09,12.18 599.52,6.24"   /><polyline id="SvgjsPolyline11286" points="594.08,599.73 583.63,593.82 573.62,587.2 564.22,579.76 557.65,573.61 549.64,564.68 542.53,555.02 536.28,544.78 530.79,534.11 523.69,517.57 517.54,500.66 498.51,440.6 488.75,412.23 480.06,389.86 462.57,348.4 457.28,334.37 454.62,325.77 452.55,317.02 451.26,308.11 450.87,299.13 451.44,290.15 452.9,281.27 455.1,272.54 457.85,263.98 463.23,249.98 480.7,208.51 487.18,191.71 496.07,166.22 517.02,100.48 523.25,83.59 530.46,67.11 536.05,56.49 542.42,46.32 549.66,36.76 557.79,27.94 566.74,19.95 576.38,12.82 586.56,6.47 597.13,0.78"   /><polyline id="SvgjsPolyline11287" points="578.02,599.7 570.36,594.98 562.99,589.81 555.97,584.18 549.38,578.06 543.25,571.47 537.61,564.46 532.46,557.08 527.78,549.39 520.87,536.08 513.73,519.56 506.4,499.89 488.58,448.91 481.96,432.18 474.59,415.76 464.79,397.19 455.28,381.91 444.86,367.23 424.84,341 419.66,333.65 414.88,326.02 410.87,317.97 408.83,312.33 407.49,306.49 406.97,300.52 407.34,294.53 409.43,285.79 411.66,280.23 415.87,272.28 424.26,259.85 444.27,233.61 454.61,218.88 464.04,203.55 473.76,184.94 479.92,171.27 486.62,154.56 492.79,137.65 505.56,100.8 511.87,83.94 518.97,67.4 522.95,59.33 527.3,51.46 532.09,43.84 537.34,36.53 543.08,29.6 549.31,23.11 555.99,17.08 563.08,11.54 570.51,6.46 580.82,0.33"   /><polyline id="SvgjsPolyline11288" points="586.64,599.06 576.35,592.89 568.95,587.77 559.64,580.2 553.16,573.96 547.16,567.25 539.94,557.67 533.58,547.5 529.32,539.57 523.03,525.96 516.46,509.2 510.57,492.2 494.72,443.72 488.67,426.77 483.21,412.8 472.29,388.11 451.88,348.01 448.02,339.88 444.54,331.58 441.67,323.05 439.43,314.34 438.11,305.44 437.89,299.45 438.21,293.46 439.67,284.58 441.2,278.78 444.14,270.28 451.51,253.86 471.74,213.67 481.44,191.72 486.94,177.76 493.05,160.83 509.88,109.52 515.81,92.53 522.43,75.79 528.79,62.21 534.63,51.73 541.28,41.74 548.8,32.4 555.02,25.89 561.69,19.86 571.22,12.57 581.3,6.07 591.81,0.27"   /><polyline id="SvgjsPolyline11289" points="568.82,598.85 561.33,593.87 554.17,588.42 549.61,584.52 543.14,578.27 537.14,571.56 531.63,564.45 526.59,556.99 522,549.25 515.19,535.89 508.08,519.36 501.67,502.54 488.39,465.87 479.46,443.6 470.48,424.62 466.18,416.71 459.95,406.45 454.89,399.01 449.5,391.81 443.77,384.87 435.66,376.03 422.66,363.58 393.28,337.94 386.89,331.6 382.92,327.1 377.72,319.77 375.04,314.41 372.28,305.85 371.68,299.89 372.33,293.94 374.11,288.22 376.79,282.86 381.94,275.49 385.86,270.94 392.18,264.53 423.49,236.55 436.25,223.86 442.26,217.16 449.79,207.82 455.07,200.53 461.58,190.45 466.09,182.66 471.64,172.02 480.28,152.89 486.9,136.15 504.48,88.28 511.35,71.64 519.24,55.47 526.94,42.6 535.9,30.58 541.93,23.9 546.2,19.69 552.98,13.77 557.72,10.09 565.11,4.96 572.78,0.26"   /><polyline id="SvgjsPolyline11290" points="521.56,598.45 512.58,590.5 506.32,584.03 500.5,577.17 493.37,567.52 486.91,557.41 480.98,546.98 458.15,501.38 452.47,490.81 446.34,480.49 439.59,470.58 434.03,463.5 425.88,454.7 419.19,448.68 409.56,441.53 401.87,436.87 396.55,434.09 385.57,429.26 371.36,424.47 356.81,420.84 339.08,417.75 321.18,415.88 300.2,415.12 282.21,415.65 264.29,417.31 249.46,419.59 231.91,423.55 217.61,428.07 203.8,433.91 193.3,439.7 185.84,444.74 181.11,448.43 174.4,454.42 166.22,463.2 158.88,472.69 152.28,482.7 142.03,501.03 119.21,546.63 113.29,557.07 106.85,567.19 99.75,576.86 93.94,583.74 87.71,590.22 78.75,598.21"   /><polyline id="SvgjsPolyline11291" points="531.12,598.95 524.28,593.11 515.8,584.62 508.11,575.41 501.2,565.61 494.96,555.36 489.26,544.8 482.68,531.32 465.06,493.2 455.2,474.66 448.81,464.51 441.68,454.86 433.71,445.89 427.16,439.72 415.31,430.54 407.74,425.68 402.5,422.76 388.88,416.48 374.73,411.52 357.31,407 348.49,405.24 336.63,403.38 324.71,402.03 315.73,401.37 297.74,400.92 279.76,401.67 261.87,403.58 244.14,406.69 226.69,411.09 212.5,415.94 198.82,422.07 190.96,426.46 185.92,429.7 176.36,436.94 167.61,445.15 161.62,451.87 154.37,461.42 147.85,471.5 141.95,481.94 136.49,492.63 118.76,530.7 112.09,544.14 106.31,554.65 99.96,564.83 92.93,574.55 85.13,583.66 76.55,592.05 67.25,599.63"   /><polyline id="SvgjsPolyline11292" points="144.82,2.03 153.15,10.67 161.05,19.7 187.23,52.54 197.04,63.89 203.29,70.36 209.89,76.47 216.89,82.14 221.77,85.62 229.42,90.35 237.43,94.47 248.54,98.98 257.13,101.65 265.88,103.75 277.71,105.73 286.67,106.64 298.66,107.14 310.65,106.82 322.59,105.69 334.42,103.69 343.17,101.57 354.57,97.84 362.86,94.34 370.85,90.2 378.48,85.44 383.36,81.95 390.34,76.27 396.93,70.14 403.17,63.66 414.86,49.97 439.15,19.47 447.06,10.44 455.4,1.82"   /><polyline id="SvgjsPolyline11293" points="599.01,579.82 589.15,572.98 579.92,565.32 571.48,556.8 563.94,547.48 557.32,537.47 551.57,526.94 546.58,516.03 541.18,502.03 534.77,482.04 527.71,455.98 517.21,412.22 508.1,371.22 504.13,350.6 501.44,332.81 499.74,314.89 499.28,299.9 499.75,284.91 501.47,267 504.17,249.2 508.75,225.64 517.26,187.58 527.76,143.83 534.83,117.77 541.25,97.78 546.66,83.79 551.66,72.89 557.42,62.36 564.05,52.36 571.61,43.05 580.07,34.54 589.31,26.9 599.18,20.08"   /><polyline id="SvgjsPolyline11294" points="598.07,589.2 587.96,582.75 578.4,575.5 569.56,567.39 561.57,558.44 554.51,548.74 548.34,538.46 542.96,527.73 537.15,513.9 530.26,494.07 523.46,471.06 500.36,384.07 494.47,360.81 490.62,343.22 488.01,328.45 486.34,313.55 485.84,298.56 486.33,286.58 488,271.67 490.59,256.9 495.24,236.42 523.57,129.1 530.47,106.11 537.53,86.34 543.52,72.59 549.07,61.96 555.45,51.8 562.74,42.27 570.94,33.51 579.96,25.6 589.65,18.54 599.87,12.25"   /><polyline id="SvgjsPolyline11295" points="504.23,599.12 497.64,593 489.46,584.22 483.79,577.24 476.78,567.49 465.73,549.64 443.7,510.41 437.31,500.25 432.16,492.87 426.62,485.78 420.64,479.05 416.39,474.82 409.61,468.91 399.85,461.93 389.4,456.05 378.41,451.23 364.17,446.56 349.56,443.14 334.75,440.78 319.83,439.32 301.84,438.64 283.85,439.09 265.93,440.69 251.11,443.01 236.5,446.38 222.23,450.99 211.22,455.74 200.73,461.56 190.93,468.48 184.11,474.35 177.78,480.74 171.92,487.57 166.49,494.74 161.42,502.19 155.12,512.4 134.61,549.05 123.6,566.92 116.63,576.69 110.99,583.7 102.85,592.51 96.29,598.67"   /><polyline id="SvgjsPolyline11296" points="159.87,0.26 172.59,12.98 196.85,39.59 207.3,50.34 218.46,60.36 225.59,65.85 230.54,69.24 238.27,73.84 246.33,77.84 254.67,81.21 263.25,83.93 272,86.03 280.87,87.52 289.83,88.43 298.82,88.79 307.81,88.58 316.78,87.82 325.68,86.48 334.47,84.54 343.09,81.98 351.5,78.79 359.64,74.96 367.46,70.5 374.93,65.48 379.7,61.85 386.58,56.05 393.15,49.9 403.59,39.12 427.84,12.52 438.42,1.88"   /><polyline id="SvgjsPolyline11297" points="598.59,565.04 589.51,557.21 583.22,550.77 575.64,541.48 569,531.49 563.25,520.96 558.3,510.03 553.99,498.83 549.32,484.58 543.03,461.42 537.65,438.03 531.7,408.63 526.94,382.05 523.31,358.33 520.85,337.48 519.48,319.53 518.96,301.54 519.33,283.54 520.56,265.59 522.9,244.72 526.43,220.98 532.25,188.5 537.63,162.04 543.01,138.65 549.3,115.5 553.96,101.24 558.27,90.04 563.22,79.11 568.96,68.58 575.59,58.58 583.17,49.28 589.45,42.84 598.53,35.01"   /><polyline id="SvgjsPolyline11298" points="486.91,599.22 480.49,592.92 474.42,586.27 463.3,572.12 454.85,559.73 434.06,526.74 427.29,516.83 421.9,509.63 416.15,502.71 409.98,496.16 403.36,490.06 398.68,486.3 388.76,479.57 378.17,473.94 367.06,469.4 355.6,465.84 343.91,463.15 329.1,460.83 314.16,459.52 299.17,459.12 284.18,459.61 269.25,461.03 254.45,463.48 242.79,466.28 231.37,469.97 220.33,474.66 209.82,480.44 202.38,485.5 195.38,491.15 190.97,495.22 184.74,501.71 178.93,508.58 173.49,515.75 166.68,525.63 145.87,558.62 137.47,571.04 126.44,585.26 120.43,591.96 114.06,598.31"   /><polyline id="SvgjsPolyline11299" points="177.01,0.27 205.41,26.99 216.56,37.03 228.29,46.37 240.83,54.58 246.09,57.46 254.24,61.28 262.66,64.45 268.41,66.19 277.17,68.24 283.08,69.23 292.03,70.15 301.03,70.4 310.02,70 315.98,69.35 324.85,67.83 330.69,66.44 336.44,64.74 344.89,61.64 353.07,57.89 358.35,55.05 363.5,51.97 370.95,46.92 382.73,37.64 393.9,27.63 422.29,0.89"   /><polyline id="SvgjsPolyline11300" points="599.75,550.35 593.49,543.88 585.95,534.56 580.92,527.1 575.02,516.65 569.96,505.77 565.6,494.59 561.82,483.21 557.71,468.78 552.82,448.36 548.08,424.83 544,401.18 540.5,377.44 537.99,356.59 536.11,335.68 535.13,317.7 534.81,302.71 535.15,281.71 536.16,263.74 538.05,242.83 540.58,221.98 544.09,198.24 548.19,174.59 552.31,154 557.1,133.56 561.11,119.11 564.8,107.69 569.03,96.46 573.94,85.51 579.66,74.97 584.55,67.41 589.97,60.23 598.02,51.34"   /><polyline id="SvgjsPolyline11301" points="469.63,598.91 459.26,588.07 449.7,576.52 440.74,564.49 423.37,540.03 412.32,525.83 406.36,519.08 400.03,512.68 393.28,506.73 388.55,503.05 381.09,498.01 370.57,492.26 362.31,488.68 350.95,484.82 339.31,481.94 327.48,479.91 315.55,478.65 300.56,478.08 285.58,478.57 273.64,479.76 261.8,481.71 250.13,484.51 238.74,488.27 230.46,491.78 222.46,495.91 212.37,502.39 207.59,506.02 200.79,511.91 194.41,518.26 188.41,524.96 177.3,539.12 156.4,568.43 149.14,577.99 139.49,589.47 131.18,598.12"   /><polyline id="SvgjsPolyline11302" points="196.29,1.71 217.23,18.76 229.22,27.76 241.81,35.92 252.4,41.54 260.67,45.1 266.32,47.11 277.91,50.2 289.77,52 301.75,52.48 313.71,51.61 325.51,49.43 336.99,45.97 342.58,43.79 350.74,40 361.2,34.11 373.62,25.72 385.51,16.58 404.1,1.39"   /><polyline id="SvgjsPolyline11303" points="598.93,531.77 593.62,524.51 588.84,516.88 584.59,508.95 579.64,498.03 575.4,486.8 571.74,475.37 568.55,463.81 565.08,449.22 561.49,431.58 557.92,410.88 554.9,390.1 552.72,372.23 550.68,351.33 549.43,333.38 548.68,315.39 548.48,300.4 548.84,279.4 549.56,264.42 550.87,246.47 552.63,228.55 555.19,207.71 557.8,189.9 560.8,172.15 564.27,154.49 567.62,139.87 570.69,128.27 574.19,116.79 578.23,105.49 582.94,94.46 586.99,86.43 591.54,78.66 598.44,68.85"   /><polyline id="SvgjsPolyline11304" points="452.4,598.39 446.08,591.98 438.02,583.09 411.41,550.6 401.52,539.33 395.23,532.88 388.61,526.79 381.6,521.15 376.71,517.67 369.06,512.94 361.06,508.82 349.94,504.31 341.35,501.65 329.65,498.99 320.76,497.63 311.8,496.76 299.81,496.36 290.81,496.6 278.86,497.68 267.03,499.64 258.28,501.75 246.88,505.47 238.59,508.98 230.61,513.13 222.97,517.89 218.09,521.38 211.1,527.05 204.49,533.15 198.22,539.61 188.35,550.9 163.68,581.11 155.71,590.07 147.33,598.66"   /><polyline id="SvgjsPolyline11305" points="213.19,0.05 225.56,8.53 238.26,16.51 248.79,22.25 259.73,27.18 271.08,31.07 279.82,33.19 291.7,34.86 300.69,35.19 309.68,34.74 321.53,32.91 330.25,30.68 341.55,26.66 349.75,22.97 360.34,17.32 373.08,9.42 385.49,0.98"   /><polyline id="SvgjsPolyline11306" points="599.23,510.87 594.93,502.97 591.11,494.82 584.72,478 581.21,466.52 578.18,454.91 572.62,428.49 567.55,395.89 563.92,363.09 561.7,330.17 561.02,300.18 561.69,270.19 563.89,237.27 565.69,219.36 567.9,201.49 572.56,171.86 578.09,145.44 583.69,125.2 586.56,116.67 590.97,105.51 594.76,97.35 599.05,89.44"   /><polyline id="SvgjsPolyline11307" points="435.22,597.94 424.59,587.35 402.08,563.23 391.53,552.56 384.91,546.48 377.98,540.73 370.71,535.43 365.67,532.18 357.82,527.78 352.41,525.19 344.06,521.83 335.48,519.13 326.72,517.06 317.84,515.6 308.88,514.74 299.89,514.46 290.9,514.75 281.94,515.63 273.06,517.1 264.31,519.19 255.73,521.91 250.14,524.08 241.98,527.88 234.14,532.29 229.11,535.55 221.85,540.87 210.48,550.65 201.92,559.06 177.33,585.35 164.62,598.09"   /><polyline id="SvgjsPolyline11308" points="234.62,0.12 245.27,5.64 253.46,9.39 267.52,14.58 276.21,16.92 285.06,18.57 294.01,19.47 300.01,19.65 306,19.47 314.95,18.56 323.8,16.91 332.49,14.58 340.99,11.64 349.3,8.18 365.39,0.11"   /><polyline id="SvgjsPolyline11309" points="599.97,484.86 594.78,470.79 589.05,450.59 584.61,430.07 580.67,406.39 577.32,379.61 574.94,352.71 573.63,328.75 573.07,301.76 573.4,277.76 574.7,250.79 576.95,223.89 580.17,197.08 583.97,173.39 588.93,149.91 593.71,132.56 599.77,115.61"   /><polyline id="SvgjsPolyline11310" points="420.33,599.89 393.86,575.5 382.63,565.56 370.83,556.3 358.25,548.14 350.29,543.94 344.82,541.48 336.39,538.33 330.65,536.61 321.88,534.59 315.96,533.63 309.99,532.97 301.01,532.55 295.01,532.65 286.04,533.37 280.1,534.23 271.3,536.1 262.67,538.64 257.04,540.72 248.82,544.37 243.5,547.15 238.32,550.17 230.81,555.13 218.92,564.27 207.63,574.14 181.16,598.55"   /><polyline id="SvgjsPolyline11311" points="263.3,0.43 274.88,3.57 283.73,5.21 292.68,6.17 301.67,6.4 310.66,5.89 319.57,4.68 328.37,2.8 337.02,0.33"   /><polyline id="SvgjsPolyline11312" points="599.37,442.09 596.21,427.43 593.11,409.7 590.62,391.87 588.64,373.98 587.12,356.04 586.02,338.08 585.35,320.09 585.09,299.09 585.32,281.1 586.11,260.11 587.48,239.16 589.12,221.23 591.23,203.36 593.87,185.55 596.56,170.79 599.8,156.15"   /><polyline id="SvgjsPolyline11313" points="401.07,598.61 382.27,583.69 370.19,574.79 357.55,566.72 346.93,561.15 335.83,556.61 324.32,553.24 312.5,551.16 300.53,550.43 288.56,551.04 276.72,553 270.91,554.47 262.35,557.26 251.33,561.99 240.78,567.7 228.22,575.9 216.2,584.87 197.42,599.81"   /><polyline id="SvgjsPolyline11314" points="599.78,364 597.74,331.07 597.13,298.08 597.9,265.09 599.85,235.15"   /><polyline id="SvgjsPolyline11315" points="381.89,598.63 369.33,590.42 359.02,584.29 348.37,578.78 340.11,575.19 328.75,571.33 320.01,569.23 311.11,567.86 299.14,567.26 290.15,567.73 281.24,568.99 272.47,570.99 261.07,574.73 250.07,579.52 242.09,583.67 229.2,591.34 216.68,599.6"   /><polyline id="SvgjsPolyline11316" points="360.52,599.08 352.43,595.12 344.18,591.53 330.01,586.64 321.27,584.51 315.36,583.48 306.41,582.54 300.41,582.35 291.42,582.7 285.46,583.36 279.54,584.35 270.79,586.42 265.04,588.15 256.58,591.22 248.31,594.77 240.22,598.7"   /><polyline id="SvgjsPolyline11317" points="331.94,599.79 323.19,597.69 314.31,596.21 305.35,595.42 299.35,595.29 293.36,595.49 284.4,596.38 275.55,597.95 269.71,599.35"   /></g></svg>