<?xml version="1.0" standalone="no"?>
<svg id="SvgjsSvg1001" width="600" height="600" xmlns="http://www.w3.org/2000/svg" version="1.1" xmlns:xlink="http://www.w3.org/1999/xlink" xmlns:svgjs="http://svgjs.com/svgjs" class="svg-paper" viewBox="0 0 600 600"><title id="SvgjsTitle2426">x=cos((x-min(min(x,y)/sqrt(x*x + y*y),y)))|y=x|dTest=0.0|sd=0.2|sm=0.2|ts=0.05 | generated with FlowLines</title><style>*{fill:none;stroke:#777}</style><g id="SvgjsG2427"><polyline id="SvgjsPolyline2428" points="0,521.08 1.45,539.02 3.42,553.89 7.06,574.57 11.86,598.08"   /><polyline id="SvgjsPolyline2429" points="120.45,2.44 80.55,153.25 66.41,208.47 52.01,266.72 43.05,304.67 35.2,339.81 21.36,404.34 15.34,436.78 12.53,457.59 11.04,475.53 10.57,493.52 11.23,511.5 12.93,529.42 15.54,547.23 18.91,564.91 25.75,597.19"   /><polyline id="SvgjsPolyline2430" points="132.75,2.57 116.36,69.6 51.7,328.65 36.74,392.93 32.54,413.51 29.51,431.25 27.22,449.1 25.86,467.05 25.6,485.04 26.52,503.01 28.18,517.92 31.11,535.68 41.35,582.57 44.27,597.28"   /><polyline id="SvgjsPolyline2431" points="108.08,2.29 88.21,74.61 71.27,138.4 55.83,199.47 42.62,254.92 28.55,319.4 18.23,372.41 7.97,422.36 3.23,448.94 0.08,472.73"   /><polyline id="SvgjsPolyline2432" points="145.02,2.42 126.99,87.53 97.04,222.23 82.73,283.59 59.18,379.74 54.44,403.27 51.38,424.04 49.83,441.97 49.43,456.97 49.92,471.96 51.71,489.86 53.59,501.71 56.55,516.42 66.51,557.22 69.74,571.87 72.31,586.64 73.75,598.55"   /><polyline id="SvgjsPolyline2433" points="139.43,2.1 124.06,69.36 97.02,183.19 50.63,372.6 44.34,401.92 40.46,425.61 38.54,443.5 37.76,458.48 37.86,476.48 39.07,494.43 41.01,509.3 43.67,524.07 55.68,576.71 59.41,597.37"   /><polyline id="SvgjsPolyline2434" points="95.71,1.98 80.56,56.93 66.04,112.05 52.28,167.36 40.69,217.03 32.98,252.19 25.13,290.39 18.43,325.76 9.68,376.01 0.33,423.09"   /><polyline id="SvgjsPolyline2435" points="157.25,1.83 131.74,158.77 113.86,271.36 105.42,318.61 94.54,371.5 92.26,386.33 90.82,401.26 90.37,413.24 90.59,425.24 91.52,437.2 93.66,452.05 96.08,463.8 99.02,475.43 110.18,512.8 114.13,527.27 116.75,538.98 118.7,550.82 119.88,562.76 120.23,574.75 119.8,586.74 118.64,598.68"   /><polyline id="SvgjsPolyline2436" points="151.86,1.01 137.56,77.68 107.15,233.75 92.96,301.27 75.2,377.22 71.94,394.92 69.62,412.77 68.57,427.73 68.44,442.73 69.04,454.71 70.67,469.62 72.65,481.45 75.81,496.12 87.35,539.61 91.93,560.1 93.83,571.95 94.82,580.89 95.42,589.87 95.61,598.87"   /><polyline id="SvgjsPolyline2437" points="148.22,2.03 130.46,90.26 100.05,234.08 86.13,295.52 66.38,377.16 62.42,397.78 59.94,415.61 58.69,430.55 58.3,445.55 58.84,460.53 60.35,475.46 62.2,487.31 65.2,502.01 77.01,548.53 80.91,566.1 83.72,583.88 84.97,598.82"   /><polyline id="SvgjsPolyline2438" points="83.35,1.63 69.38,53.79 57.61,100.33 45.15,152.87 34.17,202.67 25.17,246.76 17.43,288.04 11.36,323.53 4.52,368.01 0.33,391.64"   /><polyline id="SvgjsPolyline2439" points="169.39,0.68 163.57,63.41 159.87,108.26 157.7,141.19 156.35,171.15 155.81,198.15 156.12,228.14 157.33,255.12 159.42,282.03 162.27,308.88 168,353.52 169.39,362.41 171.42,371.17 175.05,382.61 180.84,396.44 186.19,407.18 200.38,433.61 206.65,447.23 209.66,455.71 211.88,464.43 212.84,470.35 213.48,479.32 213.17,488.31 211.5,500.19 208.71,511.86 205.14,523.31 199.94,537.38 194.22,551.25 173.33,597.77"   /><polyline id="SvgjsPolyline2440" points="163.43,2.94 149.86,110.08 142.79,172.68 138.11,223.47 131.49,310.21 128.97,337.1 125.95,363.93 125.25,375.9 125.34,387.9 126.28,399.86 127.55,408.77 129.96,420.52 132.25,429.23 135.84,440.68 149.37,477.25 154.1,491.49 157.78,506.02 159.7,517.86 160.45,526.83 160.6,535.83 160.18,544.82 159.25,553.77 157.86,562.66 155.44,574.41 152.49,586.04 149.14,597.56"   /><polyline id="SvgjsPolyline2441" points="160.56,2.77 139.36,151.26 133.93,192.91 121.9,291.17 116.35,329.78 109.9,368.24 108.81,377.17 107.93,389.14 107.75,401.13 108.34,413.12 109.69,425.04 111.79,436.85 114.57,448.53 117.88,460.06 129.21,494.23 133.56,508.58 137.04,523.17 138.95,535.01 140.06,549.97 139.76,564.96 138.19,579.87 134.97,597.58"   /><polyline id="SvgjsPolyline2442" points="154.55,1.92 144.85,58.09 111.02,247.08 100.11,303.03 84.53,373.32 81.63,391.08 80.06,406 79.46,417.98 79.49,429.98 80.21,441.96 81.92,456.86 83.93,468.69 87.2,483.32 100.1,529.55 104.79,550.02 106.68,561.87 107.84,573.81 108.23,585.8 107.88,597.79"   /><polyline id="SvgjsPolyline2443" points="70.98,1.35 59.91,44.97 49.47,88.74 39.66,132.66 29.29,182.59 20.82,226.79 13.04,271.11 6.47,312.59 0.27,357.16"   /><polyline id="SvgjsPolyline2444" points="181.33,1.8 180.97,40.8 181.39,70.8 182.52,97.77 184.97,127.67 188.16,151.45 192.14,172.07 197.51,192.37 203.45,209.35 206.94,217.65 212.19,228.43 216.6,236.28 221.41,243.89 226.63,251.22 232.26,258.23 238.3,264.91 244.72,271.21 251.53,277.09 258.7,282.53 266.22,287.47 274.1,291.82 282.34,295.43 288.03,297.31 293.89,298.6 299.86,299.09 308.83,298.44 314.71,297.27 320.46,295.53 328.72,291.98 333.95,289.05 341.38,283.98 348.32,278.25 354.84,272.04 360.91,265.4 366.54,258.38 371.76,251.06 376.61,243.48 381.12,235.69 386.64,225.03 391.66,214.13 396.23,203.04 402.06,186.01 407.32,165.69 411.22,145.06 414.35,121.26 416.39,97.35 417.71,70.39 418.31,37.39 418.1,1.39"   /><polyline id="SvgjsPolyline2445" points="175.44,1.19 172.72,55.12 171.56,94.1 171.51,130.1 172.55,160.08 174.71,186.99 177.92,210.77 180.08,222.57 182.65,234.29 185.68,245.9 189.2,257.38 193.23,268.68 197.79,279.77 202.9,290.63 208.56,301.21 214.76,311.49 221.49,321.41 228.78,330.95 234.61,337.8 242.93,346.45 249.62,352.47 256.68,358.05 266.54,364.87 276.84,371.03 284.85,375.14 293.2,378.47 299.07,379.64 302.06,379.51 304.92,378.63 307.47,377.06 311.69,372.82 317.02,365.57 326.62,350.35 335.96,331.54 341.75,321.04 361.22,290.76 368.99,277.92 378.91,259.42 387.7,240.35 395.4,220.82 402.14,200.93 407.79,180.71 411.48,163.09 414.67,142.34 416.9,121.46 418.53,97.52 419.53,67.53 419.71,37.54 419.19,1.54"   /><polyline id="SvgjsPolyline2446" points="172.41,0.23 168.48,54.08 166.31,90.02 164.84,125.99 164.42,155.98 164.94,182.98 166.56,209.93 169.09,233.79 172.76,257.51 177.06,278.06 183.29,301.23 190.88,324 199.78,346.28 206.17,359.85 212.33,370.14 219.22,379.96 239.37,406.1 245.9,416.16 249.82,424.25 251.68,429.95 252.79,435.84 253.1,441.83 252.19,450.77 250.04,459.51 245.98,470.8 241.15,481.78 230.38,503.22 199.11,561.35 179.92,598.7"   /><polyline id="SvgjsPolyline2447" points="166.52,1.97 154.72,112.34 151.29,151.19 148.85,187.1 147.4,220.07 146.77,250.06 146.79,364.06 147.37,373.04 148.5,381.97 150.18,390.81 152.39,399.53 155.06,408.12 159.23,419.38 174.82,455.12 181.15,471.96 183.61,480.62 185.44,489.43 186.54,498.36 186.91,507.35 186.56,516.34 185.57,525.28 184.04,534.15 181.31,545.84 177.99,557.36 174.23,568.76 162.62,599.65"   /><polyline id="SvgjsPolyline2448" points="170.57,2.84 166.31,53.67 163.24,95.55 161.25,131.5 160.32,161.48 160.26,188.48 161.13,215.46 162.85,239.4 165.55,263.25 169.27,286.96 173.95,310.49 180.13,336.77 186.45,359.92 190.78,371.11 197.52,384.5 203.65,394.82 218.13,417.61 225.35,430.75 228.83,439.05 230.62,444.77 231.91,450.63 232.79,459.58 232.45,468.56 231.64,474.51 230.43,480.38 227.14,491.92 223.02,503.19 217.17,517 209.57,533.31 177.76,597.91"   /><polyline id="SvgjsPolyline2449" points="167.98,0.34 161.31,66 156.65,116.79 153.65,158.68 152.03,194.65 151.55,230.64 152.1,260.63 153.39,290.61 157,353.5 157.81,362.46 159.22,371.35 161.1,380.15 163.49,388.83 166.38,397.35 170.88,408.47 187.75,443.63 191.38,451.87 194.59,460.27 197.23,468.87 199.14,477.67 199.97,483.61 200.49,492.59 200.2,501.58 199.18,510.52 196.88,522.3 193.77,533.89 190.08,545.3 184.91,559.38 168.84,598.18"   /><polyline id="SvgjsPolyline2450" points="165.07,1.61 152.17,111.85 148.47,147.66 145.79,177.54 142.18,231.42 138.63,315.35 136.03,357.26 135.74,366.26 136.14,378.25 137.05,387.2 138.9,399.06 141.58,410.75 144.09,419.39 148,430.74 162.52,466.93 167.5,481.08 171.28,495.58 172.78,504.46 173.42,510.42 173.82,519.41 173.58,528.41 172.75,537.37 170.86,549.21 168.24,560.92 165.08,572.5 156.67,598.15"   /><polyline id="SvgjsPolyline2451" points="162.01,1.66 147.41,108.67 140.91,159.25 135.77,203.96 125.85,299.44 122.15,329.21 117.34,361.86 115.83,379.79 115.75,391.79 116.48,403.76 118.03,415.66 120.36,427.43 123.39,439.04 126.03,447.65 138.95,484.44 143.54,498.72 147.21,513.26 149.23,525.09 150.11,534.04 150.43,543.03 150.21,552.03 149.49,561 146.77,578.79 141.99,599.23"   /><polyline id="SvgjsPolyline2452" points="58.61,1.23 50.41,36.28 42.01,74.37 32.92,118.44 25.54,156.73 18.6,195.11 11.65,236.53 5.28,278.05 0.34,313.71"   /><polyline id="SvgjsPolyline2453" points="193.33,2.03 195.44,25.93 198.01,46.77 200.89,64.54 204.54,82.17 208.3,96.68 213.87,113.8 219.53,127.68 226.29,141.07 234.29,153.75 241.66,163.21 249.95,171.88 259.19,179.53 264.16,182.89 269.36,185.88 274.77,188.47 280.38,190.6 286.15,192.22 292.05,193.3 301.03,193.82 309.98,193 315.84,191.73 321.56,189.93 327.11,187.63 332.45,184.9 337.57,181.78 342.46,178.3 351.53,170.46 359.67,161.65 366.88,152.07 374.7,139.27 380.08,128.54 385.81,114.69 390.58,100.47 395.24,83.09 398.39,68.42 401.86,47.71 404.46,26.87 406.6,2.97"   /><polyline id="SvgjsPolyline2454" points="187.22,1.5 188.39,31.47 190.3,58.41 192.53,79.29 196.07,103.02 200.23,123.6 204.87,140.99 210.7,158.02 216.64,171.79 223.68,185.02 231.94,197.54 237.52,204.6 241.5,209.09 245.69,213.38 252.39,219.39 259.57,224.82 264.61,228.05 269.87,230.95 275.32,233.45 280.96,235.5 286.75,237.06 292.66,238.07 298.64,238.51 304.64,238.34 310.59,237.59 316.44,236.27 322.15,234.43 327.69,232.13 333.03,229.41 338.18,226.32 345.5,221.09 352.34,215.25 356.63,211.05 362.67,204.38 366.42,199.7 374.92,187.35 379.41,179.55 383.49,171.53 389.4,157.75 395.21,140.72 399.83,123.32 403.98,102.74 407.07,81.97 409.57,58.1 411.56,28.17 412.54,1.19"   /><polyline id="SvgjsPolyline2455" points="183.99,0.09 184.44,36.09 185.52,63.07 187.49,89.99 190.27,113.83 193.76,134.54 198.5,154.99 203.81,172.19 210.32,188.96 214.09,197.14 218.26,205.11 226.15,217.86 231.47,225.12 237.24,232.02 243.45,238.53 247.84,242.62 254.8,248.32 259.68,251.81 267.37,256.49 272.73,259.17 281.12,262.42 286.91,263.98 292.83,264.98 298.81,265.4 304.8,265.22 310.75,264.45 316.6,263.1 322.3,261.24 327.83,258.91 335.77,254.69 340.83,251.47 348.05,246.1 352.62,242.21 359.1,235.97 365.13,229.29 370.72,222.24 375.86,214.85 380.57,207.18 384.85,199.27 388.72,191.14 395.34,174.41 400.63,157.21 405.39,136.76 408.91,116.06 412.05,89.25 413.82,65.31 415.07,35.34 415.54,2.34"   /><polyline id="SvgjsPolyline2456" points="178.21,1.95 176.9,43.93 176.54,79.93 177.22,112.92 178.82,139.87 181.74,166.71 185.22,187.41 187.79,199.13 190.82,210.75 193.36,219.38 197.24,230.73 201.71,241.87 205.48,250.04 209.62,258.03 215.73,268.36 222.49,278.27 227.99,285.39 233.84,292.23 242.18,300.85 248.83,306.92 255.83,312.57 263.21,317.72 271.01,322.21 279.24,325.82 287.79,328.62 293.65,329.91 299.62,330.46 305.59,329.94 311.3,328.16 316.6,325.34 321.52,321.92 330.83,314.34 339.68,306.25 346.01,299.85 353.9,290.81 361.25,281.33 366.4,273.95 371.24,266.36 377.23,255.97 382.75,245.31 387.82,234.43 392.48,223.38 396.77,212.17 403.45,192.26 408.66,171.93 412.51,151.29 415.58,127.49 417.74,100.57 418.97,70.6 419.31,37.6 418.88,1.61"   /><polyline id="SvgjsPolyline2457" points="182.14,2.81 182.11,38.81 182.84,68.8 184.35,95.76 186.63,119.65 190.09,143.39 194.38,163.95 199.23,181.28 205.39,198.19 209.02,206.42 213.05,214.47 217.49,222.29 222.36,229.86 227.67,237.12 233.42,244.05 239.6,250.58 246.21,256.69 253.2,262.37 260.49,267.63 268.2,272.28 273.56,274.97 281.94,278.24 287.73,279.79 293.66,280.74 299.64,281.08 305.63,280.81 311.57,279.95 317.4,278.53 325.86,275.48 331.27,272.9 339.03,268.34 343.95,264.9 350.96,259.27 357.51,253.1 363.62,246.49 369.28,239.49 374.53,232.19 380.93,222.04 385.32,214.18 389.34,206.13 392.96,197.89 399.13,180.99 404.73,160.75 408.91,140.18 411.96,119.4 414.36,95.52 416.01,68.58 416.93,35.59 417.01,2.59"   /><polyline id="SvgjsPolyline2458" points="179.34,0.48 178.32,45.47 178.36,78.47 179.3,108.45 181.2,135.38 184.05,159.21 185.99,171.05 188.33,182.82 193.58,203.15 199.44,220.16 202.89,228.47 206.72,236.62 212.44,247.16 217.2,254.8 222.36,262.18 227.91,269.26 235.91,278.2 242.34,284.49 251.42,292.34 258.53,297.85 265.99,302.88 273.82,307.31 279.28,309.8 284.94,311.79 293.73,313.69 299.7,314.21 305.67,313.69 311.48,312.22 319.88,308.99 327.88,304.88 335.45,300.01 340.21,296.37 346.93,290.38 353.21,283.94 359.12,277.15 364.64,270.05 369.79,262.67 376.12,252.47 381.89,241.95 387.17,231.18 391.99,220.19 396.41,209.03 402.3,192.03 407.69,171.73 411.68,151.12 414.89,127.34 416.98,103.43 418.42,73.47 418.94,37.47 418.59,1.48"   /><polyline id="SvgjsPolyline2459" points="176.55,1.09 174.58,46.05 173.6,88.04 173.83,121.03 175.18,151 177.37,174.9 180.86,198.64 183.2,210.41 186,222.08 188.42,230.75 192.13,242.16 196.41,253.37 201.3,264.32 205.37,272.35 211.35,282.75 219.62,295.26 224.97,302.5 232.61,311.75 238.73,318.35 247.43,326.61 254.4,332.31 261.77,337.47 269.54,342 277.65,345.9 286.07,349.05 294.83,351.08 300.81,351.44 306.75,350.66 309.61,349.76 314.9,346.95 319.49,343.11 325.35,336.29 359.14,290.38 370.41,272.67 380.38,254.2 385.51,243.35 390.26,232.33 398.7,209.86 405.01,189.84 409.3,172.36 413.06,151.7 416.05,127.89 418.14,100.97 419.22,74 419.58,38 419.1,2"   /><polyline id="SvgjsPolyline2460" points="173.61,2.43 170.73,47.33 168.64,89.28 167.74,122.27 167.86,155.27 169.03,182.24 171.49,209.12 175.05,232.85 179.42,253.39 185.1,273.6 192.19,293.37 195.66,301.67 201.95,315.29 211.86,333.79 221.49,349 224.97,353.88 230.61,360.9 240.81,371.89 262.26,392.86 266.33,397.27 270.08,401.95 273.26,407.03 274.5,409.76 275.96,415.56 276.1,418.56 275.34,424.5 273.62,430.24 270.09,438.52 266.03,446.55 257.27,462.27 227.02,514.09 209.21,545.37 194.83,571.7 181.07,598.36"   /><polyline id="SvgjsPolyline2461" points="174.2,2.58 171.35,50.5 169.48,95.46 168.98,128.45 169.53,158.45 171.16,185.4 172.32,197.34 174.22,212.22 178.45,235.84 183.54,256.21 187.1,267.67 191.14,278.96 194.51,287.31 199.45,298.25 204.89,308.94 209.31,316.78 215.64,326.97 220.73,334.39 226.13,341.6 231.85,348.54 242.33,359.26 253.68,369.07 277.32,387.54 284.13,393.41 288.09,397.9 289.53,400.53 290.2,403.44 289.95,406.42 289.08,409.29 285.14,417.37 240.32,491.94 220.6,525.59 198.63,564.86 180.62,599.45"   /><polyline id="SvgjsPolyline2462" points="175.51,2.27 173.5,41.22 172.09,80.19 171.68,107.19 172.05,137.19 173.2,161.16 175.36,185.06 178.31,205.85 181.79,223.5 186.31,240.93 191.98,258.01 198.9,274.62 207.14,290.62 216.68,305.87 221.93,313.18 227.51,320.24 233.42,327.03 239.68,333.49 250.95,343.38 255.78,346.94 263.33,351.84 273.91,357.49 282.23,360.91 287.93,362.78 293.75,364.22 299.71,364.82 305.66,364.19 308.53,363.29 311.24,362.02 313.79,360.44 318.38,356.58 322.28,352.03 325.62,347.05 338.9,323.54 363.66,285.98 371.33,273.09 377.03,262.53 386.07,243.58 394,224.14 401.85,201.46 406.83,184.17"   /><polyline id="SvgjsPolyline2463" points="174.49,2.48 171.89,47.41 170.66,74.38 169.78,104.36 169.6,128.36 170.05,152.36 171.11,173.33 172.97,194.25 175.32,212.09 178.51,229.8 182.66,247.32 187.86,264.54 193.07,278.61 200.4,295.04 207.42,308.3 216.92,323.58 225.76,335.7 233.47,344.89 239.71,351.38 248.63,359.39 258.06,366.81 272.81,377.12 295.57,391.65 301.12,391.58 304.56,386.78 325.06,353.6 340.03,324.21 346.23,313.93 365.66,283.63 373.12,270.62 378.67,259.98"   /><polyline id="SvgjsPolyline2464" points="369.29,599.04 376.73,589.62 382.01,582.33 391.85,567.27 402.18,548.99 410.02,532.79 416.81,516.12 422.36,499 425.81,484.41 427.95,469.57 428.54,457.59 427.99,445.61 426.22,433.74 423.24,422.12 419.15,410.84 414.17,399.93 408.55,389.33 393.66,363.29 387.12,349.8 384,341.36 381.73,332.65 380.46,323.75 380.19,317.75 380.35,311.76 380.91,305.79 383.52,291.02 388.61,270.65 402.35,221.53 408.97,195.36 413.37,174.83 416.95,151.1 418.53,136.18 419.7,121.23 420.53,106.25 421.21,85.26 421.37,46.27 420.4,1.28"   /><polyline id="SvgjsPolyline2465" points="172.76,2.61 169.06,56.48 167.1,92.43 165.97,125.41 165.76,155.41 166.52,182.39 168.45,209.32 171.4,233.14 175.71,256.74 178.44,268.43 181.56,280.02 187.99,300 195.66,319.55 204.54,338.58 211.66,351.77 214.85,356.86 220.05,364.2 229.51,375.83 249.32,398.36 256.53,407.95 259.59,413.11 262,418.6 263.53,424.39 264.03,430.36 263.54,436.34 261.44,445.08 258.32,453.52 253.33,464.43 243.59,483.03 202.66,556.38 189.97,580.22 180.45,598.93"   /><polyline id="SvgjsPolyline2466" points="171.39,1.54 167.35,52.38 164.51,94.28 162.88,127.24 162.09,160.23 162.31,187.23 163.56,214.2 165.7,238.1 168.95,261.88 172.76,282.53 178.22,305.89 185.68,331.84 193.42,354.56 198.39,365.47 204.31,375.91 210.88,385.95 226.37,408.06 231.23,415.64 235.69,423.45 239.35,431.66 241.18,437.38 242.39,443.25 242.94,449.22 242.57,458.21 241.02,467.07 237.65,478.58 232.19,492.54 220.67,516.96 190.42,575.62 178.37,599.78"   /><polyline id="SvgjsPolyline2467" points="46.24,1.35 33.72,63.09 21.38,130.98 10.78,196.12 5.5,231.73 0.21,270.37"   /><polyline id="SvgjsPolyline2468" points="205.3,1.15 208.29,15.85 211.89,30.41 215.31,41.92 219.26,53.24 223.85,64.33 229.16,75.09 235.28,85.41 240.46,92.76 246.18,99.71 254.71,108.14 261.78,113.7 269.42,118.44 277.59,122.22 286.18,124.87 295.06,126.27 301.06,126.46 307.04,126.06 315.87,124.35 324.37,121.43 332.42,117.41 339.93,112.46 346.87,106.74 353.22,100.37 359,93.47 364.23,86.15 370.42,75.87 375.78,65.14 380.42,54.07 384.42,42.76 388.66,28.37 391.52,16.72 394.54,2.03"   /><polyline id="SvgjsPolyline2469" points="198.86,0.68 201.41,18.5 204.66,36.2 208.02,50.82 212.1,65.25 216.97,79.44 222.69,93.3 228.07,104.02 234.25,114.3 241.32,124 249.34,132.91 258.35,140.82 265.77,145.91 273.72,150.12 282.13,153.3 290.9,155.29 299.87,155.98 308.84,155.33 317.61,153.37 326.04,150.23 331.41,147.55 336.54,144.45 343.79,139.12 352.58,130.96 358.52,124.2 365.6,114.52 371.8,104.25 377.2,93.54 382.94,79.68 387.72,65.47 391.69,51 394.97,36.37 398.17,18.66 400.69,0.84"   /><polyline id="SvgjsPolyline2470" points="195.51,1.72 197.85,22.59 200.49,40.39 203.86,58.07 207.35,72.66 211.59,87.04 216.73,101.13 222.91,114.79 228.73,125.29 235.4,135.25 244.95,146.82 253.52,155.21 260.59,160.77 265.6,164.06 270.85,166.97 279.11,170.52 284.85,172.26 290.73,173.47 299.69,174.18 308.66,173.56 317.44,171.63 325.88,168.52 331.26,165.87 336.42,162.8 341.34,159.37 346.02,155.61 354.64,147.27 362.3,138.05 369.05,128.13 374.95,117.69 381.27,104.08 386.54,90.05 390.93,75.7 395.21,58.22 398.6,40.55 401.28,22.75 403.68,1.89"   /><polyline id="SvgjsPolyline2471" points="189.83,1.12 191.24,25.08 193.39,48.98 196.05,69.81 199.67,90.49 203.71,108.03 208.85,125.28 214.13,139.31 220.47,152.9 227.97,165.89 236.54,178.19 242.34,185.07 246.48,189.41 255.45,197.38 265.32,204.18 270.59,207.06 276.05,209.53 281.71,211.53 287.52,213.03 293.44,213.97 299.43,214.32 308.4,213.74 314.29,212.62 320.06,210.97 325.65,208.81 331.06,206.21 336.26,203.22 341.24,199.87 350.52,192.28 354.82,188.1 360.85,181.41 364.59,176.72 369.79,169.38 377.44,156.49 383.9,142.96 390.28,126.13 395.39,108.87 399.44,91.34 403.08,70.66 405.79,49.83 408.01,25.94 409.5,1.98"   /><polyline id="SvgjsPolyline2472" points="185.1,2.53 185.84,35.52 187.03,59.49 189.27,86.39 191.89,107.23 195.52,127.91 200.43,148.32 205.9,165.47 209.14,173.86 212.76,182.1 216.79,190.15 221.24,197.97 229.66,210.38 235.33,217.36 239.37,221.79 245.83,228.06 250.4,231.95 257.65,237.28 262.74,240.45 268.03,243.28 276.24,246.97 281.9,248.94 287.72,250.41 293.64,251.34 299.63,251.67 305.62,251.41 311.56,250.56 317.39,249.15 323.07,247.23 328.58,244.86 336.49,240.57 341.51,237.28 348.66,231.82 353.16,227.86 359.54,221.51 369.12,209.98 377.44,197.51 381.85,189.66 385.84,181.6 392.68,164.95 398.15,147.81 402.47,130.34 406.33,109.7 409.17,88.89 411.65,62.01 413.27,32.05 414.04,2.06"   /><polyline id="SvgjsPolyline2473" points="187.87,1.32 189.04,28.3 191.03,55.22 193.75,79.07 197.08,99.8 200.85,117.4 205.66,134.74 211.73,151.68 217.93,165.33 222.2,173.25 226.93,180.91 232.12,188.26 235.85,192.96 241.87,199.65 246.15,203.85 255.41,211.48 260.37,214.85 265.55,217.88 270.93,220.52 276.51,222.71 282.27,224.42 288.15,225.58 300.11,226.45 306.1,226.14 312.03,225.25 317.85,223.79 323.52,221.83 329.01,219.41 334.29,216.58 344.23,209.87 348.88,206.07 355.42,199.9 359.51,195.51 365.24,188.57 373.72,176.21 380.96,163.08 387.06,149.38 393.07,132.41 397.86,115.07 401.64,97.47 405.01,76.74 407.8,52.91 409.7,28.98 411.05,2.02"   /><polyline id="SvgjsPolyline2474" points="336.39,598.11 340.88,594.12 347.22,587.74 353.13,580.96 358.62,573.83 363.7,566.4 368.35,558.69 375.11,545.31 380.48,531.31 382.18,525.56 384.18,516.78 385.41,507.87 385.75,501.88 385.67,495.88 385.14,489.91 384.12,484 382.62,478.19 380.63,472.53 378.18,467.06 375.29,461.8 372.02,456.77 366.48,449.68 362.44,445.25 358.17,441.04 351.4,435.1 344.29,429.59 336.91,424.44 329.29,419.65 321.44,415.25 316.06,412.59 310.51,410.33 304.69,408.93 298.7,408.87 295.78,409.55 293.15,410.97 290.85,412.89 285.13,419.83 270.45,442.48 246.99,480.88 224.08,519.61 206.29,550.91"   /><polyline id="SvgjsPolyline2475" points="317.84,598.81 322.79,595.43 327.47,591.68 336.02,583.27 339.9,578.69 345.22,571.43 351.33,561.12 356.22,550.17 358.13,544.48 359.63,538.67 360.67,532.76 361.18,526.79 360.82,517.8 358.93,509.02 355.42,500.75 350.41,493.29 346.35,488.88 341.82,484.94 334.34,479.96 328.98,477.25 323.41,475.04 317.65,473.35 311.77,472.19 302.8,471.54 296.81,471.88 290.9,472.86 285.12,474.48 276.85,478 271.64,480.98 264.31,486.19 257.5,492.08 251.14,498.44 243.11,507.36 235.59,516.7 228.47,526.36 220.01,538.75 211.92,551.38 202.62,566.79 193.73,582.44 185.21,598.3"   /><polyline id="SvgjsPolyline2476" points="338.41,598.63 342.86,594.61 349.18,588.2 355.08,581.4 360.57,574.28 365.67,566.86 370.37,559.18 374.65,551.27 378.5,543.14 381.87,534.79 384.71,526.26 386.96,517.54 388.08,511.65 389.13,502.71 389.36,496.72 389.17,490.72 388.54,484.76 387.45,478.86 385.89,473.07 382.69,464.66 380.03,459.29 376.98,454.12 369.9,444.44 361.81,435.58 350.71,425.49 341.33,418.01 322,403.79 314.93,398.23 310.55,394.13 308.6,391.85 307.23,389.2 307.03,386.23 307.83,383.35 310.48,377.97 325.88,352.23 336.54,330.73 340.84,322.82 364.94,284.83 372.45,271.85 378.04,261.23 385.72,244.95 392.6,228.32 398.73,211.4 404.2,194.25 408.7,176.82 412.18,159.17 415.17,138.38 417.24,117.49 418.86,90.54 419.6,63.55 419.69,33.55 419.17,0.55"   /><polyline id="SvgjsPolyline2477" points="343.36,599.38 353.94,588.76 359.77,581.9 365.23,574.75 370.34,567.34 375.08,559.69 379.46,551.83 383.45,543.76 387.04,535.51 390.18,527.08 394.28,512.66 395.95,503.81 396.67,497.86 397.05,491.87 396.92,482.88 395.89,473.94 393.91,465.17 390.99,456.66 385.76,445.87 379.27,435.78 371.83,426.37 363.77,417.48 342.75,396.07 338.81,391.56 335.18,386.78 332.12,381.62 329.97,376.03 329.32,373.1 328.67,367.14 328.95,361.16 330.24,355.3 332.15,349.62 337.44,335.58 341.07,327.35 348.13,314.12 368.27,280.73 376.81,264.88 382.06,254.09 388.12,240.37 393.66,226.43 398.7,212.3"   /><polyline id="SvgjsPolyline2478" points="384.33,599.45 397.53,579.41 409.53,558.63 420.38,537.22 428.85,518.01 436.18,498.33 441.33,481.09 445.16,463.51 446.48,454.61 447.35,445.65 447.71,433.66 447.1,421.68 445.46,409.79 442.81,398.09 439.25,386.64 434.95,375.43 417.52,337.23 412.08,323.25 409.49,314.63 408.13,308.79 406.7,299.91 405.91,290.94 405.59,281.95 405.68,272.95 407.22,252.01 410.33,228.22 419.53,168.93 421.43,151.03 422.89,130.08 423.89,100.1 423.98,73.1 423.29,37.11 422,1.13"   /><polyline id="SvgjsPolyline2479" points="354.93,599.68 361.06,593.08 366.85,586.2 375.8,574.17 385.47,558.99 393.95,543.12 401.16,526.63 406.04,512.45 409.8,497.93 412.28,483.14 412.96,474.17 413.04,468.17 412.21,456.21 410.01,444.42 406.46,432.96 401.7,421.95 395.96,411.42 387.85,398.8 372.47,376.61 367.74,368.96 364.89,363.68 361.33,355.42 359.58,349.68 358.12,340.81 357.96,334.81 358.4,328.83 359.36,322.91 362.43,311.32 367.67,297.27 386.4,253.07 394.77,230.58 400.41,213.49 405.52,196.23 409.23,181.7 411.68,169.95 414.17,155.16 416.45,137.31 418.09,119.38 419.21,101.42 419.99,80.43 420.33,56.44 419.66,2.44"   /><polyline id="SvgjsPolyline2480" points="377.49,599.48 389.56,582.3 400.53,564.4 410.46,545.9 419.31,526.86 426.88,507.28 432.13,490.07 434.23,481.31 435.93,472.48 437.7,457.59 438.04,445.6 437.3,433.62 435.42,421.77 431.81,407.22 427.87,395.89 423.15,384.86 405.58,350.05 399.54,336.32 396.61,327.81 394.43,319.08 393.45,313.17 392.73,304.2 393.26,289.22 395.55,271.37 399.49,250.74 413.97,183.28 416.9,165.52 419.35,144.67 421.29,117.74 422.34,81.76 422.2,45.76 421,0.77"   /><polyline id="SvgjsPolyline2481" points="364.14,597.89 375.43,583.87 383.99,571.56 393.32,556.17 401.62,540.2 408.8,523.7 413.8,509.56 416.29,500.92 418.36,492.16 420.68,477.34 421.3,468.37 421.35,462.37 420.5,450.4 418.36,438.6 414.93,427.11 410.37,416.01 404.91,405.33 398.82,394.99 382.86,369.6 375.74,356.4 372.32,348.08 369.88,339.42 368.9,333.5 368.46,324.52 368.82,318.53 369.63,312.59 372.33,300.9 376.91,286.62 392.09,244.26 400.37,218.56 404.54,204.15 409.09,186.74 411.63,175.01 413.76,163.2 415.9,148.36 417.82,130.46 419.17,112.51 420.04,94.53 420.63,70.54 420.72,49.54 419.91,1.55"   /><polyline id="SvgjsPolyline2482" points="33.88,1.79 25.1,52.03 16.55,105.35 7.42,167.68 0.3,221.21"   /><polyline id="SvgjsPolyline2483" points="217.64,1.85 223.9,18.72 227.59,26.92 231.72,34.92 236.33,42.65 241.47,50.04 247.16,57 251.29,61.36 257.98,67.37 262.78,70.96 267.85,74.18 273.15,76.97 281.52,80.26 287.32,81.8 293.24,82.76 299.23,83.14 305.22,82.92 311.16,82.1 317,80.71 325.44,77.62 330.81,74.94 335.94,71.83 340.81,68.33 347.61,62.44 351.8,58.15 357.6,51.27 362.82,43.94 367.52,36.27 371.73,28.31 375.5,20.14 378.87,11.8 382.81,0.46"   /><polyline id="SvgjsPolyline2484" points="210.43,1.27 213.57,12.85 217.23,24.28 221.49,35.5 225.15,43.72 229.25,51.73 233.83,59.47 240.64,69.35 246.31,76.34 252.56,82.81 259.4,88.65 266.84,93.71 272.11,96.58 280.42,100 286.19,101.64 295.08,103.04 301.07,103.23 310.02,102.4 315.88,101.12 321.59,99.29 329.8,95.6 334.98,92.58 342.28,87.33 348.98,81.33 355.09,74.72 360.62,67.62 365.61,60.13 370.09,52.33 374.11,44.28 378.83,33.25 381.93,24.8 385.57,13.37 388.7,1.78"   /><polyline id="SvgjsPolyline2485" points="201.19,0.89 204.18,18.64 207.28,33.32 210.23,44.95 214.62,59.29 218.79,70.54 223.64,81.51 229.26,92.11 235.75,102.2 243.19,111.61 249.44,118.08 256.28,123.92 266.25,130.59 274.22,134.77 282.65,137.88 291.44,139.8 300.41,140.41 309.37,139.68 318.13,137.65 326.53,134.43 334.45,130.17 341.83,125.02 348.64,119.14 354.87,112.66 362.32,103.25 368.84,93.18 374.5,82.61 379.42,71.66 383.66,60.44 388.16,46.13 391.2,34.52 394.98,16.93 397.53,2.14"   /><polyline id="SvgjsPolyline2486" points="326.36,598.49 331.08,594.79 337.71,588.7 341.85,584.36 347.63,577.46 351.2,572.64 356.14,565.12 360.55,557.28 363.18,551.88 366.61,543.57 368.52,537.88 371.31,526.22 372.11,520.27 372.54,511.28 372.38,505.29 371.69,499.33 370.45,493.46 368.64,487.74 366.28,482.23 363.39,476.98 360.01,472.02 356.22,467.37 352.06,463.05 347.58,459.06 342.84,455.39 335.31,450.46 327.35,446.26 321.85,443.88 316.19,441.9 310.38,440.38 304.46,439.43 298.47,439.23 292.52,439.95 289.62,440.7 284.06,442.96 278.95,446.09 274.28,449.85 269.99,454.04 264.06,460.81 258.55,467.92 251.61,477.71 243.32,490.21 221.34,526 200.54,562.49 189.19,583.63 180.99,599.65"   /><polyline id="SvgjsPolyline2487" points="331.08,599.23 337.95,593.41 342.25,589.23 348.33,582.59 353.94,575.57 359.11,568.2 363.83,560.54 370.61,547.17 373.98,538.82 375.89,533.13 377.5,527.35 379.3,518.54 380.24,509.59 380.33,503.59 379.95,497.61 379.06,491.68 377.64,485.85 375.7,480.17 373.24,474.7 370.32,469.46 366.96,464.49 363.23,459.8 359.17,455.38 352.57,449.26 345.48,443.73 337.98,438.75 327.48,432.94 322.07,430.35 316.52,428.08 310.82,426.23 304.95,424.97 298.97,424.6 293.06,425.53 290.25,426.57 287.59,427.95 282.76,431.5 278.5,435.72 274.62,440.3 265.79,452.42 246.4,482.74 221.79,523.96 199.7,563.16 181.61,597.71"   /><polyline id="SvgjsPolyline2488" points="293.99,585.69 295.86,587.88 298.82,587.8 301.53,586.54 303.83,584.62 305.61,582.21 306.53,579.37 304.99,576.9 302.05,576.53 299.19,577.39 296.62,578.93 294.38,580.92 292.5,583.26 291.08,585.89 290.33,588.79 290.78,591.74 292.83,593.88 295.67,594.78 298.66,594.76 301.59,594.12 304.4,593.07 309.61,590.11 314.41,586.52 318.84,582.47 324.55,575.53 329.08,567.77 332.25,559.35 333.43,553.48 333.67,547.49 332.8,541.56 330.68,535.96 327.32,531.01 322.9,526.97 317.74,523.93 312.11,521.86 306.24,520.68 300.25,520.29 294.26,520.6 285.42,522.2 279.68,523.94 271.37,527.4 266.07,530.2 258.46,535.01 251.28,540.43 244.49,546.33 238.06,552.63 229.99,561.51 222.43,570.82 217.06,578.04 210.25,587.93 203.83,598.06"   /><polyline id="SvgjsPolyline2489" points="302.67,599.75 305.53,598.85 310.98,596.36 318.48,591.4 325.18,585.4 329.21,580.96 332.89,576.22 336.21,571.23 339.14,565.99 342.72,557.74 345.15,549.08 346.46,537.17 346.17,531.18 345.72,528.21 345.04,525.29 343,519.66 340.05,514.44 336.29,509.77 334.14,507.68 331.84,505.75 326.86,502.42 318.68,498.69 309.98,496.43 301.03,495.58 295.04,495.78 289.09,496.57 283.25,497.92 274.77,500.93 269.36,503.52 261.65,508.15 254.41,513.5 247.62,519.4 241.23,525.73 233.22,534.66 225.69,544.01 218.57,553.67 211.78,563.56 203.7,576.2 190.15,599.55"   /><polyline id="SvgjsPolyline2490" points="322.82,598.57 327.63,594.99 332.18,591.08 336.49,586.91 342.5,580.21 347.97,573.06 351.31,568.08 357.24,557.65 360.96,549.46 363.06,543.84 366.18,532.27 367.13,526.34 367.59,520.36 367.52,514.36 366.86,508.4 364.69,499.68 362.43,494.12 359.57,488.85 354.24,481.61 350.1,477.27 345.58,473.33 338.27,468.09 333.15,464.96 327.81,462.23 322.27,459.92 316.57,458.05 310.74,456.66 304.8,455.82 298.81,455.62 292.83,456.13 286.98,457.42 281.35,459.49 276.03,462.25 271.04,465.59 264.17,471.39 257.88,477.82 252.02,484.66 244.7,494.16 236.08,506.44 218.34,534.26 198.78,567.99 181.92,599.8"   /><polyline id="SvgjsPolyline2491" points="311.79,599.62 319.47,594.96 324.21,591.28 328.65,587.24 332.8,582.91 336.65,578.31 343.47,568.44 348.99,557.8 351.2,552.22 352.99,546.5 354.3,540.64 355.06,534.69 354.99,525.7 354.02,519.79 353.24,516.89 351.06,511.31 349.67,508.65 346.34,503.67 344.41,501.37 337.78,495.3 330.16,490.53 321.86,487.07 316.12,485.34 310.27,484.03 301.32,483.17 295.32,483.34 289.37,484.11 280.68,486.39 275.1,488.61 269.75,491.32 262.18,496.18 255.13,501.76 248.54,507.9 242.35,514.43 234.6,523.58 227.29,533.1 218.65,545.36 210.44,557.91 202.59,570.7 195.07,583.67 186.44,599.47"   /><polyline id="SvgjsPolyline2492" points="340.09,599.41 344.53,595.37 350.83,588.95 360.45,577.45 369,565.13 376.49,552.14 382.84,538.55 387.88,524.43 390.17,515.73 391.34,509.85 392.7,497.93 392.84,491.93 392.27,482.96 391.35,477.03 389.98,471.19 388.17,465.47 385.93,459.9 383.29,454.52 380.29,449.32 373.37,439.53 363.42,428.31 352.56,417.97 332.31,400.11 326.02,393.68 320.75,386.4 319.33,383.76 318.3,380.94 317.78,377.99 317.78,374.99 318.23,372.03 319.02,369.14 321.2,363.55 327.97,350.17 335.57,333.85 339.64,325.83 344.1,318.01 352.12,305.34"   /><polyline id="SvgjsPolyline2493" points="348.94,599.99 359.28,589.13 368.64,577.42 377.09,565.03 386.04,549.42 393.62,533.1 398.75,519 402.55,504.5 404.46,492.66 405.1,483.68 405.1,477.68 404.01,465.74 401.37,454.04 397.25,442.78 391.97,432.01 384.08,419.26 376.95,409.61 358.11,386.26 352.86,378.96 349.71,373.85 347,368.5 344.91,362.88 343.61,357.03 343.18,351.05 343.57,345.07 344.65,339.17 346.95,330.47 349.94,321.98 356.14,308.33 376.87,268.39 381.96,257.52 387.89,243.75 394.39,226.96 400.22,209.94 405.45,192.71 409.1,178.17 412.55,160.5 415.16,142.69 417.06,124.8 418.58,103.85 419.48,82.87 419.94,58.88 419.94,34.88 419.39,1.88"   /><polyline id="SvgjsPolyline2494" points="399.4,598.71 412.35,575.01 424.51,550.91 435.71,526.34 444.62,504.06 452.22,481.3 456.77,463.89 460.06,446.2 461.13,437.26 461.76,428.28 461.93,419.29 461.36,407.3 459.85,395.4 457.44,383.65 454.21,372.09 450.31,360.75 434.52,321.83 429.61,307.66 427.24,298.98 424.7,287.25 423.19,278.38 421.75,266.47 421.07,257.5 420.65,245.5 420.98,224.51 422.24,203.55 426.2,155.71 427.12,134.73 427.45,116.74 427.33,89.74 426.76,65.75 423.98,2.81"   /><polyline id="SvgjsPolyline2495" points="21.53,2.6 11.56,73.9 0.04,166.19"   /><polyline id="SvgjsPolyline2496" points="229.95,0.83 237.39,13.85 244.4,23.58 252.46,32.46 256.9,36.49 261.62,40.2 266.6,43.53 271.85,46.44 280.14,49.93 285.9,51.6 291.79,52.71 300.77,53.26 309.72,52.48 315.59,51.22 321.31,49.41 329.52,45.74 334.7,42.72 339.62,39.28 344.26,35.49 348.63,31.38 356.56,22.38 363.44,12.55 369.38,2.14"   /><polyline id="SvgjsPolyline2497" points="222.68,2.55 228.99,16.15 233.4,23.99 236.64,29.04 241.96,36.3 245.84,40.87 250,45.2 254.43,49.23 259.16,52.93 266.61,57.97 271.86,60.87 277.34,63.32 283.02,65.25 288.85,66.64 294.79,67.46 300.79,67.68 306.77,67.3 312.69,66.33 318.49,64.8 324.12,62.72 329.54,60.16 334.72,57.14 339.65,53.71 344.3,49.93 352.79,41.46 358.46,34.47 361.91,29.57 369.54,16.66 373.48,8.57 377,0.29"   /><polyline id="SvgjsPolyline2498" points="305.46,581.89 305.94,578.95 303.55,577.33 300.61,577.71 297.95,579.1 295.71,581.08 293.96,583.51 293,586.35 294.11,589.07 296.93,589.93 299.88,589.45 302.62,588.23 305.1,586.55 309.23,582.22 310.83,579.68 312.02,576.93 312.65,574 312.46,571.02 311.15,568.34 308.84,566.45 306.03,565.44 303.05,565.14 300.06,565.36 294.28,566.91 286.08,570.6 281,573.8 276.26,577.48 271.86,581.55 267.77,585.94 264,590.6 258.95,598.05"   /><polyline id="SvgjsPolyline2499" points="296.71,587.96 299.64,587.43 302.23,585.93 304.37,583.83 305.89,581.26 306.01,578.29 303.47,576.88 300.52,577.28 297.83,578.61 295.5,580.49 293.56,582.77 292.14,585.41 291.56,588.34 292.7,591.07 295.36,592.39 298.34,592.47 301.26,591.78 304.02,590.61 309.01,587.3 313.31,583.12 316.86,578.29 319.54,572.93 320.47,570.08 321.07,567.15 321.25,564.15 320.93,561.17 319.11,555.46 317.67,552.84 315.73,550.55 313.39,548.68 310.76,547.24 307.95,546.22 305.02,545.56 299.04,545.19 296.05,545.38 290.14,546.4 284.39,548.09 278.82,550.33 273.46,553.01 268.3,556.08 258.59,563.12 254.02,567.01 247.52,573.23 237.53,584.41 232.02,591.53 226.86,598.9"   /><polyline id="SvgjsPolyline2500" points="292.39,593.92 295.18,594.98 298.17,595.08 301.11,594.55 306.65,592.28 311.66,588.99 316.15,585.01 320.11,580.51 324.98,572.96 327.41,567.47 329,561.69 329.53,555.73 328.67,549.8 327.64,546.99 326.19,544.37 324.36,542 322.19,539.93 317.11,536.77 311.53,534.57 305.69,533.21 299.71,532.82 293.73,533.24 287.83,534.33 282.07,536 276.48,538.16 271.06,540.75 263.29,545.29 255.95,550.48 251.28,554.25 244.6,560.28 238.28,566.68 232.29,573.4 226.61,580.39 221.22,587.59 214.46,597.5"   /><polyline id="SvgjsPolyline2501" points="306.88,579.48 305.98,576.68 303.19,575.72 300.24,576.17 297.5,577.38 295.03,579.07 292.84,581.12 290.94,583.44 289.39,586.01 288.29,588.8 287.82,591.75 288.32,594.7 290.02,597.15 292.59,598.67 295.51,599.32 298.5,599.33 301.46,598.87 307.14,596.95 312.43,594.13 317.33,590.68 321.86,586.74 327.95,580.12 333.18,572.8 336.15,567.59 338.66,562.15 340.65,556.49 342.03,550.65 342.69,544.69 342.47,538.7 341.26,532.83 338.97,527.3 335.62,522.33 331.38,518.1 328.99,516.29 323.8,513.29 318.22,511.1 312.44,509.5 306.54,508.43 297.55,508.09 288.62,509.15 282.79,510.54 277.1,512.45 271.59,514.81 266.26,517.57 258.65,522.36 253.82,525.92 242.53,535.79 236.25,542.23 230.28,548.96 219.12,563.09 207.2,580.37 196.27,598.3"   /><polyline id="SvgjsPolyline2502" points="412.82,599.32 433.75,552.81 443.26,530.78 452.18,508.49 460.19,485.87 466.15,465.74 470.21,448.21 473.03,430.43 473.88,421.48 474.31,412.49 474.29,403.49 473.52,391.51 471.89,379.63 469.43,367.88 467.11,359.19 463.49,347.75 448.9,308.37 442.66,288.32 439.65,276.7 437.09,264.98 435.02,253.16 433.45,241.27 431.95,223.33 431.32,205.34 431.34,187.34 432.35,142.36 431.76,103.36 429.77,58.41 426.21,1.52"   /><polyline id="SvgjsPolyline2503" points="9.66,0.85 0.14,90.34"   /><polyline id="SvgjsPolyline2504" points="243.25,0.3 249.02,7.2 255.41,13.52 262.44,19.14 270.07,23.9 278.25,27.64 283.96,29.49 289.81,30.79 298.76,31.65 307.74,31.16 313.64,30.1 319.42,28.47 327.73,25.04 335.52,20.54 342.72,15.15 349.28,9 355.23,2.24"   /><polyline id="SvgjsPolyline2505" points="305.98,579.55 303.9,577.56 300.94,577.78 298.26,579.11 296.01,581.08 294.29,583.53 293.52,586.42 295.38,588.66 298.34,588.81 301.16,587.83 303.68,586.2 305.86,584.14 307.65,581.74 308.94,579.04 309.42,576.08 308.43,573.28 305.98,571.61 303.03,571.14 300.05,571.47 297.18,572.33 291.86,575.07 287.1,578.71 281.03,585.34 277.75,590.36 274,598.53"   /><polyline id="SvgjsPolyline2506" points="292.38,585.59 292.05,588.56 293.77,590.95 296.63,591.75 299.6,591.43 302.43,590.45 307.53,587.31 309.79,585.34 313.69,580.79 316.68,575.6 317.74,572.8 318.44,569.88 318.67,566.89 318.33,563.92 317.29,561.11 315.55,558.67 313.25,556.76 310.57,555.42 307.69,554.59 304.72,554.19 298.74,554.44 295.78,554.97 290.03,556.66 284.51,558.99 279.23,561.84 274.2,565.11 269.4,568.72 260.51,576.76 250.52,587.95 243.35,597.57"   /><polyline id="SvgjsPolyline2507" points="426.22,598.74 434.31,576.15 461.5,506.26 467.5,489.28 472.98,472.14 478.46,451.87 482.13,434.25 484.58,416.42 485.26,407.45 485.53,398.45 485.22,386.46 484.46,377.49 482.74,365.62 480.28,353.88 475.41,336.55 461.75,296.84 453.77,271.05 447.95,247.77 445.62,236 443.69,224.15 441.51,206.29 440.28,191.34 439.39,173.36 438.3,134.38 436.79,104.41 433.92,62.51 429.06,2.71"   /><polyline id="SvgjsPolyline2508" points="259.67,0.99 264.53,4.5 269.66,7.61 275.04,10.27 280.63,12.43 286.4,14.05 292.31,15.11 301.29,15.59 310.24,14.73 316.09,13.42 321.79,11.56 329.97,7.81 335.12,4.74 340,1.25"   /><polyline id="SvgjsPolyline2509" points="438.54,599.76 442.24,585.22 446.57,570.86 453.29,550.97 474.45,491.63 480.9,471.64 485.84,454.33 490.02,436.83 493.21,419.12 494.94,404.22 495.66,386.24 495.23,374.25 494.05,362.31 492.66,353.42 490.22,341.67 484.61,321.44 469.67,275.82 462.76,252.84 456.85,229.58 453.79,214.9 451.72,203.08 449.58,188.23 447.62,170.34 442.18,101.56 432.05,0.06"   /><polyline id="SvgjsPolyline2510" points="282.13,0.22 290.9,2.22 299.86,2.92 308.83,2.26 317.61,0.3"   /><polyline id="SvgjsPolyline2511" points="450.89,599.62 454.03,581.9 456.8,570.22 459.97,558.65 466.14,538.58 486.88,475.92 492.84,455.79 496.62,441.27 500.44,423.68 503.27,405.91 504.86,387.98 505.06,372.99 504.65,364 503.47,352.06 501.59,340.21 499.08,328.48 493.51,308.23 477.25,256.74 471.28,236.6 464.52,210.47 459.63,186.97 457.12,172.18 455.03,157.33 448.07,97.74 436.16,2.48"   /><polyline id="SvgjsPolyline2512" points="463.18,598.43 464.27,586.48 466.05,574.61 468.39,562.85 471.17,551.17 477.64,528.06 498.09,462.16 502.9,444.82 507.12,427.32 510.55,409.65 512.96,391.82 514.01,376.86 514.06,361.86 513.33,349.88 511.91,337.97 509.85,326.15 507.22,314.44 500.83,291.31 484.17,236.8 478.31,216.64 472.23,193.42 467.01,170 462.24,143.42 440.65,1.05"   /><polyline id="SvgjsPolyline2513" points="475.16,599.13 475.36,587.14 476.32,575.18 478.44,560.33 481.36,545.62 484.14,533.95 488.82,516.56 509.05,447.47 513.5,430.03 517.33,412.44 520.31,394.69 521.99,379.79 522.79,364.81 522.61,349.81 521.73,337.85 520.19,325.95 518.05,314.14 515.4,302.44 506.82,270.58 484.04,192.85 478.74,172.53 474.63,155 470.96,137.38 463.84,99.04 446.37,1.59"   /><polyline id="SvgjsPolyline2514" points="487.15,598.92 486.6,583.94 487.23,568.95 488.92,554.05 491.45,539.27 493.94,527.53 498.25,510.06 519.09,434.89 523.9,414.45 527.29,396.78 529.44,381.93 530.83,367 531.34,352.01 530.89,337.02 530.14,328.05 528.59,316.15 526.48,304.34 523.26,289.69 515.2,257.69 492.1,176.93 483.03,142.09 468.94,77.62 453.23,1.22"   /><polyline id="SvgjsPolyline2515" points="499.12,597.98 497.81,583.04 497.6,571.05 498.34,556.07 500.49,538.2 503.13,523.44 507.01,505.86 511.42,488.41 526.22,433.37 530.45,415.87 534.12,398.25 537.05,380.49 539,362.6 539.77,344.62 539.4,329.63 538.41,317.67 536.35,302.81 532.44,282.18 527.27,258.75 518.39,223.86 498.91,154.55 491.2,125.55 473.69,52.63 461.57,0.01"   /><polyline id="SvgjsPolyline2516" points="511.48,599.45 509.13,581.61 508.31,566.63 508.58,551.64 510.2,533.72 512.96,515.93 516.57,498.3 521.46,477.88 536.37,419.76 540.32,402.2 543.69,384.52 546.26,366.7 547.64,351.77 548.22,333.78 547.71,318.79 545.9,300.89 541.68,274.22 537.15,250.65 531.25,224.31 521.59,186.53 499.4,105.51 472.53,0.9"   /><polyline id="SvgjsPolyline2517" points="523.31,597.39 520.41,579.63 518.9,561.7 518.88,543.7 520.25,525.76 522.76,507.94 526.13,490.26 531.48,466.86 545.81,408.6 549.56,390.99 552.24,376.23 554.73,358.41 556.26,340.48 556.65,325.48 556.17,310.49 553.8,286.62 549.65,256.91 544.98,230.31 538.83,200.95 534.02,180.51 527.37,154.34 485.81,0.87"   /><polyline id="SvgjsPolyline2518" points="535.69,598 531.81,577.37 530.28,565.47 529.53,556.5 529.14,547.51 529.17,535.51 530.33,517.55 532.63,499.7 536.37,479.04 540.87,458.53 554.69,400.14 558.33,382.51 560.93,367.74 563.35,349.91 564.66,334.96 565.2,319.98 564.92,304.98 562.31,272.09 558.45,239.32 553.34,206.72 547.69,177.25 540.52,145.04 532.6,113.01 518.01,57.91 502.03,0.07"   /><polyline id="SvgjsPolyline2519" points="548.06,598.36 543.24,574.85 541.43,562.99 540.43,554.04 539.75,545.07 539.38,533.08 539.62,521.08 540.17,512.1 542.1,494.2 546.04,470.53 550.33,449.98 564.29,388.54 567.74,370.88 570.17,356.08 572.38,338.22 573.64,320.26 573.85,305.27 573.24,287.28 571,251.35 568.12,221.49 563.88,188.76 558.55,156.2 552.22,123.81 544.36,88.68 534.29,47.91 522.09,1.48"   /><polyline id="SvgjsPolyline2520" points="560.42,598.6 554.23,569.25 551.19,548.47 550.17,536.52 549.73,524.52 549.78,515.53 550.34,503.54 552.49,482.65 556.35,458.97 561.16,435.46 573.39,379.78 576.73,362.1 579.51,344.31 581.51,326.43 582.57,308.46 582.63,287.46 582.25,266.47 580.9,233.5 578.85,203.57 575.65,170.72 571.9,140.96 566.87,108.35 561.53,78.83 555.53,49.43 545.01,2.6"   /><polyline id="SvgjsPolyline2521" points="572.77,598.85 565.88,566.57 563.78,554.76 562.09,542.88 560.9,530.94 560.25,518.96 560.13,509.96 560.45,497.97 562.21,477.04 565.68,453.3 570.19,429.73 583.2,368.09 586.85,347.41 588.96,332.56 590.54,317.64 591.47,302.67 592.16,272.68 592.27,245.68 591.73,212.69 590.41,179.71 588.29,146.78 585.96,119.88 582.74,90.06 579.28,63.28 574.83,33.61 569.35,1.07"   /><polyline id="SvgjsPolyline2522" points="566.83,599.81 560.61,570.46 558.6,558.63 557.04,546.74 556.01,534.78 555.6,525.79 555.55,513.79 556.04,501.8 558.06,480.9 561.23,460.15 565.8,436.59 578.97,374.98 582.2,357.27 584.83,339.47 586.43,324.56 587.38,309.59 587.77,282.59 587.62,258.59 586.58,222.61 584.91,192.65 582.22,159.77 578.99,129.94 574.59,97.24 570.35,70.57 565.01,41.05 557.38,2.81"   /><polyline id="SvgjsPolyline2523" points="585.09,599.22 576.59,558.09 572.81,534.39 571.58,522.46 570.87,510.48 570.69,498.48 571.04,486.49 572.79,465.56 575.7,444.77 579.42,424.1 589.7,374.15 594.19,350.57 597.84,326.85 599.76,308.96"   /><polyline id="SvgjsPolyline2524" points="599.89,142.83 598.06,103.87 595.58,67.96 592.93,38.08 589.06,2.28"   /><polyline id="SvgjsPolyline2525" points="597.4,599.82 587.54,549.78 584.58,532.03 583.07,520.12 582.03,508.17 581.44,487.18 581.8,475.19 582.62,463.22 585.45,439.39 589.97,412.77 599.91,362.75"   /><polyline id="SvgjsPolyline2526" points="599.89,550.48 596.18,529.81 593.74,511.97 592.27,494.04 591.9,479.04 592.46,461.05 593.99,443.12 596.32,425.27 599.75,404.56"   /></g></svg>