<?xml version="1.0" standalone="no"?>
<svg id="SvgjsSvg1001" width="600" height="600" xmlns="http://www.w3.org/2000/svg" version="1.1" xmlns:xlink="http://www.w3.org/1999/xlink" xmlns:svgjs="http://svgjs.com/svgjs" class="svg-paper" viewBox="0 0 600 600"><title id="SvgjsTitle3105">x=x|y=(sin(y)-sin(x))|dTest=0.0|sd=0.2|sm=0.2|ts=0.05 | generated with FlowLines</title><style>*{fill:none;stroke:#777}</style><g id="SvgjsG3106"><polyline id="SvgjsPolyline3107" points="227.3,599.37 217.24,584.45 206.4,570.08 196.58,558.74 185.92,548.2 174.31,538.71 164.33,532.05 159.12,529.08 151.05,525.1 139.87,520.74 128.33,517.47 116.55,515.22 104.62,513.92 89.64,513.39 77.64,513.67 62.67,514.65 0,521.08"   /><polyline id="SvgjsPolyline3108" points="240.36,598.14 228.27,577.41 218.35,562.4 207.38,548.13 197.26,537.06 186.15,527 178.98,521.55 174,518.21 166.24,513.65 160.89,510.95 149.8,506.37 138.31,502.91 132.46,501.6 123.58,500.13 108.64,498.87 93.65,498.86 78.68,499.82 63.77,501.46 1.41,510.4"   /><polyline id="SvgjsPolyline3109" points="212.35,598.49 201.27,584.3 191.42,572.99 180.87,562.34 171.83,554.45 162.23,547.25 152.06,540.89 141.35,535.49 130.18,531.11 118.66,527.79 106.88,525.47 94.97,524.05 82.99,523.41 70.99,523.39 53.01,524.19 2.18,528.31"   /><polyline id="SvgjsPolyline3110" points="253.46,597.77 242.83,576.25 232.45,558 222.39,543.08 212.99,531.4 206.85,524.82 200.32,518.62 195.75,514.74 188.57,509.32 183.57,506 175.78,501.5 167.66,497.61 162.1,495.36 153.56,492.52 147.76,490.98 135.98,488.72 121.06,487.3 112.06,487.12 103.06,487.36 88.11,488.55 73.24,490.47 2.29,502.71"   /><polyline id="SvgjsPolyline3111" points="197.43,598.71 187.31,587.65 178.78,579.21 169.8,571.25 160.32,563.89 150.33,557.26 139.82,551.47 128.84,546.63 120.35,543.65 111.68,541.23 99.93,538.82 88.03,537.27 76.06,536.44 64.07,536.19 52.07,536.37 1.13,538.92"   /><polyline id="SvgjsPolyline3112" points="266.49,598.31 256.38,573.28 247.28,554.36 238.22,538.81 233.17,531.36 227.72,524.2 221.86,517.37 215.59,510.92 208.89,504.91 204.19,501.18 196.83,496.01 189.1,491.4 181.05,487.39 175.52,485.05 169.89,482.98 161.27,480.41 155.43,479.03 146.57,477.45 137.63,476.45 128.64,475.96 119.64,475.96 110.65,476.38 95.73,477.86 77.94,480.62 60.27,484.06 22.12,492.14 1.48,496"   /><polyline id="SvgjsPolyline3113" points="180.64,598.05 171.74,590.01 162.42,582.45 152.65,575.48 145.01,570.73 137.11,566.42 128.97,562.59 120.6,559.28 109.15,555.69 100.4,553.59 88.58,551.53 79.65,550.48 67.68,549.63 43.68,549.31 1.7,550.42"   /><polyline id="SvgjsPolyline3114" points="279.33,599.9 271.72,573.99 264.54,554.27 260.97,546 255.64,535.25 251.17,527.44 246.25,519.91 240.85,512.71 234.97,505.9 228.62,499.52 221.83,493.63 214.62,488.24 207.04,483.39 199.13,479.09 190.94,475.36 182.52,472.21 173.9,469.63 165.12,467.63 156.24,466.18 147.29,465.27 138.3,464.87 129.3,464.93 120.32,465.42 102.44,467.48 84.72,470.63 64.21,475.17 20.45,485.65 2.84,489.34"   /><polyline id="SvgjsPolyline3115" points="163.92,599.11 156.65,593.8 146.6,587.25 138.78,582.79 130.74,578.77 122.47,575.21 114.01,572.13 105.39,569.55 96.65,567.44 87.8,565.78 78.89,564.53 60.95,563.06 42.96,562.57 0.96,562.86"   /><polyline id="SvgjsPolyline3116" points="291.34,599.79 286.76,570.14 284.38,558.38 281.52,546.73 278,535.26 274.8,526.85 271.03,518.68 266.6,510.85 261.5,503.44 255.73,496.53 249.37,490.17 242.51,484.35 235.22,479.07 227.59,474.31 219.67,470.03 208.74,465.09 200.31,461.94 191.71,459.27 182.98,457.09 171.18,454.95 159.25,453.68 150.26,453.28 141.26,453.32 129.28,454.03 111.43,456.3 90.83,460.36 70.44,465.4 27,477.12 0.72,483.33"   /><polyline id="SvgjsPolyline3117" points="142.76,598.98 129.37,592.24 115.43,586.7 101.06,582.44 86.37,579.41 71.5,577.46 53.54,576.23 35.55,575.81 2.55,575.77"   /><polyline id="SvgjsPolyline3118" points="303.24,598.23 304.72,577.29 306.25,562.36 308.04,550.5 310.86,538.85 313.02,533.25 316.09,528.11 318.09,525.88 320.44,524.01 323.08,522.6 325.92,521.66 328.88,521.14 334.87,521.02 343.79,522.17 352.59,524.07 387.52,532.76 399.29,535.11 411.14,536.94 423.08,538.15 432.07,538.61 444.07,538.63 453.06,538.18 465,537.02 476.87,535.25 488.64,532.95 500.33,530.22 523.46,523.83 575.12,508.12 598.32,501.98"   /><polyline id="SvgjsPolyline3119" points="297.88,597.66 296.1,561.71 294.89,546.76 293.56,534.83 292.17,525.94 290.25,517.15 287.51,508.59 285.06,503.11 282.04,497.93 276.46,490.88 272.18,486.68 265.18,481.03 257.72,476 247.32,470.02 236.56,464.71 225.52,460.01 217.08,456.88 205.64,453.27 194,450.35 182.2,448.15 173.28,447 161.31,446.15 149.31,446.07 137.33,446.71 125.41,448.02 116.51,449.39 95.95,453.62 75.62,458.89 26.59,472.94 0.4,479.48"   /><polyline id="SvgjsPolyline3120" points="116.74,599.96 105.26,596.46 93.58,593.73 81.75,591.72 69.83,590.35 57.86,589.49 45.87,589.03 0.87,588.8"   /><polyline id="SvgjsPolyline3121" points="315.21,598.94 318.55,590.58 321.2,585.2 324.29,580.06 327.9,575.27 332.1,571 336.89,567.4 342.19,564.58 347.83,562.56 356.65,560.78 368.61,559.98 377.61,560.04 410.59,561.2 428.59,560.97 446.53,559.55 464.32,556.84 484.79,552.19 504.94,546.28 522,540.55 570.06,523.46 584.31,518.8 598.69,514.54"   /><polyline id="SvgjsPolyline3122" points="308.55,598.27 311.02,586.53 313.41,577.85 316.54,569.42 320.5,561.34 323.79,556.33 327.83,551.9 332.63,548.33 338.07,545.81 340.94,544.93 346.83,543.84 352.82,543.43 358.81,543.48 370.78,544.39 406.57,548.27 415.55,548.85 427.54,549.15 445.52,548.48 463.4,546.43 481.09,543.11 501.44,537.95 521.54,531.85 572.84,515 598.8,507.58"   /><polyline id="SvgjsPolyline3123" points="304.79,599.73 306.82,581.84 308.73,570 310.69,561.21 313.44,552.65 315.98,547.22 319.41,542.31 321.52,540.18 326.26,536.51 331.63,533.86 334.51,533.03 340.45,532.21 346.44,532.18 352.42,532.65 364.29,534.39 396.79,540.12 408.69,541.67 420.65,542.68 438.64,543.02 456.6,541.9 465.53,540.8 477.37,538.83 489.11,536.36 500.76,533.47 523.81,526.81 572.45,511.48 598.48,504.32"   /><polyline id="SvgjsPolyline3124" points="300.76,599.38 301.75,554.39 302.5,539.41 303.63,527.47 305.09,518.59 306.76,512.83 308.09,510.15 309.98,507.83 312.5,506.24 315.41,505.55 318.41,505.52 321.38,505.9 327.22,507.3 335.78,510.08 372.51,523.18 386.89,527.43 398.55,530.27 410.34,532.49 422.24,534.05 434.2,534.88 446.2,534.99 458.18,534.39 470.12,533.12 484.92,530.72 496.66,528.24 519.9,522.25 571.68,506.93 597.8,500.11"   /><polyline id="SvgjsPolyline3125" points="299.86,599.8 299.61,545.8 299.14,518.8 298.65,509.82 297.95,503.86 295.77,495.14 294.47,492.44 292.75,489.99 290.68,487.82 283.43,482.5 275.64,478 264.98,472.49 251.4,466.13 240.35,461.44 226.32,456.14 214.91,452.45 203.33,449.31 191.59,446.8 179.73,444.99 167.78,443.91 155.79,443.58 143.8,443.98 134.83,444.73 122.93,446.28 111.12,448.38 99.39,450.93 76.18,457.01 24.34,472.12 1.07,478.02"   /><polyline id="SvgjsPolyline3126" points="328.45,597.93 335.12,591.91 342.82,587.27 351.23,584.09 360.02,582.17 365.97,581.42 374.95,580.82 413.94,580.39 431.91,579.4 443.84,578.09 452.74,576.74 464.51,574.45 476.17,571.62 490.58,567.43 507.62,561.63 527.25,554.18 569.09,537.62 586,531.45 597.38,527.66"   /><polyline id="SvgjsPolyline3127" points="300,298.9 300.24,475.9 300.42,478.89 301,481.83 302.42,484.47 304.41,486.7 309.12,490.41 321.98,498.11 340.76,507.5 360.02,515.87 376.91,522.08 394.17,527.17 408.82,530.37 423.67,532.48 438.64,533.44 450.64,533.37 465.59,532.29 477.49,530.72 492.24,527.99 515.56,522.33 573.18,505.6 599.33,498.93"   /><polyline id="SvgjsPolyline3128" points="299.73,349.78 299.11,412.77 298.6,433.77 297.86,448.75 296.91,457.7 295.63,463.55 294.44,466.3 292.52,468.59 289.89,470.01 284.03,471.21 281.04,471.18 275.13,470.15 266.51,467.57 226.92,453.56 212.53,449.34 200.86,446.54 189.06,444.35 177.16,442.84 165.19,442.04 153.19,441.97 141.21,442.62 129.28,443.92 117.43,445.8 102.75,448.85 76.63,455.7 24.85,471.01 1.61,476.99"   /><polyline id="SvgjsPolyline3129" points="346.02,599.12 351.77,597.42 357.65,596.24 369.58,595.02 378.58,594.75 414.58,594.87 435.54,593.74 450.42,591.88 468.08,588.4 485.44,583.67 505.32,576.89 524.85,569.19 574.65,548.31 599.95,538.88"   /><polyline id="SvgjsPolyline3130" points="300.11,297.9 299.59,303.87 297.38,305.89 294.53,305.02 292.1,303.27 286.04,296.63 280.8,289.32 274.62,279.03 267.56,265.8 250.19,230.88 240.5,212.25 230.05,194.04 221.87,181.47 211.04,167.09 205.14,160.3 198.88,153.84 192.25,147.76 185.23,142.13 180.34,138.65 172.71,133.89 164.74,129.71 156.47,126.15 150.82,124.13 142.18,121.64 133.38,119.76 127.45,118.84 118.5,117.92 109.51,117.5 91.52,117.92 73.6,119.61 55.77,122.09 2.42,130.43"   /><polyline id="SvgjsPolyline3131" points="300.36,295.83 302.95,294.37 305.7,295.52 308.03,297.4 313.9,304.22 319,311.63 323.58,319.38 329.24,329.96 350.41,373.04 360.08,391.68 370.61,409.84 380.64,424.78 386.09,431.94 391.87,438.84 402.31,449.61 413.79,459.24 418.69,462.72 426.32,467.47 434.3,471.64 439.78,474.07 448.22,477.19 456.87,479.68 462.73,480.99 471.6,482.45 480.56,483.36 489.55,483.77 507.53,483.32 525.45,481.59 540.31,479.52 581.75,472.74 599.56,470.14"   /><polyline id="SvgjsPolyline3132" points="300.11,298.31 299.93,301.3 299.29,304.23 297.12,309.82 295.51,312.34 293.43,314.5 290.88,316.08 285.12,317.72 282.14,318 279.15,317.8 273.35,316.31 265.26,312.4 255.41,305.56 248.51,299.78 241.9,293.68 229.23,280.89 194.28,243.75 183.57,233.25 172.41,223.24 160.67,213.89 148.29,205.44 135.21,198.1 124.28,193.15 113,189.08 101.43,185.9 89.66,183.56 77.77,181.97 65.81,181.01 50.82,180.48 2.82,180.96"   /><polyline id="SvgjsPolyline3133" points="299.64,301.67 298.23,299.03 300.88,298.14 303.86,303.33 308.22,314.51 326.31,371.72 334.11,394.41 341.94,413.89 347.01,424.77 351.17,432.75 357.27,443.08 362.3,450.54 367.74,457.71 373.63,464.52 379.95,470.92 386.7,476.87 393.86,482.32 401.4,487.23 411.97,492.89 420.24,496.44 428.74,499.38 437.43,501.72 446.26,503.47 455.18,504.65 467.15,505.4 476.15,505.39 494.11,504.16 514.88,501.14 532.55,497.67 576.47,487.9 597.07,483.81"   /><polyline id="SvgjsPolyline3134" points="298.73,307.3 296.16,315.92 292.65,324.21 289.7,329.42 284.49,336.76 278.21,343.19 273.34,346.69 268.01,349.43 262.34,351.37 256.46,352.56 250.49,353.12 238.5,352.85 223.63,350.96 185.18,344.4 173.27,342.99 164.29,342.32 155.3,342.03 146.3,342.16 137.32,342.72 128.38,343.72 116.54,345.7 104.84,348.36 93.29,351.62 81.9,355.36 59.48,363.93 1.4,388.34"   /><polyline id="SvgjsPolyline3135" points="298.65,297.44 300.24,299.91 301.48,305.78 310.94,361.99 317.31,394.37 320.11,406.04 323.3,417.61 327,429.02 330.19,437.43 335.13,448.37 339.41,456.28 344.23,463.88 349.61,471.09 355.55,477.85 361.99,484.13 371.29,491.71 378.72,496.78 389.14,502.72 400.05,507.73 411.34,511.79 420,514.21 428.8,516.1 440.67,517.81 452.64,518.62 464.64,518.6 473.63,518.09 485.56,516.83 497.42,515 509.2,512.73 529.66,507.99 576.15,496.07 599.57,490.84"   /><polyline id="SvgjsPolyline3136" points="299.99,299.55 304.4,359.39 307.58,392.23 309.53,407.1 311.47,418.95 313.79,430.72 316.71,442.36 319.46,450.92 322.82,459.27 326.92,467.28 331.81,474.83 337.46,481.83 343.79,488.22 350.67,494.02 357.97,499.27 368.23,505.5 378.95,510.89 392.84,516.53 404.28,520.14 415.95,522.94 427.78,524.91 439.73,526.05 454.72,526.33 466.7,525.7 478.63,524.41 490.48,522.54 502.25,520.2 525.56,514.51 574.74,500.98 598.07,495.35"   /><polyline id="SvgjsPolyline3137" points="300.06,302.83 301.49,365.82 302.92,404.79 304.79,431.72 306.23,443.64 307.79,452.5 310.05,461.2 313.19,469.64 315.78,475.05 318.94,480.14 322.66,484.85 329.05,491.17 333.72,494.94 341.1,500.08 351.44,506.18 364.88,512.83 378.75,518.53 392.98,523.25 404.6,526.26 419.34,529.01 431.26,530.35 446.25,530.93 458.24,530.55 470.19,529.48 482.07,527.8 496.8,524.97 520.1,519.24 572.02,504.4 598.2,497.79"   /><polyline id="SvgjsPolyline3138" points="299.79,297.26 300.02,300.25 298.8,309.17 294.67,329.75 289.75,347.06 284.39,361.06 278.93,371.74 275.64,376.76 271.9,381.44 265.34,387.59 257.74,392.37 252.22,394.72 246.47,396.44 240.6,397.64 234.65,398.42 222.67,399.15 183.68,399.49 168.7,400.33 159.75,401.22 147.86,402.9 130.22,406.46 112.85,411.15 95.74,416.74 76.04,424.01 31.32,441.46 14.38,447.55 0.12,452.18"   /><polyline id="SvgjsPolyline3139" points="299.56,305.71 296.3,335.53 293.25,356.31 289.75,373.96 285.81,388.43 281.67,399.69 279.04,405.08 275.89,410.18 272.12,414.84 269.98,416.94 267.66,418.85 262.56,421.99 259.82,423.21 254.1,424.98 248.19,426.01 242.21,426.47 230.21,426.33 194.31,423.68 176.32,423.16 164.33,423.46 155.35,424.08 143.43,425.43 134.53,426.82 116.92,430.49 96.65,435.99 79.49,441.41 28.35,458.75 2.47,466.44"   /><polyline id="SvgjsPolyline3140" points="299.57,308.52 297.52,341.46 295.28,368.37 292.78,389.22 290.16,403.98 288.77,409.82 286.15,418.43 282.76,426.76 279.7,431.91 277.85,434.27 273.43,438.3 270.88,439.88 268.15,441.12 262.36,442.66 253.39,443.22 241.44,442.19 202.96,435.88 185.07,433.87 176.09,433.33 164.09,433.16 152.1,433.64 140.16,434.76 131.24,436 119.44,438.14 107.73,440.76 96.11,443.77 75.97,449.7 27.35,465.11 1.33,472.29"   /><polyline id="SvgjsPolyline3141" points="299.68,311.68 298.33,353.66 296.94,383.62 295.44,404.57 293.31,422.44 290.84,434.18 288.91,439.85 287.63,442.57 284.51,447.69 282.65,450.03 280.44,452.06 277.9,453.66 275.13,454.79 269.23,455.79 266.23,455.83 260.26,455.31 248.48,453.04 210.6,443.74 195.86,440.98 183.97,439.4 172,438.47 163.01,438.22 145.03,438.89 133.1,440.16 121.24,442.02 109.48,444.4 97.81,447.19 74.7,453.66 25.92,468.54 2.73,474.72"   /><polyline id="SvgjsPolyline3142" points="473.89,599.33 491.19,594.38 510.97,587.33 527.64,580.54 577.19,559.07 599.54,550.32"   /><polyline id="SvgjsPolyline3143" points="299.63,302.83 298.75,305.7 297.4,308.38 295.34,310.56 292.56,311.65 289.57,311.59 286.69,310.77 281.43,307.9 272.22,300.23 264.04,291.45 254.76,279.67 246.05,267.46 215.52,222.93 204.66,208.57 195.03,197.07 182.56,184.1 171.26,174.24 159.06,165.53 148.66,159.55 137.74,154.57 132.12,152.48 123.52,149.83 108.86,146.71 93.96,145.02 78.97,144.5 60.98,145.02 46.01,146.05 1.18,149.95"   /><polyline id="SvgjsPolyline3144" points="300.49,298.44 301.91,301.08 299.21,301.59 296.44,296.28 291.4,282.16 274.95,227.58 267.38,204.81 259.74,185.25 254.76,174.34 250.66,166.33 244.63,155.95 239.64,148.46 234.23,141.28 228.37,134.44 222.07,128.02 215.33,122.06 208.18,116.59 200.65,111.66 192.78,107.3 184.62,103.52 173.35,99.42 164.67,97.04 155.85,95.25 146.93,94.03 134.96,93.23 125.96,93.2 116.97,93.6 105.03,94.71 84.27,97.9 63.7,102.12 19.81,112.03 2.15,115.52"   /><polyline id="SvgjsPolyline3145" points="298.02,303.64 295.71,301.74 292.15,296.92 286.46,286.36 280.34,272.67 263.42,230.97 253.95,208.92 244.78,190.03 235.94,174.36 229.39,164.31 224.07,157.04 218.39,150.07 212.31,143.43 205.83,137.19 198.95,131.39 191.67,126.1 186.61,122.88 178.73,118.54 170.54,114.8 162.1,111.69 153.45,109.21 144.64,107.35 135.74,106.08 126.77,105.36 117.77,105.14 99.79,105.95 78.95,108.5 61.21,111.55 22.93,119.01 2.25,122.63"   /><polyline id="SvgjsPolyline3146" points="299.73,302.41 298.85,305.28 297.26,307.82 294.49,308.92 291.54,308.47 288.82,307.21 284.01,303.63 279.78,299.38 274.07,292.43 265.54,280.1 257.64,267.35 228.63,218.29 218.8,203.21 210.03,191.04 198.58,177.16 192.4,170.61 185.9,164.4 174.27,154.93 166.82,149.88 161.67,146.81 153.67,142.69 148.17,140.28 142.56,138.15 133.97,135.47 128.15,134.03 119.31,132.36 110.38,131.24 101.4,130.61 86.41,130.51 68.44,131.55 47.56,133.77 2.9,139.27"   /><polyline id="SvgjsPolyline3147" points="300.97,295 302.1,292.22 303.73,289.7 306,287.75 308.83,286.78 311.82,286.77 317.66,288.14 323.12,290.6 328.12,293.91 332.76,297.7 341.33,306.1 351.17,317.42 360.47,329.19 391.29,369.81 402.76,383.68 412.87,394.77 423.63,405.22 435.14,414.82 447.49,423.33 457.96,429.18 468.91,434.08 474.54,436.15 483.15,438.78 497.8,441.95 512.69,443.76 527.67,444.46 542.67,444.35 560.65,443.54 599.58,441.15"   /><polyline id="SvgjsPolyline3148" points="302.3,292.47 304.62,290.59 307.59,290.28 310.49,291.05 313.16,292.41 317.95,296.01 324.24,302.44 329.88,309.45 336.83,319.23 346.63,334.33 375,380.27 385.11,395.16 394.12,407.16 405.84,420.81 416.54,431.32 428.17,440.78 435.61,445.84 440.76,448.91 448.75,453.06 454.24,455.48 462.67,458.62 468.41,460.36 477.16,462.47 483.06,463.55 491.98,464.73 500.96,465.41 515.95,465.62 533.93,464.71 551.84,463 599.54,457.66"   /><polyline id="SvgjsPolyline3149" points="299.96,296.13 302.79,296.92 304.92,299.03 308.34,303.95 312.61,311.87 319.98,328.29 338.02,372.77 346.45,392.01 355.66,410.88 364.56,426.52 371.16,436.54 376.51,443.77 382.24,450.71 388.36,457.31 394.89,463.5 401.82,469.24 406.66,472.79 414.23,477.65 422.14,481.93 430.36,485.6 438.83,488.64 447.5,491.05 456.32,492.84 465.23,494.05 474.21,494.71 483.2,494.89 501.18,493.99 522.01,491.37 539.74,488.29 580.97,480.28 598.71,477.24"   /><polyline id="SvgjsPolyline3150" points="299.27,304.57 297.52,310.31 295.05,315.77 291.72,320.75 287.37,324.86 284.81,326.43 282.05,327.6 279.15,328.37 276.18,328.77 270.19,328.88 264.23,328.23 258.4,326.82 252.73,324.86 244.5,321.23 236.53,317.04 221.12,307.74 180.84,281.64 170.51,275.53 159.97,269.8 149.18,264.55 140.92,260.99 132.5,257.8 123.95,254.99 112.37,251.88 100.6,249.51 88.72,247.84 73.77,246.65 61.78,246.29 46.78,246.41 1.82,248.37"   /><polyline id="SvgjsPolyline3151" points="297.95,308.78 295.45,314.23 291.9,319.05 289.67,321.05 287.14,322.65 284.36,323.79 281.44,324.44 278.45,324.65 272.49,324.01 266.73,322.35 261.21,320.01 250.76,314.12 243.34,309.04 236.15,303.62 222.21,292.24 187.97,263.04 176.23,253.7 164.11,244.87 151.51,236.73 141.05,230.84 127.5,224.43 116.29,220.15 104.82,216.64 93.13,213.92 81.3,211.91 69.38,210.54 45.42,209.23 0.43,208.97"   /><polyline id="SvgjsPolyline3152" points="297.8,308.3 296.33,310.91 294.38,313.19 291.91,314.87 289.04,315.75 286.05,315.86 283.09,315.36 277.5,313.22 272.35,310.16 267.54,306.57 258.67,298.5 248.46,287.51 238.82,276.02 203.15,231.56 193.26,220.29 182.88,209.46 171.86,199.28 160.11,189.97 150.14,183.3 136.96,176.14 125.91,171.47 111.6,167.01 99.87,164.51 85,162.57 70.02,161.71 55.03,161.65 1.08,163.98"   /><polyline id="SvgjsPolyline3153" points="295.12,314.2 293.3,316.59 291.14,318.67 288.63,320.31 285.84,321.41 282.9,321.98 279.9,322.05 276.92,321.72 271.14,320.15 265.63,317.77 260.39,314.86 250.51,308.06 238.93,298.53 227.87,288.4 193.24,255.16 182.04,245.18 170.43,235.69 158.28,226.89 145.64,218.83 135.1,213.09 124.19,208.11 112.94,203.95 101.41,200.62 89.68,198.1 77.82,196.3 62.88,194.92 47.9,194.25 2.9,194.11"   /><polyline id="SvgjsPolyline3154" points="299.3,305.22 296.67,316.92 293.08,328.37 288.38,339.4 283.89,347.2 278.33,354.27 273.97,358.37 266.58,363.51 258.52,367.47 249.89,370 243.97,371 238,371.59 226.01,371.88 190.04,370.55 172.04,370.63 160.06,371.36 151.12,372.33 142.22,373.67 130.45,376.03 118.82,378.98 110.2,381.56 90.39,388.52 70.94,396.43 21.39,417.91 1.85,425.58"   /><polyline id="SvgjsPolyline3155" points="298.8,306.77 296.05,315.34 293.57,320.8 290.49,325.95 286.71,330.59 282.16,334.49 276.91,337.37 271.18,339.14 265.23,339.87 253.25,339.35 247.33,338.41 238.58,336.31 224.31,331.71 184.92,317.12 173.51,313.43 161.94,310.23 153.17,308.22 141.35,306.17 132.41,305.12 123.43,304.53 111.43,304.42 99.45,305.08 87.53,306.43 72.74,308.94 61.02,311.49 46.48,315.17 0.34,328.41"   /><polyline id="SvgjsPolyline3156" points="298.31,309.72 295.04,321.26 291.81,329.66 287.77,337.69 284.52,342.73 278.66,349.55 274.05,353.39 268.94,356.51 263.42,358.87 257.65,360.5 251.74,361.49 245.76,361.99 239.76,362.09 227.78,361.52 185.96,357.6 173.98,357.04 164.98,357.01 155.98,357.34 147.01,358.07 129.22,360.74 117.51,363.37 105.96,366.61 94.56,370.35 83.3,374.51 63.88,382.5 17.18,403 0.5,409.76"   /><polyline id="SvgjsPolyline3157" points="299.97,297.59 300.01,300.59 299.54,303.55 298.19,309.4 296.42,315.13 292.98,323.44 288.4,331.18 286.58,333.56 282.42,337.88 277.6,341.44 272.21,344.07 266.46,345.74 260.52,346.56 254.52,346.69 248.54,346.29 239.64,344.98 225.01,341.67 187.3,331.73 175.58,329.16 163.75,327.13 154.82,326.04 142.85,325.24 133.85,325.15 124.86,325.52 112.92,326.69 101.07,328.6 89.35,331.15 77.76,334.26 66.29,337.8 52.11,342.69 1.59,361.77"   /><polyline id="SvgjsPolyline3158" points="297.83,310.85 294.97,319.38 292.55,324.87 289.65,330.12 286.19,335.02 282.09,339.4 277.35,343.07 272.05,345.87 266.36,347.74 260.46,348.79 254.47,349.13 248.47,348.94 239.53,347.93 227.74,345.74 189.71,337.09 177.9,334.96 166,333.41 157.03,332.7 148.04,332.42 139.04,332.59 130.06,333.22 118.16,334.74 106.38,336.98 94.73,339.86 80.37,344.2 57.8,352.36 2.16,374.8"   /><polyline id="SvgjsPolyline3159" points="299.61,304.3 296.34,328.07 292.45,348.71 288.79,363.25 286.04,371.82 283.89,377.42 281.39,382.87 278.47,388.11 273.12,395.33 268.8,399.49 264.04,403.14 258.9,406.23 253.38,408.57 247.61,410.21 241.71,411.28 235.75,411.9 223.75,412.28 190.76,411.63 172.77,411.99 160.8,412.84 151.86,413.86 140,415.7 131.17,417.44 113.7,421.76 93.62,427.9 76.62,433.8 31.52,450.26 14.46,455.98 0.1,460.3"   /><polyline id="SvgjsPolyline3160" points="299.13,306.7 296.15,321.4 293.04,332.99 289.15,344.34 284.18,355.25 279.48,362.92 273.71,369.82 266.79,375.55 258.87,379.79 253.22,381.8 247.42,383.36 241.55,384.56 235.6,385.34 223.62,386.06 187.62,386.2 169.65,387.04 151.77,389.07 142.89,390.59 131.17,393.12 113.82,397.91 93.95,404.7 77.17,411.22 27.26,431.84 1.93,441.17"   /><polyline id="SvgjsPolyline3161" points="512.43,599.62 529.12,592.89 575.82,572.38 598.02,563.27"   /><polyline id="SvgjsPolyline3162" points="300.21,296.58 302.99,263.7 305.58,239.84 308.1,222.02 311.57,204.36 314.83,192.81 316.94,187.2 319.51,181.78 322.7,176.7 324.58,174.36 328.94,170.26 331.43,168.58 334.08,167.18 339.74,165.21 345.65,164.19 351.63,163.87 363.61,164.47 399.34,168.89 420.28,170.46 429.27,170.64 441.27,170.33 453.23,169.39 462.16,168.28 474,166.31 482.81,164.48 503.16,159.31 523.26,153.22 571.75,137.43 597.71,130.03"   /><polyline id="SvgjsPolyline3163" points="299.52,297.85 291.7,238.36 287.09,208.72 284.24,194 281.55,182.3 278.36,170.74 275.54,162.19 271.09,151.05 267.13,142.97 262.57,135.21 257.39,127.86 251.59,120.97 245.24,114.6 238.39,108.76 228.63,101.8 218.27,95.75 207.44,90.59 199.06,87.31 187.61,83.72 175.92,81.03 164.05,79.24 152.09,78.33 140.09,78.24 128.11,78.91 119.17,79.85 107.3,81.61 95.51,83.85 72.14,89.33 22.83,102.33 2.37,107.05"   /><polyline id="SvgjsPolyline3164" points="300.47,302.18 299.28,299.43 297,290.73 285.27,234.95 279.69,211.61 276.49,200.04 272.9,188.59 268.83,177.31 265.38,168.99 260.31,158.12 256.04,150.19 251.31,142.54 244.21,132.87 238.3,126.09 231.91,119.75 225.07,113.91 215.31,106.93 207.58,102.32 196.82,97.03 188.45,93.71 177,90.16 165.27,87.6 156.37,86.32 147.4,85.56 135.41,85.3 126.41,85.63 114.46,86.68 102.57,88.31 90.76,90.42 70.25,94.91 20.72,107.06 0.18,111.43"   /><polyline id="SvgjsPolyline3165" points="301.43,292.99 303.64,287.41 306.77,282.31 308.77,280.07 311.07,278.15 313.65,276.63 319.27,274.52 325.17,273.54 331.15,273.86 337.01,275.13 342.69,277.06 348.19,279.47 356.14,283.67 363.83,288.35 378.68,298.51 417.48,326.77 427.44,333.47 437.62,339.81 445.43,344.29 456.1,349.78 464.29,353.51 475.46,357.87 486.89,361.52 498.54,364.41 510.34,366.58 525.23,368.37 537.2,369.18 552.19,369.59 597.19,369.09"   /><polyline id="SvgjsPolyline3166" points="304.04,287.49 305.76,285.03 307.85,282.89 310.33,281.2 313.11,280.08 316.06,279.57 319.06,279.58 324.93,280.77 330.49,283.01 338.28,287.5 350.33,296.42 361.59,306.33 372.34,316.8 408.1,353.15 419.05,363.4 428.12,371.26 439.95,380.48 449.86,387.25 462.83,394.76 473.67,399.91 484.87,404.2 496.37,407.63 511.04,410.74 522.92,412.39 534.88,413.43 549.86,414.05 597.86,413.89"   /><polyline id="SvgjsPolyline3167" points="300.53,296.46 302.52,290.81 304,288.2 305.9,285.88 308.26,284.04 311.02,282.87 313.98,282.42 316.98,282.59 319.91,283.22 325.48,285.43 333.15,290.12 342.45,297.69 353.14,308.2 367.18,323.82 398.47,360.21 410.74,373.39 421.44,383.9 432.74,393.76 444.73,402.76 457.47,410.67 468.19,416.06 479.32,420.53 490.78,424.06 502.49,426.69 517.34,428.81 532.3,429.87 547.29,430.16 598.27,428.77"   /><polyline id="SvgjsPolyline3168" points="300.68,295.96 301.73,293.15 303.3,290.6 305.64,288.72 308.54,288.01 311.52,288.31 314.36,289.27 317.03,290.63 321.94,294.06 326.42,298.05 334.55,306.87 343.78,318.69 382.89,375.53 393.76,389.88 403.41,401.36 413.76,412.21 427.18,424.2 439.25,433.1 444.33,436.29 452.21,440.63 457.63,443.21 465.96,446.6 477.41,450.18 492.09,453.22 507,454.84 521.99,455.3 539.98,454.75 599.78,449.83"   /><polyline id="SvgjsPolyline3169" points="294.55,317.95 291.47,323.09 287.59,327.66 285.33,329.63 280.2,332.72 274.49,334.54 268.53,335.16 262.55,334.84 256.64,333.82 245.15,330.38 234.05,325.84 220.51,319.38 182.97,300.55 172.03,295.61 160.92,291.09 146.73,286.21 135.16,283.04 123.42,280.6 111.54,278.91 99.58,277.97 90.58,277.73 78.58,277.97 66.61,278.75 39.81,281.96 1.28,288.03"   /><polyline id="SvgjsPolyline3170" points="297.83,309.35 295.4,314.84 292.08,319.82 290.02,322 287.67,323.87 285.08,325.37 282.28,326.44 279.35,327.1 276.36,327.36 273.37,327.28 267.45,326.31 261.72,324.55 253.48,320.95 245.59,316.61 237.98,311.82 223.27,301.45 184.81,272.72 174.92,265.93 164.79,259.49 151.78,252.03 143.78,247.91 132.86,242.95 124.47,239.68 113.06,235.97 101.43,233.01 89.65,230.78 74.76,228.92 62.8,228.05 47.81,227.57 2.81,227.89"   /><polyline id="SvgjsPolyline3171" points="292.77,320.39 289.03,325.07 286.8,327.08 284.35,328.81 278.89,331.25 272.99,332.31 267,332.22 261.08,331.27 255.29,329.71 244.1,325.38 233.33,320.1 183.87,291.78 173.24,286.21 162.4,281.06 151.33,276.43 140.03,272.42 125.59,268.35 113.87,265.77 104.99,264.33 93.06,263.03 81.08,262.39 69.08,262.33 57.09,262.74 42.12,263.74 0.31,267.67"   /><polyline id="SvgjsPolyline3172" points="296.7,313.37 294.31,318.87 291.29,324.05 287.53,328.72 285.35,330.78 282.96,332.6 277.67,335.39 271.9,336.99 265.93,337.52 259.94,337.19 254.02,336.24 248.19,334.81 239.62,332.08 225.67,326.56 184.47,308.48 164.75,301.27 153.23,297.92 144.47,295.85 135.62,294.2 126.7,292.99 114.75,291.97 102.75,291.62 90.76,291.99 75.83,293.35 63.94,295.02 49.18,297.67 2.31,308.02"   /><polyline id="SvgjsPolyline3173" points="299.03,305.91 296.49,314.54 294.22,320.09 289.8,327.92 286.06,332.6 281.59,336.6 276.45,339.67 270.81,341.71 264.91,342.76 258.92,342.99 252.94,342.59 247,341.71 238.22,339.77 223.82,335.55 186.73,323.51 175.15,320.38 166.37,318.39 157.52,316.76 145.62,315.24 136.64,314.61 127.64,314.45 115.66,314.94 103.72,316.2 88.93,318.65 74.28,321.89 62.69,325 48.34,329.36 0.01,345.65"   /><polyline id="SvgjsPolyline3174" points="544.96,599.13 577.93,584.66 597.32,576.6"   /><polyline id="SvgjsPolyline3175" points="300.27,297.47 302.24,288.69 305.02,280.13 308.67,271.91 313.38,264.25 319.05,257.27 323.41,253.15 328.27,249.65 330.88,248.17 336.38,245.78 342.15,244.13 348.06,243.14 354.04,242.7 360.04,242.67 372.01,243.49 410.68,248.53 428.62,249.99 437.62,250.23 449.61,249.93 458.58,249.23 470.47,247.64 479.32,245.97 490.99,243.17 502.5,239.78 516.67,234.89 536.19,227.14 580.2,207.98 599.62,199.99"   /><polyline id="SvgjsPolyline3176" points="300.53,295.42 303.34,280.69 307.14,266.19 311.04,254.84 316.03,243.93 322.17,233.63 327.81,226.63 334.51,220.64 342.21,216.01 347.76,213.73 353.51,212.04 359.4,210.86 365.34,210.09 377.32,209.36 410.32,209.12 428.3,208.33 446.19,206.41 455.07,204.96 466.82,202.52 487.08,197.01 506.96,190.24 523.75,183.77 571.02,164.61 585.06,159.34 599.25,154.46"   /><polyline id="SvgjsPolyline3177" points="300.35,296.18 303.29,275.39 306.63,257.71 310.19,243.14 314.87,228.89 317.22,223.37 319.94,218.02 322.98,212.86 326.38,207.91 332.47,201.31 334.78,199.39 339.78,196.09 345.2,193.53 350.91,191.68 356.78,190.44 362.73,189.68 374.71,189.11 407.7,189.61 428.7,189.13 446.62,187.49 458.48,185.69 467.32,183.97 484.8,179.71 504.89,173.6 519.07,168.71 572.6,149.14 598.32,140.92"   /><polyline id="SvgjsPolyline3178" points="299.97,294.68 298.77,180.69 298.01,156.7 296.73,138.75 295.93,132.8 294.72,126.93 292.82,121.24 291.52,118.54 289.94,115.99 286.06,111.43 281.52,107.51 276.62,104.05 263.67,96.49 250.23,89.83 233.68,82.76 216.71,76.77 202.26,72.73 187.57,69.72 172.7,67.82 157.72,67.1 142.73,67.52 130.78,68.64 118.91,70.36 104.19,73.24 83.8,78.27 29.05,94.12 2.91,100.87"   /><polyline id="SvgjsPolyline3179" points="300.64,292.26 303.66,265.43 306.75,244.66 310.3,227.02 313.46,215.45 317.73,204.24 320.48,198.91 323.81,193.92 327.81,189.45 332.33,185.52 337.32,182.19 342.79,179.75 348.57,178.14 354.49,177.2 360.47,176.76 375.47,176.97 411.4,179.07 426.4,179.16 444.37,178.14 453.31,177.14 465.17,175.29 482.77,171.54 503.01,165.95 522.99,159.49 571.21,142.87 588.39,137.51 599.94,134.27"   /><polyline id="SvgjsPolyline3180" points="300.17,295.14 301.79,256.17 303.5,226.22 305.55,202.31 307.55,187.45 310.02,175.71 312.61,167.09 314.95,161.57 318.12,156.49 320.13,154.26 322.43,152.35 325.01,150.82 327.79,149.7 333.67,148.59 342.66,148.76 354.51,150.64 392.62,158.91 410.4,161.67 422.35,162.8 434.34,163.28 446.33,163.07 455.31,162.47 467.23,161.12 476.12,159.71 487.9,157.39 499.57,154.64 522.69,148.18 571.42,133.13 597.47,126.05"   /><polyline id="SvgjsPolyline3181" points="299.72,295.21 296.53,238.3 293.68,202.42 291.99,187.51 290.24,175.64 287.96,163.86 284.95,152.25 282.16,143.69 278.65,135.41 275.85,130.1 270.9,122.59 265.12,115.7 258.64,109.47 251.61,103.84 244.18,98.76 233.81,92.74 223.02,87.5 211.89,83 197.61,78.44 185.94,75.67 174.1,73.7 162.16,72.55 147.17,72.24 135.18,72.83 123.25,74.09 111.39,75.94 99.62,78.27 76.31,83.97 24.29,98.44 0.96,104.09"   /><polyline id="SvgjsPolyline3182" points="301.22,293.21 304.05,284.67 306.61,279.25 309.83,274.19 313.81,269.71 318.58,266.09 324.02,263.59 329.86,262.25 335.84,261.7 341.83,261.75 347.79,262.45 353.67,263.62 362.34,266.02 376.48,271.03 415.48,286.62 426.8,290.61 438.27,294.12 449.91,297.04 458.74,298.77 467.64,300.09 476.6,300.96 488.59,301.43 500.58,301.14 512.54,300.16 524.43,298.57 536.25,296.47 550.91,293.31 597.4,281.39"   /><polyline id="SvgjsPolyline3183" points="301.5,292.37 303.46,286.71 306.07,281.3 309.42,276.34 313.67,272.11 318.78,269 321.59,267.95 327.48,266.84 333.47,266.86 339.4,267.73 345.22,269.21 353.7,272.21 361.94,275.83 377.94,284.07 417.3,305.88 428.01,311.29 438.91,316.29 450.04,320.8 458.53,323.78 467.14,326.39 475.86,328.59 487.64,330.88 499.54,332.44 511.51,333.28 526.5,333.47 538.5,333.03 553.45,331.94 598.19,327.11"   /><polyline id="SvgjsPolyline3184" points="311.36,278.4 314.02,277.02 316.88,276.13 319.85,275.71 325.83,276.05 328.76,276.68 334.45,278.57 339.9,281.08 345.14,283.99 355.14,290.62 367,299.79 410.2,336.99 421.82,346.46 431.39,353.71 443.75,362.19 454.02,368.4 464.65,373.98 475.61,378.84 486.89,382.94 498.42,386.24 510.15,388.77 524.99,390.96 536.94,392.05 551.92,392.78 599.92,393.14"   /><polyline id="SvgjsPolyline3185" points="301.72,291.79 303.85,286.19 306.72,280.92 310.48,276.26 312.73,274.28 315.23,272.62 317.93,271.32 323.73,269.85 329.72,269.71 335.65,270.57 341.44,272.14 347.07,274.21 355.26,277.95 363.19,282.2 376.04,289.93 413.88,314.29 424.19,320.43 434.7,326.21 445.47,331.51 456.47,336.29 467.69,340.54 476.26,343.28 487.88,346.29 499.66,348.57 511.55,350.15 526.51,351.23 550.51,351.37 598.45,349.07"   /><polyline id="SvgjsPolyline3186" points="302.18,290.76 304.68,285.32 308.17,280.45 310.35,278.39 312.82,276.69 315.54,275.42 318.42,274.61 321.4,274.24 327.38,274.58 333.2,275.99 338.82,278.1 349.45,283.64 361.94,291.94 376.24,302.87 411.23,331.17 423.23,340.17 435.6,348.64 448.45,356.38 459.09,361.92 472.85,367.88 484.19,371.8 492.86,374.23 504.58,376.8 516.43,378.68 528.36,379.93 552.33,381.06 597.33,381.09"   /><polyline id="SvgjsPolyline3187" points="574.49,599.24 599.45,588.95"   /><polyline id="SvgjsPolyline3188" points="301.04,292.91 303.76,281.22 307.4,269.79 312.13,258.77 316.64,250.99 322.21,243.93 324.32,241.8 328.95,237.99 334.06,234.85 342.32,231.29 350.97,228.84 356.89,227.86 362.86,227.29 374.86,226.99 410.83,228.15 428.83,227.95 437.81,227.39 449.74,226.09 467.46,222.92 479.1,220.04 487.74,217.52 499.13,213.75 510.39,209.59 529.83,201.64 576.63,181.38 598.98,172.63"   /><polyline id="SvgjsPolyline3189" points="300.35,297.07 302.44,288.32 305.44,279.84 309.44,271.79 312.79,266.81 316.77,262.33 319.02,260.34 323.97,256.98 329.45,254.54 335.25,253.02 341.2,252.31 347.2,252.25 359.13,253.48 373.84,256.41 414.64,266.37 426.42,268.65 435.32,270 447.25,271.21 456.24,271.62 465.24,271.59 474.23,271.11 486.15,269.79 497.98,267.74 509.67,265.05 524.09,260.94 549.59,252.06 599.92,232.5"   /><polyline id="SvgjsPolyline3190" points="301.65,290.32 304.84,278.76 307.96,270.32 311.84,262.21 316.68,254.63 322.69,247.94 327.38,244.21 332.56,241.19 338.11,238.92 343.9,237.35 349.82,236.38 361.79,235.77 373.78,236.25 409.67,239.13 421.66,239.56 430.66,239.52 448.61,238.31 460.5,236.71 469.36,235.12 478.14,233.16 489.72,230.02 501.15,226.36 512.43,222.26 531.88,214.35 575.81,195.02 598.02,185.92"   /><polyline id="SvgjsPolyline3191" points="306.33,276.99 308.92,271.58 311.99,266.43 315.62,261.66 317.67,259.47 322.23,255.58 324.74,253.93 330.12,251.29 335.84,249.51 341.75,248.51 347.74,248.15 359.72,248.79 371.59,250.53 412.84,258.38 424.74,259.98 433.7,260.78 442.69,261.18 451.69,261.16 460.68,260.69 469.63,259.78 481.49,257.99 493.25,255.58 504.86,252.55 519.16,248.04 541.63,239.61 599.82,215.46"   /><polyline id="SvgjsPolyline3192" points="300.1,293.09 301.92,209.11 302.85,188.13 304.22,170.18 305.89,158.3 308.24,149.63 310.72,144.17 312.3,141.62 314.31,139.4 316.77,137.69 319.56,136.62 322.52,136.12 325.51,136.05 334.41,137.32 343.12,139.57 380.45,150.87 395.02,154.44 406.8,156.7 418.69,158.33 430.65,159.27 439.64,159.51 451.64,159.21 463.6,158.22 475.49,156.62 487.29,154.46 499,151.85 522.19,145.65 576.81,129.36 597.13,124.08"   /><polyline id="SvgjsPolyline3193" points="300.02,293.79 300.46,194.79 300.92,161.8 301.47,146.81 302.24,137.84 303.46,131.97 304.81,129.31 309.48,125.61 312.37,124.88 315.36,124.97 321.22,126.26 329.73,129.16 354.87,139.01 368.97,144.15 383.26,148.69 394.86,151.76 406.6,154.25 421.44,156.41 433.4,157.33 445.4,157.52 457.38,156.99 469.32,155.79 484.14,153.46 495.89,151.03 519.14,145.11 576.72,128.24 599.98,122.35"   /><polyline id="SvgjsPolyline3194" points="301.83,113.08 299.3,111.55 331.77,127.08 345.43,133.29 362.06,140.17 379.02,146.18 393.43,150.33 408.08,153.54 422.93,155.68 437.89,156.68 452.89,156.52 464.85,155.6 479.71,153.58 491.5,151.36 514.83,145.72 572.44,128.96 598.58,122.24"   /><polyline id="SvgjsPolyline3195" points="299.9,2.67 299.67,62.67 299.18,86.67 298.28,95.61 297.13,98.37 294.62,99.93 288.7,100.65 282.82,99.52 274.34,96.52 246.58,85.15 232.54,79.87 218.29,75.19 206.72,72 192.06,68.85 180.19,67.09 168.24,66.05 156.24,65.74 144.25,66.16 129.33,67.63 117.47,69.48 102.78,72.49 76.65,79.28 24.84,94.5 1.59,100.45"   /><polyline id="SvgjsPolyline3196" points="303.11,286.6 305.28,281.01 307.96,275.64 311.23,270.62 315.18,266.11 319.85,262.36 322.44,260.84 327.99,258.58 333.85,257.32 339.83,256.93 345.82,257.21 351.77,257.99 360.58,259.84 372.13,263.07 412.09,275.98 423.67,279.15 435.38,281.78 447.21,283.78 456.13,284.91 465.11,285.6 474.1,285.84 486.09,285.45 498.04,284.31 509.9,282.47 524.57,279.35 536.18,276.33 553.41,271.15 598.94,255.93"   /><polyline id="SvgjsPolyline3197" points="308.42,276.81 312.21,272.17 314.42,270.14 319.45,266.88 322.21,265.71 325.08,264.86 331.01,264.02 337.01,264.15 342.94,265 348.78,266.39 354.51,268.17 365.7,272.49 376.65,277.41 414.55,295.49 425.59,300.2 436.81,304.45 448.23,308.12 462.77,311.8 474.56,314.06 486.46,315.56 495.44,316.19 507.43,316.39 519.42,315.93 531.38,314.91 543.29,313.44 558.11,311.12 599.41,303.51"   /><polyline id="SvgjsPolyline3198" points="300.57,2.49 301.21,44.49 302.29,71.46 303.87,86.37 305.12,92.24 307.07,97.91 309.94,103.17 313.27,108.15 317.38,112.52 324.41,118.12 331.98,122.99 342.48,128.8 353.26,134.06 367.05,139.96 378.31,144.12 389.75,147.73 401.37,150.72 413.14,153.04 425.03,154.63 437,155.47 449,155.56 460.98,154.92 472.91,153.63 481.8,152.26 502.37,148.03 525.58,141.92 574.55,127.71 597.81,121.8"   /><polyline id="SvgjsPolyline3199" points="287.9,2.65 285.39,11.29 282.29,19.74 278.36,27.83 275.11,32.87 271.22,37.43 266.64,41.3 261.46,44.31 255.85,46.41 247.02,48.1 235.04,48.58 223.05,48.03 193.13,45.89 172.14,45.53 154.17,46.56 136.33,48.92 118.69,52.51 98.41,57.94 78.39,64.28 30.13,80.75 15.82,85.25 1.39,89.34"   /><polyline id="SvgjsPolyline3200" points="294.26,0.26 292.25,15.12 290.05,26.92 286.99,38.52 283.95,46.98 281.24,52.33 277.75,57.2 273.31,61.22 268.02,64.02 265.16,64.93 259.25,65.93 253.26,66.11 247.27,65.76 235.37,64.21 199.85,58.39 190.91,57.34 178.95,56.41 169.95,56.11 157.96,56.27 140.02,57.73 131.11,58.98 119.3,61.13 98.88,65.98 78.7,71.82 27.22,88.12 1.2,95.3"   /><polyline id="SvgjsPolyline3201" points="297.26,0.63 295.94,21.59 294.53,36.52 292.81,48.4 290.85,57.18 288.91,62.85 284.84,70.86 283,73.23 280.83,75.29 278.32,76.93 275.56,78.09 272.64,78.8 266.67,79.18 257.73,78.21 248.91,76.38 211.06,67 199.29,64.69 187.42,62.93 178.47,62.02 166.48,61.39 154.49,61.46 145.5,61.97 136.54,62.84 124.66,64.53 112.87,66.76 101.18,69.44 78.03,75.76 23.48,92.31 0.27,98.38"   /><polyline id="SvgjsPolyline3202" points="298.94,2.02 297.53,46.99 296.42,61.95 295.23,70.87 293.9,76.72 292.91,79.55 291.54,82.21 289.64,84.53 284.74,87.96 281.93,88.98 278.96,89.38 275.96,89.33 267.11,87.78 258.45,85.31 224.19,74.28 209.7,70.38 197.98,67.83 186.14,65.88 174.21,64.61 162.22,64.06 150.23,64.22 138.26,65.08 126.35,66.57 114.53,68.62 99.88,71.84 76.7,78.06 24.95,93.47 1.72,99.49"   /><polyline id="SvgjsPolyline3203" points="308.31,275.69 311.78,270.81 316,266.55 320.96,263.18 323.67,261.9 326.49,260.9 332.36,259.68 338.35,259.38 344.33,259.79 353.19,261.35 364.75,264.56 376.09,268.47 412.65,282.06 424.07,285.73 435.64,288.9 447.37,291.42 459.24,293.21 471.2,294.2 483.19,294.38 495.17,293.78 507.1,292.47 518.94,290.53 530.69,288.08 553.92,282.05 599.92,268.35"   /><polyline id="SvgjsPolyline3204" points="312.57,2.37 317.94,28.83 320.89,40.46 324.34,51.95 328.45,63.23 332.05,71.47 336.17,79.47 340.86,87.15 346.14,94.44 351.99,101.27 358.38,107.61 365.24,113.43 372.52,118.72 380.14,123.49 388.07,127.75 399.04,132.62 407.51,135.66 416.14,138.19 424.91,140.2 433.79,141.69 442.73,142.67 451.72,143.16 460.72,143.19 472.7,142.57 490.57,140.41 511.19,136.48 528.7,132.32 575.16,120.23 598.55,114.89"   /><polyline id="SvgjsPolyline3205" points="305.49,2.7 308.78,32.51 310.62,44.37 312.97,56.14 315.9,67.77 318.65,76.34 322.07,84.66 326.26,92.62 331.29,100.08 335.09,104.72 341.37,111.16 348.22,117 355.51,122.27 365.75,128.52 373.73,132.67 384.71,137.53 393.14,140.67 404.61,144.17 416.3,146.87 425.18,148.36 437.11,149.62 446.1,150.03 455.1,150 467.08,149.31 476.03,148.36 487.89,146.58 508.46,142.34 528.8,137.13 575.06,124.31 598.38,118.66"   /><polyline id="SvgjsPolyline3206" points="275.56,2.31 269.79,9.21 262.89,14.97 257.72,18 249.34,21.27 240.57,23.22 228.63,24.43 216.64,24.75 186.64,24.83 165.67,25.97 150.79,27.77 133.1,31.09 115.66,35.56 95.66,41.93 75.93,49.13 31.14,66.39 2.76,76.09"   /><polyline id="SvgjsPolyline3207" points="284.49,1.28 282.12,6.79 279.34,12.11 276.07,17.14 272.22,21.73 267.75,25.72 265.29,27.44 257.43,31.82 251.81,33.91 243.03,35.82 231.07,36.8 219.08,36.81 186.09,36.04 168.1,36.61 153.16,37.99 135.39,40.83 117.85,44.84 97.69,50.72 77.8,57.46 27,75.77 1.24,83.85"   /><polyline id="SvgjsPolyline3208" points="324.39,0.27 332.79,25.93 340.59,45.42 345.76,56.24 350.06,64.15 354.75,71.83 359.87,79.23 365.44,86.3 371.47,92.98 377.94,99.23 384.85,104.99 392.16,110.24 399.83,114.95 407.82,119.08 416.09,122.63 430.36,127.23 439.14,129.2 448.03,130.6 456.99,131.46 465.98,131.82 474.98,131.7 483.96,131.17 498.87,129.51 519.55,125.92 537.15,122.13 575.14,113.3 598.65,108.48"   /><polyline id="SvgjsPolyline3209" points="261.27,0.77 255.86,3.38 250.2,5.35 244.37,6.77 238.45,7.73 223.49,8.78 187.5,8.9 169.52,9.74 151.64,11.78 142.77,13.3 131.04,15.83 113.69,20.63 93.83,27.43 77.06,33.96 27.16,54.6 1.83,63.94"   /><polyline id="SvgjsPolyline3210" points="337.6,2.46 347.06,24.51 356.47,43.28 365.74,58.7 370.87,66.09 376.38,73.21 382.29,79.99 388.61,86.4 395.35,92.37 400.06,96.08 407.46,101.21 415.21,105.77 423.29,109.74 428.83,112.04 437.33,114.97 443.11,116.57 448.96,117.91 457.84,119.41 472.78,120.68 481.77,120.78 490.77,120.45 505.7,119.1 523.51,116.48 579.43,105.45 597.15,102.26"   /><polyline id="SvgjsPolyline3211" points="146.72,0.41 134.93,2.61 123.26,5.42 111.74,8.77 97.54,13.6 75.21,22.39 22.83,44.86 0.43,53.48"   /><polyline id="SvgjsPolyline3212" points="349.84,0.7 359.39,19.4 369.91,37.57 380.01,52.46 385.53,59.58 391.39,66.41 401.98,77.01 406.52,80.94 413.65,86.43 421.16,91.39 426.36,94.38 431.7,97.1 439.96,100.67 448.47,103.6 454.25,105.2 466.01,107.58 480.93,109.12 489.92,109.38 498.92,109.21 513.88,108.14 531.74,105.91 579.07,97.94 599.83,94.76"   /><polyline id="SvgjsPolyline3213" points="99.28,0.25 88.01,4.38 74.1,9.99 24.63,31.64 2.4,40.68"   /><polyline id="SvgjsPolyline3214" points="363.23,0.72 374.06,18.71 384.11,33.63 395.17,47.83 405.31,58.87 416.43,68.94 423.58,74.39 428.55,77.75 433.68,80.87 441.64,85.06 452.71,89.69 464.18,93.19 475.93,95.61 490.84,97.24 505.83,97.56 520.81,96.86 535.74,95.45 598.19,87.13"   /><polyline id="SvgjsPolyline3215" points="66.65,0.1 22.69,19.37 0.5,28.52"   /><polyline id="SvgjsPolyline3216" points="378.08,2.34 388.43,17.06 399.55,31.21 409.6,42.34 420.49,52.65 432.31,61.87 442.44,68.3 453.14,73.73 464.31,78.1 475.84,81.38 487.63,83.63 499.56,84.94 514.54,85.46 526.54,85.18 541.51,84.21 598.21,78.42"   /><polyline id="SvgjsPolyline3217" points="34.29,1.16 1.1,15.1"   /><polyline id="SvgjsPolyline3218" points="391.33,0.47 400.75,12.14 410.72,23.34 421.38,33.9 430.47,41.72 440.12,48.85 450.32,55.16 461.05,60.53 472.22,64.89 483.75,68.21 495.52,70.55 507.43,71.99 519.41,72.68 531.41,72.77 546.4,72.25 597.27,68.63"   /><polyline id="SvgjsPolyline3219" points="4.9,0.63 2.1,1.73"   /><polyline id="SvgjsPolyline3220" points="408.07,2.18 416.4,10.82 427.37,21.05 436.66,28.64 446.44,35.59 456.73,41.75 464.77,45.8 473.05,49.32 484.41,53.16 493.13,55.41 504.92,57.61 516.84,59.01 528.82,59.73 552.81,59.73 597.77,57.78"   /><polyline id="SvgjsPolyline3221" points="422.84,0.27 431.93,8.1 441.44,15.42 448.85,20.52 459.14,26.69 467.15,30.79 478.19,35.49 486.7,38.42 495.37,40.84 504.15,42.77 513.03,44.25 524.96,45.59 533.93,46.19 554.93,46.64 599.92,45.79"   /><polyline id="SvgjsPolyline3222" points="441.73,0.59 449.2,5.61 456.9,10.27 464.83,14.53 472.97,18.35 481.32,21.71 489.85,24.59 504.37,28.33 522.13,31.24 540.06,32.73 558.05,33.27 597.05,33.15"   /><polyline id="SvgjsPolyline3223" points="465.29,1.22 476.25,6.1 490.4,11.08 504.92,14.82 519.69,17.39 531.62,18.73 549.58,19.8 597.58,20.21"   /><polyline id="SvgjsPolyline3224" points="496.56,0.39 505.33,2.38 514.19,3.97 523.11,5.18 535.06,6.3 559.03,7.26 598.03,7.31"   /></g></svg>