<?xml version="1.0" standalone="no"?>
<svg id="SvgjsSvg1001" width="600" height="600" xmlns="http://www.w3.org/2000/svg" version="1.1" xmlns:xlink="http://www.w3.org/1999/xlink" xmlns:svgjs="http://svgjs.com/svgjs" class="svg-paper" viewBox="0 0 600 600"><title id="SvgjsTitle6232">x=min((sin(x)+sin(sqrt(x*x + y*y))),y)|y=min(sqrt(x*x + y*y),x)|dTest=0.0|sd=0.2|sm=0.2|ts=0.05 | generated with FlowLines</title><style>*{fill:none;stroke:#777}</style><g id="SvgjsG6233"><polyline id="SvgjsPolyline6234" points="194.08,0.88 181.62,13.87 168.08,29.91 157.39,44.4 147.63,59.52 137.46,77.88 129.8,94.17 123.11,110.88 116.52,130.81 111.86,148.2 108.09,165.8 105.13,183.55 102.61,204.4 101.15,222.34 100.36,237.31 99.69,261.3 99.41,303.3 98.93,312.29 97.67,324.22 95.75,336.06 92.47,350.7 88.3,365.11 83.37,379.27 76.56,395.93 68.94,412.24 60.64,428.21 51.78,443.88 39.26,464.35 27.75,481.91 14.1,501.65 0,521.08"   /><polyline id="SvgjsPolyline6235" points="211.67,1.83 197.89,13.41 184.79,25.75 172.54,38.94 161.23,52.94 152.58,65.19 143.17,80.53 134.85,96.48 127.6,112.95 120.47,132.71 115.46,149.99 110.82,170.47 107.35,191.18 104.94,212.04 103.24,235.97 102.32,265.96 102.1,304.96 101.44,316.94 100.07,328.86 98.02,340.68 95.34,352.38 92.09,363.93 86.24,380.95 79.4,397.59 70.38,416.55 60.46,435.06 48.23,455.71 35.27,475.91 18.25,500.61 0.53,524.82"   /><polyline id="SvgjsPolyline6236" points="177.03,1.16 165.99,15.38 154.01,32.62 144.59,47.95 135.99,63.76 128.24,80.01 120.29,99.44 114.41,116.45 108.62,136.64 104.54,154.17 101.23,171.86 98.65,189.67 96.48,210.56 95.4,225.52 94.56,243.5 94.03,267.49 93.8,306.49 92.46,324.43 90.73,336.31 88.37,348.07 85.43,359.7 81,374.04 75.85,388.12 68.83,404.69 61.04,420.92 51.16,439.45 40.56,457.58 27.76,477.87 16.06,495.31 0.47,517.35"   /><polyline id="SvgjsPolyline6237" points="234.03,1.32 216.6,13.02 209.36,18.37 200,25.87 186.64,37.93 174.19,50.93 162.76,64.82 155.74,74.56 150.81,82.09 141.82,97.68 134,113.88 127.33,130.6 120.95,150.6 115.98,171 112.29,191.67 109.73,212.51 107.8,239.44 106.99,266.43 106.75,305.43 106.04,317.4 104.61,329.32 102.49,341.13 99.73,352.8 96.39,364.33 90.41,381.3 82.19,400.62 72.88,419.44 61.19,440.4 48.62,460.85 33.68,483.33 18.06,505.36 0.11,529.39"   /><polyline id="SvgjsPolyline6238" points="161.95,0.84 152.56,16.2 142.29,34.51 134.16,50.57 125.52,69.71 118.89,86.44 112.99,103.44 107.04,123.58 102.74,141.06 99.16,158.7 96.28,176.46 94.04,194.32 92.4,212.25 90.68,245.2 90.24,266.2 90.04,305.19 88.84,323.15 87.2,335.04 84.95,346.82 82.11,358.48 78.74,370 72.8,386.98 65.93,403.62 58.27,419.91 49.97,435.88 38.06,456.71 27,474.56 13.78,494.59 0.05,514.28"   /><polyline id="SvgjsPolyline6239" points="261.72,0.9 253.53,4.64 242.87,10.13 232.43,16.05 222.27,22.43 214.85,27.53 205.26,34.74 198.3,40.44 189.36,48.45 180.85,56.91 174.77,63.54 168.96,70.42 161.66,79.94 156.53,87.33 150.16,97.5 141.65,113.36 134.37,129.81 130.19,141.06 127.4,149.62 121.97,169.9 117.94,190.5 114.82,214.3 113.01,238.23 112.11,265.21 111.87,304.21 110.94,319.18 109.37,331.07 107.09,342.85 104.18,354.49 100.68,365.97 93.34,385.64 86,402.07 75.04,423.42 64.56,441.62 50.16,464.45 36.67,484.3 19.11,508.62 0.95,532.5"   /><polyline id="SvgjsPolyline6240" points="146.96,2.22 136.9,24.01 128.56,43.28 121.88,60 115.72,76.9 110.11,94.01 105.12,111.3 100.75,128.76 97.02,146.37 94.4,161.14 91.82,178.95 89.82,196.84 88.36,214.78 86.86,247.74 86.34,304.74 85.49,319.71 84.07,331.63 82.59,340.5 80.1,352.24 77.06,363.85 71.56,380.99 65.08,397.78 57.77,414.23 49.77,430.35 38.2,451.37 27.39,469.38 16.07,487.06 0.89,509.39"   /><polyline id="SvgjsPolyline6241" points="302.27,106.42 299.44,107.36 297.01,109.1 295.06,111.38 293.87,114.13 295.13,116.75 298.06,117.1 300.88,116.13 303.35,114.44 305.4,112.25 306.88,109.65 307.37,106.7 305.68,104.3 302.78,103.67 299.84,104.2 297.09,105.39 292.25,108.9 288.31,113.42 285.43,118.67 284.52,121.52 284.08,124.49 284.28,127.48 285.29,130.29 287.15,132.63 289.63,134.3 292.45,135.31 295.42,135.76 298.42,135.77 301.4,135.44 307.22,134.01 312.79,131.8 318.09,129 323.11,125.71 330.04,119.98 334.23,115.69 338.05,111.06 341.45,106.12 345.71,98.2 347.95,92.63 349.7,86.9 350.96,81.03 351.74,75.08 352.04,69.09 351.88,63.1 351.3,57.13 350.3,51.21 348.04,42.5 346.04,36.85 343.63,31.36 340.79,26.07 337.47,21.08 333.64,16.46 329.25,12.38 326.84,10.59 321.64,7.61 318.87,6.45 316.03,5.51 310.16,4.27 304.18,3.8 295.2,4.27 286.33,5.78 277.63,8.06 269.1,10.93 255.18,16.52 244.37,21.71 231.27,29.01 221.14,35.44 211.34,42.37 201.91,49.79 192.88,57.69 184.29,66.07 176.18,74.91 170.43,81.83 163.23,91.43 156.6,101.43 150.53,111.78 145.06,122.46 140.16,133.41 135.83,144.6 132.06,155.99 128.81,167.55 126.07,179.23 123.79,191.01 121.55,205.84 119.9,220.75 118.96,232.71 117.71,262.68 117.4,304.68 116.95,313.67 116.06,322.62 114.23,334.48 111.7,346.21 107.65,360.65 103.77,372 97.05,388.7 88.06,407.68 79.58,423.55 67.37,444.21 54.36,464.37 38.98,486.57 21.2,510.73 0.99,536.82"   /><polyline id="SvgjsPolyline6242" points="133.54,2.56 115.32,56.57 105.79,88.16 101.92,102.66 97.74,120.16 94.66,134.84 91.47,152.56 89.23,167.39 87.05,185.26 85.38,203.18 84.36,218.14 83.15,248.12 82.71,302.12 82.05,317.1 80.79,329.03 79.44,337.93 77.75,346.77 75,358.45 69.91,375.71 63.8,392.64 56.81,409.22 49.09,425.48 39.3,444.06 27.28,464.83 14.53,485.16 1.2,505.12"   /><polyline id="SvgjsPolyline6243" points="301.25,115.39 303.57,113.5 305.33,111.07 306.07,108.18 303.99,106.18 301.03,106.35 298.32,107.62 296,109.51 294.12,111.85 292.89,114.58 293.1,117.54 295.55,119.17 298.53,119.2 301.39,118.34 304.04,116.93 306.44,115.13 310.45,110.69 311.98,108.11 313.12,105.34 313.74,102.41 313.65,99.41 312.65,96.6 310.69,94.34 308.08,92.89 305.17,92.19 302.18,92.07 299.2,92.4 296.27,93.05 287.77,96 279.85,100.25 274.91,103.65 267.96,109.37 261.57,115.7 255.73,122.54 250.46,129.83 245.78,137.52 241.71,145.54 238.28,153.86 235.48,162.41 232.73,174.09 231.03,185.97 230.26,197.94 230.19,206.94 230.61,218.93 233.32,254.83 234.27,272.8 234.6,299.8 234.02,308.77 232.28,317.59 228.47,328.97 223.42,339.85 215.93,352.84 204.08,370.17 191.3,386.83 172.12,409.9 150.3,434.66 119.89,467.82 89.03,500.58 1.52,591.23"   /><polyline id="SvgjsPolyline6244" points="305.51,107.29 302.8,106.25 299.91,106.98 297.37,108.58 295.28,110.72 293.78,113.31 293.53,116.28 295.88,118 298.86,117.89 301.65,116.82 304.16,115.18 306.34,113.13 308.16,110.74 309.51,108.07 310.19,105.15 309.77,102.2 307.89,99.9 305.12,98.78 302.14,98.61 299.18,99.07 296.32,99.97 293.57,101.18 288.44,104.27 281.58,110.08 275.71,116.89 269.27,127.01 265.53,135.19 263.03,143.82 262.13,149.75 262.1,158.74 263.03,164.66 264.8,170.39 266.02,173.13 269.11,178.27 273.05,182.78 277.77,186.48 283.07,189.26 285.89,190.29 291.72,191.69 297.68,192.29 303.68,192.23 309.65,191.62 315.55,190.57 324.26,188.32 332.78,185.41 338.34,183.15 346.49,179.34 354.39,175.04 362.02,170.26 369.31,164.99 376.22,159.22 380.57,155.1 386.67,148.48 390.41,143.79 393.87,138.89 398.48,131.16 402.38,123.05 404.57,117.47 407.28,108.89 409.33,100.13 411.47,85.29 412.39,70.32 412.49,55.32 411.89,22.32 412.52,1.34"   /><polyline id="SvgjsPolyline6245" points="294.72,116.83 297.59,117.45 300.47,116.66 303.04,115.12 305.24,113.08 306.99,110.65 308.1,107.87 308.04,104.89 306.03,102.73 303.13,102.08 300.16,102.45 297.33,103.43 292.18,106.48 289.86,108.38 285.73,112.73 282.32,117.66 279.76,123.08 278.28,128.88 278.07,131.87 278.3,134.86 279.05,137.76 280.37,140.45 282.24,142.79 284.56,144.68 289.84,147.51 292.68,148.49 295.61,149.09 301.6,149.35 310.49,148.06 319.08,145.39 327.29,141.71 335.09,137.22 342.42,132.01 349.22,126.12 355.42,119.6 360.93,112.49 365.67,104.84 368.38,99.49 370.72,93.97 374.33,82.53 376.61,70.76 377.59,61.81 378.14,49.83 377.55,13.83 377.69,1.83"   /><polyline id="SvgjsPolyline6246" points="294.03,115.16 296.34,116.9 299.29,116.56 301.95,115.19 304.2,113.2 305.9,110.74 306.69,107.86 305.08,105.43 302.15,105.02 299.27,105.83 296.66,107.3 294.34,109.19 292.33,111.41 290.66,113.9 289.43,116.64 288.85,119.58 289.3,122.53 291.11,124.89 293.8,126.19 296.76,126.59 299.75,126.37 302.67,125.7 305.49,124.69 310.82,121.94 317.95,116.47 322.07,112.12 325.65,107.3 328.93,102.28 331.59,96.91 334.3,88.34 334.83,85.39 335.29,79.41 334.93,73.43 333.68,67.56 332.71,64.73 330.08,59.34 326.51,54.53 322.07,50.51 316.92,47.45 314.15,46.31 308.36,44.76 302.4,44.09 293.41,44.41 287.48,45.3 278.73,47.4 270.19,50.22 259.12,54.84 251.05,58.83 240.62,64.76 230.58,71.32 223.31,76.63 214,84.2 207.33,90.24 200.95,96.58 192.91,105.5 185.47,114.91 180.3,122.28 175.5,129.89 171.08,137.72 167.04,145.76 162.24,156.76 156.3,173.75 153.13,185.32 151.14,194.1 147.64,214.8 145.3,238.68 144.17,265.65 143.86,304.65 142.7,319.6 140.19,334.38 137.29,346.02 133.69,357.47 128.34,371.48 120.9,387.87 109.61,409.04 98.77,427.03 83.86,449.53 66.34,473.89 46.26,500.07 23.64,528.08 0.48,555.64"   /><polyline id="SvgjsPolyline6247" points="303.53,106.41 300.59,106.82 297.98,108.28 295.81,110.34 294.23,112.89 293.97,115.85 296.46,117.34 299.41,116.96 302.1,115.65 304.42,113.76 306.32,111.43 307.63,108.74 307.89,105.77 306.13,103.4 303.26,102.64 300.29,102.99 297.47,103.99 294.83,105.41 290.11,109.1 288.03,111.26 284.45,116.07 281.78,121.43 280.31,127.23 280.19,130.23 280.6,133.2 281.63,136.01 283.31,138.49 285.54,140.48 288.16,141.94 291,142.89 293.95,143.42 296.95,143.58 302.92,143.07 311.61,140.78 317.17,138.53 322.52,135.81 327.64,132.69 332.52,129.19 337.13,125.36 341.46,121.21 345.47,116.75 349.15,112.01 353.96,104.41 357.87,96.31 359.97,90.69 361.66,84.94 363.48,76.12 364.66,67.2 365.09,61.22 365.22,52.22 364.6,40.24 360.1,1.5"   /><polyline id="SvgjsPolyline6248" points="307.01,106.78 305.03,104.62 302.08,104.3 299.19,105.06 296.52,106.43 291.94,110.28 288.43,115.13 287.18,117.85 286.38,120.74 286.23,123.73 286.99,126.63 288.77,129.02 291.3,130.61 294.18,131.43 297.17,131.66 300.16,131.43 305.98,130 311.5,127.67 316.69,124.66 321.53,121.12 328.08,114.96 333.67,107.92 336.81,102.81 339.42,97.4 341.46,91.77 342.93,85.95 343.78,80.02 344.03,74.02 343.65,68.04 341.89,59.22 338.65,50.84 334.21,43.02 332.45,40.59 328.41,36.16 323.74,32.41 321.18,30.84 315.73,28.35 312.87,27.44 306.99,26.25 298.01,25.84 292.03,26.3 283.17,27.83 274.47,30.13 265.95,33.03 254.88,37.65 246.78,41.58 236.27,47.37 228.61,52.09 221.15,57.12 211.54,64.3 204.6,70.03 195.73,78.12 187.36,86.71 181.43,93.48 175.81,100.51 170.52,107.79 164,117.86 159.52,125.67 155.4,133.67 150.46,144.6 147.16,152.98 143.3,164.33 140.01,175.88 137.28,187.56 135.06,199.35 133.29,211.22 130.95,235.1 129.75,262.07 129.41,304.07 128.4,319.03 126.68,330.91 123.48,345.56 119.23,359.94 115.18,371.23 106.91,390.54 97.45,409.28 87.05,427.52 74.29,447.85 59.09,470.16 41.4,494.39 21.24,520.51 0.51,546.19"   /><polyline id="SvgjsPolyline6249" points="306.91,109.99 307.66,107.09 306.53,104.36 303.79,103.25 300.81,103.46 297.98,104.41 295.34,105.84 292.9,107.59 288.65,111.81 286.84,114.2 283.98,119.46 283.01,122.3 282.44,125.25 282.38,128.24 282.97,131.18 284.31,133.86 286.35,136.04 288.89,137.62 291.72,138.62 294.67,139.12 297.67,139.22 303.62,138.51 309.4,136.91 314.96,134.65 320.27,131.87 325.33,128.65 330.11,125.03 334.6,121.05 338.76,116.72 342.56,112.09 345.98,107.16 348.99,101.97 351.57,96.55 353.7,90.95 356.07,82.27 357.46,73.38 357.96,64.4 357.41,52.42 355.66,40.55 352.96,28.86 348.56,14.52 343.43,0.43"   /><polyline id="SvgjsPolyline6250" points="121.21,1.59 116.5,22.05 102.36,77.27 96.84,100.62 90.84,130.01 86.09,159.63 82.67,189.44 80.37,222.35 79.37,252.34 79.04,303.33 78.53,315.32 76.58,333.21 75.09,342.09 72.6,353.82 67.88,371.19 63.13,385.42 56.58,402.18 47.94,421.32 38.42,440.04 28.17,458.36 15.73,478.88 0.98,501.5"   /><polyline id="SvgjsPolyline6251" points="306.19,107.64 303.94,105.81 300.98,106 298.25,107.22 295.86,109.03 293.85,111.26 292.31,113.83 291.49,116.71 292.17,119.6 294.6,121.28 297.57,121.61 300.52,121.1 303.33,120.06 308.44,116.94 312.82,112.85 314.71,110.52 317.8,105.39 318.94,102.62 320.2,96.77 320.21,93.77 319.7,90.82 318.62,88.03 316.94,85.54 314.75,83.5 312.17,81.97 306.54,79.92 303.61,79.33 300.62,79.1 294.64,79.52 285.9,81.64 277.54,84.96 266.97,90.63 257.03,97.34 249.99,102.94 241.15,111.05 234.95,117.58 227.31,126.83 220.41,136.64 212.89,149.61 206.64,163.24 201.66,177.39 199.25,186.06 197.24,194.83 195.6,203.68 193.93,215.56 192.14,236.48 191.27,260.46 191.01,302.46 190.09,314.42 187.93,326.22 184.68,337.77 180.52,349.02 174.3,362.67 164.19,381.07 152.92,398.79 137.31,420.81 118.98,444.56 96.1,472.35 70.61,501.86 38.59,537.62 2.01,577.35"   /><polyline id="SvgjsPolyline6252" points="292.94,116.02 294.68,118.37 297.6,118.84 300.52,118.17 303.21,116.85 305.64,115.1 307.79,113.01 309.63,110.64 311.09,108.03 312.09,105.2 312.44,102.23 311.84,99.3 310.12,96.86 307.57,95.31 304.66,94.63 301.66,94.59 295.8,95.8 290.27,98.1 285.08,101.11 277.9,106.53 271.44,112.79 265.68,119.7 260.67,127.17 256.45,135.12 254.11,140.64 251.35,149.2 250.03,155.05 248.36,166.93 248.1,172.92 248.5,181.91 249.26,187.86 250.43,193.75 252.89,202.4 255,208.02 258.83,216.15 261.84,221.34 265.22,226.3 268.99,230.96 273.2,235.24 277.86,239.01 282.99,242.11 285.72,243.34 288.55,244.34 294.41,245.62 297.39,245.9 303.39,245.86 309.34,245.15 315.2,243.86 320.92,242.05 329.21,238.56 334.56,235.85 342.35,231.34 349.9,226.44 359.68,219.49 371.56,210.33 383.16,200.82 392.27,193.02 398.75,186.77 404.77,180.08 410.24,172.94 413.57,167.94 418.02,160.13 422.92,149.18 425.82,140.66 427.39,134.87 429.74,123.11 431.37,108.2 431.82,96.21 431.69,84.21 430.96,69.23 427.86,24.34 427.56,12.34 427.78,0.35"   /><polyline id="SvgjsPolyline6253" points="297.17,116.79 300.06,116.07 302.59,114.47 304.64,112.29 306,109.63 305.52,106.72 302.73,105.82 299.84,106.53 297.25,108.04 295.04,110.06 293.26,112.47 292.08,115.23 292.08,118.21 294.14,120.32 297.06,120.89 300.02,120.47 302.84,119.45 305.47,118.02 310.16,114.29 313.99,109.68 315.53,107.11 317.68,101.53 318.18,98.57 318.17,95.57 317.57,92.64 316.3,89.93 314.37,87.64 311.92,85.91 309.16,84.76 306.23,84.12 303.24,83.91 297.28,84.45 291.46,85.92 285.85,88.04 280.45,90.64 275.24,93.63 265.42,100.51 260.79,104.33 254.21,110.46 250.06,114.8 244.23,121.65 238.86,128.87 235.56,133.88 229.63,144.31 225.74,152.42 222.25,160.72 217.58,174.97 214.23,189.58 211.72,207.4 210.34,228.35 209.93,252.35 209.95,300.35 209.47,309.33 208.13,318.23 205.14,329.84 201.01,341.11 194.65,354.69 190.34,362.59 184.16,372.87 170.72,392.76 154.48,414.32 133.63,439.9 110.13,467.16 78.05,502.87 41.34,542.48 0.1,586.06"   /><polyline id="SvgjsPolyline6254" points="295.22,110.36 293.55,112.85 292.7,115.72 293.92,118.4 296.74,119.29 299.7,118.9 302.48,117.79 305.03,116.21 307.32,114.29 311.08,109.63 312.46,106.97 313.38,104.12 313.72,101.14 313.24,98.18 311.78,95.58 309.46,93.7 306.67,92.62 303.7,92.22 300.7,92.34 294.86,93.63 289.3,95.88 284.04,98.76 279.06,102.11 272.12,107.83 265.79,114.22 261.91,118.8 258.31,123.6 253.47,131.18 250.62,136.46 246.96,144.68 244.04,153.19 242.52,158.99 240.88,167.84 239.98,176.79 239.88,188.79 240.54,197.76 241.74,206.68 243.88,218.49 252.28,253.49 254.66,265.25 256.22,277.15 256.88,289.13 256.95,301.12 256.77,304.12 255.81,310.04 254.16,315.8 251.95,321.38 246.37,332 241.53,339.58 236.33,346.93 223.35,363.43 203.73,386.12 181.45,410.47 154.67,438.82 113,481.98 1.52,595.36"   /><polyline id="SvgjsPolyline6255" points="295.17,116.32 298.09,116.7 300.88,115.65 303.28,113.85 305.15,111.52 306.17,108.71 304.65,106.24 301.7,106.03 298.91,107.09 296.46,108.82 294.42,111.01 292.87,113.57 292.16,116.48 293.37,119.17 296.13,120.26 299.11,120.08 301.97,119.18 307.08,116.08 311.33,111.86 314.55,106.81 315.67,104.03 316.39,101.12 316.59,98.13 316.16,95.17 314.97,92.42 313.03,90.14 310.54,88.49 307.72,87.47 304.76,87 301.76,86.96 298.78,87.27 292.95,88.65 287.34,90.78 279.36,94.93 271.89,99.93 267.17,103.64 262.66,107.6 256.3,113.97 250.44,120.79 246.81,125.56 243.41,130.51 238.78,138.22 234.7,146.25 231.21,154.54 227.44,165.93 224.65,177.6 222.77,189.44 221.67,201.39 221.18,213.38 221.12,225.38 222.09,270.37 222.26,300.37 222,306.36 221.29,312.32 220.16,318.21 218.64,324.01 214.62,335.31 208.18,348.86 200.67,361.83 188.97,379.27 174.55,398.46 155.59,421.7 134.01,446.66 107.92,475.65 75.28,510.85 0.73,588.99"   /><polyline id="SvgjsPolyline6256" points="296.09,109.84 294.34,112.27 293.48,115.13 295.19,117.48 298.14,117.74 300.99,116.82 303.53,115.25 305.74,113.22 307.55,110.83 308.85,108.13 309.34,105.18 308.4,102.36 305.98,100.64 303.04,100.15 300.06,100.49 294.46,102.58 291.86,104.08 287.07,107.68 280.86,114.18 275.89,121.67 272.36,129.93 271.01,135.77 270.67,141.76 271.57,147.68 272.56,150.51 275.3,155.84 277.02,158.3 279.05,160.5 281.36,162.41 283.89,164.01 289.44,166.26 292.36,166.96 298.32,167.61 307.29,167.14 313.2,166.09 319.01,164.59 330.28,160.49 341.04,155.18 351.2,148.81 360.63,141.41 369.19,133 374.91,126.05 378.35,121.14 384.24,110.7 388.8,99.6 390.58,93.87 392.68,85.12 394.55,73.27 395.56,61.32 396.03,46.33 396.21,16.33 396.96,1.35"   /><polyline id="SvgjsPolyline6257" points="299.53,107.08 297.04,108.74 294.99,110.93 293.52,113.54 293.25,116.5 295.49,118.37 298.47,118.44 301.31,117.52 303.91,116.02 306.21,114.1 308.21,111.87 309.85,109.36 311.03,106.6 311.57,103.66 311.16,100.7 309.5,98.22 306.93,96.71 304,96.13 301,96.21 298.06,96.77 295.2,97.68 289.77,100.22 284.72,103.46 280.04,107.2 275.7,111.35 271.72,115.83 268.09,120.61 264.85,125.65 262,130.93 259.57,136.42 256.8,144.97 255.16,153.82 254.75,162.8 255.69,171.74 257.1,177.57 259.18,183.2 263.42,191.13 266.85,196.04 268.81,198.31 273.21,202.39 278.18,205.74 280.85,207.11 286.46,209.21 292.32,210.48 298.29,211 304.29,210.88 310.25,210.23 319.08,208.5 327.74,206.06 336.22,203.05 344.52,199.57 352.62,195.65 360.51,191.31 368.14,186.55 375.49,181.35 382.49,175.7 389.08,169.58 395.19,162.97 400.74,155.89 405.66,148.35 409.9,140.42 413.44,132.15 416.28,123.61 418.47,114.88 420.83,100.08 421.94,82.12 421.81,64.12 420.12,22.15 420.45,1.16"   /><polyline id="SvgjsPolyline6258" points="293.77,116.73 296.37,118.08 299.33,117.78 302.08,116.6 304.54,114.88 306.67,112.77 308.42,110.34 309.68,107.62 310.23,104.68 309.6,101.76 307.53,99.63 304.71,98.66 301.72,98.6 298.77,99.13 295.92,100.07 293.2,101.32 288.09,104.46 281.27,110.31 275.43,117.16 270.64,124.77 267.05,133.01 264.86,141.73 264.34,147.7 264.7,153.68 266.06,159.52 268.51,164.98 270.16,167.49 274.25,171.86 279.22,175.2 284.78,177.44 293.55,179.42 299.53,179.84 305.52,179.58 311.46,178.77 317.33,177.53 328.79,173.97 334.36,171.75 342.51,167.94 350.38,163.58 355.46,160.38 360.38,156.95 367.43,151.35 376.1,143.07 381.95,136.24 385.5,131.4 391.67,121.12 394.27,115.71 397.55,107.33 399.33,101.6 401.46,92.86 403.37,81.02 404.58,66.07 404.9,54.07 404.84,18.07 405.7,0.1"   /><polyline id="SvgjsPolyline6259" points="305.15,111.84 306.38,109.12 305.76,106.24 302.99,105.27 300.06,105.83 297.39,107.2 295.03,109.05 293.01,111.26 291.37,113.76 290.24,116.54 289.92,119.51 291.02,122.28 293.46,123.98 296.38,124.57 299.37,124.39 302.29,123.69 305.09,122.62 310.31,119.68 314.99,115.93 319.09,111.56 320.91,109.18 324.01,104.05 325.28,101.33 327.14,95.63 327.99,89.7 327.98,86.7 326.96,80.8 325.91,77.99 324.48,75.36 320.87,70.57 318.76,68.45 313.75,65.17 308.09,63.21 302.15,62.41 296.16,62.51 290.22,63.31 284.37,64.64 278.63,66.4 273.01,68.5 264.8,72.17 251.68,79.44 239.28,87.87 227.64,97.33 216.83,107.72 206.94,118.99 198.06,131.07 193.25,138.67 188.84,146.52 184.85,154.59 181.27,162.84 178.1,171.27 175.33,179.83 170.91,197.27 168.71,209.07 167.42,217.97 165.38,238.87 164.24,265.84 163.92,304.84 162.58,319.77 160.39,331.57 157.32,343.17 153.48,354.54 147.77,368.4 139.86,384.57 127.95,405.4 113.22,428.03 97.53,450 77.44,476.18 54.74,504.11 27.53,536.11 1.79,565.4"   /><polyline id="SvgjsPolyline6260" points="108.86,1.97 106.55,19.82 103.56,37.57 91.92,96.43 87.59,120.04 83.83,143.74 80.77,167.54 77.98,197.41 76.41,224.36 75.6,251.35 75.28,302.35 74.84,314.34 72.99,332.24 69.81,349.95 65.4,367.4 59.92,384.54 53.49,401.36 45,420.56 35.6,439.34 25.46,457.73 13.14,478.32 0.17,498.51"   /><polyline id="SvgjsPolyline6261" points="304.26,105.52 301.29,105.55 298.51,106.64 296.02,108.31 293.87,110.4 292.09,112.81 290.78,115.5 290.19,118.44 290.92,121.33 293.17,123.26 296.06,123.99 299.05,123.88 301.97,123.2 304.78,122.13 309.98,119.16 312.37,117.34 316.71,113.21 318.64,110.91 321.98,105.94 323.36,103.28 325.46,97.66 326.13,94.74 326.6,88.77 326.33,85.78 325.7,82.85 324.67,80.03 323.23,77.4 321.4,75.03 319.21,72.99 316.72,71.31 311.17,69.08 305.25,68.16 299.26,68.26 293.32,69.12 287.5,70.56 276.24,74.69 265.51,80.05 255.3,86.35 245.61,93.42 234.27,103.23 225.86,111.78 218.08,120.92 209.34,133.11 204.65,140.78 200.38,148.71 194.24,162.39 188.31,179.38 183.84,196.81 182.15,205.65 180.38,217.52 178.41,238.42 177.4,262.4 177.04,304.39 176.04,316.35 173.94,328.16 170.85,339.75 165.83,353.88 159.76,367.59 149.93,386.15 137.34,406.58 122,428.79 105.8,450.39 85.21,476.17 60.11,506.03 32.47,537.65 0.34,573.31"   /><polyline id="SvgjsPolyline6262" points="298.86,107.4 296.47,109.2 294.53,111.49 293.23,114.18 293.39,117.15 295.89,118.68 298.87,118.57 301.69,117.58 304.26,116.04 306.56,114.12 308.57,111.89 310.23,109.4 311.47,106.67 312.13,103.75 311.98,100.76 310.7,98.06 308.39,96.17 305.56,95.21 302.58,94.99 296.68,96 291.11,98.21 285.89,101.17 278.7,106.57 272.24,112.83 268.34,117.38 263.12,124.71 260.08,129.88 257.42,135.26 254.18,143.65 251.9,152.35 250.95,158.28 250.47,164.25 250.47,170.25 250.96,176.23 251.95,182.15 253.43,187.96 255.42,193.62 257.93,199.07 260.96,204.24 266.55,211.28 270.98,215.33 275.82,218.86 281.02,221.85 283.77,223.04 286.61,224.01 292.46,225.33 301.43,225.86 307.41,225.43 316.28,223.92 322.1,222.46 330.63,219.61 338.92,216.1 346.97,212.08 357.37,206.11 364.97,201.28 374.87,194.5 382.09,189.12 386.71,185.3 393.31,179.18 399.44,172.6 405.04,165.55 408.44,160.61 413,152.85 418.02,141.96 420.99,133.47 422.6,127.69 425.01,115.94 426.69,101.04 427.18,89.05 427.11,77.05 424.42,26.12 424.16,14.13 424.38,2.13"   /><polyline id="SvgjsPolyline6263" points="297.07,119.1 300.02,118.6 302.77,117.4 305.27,115.75 309.46,111.48 311.09,108.96 312.31,106.22 313.02,103.31 313.01,100.32 312.03,97.5 310.03,95.29 307.36,93.93 304.43,93.35 301.43,93.35 298.46,93.79 292.74,95.57 284.75,99.69 279.82,103.1 272.96,108.92 268.74,113.19 262.97,120.09 257.89,127.51 253.53,135.38 251.04,140.84 247.99,149.3 245.77,158.02 244.76,163.93 244.13,169.9 243.88,178.89 244.16,184.89 245.22,193.82 246.32,199.72 248.51,208.45 253.44,222.61 259.67,236.25 265.34,246.82 271.49,257.13 278.12,267.13 283.45,274.38 287.25,279.01 291.48,283.27 293.88,285.06 296.59,286.34 299.53,286.85 302.52,286.62 305.4,285.79 308.13,284.55 313.21,281.37 317.98,277.73 333.71,263.82 363.97,234.7 400.27,198.87 406.44,192.33 410.29,187.73 415.61,180.47 420.34,172.81 424.43,164.8 428.87,153.65 430.66,147.93 432.83,139.2 435.2,124.39 436.25,109.43 436.34,97.43 435.91,85.44 431.35,28.63 430.72,13.64 430.78,1.64"   /><polyline id="SvgjsPolyline6264" points="301.69,117.88 304.28,116.38 306.62,114.51 308.69,112.33 310.43,109.9 311.81,107.23 312.7,104.37 312.94,101.39 312.27,98.47 310.52,96.05 307.98,94.48 305.09,93.73 302.09,93.61 299.12,93.97 293.37,95.65 287.94,98.2 282.83,101.35 278.03,104.94 273.53,108.9 267.32,115.42 261.79,122.51 256.97,130.11 252.91,138.14 249.65,146.52 247.24,155.19 245.71,164.05 245.05,173.03 245.09,179.03 245.86,187.99 247.41,196.85 248.86,202.67 251.62,211.24 255.02,219.57 259.04,227.62 262.06,232.8 267.12,240.24 270.91,244.89 275.1,249.18 279.79,252.92 285.03,255.82 290.53,258.18 293.44,258.94 299.39,259.58 305.38,259.23 311.25,258.04 316.95,256.17 322.45,253.77 327.75,250.97 335.42,246.26 345.23,239.35 352.36,233.86 375.3,214.54 399.65,192.27 405.73,185.63 411.3,178.56 416.28,171.07 420.64,163.2 425.42,152.2 428.24,143.66 429.76,137.85 432.45,123.1 433.75,108.16 433.99,96.17 433.7,84.17 429.58,27.32 429.08,12.33 429.25,0.34"   /><polyline id="SvgjsPolyline6265" points="293.2,113.79 292.88,116.75 294.96,118.82 297.91,119.12 300.82,118.4 303.5,117.06 305.94,115.32 308.11,113.25 310,110.92 311.55,108.36 312.69,105.58 313.29,102.65 313.15,99.66 312.03,96.89 309.94,94.76 307.24,93.48 304.29,92.94 301.29,92.97 298.33,93.42 292.6,95.19 287.19,97.77 279.64,102.66 274.97,106.42 268.5,112.67 264.53,117.17 259.13,124.37 254.43,132.03 251.69,137.37 248.22,145.67 246.35,151.37 244.83,157.18 243.24,166.03 242.46,175 242.46,183.99 243.18,192.96 245.15,204.79 247.28,213.54 250.8,225.01 262.45,255.88 265.35,264.4 267.61,273.11 269.19,281.97 270.02,293.93 270.06,299.93 269.48,305.89 268.78,308.81 266.75,314.45 262.59,322.42 259.36,327.48 254.1,334.78 242.77,348.77 226.86,366.73 202.27,393.03 171.05,425.43 131.17,466.16 0.24,598.27"   /><polyline id="SvgjsPolyline6266" points="96.92,0.74 96.06,21.72 93.96,42.61 91.1,63.42 80.25,134.59 77.65,155.43 75.24,179.31 73.29,206.24 72.11,233.21 71.55,260.2 71.12,311.2 69.55,329.13 66.64,346.88 62.5,364.4 57.27,381.62 51.07,398.52 44.06,415.09 35,434.04 25.15,452.58 14.66,470.77 0.38,493.68"   /><polyline id="SvgjsPolyline6267" points="313.08,102.4 312.79,99.42 311.46,96.74 309.2,94.8 306.41,93.72 303.44,93.35 300.45,93.51 294.63,94.92 291.83,96 286.48,98.72 279.04,103.76 272.26,109.68 268.1,114 262.41,120.97 257.42,128.45 253.16,136.38 249.67,144.67 247.01,153.26 245.71,159.12 244.46,168.03 244.1,174.02 244.25,183.01 245.19,191.96 246.23,197.87 248.34,206.62 251.06,215.19 254.33,223.58 258.09,231.76 262.28,239.72 266.88,247.45 271.91,254.92 277.47,261.99 281.63,266.31 286.38,269.95 289.05,271.32 291.9,272.25 294.86,272.73 300.86,272.89 303.84,272.63 309.67,271.23 315.2,268.93 320.46,266.05 327.96,261.07 342.1,249.94 355.66,238.1 368.93,225.94 401.48,194.87 407.51,188.19 413.03,181.09 417.97,173.56 422.28,165.67 427.01,154.64 429.79,146.09 431.3,140.28 433.96,125.53 435.24,110.58 435.47,98.59 435.01,83.6 430.6,26.77 430.13,14.78 430.16,2.78"   /><polyline id="SvgjsPolyline6268" points="312.5,98.29 310.81,95.84 308.31,94.2 305.43,93.39 302.44,93.21 296.53,94.18 290.91,96.26 285.61,99.06 280.61,102.38 273.67,108.1 267.37,114.53 263.54,119.14 258.35,126.49 253.88,134.3 250.17,142.5 248.14,148.14 245.78,156.82 244.68,162.72 243.59,174.66 243.94,186.65 245.61,198.53 246.89,204.39 249.31,213.05 253.34,224.35 258.12,235.36 264.89,248.75 277.88,272.41 280.42,277.85 282.4,283.51 283.48,289.4 283.9,301.38 283.38,304.34 282.43,307.18 279.67,312.5 274.48,319.85 264.82,331.32 250.58,346.75 229.78,368.37 153.9,445.22 1.39,598.18"   /><polyline id="SvgjsPolyline6269" points="257.41,128.16 251.84,138.78 248.58,147.16 246.14,155.82 244.54,164.67 243.79,173.64 243.86,182.64 244.7,191.59 246.93,203.38 249.33,212.05 252.28,220.55 255.7,228.87 260.89,239.7 268.15,252.82 277.71,268.07 292.97,290.34 294.37,292.99 296.91,294.49 297.18,297.44 299.97,296.48 298.21,301.2 294.2,305.65 283.64,316.31 1.53,598.47"   /><polyline id="SvgjsPolyline6270" points="599.89,599.8 345.64,344.94 320.76,318.92 315.06,311.96 313.43,309.44 312.16,306.72 311.56,303.79 311.73,300.81 312.52,297.92 314.91,292.42 316.39,289.81 321.67,282.53 329.5,273.44 343.83,258.09 406.74,193.73 414.21,184.35 419.16,176.83 423.49,168.95 427.17,160.74 431.07,149.39 434.42,134.78 436,122.89 436.86,107.91 436.83,95.92 436.12,80.93 431.47,24.13 431.06,12.13 431.18,0.14"   /><polyline id="SvgjsPolyline6271" points="84.92,0.7 85.59,12.68 85.72,24.68 85.24,39.67 84.44,51.64 82.12,75.53 73.34,150.01 71.12,173.91 69.42,197.85 68.27,221.82 67.66,242.81 67.09,308.8 66.04,323.77 64.07,338.63 61.21,353.36 56.73,370.79 51.2,387.91 43.63,407.5 35.02,426.65 25.57,445.4 13.9,466.37 1.49,486.91"   /><polyline id="SvgjsPolyline6272" points="599.4,599.65 421.02,421.64 346.23,347.94 328.71,331.54 317.18,321.96 312.15,318.69 309.45,317.38 306.6,316.46 303.63,316.06 297.65,316.37 294.73,317.04 291.93,318.1 286.67,320.98 281.74,324.41 274.72,330.03 256.87,346.07 224.44,377.27 183.84,417.28 1.07,599.37"   /><polyline id="SvgjsPolyline6273" points="599.9,582.83 550.82,530.14 512.65,487.81 481.33,451.44 456.86,421.07 446.05,406.69 435.67,391.98 429.08,381.95 421.34,369.1 415.65,358.54 410.55,347.68 406.21,336.5 403.56,327.89 401.55,319.12 400.61,313.2 400,307.23 399.75,298.24 400.31,289.26 401.12,283.31 403.7,271.6 408.46,257.38 414.54,243.68 421.6,230.44 433.96,209.88 438.01,201.84 440.39,196.33 443.49,187.89 446.76,176.34 448.59,167.53 450.28,155.65 451.03,146.69 451.43,134.69 450.78,113.71 448.51,89.82 441.24,33.29 439.84,15.34 439.55,0.35"   /><polyline id="SvgjsPolyline6274" points="599.68,591.38 539.28,528.76 491.93,478.58 455.57,438.65 428.09,406.89 416.71,392.95 407.51,381.1 398.68,368.98 391.99,359.01 385.77,348.75 380.21,338.12 376.63,329.87 373.73,321.35 371.69,312.59 370.89,306.65 370.58,300.65 370.78,294.66 371.47,288.7 372.63,282.82 374.22,277.03 377.26,268.56 379.65,263.06 383.69,255.02 392.91,239.57 403.15,224.77 421.29,200.88 427.64,190.7 431.72,182.68 435.17,174.37 438.02,165.84 440.91,154.19 442.44,145.32 443.72,133.39 444.25,121.41 444.16,109.41 442.61,85.46 436.6,28.78 435.74,13.81 435.64,1.81"   /><polyline id="SvgjsPolyline6275" points="599.54,595.59 530.15,524.97 477.93,471.14 436.65,427.6 406.36,394.32 392.65,378.41 383.16,366.8 374.01,354.91 367.08,345.12 360.7,334.95 356.5,327 353.04,318.7 351.29,312.96 350.13,307.07 349.64,301.1 350.25,292.13 351.5,286.26 353.31,280.55 358.2,269.6 365.86,256.71 376.3,242.05 389.4,225.64 412.9,198.37 419.98,188.69 424.62,180.98 428.64,172.93 433.01,161.76 435.56,153.13 437.53,144.35 439.31,132.48 440.25,120.52 440.46,105.53 440.03,93.53 439.2,81.56 434.1,27.81 433.39,12.82 433.41,0.83"   /><polyline id="SvgjsPolyline6276" points="598.26,596.52 456.96,453.57 413.13,408.32 382.35,375.49 362.54,352.96 355,343.63 349.62,336.41 344.65,328.91 340.25,321.07 337.69,315.64 335.71,309.98 334.54,304.1 334.31,301.11 334.34,298.11 335.17,292.18 337.99,283.64 340.61,278.25 343.61,273.05 352.14,260.72 365.34,244.39 381.21,226.39 407.72,197.79 413.45,190.84 418.63,183.49 424.61,173.09 428.35,164.91 431.45,156.46 434.61,144.89 436.75,133.08 437.99,121.15 438.51,106.16 438.26,94.17 437.58,82.19 432.62,25.41 432.13,13.42 432.16,1.42"   /><polyline id="SvgjsPolyline6277" points="72.96,1.66 74.43,13.57 75.5,28.53 75.8,43.53 75.48,58.52 73.83,85.47 67.89,151.2 65.08,190.1 63.93,214.07 63.21,238.06 62.64,307.06 61.73,322.02 59.89,336.91 56.55,354.59 52.06,372.02 46.55,389.15 40.15,405.98 32.99,422.49 23.82,441.38 12.43,462.5 0.26,483.19"   /><polyline id="SvgjsPolyline6278" points="582.43,599.65 525.3,546.55 500.83,524.41 476.09,502.57 457.87,486.95 437.06,469.74 418.2,454.91 401.3,442.44 386.44,432.28 373.72,424.34 360.61,417.05 347.05,410.64 335.85,406.36 324.32,403.05 312.51,400.91 300.55,400.14 291.56,400.49 279.68,402.18 268.05,405.11 256.73,409.08 245.74,413.89 232.43,420.8 217,430.06 202.04,440.08 185.06,452.44 168.47,465.31 149.86,480.47 127,499.89 102.22,521.68 77.72,543.79 18.37,598.91"   /><polyline id="SvgjsPolyline6279" points="590.99,599.44 519.67,530.78 469.33,483.59 447.14,463.4 424.66,443.53 408.69,429.9 390.06,414.77 375.72,403.9 363.42,395.31 350.7,387.36 340.13,381.68 329.14,376.88 317.69,373.31 308.84,371.69 299.86,371.15 290.89,371.73 284.97,372.72 279.15,374.14 270.61,376.98 259.63,381.8 249.07,387.5 236.36,395.46 221.65,405.83 209.73,414.94 193.41,428.15 175.13,443.71 157.14,459.59 132.72,481.78 78.02,533.1 8.87,599.69"   /><polyline id="SvgjsPolyline6280" points="595.22,599.31 515.99,521.57 457.71,465.32 411.68,422.3 393.8,406.3 380.15,394.56 366.2,383.19 354.26,374.11 344.42,367.24 334.19,360.97 323.44,355.66 314.96,352.65 306.15,350.86 300.17,350.48 291.21,351.24 282.49,353.43 274.12,356.73 266.1,360.81 255.86,367.06 246.01,373.91 234.09,383.02 220.18,394.44 188.69,422.22 144.83,463.17 82.21,523.56 5.11,599.18"   /><polyline id="SvgjsPolyline6281" points="596.25,598.15 504.61,507.36 438.19,442.27 394.84,400.78 366.06,374.47 354.68,364.7 345.34,357.16 335.67,350.06 328.09,345.22 320.14,341 311.81,337.62 305.98,336.22 300,335.72 294.03,336.21 288.2,337.62 279.87,341 272.01,345.38 264.51,350.35 254.9,357.53 243.29,367.02 229.71,378.84 198.82,407.3 157.67,446.74 93.36,509.7 3.81,598.34"   /><polyline id="SvgjsPolyline6282" points="598.37,563.69 566.88,527.46 536.21,490.54 512.2,459.81 501.52,445.32 491.17,430.59 482.86,418.1 474.92,405.38 467.41,392.39 461.8,381.79 456.61,370.97 451.93,359.92 447.84,348.64 445.23,340.03 441.9,325.41 440.01,310.53 439.68,295.55 440.57,283.58 442.44,271.73 445.21,260.06 448.77,248.6 455.82,228.83 458.26,220.16 460.26,211.39 461.85,202.53 463.37,190.63 464.25,178.66 464.56,166.67 463.9,145.68 461.99,124.77 458.7,101 451.19,56.63 448.48,38.84 446.44,20.95 445.48,2.98"   /><polyline id="SvgjsPolyline6283" points="598.28,573.14 560.13,530.8 528.66,494.55 500.07,459.8 487.18,443.23 476.45,428.77 466.11,414.04 457.83,401.53 449.95,388.77 442.59,375.7 437.2,364.98 432.36,354 428.18,342.75 425.57,334.14 422.4,319.49 421.3,310.56 420.93,304.57 421.07,292.58 421.58,286.6 422.88,277.69 425.54,265.99 430.13,251.72 435.88,237.87 444.92,218.92 448.19,210.54 450.94,201.97 453.84,190.33 455.46,181.47 456.64,172.55 457.59,160.59 457.88,151.6 457.77,139.6 456.44,118.65 453.21,91.84 447.32,53.29 444.91,35.45 443.22,17.53 442.65,2.55"   /><polyline id="SvgjsPolyline6284" points="598.71,586.73 547.04,532.37 502.22,483.92 470.34,448.04 443.39,415.83 432.3,401.65 423.39,389.59 414.87,377.24 406.92,364.52 401.12,354.02 396,343.17 391.6,332.01 388.96,323.41 387.6,317.56 386.26,308.67 385.87,302.68 385.89,296.68 386.33,290.7 387.17,284.76 388.38,278.89 390.84,270.23 396.32,256.27 403.09,242.89 412.37,227.47 427.52,205.13 430.57,199.96 434.65,191.94 438.15,183.65 441.05,175.14 443.38,166.44 445.65,154.66 446.77,145.73 447.59,133.76 447.75,121.77 447.35,109.77 445.35,85.86 439.01,32.24 437.92,17.28 437.59,2.28"   /><polyline id="SvgjsPolyline6285" points="60.51,0.49 63.2,15.24 65.35,33.11 66.4,51.08 66.53,72.08 65.5,99.05 61.17,164.91 59.17,203.86 58.1,242.84 57.72,305.84 57.13,317.83 55.96,329.77 53.16,347.55 49.19,365.1 44.16,382.38 38.2,399.36 30.23,418.79 21.33,437.81 11.66,456.44 1.34,474.73"   /><polyline id="SvgjsPolyline6286" points="563.29,598.13 538.43,576.42 513.29,555.05 492.44,537.89 473.65,522.97 452.14,506.65 437.52,496.14 422.65,486.01 404.88,474.81 389.24,465.9 375.87,459.11 364.93,454.19 350.92,448.84 336.55,444.55 324.82,442.04 312.93,440.45 300.95,439.86 288.96,440.29 277.05,441.73 265.29,444.1 250.87,448.23 239.6,452.34 225.84,458.3 212.42,465.01 196.74,473.84 181.45,483.34 164.03,495.06 146.97,507.31 127.84,521.81 106.7,538.59 85.86,555.76 65.27,573.23 35.88,598.86"   /><polyline id="SvgjsPolyline6287" points="572.76,598.04 546.08,573.87 516.88,548.02 491.84,526.52 473.38,511.18 452.29,494.33 435.57,481.62 418.51,469.38 403.56,459.37 388.26,449.88 375.17,442.56 361.71,435.95 347.84,430.24 336.44,426.5 324.79,423.64 312.93,421.82 300.96,421.14 288.97,421.63 277.09,423.28 265.4,425.98 251.14,430.62 237.3,436.4 223.87,443.07 210.8,450.43 195.53,459.96 178.19,471.79 161.24,484.19 142.26,498.88 121.29,515.89 96.08,537.18 75.71,554.91 26.62,599.02"   /><polyline id="SvgjsPolyline6288" points="586.3,598.42 523.16,538.57 494.53,512.08 467.82,487.94 445.26,468.17 426.92,452.69 408.22,437.65 393.87,426.79 379.13,416.46 366.46,408.43 353.34,401.16 342.46,396.11 331.27,391.79 319.73,388.53 307.88,386.66 298.89,386.31 289.91,386.89 278.11,389.03 266.64,392.53 255.54,397.08 244.81,402.44 231.84,409.97 219.28,418.17 204.63,428.62 187.97,441.42 171.67,454.65 148.81,474.08 130.8,489.94 82.04,534.42 14.45,598.3"   /><polyline id="SvgjsPolyline6289" points="599.46,546.77 574.98,516.41 551.31,485.41 533.88,461 517.39,435.94 503.67,412.69 492.68,391.36 487.74,380.42 483.25,369.29 479.28,357.97 476.68,349.36 473.18,334.78 471.19,322.94 470,311 469.65,299.01 469.94,290.02 470.7,281.05 474.95,251.36 476.14,239.42 476.93,227.44 477.36,203.45 477.03,191.46 476.14,176.48 473.7,152.61 470.21,128.87 465.94,105.25 456.6,58.17 453.07,37.47 450.85,19.61 449.75,1.65"   /><polyline id="SvgjsPolyline6290" points="599.65,557.24 572.62,525.09 544.53,489.94 523,461.09 504.37,433.85 490.28,410.82 479,389.64 472.69,376.04 468.1,364.95 464.07,353.65 461.46,345.04 458.01,330.44 456.16,318.59 455.09,303.63 455.27,291.64 456.37,279.69 457.78,270.8 459.64,262 465.47,238.72 468.46,220.98 469.75,209.04 470.5,197.07 470.76,185.07 470.57,173.08 469.51,155.11 467.29,134.23 463.23,107.54 454.02,57.37 451.12,39.61 448.64,18.76 447.71,0.79"   /><polyline id="SvgjsPolyline6291" points="48.05,0.1 52.08,17.64 55.37,38.38 57.04,56.3 57.9,80.28 57.39,113.27 54.54,176.21 53.24,212.19 52.51,251.18 52.29,305.18 51.94,314.17 50.97,326.13 48.48,343.95 44.81,361.57 40.07,378.94 34.39,396.01 27.87,412.79 19.37,431.99 10.04,450.8 0.03,469.26"   /><polyline id="SvgjsPolyline6292" points="546.37,599.23 506.54,567.39 487.4,552.9 467.95,538.84 450.62,526.99 435.48,517.24 420.06,507.97 404.29,499.29 390.87,492.6 377.15,486.52 363.14,481.18 348.83,476.7 334.24,473.24 322.4,471.29 310.45,470.14 298.46,469.83 286.48,470.36 274.55,471.72 262.75,473.86 248.21,477.54 236.79,481.2 222.78,486.55 209.06,492.63 192.99,500.72 179.88,508.01 164.45,517.28 146.82,528.7 129.54,540.62 114.95,551.16 93.4,567.43 53.57,599.28"   /><polyline id="SvgjsPolyline6293" points="556.86,599.42 533.94,580.06 513.07,562.93 491.9,546.17 472.78,531.66 455.77,519.35 438.43,507.51 423.25,497.83 407.75,488.69 391.85,480.26 375.54,472.65 361.63,467.03 350.26,463.18 335.78,459.32 323.99,457.09 312.07,455.72 300.08,455.25 288.09,455.71 276.17,457.07 264.38,459.28 249.89,463.14 235.71,468.03 221.87,473.8 208.34,480.29 192.5,488.83 177.04,498.04 161.9,507.78 144.59,519.67 127.6,532 110.86,544.69 89.67,561.42 66.46,580.43 43.54,599.79"   /><polyline id="SvgjsPolyline6294" points="599.28,527.6 579.65,501.08 562.5,476.46 549.42,456.34 535.59,433.16 524.3,411.98 515.43,392.95 507.75,373.41 502.32,356.25 498.17,338.74 495.47,320.95 494.52,308.99 491.58,255.07 489.95,231.12 487.45,204.24 484.48,180.43 480.77,156.72 476.38,133.12 462.39,68.62 457.72,45.08 454.21,21.34 453.14,9.39 452.73,0.4"   /><polyline id="SvgjsPolyline6295" points="598.34,537.95 576.28,509.5 556.79,482.87 539.91,458.08 525.63,435.17 513.91,414.22 503.43,392.64 495.57,373.17 490.05,356.04 487.12,344.4 484.86,332.62 483.19,320.74 482.22,308.78 482.04,296.78 483.71,260.82 483.94,233.83 482.96,206.85 480.68,179.95 477.62,156.14 473.69,132.47 469.11,108.91 458.67,58.99 455.45,41.28 452.61,20.48 451.37,2.52"   /><polyline id="SvgjsPolyline6296" points="35.63,0.29 40.99,20.6 43.43,32.34 45.42,44.18 47.83,65.04 49.19,88.99 49.39,121.99 46.94,214.96 46.44,250.95 46.26,304.95 45.52,319.93 43.92,334.85 40.91,352.59 36.8,370.11 31.68,387.37 25.69,404.34 17.73,423.77 10.19,440.11 0.68,458.84"   /><polyline id="SvgjsPolyline6297" points="527.2,599.06 493.34,574.22 476.04,562.31 460.98,552.45 445.68,542.98 430.09,533.97 414.2,525.52 400.7,518.99 386.94,513.02 375.75,508.7 364.38,504.85 349.95,500.78 335.28,497.64 323.41,495.87 311.46,494.81 299.47,494.47 287.48,494.87 275.53,496 263.68,497.83 251.94,500.32 240.34,503.41 226.08,508.04 212.08,513.42 198.34,519.44 184.85,526 171.6,533.03 155.99,541.99 140.66,551.41 125.57,561.23 105.8,574.83 71.95,599.7"   /><polyline id="SvgjsPolyline6298" points="539.92,600 521.04,585.18 499.49,568.91 482.47,556.61 467.66,546.38 450.09,534.89 434.74,525.49 421.71,518.06 405.75,509.73 392.17,503.36 378.31,497.62 364.17,492.64 352.65,489.28 340.97,486.54 326.18,484.04 314.26,482.73 302.27,482.18 290.28,482.43 278.32,483.45 266.46,485.23 251.81,488.44 240.26,491.71 226.08,496.59 212.18,502.23 198.56,508.51 185.2,515.32 169.48,524.1 151.54,535 136.45,544.81 119.14,556.7 102.1,568.98 82.91,583.39 63.98,598.14"   /><polyline id="SvgjsPolyline6299" points="599.9,508.45 584.8,486.07 571.98,465.78 559.87,445.07 548.65,423.85 539.75,404.83 531.81,385.4 525.64,368.49 519.31,348.46 513.28,325.24 507.83,298.8 503.39,272.16 493.68,206.88 486.43,165.52 480.35,136.14 465.43,71.85 459.9,45.42 456.21,21.71 455.06,9.77 454.58,0.78"   /><polyline id="SvgjsPolyline6300" points="23.25,0.88 29.86,23.95 32.57,35.63 34.87,47.41 36.74,59.26 38.21,71.17 40.12,95.09 40.88,116.08 41.05,143.08 39.86,227.07 39.55,302.07 39.18,314.06 37.95,329.01 35.39,346.82 31.71,364.44 27.86,378.94 22.4,396.09 16.12,412.95 7.9,432.27 0.18,448.54"   /><polyline id="SvgjsPolyline6301" points="508.06,599.69 478.1,579.73 449.87,562.66 436.74,555.39 423.41,548.51 409.87,542.07 396.09,536.14 382.08,530.79 370.7,526.99 359.17,523.67 347.5,520.87 335.71,518.64 323.82,517.02 311.86,516.03 299.87,515.7 287.87,516.04 275.92,517.04 264.03,518.68 252.24,520.93 240.58,523.74 229.05,527.07 217.67,530.88 203.67,536.24 189.89,542.18 179.04,547.3 168.33,552.71 152.51,561.3 124.21,578.26 106.6,589.71 91.73,599.84"   /><polyline id="SvgjsPolyline6302" points="599.74,486.92 588.88,468.94 578.57,450.65 570.27,434.68 562.55,418.42 548,385.49 537.72,360.53 530.46,340.82 523.12,317.97 518.29,300.63 513.29,280.24 507.61,253.85 495.99,194.98 489.83,165.62 483.15,136.38 469.55,81.02 463.52,54.7 460.63,39.98 458.28,25.17 456.92,13.25 456.13,1.28"   /><polyline id="SvgjsPolyline6303" points="10.91,1.69 18.63,27.56 24.03,50.94 26.16,62.75 28.3,77.6 30.84,104.47 31.99,128.44 32.49,158.44 31.96,305.44 31.24,320.42 29.69,335.34 27.36,350.15 23.58,367.75 18.83,385.11 14.18,399.37 7.89,416.23 0.91,432.82"   /><polyline id="SvgjsPolyline6304" points="486.52,599.54 460.74,584.21 434.26,570.12 420.72,563.65 409.74,558.81 387.37,550.14 375.97,546.39 364.44,543.08 343.95,538.47 332.1,536.58 320.18,535.25 308.2,534.53 299.2,534.39 290.21,534.59 278.23,535.4 269.29,536.39 257.43,538.22 245.67,540.6 236.93,542.73 225.38,545.98 213.96,549.68 191.55,558.26 167,569.49 143.11,582.05 114.68,598.8"   /><polyline id="SvgjsPolyline6305" points="599.24,462.89 589.52,444.27 581.78,428.02 549.41,353.77 542.61,337.11 536.21,320.28 530.27,303.29 524.79,286.15 519.74,268.87 513.54,245.68 492.15,158.26 473.27,85.68 467.53,62.38 463.72,44.79 461.08,30.02 459.12,15.15 458.02,0.19"   /><polyline id="SvgjsPolyline6306" points="0.41,8.25 7.23,31.26 12.22,51.65 16.18,72.27 19.11,93.07 21.12,113.97 22.52,137.93 23.35,167.91 23.62,203.91 23.55,302.91 23.17,314.91 21.96,329.86 18.97,350.64 14.56,371.16 8.86,391.37 0.97,414.04"   /><polyline id="SvgjsPolyline6307" points="462.49,599.06 438.48,586.72 416.62,576.82 397.06,569.17 377.11,562.63 356.77,557.4 339.09,554.08 327.19,552.53 318.22,551.72 300.24,551.06 282.26,551.69 270.31,552.81 261.39,554.01 240.77,557.95 223.35,562.5 211.9,566.07 200.57,570.03 181.07,577.81 159.26,587.82 137.93,598.83"   /><polyline id="SvgjsPolyline6308" points="598.96,436.29 592.95,422.55 579.33,389.23 557.76,339.72 546.23,312.03 533.52,278.35 523.08,247.04 508.54,198.16 480.66,100.05 472.08,68.18 467.27,47.74 463.88,30.07 461.8,15.21 460.58,0.26"   /><polyline id="SvgjsPolyline6309" points="0.5,54.22 4.69,74.79 7.94,95.54 10.31,116.4 12.29,143.33 13.39,170.3 13.96,200.3 14.23,299.3 13.51,320.28 12.41,332.23 10.84,344.12 8.8,355.95 6.32,367.69 3.42,379.33 0.13,390.87"   /><polyline id="SvgjsPolyline6310" points="435.89,598.81 419.37,591.66 399.75,584.2 382.63,578.65 365.24,574 347.62,570.34 332.78,568.13 317.85,566.71 299.86,566.12 281.88,566.73 266.95,568.16 252.12,570.39 234.5,574.06 217.12,578.73 200,584.29 183.16,590.64 163.86,598.92"   /><polyline id="SvgjsPolyline6311" points="599.63,407.01 593.31,390.15 585.45,370.68 558.14,307.32 544.4,274.04 530.58,237.58 515.87,195.05 490.17,115.08 482.32,89.24 475.82,66.14 471.48,48.67 467.85,31.05 465.56,16.22 464.13,1.29"   /><polyline id="SvgjsPolyline6312" points="0.14,141.03 1.58,164.99 2.52,191.97 3.07,224.97 3.28,272.97 3.05,311.96 2.07,326.93 0.35,341.83"   /><polyline id="SvgjsPolyline6313" points="406.7,599.54 392.47,594.77 378.07,590.58 363.51,587.01 351.74,584.64 339.9,582.72 327.99,581.29 316.02,580.35 301.03,579.89 286.04,580.24 274.07,581.09 259.17,582.85 247.33,584.8 232.65,587.88 221.02,590.82 206.63,595.06 192.42,599.86"   /><polyline id="SvgjsPolyline6314" points="599.99,374.49 586.71,341.03 553.56,263.85 538.71,227.79 522.46,185.82 504,135.08 488.63,89.61 483.34,72.4 478.5,55.07 475.62,43.42 472.54,28.74 470.18,13.93 468.93,1.99"   /><polyline id="SvgjsPolyline6315" points="366.67,599.97 349,596.57 334.14,594.48 319.21,593.13 301.22,592.5 286.23,592.82 268.28,594.21 253.41,596.18 235.72,599.48"   /><polyline id="SvgjsPolyline6316" points="598.95,339.21 584.31,303.06 548.56,220.47 532.25,181.76 515.44,140.02 503.7,109.18 491.88,75.18 484.2,49.3 481.28,37.66 478.77,25.92 476.75,14.1 475.29,2.19"   /><polyline id="SvgjsPolyline6317" points="599.95,309.56 591.1,287.25 580.68,262.34 526.67,138.62 517.51,116.44 508.75,94.09 499.65,68.67 495.97,57.25 491.8,42.84 486.98,22.41 484.9,10.59 483.7,1.67"   /><polyline id="SvgjsPolyline6318" points="599.91,277.12 592.22,257.58 580.71,229.87 534.81,125.52 525.5,103.4 516.68,81.08 508.64,58.47 502.53,38.38 497.63,17.97 494.66,0.22"   /><polyline id="SvgjsPolyline6319" points="599.92,244.68 591.21,222.32 582.12,200.1 545.41,114.66 536.25,92.47 529.73,75.69 522.69,55.91 516.52,35.84 512.14,18.38 508.83,0.69"   /><polyline id="SvgjsPolyline6320" points="600,212.26 584.96,173.04 556.94,103.47 544.27,69.78 537.62,49.86 532.59,32.58 528.37,15.08 525.59,0.34"   /><polyline id="SvgjsPolyline6321" points="599.43,177.04 572.1,100.79 559.72,63.81 555.43,49.44 550.81,32.04 547.49,17.42 544.74,2.67"   /><polyline id="SvgjsPolyline6322" points="599.66,141.87 585.53,96 575.77,61.35 571.47,43.87 568.29,29.21 563.73,2.6"   /><polyline id="SvgjsPolyline6323" points="599.61,101.13 592.68,71.94 587.82,48.44 583.82,24.78 580.85,0.96"   /><polyline id="SvgjsPolyline6324" points="599.61,46.2 596.72,22.38 594.96,1.46"   /></g></svg>