<?xml version="1.0" standalone="no"?>
<svg id="SvgjsSvg1001" width="600" height="600" xmlns="http://www.w3.org/2000/svg" version="1.1" xmlns:xlink="http://www.w3.org/1999/xlink" xmlns:svgjs="http://svgjs.com/svgjs" class="svg-paper" viewBox="0 0 600 600"><title id="SvgjsTitle3324">x=sin(y)|y=x|dTest=0.0|sd=0.2|sm=0.2|ts=0.05 | generated with FlowLines</title><style>*{fill:none;stroke:#777}</style><g id="SvgjsG3325"><polyline id="SvgjsPolyline3326" points="0,521.08 1.85,535.96 4.21,550.77 13.58,597.85"   /><polyline id="SvgjsPolyline3327" points="25.45,0.66 17.42,38.82 14.26,56.54 12.54,68.42 10.94,83.33 10.16,95.3 9.87,107.3 10.06,119.3 11.56,140.24 14.85,164.01 19.33,187.59 28.65,231.61 30.85,243.41 33.15,258.23 34.55,270.15 35.48,282.11 35.88,294.1 35.74,306.1 34.23,327.04 31.33,347.84 28.06,365.54 17.59,415.45 13.5,439.1 11.96,451 10.82,462.94 10.15,474.92 9.96,486.92 10.26,498.91 11.05,510.89 13.81,534.73 18.48,561.32 26.58,599.46"   /><polyline id="SvgjsPolyline3328" points="0.01,591.47 1.17,597.35"   /><polyline id="SvgjsPolyline3329" points="37.85,0.2 30.03,35.34 25.01,61.87 23.3,73.74 21.99,85.67 21.16,97.64 20.82,109.64 21,121.63 21.68,133.61 22.84,145.56 24.44,157.45 28.66,181.07 39.59,230.89 43.03,248.55 46.1,269.33 47,278.28 47.73,290.26 47.91,302.25 47.52,314.25 46.58,326.21 45.15,338.12 43.29,349.98 40.5,364.71 30.19,411.59 25.62,435.15 22.35,458.93 20.95,479.87 20.83,491.87 21.41,506.86 22.43,518.82 23.9,530.72 25.75,542.58 28.51,557.32 37.52,598.34"   /><polyline id="SvgjsPolyline3330" points="13.09,1.1 4.25,45.22 0.13,71.9"   /><polyline id="SvgjsPolyline3331" points="0.32,147.56 2.3,162.43 4.76,177.22 15.93,233.12 19.47,253.82 21.05,265.71 22.22,277.65 23.11,298.63 22.91,310.63 22.2,322.61 21.02,334.55 19.43,346.44 15.88,367.14 4.72,423.03 2.26,437.83 0.29,452.7"   /><polyline id="SvgjsPolyline3332" points="49.57,2.77 40.18,43.71 37.86,55.48 35.42,70.28 33.93,82.19 32.91,94.14 32.36,109.13 32.52,121.13 34.07,142.07 35.6,153.97 37.55,165.81 41.7,186.39 53.74,239.03 57.96,262.66 59.43,274.56 60.38,286.53 60.76,298.52 60.64,307.52 60.2,316.51 59.11,328.46 56.02,349.22 51.19,372.73 41.05,416.57 36.05,443.1 34.4,454.99 33.21,466.93 32.35,487.9 32.59,499.9 33.36,511.88 34.62,523.81 36.33,535.69 41.44,562.19 49.58,597.26"   /><polyline id="SvgjsPolyline3333" points="0.74,1.65 0.16,4.59"   /><polyline id="SvgjsPolyline3334" points="0.05,214.96 4.99,241.5 8.03,262.28 9.73,280.2 10.4,301.18 9.77,319.17 8.11,337.09 5.1,357.87 0.18,384.42"   /><polyline id="SvgjsPolyline3335" points="61.98,2.58 52.13,43.41 49.14,58.11 47.14,69.94 45.25,84.82 44.3,96.78 43.89,108.77 44.04,120.77 45.62,141.7 47.22,153.6 49.24,165.43 53.56,185.97 66.19,238.47 70.67,262.05 72.25,273.94 73.29,285.9 73.72,297.89 73.51,309.88 72.95,318.87 71.69,330.8 68.28,351.52 64.48,369.11 52.51,418.68 47.88,442.23 46.13,454.1 44.85,466.03 44.09,478.01 43.88,490 44.23,502 45.13,513.96 46.53,525.88 48.39,537.74 53.17,561.25 62.4,599.14"   /><polyline id="SvgjsPolyline3336" points="74.39,2.53 64.05,43.24 60.91,57.9 58.81,69.72 57.15,81.6 55.81,96.54 55.37,108.53 55.52,120.53 56.25,132.5 57.16,141.46 58.82,153.34 60.92,165.15 66.15,188.57 78.72,238 83.48,261.52 85.18,273.4 86.31,285.34 86.79,297.33 86.61,309.33 85.76,321.3 84.72,330.24 81.16,350.93 76.45,371.39 64.59,417.9 59.7,441.4 57.84,453.25 56.46,465.17 55.62,477.14 55.36,489.14 55.68,501.13 56.3,510.11 57.61,522.04 59.41,533.9 64.2,557.41 74.55,598.11"   /><polyline id="SvgjsPolyline3337" points="86.81,2.64 75.93,43.2 72.63,57.83 70.42,69.63 68.68,81.5 67.27,96.43 66.8,108.42 66.95,120.42 67.71,132.39 69.05,144.32 70.9,156.17 73.21,167.95 78.84,191.27 91.33,237.62 94.06,249.3 96.4,261.07 98.23,272.93 99.46,284.87 100,296.85 99.83,308.85 98.96,320.82 97.87,329.75 94.12,350.41 89.93,367.91 76.68,417.16 71.5,440.59 69.51,452.42 68.02,464.33 67.1,476.29 66.78,488.29 67.08,500.28 67.98,512.25 69.45,524.16 71.42,535.99 74.48,550.68 77.31,562.34 87.52,599.98"   /><polyline id="SvgjsPolyline3338" points="100.07,0.04 89.29,37.52 85.61,52.06 83.08,63.79 80.99,75.6 79.44,87.5 78.48,99.46 78.15,111.46 78.48,123.45 79.43,135.41 80.98,147.31 83.06,159.13 88.49,182.5 102.48,231.54 107.63,251.9 110.01,263.66 111.44,272.55 113.17,290.46 113.4,302.45 112.86,314.44 111.59,326.37 109.67,338.21 107.2,349.96 104.33,361.61 90.34,410.65 85.16,431 82.7,442.74 80.69,454.57 79.24,466.48 78.38,478.45 78.16,490.45 78.59,502.44 79.65,514.39 81.78,529.24 84.06,541.02 87.49,555.62 91.38,570.1 99.75,598.91"   /><polyline id="SvgjsPolyline3339" points="112.49,0.49 101.09,37.79 97.23,52.28 94.56,63.98 92.37,75.78 90.75,87.67 89.74,99.62 89.41,111.62 89.76,123.61 90.77,135.57 92.41,147.45 94.61,159.25 97.28,170.95 101.15,185.44 116,234.23 120.65,251.61 123.22,263.33 124.77,272.2 125.93,281.12 126.81,293.09 126.87,305.09 126.38,314.07 125.03,325.99 122.99,337.82 120.38,349.53 117.32,361.13 102.49,409.93 96.3,433.11 93.78,444.84 91.77,456.67 90.64,465.6 89.69,477.56 89.41,489.56 89.81,501.55 91.24,516.48 93.07,528.34 96.1,543.03 99.01,554.67 103.96,571.97 111.95,597.77"   /><polyline id="SvgjsPolyline3340" points="124.91,1.17 111.97,41.13 108.01,55.6 104.73,70.23 102.32,85.03 101.11,96.97 100.6,108.96 100.81,120.95 101.73,132.92 103.32,144.81 105.51,156.61 108.23,168.29 114.86,191.36 130.62,239.86 133.87,251.41 136.64,263.08 138.79,274.89 140.19,286.8 140.68,295.79 140.54,307.79 139.86,316.76 138.23,328.65 136.52,337.48 133.72,349.15 127.79,369.29 112.92,414.93 108.84,429.36 106.02,441.03 103.71,452.8 102,464.68 100.94,476.63 100.59,488.62 100.95,500.61 102.02,512.56 103.75,524.44 106.08,536.21 108.9,547.87 112.99,562.3 125.09,599.38"   /><polyline id="SvgjsPolyline3341" points="137.32,2.12 124.47,38.94 120.18,53.31 116.58,67.87 113.86,82.62 112.44,94.53 111.69,109.51 111.94,121.5 112.95,133.46 114.66,145.34 117.01,157.1 119.92,168.74 126.97,191.68 143.82,239.82 147.32,251.29 150.34,262.9 152.7,274.67 154.25,286.57 154.86,298.55 154.67,307.54 153.93,316.51 152.69,325.42 150.98,334.26 148.11,345.91 141.9,365.97 125.06,414.11 120.69,428.45 117.67,440.07 115.18,451.8 113.3,463.65 112.12,475.59 111.68,487.58 112,499.58 113.08,511.53 114.85,523.39 117.26,535.15 120.2,546.78 124.5,561.15 137.34,597.97"   /><polyline id="SvgjsPolyline3342" points="150.8,0.56 136.99,37.03 132.34,51.29 129.12,62.85 126.45,74.55 124.45,86.38 123.17,98.31 122.69,110.3 123.01,122.29 124.13,134.24 125.99,146.09 129.26,160.73 132.51,172.28 137.18,186.53 155.25,234.22 161.99,254.1 165.14,265.68 167.02,274.48 168.41,283.37 169.23,292.33 169.45,301.33 168.78,313.31 167.08,325.18 164.5,336.9 161.21,348.44 157.41,359.82 139.32,407.5 131.75,430.27 128.61,441.85 126.06,453.58 124.17,465.43 123.03,477.37 122.72,492.36 123.39,504.34 125.3,519.21 127.63,530.98 131.39,545.5 135.9,559.81 140.95,573.93 150.67,599.12"   /><polyline id="SvgjsPolyline3343" points="163.16,2.13 153.85,24.25 147.36,41.03 142.58,55.25 138.62,69.72 135.68,84.42 134.19,96.33 133.53,108.31 133.92,123.3 135.18,135.23 137.23,147.05 139.99,158.73 143.35,170.24 147.22,181.6 151.47,192.82 167.65,231.58 173.16,245.53 177.11,256.86 179.67,265.49 182.37,277.18 183.75,286.07 184.57,298.04 184.37,307.03 183.49,315.99 181.97,324.86 179.91,333.62 176.46,345.11 169.13,364.79 149.63,411.91 144.57,426.03 141.03,437.49 137.42,452.05 135.31,463.86 133.99,475.78 133.5,487.77 133.88,499.76 135.11,511.7 137.12,523.52 140.63,538.1 144.11,549.59 149.12,563.73 154.64,577.67 163.97,599.78"   /><polyline id="SvgjsPolyline3344" points="176.76,1.39 166.67,23.16 159.63,39.73 154.44,53.8 150.1,68.15 146.83,82.79 144.83,97.65 144.22,109.63 144.76,124.62 146.2,136.53 148.48,148.31 151.51,159.92 156.17,174.17 160.47,185.37 166.36,199.17 186.41,242.78 190.94,253.89 194.9,265.22 198.01,276.8 199.63,285.65 200.51,294.61 200.43,306.6 199.45,315.54 197.74,324.38 195.42,333.07 191.58,344.43 184.72,361.08 168.33,396.47 162.3,410.2 156.78,424.14 152.01,438.36 148.22,452.87 146.02,464.67 144.67,476.59 144.21,488.58 144.68,500.56 146.04,512.48 148.25,524.28 152.06,538.78 155.82,550.18 161.21,564.17 167.16,577.94 177.27,599.7"   /><polyline id="SvgjsPolyline3345" points="190.41,1.18 180.74,19.82 174.22,33.33 168.28,47.1 163.15,61.19 159.06,75.62 156.68,87.38 155.2,99.28 154.69,111.27 155.17,123.26 157.11,138.12 159.67,149.85 163.95,164.22 169.23,178.25 176.57,194.69 183.25,208.12 199.9,240.04 208.76,259.07 211.98,267.47 214.68,276.06 216.67,284.83 217.82,293.75 218.01,302.75 217.23,311.71 215.55,320.55 212.15,332.05 208.95,340.46 204.08,351.43 179.42,399.46 172.99,413.02 168.29,424.06 163.16,438.15 159.79,449.66 156.69,464.33 155.21,476.24 154.69,488.23 155.43,503.2 157.66,518.03 161.23,532.59 165.94,546.83 171.56,560.74 179.18,577.04 190.18,598.37"   /><polyline id="SvgjsPolyline3346" points="204.1,1.63 192.02,22.37 183.7,38.33 176.45,54.8 171.5,68.95 167.8,83.48 165.56,98.31 164.98,107.29 164.93,113.29 165.95,128.25 167.92,140.08 171.67,154.6 175.57,165.94 181.39,179.77 186.64,190.56 193.76,203.76 222.78,252.81 228.29,263.47 231.93,271.7 234.91,280.19 236.99,288.94 237.76,294.89 237.85,303.88 237.2,309.84 235.26,318.62 232.38,327.15 227.53,338.12 218.96,353.95 198.88,387.38 191.44,400.4 183.19,416.4 177.12,430.11 172.04,444.22 168.17,458.71 165.75,473.5 165.05,482.47 164.92,488.47 165.44,500.46 167.01,512.35 169.55,524.08 173.92,538.42 179.42,552.37 185.82,565.94 194.35,581.79 205.02,599.87"   /><polyline id="SvgjsPolyline3347" points="219.51,0.45 206.05,20.32 196.82,35.77 188.72,51.84 185.21,60.13 182.13,68.58 179.53,77.19 177.46,85.95 175.97,94.83 175.32,100.79 174.95,106.78 174.94,115.78 175.28,121.77 176.33,130.7 178.67,142.47 181.98,154 186.16,165.25 192.4,178.88 201.08,194.65 210.73,209.84 221.04,224.6 245.95,258.41 251.05,265.82 255.82,273.46 259.98,281.43 263.1,289.86 264.26,295.74 264.49,298.73 264.2,304.72 262.97,310.59 260.99,316.25 258.47,321.69 254.03,329.52 243.94,344.41 220.76,375.78 210.47,390.55 199.33,408.34 190.87,424.23 187.14,432.42 183.81,440.78 179.29,455.07 177.28,463.85 175.85,472.73 175.05,481.69 174.87,487.69 175.36,499.67 176.03,505.64 177.55,514.51 181.34,529.01 185.38,540.31 191.48,554.01 198.52,567.25 207.93,582.59 219.82,599.9"   /><polyline id="SvgjsPolyline3348" points="208.44,0.27 196.09,20.85 187.65,36.75 180.32,53.18 175.36,67.33 171.69,81.87 169.53,96.71 169.03,105.69 169.04,111.69 169.32,117.68 170.25,126.63 172.4,138.44 176.41,152.88 181.69,166.92 188.01,180.52 195.13,193.72 202.86,206.57 234.21,254.17 240.23,264.55 244.18,272.64 247.34,281.06 249.48,289.8 250.34,295.73 250.3,304.72 249.39,310.65 246.92,319.3 244.7,324.87 240.77,332.97 231.64,348.47 210.15,381.01 199.02,398.82 190.28,414.55 183.82,428.09 180.41,436.42 177.4,444.9 173.45,459.36 170.99,474.15 170.31,483.12 170.2,489.12 170.37,495.12 171.13,504.08 173.08,515.92 176,527.56 180.86,541.74 186.84,555.5 193.69,568.84 201.21,581.82 212.48,599.53"   /><polyline id="SvgjsPolyline3349" points="235.07,0.56 219.94,19.19 212.98,28.96 208.09,36.51 202.07,46.89 197.99,54.92 194.35,63.15 191.19,71.57 188.57,80.18 186.54,88.95 185.15,97.84 184.44,106.81 184.42,115.8 184.8,121.79 185.93,130.72 187.73,139.53 190.13,148.21 194.2,159.49 197.82,167.73 203.32,178.39 209.47,188.7 216.17,198.65 225.21,210.62 232.9,219.83 243.02,230.9 253.7,241.43 262.69,249.37 272.2,256.69 279.79,261.51 287.93,265.33 293.69,266.98 299.65,267.62 305.62,267.11 311.41,265.57 319.6,261.85 327.23,257.08 336.77,249.81 345.79,241.9 356.5,231.4 366.65,220.36 376.22,208.81 383.42,199.22 390.16,189.28 396.34,179 401.88,168.36 405.54,160.14 409.66,148.87 412.11,140.21 413.95,131.4 415.14,122.49 415.55,116.5 415.59,107.5 414.93,98.53 413.59,89.63 411.61,80.85 409.04,72.23 405.91,63.79 402.3,55.55 398.26,47.51 392.28,37.11 387.41,29.54 380.47,19.75 373.09,10.29 365.32,1.15"   /><polyline id="SvgjsPolyline3350" points="219.73,1.94 206.33,21.85 200.18,32.15 195.89,40.06 191.92,48.13 188.32,56.38 185.14,64.8 182.45,73.39 180.3,82.13 178.72,90.99 177.77,99.93 177.5,105.93 177.52,111.93 178.1,120.91 179.33,129.82 181.16,138.63 185.47,152.99 191.14,166.87 199.39,182.86 208.88,198.16 219.3,212.83 234.26,231.59 248.02,247.46 276.26,278.54 283.95,287.75 287.31,292.71 288.64,295.4 289.47,298.28 289.54,301.27 288.81,304.17 287.54,306.89 282.39,314.25 274.57,323.36 246.36,354.47 234.64,368.13 221.57,384.57 209.44,401.71 200.09,417.08 195.88,425.03 192.03,433.17 188.6,441.49 185.65,449.99 181.93,464.51 180.5,473.4 179.71,482.36 179.55,488.36 179.88,497.35 180.46,503.32 181.88,512.21 183.9,520.97 186.49,529.59 189.59,538.04 193.15,546.3 197.11,554.38 201.43,562.28 207.66,572.54 212.63,580.04 226.9,599.33"   /><polyline id="SvgjsPolyline3351" points="218.03,1.7 206.38,19.17 195.84,37.33 188.11,53.58 184.82,61.95 181.99,70.5 179.67,79.19 177.92,88.02 177.08,93.96 176.35,102.93 176.27,111.92 176.59,117.92 177.18,123.88 178.6,132.77 182.26,147.31 186.24,158.63 192.32,172.34 200.93,188.14 210.64,203.29 222.99,220.27 236.08,236.69 259.14,264.34 268.24,276.26 271.49,281.3 274.23,286.63 276.05,292.34 276.46,295.31 276.51,301.3 275.47,307.2 273.3,312.79 268.85,320.6 260.05,332.75 233.56,365.34 220.72,381.95 208.68,399.16 199.32,414.52 192.42,427.84 186.58,441.65 182.03,455.94 179.5,467.67 178.31,476.58 177.87,482.57 177.77,491.57 178.07,497.56 178.65,503.53 180.06,512.42 182.07,521.19 184.63,529.81 187.7,538.27 191.22,546.56 199.39,562.59 203.94,570.35 210.42,580.45 224.41,599.95"   /><polyline id="SvgjsPolyline3352" points="252.91,0.46 246.21,6.46 237.65,14.87 231.57,21.5 223.96,30.78 218.64,38.04 212.15,48.13 207.77,55.99 203.87,64.1 200.49,72.44 197.71,81 195.57,89.74 194.13,98.62 193.57,104.59 193.37,113.59 193.92,122.57 195.22,131.47 198.03,143.13 200.9,151.66 204.34,159.97 209.74,170.69 215.94,180.96 221.06,188.36 228.43,197.83 236.38,206.81 244.89,215.27 251.64,221.22 261.17,228.51 268.75,233.36 276.74,237.49 285.17,240.64 293.96,242.49 299.95,242.86 305.93,242.5 314.73,240.66 323.16,237.53 331.16,233.41 338.75,228.57 348.28,221.29 355.03,215.34 363.54,206.89 371.5,197.91 378.88,188.45 384,181.05 390.21,170.78 395.61,160.07 399.06,151.76 401.94,143.23 404.76,131.57 406.07,122.67 406.63,113.69 406.58,107.69 405.88,98.72 404.45,89.84 402.32,81.1 399.54,72.54 396.17,64.2 392.28,56.08 387.9,48.22 381.42,38.13 376.11,30.86 368.5,21.58 362.42,14.95 353.84,6.57 347.02,0.69"   /><polyline id="SvgjsPolyline3353" points="187.83,83.39 186.7,89.28 185.56,98.2 185.1,107.19 185.19,113.19 185.59,119.18 186.77,128.1 187.92,133.98 190.17,142.7 195.2,156.82 198.9,165.02 203.04,173.02 207.57,180.79 212.45,188.35 223.14,202.83 230.86,212.01 236.95,218.64 249.87,231.16 256.74,236.97 263.94,242.37 271.53,247.2 276.85,249.97 282.4,252.25 288.17,253.89 297.09,255.06 300.08,255.16 303.08,255.05 309.01,254.17 314.78,252.54 320.34,250.3 325.69,247.57 333.33,242.82 340.58,237.5 349.76,229.77 356.31,223.6 364.65,214.97 372.53,205.92 379.93,196.48 386.81,186.65 391.57,179.01 395.95,171.15 399.91,163.07 403.39,154.77 406.33,146.27 408.68,137.58 410.39,128.75 411.15,122.8 411.7,113.82 411.52,104.82 410.63,95.87 409.04,87.01 407.62,81.18 404.97,72.58 401.76,64.17 398.04,55.98 393.87,48.01 389.3,40.26 384.37,32.73 379.11,25.42 371.65,16.03 365.74,9.24 357.47,0.55"   /><polyline id="SvgjsPolyline3354" points="222.44,1.55 208.77,21.28 202.5,31.51 198.12,39.37 192.79,50.12 189.24,58.39 186.14,66.83 183.54,75.45 181.49,84.21 180.04,93.09 179.23,102.05 179.06,108.05 179.36,117.04 180.32,125.99 181.92,134.84 184.12,143.57 186.87,152.14 191.3,163.29 196.5,174.1 202.34,184.58 208.73,194.74 215.57,204.59 224.66,216.52 234.24,228.06 246.28,241.44 256.73,252.2 267.6,262.54 276.76,270.29 284.15,275.41 289.54,278.03 292.41,278.9 298.33,279.84 301.33,279.86 307.18,278.64 312.65,276.18 320.2,271.3 327.27,265.72 336.23,257.75 349.06,245.13 361.3,231.93 371.03,220.52 378.48,211.11 385.56,201.42 392.21,191.43 398.35,181.12 403.89,170.48 407.58,162.27 410.81,153.87 414.31,142.4 415.68,136.56 417.22,127.69 418.1,118.74 418.31,109.74 417.83,100.76 416.69,91.83 414.91,83.01 412.53,74.34 409.6,65.83 406.18,57.5 402.33,49.37 396.61,38.82 391.93,31.14 385.26,21.16 378.16,11.49 370.7,2.09"   /><polyline id="SvgjsPolyline3355" points="221.47,0.37 207.91,20.17 201.67,30.41 197.29,38.28 189.53,54.51 186.24,62.89 183.43,71.44 181.14,80.14 179.43,88.97 178.33,97.9 177.88,106.89 178.09,115.89 178.6,121.86 179.9,130.77 181.8,139.56 184.28,148.21 187.27,156.7 190.74,165.01 194.61,173.13 203.41,188.82 215.07,206.28 227.84,222.95 241.4,238.98 253.47,252.33 267.92,267.57 291.1,291.06 295.52,295.12 295.91,298.03 298.74,297.86 303.89,294.82 310.6,288.84 321.29,278.32 335.97,263.3 350.31,247.96 364.17,232.19 375.52,218.22 382.73,208.62 389.58,198.77 396,188.63 401.89,178.18 405.91,170.13 410.63,159.1 413.63,150.62 416.1,141.96 418,133.17 419.27,124.26 419.76,118.28 419.93,109.28 419.43,100.3 418.27,91.38 416.48,82.56 414.1,73.88 411.19,65.37 407.79,57.03 403.97,48.88 398.3,38.31 393.68,30.59 387.09,20.56 380.1,10.81 372.78,1.3"   /><polyline id="SvgjsPolyline3356" points="379.37,597.93 392.85,578.08 399.04,567.8 403.36,559.9 407.35,551.84 410.97,543.6 414.16,535.18 416.87,526.6 419.03,517.87 420.61,509.01 421.57,500.06 421.87,491.07 421.7,485.07 420.9,476.11 419.46,467.23 417.41,458.46 414.81,449.85 411.7,441.41 406.85,430.43 402.75,422.42 398.32,414.59 391.95,404.42 385.14,394.54 377.96,384.93 368.56,373.23 356.79,359.62 342.52,344.21 329.9,331.38 319.03,321.05 312.08,315.33 309.57,313.69 306.86,312.42 303.93,311.78 300.94,311.92 295.15,313.44 292.41,314.66 287.34,317.86 280.31,323.47 269.26,333.62 256.55,346.36 244.27,359.52 232.47,373.11 223.09,384.81 214.2,396.9 207.54,406.88 201.37,417.17 195.78,427.78 192.04,435.97 188.73,444.34 185.11,455.77 183.05,464.53 181.61,473.42 181,479.38 180.65,488.38 180.98,497.37 181.98,506.31 183.62,515.16 185.86,523.87 188.65,532.43 191.94,540.8 197.01,551.68 201.25,559.61 207.41,569.91 214.06,579.9 221.12,589.6 228.51,599.05"   /><polyline id="SvgjsPolyline3357" points="276.04,0.71 268.07,4.88 258.02,11.44 250.86,16.89 244.1,22.82 237.72,29.17 231.74,35.9 226.17,42.97 219.45,52.9 214.98,60.71 211.06,68.81 207.74,77.17 205.1,85.77 203.18,94.56 202.05,103.49 201.73,112.48 202.23,121.46 203.53,130.37 205.61,139.12 208.41,147.67 213.14,158.69 218.9,169.22 223.81,176.75 231.07,186.31 237,193.07 243.33,199.47 252.38,207.34 262.14,214.32 269.94,218.81 278.15,222.48 286.75,225.11 295.63,226.49 301.63,226.64 307.61,226.15 316.4,224.29 324.87,221.26 332.94,217.27 340.58,212.53 347.82,207.18 354.66,201.34 363.17,192.88 370.98,183.77 376.33,176.54 382.76,166.41 386.97,158.46 390.61,150.23 394.46,138.87 396.51,130.11 397.8,121.21 398.28,112.22 397.93,103.23 396.77,94.31 394.84,85.52 392.17,76.93 388.84,68.57 384.9,60.48 378.81,50.15 373.67,42.76 366.14,33.42 357.89,24.71 351.24,18.65 344.2,13.05 336.76,7.99 328.9,3.61 320.62,0.08"   /><polyline id="SvgjsPolyline3358" points="379.34,599.46 392.82,579.61 401.96,564.1 406.11,556.12 409.9,547.96 413.31,539.63 416.26,531.12 418.7,522.46 420.58,513.67 421.86,504.76 422.36,498.78 422.56,489.78 422.11,480.8 421.45,474.84 419.92,465.97 416.09,451.47 410.83,437.43 404.37,423.89 395.38,408.31 383.57,390.95 368.83,372.01 353.21,353.79 327.08,324.85 319.44,315.59 316.17,310.57 314.94,307.84 314.21,304.93 314.02,298.94 314.54,295.99 315.56,293.17 318.46,287.93 321.94,283.04 329.54,273.76 355.33,244.51 368.84,228.43 381.67,211.81 391.89,196.99 401.11,181.54 405.25,173.55 409.01,165.37 414.31,151.34 418.16,136.86 419.69,127.99 420.58,119.03 420.8,113.04 420.58,104.04 420.07,98.07 418.75,89.16 416.82,80.37 414.33,71.73 411.31,63.25 407.83,54.95 403.94,46.84 399.69,38.91 393.54,28.6 388.62,21.07 374.48,1.68"   /><polyline id="SvgjsPolyline3359" points="361.8,599.88 371.62,588.55 377.26,581.54 384.39,571.88 389.39,564.4 394.08,556.72 399.75,546.14 403.5,537.97 406.78,529.59 409.51,521.01 411.65,512.27 413.15,503.4 413.97,494.44 414.13,488.44 413.77,479.45 412.71,470.52 410.99,461.69 407.72,450.14 404.61,441.7 399.7,430.75 395.51,422.79 389.34,412.5 382.59,402.58 373.46,390.68 365.67,381.55 355.37,370.65 346.67,362.39 337.52,354.63 327.81,347.59 320.03,343.07 314.56,340.61 308.84,338.8 305.91,338.2 299.93,337.7 293.96,338.22 288.14,339.65 279.85,343.13 272.08,347.66 262.37,354.71 253.23,362.48 244.54,370.75 234.24,381.65 226.45,390.78 217.33,402.69 210.59,412.61 204.43,422.91 200.24,430.87 195.34,441.82 191.33,453.13 188.98,461.82 187.27,470.65 186.22,479.59 185.87,488.58 186.04,494.58 186.86,503.53 188.37,512.41 190.52,521.14 193.27,529.71 196.55,538.09 200.31,546.26 205.99,556.84 210.68,564.52 215.69,571.99 222.82,581.64 230.4,590.94 238.4,599.89"   /><polyline id="SvgjsPolyline3360" points="376.61,598.36 390.37,578.71 396.68,568.5 401.09,560.65 406.45,549.92 410.02,541.66 413.14,533.22 415.77,524.61 417.83,515.85 419.29,506.98 420.11,498.01 420.26,489.02 419.74,480.04 418.56,471.11 417.42,465.22 415.22,456.5 412.46,447.94 408,436.79 402.78,425.99 396.91,415.53 388.8,402.91 381.81,393.16 374.44,383.69 364.77,372.23 352.58,358.98 341.94,348.41 333.05,340.35 323.65,332.9 316.01,328.16 310.48,325.84 307.58,325.1 301.63,324.32 298.63,324.31 292.74,325.36 287.16,327.55 279.4,332.09 272.16,337.43 263.02,345.2 252.15,355.54 241.76,366.36 231.83,377.6 224.24,386.89 215.27,398.91 208.58,408.87 202.41,419.16 196.85,429.8 193.15,438 188.95,449.24 186.42,457.87 185.05,463.71 183.52,472.58 182.65,481.54 182.46,490.53 182.96,499.52 184.13,508.44 185.95,517.25 188.36,525.92 191.32,534.42 194.77,542.73 198.66,550.84 204.44,561.36 209.16,569.02 215.89,578.95 223.06,588.58 230.59,597.92"   /><polyline id="SvgjsPolyline3361" points="280.64,11.8 275.02,13.88 266.92,17.8 259.26,22.52 252.05,27.9 245.29,33.84 236.99,42.5 231.34,49.5 226.2,56.89 221.63,64.64 217.68,72.72 214.42,81.11 211.9,89.75 210.21,98.58 209.37,107.54 209.31,113.54 209.96,122.51 211.47,131.38 213.81,140.07 218.11,151.26 222.14,159.31 226.78,167.02 231.98,174.36 239.71,183.53 246.07,189.9 252.88,195.78 260.15,201.09 267.86,205.72 276.01,209.53 284.55,212.35 293.39,213.99 302.38,214.31 308.35,213.77 317.14,211.89 325.61,208.86 333.68,204.88 341.3,200.1 348.48,194.68 357.35,186.6 365.38,177.69 370.83,170.53 377.25,160.4 381.37,152.4 384.81,144.09 387.52,135.51 389.44,126.72 390.5,117.78 390.67,108.79 389.96,99.82 388.38,90.96 385.01,79.46 380.32,68.42 376.03,60.5 371.16,52.94 363.82,43.45 357.75,36.81 348.92,28.69 339.29,21.55 331.54,16.97 323.36,13.23 314.79,10.49 305.93,8.95 299.94,8.65 290.98,9.34 282.2,11.31"   /><polyline id="SvgjsPolyline3362" points="394.36,599 405.09,580.95 413.64,565.11 420.03,551.54 425.51,537.58 429.83,523.22 432.32,511.49 433.82,499.59 434.27,487.6 433.66,475.62 431.44,460.79 427.74,446.26 422.79,432.1 416.81,418.35 408.61,402.33 399.64,386.72 379.36,353.41 370.71,337.63 365.8,326.68 362.91,318.17 360.97,309.38 360.34,303.42 360.3,297.42 361.33,288.49 363.52,279.76 366.61,271.31 370.34,263.12 375.95,252.52 403.78,206.25 411.06,193.13 417.72,179.7 423.57,165.88 427.5,154.55 431.27,140.03 433.24,128.2 433.85,122.23 434.26,113.24 434.21,107.24 433.62,98.26 431.36,83.44 427.64,68.92 422.65,54.77 415.35,38.33 406.98,22.39 394.8,1.72"   /><polyline id="SvgjsPolyline3363" points="389.36,598.76 401.91,578.3 410.44,562.46 417.82,546.04 420.96,537.61 423.65,529.02 427,514.41 428.27,505.5 428.78,499.52 429.01,493.53 428.84,484.53 428.38,478.55 427.18,469.63 424.68,457.9 421.25,446.4 417.01,435.18 410.73,421.56 403.6,408.37 394.19,393.02 385.85,380.56 363.51,348.59 356.94,338.55 352.31,330.83 348.18,322.84 344.88,314.47 342.88,305.71 342.5,299.72 342.95,293.75 345.05,285.01 348.41,276.66 352.58,268.69 362.17,253.46 382.8,223.96 394.44,206.48 403.7,191.05 410.65,177.76 416.7,164.04 420.72,152.73 423.87,141.16 426.05,129.36 426.75,123.4 427.27,114.42 427.27,108.42 426.73,99.44 425.58,90.51 424.48,84.61 420.66,70.11 417.72,61.61 414.34,53.27 406.49,37.07 397.53,21.47 384.4,1.38"   /><polyline id="SvgjsPolyline3364" points="383.97,597.93 395.45,580.35 405.83,562.1 413.44,545.79 418.57,531.7 421,523.04 422.88,514.24 424.18,505.33 424.69,499.36 424.93,493.36 424.74,484.37 423.91,475.41 423,469.48 420.41,457.76 415.83,443.48 409.99,429.68 403.11,416.35 395.41,403.48 383.59,386.12 370.96,369.35 346.78,338.75 338.1,326.52 333.64,318.71 331.34,313.17 329.65,307.42 328.74,301.49 329.05,295.51 330.49,289.7 332.77,284.15 337.14,276.28 347.46,261.55 371.45,230.8 383.95,213.92 393.99,198.99 403.13,183.48 409.81,170.06 415.42,156.15 418.96,144.69 422,130.01 423.02,121.07 423.33,115.08 423.27,106.08 422.86,100.09 422.17,94.13 420.61,85.27 418.47,76.53 415.79,67.94 412.63,59.51 409.04,51.26 400.77,35.28 391.36,19.94 377.57,0.3"   /><polyline id="SvgjsPolyline3365" points="343.92,599.53 350.8,593.72 359.56,585.53 365.79,579.03 373.57,569.9 380.73,560.27 385.65,552.73 390.14,544.93 394.15,536.88 397.64,528.59 400.54,520.07 402.79,511.36 404.34,502.49 404.97,496.53 405.27,487.54 404.8,478.55 403.58,469.64 401.64,460.85 399.03,452.24 395.8,443.84 390.65,433.01 386.21,425.18 379.62,415.15 372.36,405.6 364.49,396.55 356.03,388.04 349.3,382.07 339.79,374.75 332.22,369.89 324.24,365.73 315.84,362.53 307.06,360.57 301.09,360.09 295.09,360.32 286.25,361.93 277.75,364.86 269.66,368.81 262,373.52 252.38,380.68 243.37,388.61 237,394.97 229.02,403.92 221.64,413.39 214.93,423.33 210.38,431.1 205.06,441.85 201.69,450.19 198.15,461.65 196.27,470.45 195.12,479.37 194.77,485.36 194.89,494.36 195.77,503.31 197.39,512.17 199.7,520.86 202.66,529.36 206.19,537.63 210.26,545.66 214.79,553.44 219.75,560.95 226.95,570.54 234.77,579.64 241.02,586.11 249.87,594.22 256.89,599.84"   /><polyline id="SvgjsPolyline3366" points="284.34,23.21 278.61,24.99 270.35,28.55 262.55,33.03 255.24,38.28 250.66,42.15 244.24,48.46 238.39,55.29 233.15,62.6 228.57,70.35 224.71,78.48 221.66,86.94 220.11,92.73 218.55,101.59 218.05,107.57 218.11,116.57 218.7,122.54 219.71,128.45 222,137.15 225.16,145.57 229.1,153.66 233.77,161.35 239.09,168.6 245.02,175.37 251.51,181.61 258.53,187.23 266.07,192.14 271.36,194.96 279.68,198.39 288.36,200.71 294.3,201.57 300.29,201.85 309.26,201.13 315.13,199.93 323.68,197.15 331.82,193.32 339.49,188.62 346.66,183.18 353.29,177.1 359.38,170.47 364.86,163.34 369.71,155.76 373.86,147.78 376.2,142.26 379.02,133.71 380.95,124.93 381.71,118.98 382.03,109.99 381.37,101.01 379.75,92.17 377.22,83.53 373.84,75.2 369.69,67.21 364.84,59.64 359.35,52.51 353.27,45.88 346.63,39.81 339.46,34.37 331.79,29.67 323.65,25.85 315.1,23.07 309.22,21.87 300.25,21.16 294.26,21.44 285.4,22.95"   /><polyline id="SvgjsPolyline3367" points="409.32,597.47 420.36,576.17 427.98,559.86 433.58,545.95 438.25,531.7 441.76,517.12 443.91,502.28 444.56,490.3 443.97,475.32 442.41,463.42 439.21,448.78 435.77,437.28 430.55,423.22 425.79,412.21 420.64,401.37 394.47,350.74 389.58,339.78 386.38,331.37 383.01,319.86 381.37,311.01 380.65,302.04 380.92,293.05 382.16,284.14 384.25,275.39 387.02,266.83 390.32,258.46 397.95,242.16 416.08,207.63 422.79,194.21 428.98,180.55 434.44,166.58 438.93,152.28 442.22,137.65 443.87,125.76 444.57,110.79 444.01,98.8 442.49,86.9 440.07,75.15 435.92,60.74 431.84,49.46 425.99,35.65 418.16,19.44 408.42,0.84"   /><polyline id="SvgjsPolyline3368" points="317.98,599.48 326.25,595.95 334.12,591.59 344.11,584.95 351.16,579.35 357.8,573.28 364.04,566.8 371.71,557.58 376.95,550.26 383.17,540 387.19,531.95 390.61,523.63 393.36,515.06 395.37,506.29 396.6,497.38 397.01,488.39 396.58,479.41 395.33,470.5 393.3,461.73 390.54,453.17 385.83,442.14 381.59,434.2 375.13,424.09 369.74,416.89 361.86,407.84 353.26,399.48 346.34,393.73 339.01,388.5 331.27,383.93 323.1,380.15 314.55,377.37 305.69,375.81 299.7,375.53 293.72,375.87 284.88,377.52 276.35,380.37 268.21,384.21 260.49,388.83 250.85,395.96 244.09,401.9 235.7,410.48 228.05,419.72 222.84,427.06 216.65,437.33 212.65,445.39 208.27,456.56 205.79,465.21 204.07,474.04 203.15,482.99 203.06,491.99 203.79,500.95 205.34,509.81 207.65,518.51 210.68,526.98 214.35,535.2 218.6,543.13 225.09,553.22 232.41,562.72 238.4,569.43 247.03,577.77 253.97,583.5 261.31,588.7 269.08,593.25 277.26,596.98 285.83,599.71"   /><polyline id="SvgjsPolyline3369" points="287.38,34.82 281.59,36.39 275.98,38.49 270.57,41.08 262.9,45.78 258.1,49.39 251.43,55.42 247.35,59.82 241.83,66.92 238.57,71.96 234.38,79.92 231.09,88.29 229.44,94.06 228.25,99.94 227.37,108.89 227.41,114.89 227.93,120.86 229.62,129.69 231.33,135.45 233.47,141.05 237.45,149.12 242.27,156.71 245.91,161.48 251.97,168.12 256.39,172.19 261.08,175.93 268.61,180.84 276.68,184.81 282.32,186.85 291.08,188.88 297.05,189.49 303.05,189.49 309.01,188.87 314.88,187.64 320.61,185.86 328.84,182.24 334.04,179.25 339,175.87 345.93,170.13 352.21,163.69 356.01,159.05 359.48,154.16 364.02,146.39 367.69,138.18 369.61,132.5 371.64,123.73 372.4,117.78 372.62,108.79 372.15,102.81 371.2,96.89 368.88,88.2 366.79,82.58 362.88,74.48 359.79,69.33 354.51,62.05 348.5,55.36 341.82,49.33 334.53,44.06 329.35,41.04 321.15,37.35 315.44,35.51 306.61,33.82 300.62,33.44 294.63,33.69 288.69,34.55"   /><polyline id="SvgjsPolyline3370" points="422.74,597.78 431.64,578.76 437.65,565.02 443.11,551.05 447.79,536.8 450.82,525.19 453.1,513.41 454.54,501.5 455.08,489.52 454.7,477.53 452.94,462.63 450.6,450.87 446.64,436.4 441.73,422.23 436.11,408.33 414.74,362.02 407.78,345.42 403.84,334.09 401.43,325.42 399.62,316.61 398.54,307.68 398.33,295.68 399.13,286.72 400.67,277.86 403.73,266.26 406.6,257.73 411,246.57 417.08,232.85 433.56,197.51 439.42,183.7 443.67,172.48 448.25,158.2 451.18,146.56 453.35,134.76 454.67,122.84 455.04,107.85 454.3,95.88 452.67,83.99 449.48,69.34 445.2,54.96 440.05,40.88 433.02,24.31 422.9,2.55"   /><polyline id="SvgjsPolyline3371" points="314.41,588.02 320.17,586.36 328.5,582.97 336.41,578.69 343.88,573.67 353.12,566.02 359.5,559.68 365.4,552.88 370.79,545.67 375.62,538.08 379.84,530.14 383.39,521.87 386.21,513.33 388.22,504.56 389.38,495.64 389.65,486.65 389.01,477.67 387.5,468.8 385.14,460.12 382.02,451.68 378.18,443.55 373.7,435.74 366.83,425.91 361.05,419.01 354.79,412.55 348.06,406.58 340.86,401.18 333.21,396.44 325.12,392.51 316.63,389.55 307.82,387.75 298.84,387.24 292.86,387.66 284.03,389.37 275.51,392.25 267.39,396.11 259.7,400.79 250.17,408.06 243.55,414.16 237.41,420.74 231.77,427.75 225.09,437.71 220.77,445.61 217.11,453.83 214.17,462.33 212.03,471.07 210.74,479.97 210.34,488.96 210.83,497.94 212.21,506.83 214.44,515.55 217.45,524.03 222.58,534.87 227.17,542.61 234.17,552.35 240.03,559.17 248.6,567.57 255.57,573.26 265.58,579.87 273.6,583.94 282.04,587.06 290.81,589.05 299.77,589.76 305.76,589.48 314.63,587.97"   /><polyline id="SvgjsPolyline3372" points="289.96,46.54 284.13,47.97 278.49,50.01 273.08,52.6 267.94,55.69 263.11,59.24 258.6,63.19 252.51,69.81 248.94,74.63 245.79,79.74 243.09,85.1 240.88,90.67 239.19,96.43 238.03,102.31 237.44,108.28 237.42,114.28 237.97,120.25 239.08,126.14 240.74,131.91 242.91,137.5 245.57,142.87 248.69,148 252.23,152.84 256.16,157.37 262.75,163.49 267.57,167.06 272.68,170.19 278.07,172.82 283.7,174.9 289.51,176.38 295.45,177.22 301.44,177.4 307.42,176.9 313.31,175.75 319.03,173.97 324.55,171.62 329.82,168.75 334.79,165.4 341.65,159.58 345.78,155.23 349.53,150.55 352.87,145.56 355.77,140.31 358.2,134.83 360.13,129.15 361.53,123.32 362.37,117.38 362.65,111.39 362.35,105.4 361.48,99.46 360.06,93.64 358.12,87.96 355.67,82.49 352.75,77.25 347.56,69.9 343.6,65.39 339.27,61.24 332.15,55.75 327.02,52.65 321.61,50.05 315.97,48.01 310.15,46.56 304.21,45.76 298.21,45.62 292.24,46.16"   /><polyline id="SvgjsPolyline3373" points="436.16,597.49 445.5,575.38 452.02,558.6 456.8,544.39 460.75,529.92 463.67,515.21 465.14,503.3 465.78,491.32 465.36,476.33 464.06,464.41 461.98,452.59 459.19,440.92 455.8,429.41 451.9,418.06 447.62,406.85 426.89,356.99 422.8,345.71 419.29,334.24 417.17,325.49 415.22,313.66 414.42,301.69 414.64,292.69 415.55,283.74 417.1,274.88 419.19,266.13 422.68,254.65 430.07,234.99 448.58,190.71 453.78,176.64 458.29,162.34 461.91,147.78 464.01,135.97 465.33,124.04 465.8,112.06 465.41,100.06 464.17,88.13 461.51,73.37 458.59,61.73 455.09,50.26 450.06,36.13 435.13,0.1"   /><polyline id="SvgjsPolyline3374" points="311.59,576.35 320.28,574.03 325.87,571.85 331.26,569.23 338.96,564.56 346.14,559.14 352.78,553.08 358.86,546.44 364.33,539.3 369.15,531.7 373.25,523.69 376.56,515.33 378.29,509.58 380.12,500.78 380.8,494.82 381.01,485.82 380.59,479.84 379.73,473.9 377.66,465.15 374.69,456.66 370.91,448.5 366.37,440.73 361.16,433.39 357.33,428.77 351.11,422.28 344.32,416.37 337,411.14 329.18,406.69 323.71,404.24 318.05,402.24 309.29,400.23 303.32,399.6 294.33,399.78 288.4,400.64 279.71,402.97 271.4,406.4 266.11,409.23 258.58,414.16 251.58,419.81 245.12,426.07 239.24,432.88 233.98,440.18 229.4,447.92 225.55,456.06 222.53,464.53 221,470.33 219.48,479.2 218.95,488.18 219.41,497.16 220.86,506.04 223.24,514.71 226.49,523.1 230.53,531.14 235.3,538.77 240.73,545.94 246.76,552.62 253.37,558.73 260.51,564.2 268.17,568.92 276.3,572.76 281.96,574.75 290.72,576.76 296.69,577.39 302.69,577.42 311.61,576.35"   /><polyline id="SvgjsPolyline3375" points="292.19,58.33 283.51,60.64 278.01,63.03 272.82,66.05 265.75,71.59 261.57,75.9 257.87,80.62 254.7,85.7 252.09,91.1 249.32,99.66 248.05,108.56 248.31,117.54 250.11,126.35 252.12,132 254.74,137.39 259.72,144.88 263.67,149.39 268.08,153.45 272.91,157.02 278.1,160.02 286.45,163.34 292.29,164.69 298.25,165.3 307.23,164.77 315.94,162.57 324.11,158.84 331.54,153.77 335.98,149.74 339.98,145.26 345.02,137.82 347.68,132.45 349.75,126.82 351.17,120.99 351.92,115.04 351.75,106.06 350.79,100.14 349.16,94.37 345.54,86.14 342.41,81.02 338.75,76.27 332.37,69.93 327.59,66.32 322.43,63.26 314.12,59.84 305.32,57.98 299.34,57.68 293.36,58.15"   /><polyline id="SvgjsPolyline3376" points="448.37,599.45 462.23,563 466.9,548.75 470.14,537.2 472.82,525.5 474.84,513.67 476.12,501.74 476.61,489.76 476.29,477.76 475.17,465.82 473.3,453.96 470.02,439.33 466.76,427.78 462.07,413.54 443.92,365.88 437.14,346.01 433.96,334.44 432.06,325.64 430.66,316.75 429.82,307.79 429.65,295.8 430.25,286.82 431.95,274.94 434.54,263.23 436.97,254.56 440.67,243.15 459.84,192.67 467.46,169.91 470.61,158.34 473.19,146.62 475.09,134.77 476.25,122.83 476.61,110.84 475.92,95.86 474.49,83.95 471.69,69.21 467.92,54.7 463.4,40.4 458.34,26.28 448.58,1.1"   /><polyline id="SvgjsPolyline3377" points="309.3,564.57 315.17,563.32 320.88,561.5 326.41,559.16 334.27,554.79 339.19,551.36 346.06,545.56 350.28,541.29 356.01,534.35 359.41,529.41 363.82,521.57 366.27,516.09 369.13,507.57 370.46,501.72 371.32,495.78 371.68,489.79 371.28,480.81 369.77,471.94 368.16,466.16 364.93,457.77 362.25,452.4 359.19,447.24 353.93,439.95 350,435.41 343.54,429.15 336.43,423.64 331.36,420.44 326.04,417.66 320.51,415.36 311.86,412.89 305.93,411.97 299.94,411.66 293.95,411.98 288.03,412.91 282.23,414.43 276.59,416.49 268.54,420.5 263.47,423.71 256.37,429.23 251.99,433.33 246,440.04 242.41,444.84 237.69,452.5 235.02,457.87 231.8,466.27 230.21,472.05 228.71,480.92 228.32,489.91 228.69,495.9 230.17,504.77 231.75,510.55 234.95,518.96 237.61,524.34 240.65,529.51 245.89,536.82 251.87,543.54 256.24,547.65 263.33,553.19 268.39,556.41 276.43,560.43 282.06,562.51 290.81,564.59 296.77,565.24 302.77,565.26 308.74,564.66"   /><polyline id="SvgjsPolyline3378" points="294.18,70.17 288.34,71.52 282.77,73.74 280.13,75.16 275.18,78.53 272.89,80.48 268.76,84.82 265.27,89.7 263.79,92.31 262.5,95.02 260.51,100.67 259.36,106.55 259.07,112.54 259.26,115.54 259.66,118.51 261.11,124.32 262.14,127.14 264.8,132.52 268.18,137.47 272.22,141.9 274.46,143.89 279.33,147.38 281.95,148.85 284.66,150.13 290.34,152.06 296.24,153.1 299.23,153.28 305.22,152.93 311.08,151.66 313.92,150.7 319.34,148.16 321.9,146.59 326.66,142.94 330.85,138.65 332.71,136.3 335.92,131.24 338.39,125.77 339.32,122.92 340.05,120.01 340.86,114.07 340.8,108.08 340.44,105.1 339.08,99.27 336.89,93.68 335.51,91.02 332.2,86.02 328.22,81.53 326.01,79.51 323.66,77.64 318.59,74.44 315.9,73.12 310.25,71.11 304.37,69.97 298.38,69.76 295.39,70"   /><polyline id="SvgjsPolyline3379" points="461.72,598.24 474.63,561.44 478.96,547.08 481.93,535.45 484.36,523.7 486.16,511.84 487.25,499.89 487.6,487.9 487.18,475.91 486.01,463.97 484.15,452.12 481.66,440.38 478.64,428.77 474.27,414.42 457.35,366.31 451.09,346.26 448.85,337.55 446.45,325.79 445.18,316.88 444.42,307.92 444.2,298.92 444.79,286.94 446.31,275.04 448.66,263.27 451.68,251.66 455.19,240.19 472.11,192.07 479.21,169.16 482.15,157.52 484.53,145.76 486.27,133.89 487.31,121.94 487.59,109.94 486.87,94.96 485.47,83.05 482.77,68.29 479.18,53.73 474.89,39.36 462.01,2.55"   /><polyline id="SvgjsPolyline3380" points="307.38,552.73 313.26,551.57 318.99,549.78 324.5,547.41 329.75,544.51 334.7,541.13 339.33,537.31 343.6,533.1 347.5,528.54 350.98,523.66 354.03,518.5 356.61,513.08 358.69,507.46 360.24,501.66 361.23,495.75 361.64,489.76 361.47,483.77 360.72,477.82 359.41,471.96 357.55,466.26 355.18,460.75 352.33,455.48 347.21,448.08 343.28,443.55 338.98,439.37 334.33,435.58 329.35,432.24 324.08,429.38 318.55,427.05 312.81,425.31 306.92,424.2 300.94,423.75 294.95,423.99 289.02,424.89 283.22,426.44 277.62,428.59 272.27,431.29 267.2,434.49 262.44,438.14 258.02,442.2 253.98,446.63 248.66,453.88 245.66,459.08 243.13,464.52 241.11,470.16 239.63,475.97 238.7,481.9 238.35,487.89 238.58,493.88 239.39,499.82 240.77,505.66 242.68,511.35 245.11,516.83 248.01,522.08 253.2,529.42 257.17,533.92 261.51,538.06 266.2,541.8 271.22,545.09 276.52,547.9 282.07,550.16 287.83,551.84 293.74,552.87 299.72,553.24 305.71,552.94"   /><polyline id="SvgjsPolyline3381" points="295.99,82.03 290.18,83.48 284.79,86.09 280.03,89.73 276.09,94.24 273.12,99.44 271.24,105.13 270.74,108.09 270.66,114.08 271.78,119.96 274.07,125.5 277.4,130.47 281.66,134.69 286.66,137.98 292.23,140.19 298.13,141.2 304.12,140.96 309.92,139.49 315.3,136.86 320.05,133.2 323.97,128.68 326.93,123.47 328.78,117.77 329.45,111.82 328.91,105.85 327.17,100.12 324.33,94.85 320.5,90.24 315.83,86.49 310.51,83.74 304.74,82.14 298.76,81.77 295.78,82.06"   /><polyline id="SvgjsPolyline3382" points="474.03,599.49 487.04,559.56 490.28,548 493.13,536.35 495.46,524.58 497.21,512.71 498.29,500.76 498.67,488.76 498.32,476.77 497.27,464.82 495.55,452.94 493.24,441.17 490.42,429.51 486.33,415.08 470.49,366.6 465.43,349.33 462.61,337.66 460.89,328.83 459.23,316.95 458.53,307.98 458.33,298.98 458.86,286.99 460.25,275.08 462.41,263.27 465.19,251.6 468.44,240.05 485.17,188.71 490.93,168.52 493.67,156.84 495.89,145.05 497.5,133.16 498.43,121.19 498.6,106.2 497.92,94.22 496.11,79.33 493.96,67.53 491.27,55.83 487.31,41.37 474.33,1.42"   /><polyline id="SvgjsPolyline3383" points="305.71,540.85 314.49,538.89 322.75,535.35 330.27,530.43 334.77,526.47 338.82,522.05 343.94,514.65 346.64,509.3 348.73,503.68 350.16,497.85 350.91,491.91 350.72,482.92 348.96,474.1 346.96,468.45 344.34,463.06 341.14,457.99 337.41,453.29 330.91,447.08 326.04,443.57 320.81,440.65 312.4,437.48 303.55,435.93 300.55,435.79 294.57,436.11 285.78,438.01 277.5,441.51 269.96,446.39 265.43,450.32 261.36,454.73 257.79,459.55 254.77,464.73 251.36,473.04 249.41,481.82 248.98,487.8 249.25,493.79 250.22,499.71 251.86,505.48 255.52,513.69 258.69,518.78 262.4,523.49 268.87,529.73 273.72,533.26 278.94,536.22 287.33,539.44 296.17,541.04 305.15,540.91"   /><polyline id="SvgjsPolyline3384" points="297.67,93.91 294.75,94.56 291.98,95.7 289.44,97.29 287.2,99.28 285.33,101.62 283.87,104.24 282.88,107.07 282.38,110.02 282.38,113.02 282.89,115.97 283.89,118.8 285.34,121.41 287.22,123.75 289.46,125.74 292,127.32 294.78,128.46 297.71,129.1 300.7,129.24 303.67,128.86 306.54,127.99 309.21,126.64 311.62,124.86 313.7,122.7 315.39,120.23 316.64,117.5 317.41,114.61 317.68,111.62 317.45,108.64 316.72,105.73 315.5,102.99 313.85,100.49 311.8,98.31 309.41,96.49 306.76,95.11 303.9,94.2 300.94,93.78 297.94,93.88"   /><polyline id="SvgjsPolyline3385" points="487.3,597.61 495.32,571.83 500.28,554.53 503.86,539.96 506.23,528.2 508.06,516.34 509.48,501.41 509.88,489.42 509.59,477.42 508.93,468.45 507.49,456.54 505.46,444.71 502.93,432.98 496.71,409.8 481.83,361.02 478.76,349.42 476.14,337.71 474.09,325.89 472.75,313.97 472.26,304.98 472.33,292.99 472.92,284.01 474.39,272.1 475.95,263.23 478.53,251.52 484.06,231.26 498.93,182.48 504.68,159.18 506.88,147.38 508.52,135.5 509.53,123.54 509.88,111.55 509.54,99.56 508.53,87.6 506.89,75.71 504.7,63.92 502.02,52.22 498.14,37.73 486.7,0.45"   /><polyline id="SvgjsPolyline3386" points="304.23,528.94 310.12,527.8 315.75,525.76 318.44,524.42 323.48,521.17 327.98,517.22 330.01,515.01 333.57,510.19 335.08,507.59 337.52,502.12 338.43,499.26 339.61,493.38 339.86,490.39 339.7,484.4 338.64,478.5 336.72,472.82 335.45,470.1 332.35,464.97 330.53,462.59 328.54,460.34 324.11,456.31 321.68,454.54 316.48,451.57 310.88,449.42 305.02,448.15 302.04,447.87 296.05,448.02 290.15,449.12 284.5,451.12 281.81,452.44 276.75,455.65 272.21,459.57 270.17,461.77 268.29,464.1 265.05,469.15 263.71,471.83 261.65,477.46 260.93,480.37 260.15,486.32 260.28,492.31 261.29,498.22 263.17,503.91 264.42,506.64 267.49,511.79 269.3,514.18 271.27,516.44 275.67,520.51 280.62,523.89 283.27,525.3 288.85,527.49 294.7,528.8 300.68,529.17 303.67,529"   /><polyline id="SvgjsPolyline3387" points="299.27,105.8 296.53,106.93 294.71,109.27 294.3,112.21 295.41,114.96 297.74,116.79 300.68,117.21 303.43,116.11 305.27,113.78 305.7,110.85 304.61,108.09 302.3,106.24 299.36,105.8"   /><polyline id="SvgjsPolyline3388" points="499.65,598.33 510.43,560.84 515.96,537.5 518.1,525.69 519.72,513.8 520.75,501.85 521.15,489.85 520.9,477.86 520.01,465.89 518.52,453.99 516.49,442.16 511.12,418.77 497.1,369.74 491.87,349.4 489.42,337.66 487.94,328.78 486.52,316.86 485.93,307.88 485.81,295.89 486.23,286.9 487.42,274.96 489.28,263.11 491.7,251.35 495.31,236.8 509.37,187.77 514.48,167.41 516.9,155.65 518.84,143.81 520.22,131.89 520.86,122.92 521.15,110.92 520.61,95.93 519.47,83.99 517.23,69.16 514.23,54.46 511.38,42.81 499.87,2.42"   /><polyline id="SvgjsPolyline3389" points="302.89,517.01 305.85,516.54 311.53,514.65 316.69,511.61 321.11,507.57 322.98,505.23 325.96,500.03 327.79,494.33 328.4,488.37 327.74,482.42 325.86,476.73 322.84,471.56 318.82,467.12 313.98,463.6 308.5,461.17 302.64,459.95 299.64,459.83 293.7,460.55 290.82,461.39 285.41,463.96 280.65,467.6 276.75,472.14 273.86,477.39 272.12,483.12 271.61,489.09 272.36,495.03 274.34,500.68 277.44,505.81 281.53,510.18 286.43,513.62 291.94,515.97 297.83,517.08 300.82,517.15"   /><polyline id="SvgjsPolyline3390" points="512.01,598.81 522.23,561.18 525.68,546.58 528.06,534.82 529.99,522.98 531.41,511.06 532.1,502.09 532.49,490.1 532.26,478.1 531.43,466.13 530.02,454.22 528.1,442.37 525.73,430.61 522.28,416.01 508.97,366.78 504.81,349.27 501.13,328.6 499.82,316.67 499.28,307.69 499.13,298.69 499.57,286.7 500.7,274.75 502.45,262.88 504.73,251.1 508.14,236.5 521.44,187.26 526.28,166.83 528.56,155.05 530.37,143.19 531.66,131.26 532.24,122.28 532.49,110.28 532.12,98.29 531.14,86.33 529.15,71.46 527,59.66 523.75,45.01 512.11,1.55"   /><polyline id="SvgjsPolyline3391" points="301.63,505.08 304.57,504.51 307.36,503.42 309.91,501.85 312.14,499.85 313.98,497.48 315.36,494.82 316.25,491.96 316.6,488.99 316.42,486 315.71,483.09 314.48,480.35 312.79,477.88 310.68,475.75 308.23,474.03 305.51,472.78 302.6,472.04 299.61,471.84 296.64,472.18 293.77,473.05 291.11,474.43 288.74,476.26 286.73,478.49 285.16,481.03 284.06,483.82 283.48,486.76 283.44,489.76 283.93,492.71 284.95,495.53 286.45,498.12 288.4,500.4 290.71,502.3 293.33,503.75 296.17,504.71 299.14,505.14"   /><polyline id="SvgjsPolyline3392" points="524.37,599.11 535.46,555.49 538.56,540.82 540.63,529 542.56,514.13 543.51,502.17 543.88,490.17 543.67,478.18 543.13,469.19 541.92,457.25 540.21,445.38 538.05,433.57 533.46,413.08 520.84,363.67 515.95,340.18 514.17,328.31 512.95,316.38 512.37,304.39 512.46,292.39 512.97,283.41 514.19,271.47 517.65,250.76 522.3,230.29 534.22,183.79 537.5,169.15 539.75,157.37 541.57,145.51 542.9,133.58 543.68,121.61 543.88,109.61 543.64,100.61 542.83,88.64 541.46,76.72 539.08,61.91 533.33,35.54 524.32,0.68"   /><polyline id="SvgjsPolyline3393" points="300.44,493.14 303.14,491.94 304.58,489.37 304.19,486.45 302.12,484.35 299.21,483.91 296.61,485.3 295.38,487.97 295.99,490.86 298.21,492.79"   /><polyline id="SvgjsPolyline3394" points="536.74,599.22 545.99,561.33 549.14,546.67 551.3,534.86 553.06,522.99 554.35,511.07 555.12,499.09 555.33,490.09 555.12,478.1 554.36,466.12 553.08,454.19 551.33,442.32 546.03,415.85 534.69,369.21 530.87,351.62 527.44,330.91 526.17,318.98 525.6,309.99 525.39,298 525.81,286.01 526.85,274.05 528.43,262.16 532.92,238.58 545.59,186.09 549.93,165.55 551.96,153.72 553.57,141.83 554.68,129.88 555.16,120.9 555.32,108.9 554.92,96.91 553.97,84.95 552.08,70.07 550.08,58.24 547.08,43.54 537.21,2.72"   /><polyline id="SvgjsPolyline3395" points="549.1,599.17 558.57,558.26 562.52,537.63 564.3,525.77 565.64,513.84 566.5,501.87 566.83,489.88 566.62,477.88 565.88,465.91 564.65,453.97 562.96,442.09 558.52,418.51 547.71,371.74 543.44,351.18 540.22,330.43 539.28,321.48 538.51,309.51 538.34,297.51 538.76,285.52 539.76,273.56 541.29,261.66 543.26,249.82 546.2,235.12 557.02,188.35 561.8,164.83 563.71,152.99 565.22,141.08 566.69,120.14 566.81,108.14 566.39,96.15 565.45,84.19 563.61,69.3 561.67,57.46 558.78,42.74 549.33,1.82"   /><polyline id="SvgjsPolyline3396" points="561.47,598.99 570.52,557.98 575.19,531.39 576.68,519.48 577.73,507.53 578.34,492.54 578.26,480.54 576.9,459.59 575.48,447.68 573.66,435.82 569.11,412.25 558.76,365.38 555.94,350.65 554.06,338.8 552.59,326.89 551.62,314.93 551.2,302.94 551.34,290.94 551.82,281.95 552.93,270.01 555.96,249.23 560.02,228.63 570.36,181.75 574.63,158.14 576.25,146.25 577.45,134.31 578.16,122.33 578.37,110.34 577.5,89.36 576.33,77.42 574.73,65.52 569.89,38.97 561.44,0.89"   /><polyline id="SvgjsPolyline3397" points="573.83,598.68 582.5,557.58 586.54,533.93 588.06,522.02 589.16,510.07 589.95,489.09 589.24,468.11 588.19,456.16 586.71,444.25 582.15,417.64 572.24,370.67 568.39,350.03 566.61,338.16 565.23,326.24 564.08,308.28 563.98,296.29 564.42,284.29 565.37,272.33 566.8,260.42 571.34,233.81 581.25,186.84 585.1,166.2 588.02,145.41 589.13,133.46 589.78,121.48 589.94,109.48 589.61,97.48 588.53,82.52 587.16,70.6 584.93,55.77 582.79,43.96 574.15,2.86"   /><polyline id="SvgjsPolyline3398" points="586.19,598.25 595.57,551.17 597.94,536.36 599.8,521.48"   /><polyline id="SvgjsPolyline3399" points="599.77,451.8 597.78,436.93 595.29,422.14 584.69,369.19 581.06,348.51 579.41,336.62 577.91,321.7 577.07,300.72 577.81,279.74 578.9,267.79 580.41,255.88 584.42,232.22 595.57,176.33 598.01,161.53 599.95,146.65"   /><polyline id="SvgjsPolyline3400" points="599.82,75.19 598.28,63.29 595.36,45.53 586.51,1.41"   /><polyline id="SvgjsPolyline3401" points="598.54,597.71 599.7,591.83"   /><polyline id="SvgjsPolyline3402" points="599.99,384.41 595.57,360.82 592.43,340.06 590.4,319.16 589.78,301.17 590.26,283.18 592.14,262.27 595.18,241.49 599.54,217.89"   /><polyline id="SvgjsPolyline3403" points="599.47,4.87 598.89,1.93"   /></g></svg>