<?xml version="1.0" standalone="no"?>
<svg id="SvgjsSvg1001" width="600" height="600" xmlns="http://www.w3.org/2000/svg" version="1.1" xmlns:xlink="http://www.w3.org/1999/xlink" xmlns:svgjs="http://svgjs.com/svgjs" class="svg-paper" viewBox="0 0 600 600"><title id="SvgjsTitle12087">x=y|y=max(cos(cos(exp(x))),x)/max(cos(cos((x-y))),y)|dTest=0.0|sd=0.4|sm=0.2|ts=0.05 | generated with FlowLines</title><style>*{fill:none;stroke:#777}</style><g id="SvgjsG12088"><polyline id="SvgjsPolyline12089" points="378.45,599.14 367.41,594.43 358.89,591.54 329.79,584.24 309.26,579.85 256.17,570 206.47,558.56 179.9,553.8 126.4,546.49 105.66,543.18 85.09,538.97 41.37,528.31 23.7,524.88 0,521.08"   /><polyline id="SvgjsPolyline12090" points="424.66,599.63 414.32,593.54 394.04,580.71 383.6,574.81 372.71,569.76 367.1,567.66 358.5,565 285.44,548.07 268.02,543.52 239.16,535.35 221.67,531.07 201.06,527.09 153.61,519.83 129.98,515.66 109.52,510.93 74.87,501.17 60.31,497.58 39.73,493.38 1.32,486.65"   /><polyline id="SvgjsPolyline12091" points="287.41,599.98 234.02,591.95 219.28,589.17 184.04,581.78 163.36,578.16 145.54,575.64 97.9,569.78 74.16,566.22 56.49,562.83 18.42,554.34 0.73,551.05"   /><polyline id="SvgjsPolyline12092" points="469.25,599.19 453.63,590.24 440.98,582.19 431.23,575.2 410.14,558.35 400.39,551.34 395.29,548.2 387.33,544 381.85,541.55 373.44,538.35 361.97,534.84 338.61,529.32 321.32,524.35 301.47,517.49 270.67,505.66 253.52,500.19 233.11,495.27 182.96,486.01 159.52,480.86 142.22,475.89 111,465.22 96.64,460.88 79.19,456.45 29.43,445.3 14.99,441.27 0.82,436.35"   /><polyline id="SvgjsPolyline12093" points="145.36,599.64 124.55,596.87 76.86,591.44 56.05,588.63 35.35,585.06 0.1,577.77"   /><polyline id="SvgjsPolyline12094" points="510.45,599.12 498.44,590.14 471.06,571.73 459.07,562.71 447.88,552.73 426.85,531.34 417.77,523.51 407.93,516.65 394.76,509.47 386.56,505.76 375.42,501.31 344.21,490.61 335.9,487.15 325.26,481.6 301.99,467.93 293.94,463.9 285.67,460.36 277.21,457.29 268.62,454.61 222.13,442.68 210.6,439.36 199.22,435.53 185.34,429.87 160.98,418.23 147.25,412.19 130.39,405.87 90.62,392.39 79.51,387.85 68.77,382.51 61.09,377.82 53.82,372.52 46.95,366.71 38.24,358.46 19.14,339.38 10.95,330.61 5.34,323.58 0.69,315.88"   /><polyline id="SvgjsPolyline12095" points="492.63,598.9 464.68,581.35 452.37,572.79 440.77,563.29 420.87,545.04 411.44,537.62 401.29,531.23 395.98,528.45 387.78,524.74 379.38,521.5 370.85,518.65 344.81,511.53 333.43,507.73 319.59,501.95 289.83,487.7 281.5,484.28 270.21,480.23 261.6,477.61 249.98,474.6 203.04,464.61 182.67,459.51 165.55,453.96 134.86,441.83 117.87,435.9 100.59,430.86 65.78,421.7 48.57,416.41 37.35,412.16 26.46,407.13 15.95,401.34 0.58,391.98"   /><polyline id="SvgjsPolyline12096" points="451.23,599.64 440.76,593.78 430.55,587.47 423.12,582.4 406.17,570 396.16,563.38 390.95,560.42 382.85,556.49 377.29,554.23 368.77,551.33 360.1,548.94 333.77,542.97 313.47,537.61 293.32,531.67 256.24,519.59 238.86,514.92 218.3,510.65 170.96,502.75 150.35,498.74 129.99,493.58 98.48,483.79 81.12,479.03 60.63,474.45 19.42,466.36 1.88,462.31"   /><polyline id="SvgjsPolyline12097" points="542.18,598.55 534.41,589.41 523.69,578.93 514.58,571.11 491.1,552.45 480,542.37 469.91,531.27 451.74,507.41 445.99,500.49 437.65,491.86 430.88,485.93 423.76,480.43 416.38,475.28 393.66,460.69 381.26,452.26 371.67,445.05 352.92,430.06 326.15,410.77 310.91,401.21 276.83,382.25 266.84,375.6 257.56,368.01 249.16,359.44 241.56,350.16 232.76,338.02 224.68,325.39 220.56,317.39 218.41,311.79 216.98,305.97 216.6,302.99 216.61,297 217,294.03 218.51,288.23 222.29,280.07 227.37,272.65 235.41,263.76 244.36,255.77 256.29,246.69 271.24,236.67 284.25,229.2 308.34,217.01 327.44,208.28 341.4,202.81 358.55,197.36 369.87,193.37 394.97,183.42 427.97,169.03 523.7,125.9 598.06,93.79"   /><polyline id="SvgjsPolyline12098" points="527.95,598.48 521.51,592.21 512.35,584.46 485.8,564.85 474.16,555.4 467.59,549.26 461.37,542.75 443.9,522.17 435.65,513.45 426.62,505.56 421.82,501.97 414.32,496.99 398.61,488.22 344.82,461.65 337.17,456.9 315,441.5 301.88,434.24 293.68,430.53 285.32,427.22 242.85,412.35 231.8,407.68 223.73,403.68 213.35,397.67 183.21,377.99 170.19,370.54 143.8,356.28 136.14,351.56 131.22,348.13 124.29,342.39 118.16,335.81 113.14,328.35 110.52,322.96 107.7,314.42 106.21,305.56 106.05,296.56 106.71,290.6 108.85,281.87 112.28,273.56 115.2,268.32 118.52,263.32 124.27,256.41 130.97,250.41 140.82,243.57 151.31,237.75 164.95,231.51 176.11,227.12 187.43,223.13 216.14,214.42 236.43,209.02 288.81,195.89 335.12,183.29 367.26,175.8 381.7,171.75 398.86,166.33 424.34,157.39 457.98,144.57 599.91,87.44"   /><polyline id="SvgjsPolyline12099" points="521.11,599.36 514.38,593.39 507.32,587.8 480.42,568.7 468.62,559.44 457.68,549.19 437.53,526.96 428.92,518.61 419.52,511.16 406.81,503.2 396.14,497.72 385.22,492.75 349.15,477.92 343.72,475.36 333.37,469.31 313.32,456.12 305.47,451.71 297.36,447.82 289.02,444.43 280.53,441.44 237.39,428.66 226.03,424.82 217.64,421.54 204.06,415.19 177.84,400.62 167.16,395.15 150.75,387.74 125.79,377.45 114.81,372.61 104.13,367.15 96.48,362.41 91.64,358.87 87.07,354.98 80.81,348.52 75.31,341.4 69.08,331.16 64.05,320.27 61.28,311.71 59.84,302.84 59.86,296.85 60.22,293.87 60.8,290.93 62.63,285.22 66.78,277.24 70.25,272.35 74.13,267.78 82.75,259.44 94.54,250.17 107.07,241.95 120.41,235.08 137.02,228.16 148.31,224.12 162.6,219.54 194.42,210.82 223.62,203.95 288.1,189.87 337.63,177.7 364.04,172.12 381.47,167.63 395.86,163.39 427.18,152.98 460.96,140.55 497.33,126.46 597.75,86.72"   /><polyline id="SvgjsPolyline12100" points="502.52,598.94 492.67,592.09 470.02,577.39 457.86,568.61 446.46,558.88 424.93,537.99 415.65,530.39 405.62,523.81 394.99,518.26 386.73,514.68 375.49,510.47 361.21,505.88 346.81,501.71 335.56,497.53 324.71,492.42 298.27,478.25 290.09,474.49 278.89,470.2 270.32,467.46 258.74,464.31 214.89,454.2 194.66,448.58 180.53,443.56 147.46,429.35 133.43,424.03 119.17,419.38 81.78,408.31 64.82,402.29 51.2,396.02 40.86,389.94 33.44,384.85 14.24,370.45 2.03,361.73"   /><polyline id="SvgjsPolyline12101" points="515.6,599.1 503.86,589.77 476.73,570.99 467.17,563.74 460.32,557.9 453.8,551.7 435.34,532 426.66,523.72 419.64,518.08 414.73,514.64 409.65,511.45 401.77,507.1 393.67,503.18 382.64,498.45 365.85,491.98 348.91,485.89 340.67,482.29 332.75,478 307.22,462.27 293.74,455.71 285.35,452.43 273.95,448.69 230.53,436.9 219.06,433.36 210.58,430.36 202.24,426.98 194.06,423.22 170.03,410.92 159.18,405.79 145.33,400.04 103.16,384.32 92.25,379.35 81.81,373.44 72.15,366.34 63.46,358.07 53.79,346.61 43.36,331.95 35.87,318.96 32.54,310.61 31.25,304.76 30.96,301.77 31.19,295.78 31.7,292.83 33.47,287.1 34.67,284.36 37.62,279.13 41.12,274.26 45.04,269.72 53.76,261.49 65.73,252.46 81.01,242.96 88.9,238.63 97,234.71 113.64,227.85 127.8,222.9 142.12,218.46 159.47,213.64 176.93,209.27 209.13,202.07 291.46,185.38 335.28,175.15 367.59,168.48 393.69,161.56 425.12,151.53 461.84,138.39 503.89,122.37 598.9,85.25"   /><polyline id="SvgjsPolyline12102" points="570.65,599.59 557.93,579.24 552.66,571.94 546.97,564.97 536.66,554.09 512.74,531.36 506.58,524.79 500.82,517.88 492.23,505.59 475.63,477.08 467.3,464.6 461.79,457.49 455.93,450.66 437.43,431 429.49,422 423.97,414.9 418.93,407.44 413.04,396.99 406.78,383.36 391.18,344.36 386.02,330.28 383.48,321.65 381.65,312.84 380.73,303.89 380.79,294.9 382.28,283 385.02,271.32 389.65,257.05 391.82,251.46 394.37,246.03 400.53,235.75 407.81,226.21 418.02,215.23 429.07,205.09 443.08,193.79 460.12,181.52 477.68,170 498.19,157.55 521.69,144.24 545.51,131.54 574.97,116.68 599.3,104.97"   /><polyline id="SvgjsPolyline12103" points="556.62,597.8 547.93,585.58 538.09,574.27 527.22,563.93 504.56,544.27 498.08,538.03 491.96,531.44 482.71,519.64 462.73,489.7 453.25,478.08 446.99,471.61 440.39,465.49 415.11,444.29 404.05,434.16 397.86,427.63 392.06,420.75 372.58,394.12 364.89,384.91 356.37,376.47 342.39,365.13 337.92,361.13 331.6,354.73 327.7,350.17 322.42,342.89 319.38,337.72 316.77,332.32 313.75,323.84 312.32,318.02 311.01,309.12 310.58,300.13 310.96,291.14 312.1,282.22 313.99,273.42 316.62,264.82 320.24,256.59 325.01,248.96 330.74,242.03 337.28,235.85 344.5,230.49 414.5,189.74 443.38,173.78 469.9,159.75 499.33,144.82 534.42,127.8 564.33,113.86 599.91,97.89"   /><polyline id="SvgjsPolyline12104" points="551.13,599.58 542.07,587.63 531.83,576.68 522.93,568.63 497.63,547.44 486.94,536.93 477.36,525.4 461.87,503.28 456.48,496.08 450.68,489.2 444.43,482.73 433.16,472.84 406.74,453.07 395.08,443.63 384.2,433.31 365.85,413.51 357.05,405.36 330.45,385.83 313.72,373.14 304.48,365.49 295.87,357.14 290.09,350.25 285.09,342.77 282.24,337.49 278.7,329.22 276,320.64 274.14,311.84 273.23,302.89 273.45,293.9 274.97,285.04 277.79,276.5 280.3,271.05 283.21,265.81 289.98,255.9 297.66,246.69 306.35,238.43 315.77,231 328.26,222.7 341.49,215.63 363.65,206.44 385.45,196.41 463.53,158.03 509.55,136.05 558.66,113.6 599.88,95.54"   /><polyline id="SvgjsPolyline12105" points="537.2,599.85 529.14,590.96 520.35,582.8 511.04,575.23 489.59,558.83 478.27,549 471.93,542.61 465.97,535.87 451.08,517.04 443.26,507.95 434.67,499.57 425.31,492.07 412.82,483.77 381.62,465.82 368.82,457.99 348.64,445.01 329.22,430.91 316.64,422.76 308.75,418.42 300.66,414.47 267.62,400.19 256.83,394.95 243.94,387.29 231.83,378.44 207.04,356.66 186.52,339.12 179.96,332.96 173.94,326.27 168.92,318.82 166.41,313.37 165.47,310.52 164.29,304.65 164.05,301.66 164.24,295.67 165.98,286.85 169.09,278.41 171.76,273.04 174.8,267.87 178.16,262.9 181.88,258.19 188.31,251.91 195.44,246.43 205.64,240.1 216.3,234.61 235.6,226.34 263.84,216.22 329.28,194.35 340.77,190.87 358.2,186.41 369.73,183.08 386.84,177.48 403.76,171.34 448.34,153.55 550.61,110.42 597.74,90.93"   /><polyline id="SvgjsPolyline12106" points="547.17,600 537.8,588.29 529.45,579.68 520.48,571.71 497.18,552.81 490.44,546.84 484.02,540.54 474.22,529.19 458.32,507.37 452.79,500.28 444.76,491.36 438.22,485.19 431.29,479.44 424.08,474.05 399.36,457.05 389.71,449.93 380.45,442.3 362.79,426.05 353.55,418.39 326.7,399.22 291.51,376.29 282.05,368.92 275.5,362.75 269.59,355.97 264.37,348.65 259.79,340.9 254.58,330.09 250.34,318.87 248.02,310.18 246.97,301.25 247.21,295.26 247.64,292.29 249.11,286.48 252.67,278.23 255.75,273.08 259.25,268.21 267.12,259.16 277.96,248.79 289.45,239.16 301.73,230.55 317.13,221.24 327.71,215.58 338.58,210.5 363.89,201.1 391.5,189.38 511.11,133.55 554.89,113.88 598.93,94.78"   /><polyline id="SvgjsPolyline12107" points="538.81,598.17 530.81,589.24 522.07,581.02 512.81,573.38 491.5,556.8 480.28,546.86 470.05,535.9 453.48,514.59 445.78,505.38 437.33,496.87 428.1,489.21 415.77,480.68 387.55,463.56 377.46,457.07 345.55,434.65 331.06,423.97 321.09,417.31 305.39,408.51 278.32,395.59 267.65,390.09 259.9,385.51 254.92,382.17 245.49,374.76 234.67,364.38 214.26,342.39 206.36,333.36 200.92,326.19 196.4,318.42 194.24,312.83 192.26,304.06 192.03,301.07 192.37,295.09 192.91,292.14 194.64,286.4 198.54,278.3 203.57,270.84 211.47,261.82 220.29,253.69 232.2,244.58 242.4,238.26 253.01,232.66 263.86,227.55 280.4,220.43 324.95,202.58 339.09,197.57 359.26,191.74 370.68,188.07 390.43,180.92 407.17,174.29 440.34,160.32 542.11,116.01 597.39,92.67"   /><polyline id="SvgjsPolyline12108" points="532.35,598.63 526.11,592.14 517.18,584.13 510.15,578.51 486.17,560.49 474.79,550.72 464.39,539.92 447.26,519.05 439.2,510.17 430.35,502.06 420.76,494.86 405.42,485.46 373.65,468.53 350.14,455.26 342.56,450.4 323.08,436.39 310.21,428.7 302.14,424.71 293.89,421.11 254.74,405.93 243.85,400.88 235.95,396.58 223.41,388.35 194.6,366.77 169.66,350.11 162.34,344.87 155.4,339.14 149.14,332.69 143.69,325.53 140.71,320.33 138.47,314.77 136.99,308.96 136.28,303 136.52,294.02 138.12,285.17 139.85,279.42 142.03,273.84 146.09,265.81 151.4,258.56 157.82,252.26 167.44,245.1 177.79,239.04 191.32,232.56 210.85,224.87 236.51,216.46 291.29,200.71 334.4,187.83 360.62,181.38 372.19,178.19 386.52,173.76 400.72,168.94 426.05,159.59 453.96,148.58 598.28,89.36"   /><polyline id="SvgjsPolyline12109" points="511.15,598.84 499.17,589.82 471.87,571.27 462.35,563.97 451.19,553.95 430.3,532.43 421.28,524.52 411.5,517.58 406.35,514.5 398.38,510.32 390.2,506.56 379.08,502.07 364.97,496.98 347.89,491.29 339.57,487.87 328.93,482.33 305.72,468.54 297.7,464.46 289.44,460.88 281,457.77 269.54,454.21 223.05,442.26 211.56,438.83 203.05,435.9 189.17,430.22 162.13,417.22 151.14,412.41 134.31,406.03 94.57,392.44 80.76,386.59 70.2,380.91 60.31,374.13 55.66,370.34 49.01,364.27 28.18,342.68 22.14,336.01 16.42,329.06 11.4,321.6 8.74,316.23 7.7,313.42 6.89,310.53 6.05,304.6 6.3,298.61 6.81,295.65 9.27,287 13.21,278.92 16.52,273.93 20.25,269.23 24.3,264.8 30.86,258.64 42.7,249.45 55.36,241.41 68.74,234.64 88.2,226.76 105.26,221.03 119.65,216.77 139.95,211.41 163.31,205.93 201.51,198.07 272.33,185.06 295.87,180.41 336.88,171.36 366.33,165.64 392.51,159.06 424.07,149.41 463.74,135.61 503.09,120.94 598.28,84.29"   /><polyline id="SvgjsPolyline12110" points="597.01,597.74 592.51,589.95 578.28,563.54 570.34,550.82 565.05,543.53 559.41,536.52 535.71,509.43 528.5,499.85 523.61,492.29 519.22,484.43 515.26,476.35 503.34,448.82 496.89,435.28 491.21,424.72 476.09,398.8 470.56,388.16 466.92,379.93 463.82,371.48 461.26,362.85 458.63,351.15 456.7,339.3 455.32,327.38 454.24,312.42 453.93,300.43 454.44,285.44 455.73,273.51 457.89,261.71 461.8,247.24 465.83,235.94 471.01,225.12 477.28,214.89 484.45,205.28 492.34,196.23 502.96,185.65 514.23,175.75 528.37,164.61 543.01,154.15 560.56,142.62 578.49,131.69 599.34,119.79"   /><polyline id="SvgjsPolyline12111" points="583.21,597.67 569.74,574.27 564.8,566.75 559.44,559.51 549.67,548.14 524.72,522.2 518.93,515.3 513.59,508.07 505.73,495.29 490.86,465.84 483.48,452.78 475.18,440.29 453.75,411.36 448.81,403.85 444.32,396.05 439.21,385.19 436.04,376.77 432.55,365.29 429.03,350.71 425.64,333.04 423.53,318.19 422.59,306.23 422.57,294.23 423.67,282.29 425.23,273.43 426.6,267.58 430.99,253.24 436.47,239.29 440.52,231.25 446.94,221.12 454.28,211.63 462.35,202.75 473.17,192.37 484.61,182.67 498.92,171.76 516.2,159.82 533.93,148.57 554.59,136.37 578.23,123.32 599.51,112.22"   /><polyline id="SvgjsPolyline12112" points="563.17,598.46 553.2,583.48 543.71,571.88 533.14,561.23 508.68,539.08 502.36,532.68 496.43,525.91 487.53,513.85 468.38,483.37 459.29,471.44 449.09,460.45 429.38,442 420.82,433.59 412.84,424.63 407.38,417.48 399.31,404.84 386.28,381.2 380.16,370.88 373.57,360.85 358.09,338.73 353.33,331.09 350.5,325.8 347.12,317.47 345.68,311.65 344.68,302.71 344.9,293.72 345.62,287.76 346.75,281.87 350.12,270.36 353.36,261.97 356.07,256.62 359.2,251.5 366.43,241.93 374.57,233.12 385.57,222.93 399.56,211.6 416.56,199.29 434.07,187.69 454.51,175.12 480.54,160.2 509.61,144.59 536.36,131 568.76,115.31 598.7,101.44"   /><polyline id="SvgjsPolyline12113" points="2.16,253.74 9.16,248.09 16.68,243.15 27.21,237.41 38.12,232.4 52.08,226.92 66.27,222.07 83.51,216.9 100.9,212.26 133.04,204.78 165.39,198.26 203.78,191.39 283.67,178.02 304.29,174.07 336.6,167.35 363.17,162.54 383.65,157.93 403.93,152.48 435.46,142.74 472.33,130.03 520.19,112.41 598.73,82.64"   /><polyline id="SvgjsPolyline12114" points="598.96,551.72 592.18,538.35 584.47,525.48 577.64,515.62 561.49,493.98 553.2,481.48 546.13,468.26 541.43,457.22 537.39,445.93 526.27,411.69 511.85,372.24 506.71,355 504.18,343.27 502.11,328.42 501.07,313.45 500.8,298.46 501.17,283.46 502.16,268.5 503.57,256.58 505.22,247.74 507.48,239.03 511.48,227.72 515.22,219.53 521.09,209.07 527.86,199.17 535.36,189.81 543.46,180.96 552.04,172.56 561,164.58 572.63,155.11 584.63,146.12 599.43,135.87"   /><polyline id="SvgjsPolyline12115" points="1.33,224.63 21.36,218.32 47.44,211.33 79.61,203.99 109.03,198.14 138.57,192.87 168.17,188.04 263.16,174.13 289.83,169.94 337.03,161.22 363.67,156.8 387.14,151.8 401.68,148.14 421.9,142.47 461.94,129.78 515.73,110.92 597.35,80.82"   /><polyline id="SvgjsPolyline12116" points="598.8,504.24 581.14,476.37 575.16,465.97 568.71,452.43 565.47,444.03 562.66,435.48 557.23,415.2 543.85,359.79 540.75,345.12 538.82,333.28 537.78,324.34 536.94,312.37 536.67,300.37 536.87,288.37 537.63,273.39 538.6,261.43 539.76,252.51 541.41,243.66 543.62,234.94 546.42,226.39 549.81,218.06 553.77,209.97 558.26,202.17 563.21,194.66 568.58,187.44 574.32,180.51 582.44,171.68 591.01,163.28 599.95,155.28"   /><polyline id="SvgjsPolyline12117" points="2.66,199.12 46.97,191.27 100.35,183.11 159.82,175.17 281.92,160.31 302.7,157.29 338.22,151.48 361.98,148.05 382.63,144.26 400.21,140.39 423.47,134.48 443.68,128.77 469.49,120.87 517.9,104.82 599.94,75.87"   /><polyline id="SvgjsPolyline12118" points="598.71,459.31 592.23,445.78 587.87,434.6 583.51,420.26 579.52,402.71 573.21,367.27 568.64,337.62 566.58,316.72 566.06,298.73 566.68,280.75 568.46,259.82 570.56,244.98 573.23,233.28 576.87,221.85 582.81,208.08 590.18,195.03 598.78,182.74"   /><polyline id="SvgjsPolyline12119" points="1.18,175.15 51.82,169.12 111.47,162.67 281.66,146.01 359.02,136.08 379.78,132.93 400.42,129.02 420.92,124.49 444.2,118.67 467.35,112.32 498.98,102.93 527.6,93.92 598.77,70.27"   /><polyline id="SvgjsPolyline12120" points="599.71,380.9 596.65,357.1 594.18,333.23 592.93,315.27 592.55,300.28 592.92,285.28 594.33,267.34 597.01,246.52 599.34,234.75"   /><polyline id="SvgjsPolyline12121" points="1.23,151.14 96.89,143.17 276.37,129.43 303.24,126.84 356.93,121.01 383.7,117.55 404.42,114.1 427.96,109.47 448.46,104.9 474.67,98.44 503.64,90.65 529.6,83.22 598.44,62.13"   /><polyline id="SvgjsPolyline12122" points="2.14,127.15 274.63,110.46 301.55,108.38 358.32,103.31 385.16,100.37 405.95,97.42 426.66,93.96 453.17,88.84 476.63,83.76 499.99,78.26 531.97,70.13 560.93,62.3 598.44,51.64"   /><polyline id="SvgjsPolyline12123" points="0.59,103.38 270.27,90.29 297.22,88.64 360.05,84.03 383.95,81.84 407.78,78.99 431.53,75.56 452.25,72.11 481.73,66.56 505.22,61.66 534.49,55.05 563.64,47.99 598.52,39.05"   /><polyline id="SvgjsPolyline12124" points="2.39,79.44 269.19,68.96 302.14,67.27 356.04,63.97 388.94,61.43 409.83,59.26 436.62,55.89 460.36,52.39 484.04,48.46 510.59,43.59 540,37.68 598.56,24.59"   /><polyline id="SvgjsPolyline12125" points="1.44,55.64 271.3,46.89 355.2,42.83 388.13,40.7 409.05,38.88 432.92,36.36 459.71,33.02 486.43,29.18 516.05,24.39 542.63,19.66 598.54,8.55"   /><polyline id="SvgjsPolyline12126" points="0.66,31.83 264.57,24.7 309.54,23.05 375.47,20.03 417.35,16.97 459.14,12.71 503.76,6.94 548.24,0.08"   /><polyline id="SvgjsPolyline12127" points="0.02,8.02 248.96,2.36 320.92,0.1"   /></g></svg>