<?xml version="1.0" standalone="no"?>
<svg id="SvgjsSvg1001" width="600" height="600" xmlns="http://www.w3.org/2000/svg" version="1.1" xmlns:xlink="http://www.w3.org/1999/xlink" xmlns:svgjs="http://svgjs.com/svgjs" class="svg-paper" viewBox="0 0 600 600"><title id="SvgjsTitle10716">x=exp(max(cos(y),sin(y)))/exp(cos(y))|y=cos(max(y,x))|dTest=0.0|sd=0.2|sm=0.2|ts=0.05 | generated with FlowLines</title><style>*{fill:none;stroke:#777}</style><g id="SvgjsG10717"><polyline id="SvgjsPolyline10718" points="0,521.08 32.33,527.73 82.43,537.22 132.04,549.07 152.54,553.6 173.24,557.14 191.14,558.97 203.13,559.44 215.13,559.25 227.1,558.44 241.98,556.61 253.81,554.6 268.51,551.59 321.02,539.01 344.52,534.16 359.34,531.82 371.26,530.48 383.23,529.66 395.23,529.41 407.22,529.75 419.19,530.66 431.1,532.09 442.95,533.97 466.46,538.78 521.91,552.01 536.61,554.96 548.45,556.89 560.37,558.34 575.33,559.33 587.33,559.4 599.31,558.84"   /><polyline id="SvgjsPolyline10719" points="2.55,509.35 34.6,517.21 84.46,527.91 142.88,541.6 157.6,544.48 169.45,546.38 190.33,548.54 202.32,549.02 214.32,548.89 226.29,548.17 241.2,546.5 253.05,544.63 267.78,541.78 323.27,528.76 346.78,523.94 358.63,522.04 370.54,520.62 382.51,519.73 394.5,519.44 406.5,519.76 418.46,520.67 430.37,522.12 442.22,524.03 465.72,528.87 518.28,541.26 532.99,544.19 544.83,546.14 556.73,547.65 571.69,548.78 586.68,549.01 598.67,548.51"   /><polyline id="SvgjsPolyline10720" points="0.42,533.44 62.58,543.65 77.32,546.45 97.78,551.17 144.27,563.1 161.85,566.97 179.61,569.88 194.54,571.28 203.54,571.59 215.53,571.36 227.49,570.4 239.38,568.8 251.19,566.66 262.92,564.12 315.24,550.79 341.6,544.96 356.4,542.47 368.3,541 383.26,539.89 395.26,539.65 407.25,539.99 419.22,540.9 434.1,542.77 445.93,544.78 469.38,549.85 527.55,564.57 539.29,567.05 551.11,569.11 563.01,570.61 574.98,571.45 586.98,571.56 598.96,570.93"   /><polyline id="SvgjsPolyline10721" points="2.72,496.84 22.81,502.95 45.95,509.31 130.49,529.85 145.14,533.08 159.88,535.85 174.72,538 186.66,539.18 201.64,539.88 213.64,539.79 228.61,538.86 243.51,537.11 258.31,534.66 273,531.66 325.5,519.01 348.98,514.06 360.82,512.12 372.73,510.69 384.7,509.85 393.7,509.64 402.7,509.8 414.67,510.59 426.59,511.97 438.44,513.86 461.93,518.76 514.42,531.43 529.11,534.46 543.9,536.96 558.79,538.76 570.76,539.62 585.76,539.9 597.75,539.46"   /><polyline id="SvgjsPolyline10722" points="1.28,545.78 51.83,552.56 72.51,556.21 87.12,559.58 98.73,562.63 141.93,575.21 159.32,579.88 176.92,583.6 185.82,584.93 194.78,585.8 203.77,586.18 215.76,585.87 224.73,585.04 236.59,583.25 248.33,580.8 259.97,577.88 311.85,562.88 326.36,559.09 338.06,556.41 352.79,553.62 367.65,551.57 379.61,550.54 394.6,550.09 406.59,550.41 421.54,551.64 433.43,553.25 448.18,555.94 459.9,558.55 474.43,562.27 529.2,578.06 540.84,580.95 552.59,583.37 564.46,585.12 576.42,586.06 588.42,586.09 597.4,585.5"   /><polyline id="SvgjsPolyline10723" points="0.78,483.25 26.11,492.61 48.94,499.98 74.9,507.41 112.64,517.24 135.94,523.01 153.55,526.72 171.32,529.6 186.23,531.18 201.21,531.91 216.21,531.73 231.17,530.65 246.04,528.76 260.82,526.17 275.48,523.03 330.74,509.04 351.25,504.53 363.07,502.5 372,501.34 383.96,500.36 392.95,500.09 404.95,500.38 413.92,501.07 425.82,502.56 437.65,504.6 458.15,509.14 513.41,523.12 528.08,526.25 542.85,528.82 557.73,530.69 572.7,531.74 587.69,531.9 599.68,531.37"   /><polyline id="SvgjsPolyline10724" points="2.56,558.09 47.32,562.74 62.12,565.19 76.76,568.46 91.22,572.43 105.52,576.95 153.52,594.17 170.68,599.6"   /><polyline id="SvgjsPolyline10725" points="0.94,553.94 45.65,559.02 57.5,560.91 69.26,563.31 83.81,566.93 98.21,571.11 149.43,588.21 163.81,592.48 178.42,595.85 187.31,597.3 196.25,598.3 208.24,598.65 217.22,598.13 226.15,597 237.92,594.67 258.14,589.03 297.96,575.68 315.13,570.29 329.59,566.28 344.2,562.88 358.96,560.22 370.86,558.7 382.82,557.79 394.82,557.5 409.81,558.03 424.73,559.54 439.53,561.93 454.19,565.11 468.69,568.93 483.06,573.26 534.31,590.25 545.86,593.51 557.56,596.16 569.42,597.95 578.4,598.6 587.4,598.58 599.35,597.56"   /><polyline id="SvgjsPolyline10726" points="2.55,470.82 21.65,479.54 41.14,487.34 60.94,494.34 86.71,502.38 121.38,512.09 144.68,517.82 165.31,521.74 183.17,523.98 198.14,524.91 213.13,524.92 231.09,523.72 245.96,521.78 260.72,519.11 278.28,515.14 333.27,500.17 353.7,495.31 362.54,493.63 374.42,491.94 383.39,491.14 395.38,490.8 407.37,491.3 416.32,492.2 428.18,494.02 437.01,495.77 454.51,499.98 509.5,514.96 524.11,518.35 538.84,521.18 553.69,523.31 568.63,524.62 583.62,525.03 598.61,524.51"   /><polyline id="SvgjsPolyline10727" points="1.29,570.02 37.21,572.37 52.06,574.45 63.81,576.87 78.29,580.77 92.51,585.54 109.21,592.25 125.53,599.85"   /><polyline id="SvgjsPolyline10728" points="264.67,599.54 289.58,589.13 306.37,582.63 320.56,577.76 334.95,573.53 349.54,570.07 364.31,567.5 379.22,565.9 394.21,565.36 409.2,565.9 424.11,567.49 438.89,570.06 453.48,573.52 467.87,577.74 482.06,582.61 498.85,589.1 523.76,599.51"   /><polyline id="SvgjsPolyline10729" points="0.06,455.52 18.34,465.86 37.17,475.15 59.26,484.52 81.79,492.78 113.24,502.76 139.27,509.94 159.79,514.39 168.66,515.89 180.56,517.42 198.52,518.66 213.51,518.64 231.46,517.37 246.32,515.33 263.99,511.89 281.46,507.56 298.76,502.61 336.07,491.24 356.38,485.91 368.15,483.57 377.06,482.3 386.02,481.52 395.02,481.28 404.01,481.61 412.97,482.48 421.86,483.83 433.61,486.26 451.02,490.83 505.62,507.17 523.08,511.56 537.77,514.57 552.6,516.85 567.53,518.27 582.52,518.77 597.51,518.3"   /><polyline id="SvgjsPolyline10730" points="0.52,582 27.51,582.39 39.45,583.56 48.33,585 60.04,587.64 68.68,590.14 79.99,594.15 91.02,598.88"   /><polyline id="SvgjsPolyline10731" points="296.82,599.15 307.66,594.01 321.52,588.28 335.71,583.4 347.26,580.18 358.99,577.62 370.84,575.76 382.79,574.65 394.78,574.29 406.77,574.71 418.71,575.9 430.55,577.82 442.26,580.44 456.66,584.63 467.96,588.66 479.06,593.22 492.62,599.62"   /><polyline id="SvgjsPolyline10732" points="1.38,441.9 21.41,455.11 39.63,465.56 50.31,471.02 61.17,476.12 83.31,485.38 108.72,494.5 125.87,499.97 137.41,503.27 157.84,508.11 169.65,510.22 178.56,511.45 196.5,512.9 214.5,512.92 232.44,511.51 250.22,508.78 267.8,504.91 285.15,500.11 302.3,494.66 339.21,482.05 359.35,476.11 368.12,474.1 376.99,472.57 385.93,471.63 394.93,471.34 403.92,471.73 412.86,472.77 421.71,474.38 430.47,476.45 447.73,481.55 484.64,494.14 501.78,499.64 519.1,504.5 533.72,507.88 551.46,510.93 566.37,512.49 584.36,513.08 599.34,512.47"   /><polyline id="SvgjsPolyline10733" points="0.46,594 15.43,593.09 24.43,593.26 30.41,593.71 45.23,595.99 59.71,599.89"   /><polyline id="SvgjsPolyline10734" points="325.78,599.5 334.06,595.97 342.51,592.88 351.12,590.25 359.85,588.09 374.63,585.56 383.59,584.7 392.58,584.35 401.58,584.51 410.55,585.18 419.47,586.35 428.32,588.02 437.06,590.16 445.67,592.78 454.13,595.85 462.41,599.36"   /><polyline id="SvgjsPolyline10735" points="0.5,427.58 13.41,435.21 35.78,450.33 51.11,459.76 69.6,469.72 88.63,478.58 113.71,488.58 136.47,496.19 156.78,501.49 168.55,503.81 177.45,505.16 195.37,506.79 213.37,506.91 231.31,505.51 243.18,503.77 252.02,502.08 269.5,497.79 289.53,491.52 309.23,484.23 345.43,469.73 362.44,463.84 371.12,461.49 379.95,459.76 385.91,459.02 394.89,458.64 400.89,458.88 409.82,459.96 418.63,461.8 427.3,464.22 444.27,470.2 477.68,483.61 494.52,489.96 514.47,496.5 528.96,500.38 546.59,503.99 564.44,506.25 582.42,507.05 597.41,506.54"   /><polyline id="SvgjsPolyline10736" points="362.42,599.81 371.21,597.88 377.13,596.94 386.09,596.06 395.08,595.8 404.07,596.17 410.04,596.77 418.93,598.19 424.78,599.49"   /><polyline id="SvgjsPolyline10737" points="0.47,414.89 17.23,421.45 25.39,425.25 33.36,429.42 43.68,435.55 63.53,449.03 78.79,458.57 94.54,467.28 110.72,475.17 130.05,483.37 147.07,489.2 164.5,493.7 179.26,496.32 188.2,497.36 200.18,498.09 209.18,498.14 221.16,497.54 233.08,496.2 241.96,494.72 253.68,492.16 262.37,489.81 270.96,487.13 282.25,483.06 293.34,478.49 304.24,473.46 322.85,463.74 356.67,444.32 367.39,438.94 375.83,435.84 381.65,434.35 387.57,433.4 393.55,433.04 399.55,433.27 405.49,434.08 411.33,435.45 419.83,438.4 430.61,443.65 464.43,463.07 483.01,472.85 502.17,481.44 510.56,484.69 521.92,488.54 533.47,491.82 542.23,493.86 551.08,495.53 559.98,496.8 568.94,497.67 577.93,498.11 589.93,498.03 598.91,497.48"   /><polyline id="SvgjsPolyline10738" points="1.59,423.73 9.57,427.89 17.34,432.43 42.25,449.15 57.59,458.55 73.41,467.13 89.64,474.91 103.42,480.84 114.58,485.25 134.42,492.13 154.69,497.61 166.45,499.98 175.34,501.35 193.26,502.98 202.26,503.2 214.25,502.87 226.21,501.84 235.12,500.61 246.92,498.42 255.68,496.37 264.36,494 275.8,490.38 295.45,482.96 314.65,474.46 347.08,458.84 363.69,451.91 372.28,449.23 381.06,447.29 386.99,446.4 392.98,446.02 398.98,446.18 407.89,447.37 413.73,448.73 422.32,451.43 438.94,458.31 471.45,473.78 487.91,481.07 507.5,488.62 524.67,494.01 536.31,496.94 545.12,498.75 562.94,501.28 580.91,502.25 589.91,502.13 598.89,501.61"   /><polyline id="SvgjsPolyline10739" points="1.35,403.05 22.03,406.68 39.54,410.84 56.7,416.23 70.63,421.8 81.45,426.99 91.92,432.85 99.53,437.65 119.38,451.14 134.75,460.5 145.34,466.14 156.37,470.85 170.67,475.37 185.36,478.34 200.29,479.73 212.29,479.68 227.2,478.18 241.88,475.1 256.14,470.47 269.81,464.33 277.66,459.93 282.72,456.7 292.36,449.56 299.11,443.61 318.37,424.69 329.41,414.53 340.94,404.94 353.19,396.29 358.33,393.21 366.36,389.15 371.92,386.89 377.63,385.07 383.48,383.74 389.43,382.97 395.43,382.79 401.41,383.21 410.24,384.9 415.97,386.67 421.55,388.88 429.6,392.9 439.78,399.24 449.41,406.4 460.85,416.1 471.82,426.32 488.92,443.16 495.64,449.15 500.35,452.86 507.74,458 520.78,465.39 528.98,469.11 540.24,473.23 551.82,476.38 560.66,478.08 569.58,479.21 581.56,479.83 590.56,479.62 599.52,478.82"   /><polyline id="SvgjsPolyline10740" points="2.45,408.35 14.03,411.48 25.44,415.21 36.61,419.59 47.49,424.65 58.04,430.35 65.77,434.97 88.14,450.08 103.46,459.53 116.59,466.77 132.76,474.68 143.87,479.22 158.12,483.89 169.76,486.79 181.57,488.9 190.51,489.94 202.49,490.6 211.49,490.53 223.46,489.7 232.38,488.53 244.16,486.25 255.76,483.2 267.14,479.4 275.51,476.08 286.41,471.07 296.98,465.4 304.68,460.74 319.42,450.41 337.9,435.1 345.03,429.61 352.44,424.52 360.19,419.94 368.3,416.05 376.78,413.06 385.57,411.16 394.54,410.53 403.51,411.24 412.28,413.22 420.74,416.28 428.83,420.22 436.55,424.84 443.95,429.96 451.06,435.48 467.17,448.94 481.79,459.43 489.43,464.18 499.94,469.98 510.78,475.13 519.1,478.55 527.57,481.58 539.08,484.97 547.85,487.02 559.67,489.05 568.61,490.04 577.6,490.55 589.6,490.49 598.58,489.89"   /><polyline id="SvgjsPolyline10741" points="0.08,391.33 24.04,389.89 44.96,388.07 62.83,385.94 80.6,383.09 95.29,380.02 109.78,376.18 124.02,371.45 135.14,366.95 145.97,361.79 159.03,354.41 171.5,346.09 181.06,338.83 190.28,331.15 201.4,321.08 237.75,285.32 253.12,271.01 269.31,257.65 276.58,252.34 281.62,249.08 289.5,244.75 297.68,241 308.91,236.77 320.37,233.23 331.99,230.24 346.66,227.11 361.43,224.5 379.24,221.9 385.22,221.31 394.21,220.98 403.2,221.31 412.14,222.29 420.99,223.93 429.69,226.22 438.2,229.15 446.46,232.73 451.8,235.46 459.51,240.09 469.16,247.22 475.83,253.26 501.38,278.62 516.68,293 530.52,304.5 542.84,313.05 550.68,317.47 556.11,320.02 564.56,323.1 570.37,324.56 579.29,325.74 585.29,325.78 591.26,325.23 597.15,324.11"   /><polyline id="SvgjsPolyline10742" points="0.84,396.92 30.79,398.76 54.67,401.05 78.44,404.35 99.04,408.45 110.65,411.45 119.27,414.06 136.14,420.32 144.35,424 152.39,428.05 173.15,440.08 178.57,442.65 184.19,444.75 189.97,446.35 198.84,447.81 207.83,448.12 216.78,447.28 222.66,446.08 228.41,444.38 236.71,440.91 247.15,435 259.37,426.31 268.63,418.68 279.74,408.6 311.78,377.01 327.04,362.58 338.45,352.85 350.52,343.96 358.18,339.24 363.49,336.43 368.96,333.97 374.59,331.91 380.37,330.32 386.28,329.25 392.25,328.75 398.25,328.85 404.21,329.54 410.07,330.79 415.81,332.55 421.39,334.75 432.05,340.24 444.52,348.57 453.92,356.02 467.35,368.01 503.71,403.77 516.87,416.05 526,423.83 533.12,429.34 540.51,434.46 545.63,437.6 553.6,441.78 559.15,444.05 564.87,445.83 570.73,447.11 576.68,447.89 585.67,448.09 591.65,447.58 597.56,446.57"   /><polyline id="SvgjsPolyline10743" points="2.12,399.48 28.93,402.61 49.61,406.24 67.1,410.49 84.22,416.04 98.11,421.71 111.58,428.29 124.51,435.89 141.86,447.72 151.97,454.17 162.69,459.56 173.95,463.67 182.67,465.92 194.52,467.78 206.5,468.35 218.47,467.62 224.41,466.77 233.21,464.89 244.64,461.25 255.58,456.35 265.87,450.18 270.71,446.64 277.54,440.78 313.92,405.04 329.27,390.72 343.17,379.29 355.58,370.87 366.19,365.28 371.74,363.01 377.45,361.17 383.3,359.83 389.24,359.05 395.24,358.85 401.22,359.24 410.06,360.91 415.79,362.66 421.37,364.87 432.04,370.35 444.5,378.68 456.2,388.07 467.34,398.12 512.41,442.12 521.79,449.6 532.01,455.87 540.13,459.75 548.55,462.92 554.3,464.63 563.08,466.59 571.99,467.83 580.98,468.34 589.97,468.11 598.92,467.16"   /><polyline id="SvgjsPolyline10744" points="0.54,406.52 15.12,410.05 26.61,413.51 40.67,418.72 51.61,423.66 59.59,427.81 67.37,432.34 92.27,449.06 110.22,459.96 128.8,469.73 142.56,475.69 151.04,478.71 159.66,481.29 174.29,484.58 189.16,486.54 198.14,487.05 207.14,487.06 222.09,485.94 230.99,484.59 239.8,482.75 248.49,480.43 257.05,477.63 270.91,471.93 278.96,467.9 286.76,463.42 299.15,454.96 308.4,447.33 323.71,432.95 335.06,423.15 344.61,415.88 354.69,409.38 362.58,405.07 368.03,402.54 373.63,400.41 379.39,398.73 385.28,397.57 391.24,396.98 397.24,396.98 403.21,397.57 411.99,399.51 420.46,402.54 428.56,406.45 436.3,411.04 446.11,417.95 453.14,423.56 462.2,431.44 477.54,445.77 486.83,453.37 494.16,458.58 501.79,463.36 509.67,467.7 517.79,471.59 528.91,476.08 537.46,478.89 549.07,481.91 557.91,483.59 569.82,485.04 578.81,485.53 587.81,485.5 599.77,484.64"   /><polyline id="SvgjsPolyline10745" points="2.47,379.19 19.77,374.24 31.06,370.19 39.37,366.74 47.52,362.91 58.08,357.22 65.77,352.54 73.24,347.52 87.55,336.62 101.14,324.81 114.18,312.41 144.04,282.87 159.52,268.69 166.41,262.89 175.89,255.53 183.27,250.39 188.42,247.31 196.43,243.21 207.5,238.6 218.87,234.77 230.43,231.54 242.11,228.8 256.83,225.92 274.6,223.06 289.47,221.07 313.33,218.45 337.23,216.36 361.17,214.66 391.13,213.03 400.13,213.11 412.08,214.11 420.97,215.5 432.66,218.21 444.08,221.88 455.16,226.48 465.81,231.99 475.95,238.41 483.15,243.81 487.73,247.68 511.5,270.57 525.03,282.44 536.98,291.5 544.54,296.37 549.78,299.29 557.95,303.07 563.59,305.09 569.39,306.64 575.3,307.66 581.28,308.1 587.28,307.95 593.23,307.21 599.08,305.91"   /><polyline id="SvgjsPolyline10746" points="2.78,385.93 17.57,383.48 29.32,381.04 43.84,377.27 55.29,373.67 66.55,369.53 77.55,364.74 88.23,359.28 98.56,353.18 108.52,346.48 115.73,341.1 131.83,327.62 144.98,315.33 179.15,281.63 196.98,265.57 206.34,258.05 213.59,252.72 218.6,249.43 226.46,245.05 234.63,241.26 245.83,236.98 254.41,234.25 265.99,231.1 277.68,228.43 292.42,225.6 319.11,221.59 357.89,217.45 384.81,215.34 393.8,215.02 405.79,215.5 414.73,216.55 423.58,218.16 435.18,221.21 446.48,225.25 454.69,228.92 462.64,233.14 472.74,239.6 477.56,243.19 484.43,248.99 508.03,272.06 523.67,286.07 535.53,295.24 543.04,300.21 548.23,303.22 556.32,307.15 561.92,309.3 567.67,310.99 573.55,312.17 579.52,312.79 585.52,312.81 591.49,312.24 597.38,311.1"   /><polyline id="SvgjsPolyline10747" points="1.89,394.13 103.89,393.55 163.88,392.34 187.86,391.4 211.81,389.97 217.74,389.09 226.43,386.75 234.78,383.4 242.75,379.23 252.84,372.74 262.39,365.48 271.53,357.7 282.53,347.51 312.39,317.97 325.45,305.59 336.78,295.76 348.75,286.72 356.33,281.87 361.57,278.96 366.98,276.37 372.56,274.16 378.29,272.39 384.15,271.13 393.11,270.29 399.1,270.48 405.05,271.25 410.9,272.58 416.61,274.4 422.17,276.66 430.19,280.73 435.34,283.81 442.79,288.87 454.57,298.14 465.78,308.1 502.17,343.84 517.51,358.18 526.67,365.93 533.81,371.41 541.23,376.49 546.37,379.59 554.37,383.7 559.92,385.99 565.62,387.85 571.46,389.22 577.4,390.04 583.39,390.28 589.38,389.91 598.22,388.29"   /><polyline id="SvgjsPolyline10748" points="2.04,389.18 19.94,387.32 34.8,385.27 49.57,382.63 61.28,380.01 72.85,376.86 84.25,373.1 95.41,368.69 106.31,363.68 116.93,358.09 127.18,351.86 137.06,345.05 148.89,335.83 166.81,319.87 201,286.18 216.32,271.83 232.46,258.4 239.7,253.05 247.26,248.18 255.21,243.97 266.23,239.23 277.57,235.29 289.1,231.98 303.7,228.55 318.43,225.7 333.24,223.31 351.08,220.92 383.9,217.51 392.89,217.11 401.88,217.32 413.81,218.55 422.66,220.18 431.38,222.4 442.73,226.29 450.98,229.88 458.96,234.04 466.61,238.78 473.88,244.08 482.9,251.99 504.2,273.11 519.64,287.35 533.67,298.61 541.1,303.7 546.23,306.81 554.22,310.93 559.76,313.23 565.46,315.11 571.3,316.49 577.24,317.33 583.23,317.58 592.19,316.84 598.07,315.63"   /><polyline id="SvgjsPolyline10749" points="2.93,392.85 32.91,391.89 62.87,390.26 83.79,388.49 104.64,385.96 122.38,382.96 142.85,378.26 160.07,373.04 174.06,367.63 187.6,361.2 198.06,355.31 210.6,347.08 222.55,338.03 231.74,330.31 242.82,320.21 277.02,286.52 290.1,274.16 303.74,262.42 318.13,251.62 323.21,248.43 331.15,244.18 339.36,240.51 347.78,237.33 359.22,233.7 370.82,230.65 379.67,229.03 385.63,228.37 394.63,228.02 400.62,228.21 412.53,229.61 421.32,231.55 427.07,233.27 435.48,236.47 440.91,239.02 451.24,245.1 458.44,250.5 471.7,262.67 501.55,292.21 514.63,304.57 523.68,312.45 530.71,318.07 543.05,326.59 548.24,329.6 556.33,333.53 564.79,336.59 570.61,338.03 576.54,338.93 585.53,339.19 591.5,338.61 597.39,337.47"   /><polyline id="SvgjsPolyline10750" points="2.25,390.63 23.19,389.02 41.09,387.1 55.94,384.98 70.69,382.27 85.28,378.82 96.79,375.43 108.1,371.42 119.15,366.73 129.88,361.36 140.24,355.32 152.66,346.91 162.17,339.59 173.58,329.86 184.62,319.7 218.8,286.01 234.14,271.66 250.28,258.25 257.53,252.9 265.11,248.06 273.07,243.86 284.09,239.14 295.43,235.21 306.97,231.92 321.57,228.49 336.3,225.66 354.08,222.85 371.93,220.53 383.86,219.25 392.85,218.83 401.84,219.05 410.8,219.9 419.68,221.37 428.43,223.47 437.01,226.18 445.37,229.5 453.47,233.42 458.69,236.37 466.23,241.29 471.02,244.89 477.84,250.77 505.58,278.18 518.82,290.37 532.8,301.71 545.28,310 550.54,312.89 558.75,316.59 567.31,319.35 573.18,320.56 579.14,321.21 585.14,321.27 591.11,320.74 599.91,318.88"   /><polyline id="SvgjsPolyline10751" points="1.98,392.36 31.96,391.06 55.9,389.4 76.79,387.25 94.6,384.7 112.27,381.26 126.8,377.55 141.06,372.92 154.95,367.26 165.72,361.96 178.66,354.39 191.01,345.88 202.84,336.66 211.97,328.87 223,318.71 257.17,285 270.31,272.7 284.03,261.05 291.17,255.57 298.55,250.42 306.33,245.91 314.44,242.01 322.78,238.62 331.28,235.68 342.8,232.32 354.46,229.46 369.15,226.47 381,224.57 386.97,224.04 395.97,223.82 404.95,224.31 413.87,225.49 422.67,227.36 431.3,229.93 439.69,233.18 445.12,235.72 455.51,241.72 465.13,248.88 476.07,259.13 503.78,286.58 516.94,298.86 530.79,310.35 543.13,318.86 550.98,323.26 556.42,325.79 564.89,328.83 570.71,330.26 576.64,331.16 582.63,331.47 588.62,331.18 597.49,329.66"   /><polyline id="SvgjsPolyline10752" points="0.51,395.4 33.49,396.3 60.46,397.54 87.39,399.53 108.26,401.86 128.99,405.18 149.51,409.64 166.78,414.68 186.48,421.96 195.21,424.1 201.16,424.85 207.16,425.01 213.14,424.57 219.05,423.56 227.69,421.06 233.26,418.83 238.67,416.22 248.99,410.11 258.73,403.12 268.02,395.51 279.15,385.46 313.35,351.79 326.44,339.43 337.82,329.66 349.85,320.71 357.48,315.94 362.76,313.1 368.21,310.59 373.82,308.47 379.59,306.81 385.47,305.67 391.44,305.09 397.44,305.11 403.41,305.72 409.29,306.9 415.04,308.59 420.65,310.74 431.35,316.14 443.87,324.4 453.3,331.81 466.76,343.76 505.28,381.6 518.51,393.8 532.47,405.16 544.93,413.5 552.86,417.74 558.36,420.14 566.91,422.95 572.77,424.2 578.73,424.89 584.73,424.99 590.7,424.5 599.51,422.7"   /><polyline id="SvgjsPolyline10753" points="1.52,398.37 25.42,400.51 46.24,403.26 63.94,406.51 81.41,410.85 92.85,414.45 101.29,417.58 109.58,421.09 117.69,424.98 125.61,429.26 133.31,433.9 150.67,445.72 155.77,448.88 161.07,451.7 169.33,455.26 180.8,458.75 192.62,460.76 204.6,461.29 216.55,460.29 225.38,458.54 231.15,456.89 236.79,454.85 242.28,452.43 247.58,449.63 255.12,444.72 264.47,437.21 275.66,427.21 312.03,391.47 325.15,379.15 338.94,367.59 346.17,362.23 353.64,357.2 361.44,352.73 366.85,350.13 372.42,347.9 378.15,346.12 384.01,344.85 389.96,344.13 398.96,344.16 404.91,344.92 410.76,346.24 416.48,348.05 422.04,350.3 432.66,355.86 445.08,364.26 454.46,371.74 465.67,381.7 502.06,417.43 515.16,429.78 528.9,441.4 533.76,444.92 538.86,448.07 544.17,450.86 552.48,454.32 561.09,456.91 569.93,458.62 578.88,459.44 584.88,459.49 590.87,459.16 599.78,457.91"   /><polyline id="SvgjsPolyline10754" points="2.21,401.56 22.97,404.75 40.57,408.51 57.87,413.47 71.93,418.67 82.87,423.6 96.06,430.72 106.2,437.15 123.54,448.99 138.88,458.4 149.57,463.84 160.72,468.26 172.24,471.63 184.01,473.92 195.95,475.11 201.95,475.29 210.94,475.03 216.92,474.5 225.82,473.18 234.6,471.23 240.37,469.57 246.04,467.63 254.36,464.19 259.74,461.55 267.54,457.06 274.94,451.93 281.87,446.2 313.92,414.62 329.38,400.41 343.46,389.2 348.39,385.78 356.07,381.09 366.88,375.91 372.54,373.9 378.34,372.38 384.26,371.4 390.24,371 396.24,370.9 402.21,371.4 411.02,373.2 416.73,375.04 422.29,377.3 432.9,382.89 442.89,389.53 454.67,398.81 465.88,408.78 500.12,442.41 504.57,446.44 514.1,453.73 519.14,456.97 527.01,461.33 535.19,465.08 543.63,468.21 552.27,470.71 564.04,473.06 572.98,474.07 581.97,474.45 590.96,474.19 599.91,473.28"   /><polyline id="SvgjsPolyline10755" points="2.35,366.84 13.18,361.66 26.22,354.27 36.24,347.66 48.24,338.66 57.44,330.97 68.56,320.89 104.91,285.13 120.28,270.83 136.49,257.48 143.77,252.18 151.41,247.43 159.41,243.32 170.48,238.69 181.84,234.84 196.31,230.88 210.95,227.63 225.71,224.94 243.5,222.26 264.35,219.71 291.22,217.11 321.14,214.87 351.09,213.13 390.05,211.41 399.05,211.43 408.03,211.99 416.96,213.1 428.73,215.41 440.28,218.64 451.54,222.78 465.09,229.2 475.42,235.31 482.81,240.45 489.85,246.05 513.83,268.71 527.49,280.43 539.6,289.27 549.93,295.37 558.1,299.13 563.75,301.14 569.55,302.68 575.46,303.68 581.45,304.11 587.44,303.94 593.39,303.18 599.24,301.87"   /><polyline id="SvgjsPolyline10756" points="1.22,374.99 9.71,371.99 18.05,368.61 31.56,362.11 44.52,354.57 59.28,344.28 70.95,334.85 84.4,322.89 122.94,285.07 138.32,270.77 154.53,257.43 161.81,252.13 169.45,247.39 177.46,243.29 188.53,238.66 199.89,234.81 211.45,231.58 226.06,228.22 240.8,225.43 255.62,223.08 276.44,220.37 300.31,217.9 324.23,215.91 351.17,214.12 390.12,212.15 402.11,212.31 411.08,213.07 422.93,214.93 431.7,216.96 443.17,220.48 454.31,224.92 465.06,230.26 475.32,236.47 482.64,241.7 489.59,247.41 511.25,268.17 524.77,280.05 536.7,289.13 544.26,294.02 549.48,296.96 557.64,300.77 563.27,302.82 569.06,304.39 574.97,305.44 580.95,305.92 586.94,305.8 592.9,305.09 598.76,303.82"   /><polyline id="SvgjsPolyline10757" points="2.73,394.74 65.72,395.73 110.68,397.51 137.61,399.48 155.51,401.41 176.27,404.51 193.93,407.98 199.87,408.85 208.86,409.06 214.82,408.46 220.71,407.29 229.29,404.58 240.16,399.54 250.4,393.28 260.07,386.19 269.3,378.52 278.2,370.47 312.42,336.81 325.48,324.42 339.14,312.71 348.78,305.56 356.36,300.71 361.6,297.8 367.01,295.22 372.59,293.01 378.32,291.24 384.19,289.98 390.15,289.28 396.14,289.17 402.12,289.66 408.02,290.71 413.81,292.3 419.44,294.35 430.22,299.61 435.37,302.69 442.81,307.75 454.6,317.02 465.81,326.99 502.19,362.72 517.53,377.06 531.42,388.5 543.81,396.95 551.69,401.28 557.16,403.77 565.65,406.72 571.49,408.09 577.43,408.91 583.43,409.14 589.41,408.77 598.26,407.15"   /><polyline id="SvgjsPolyline10758" points="2.28,393.59 44.27,392.87 74.25,391.91 101.22,390.5 128.12,388.24 148.95,385.59 169.61,381.84 189.98,376.76 207.07,371.13 220.91,365.34 234.26,358.51 247.05,350.69 259.24,341.95 268.5,334.32 279.61,324.24 313.81,290.56 324.69,280.24 335.99,270.38 347.9,261.27 358.04,254.85 363.34,252.04 368.85,249.67 377.44,247.01 383.32,245.85 389.29,245.19 395.28,245.03 401.27,245.36 407.21,246.19 415.94,248.37 421.57,250.43 427.01,252.97 432.25,255.88 439.82,260.74 451.79,269.78 463.11,279.61 476.17,292 503.87,319.45 519.29,333.71 533.3,345 540.71,350.11 548.44,354.71 556.55,358.62 562.15,360.75 567.91,362.42 573.8,363.58 579.77,364.17 585.76,364.17 591.73,363.57 597.62,362.41"   /><polyline id="SvgjsPolyline10759" points="4.94,393.83 58.93,393.17 88.92,392.42 118.9,391.15 145.83,389.28 169.69,386.71 190.43,383.42 210.91,378.8 225.26,374.43 233.53,370.91 241.44,366.62 251.46,360.03 260.97,352.7 270.07,344.89 278.88,336.74 310.91,305.13 321.78,294.79 333.04,284.89 344.92,275.74 352.44,270.8 357.65,267.81 363.02,265.14 371.35,261.75 377.05,259.88 382.89,258.5 391.82,257.48 397.82,257.53 403.78,258.18 409.65,259.4 415.4,261.12 420.99,263.29 429.07,267.25 434.25,270.28 441.74,275.26 453.59,284.46 464.84,294.38 475.7,304.73 503.4,332.18 518.79,346.45 532.77,357.79 540.15,362.94 547.86,367.57 555.94,371.54 561.53,373.72 567.27,375.44 573.14,376.66 579.11,377.32 585.1,377.38 591.08,376.85 599.88,375"   /><polyline id="SvgjsPolyline10760" points="1.66,393.33 37.65,392.53 67.62,391.34 94.57,389.58 118.44,387.16 139.21,384.05 156.83,380.4 174.17,375.57 191.05,369.34 204.63,362.98 215.1,357.13 227.66,348.93 242.04,338.1 251.22,330.38 262.31,320.28 296.5,286.6 311.81,272.22 325.56,260.61 337.61,251.68 342.68,248.48 350.61,244.23 358.83,240.55 364.44,238.43 376.02,235.33 387.91,233.75 393.91,233.54 402.89,233.94 408.85,234.68 417.65,236.52 423.41,238.21 431.79,241.47 437.18,244.11 444.88,248.76 454.36,256.11 465.58,266.07 504.12,303.88 519.55,318.12 528.8,325.77 536.02,331.14 543.54,336.08 548.75,339.06 556.87,342.94 562.48,345.04 568.25,346.69 574.14,347.82 580.11,348.37 586.11,348.34 592.08,347.71 597.95,346.51"   /><polyline id="SvgjsPolyline10761" points="0.08,354.7 7.65,349.83 17.41,342.85 33.64,329.54 49.03,315.25 83.2,281.55 101.03,265.49 110.39,257.98 117.65,252.65 127.87,246.38 138.7,241.22 149.91,236.94 164.25,232.58 178.83,229.03 196.49,225.58 211.3,223.21 232.12,220.48 255.99,217.98 288.89,215.33 318.83,213.49 354.79,211.79 390.77,210.5 399.76,210.56 408.74,211.16 420.63,212.78 429.44,214.61 440.99,217.85 455.03,223.13 465.84,228.33 476.21,234.36 483.65,239.43 493.04,246.89 514.88,267.45 528.6,279.09 540.79,287.83 551.19,293.8 556.64,296.32 562.25,298.44 568.01,300.11 573.9,301.26 579.87,301.84 585.86,301.83 591.83,301.22 597.71,300.05"   /><polyline id="SvgjsPolyline10762" points="0.94,339.88 10.2,332.26 21.36,322.24 62.06,282.33 79.84,266.22 89.17,258.68 98.86,251.6 106.55,246.93 114.59,242.89 125.69,238.33 139.95,233.69 154.47,229.94 172.1,226.31 189.86,223.38 210.67,220.61 237.53,217.81 267.43,215.41 324.34,212.22 393.3,209.86 402.3,210.07 414.24,211.18 423.12,212.62 431.91,214.57 446.25,218.94 457.39,223.4 468.15,228.7 478.47,234.83 485.87,239.95 492.94,245.51 517.12,267.96 528.61,277.6 540.8,286.33 551.2,292.3 556.65,294.82 562.26,296.94 568.02,298.6 573.91,299.75 579.88,300.33 585.88,300.32 591.84,299.71 597.72,298.54"   /><polyline id="SvgjsPolyline10763" points="0.18,325.02 13.24,312.63 45.27,281.02 56.31,270.87 65.45,263.09 74.91,255.72 84.83,248.97 95.43,243.35 106.49,238.71 120.73,234 138.16,229.52 158.76,225.45 179.51,222.27 203.34,219.39 233.21,216.62 260.14,214.68 296.09,212.69 347.04,210.66 398.03,209.44 407.01,209.92 418.92,211.38 427.76,213.08 436.48,215.28 447.9,218.97 459,223.51 469.73,228.88 480.02,235.05 487.4,240.2 494.46,245.79 516.46,266.17 527.91,275.85 540.05,284.65 550.41,290.71 558.6,294.42 564.27,296.39 570.08,297.88 576,298.83 581.99,299.21 587.98,298.98 593.92,298.17 599.76,296.81"   /><polyline id="SvgjsPolyline10764" points="0.62,308.15 24.04,284.91 37.19,272.61 50.91,260.97 62.93,252 73.22,245.85 84.09,240.77 98.18,235.64 112.61,231.53 133.11,227 156.78,223.05 186.55,219.35 213.43,216.83 246.35,214.47 291.28,212.12 333.25,210.55 390.23,209.06 399.23,209.09 408.21,209.64 423.06,211.71 437.65,215.18 446.23,217.92 454.63,221.12 462.85,224.79 470.85,228.92 478.6,233.49 486.07,238.51 497.82,247.82 515.36,264.2 526.76,273.95 538.82,282.85 549.1,289.04 557.23,292.88 562.86,294.96 568.64,296.57 574.54,297.66 580.51,298.18 586.51,298.1 592.47,297.44 598.34,296.21"   /><polyline id="SvgjsPolyline10765" points="0.63,291.19 15.77,276.64 29.27,264.74 43.49,253.72 53.6,247.26 64.35,241.94 78.35,236.57 92.72,232.28 110.24,228.17 133.87,223.93 157.64,220.7 187.48,217.6 217.39,215.25 256.32,212.96 292.29,211.39 334.27,210.01 394.25,208.66 403.25,208.92 412.21,209.7 424.07,211.54 432.85,213.5 441.51,215.95 450.02,218.88 458.35,222.27 466.49,226.12 479.53,233.52 491.81,242.13 500.99,249.85 518.57,266.18 532.53,277.53 545,285.86 555.67,291.34 561.25,293.53 566.99,295.28 572.86,296.53 578.82,297.21 587.81,297.13 593.75,296.33 599.6,294.99"   /><polyline id="SvgjsPolyline10766" points="0.91,274.15 14.55,262.41 26.48,253.32 36.63,246.94 47.41,241.67 61.43,236.36 75.81,232.1 93.34,228.03 111.05,224.77 131.82,221.73 158.65,218.67 188.53,216.07 224.46,213.72 263.41,211.84 308.38,210.25 377.36,208.62 401.36,208.51 410.33,209.18 419.25,210.36 428.09,212.04 436.83,214.22 445.42,216.87 453.86,219.99 462.12,223.57 470.17,227.59 483.05,235.27 492.8,242.26 499.74,247.99 519.61,266.27 533.64,277.53 543.61,284.21 554.19,289.86 559.73,292.17 565.42,294.04 571.26,295.43 577.2,296.27 586.19,296.43 592.15,295.79 598.03,294.59"   /><polyline id="SvgjsPolyline10767" points="2.18,257.07 11.98,250.16 22.46,244.33 33.45,239.52 47.63,234.64 62.11,230.72 79.7,226.93 97.44,223.88 118.25,221.02 145.09,218.12 172,215.87 201.93,213.91 234.89,212.24 315.84,209.53 390.83,208.08 402.82,208.28 411.79,209.03 420.7,210.29 429.53,212.04 438.24,214.28 446.82,216.99 455.24,220.17 463.48,223.8 471.51,227.86 484.35,235.6 494.07,242.64 500.99,248.39 518.65,264.64 532.62,275.98 539.99,281.14 545.09,284.3 555.76,289.77 561.35,291.96 567.09,293.7 572.96,294.94 578.92,295.61 587.91,295.51 593.85,294.71 599.69,293.36"   /><polyline id="SvgjsPolyline10768" points="0.04,243.76 11.07,239.05 22.41,235.14 33.95,231.86 48.56,228.44 66.25,225.11 84.04,222.4 104.88,219.82 128.76,217.46 158.67,215.14 185.62,213.5 251.56,210.69 302.54,209.28 362.53,208.15 395.53,207.73 407.51,208.29 416.46,209.29 425.33,210.8 434.1,212.8 442.75,215.27 451.26,218.21 459.6,221.6 473.05,228.23 485.84,236.04 495.53,243.12 502.43,248.9 520.14,265.09 531.79,274.53 544.21,282.94 554.83,288.52 560.38,290.78 566.1,292.6 571.95,293.93 577.89,294.7 586.89,294.75 592.84,294.05 598.71,292.78"   /><polyline id="SvgjsPolyline10769" points="0.8,230.25 12.53,227.7 27.28,224.99 59.96,220.42 98.78,216.64 143.67,213.63 206.61,210.87 278.59,208.94 392.57,207.3 401.57,207.46 410.54,208.12 425.37,210.35 434.15,212.33 442.81,214.79 456.91,219.89 465.13,223.55 473.15,227.63 486,235.37 495.74,242.37 502.69,248.08 520.46,264.21 534.55,275.4 544.57,282 555.21,287.53 560.78,289.76 566.51,291.55 572.36,292.84 578.32,293.57 587.31,293.56 593.26,292.82 599.11,291.52"   /><polyline id="SvgjsPolyline10770" points="1.08,217.87 33.97,215.25 75.9,212.81 120.86,210.95 171.84,209.46 264.83,207.79 384.82,206.71 399.82,206.76 414.76,207.97 429.54,210.56 444.02,214.45 452.52,217.39 460.86,220.77 474.34,227.34 487.2,235.06 496.97,242.02 506.22,249.66 521.82,263.71 533.58,273.03 543.54,279.71 554.11,285.37 559.65,287.68 565.34,289.56 571.18,290.96 577.11,291.81 586.1,291.98 592.07,291.35 597.95,290.15"   /><polyline id="SvgjsPolyline10771" points="3,205.65 396,205.75 407.98,206.32 416.92,207.32 431.67,210.05 446.12,214.06 454.6,217.05 462.93,220.47 476.39,227.08 486.74,233.15 499.06,241.7 508.37,249.26 524.12,263.15 533.57,270.54 543.53,277.22 554.11,282.88 559.64,285.19 565.34,287.08 571.17,288.47 577.11,289.32 586.1,289.49 592.06,288.86 597.94,287.67"   /><polyline id="SvgjsPolyline10772" points="0.01,193.47 74.9,197.45 146.85,200.16 251.82,202.69 398.81,204.5 410.78,205.26 419.71,206.39 434.42,209.29 448.83,213.44 462.86,218.74 471.06,222.46 479.07,226.55 491.96,234.21 501.83,241.04 511.25,248.46 527.22,262.1 536.83,269.28 546.99,275.66 555.02,279.71 560.58,281.96 566.3,283.77 572.16,285.07 578.11,285.83 587.1,285.85 593.05,285.12 598.91,283.84"   /><polyline id="SvgjsPolyline10773" points="0.76,181.49 39.56,185.35 84.4,189.21 123.29,192.07 171.2,195.03 219.14,197.43 279.1,199.76 327.07,201.18 402.05,202.85 411.03,203.49 422.92,205.07 437.6,208.16 451.98,212.41 465.99,217.77 482.21,225.54 492.63,231.49 505.16,239.73 514.78,246.91 531.09,260.13 538.41,265.37 548.66,271.6 556.77,275.49 562.38,277.6 568.15,279.26 577.02,280.75 586.01,280.94 591.97,280.32 597.85,279.13"   /><polyline id="SvgjsPolyline10774" points="2.02,169.56 43.65,175.1 91.33,180.67 139.09,185.47 183.92,189.31 234.79,192.95 291.7,196.21 348.64,198.73 405.6,200.74 417.55,201.9 426.44,203.29 441.08,206.53 455.43,210.87 469.44,216.23 483.06,222.51 496.25,229.65 508.99,237.56 518.88,244.36 533.31,255.12 540.72,260.23 548.45,264.82 556.56,268.73 562.17,270.86 567.92,272.53 576.79,274.06 585.78,274.28 591.74,273.68 597.63,272.52"   /><polyline id="SvgjsPolyline10775" points="0.74,157.16 42.17,164.04 86.69,170.6 134.3,176.75 187.96,182.71 229.78,186.69 277.62,190.57 340.48,194.68 406.4,197.99 418.34,199.15 427.24,200.52 441.9,203.67 453.44,206.95 467.6,211.89 481.43,217.69 494.91,224.26 508.06,231.48 546.3,255.19 554.3,259.31 559.84,261.6 565.54,263.47 571.38,264.85 580.31,265.87 589.3,265.56 598.15,263.96"   /><polyline id="SvgjsPolyline10776" points="2.82,145.34 46.96,154.1 91.3,161.8 141.72,169.46 192.28,176.12 239.97,181.55 281.77,185.68 344.55,190.84 410.41,195.13 419.36,196.08 431.21,197.96 442.94,200.51 454.51,203.67 465.92,207.39 479.93,212.74 490.94,217.52 504.47,224 546.99,246.25 555.2,249.94 560.8,252.09 566.53,253.87 572.39,255.15 581.34,256.03 590.32,255.57 599.14,253.82"   /><polyline id="SvgjsPolyline10777" points="2.41,132.86 43.26,142.64 90.27,152.3 143.45,161.68 190.9,168.93 238.47,175.29 289.14,181.16 345.87,186.69 414.65,192.16 432.46,194.71 444.2,197.2 455.8,200.26 467.26,203.83 478.56,207.85 500.76,216.97 541.71,235.62 550.06,238.96 558.58,241.86 570.24,244.66 579.18,245.65 588.18,245.53 597.09,244.32"   /><polyline id="SvgjsPolyline10778" points="2.56,120.36 22.66,126.42 42.91,131.98 66.19,137.82 86.65,142.54 130.72,151.65 183.88,161.12 234.29,168.87 290.8,176.34 347.44,182.67 416.15,188.97 425.08,190.08 436.91,192.1 454.44,196.18 465.96,199.52 477.36,203.27 497.03,210.62 538.73,227.53 547.21,230.55 555.82,233.18 567.52,235.8 576.45,236.88 585.45,237.07 597.38,235.9"   /><polyline id="SvgjsPolyline10779" points="0.59,106.77 17.44,113.09 31.62,117.97 63.19,127.59 80.56,132.31 103.84,138.12 144.85,147.21 174.28,153.01 206.76,158.85 242.29,164.64 271.96,169.05 334.43,177.21 379.16,182.19 417.97,185.99 435.77,188.61 456.26,193.2 473.54,198.23 490.59,204 535.62,220.63 547.04,224.28 555.74,226.61 567.52,228.89 576.47,229.82 588.46,229.85 597.41,228.97"   /><polyline id="SvgjsPolyline10780" points="2.31,94.34 18.68,101.82 32.55,107.53 52.25,114.82 69.33,120.49 89.44,126.55 112.59,132.86 132.97,137.93 159.29,143.93 185.73,149.43 215.2,155.05 253.63,161.68 286.23,166.77 345.67,174.92 381.42,179.19 420.2,183.34 435.04,185.5 452.66,189.18 470.04,193.84 490.06,200.19 532.6,214.84 544.09,218.3 552.81,220.53 564.59,222.81 576.52,224.04 585.52,224.17 597.48,223.28"   /><polyline id="SvgjsPolyline10781" points="2.36,80.57 18.09,89.33 34.22,97.31 50.7,104.53 70.28,112.12 90.14,118.95 113.09,125.98 139.13,133.1 165.35,139.53 194.64,146.01 224.06,151.92 256.52,157.85 286.11,162.79 345.47,171.55 381.17,176.15 422.89,180.97 437.72,183.23 452.41,186.27 472.72,191.6 489.93,196.87 529.86,209.88 550.13,215.35 561.91,217.61 573.83,218.96 585.83,219.24 597.79,218.39"   /><polyline id="SvgjsPolyline10782" points="1.07,65.21 18.58,76.8 34.08,85.94 52.75,95.55 71.93,104.1 91.49,111.74 114.19,119.53 140.04,127.33 169.03,135.04 195.29,141.29 221.68,147.01 251.11,152.83 289.5,159.69 348.79,168.91 381.48,173.38 426.14,178.87 443.9,181.84 455.62,184.39 470.15,188.11 484.56,192.26 530.43,206.42 542.02,209.51 553.74,212.09 565.59,213.95 577.55,214.9 589.55,214.83 598.52,214.11"   /><polyline id="SvgjsPolyline10783" points="0.19,50.86 13.08,58.54 32.93,72.02 48.19,81.56 63.94,90.27 82.85,99.4 102.21,107.54 124.74,115.8 150.46,124.02 179.34,132.1 202.63,137.93 231.88,144.56 264.21,151.17 293.71,156.64 323.28,161.68 355.89,166.77 388.56,171.42 430.21,176.83 447.93,179.98 459.64,182.61 474.16,186.36 531.75,203.17 552.22,207.86 564.08,209.68 576.03,210.68 588.03,210.74 599.99,209.85"   /><polyline id="SvgjsPolyline10784" points="0.2,38.17 16.93,44.8 25.07,48.63 33.03,52.84 43.32,59.01 63.17,72.5 75.87,80.47 91.56,89.29 107.69,97.27 126.95,105.63 146.58,113.11 169.33,120.75 195.21,128.42 221.32,135.29 247.59,141.52 273.99,147.22 303.42,153.02 359.58,162.78 392.19,167.77 433.79,173.59 451.49,176.86 474.82,182.46 526.85,196.93 547.32,201.6 562.13,203.93 574.08,204.97 586.08,205.16 598.06,204.49"   /><polyline id="SvgjsPolyline10785" points="1.12,26.33 18.84,29.46 36.37,33.55 50.73,37.88 64.76,43.17 75.68,48.13 86.28,53.76 96.51,60.03 113.85,71.88 126.52,79.9 142.19,88.76 158.29,96.8 177.53,105.21 197.14,112.73 217.01,119.5 242.86,127.3 260.23,132.04 283.51,137.87 306.9,143.23 330.38,148.2 377.54,157.12 439.72,167.23 454.46,170.04 474.91,174.78 521.39,186.77 541.91,191.23 556.72,193.59 571.65,194.99 586.65,195.28 598.63,194.66"   /><polyline id="SvgjsPolyline10786" points="2.22,31.61 13.79,34.78 25.18,38.56 36.33,43 47.18,48.12 62.86,56.94 87.77,73.66 103.11,83.06 118.94,91.64 135.17,99.4 151.74,106.42 171.4,113.82 191.31,120.48 214.3,127.37 234.57,132.85 257.87,138.62 287.14,145.19 313.59,150.59 366.73,160.21 396.35,164.97 437.89,171.12 452.63,173.91 478.89,180.2 525.24,192.66 545.75,197.17 560.57,199.47 572.52,200.54 587.51,200.77 599.49,200.05"   /><polyline id="SvgjsPolyline10787" points="2.91,14.46 32.85,12.66 62.7,9.7 86.42,6.05 98.17,3.64 109.82,0.76"   /><polyline id="SvgjsPolyline10788" points="0.67,20.18 36.58,22.73 54.47,24.69 69.33,26.77 84.09,29.41 95.81,32.01 107.4,35.11 118.82,38.78 135.53,45.47 148.94,52.18 159.27,58.28 181.64,73.4 194.38,81.31 210.11,90.05 226.28,97.96 245.57,106.25 265.22,113.66 290.85,122.13 316.78,129.65 342.93,136.4 372.15,143.18 404.45,149.92 460.44,160.57 512.96,173.13 536.45,178.07 554.23,180.81 569.17,182.19 584.16,182.6 599.15,182"   /><polyline id="SvgjsPolyline10789" points="2.05,22.8 25.88,25.67 46.55,29.32 55.33,31.31 66.92,34.42 83.95,40.24 97.72,46.18 111.07,53.01 121.35,59.2 141.19,72.7 153.9,80.66 169.61,89.45 185.74,97.42 205.01,105.77 224.64,113.23 247.39,120.86 273.29,128.51 302.31,136.1 337.39,144.19 387.4,154.19 440.62,163.32 455.35,166.13 475.82,170.82 519.47,181.74 540.02,186.09 554.83,188.42 569.76,189.87 584.75,190.27 599.73,189.58"   /><polyline id="SvgjsPolyline10790" points="2.35,2.48 11.05,0.2"   /><polyline id="SvgjsPolyline10791" points="2.63,6.08 14.36,3.55 25.98,0.54"   /><polyline id="SvgjsPolyline10792" points="1.61,17.38 115.61,18.18 151.6,18.94 184.58,20.17 211.52,21.82 235.42,24.05 256.23,26.86 273.93,30.13 285.61,32.87 300.02,37.04 311.33,41.05 322.38,45.7 333.14,51.02 340.98,55.44 348.61,60.21 373.51,76.93 386.41,84.6 396.96,90.31 410.41,96.94 426.88,104.19 443.63,110.78 457.76,115.82 477.74,122.3 503.63,129.95 521.07,134.41 538.69,138.04 553.53,140.26 568.46,141.62 583.45,142.06 598.44,141.53"   /><polyline id="SvgjsPolyline10793" points="0.49,18.62 45.46,20.25 63.42,21.36 84.34,23.18 99.24,24.95 114.06,27.22 125.85,29.49 140.45,32.9 152,36.17 163.36,40.03 174.48,44.52 185.32,49.68 193.22,53.98 200.92,58.64 223.28,73.77 236.04,81.65 249.14,88.97 265.25,96.98 281.72,104.24 298.48,110.82 315.44,116.82 332.58,122.33 361.41,130.61 396.33,139.35 422.69,145.23 460.89,153.07 507.59,164.14 531.07,169.14 548.83,172.03 566.73,173.86 581.72,174.4 599.71,173.79"   /><polyline id="SvgjsPolyline10794" points="2.33,15.9 50.29,14.12 68.25,12.95 86.18,11.37 104.05,9.2 118.86,6.83 133.58,3.92 148.13,0.3"   /><polyline id="SvgjsPolyline10795" points="2.42,16.63 41.42,16.02 71.41,15.17 98.38,13.9 119.32,12.41 140.21,10.27 158.03,7.72 175.73,4.44 193.21,0.16"   /><polyline id="SvgjsPolyline10796" points="1.99,17.96 61.98,19.26 85.95,20.31 109.9,21.9 130.8,23.96 148.63,26.41 163.38,29.09 178,32.47 189.56,35.66 200.96,39.43 212.12,43.82 223,48.88 230.94,53.11 238.68,57.71 261.06,72.81 276.36,82.28 289.48,89.55 305.62,97.51 319.35,103.56 333.27,109.14 350.19,115.29 367.28,120.92 393.18,128.57 422.2,136.14 466.06,146.22 506.89,156.08 527.42,160.49 548.13,163.91 566.04,165.72 581.03,166.29 599.01,165.75"   /><polyline id="SvgjsPolyline10797" points="2.61,17.02 95.61,16.04 131.59,14.97 161.55,13.39 188.45,11.06 209.27,8.38 229.95,4.75 247.46,0.56"   /><polyline id="SvgjsPolyline10798" points="13.69,17.71 85.68,18.86 109.67,19.7 136.63,21.18 157.55,22.92 175.43,25 193.21,27.82 207.89,30.9 219.5,33.93 233.82,38.39 242.26,41.5 253.29,46.22 264.01,51.61 271.82,56.08 304.35,77.59 317.27,85.2 330.51,92.24 346.78,99.94 363.37,106.92 380.22,113.26 397.26,119.06 420.2,126.08 446.25,133.19 504.46,147.74 527.9,152.88 545.65,155.87 563.54,157.83 581.52,158.57 599.51,158.01"   /><polyline id="SvgjsPolyline10799" points="0.02,17.21 153.02,16.59 195.01,15.86 233.99,14.49 266.92,12.4 293.78,9.66 317.49,6 329.25,3.58 340.89,0.68"   /><polyline id="SvgjsPolyline10800" points="0.98,17.47 90.98,18.31 123.97,19.14 150.94,20.28 174.89,21.86 195.79,23.9 216.58,26.81 234.25,30.25 245.89,33.15 257.38,36.63 268.65,40.74 282.43,46.65 290.49,50.67 298.34,55.05 305.99,59.8 320.84,69.98 333.43,78.11 343.76,84.22 356.97,91.34 373.19,99.13 386.97,105.05 403.75,111.56 420.74,117.5 443.64,124.68 466.75,131.16 507.37,141.83 530.81,146.97 548.58,149.86 566.48,151.65 581.47,152.19 599.46,151.62"   /><polyline id="SvgjsPolyline10801" points="0.73,17.29 153.73,17.68 192.73,18.1 231.72,18.93 261.7,20.09 291.63,22.05 315.52,24.39 336.31,27.33 353.98,30.76 371.4,35.25 385.64,39.97 399.51,45.68 410.27,50.99 420.68,56.96 448.1,75.3 458.33,81.57 468.78,87.47 482.12,94.33 492.99,99.41 504.02,104.15 515.24,108.38 523.79,111.2 535.35,114.42 544.13,116.41 555.95,118.46 564.88,119.52 576.86,120.28 588.86,120.27 597.84,119.76"   /><polyline id="SvgjsPolyline10802" points="2.06,17.32 131.06,17.87 173.06,18.54 203.04,19.43 230.01,20.75 256.93,22.85 277.78,25.32 295.54,28.25 310.19,31.43 324.64,35.45 335.99,39.35 352.62,46.23 363.34,51.62 371.15,56.09 403.67,77.6 413.98,83.74 427.17,90.89 440.65,97.47 454.37,103.52 471.1,110.17 485.21,115.26 502.3,120.89 516.71,125.07 531.28,128.63 546.01,131.44 560.88,133.37 572.85,134.22 584.85,134.44 599.83,133.79"   /><polyline id="SvgjsPolyline10803" points="33.21,16.95 78.21,16.58 120.2,15.84 153.19,14.73 180.14,13.2 204.05,11.09 224.87,8.38 245.51,4.54 262.95,0.09"   /><polyline id="SvgjsPolyline10804" points="79.97,17.23 238.97,16.76 289.96,16.04 331.94,14.72 367.88,12.62 397.72,9.64 412.57,7.51 424.38,5.4 444.83,0.64"   /><polyline id="SvgjsPolyline10805" points="96.06,17.31 225.06,17.76 297.05,19.05 324.02,20.14 350.97,21.88 371.87,23.92 395.64,27.2 413.32,30.59 427.87,34.2 445.01,39.69 458.9,45.35 469.68,50.62 480.11,56.54 505.03,73.24 520.36,82.67 528.36,86.79 539.45,91.36 545.14,93.25 553.84,95.57 562.67,97.27 568.62,98.06 577.59,98.74 583.59,98.84 589.59,98.66 598.55,97.87"   /><polyline id="SvgjsPolyline10806" points="115.81,17.57 193.81,18.49 226.79,19.46 250.76,20.61 271.71,22.1 292.6,24.23 310.42,26.78 328.09,30.21 342.62,33.92 354.06,37.54 365.27,41.8 376.2,46.75 384.18,50.91 394.52,57 421.95,75.34 432.18,81.61 442.63,87.51 455.97,94.36 469.59,100.66 483.42,106.46 497.43,111.81 511.64,116.62 523.15,119.99 534.8,122.87 549.54,125.67 561.43,127.22 573.4,128.1 585.4,128.29 597.38,127.79"   /><polyline id="SvgjsPolyline10807" points="58.56,17.3 193.56,17.76 265.55,19.04 295.52,20.27 322.46,22.09 346.33,24.6 364.13,27.28 378.84,30.2 396.25,34.75 410.45,39.57 424.25,45.43 435.01,50.76 445.43,56.7 472.86,75.03 490.89,85.79 509.56,95.4 517.81,99 526.22,102.2 534.78,104.97 543.48,107.3 552.28,109.18 561.17,110.59 570.12,111.52 579.1,111.96 588.1,111.92 597.08,111.38"   /><polyline id="SvgjsPolyline10808" points="107.22,17.05 170.22,16.64 209.21,16.03 242.2,15.07 272.16,13.55 299.07,11.32 319.9,8.71 340.57,5 358.05,0.71"   /><polyline id="SvgjsPolyline10809" points="212.09,16.23 242.08,15.52 269.06,14.47 290.02,13.23 307.96,11.74 325.84,9.71 343.63,6.97 358.33,3.97 372.84,0.18"   /><polyline id="SvgjsPolyline10810" points="120.55,17.27 342.55,17.68 393.55,18.3 438.53,19.51 480.47,21.79 498.4,23.37 513.3,25.09 528.13,27.28 542.87,30.05 554.56,32.78 569.03,36.73 574.93,37.78 580.91,38.26 586.91,38.14 592.86,37.44 598.73,36.17"   /><polyline id="SvgjsPolyline10811" points="234.01,17.56 306.01,18.31 336,19.04 362.97,20.12 383.94,21.4 401.87,22.93 416.77,24.61 434.57,27.3 449.28,30.22 466.71,34.71 480.99,39.3 492.16,43.68 503.05,48.72 513.6,54.42 523.8,60.75 536.18,69.21 541.38,72.2 546.78,74.82 555.19,78.02 566.82,80.92 575.75,82.05 581.74,82.32 587.74,82.18 593.71,81.66 599.64,80.74"   /><polyline id="SvgjsPolyline10812" points="151.47,17.21 307.47,16.61 352.46,15.83 391.43,14.43 424.36,12.22 448.21,9.6 463.05,7.39 474.86,5.26 495.29,0.45"   /><polyline id="SvgjsPolyline10813" points="202.79,17.23 364.79,16.77 415.78,16.06 457.76,14.75 493.69,12.55 523.53,9.47 547.23,5.71 558.97,3.24 570.6,0.27"   /><polyline id="SvgjsPolyline10814" points="294.48,17.73 348.48,18.47 396.45,20.07 429.37,22.27 444.3,23.77 459.17,25.7 473.96,28.19 485.7,30.66 497.33,33.65 511.64,38.13 520.1,41.21 531.14,45.89 555.17,58.18 560.74,60.41 566.46,62.21 575.29,63.94 584.27,64.38 590.25,63.93 599.07,62.19"   /><polyline id="SvgjsPolyline10815" points="122.36,17.26 455.36,17.47 533.36,18.11 581.35,19.18 590.33,18.71 599.15,16.96"   /><polyline id="SvgjsPolyline10816" points="299.35,17.58 359.34,18.17 404.33,19.27 437.29,20.85 467.18,23.33 482.08,25.14 493.94,26.95 505.73,29.16 517.43,31.84 534.7,36.9 543.16,39.95 557.02,45.68 565.56,48.54 571.39,49.91 580.33,50.94 586.32,50.88 592.29,50.23 598.16,49.01"   /><polyline id="SvgjsPolyline10817" points="192.07,17.25 390.07,16.91 441.07,16.4 486.05,15.37 522.01,13.71 548.93,11.57 575.71,8.17 590.49,5.59 599.28,3.66"   /></g></svg>