<?xml version="1.0" standalone="no"?>
<svg id="SvgjsSvg1001" width="600" height="600" xmlns="http://www.w3.org/2000/svg" version="1.1" xmlns:xlink="http://www.w3.org/1999/xlink" xmlns:svgjs="http://svgjs.com/svgjs" class="svg-paper" viewBox="0 0 600 600"><title id="SvgjsTitle5956">x=(abs(sin(sqrt(x*x + y*y)))+x)|y=cos(x)|dTest=0.0|sd=0.2|sm=0.2|ts=0.05 | generated with FlowLines</title><style>*{fill:none;stroke:#777}</style><g id="SvgjsG5957"><polyline id="SvgjsPolyline5958" points="249.07,597.84 250.33,591.97 252.8,583.32 264.01,552.28 268.27,537.91 269.93,529.07 270.48,523.09 270.45,517.1 269.76,511.14 268.34,505.31 266.15,499.73 263.24,494.49 257.66,487.45 250.95,481.46 243.57,476.32 235.56,472.23 229.91,470.21 224.1,468.75 218.17,467.83 212.19,467.39 206.19,467.36 194.24,468.43 188.33,469.47 179.59,471.58 168.17,475.26 154.27,480.89 113.71,500.38 97.18,507.51 80.18,513.41 65.67,517.17 50.9,519.78 32.98,521.46 17.99,521.77 0,521.08"   /><polyline id="SvgjsPolyline5959" points="237.79,599 232.8,575.52 229.83,567.04 226.94,561.79 223.04,557.24 220.7,555.37 218.13,553.83 212.5,551.8 206.55,551.09 200.57,551.43 194.67,552.52 183.25,556.18 169.52,562.2 134.52,579.4 118.02,586.61 98.3,593.8 89.69,596.42 78.08,599.43"   /><polyline id="SvgjsPolyline5960" points="260.93,599.62 263.2,594.06 267.13,585.97 271.52,578.11 277.84,567.91 287.9,552.99 336.24,484.29 342.22,477.58 349.2,471.91 356.92,467.3 362.38,464.81 368.02,462.77 376.73,460.54 382.66,459.58 388.63,459.03 397.62,458.92 409.58,459.96 418.46,461.36 430.22,463.77 494.19,480.01 511.76,483.91 526.5,486.67 544.31,489.26 562.23,490.92 580.22,491.58 598.21,491.22"   /><polyline id="SvgjsPolyline5961" points="242.35,597.74 242.84,585.75 245.34,561.88 245.93,552.91 245.92,546.91 245.42,540.93 244.29,535.04 243.43,532.17 241.09,526.65 237.85,521.61 233.76,517.23 231.43,515.34 228.95,513.65 223.61,510.93 217.92,509.06 212.02,507.99 203.03,507.69 194.1,508.71 185.34,510.78 176.81,513.63 168.49,517.07 160.35,520.9 128.46,537.61 112.26,545.44 95.6,552.25 78.46,557.72 60.91,561.73 43.1,564.25 34.13,564.98 22.14,565.46 13.14,565.48 1.15,565.04"   /><polyline id="SvgjsPolyline5962" points="254.01,598.57 256.89,590.04 260.35,581.74 281.66,538.73 286.44,527.73 289.51,519.27 291.93,510.6 293.46,501.74 293.85,492.76 293.17,480.78 293.98,471.83 296.23,463.13 298.5,457.57 301.3,452.27 306.35,444.83 312.24,438.03 316.55,433.85 321.1,429.94 328.34,424.6 336,419.88 344.02,415.8 349.53,413.43 358.02,410.44 366.71,408.13 375.56,406.49 384.5,405.5 390.49,405.2 399.49,405.24 408.47,405.86 420.36,407.48 435.02,410.61 486.78,426 504.23,430.39 524.81,434.58 542.61,437.24 563.52,439.14 581.51,439.7 599.5,439.29"   /><polyline id="SvgjsPolyline5963" points="245.25,599.69 245.84,593.72 247.33,584.84 253.61,558.59 255.85,546.8 256.5,540.84 256.69,531.84 255.85,522.89 254.4,517.07 252.16,511.51 249.13,506.34 245.36,501.68 240.95,497.62 236.03,494.2 230.71,491.43 222.22,488.47 213.37,486.86 207.39,486.47 201.39,486.58 195.42,487.14 189.5,488.1 177.88,491.07 166.58,495.12 155.59,499.93 118.1,518.86 101.73,526.34 84.89,532.66 70.48,536.83 55.8,539.89 37.94,542.14 19.97,542.96 1.97,542.57"   /><polyline id="SvgjsPolyline5964" points="251.29,599.18 253.68,590.51 256.7,582.04 269.82,551.76 275.27,537.79 278.62,526.27 280.16,517.41 280.54,508.42 279.1,496.52 277.53,490.73 273.11,479.58 270.3,471.03 268.28,462.27 267.47,456.32 267.18,450.33 267.46,444.34 268.34,438.41 270.73,429.74 274.24,421.45 278.62,413.6 285.45,403.74 293.11,394.5 301.37,385.81 310.17,377.65 319.5,370.1 329.38,363.29 339.83,357.42 348.04,353.73 356.52,350.72 365.21,348.4 374.06,346.75 383,345.75 391.99,345.33 403.98,345.61 412.95,346.38 421.87,347.57 439.53,351.03 456.94,355.61 497.06,368.02 511.61,371.67 526.3,374.66 544.1,377.33 562.02,378.97 580.01,379.61 598.01,379.29"   /><polyline id="SvgjsPolyline5965" points="250.27,598.68 252.5,589.96 255.35,581.42 267.67,550.81 272.51,536.62 274.62,527.87 275.53,521.94 275.9,512.96 275.36,506.99 273.2,498.27 269.4,490.12 259.45,475.13 250.67,462.96 244.95,456.02 238.59,449.65 231.36,444.31 226.04,441.56 223.24,440.47 217.46,438.89 208.53,437.83 202.53,437.84 196.55,438.29 181.75,440.66 167.17,444.21 152.92,448.88 138.97,454.38 94.92,473.43 80.82,478.54 69.32,481.97 54.69,485.26 45.8,486.68 36.86,487.68 18.88,488.52 0.89,488.03"   /><polyline id="SvgjsPolyline5966" points="250.05,597.43 251.47,591.6 254.13,583 267.09,549.42 271.55,535.11 273.32,526.28 273.93,520.32 273.98,514.32 273.38,508.35 272.06,502.51 268.68,494.18 265.56,489.06 258.09,479.67 249.89,470.92 243.01,465.12 235.36,460.41 229.85,458.04 224.15,456.17 218.31,454.79 209.37,453.8 197.39,454.09 188.45,455.16 182.55,456.23 168.03,460 153.9,465.01 140.09,470.87 112.9,483.54 99.17,489.58 85.17,494.96 70.85,499.41 56.23,502.75 47.35,504.21 38.41,505.25 20.44,506.18 2.45,505.8"   /><polyline id="SvgjsPolyline5967" points="225.44,598.43 220.77,594.68 218.15,593.23 212.47,591.31 206.52,590.64 200.53,590.96 191.7,592.64 183.07,595.18 171.79,599.29"   /><polyline id="SvgjsPolyline5968" points="233.85,598.13 229.94,590.03 226.44,585.17 224.3,583.07 219.49,579.49 216.87,578.03 214.07,576.95 211.16,576.23 205.19,575.76 196.27,576.84 184.75,580.16 170.8,585.68 140.62,599.01"   /><polyline id="SvgjsPolyline5969" points="239.77,598.04 238.21,574.1 237.25,565.15 235.17,556.4 232.75,550.92 229.54,545.86 227.67,543.51 223.2,539.53 220.64,537.97 215.08,535.76 212.15,535.1 206.18,534.56 200.2,534.9 194.29,535.94 188.5,537.49 180.03,540.54 166.39,546.77 137.08,561.94 120.84,569.7 101.37,577.55 84.22,583 72.57,585.89 63.75,587.67 42.96,590.58 31,591.51 22,591.84 13,591.85 1.01,591.38"   /><polyline id="SvgjsPolyline5970" points="237.15,599.86 234.19,588.23 232.4,582.51 230.07,576.98 226.88,571.91 224.87,569.69 222.56,567.78 219.99,566.24 217.21,565.1 214.31,564.34 208.37,563.53 205.37,563.43 199.4,563.95 193.53,565.19 182.15,568.97 171.12,573.68 135.78,590.18 113.56,599.25"   /><polyline id="SvgjsPolyline5971" points="274.18,598.91 278.98,591.3 284.25,584 295.8,570.21 304.1,561.54 310.62,555.34 317.39,549.41 324.43,543.8 336.82,535.36 344.68,530.99 350.1,528.42 361.34,524.21 370.04,521.95 375.94,520.87 384.88,519.86 393.88,519.52 405.86,519.98 417.8,521.25 429.65,523.13 444.35,526.1 502.67,540.17 520.28,543.93 535.04,546.57 549.9,548.6 564.84,549.94 582.83,550.51 597.82,550.13"   /><polyline id="SvgjsPolyline5972" points="265.81,599.38 270.07,591.45 274.81,583.81 281.69,573.97 289,564.46 304.6,546.23 312.87,537.54 321.44,529.13 328.13,523.11 335.11,517.44 342.44,512.22 347.55,509.07 355.53,504.92 361.07,502.61 366.75,500.7 372.56,499.19 381.43,497.68 393.4,496.95 402.39,497.2 414.34,498.36 426.19,500.21 437.96,502.54 502.14,517.94 516.81,521.04 531.57,523.7 549.41,526.14 567.34,527.61 582.34,528.01 597.33,527.65"   /><polyline id="SvgjsPolyline5973" points="257.03,599.7 261.52,588.58 266.93,577.86 272.84,567.42 291.27,536.5 297.05,525.98 301.05,517.92 304.66,509.68 307.85,501.26 309.66,495.55 313.36,481.02 315.65,475.48 318.54,470.22 321.96,465.3 325.84,460.73 330.12,456.52 334.72,452.67 339.61,449.19 344.73,446.07 355.55,440.9 366.94,437.16 372.79,435.81 381.68,434.44 393.66,433.75 399.65,433.87 408.62,434.59 417.52,435.9 426.33,437.75 487.09,454.39 507.52,459.23 525.19,462.67 545.97,465.65 563.91,467.2 581.9,467.75 599.89,467.31"   /><polyline id="SvgjsPolyline5974" points="262.27,599.94 266.15,591.83 270.57,583.99 277.02,573.87 283.88,564.03 292.85,552 303.98,537.86 313.55,526.31 323.5,515.08 329.73,508.59 336.27,502.41 347.92,492.97 355.47,488.08 360.79,485.31 366.32,482.98 372.03,481.13 380.83,479.27 389.78,478.42 398.78,478.42 410.74,479.42 422.6,481.24 434.36,483.59 498.47,499.28 513.13,502.45 530.84,505.67 548.67,508.09 566.61,509.55 584.6,509.97 599.59,509.52"   /><polyline id="SvgjsPolyline5975" points="258.64,599.18 263.42,588.18 270.58,575 278.42,562.21 296.22,534.43 306.96,516.39 313.86,503.07 320.76,486.45 325.19,478.63 330.86,471.65 335.19,467.5 339.88,463.77 347.35,458.74 352.59,455.83 358.04,453.33 363.66,451.23 375.26,448.19 384.17,446.91 396.15,446.44 408.12,447.28 419.95,449.24 434.57,452.59 495.49,468.63 513.07,472.51 527.82,475.22 545.64,477.73 563.57,479.31 581.56,479.88 599.55,479.45"   /><polyline id="SvgjsPolyline5976" points="241.36,597.38 241.31,588.38 242.29,567.41 242.3,558.41 241.34,549.47 239.84,543.66 238.76,540.86 237.44,538.17 234.01,533.26 229.63,529.18 224.64,525.86 219.21,523.31 216.35,522.42 210.45,521.35 204.46,521.13 195.52,522.09 186.79,524.23 178.3,527.22 164.63,533.39 132.75,550.1 116.54,557.93 99.9,564.77 82.79,570.36 65.29,574.54 56.42,576.1 44.52,577.63 35.56,578.41 23.57,578.98 14.57,579.04 2.58,578.65"   /><polyline id="SvgjsPolyline5977" points="253.25,597.26 256.05,588.7 259.41,580.36 273.53,550.53 278.4,539.56 282.57,528.32 284.98,519.65 286.47,510.78 286.76,501.79 286.15,495.83 283.07,481.15 282.49,472.18 283.59,460.24 284.94,454.4 286.87,448.72 289.36,443.26 293.93,435.52 299.34,428.33 305.4,421.67 311.97,415.53 318.99,409.9 328.94,403.2 336.79,398.81 344.94,395 353.36,391.81 361.99,389.26 370.78,387.35 379.69,386.09 388.66,385.44 397.66,385.37 406.65,385.84 421.53,387.7 436.22,390.71 450.69,394.65 476.41,402.88 490.81,407.05 508.27,411.42 525.92,414.96 543.73,417.58 561.65,419.23 579.63,419.89 597.63,419.59"   /><polyline id="SvgjsPolyline5978" points="255.69,598.5 258.81,590.06 263.82,579.16 285.25,539.6 290.51,528.81 294.02,520.53 296.97,512.03 299.14,503.29 300.01,497.36 300.72,485.39 301.77,479.48 303.49,473.74 307.26,465.57 312.1,457.99 315.74,453.23 319.76,448.78 324.12,444.65 328.75,440.84 336.15,435.72 343.99,431.32 349.43,428.77 355,426.55 363.57,423.82 369.4,422.4 378.27,420.86 384.23,420.22 393.22,419.83 402.22,420.06 408.2,420.55 420.07,422.26 431.79,424.82 472.1,436.61 489.47,441.35 506.97,445.55 524.63,449.04 542.43,451.7 560.34,453.43 578.32,454.17 599.32,453.79"   /><polyline id="SvgjsPolyline5979" points="250.71,599.46 252.98,590.76 255.9,582.24 268.64,551.81 273.85,537.75 276.93,526.15 277.9,520.23 278.37,514.25 277.92,505.28 275.89,496.52 273.63,490.96 266.78,477.62 261.85,466.68 257.69,455.43 254.53,443.86 252.87,435.02 252.12,426.05 252.43,417.06 253.25,411.12 255.3,402.36 259.29,391.05 264.19,380.1 280.16,347.84 284.77,336.76 287.62,328.22 289.73,319.48 290.65,313.55 291.12,307.57 291.36,292.58 291.85,286.6 293.57,277.77 295.42,272.07 297.82,266.57 302.34,258.79 305.9,253.97 311.91,247.27 318.59,241.25 328.32,234.24 338.78,228.37 349.81,223.65 361.26,220.07 373,217.62 384.92,216.29 396.92,216 405.9,216.43 414.86,217.35 423.75,218.71 435.51,221.1 455.8,226.51 484.37,235.66 498.76,239.88 516.24,244.15 530.98,246.96 545.83,249.06 563.76,250.61 581.75,251.16 599.74,250.75"   /><polyline id="SvgjsPolyline5980" points="252.21,597.52 254.83,588.91 258.03,580.5 271.53,550.39 276.08,539.29 279.82,527.89 281.78,519.11 282.69,510.17 282.26,501.19 281.11,495.3 275.61,478.17 274.37,472.3 273.63,466.35 273.47,460.36 273.95,454.38 275.07,448.49 276.81,442.75 280.41,434.51 286.62,424.24 291.93,416.98 297.82,410.18 306.36,401.75 313.21,395.92 322.88,388.82 330.5,384.04 341.15,378.51 349.46,375.05 358,372.23 366.73,370.06 375.6,368.53 384.55,367.63 396.55,367.32 405.54,367.71 420.44,369.41 438.09,372.89 455.46,377.59 481.17,385.84 495.58,390.01 513.07,394.26 527.79,397.12 545.61,399.67 563.54,401.22 581.53,401.78 599.52,401.38"   /><polyline id="SvgjsPolyline5981" points="251.09,598.51 253.47,589.84 256.47,581.35 269.36,550.98 273.64,539.77 277.02,528.26 278.2,522.38 278.91,516.42 278.92,507.43 277.41,498.57 275.5,492.89 269.04,479.35 264.51,468.24 261.8,459.66 259.89,450.87 259.06,441.92 259.21,435.92 259.96,429.97 262.15,421.25 265.41,412.86 269.33,404.76 272.25,399.52 278.72,389.42 287.59,377.32 298.96,363.37 310.98,349.97 321.7,339.49 331,331.92 338.51,326.96 346.46,322.75 354.79,319.36 363.41,316.77 372.22,314.93 381.14,313.78 390.12,313.24 402.12,313.38 411.09,314.04 420.03,315.13 431.86,317.14 440.66,319.02 460.97,324.33 501.14,336.59 515.71,340.16 530.43,343.02 548.26,345.49 563.21,346.74 581.19,347.31 599.19,346.94"   /><polyline id="SvgjsPolyline5982" points="272.8,542.84 276.53,531.43 278.51,522.66 279.47,513.72 279.4,507.72 278.66,501.77 277.19,495.96 275.01,490.37 269.95,479.49 266.67,471.11 264.03,462.51 262.74,456.65 261.69,447.72 261.92,438.73 262.84,432.81 265.28,424.15 267.52,418.59 270.16,413.2 276.34,402.92 285.23,390.84 294.98,379.45 305.42,368.68 316.58,358.67 326.16,351.44 333.68,346.5 338.88,343.5 344.23,340.8 352.54,337.34 361.12,334.63 369.89,332.64 378.79,331.32 387.77,330.64 399.76,330.59 408.74,331.14 426.58,333.5 444.19,337.23 461.56,341.96 498.82,353.45 513.37,357.08 528.08,360.02 545.89,362.61 563.82,364.16 581.81,364.7 599.8,364.29"   /><polyline id="SvgjsPolyline5983" points="252.69,590.67 257.72,576.54 269.22,548.83 274.05,534.64 276.11,525.88 276.97,519.94 277.25,510.95 276.63,504.99 274.35,496.3 271.93,490.81 244.07,441.09 239.04,433.63 233.34,426.67 228.91,422.64 223.88,419.37 218.35,417.08 215.45,416.31 209.51,415.47 200.52,415.56 188.65,417.27 171.17,421.54 151.06,427.6 134.17,433.8 92.44,450.63 78.25,455.51 66.71,458.79 57.94,460.81 49.09,462.42 34.19,464.17 19.21,464.8 1.22,464.31"   /><polyline id="SvgjsPolyline5984" points="238.8,598.54 236.47,580.69 234.97,571.82 233.41,566.03 231.1,560.5 227.73,555.55 225.61,553.43 223.22,551.62 220.6,550.16 217.81,549.07 214.91,548.32 208.94,547.74 202.96,548.16 197.07,549.3 191.31,550.96 182.88,554.12 171.95,559.06 134.27,577.61 120.52,583.6 109.32,587.91 97.95,591.74 89.31,594.26 77.66,597.14 65.89,599.48"   /><polyline id="SvgjsPolyline5985" points="288.91,598.04 298.85,586.82 309.82,576.59 321.67,567.4 334.36,559.43 345.11,554.09 353.48,550.8 359.19,548.97 370.87,546.21 376.8,545.28 385.75,544.43 397.75,544.22 406.74,544.67 418.67,545.93 430.52,547.79 456.92,553.45 512.23,567.2 526.91,570.27 541.7,572.81 556.58,574.66 568.55,575.55 583.54,575.9 598.53,575.51"   /><polyline id="SvgjsPolyline5986" points="278.72,598.31 287.81,586.39 293.77,579.65 300.05,573.2 306.61,567.04 313.46,561.2 325.52,552.29 333.17,547.55 338.44,544.68 346.6,540.89 352.2,538.73 363.71,535.36 378.48,532.8 387.45,532.04 399.44,531.96 411.41,532.79 426.27,534.81 449.8,539.53 496.41,551.01 513.95,555.04 528.66,557.96 543.47,560.34 558.37,562.04 570.34,562.85 582.34,563.12 597.33,562.78"   /><polyline id="SvgjsPolyline5987" points="250.73,598.65 253.04,589.96 255.98,581.45 269.74,548.19 274.56,533.99 276.61,525.23 277.46,519.29 277.78,513.3 277.47,507.31 275.71,498.5 273.62,492.88 259.7,466.32 254.68,455.42 250.1,444.33 245,430.22 236.09,401.58 231.98,390.31 227.8,382.35 224.07,377.66 221.85,375.65 219.39,373.93 216.72,372.57 210.96,370.93 204.98,370.54 196.05,371.52 187.29,373.58 175.83,377.14 91,407.18 79.57,410.86 68.02,414.08 50.41,417.79 35.53,419.68 20.55,420.43 2.56,420.01"   /><polyline id="SvgjsPolyline5988" points="251.01,597.59 253.42,588.92 256.42,580.44 269.12,549.98 273.23,538.71 275.71,530.06 276.92,524.19 277.7,518.24 277.93,512.24 277.06,503.3 274.58,494.66 259.71,465.22 254.98,454.19 251.84,445.75 247.64,431.36 245.91,422.53 245.16,416.58 244.77,404.59 245.13,398.61 246.22,389.67 248.37,377.87 255.03,348.62 256.54,339.75 257.54,330.81 257.94,321.82 257.79,312.82 255.73,279.89 255.85,270.89 256.29,264.91 257.58,256 259.65,247.25 261.46,241.53 264.74,233.15 268.64,225.04 273.06,217.2 279.62,207.16 286.78,197.53 298.42,183.8 310.93,170.87 324.26,158.77 338.49,147.76 351.17,139.76 361.95,134.51 367.56,132.38 373.3,130.63 379.15,129.31 385.09,128.44 394.07,127.99 403.06,128.34 412.01,129.31 423.84,131.31 444.3,136.04 479.05,145.42 499.41,150.57 517,154.37 534.74,157.41 552.61,159.55 567.58,160.59 582.57,160.94 597.57,160.61"   /><polyline id="SvgjsPolyline5989" points="277.68,519.51 278.05,513.52 277.8,507.53 276.86,501.6 275.2,495.84 272.81,490.34 265.76,477.1 259.37,463.54 254.91,452.4 251.28,440.96 249.28,432.19 248.1,423.27 247.89,414.28 248.32,408.3 249.77,399.42 252.02,390.71 255.84,379.33 266.26,351.2 269.7,339.71 271.73,330.94 272.71,325.02 273.58,316.07 273.71,289.07 274.21,280.09 275.5,271.18 277.72,262.47 279.73,256.82 282.15,251.33 288.09,240.91 295.26,231.29 299.22,226.79 305.57,220.42 314.69,212.62 326.97,204.02 337.42,198.12 348.34,193.17 359.68,189.25 371.34,186.45 383.23,184.81 395.21,184.34 404.2,184.7 413.15,185.63 422.04,187.05 430.85,188.91 445.34,192.75 476.78,202.8 491.16,207.05 508.6,211.52 526.23,215.14 544.03,217.8 561.95,219.45 579.93,220.09 597.93,219.77"   /><polyline id="SvgjsPolyline5990" points="260.77,570.38 270.15,548.28 275.08,534.12 277.74,522.43 278.41,516.47 278.53,510.47 277.46,501.55 275.85,495.77 273.53,490.25 268.06,479.57 263.13,468.63 259,457.37 256.64,448.68 255.16,439.81 254.79,430.82 255.67,421.87 256.94,416.01 259.71,407.45 263.29,399.2 267.44,391.21 273.53,380.87 297.82,343 314.58,314.57 319.43,306.99 323.04,302.2 327.05,297.74 333.8,291.8 341.31,286.85 349.36,282.85 357.8,279.73 366.5,277.42 375.36,275.84 384.31,274.92 393.3,274.59 405.29,274.96 423.17,277.01 440.83,280.47 461.15,285.78 504.22,298.79 515.88,301.63 530.6,304.51 545.44,306.65 563.37,308.25 581.36,308.81 599.35,308.42"   /><polyline id="SvgjsPolyline5991" points="254.18,440.94 253.29,431.99 253.57,423 255.06,414.14 257.61,405.51 260.97,397.16 264.89,389.07 287.16,349.96 292.65,339.3 296.34,331.09 299.5,322.66 301.95,314.01 305.04,296.28 306.45,290.45 309.77,282.1 314.48,274.44 318.26,269.79 322.48,265.52 327.06,261.64 331.93,258.15 337.05,255.02 342.37,252.24 350.64,248.71 356.32,246.77 365.01,244.45 373.86,242.79 382.8,241.77 391.79,241.35 400.78,241.46 409.76,242.08 424.63,244.07 442.24,247.74 459.62,252.44 491.1,262.32 502.64,265.61 517.22,269.12 529,271.42 546.81,273.99 561.75,275.32 579.74,275.97 597.73,275.67"   /><polyline id="SvgjsPolyline5992" points="251.16,597.14 252.72,591.34 255.59,582.82 269.4,549.57 273.5,538.3 275.96,529.64 277.16,523.76 277.91,517.81 278.12,511.82 277.21,502.87 274.7,494.25 261.33,467.4 256.76,456.31 253,444.92 250.91,436.17 249.67,427.26 249.44,418.27 250.31,409.31 252.18,400.52 254.85,391.92 259.22,380.75 272.21,350.42 275.19,341.93 277.6,333.26 279.28,324.42 279.94,318.46 280.33,309.47 280.36,294.47 280.91,285.49 282.36,276.61 283.92,270.82 287.15,262.42 291.38,254.49 296.48,247.08 304.39,238.06 313.26,229.98 322.79,222.7 333.01,216.41 341.04,212.36 346.55,209.98 357.87,206.03 369.53,203.19 381.4,201.48 393.38,200.87 402.38,201.1 411.34,201.87 420.26,203.11 432.03,205.42 452.32,210.81 480.87,220.02 498.15,225.06 512.72,228.65 530.38,232.1 548.21,234.55 563.16,235.8 581.14,236.37 599.14,235.99"   /><polyline id="SvgjsPolyline5993" points="278.32,513.27 277.69,504.3 275.47,495.59 273.09,490.09 267.52,479.46 262.43,468.6 258.02,457.44 255.32,448.86 253.34,440.08 252.3,431.15 252.22,425.15 253.11,416.2 254.33,410.33 256,404.56 260.35,393.39 265.59,382.59 282.56,350.85 287.61,339.96 290.85,331.57 293.4,322.94 294.6,317.06 295.51,308.11 296.01,293.13 297.73,284.31 299.68,278.63 303.71,270.6 308.91,263.26 315.04,256.68 321.9,250.87 329.34,245.8 339.93,240.18 348.27,236.79 359.71,233.18 368.47,231.13 380.34,229.4 389.32,228.81 401.32,228.89 410.29,229.54 419.22,230.65 436.9,234.01 457.2,239.37 488.67,249.32 500.19,252.65 514.75,256.25 529.47,259.16 547.29,261.69 562.23,262.99 580.21,263.62 598.21,263.29"   /><polyline id="SvgjsPolyline5994" points="269.64,482.07 264.68,471.14 260.54,459.88 258.2,451.2 256.76,442.32 256.48,433.33 257.48,424.39 259.71,415.68 262.94,407.28 269.86,393.98 279.6,378.85 297.19,354.55 313.75,333.23 321.79,324.32 330.57,316.15 337.8,310.81 342.95,307.73 348.32,305.05 353.87,302.77 362.45,300.06 368.29,298.69 377.17,297.23 386.13,296.43 392.13,296.23 401.12,296.36 410.1,296.97 427.93,299.43 445.53,303.18 465.79,308.71 500.2,319.27 514.75,322.92 529.46,325.85 544.3,328.04 562.22,329.7 580.2,330.33 598.2,330"   /><polyline id="SvgjsPolyline5995" points="250.85,597.94 253.22,589.26 256.19,580.76 268.83,550.28 273.83,536.14 276.06,527.43 277.06,521.51 277.61,512.54 277.21,506.55 276.1,500.66 273.08,492.2 264.42,476.42 257.57,463.08 239.84,425.01 235.3,417.24 231.61,412.51 227.15,408.52 224.62,406.92 219.21,404.33 216.38,403.33 210.5,402.17 201.51,402.09 195.55,402.78 189.65,403.87 172.24,408.41 146.49,416.53 129.57,422.65 90.41,437.82 79.03,441.65 64.58,445.67 49.89,448.65 35,450.48 20.02,451.18 2.03,450.74"   /><polyline id="SvgjsPolyline5996" points="303.63,599.24 314.93,589.39 324.7,582.42 335.04,576.35 345.91,571.26 357.21,567.26 368.87,564.41 380.74,562.72 392.72,562.1 401.72,562.26 413.68,563.21 425.57,564.84 437.37,567 460.75,572.41 513.02,585.98 527.66,589.2 542.43,591.84 554.33,593.36 569.29,594.47 584.28,594.77 599.28,594.36"   /><polyline id="SvgjsPolyline5997" points="260.51,468.28 255.36,457.44 250.59,446.43 237.69,412.83 235.24,407.35 232.37,402.09 228.78,397.28 224.26,393.37 221.65,391.89 216.09,389.64 210.24,388.35 204.25,388.13 195.31,389.11 186.52,391.03 177.86,393.46 135.15,407.63 87.32,425.32 75.88,428.95 64.29,432.05 49.59,435 34.7,436.82 19.72,437.51 1.73,437.04"   /><polyline id="SvgjsPolyline5998" points="277.8,514.84 277.67,508.85 276.86,502.9 274.29,494.29 271.69,488.89 263.17,473.04 256.72,459.49 249.96,442.82 245.32,428.55 242.36,416.93 240.59,408.1 236.42,378.4 234.4,366.57 233.03,360.73 231.23,355.01 228.83,349.51 225.65,344.43 221.53,340.09 216.46,336.91 210.73,335.19 204.76,334.8 198.79,335.39 190.03,337.42 175.84,342.29 142.38,355.56 125.46,361.7 88.45,374 76.95,377.42 65.33,380.41 50.62,383.35 32.75,385.48 17.77,386.04 2.78,385.6"   /><polyline id="SvgjsPolyline5999" points="250.81,598.32 253.16,589.64 256.11,581.14 268.78,550.67 273.84,536.55 276.12,527.85 277.17,521.94 277.81,512.97 277.47,506.98 275.65,498.18 273.53,492.57 265.02,476.72 258.37,463.27 252.4,449.52 248.18,438.28 242.91,421.08 240.08,409.42 235.71,388.88 232.45,377.33 230.09,371.82 228.61,369.22 224.84,364.56 222.52,362.66 219.94,361.14 214.38,358.91 211.47,358.16 205.5,357.65 196.57,358.6 187.82,360.73 179.25,363.46 142.67,376.97 97.35,392.8 83.1,397.47 68.66,401.55 51.06,405.28 36.19,407.21 18.21,408.06 0.23,407.46"   /><polyline id="SvgjsPolyline6000" points="255,455.12 250.66,443.94 246.99,432.52 244.12,420.87 242.2,409.03 241.44,400.06 241.23,391.06 242.67,358.1 242.64,346.1 241.8,334.13 239.71,322.32 237.24,313.67 235.14,308.05 232.64,302.6 229.66,297.4 226.08,292.58 224.03,290.4 219.31,286.71 216.66,285.31 210.94,283.56 204.96,283.13 198.99,283.71 190.24,285.76 176.11,290.79 142.93,304.75 123.33,312.28 89.05,323.27 65.86,329.44 48.18,332.78 33.27,334.46 18.29,335.06 0.3,334.45"   /><polyline id="SvgjsPolyline6001" points="264.02,474.39 256.39,458.09 249.98,441.27 245.94,426.83 244.25,418 243.49,412.04 242.95,403.06 243.28,391.07 244.58,379.14 248.04,355.4 249.3,340.45 249.38,334.46 248.98,325.47 247.09,310.59 244.19,295.87 238.29,269.53 234.87,254.92 232.48,246.25 230.5,240.59 227.95,235.16 224.54,230.23 222.43,228.1 220.05,226.29 217.43,224.83 211.71,223.06 208.74,222.67 202.75,222.66 193.84,223.94 185.12,226.15 173.72,229.88 137.26,243.72 120.29,249.73 88.88,259.82 68.62,265.34 50.97,268.89 33.11,271.02 18.12,271.6 0.13,270.99"   /><polyline id="SvgjsPolyline6002" points="258.64,463.09 252.9,449.24 248.2,434.99 246.05,426.26 244.95,420.36 243.69,408.43 243.63,399.43 244.28,390.46 245.48,381.54 251.11,349.03 252.02,340.08 252.36,331.08 252.09,322.09 251.31,313.12 246.61,277.44 245.92,265.46 246.04,256.46 247.42,241.53 250.29,226.81 255.43,209.57 266.94,178.64 271.77,164.44 274.12,155.76 275.32,149.88 276.13,143.94 276.46,137.95 275.83,128.98 274.55,123.12 273.62,120.27 271.22,114.78 267.02,106.82 263.24,98.65 261.04,93.07 258.35,84.48 257.06,78.63 256.22,72.69 255.94,63.7 256.42,57.72 258.1,48.88 259.78,43.12 262.99,34.72 266.86,26.59 271.21,18.72 275.93,11.05 282.63,1.1"   /><polyline id="SvgjsPolyline6003" points="256.36,457.14 251.25,443.04 248.17,431.44 246.34,419.59 245.99,413.6 246.05,407.61 246.9,398.65 248.53,389.8 251.54,378.19 259.16,352.29 261.21,343.52 262.72,334.65 263.37,328.69 263.82,319.7 263.02,292.72 263.15,280.72 264.01,271.76 265.69,262.93 268.23,254.3 271.61,245.96 277.18,235.34 283.65,225.23 291.02,215.77 299.12,206.91 307.83,198.67 317.09,191.04 326.86,184.07 337.11,177.84 347.83,172.46 356.17,169.08 364.74,166.33 376.45,163.75 388.38,162.47 397.37,162.36 403.37,162.67 412.31,163.65 427.03,166.49 441.51,170.41 490.4,184.93 507.86,189.28 525.5,192.86 543.3,195.52 561.22,197.2 579.2,197.88 597.2,197.6"   /><polyline id="SvgjsPolyline6004" points="244.67,417.13 243.89,405.16 244.48,393.18 246.17,381.3 251.87,351.85 253.08,342.93 253.76,333.96 253.84,324.96 253.37,315.98 250.04,286.16 249.18,271.19 249.41,262.2 250.34,253.25 251.36,247.34 253.48,238.59 256.26,230.03 260.8,218.93 266.11,208.17 270.47,200.3 279.75,184.88 302.63,149.66 310.5,136.89 317.73,123.75 323.96,110.1 326.92,104.89 330.5,100.08 336.84,93.71 341.6,90.05 349.31,85.43 357.54,81.81 366.13,79.12 374.93,77.28 383.87,76.2 392.86,75.8 401.85,75.99 416.79,77.37 434.54,80.32 452.12,84.16 504.61,96.84 519.31,99.84 534.1,102.35 551.96,104.58 566.91,105.69 581.91,106.09 599.9,105.63"   /><polyline id="SvgjsPolyline6005" points="244.19,402.04 244.56,396.05 245.67,387.12 252.76,351.83 254.68,336.96 255.07,327.97 254.88,318.97 251.82,286.12 251.33,271.13 251.86,262.15 253.13,253.24 255.15,244.47 257.89,235.9 260.07,230.32 263.81,222.13 271.04,208.99 280.92,193.95 291.69,179.53 306.97,161.02 325.05,140.98 339.83,126.06 351.1,116.18 356.13,112.92 361.51,110.26 367.13,108.16 375.85,105.96 381.78,105.05 390.75,104.4 396.75,104.37 405.74,104.84 417.65,106.24 435.35,109.52 502.35,126 517.03,129.07 531.81,131.64 549.66,133.94 564.61,135.13 579.6,135.62 597.6,135.3"   /><polyline id="SvgjsPolyline6006" points="253.25,449.53 249.5,438.13 246.72,426.46 245.21,414.56 245.06,405.57 245.75,396.6 247.17,387.71 249.1,378.92 255.68,352.74 257.42,343.91 258.62,334.99 259.21,326.01 259.22,317.01 257.61,290.06 257.5,278.07 258.13,269.09 260.2,257.28 262.71,248.64 267.23,237.53 272.89,226.96 279.48,216.93 286.81,207.43 296.8,196.25 307.58,185.82 319.08,176.19 328.79,169.15 338.96,162.78 349.52,157.09 357.76,153.49 366.27,150.55 375,148.37 386.88,146.74 395.87,146.49 401.87,146.75 410.81,147.73 425.54,150.54 442.98,154.97 492.07,168.8 509.58,172.98 527.25,176.42 545.06,178.96 562.99,180.54 580.98,181.12 598.97,180.75"   /><polyline id="SvgjsPolyline6007" points="275.86,529.35 277.45,520.5 277.9,514.52 277.41,505.54 276.22,499.66 273.07,491.25 264.59,475.37 258.14,461.83 253.57,450.74 250.57,442.25 247.3,430.71 245.54,421.89 244.33,409.95 244.36,400.96 244.81,394.97 246.03,386.06 252.78,353.76 254.25,344.88 255.22,335.94 255.58,326.94 255.37,317.95 252.69,288.07 252.14,276.09 252.39,267.09 252.95,261.12 255.09,249.32 257.58,240.67 260.75,232.25 264.51,224.07 268.76,216.14 273.42,208.44 280.13,198.5 287.31,188.88 296.78,177.25 310.8,161.62 323.48,148.85 334.6,138.79 346.42,129.56 356.56,123.16 364.76,119.46 373.43,117.08 382.33,115.8 391.32,115.42 400.31,115.76 412.24,117.07 424.06,119.11 444.53,123.78 496.82,137.29 514.4,141.15 532.12,144.29 549.97,146.57 564.92,147.73 579.92,148.21 597.91,147.88"   /><polyline id="SvgjsPolyline6008" points="277.88,520.9 278.41,514.92 278.36,508.92 277.63,502.97 276.19,497.15 274.02,491.56 267.21,478.2 262.31,467.25 258.19,455.98 255.83,447.3 254.33,438.43 253.92,432.45 254.05,426.45 255.28,417.54 256.74,411.72 258.64,406.03 263.42,395.03 270.57,381.85 287.67,353.62 296.47,337.93 302.91,324.38 310.37,304.75 314.13,296.59 317.33,291.51 323.01,284.54 327.24,280.28 334.29,274.7 342,270.07 350.18,266.32 358.68,263.38 367.41,261.2 376.28,259.71 385.24,258.85 394.23,258.58 406.22,259.03 415.18,259.9 424.09,261.18 441.73,264.74 462.01,270.16 502.18,282.42 513.82,285.33 528.52,288.31 546.33,290.92 564.26,292.46 582.25,292.97 597.25,292.67"   /><polyline id="SvgjsPolyline6009" points="322.31,598.85 329.87,593.96 340.46,588.34 348.75,584.82 357.27,581.94 365.99,579.71 374.85,578.13 383.8,577.18 395.79,576.82 404.78,577.15 416.72,578.3 428.58,580.11 437.42,581.82 460.76,587.41 504.14,599.36"   /><polyline id="SvgjsPolyline6010" points="314.87,598.22 322.22,593.02 332.56,586.94 343.43,581.88 351.89,578.82 360.56,576.4 372.35,574.2 381.3,573.28 393.3,572.96 402.29,573.32 414.23,574.5 423.13,575.81 434.92,578.03 455.36,582.84 498.78,594.66 519.16,599.73"   /><polyline id="SvgjsPolyline6011" points="269.52,548.84 274.42,534.67 277.05,522.97 277.71,517.01 277.8,511.01 276.71,502.09 275.08,496.32 272.73,490.8 262.83,472.28 255.26,455.96 249.81,441.98 245.36,427.66 242.65,415.98 240.78,404.12 239.69,392.17 238.68,368.2 237.99,359.22 236.69,350.32 234.42,341.62 232.18,336.05 227.6,328.32 223.78,323.71 219.07,320.01 213.59,317.61 207.68,316.61 201.69,316.78 192.86,318.46 187.11,320.16 178.63,323.19 142.54,337.96 122.85,345.27 85.75,357.26 74.2,360.52 62.53,363.34 47.79,366.06 32.88,367.73 17.9,368.3 2.9,367.86"   /><polyline id="SvgjsPolyline6012" points="249.16,439.78 246.51,431.18 244.3,422.46 242.59,413.62 241.42,404.7 240.63,389.72 241.06,362.73 240.92,353.73 239.83,341.79 238.08,332.96 236.37,327.21 234.14,321.64 231.32,316.36 229.64,313.87 225.67,309.39 223.34,307.49 218.24,304.33 215.52,303.08 209.71,301.63 203.72,301.44 197.78,302.18 189.06,304.39 177.75,308.42 141.76,323.42 122.1,330.81 87.82,341.8 67.55,347.28 52.86,350.3 35.02,352.6 20.04,353.32 2.05,352.85"   /><polyline id="SvgjsPolyline6013" points="249.15,439.11 246.61,430.48 244.58,421.71 243.13,412.83 242.32,403.87 242.36,388.87 245.48,356.02 246.04,344.04 245.58,332.05 243.96,320.17 242.01,311.38 239.49,302.74 236.41,294.29 232.59,286.14 229.45,281.04 223.52,274.28 218.79,270.62 216.12,269.25 210.36,267.62 204.38,267.31 198.42,267.96 189.67,270.05 175.53,275.05 142.31,288.92 122.7,296.42 91.28,306.5 68.12,312.78 50.47,316.27 35.58,318.11 20.61,318.87 2.61,318.44"   /><polyline id="SvgjsPolyline6014" points="263.62,473.63 256.02,457.31 249.66,440.48 245.64,426.03 243.54,414.22 242.61,402.27 242.86,390.27 244,378.33 247,354.52 247.84,339.55 247.59,330.55 247.07,324.58 244.65,309.78 241.85,298.11 238.48,286.59 235.57,278.08 232.08,269.79 229.17,264.54 227.44,262.1 225.47,259.83 220.99,255.84 218.52,254.14 215.84,252.8 213,251.85 207.07,250.99 204.07,251 198.12,251.67 189.36,253.72 175.18,258.6 139.06,273.32 119.37,280.6 87.9,290.53 76.34,293.75 64.68,296.58 49.94,299.37 35.06,301.17 20.08,301.9 2.09,301.42"   /><polyline id="SvgjsPolyline6015" points="244.33,418.77 243.01,406.85 242.93,394.85 243.91,382.9 247.24,359.13 248.52,347.2 248.86,332.21 247.92,320.25 246.04,308.4 243.54,296.67 238.46,276.29 234.3,261.88 231.08,253.48 228.2,248.23 224.32,243.67 221.94,241.85 219.3,240.42 213.66,238.38 210.74,237.73 204.75,237.37 195.83,238.44 187.1,240.63 175.73,244.45 136.66,259.87 119.74,265.99 94.03,274.24 73.83,279.97 56.26,283.88 38.45,286.44 20.48,287.47 2.49,287.03"   /><polyline id="SvgjsPolyline6016" points="249.49,439.63 246.29,428.07 244.55,419.24 243.48,410.31 243.13,401.32 243.29,395.32 244.04,386.35 248.55,356.7 249.9,344.78 250.33,332.79 249.7,320.81 247.66,305.95 242.72,279.41 240.81,267.56 239.31,255.66 237.05,231.76 235.34,219.89 234,214.04 232,208.39 229.05,203.18 224.95,198.82 222.5,197.09 219.84,195.71 217.04,194.65 211.17,193.41 202.19,193.22 193.26,194.31 181.55,196.94 170.04,200.33 96.25,225.58 79.05,230.89 67.44,233.93 49.79,237.46 34.91,239.27 19.93,239.98 1.94,239.5"   /><polyline id="SvgjsPolyline6017" points="245.08,377.68 248.32,356.93 249.83,342.01 250.04,336.02 249.84,327.02 248.25,312.11 240.49,270.84 235.9,241.19 234.11,232.37 232.36,226.64 229.77,221.23 228.04,218.79 225.97,216.61 223.59,214.79 220.96,213.35 215.35,211.24 212.44,210.53 206.47,209.95 197.51,210.59 188.68,212.35 180.01,214.74 171.45,217.53 129.14,232.86 94.98,244.23 74.84,250.14 57.3,254.17 45.46,256.12 30.53,257.6 15.54,258 0.56,257.42"   /><polyline id="SvgjsPolyline6018" points="243.27,402.44 243.58,393.45 244.5,384.5 248.83,357.85 250.34,345.94 250.91,336.96 250.88,327.97 250.27,318.99 249.18,310.06 243.4,274.52 241.77,256.6 241.56,247.61 241.75,238.61 244.32,199.7 244.31,193.7 243.89,187.72 242.1,178.91 239.81,173.37 236.49,168.39 232.17,164.25 229.7,162.55 224.32,159.91 221.48,158.95 215.62,157.64 209.66,157.02 203.66,156.94 197.67,157.3 188.75,158.44 174.06,161.47 156.75,166.38 139.75,172.31 106.14,185.19 92.03,190.28 77.74,194.84 66.15,197.95 48.5,201.47 33.61,203.2 18.62,203.82 0.64,203.25"   /><polyline id="SvgjsPolyline6019" points="244.11,415.15 243.37,403.18 243.91,391.19 245.45,379.29 250.31,349.69 251.15,340.73 251.43,331.74 251.12,322.75 250.26,313.79 245.7,284.14 244.19,272.24 243.38,260.27 243.44,248.27 244.09,239.29 245.68,227.4 252.21,195.06 253.74,186.19 254.44,180.23 254.98,171.25 254.52,162.27 253.35,156.39 252.46,153.52 251.35,150.74 248.43,145.51 244.62,140.88 240.05,137 234.93,133.89 229.42,131.53 223.66,129.84 217.77,128.72 208.81,127.9 199.82,128.05 190.88,129.04 184.97,130.11 176.22,132.22 161.92,136.73 147.9,142.05 111.94,157.16 98.01,162.7 83.88,167.73 69.5,172.02 51.93,175.88 37.07,177.88 19.1,178.8 1.11,178.27"   /><polyline id="SvgjsPolyline6020" points="247.29,369.65 249.86,354.88 251.01,345.95 251.67,336.98 251.74,327.98 250.6,313.03 246.23,283.35 244.92,271.42 244.38,259.44 244.81,247.45 246.26,235.54 248.61,223.77 252.45,209.28 259.29,186.27 262.2,174.63 263.73,165.76 264.3,156.79 263.94,150.8 263.04,144.87 262.4,141.94 260.5,136.25 259.24,133.53 256.1,128.43 252.21,123.87 250.01,121.83 245.23,118.21 237.6,113.44 229.52,109.49 223.88,107.46 215.11,105.45 209.15,104.85 203.15,104.81 194.2,105.69 188.3,106.79 179.59,109.04 165.41,113.94 151.56,119.69 118.8,134.61 102.27,141.74 88.27,147.12 74.01,151.76 56.53,156.05 47.67,157.6 38.74,158.74 20.78,159.79 2.79,159.39"   /><polyline id="SvgjsPolyline6021" points="254.38,453.05 249.38,438.91 246.31,427.32 244.33,415.49 243.7,406.51 243.83,397.51 244.65,388.55 245.99,379.65 251.32,350.13 252.33,341.19 252.79,332.21 252.65,323.21 251.97,314.23 248.15,284.48 247.15,272.53 247.05,260.53 248.09,248.58 249.05,242.66 251.04,233.88 253.61,225.26 256.65,216.79 263.78,200.26 282.06,162.45 286.64,151.36 290.55,140.02 292.76,131.3 293.73,125.38 294.23,116.4 293.65,107.42 293.74,101.43 295.03,92.53 296.69,86.77 298.95,81.21 301.74,75.9 305.01,70.87 310.66,63.88 317.05,57.55 326.48,50.13 336.72,43.89 347.6,38.83 358.95,34.97 367.7,32.86 379.56,31.06 391.54,30.34 400.53,30.44 412.5,31.31 421.43,32.43 433.26,34.43 453.78,38.88 509.13,52.51 523.82,55.52 538.61,58.01 553.5,59.86 568.45,60.98 583.45,61.34 598.44,60.92"   /><polyline id="SvgjsPolyline6022" points="244.06,413.24 243.6,404.25 244.15,392.27 245.75,380.38 251,350.85 252.02,341.91 252.5,332.92 252.38,323.92 251.71,314.95 247.76,285.21 246.45,270.27 246.3,264.27 246.58,255.28 247.95,243.36 250.45,231.63 254.89,217.31 260.36,203.34 277.07,164.82 281.03,153.49 283.87,141.84 284.86,132.9 284.52,123.91 283.42,118.02 280.98,109.36 279.7,103.5 278.5,94.59 278.56,85.59 279.99,76.72 282.72,68.15 285.17,62.68 288.06,57.42 293.08,49.95 300.8,40.77 309.43,32.44 318.79,24.95 328.8,18.32 336.67,13.96 342.08,11.37 353.23,6.95 364.76,3.65 376.56,1.5 382.53,0.85 391.51,0.39 400.51,0.49 412.47,1.41 421.39,2.6 433.2,4.72 456.57,10.2 505.86,23.27 523.43,27.21 538.18,29.89 553.05,31.89 568,33.12 582.99,33.51 597.98,33.14"   /><polyline id="SvgjsPolyline6023" points="252.06,331.11 251.77,322.11 250.96,313.15 246.74,283.45 245.53,271.51 245.14,259.52 245.79,247.54 247.5,235.67 250.98,221.08 254.54,209.63 265.51,178.5 268.94,167.01 271.32,155.25 271.89,149.28 271.9,143.28 271.23,137.33 269.78,131.51 267.51,125.96 264.44,120.81 256.83,111.54 246.89,100.3 240.61,93.86 233.86,87.91 228.99,84.41 223.77,81.47 218.2,79.26 215.3,78.47 212.36,77.91 206.38,77.42 200.39,77.7 194.46,78.6 182.88,81.73 171.66,85.98 157.99,92.14 123.05,109.46 109.47,115.84 92.87,122.8 75.87,128.68 67.2,131.11 58.43,133.15 49.58,134.77 40.67,135.98 31.7,136.78 22.71,137.18 13.71,137.22 1.72,136.77"   /><polyline id="SvgjsPolyline6024" points="243.55,400.77 243.83,394.78 244.77,385.83 250.79,350.34 251.75,341.39 252.15,332.4 251.95,323.4 251.22,314.43 247.07,284.72 245.83,272.79 245.44,257.8 246.32,245.84 248.28,234 252.04,219.49 256.82,205.27 267.33,177.17 271.79,162.85 274.14,151.1 274.67,145.12 274.61,139.12 273.21,130.25 272.36,127.37 270.04,121.84 252.51,93.9 246.66,83.42 232.7,56.87 229.57,51.75 225.97,46.95 221.68,42.78 219.22,41.06 213.75,38.63 210.83,37.95 204.86,37.54 195.95,38.71 187.3,41.19 176.16,45.64 162.65,52.15 130.83,68.98 112.02,78.32 95.51,85.47 78.54,91.48 61.13,96.04 52.29,97.72 43.39,99 34.43,99.87 22.44,100.44 1.45,100.04"   /><polyline id="SvgjsPolyline6025" points="244.11,413.96 243.57,401.98 244.32,390.01 245.55,381.1 250.76,351.55 251.81,342.62 252.32,333.63 252.22,324.63 251.57,315.66 247.55,285.93 246.31,274 245.93,259.01 246.83,247.05 248.85,235.22 252.75,220.74 257.77,206.61 270.26,176.07 274.42,164.81 277.79,153.3 279.01,147.43 279.79,141.48 279.92,132.49 278.51,123.61 276.63,117.92 273.04,109.67 270.98,104.03 269.28,98.28 268.04,92.41 267.33,86.46 267.21,80.46 267.69,74.48 268.64,68.56 270.88,59.85 274.21,51.49 278.41,43.54 283.3,35.98 290.63,26.49 298.71,17.62 307.39,9.34 316.61,1.67"   /><polyline id="SvgjsPolyline6026" points="259.2,199.66 267.77,177.24 272.37,162.97 274.9,151.25 275.55,145.29 275.64,139.29 274.5,130.37 272.77,124.63 270.26,119.19 259.57,101.12 254.24,90.37 250.83,82.04 248.92,76.36 247.34,70.57 246.15,64.69 245.37,58.74 244.91,49.75 245.37,37.77 247.62,22.95 252.17,2.45"   /><polyline id="SvgjsPolyline6027" points="245.57,380.62 250.72,351.07 251.73,342.13 252.19,333.14 252.05,324.14 251.35,315.17 247.25,285.46 245.79,270.53 245.67,255.54 246.79,243.59 248.99,231.8 253.01,217.35 256.94,206.02 267.69,178.01 272.42,163.78 275.11,152.09 276.06,143.15 275.69,134.17 275.22,131.2 273.68,125.41 271.35,119.88 261,101.62 255.97,90.73 252.9,82.27 251.3,76.49 250.12,70.61 249.41,64.65 249.19,58.66 249.48,52.67 250.25,46.72 252.18,37.93 254.85,29.34 258.06,20.93 266.7,1.79"   /><polyline id="SvgjsPolyline6028" points="245.12,386.44 251.11,354 252.38,345.09 253.15,336.12 253.32,327.12 252.91,318.14 249.1,285.36 248.11,270.4 248.13,264.4 248.7,255.42 249.98,246.51 251.94,237.73 256.57,223.47 260.01,215.16 263.83,207 272.23,191.09 291.5,157.18 299.53,141.08 302.93,132.75 304.85,127.06 306.4,121.27 309.24,106.54 310.99,100.81 313.4,95.32 316.42,90.14 319.97,85.3 323.97,80.84 328.37,76.75 335.55,71.35 343.31,66.78 351.49,63.05 360,60.11 368.73,57.94 377.61,56.48 386.57,55.69 398.57,55.55 407.55,56.04 416.5,56.95 434.27,59.8 454.79,64.25 507.29,76.89 522,79.85 536.79,82.31 551.68,84.16 566.63,85.32 584.62,85.74 599.62,85.28"   /><polyline id="SvgjsPolyline6029" points="245.83,384.51 252.2,352.13 254.05,337.25 254.4,328.26 254.16,319.27 250.6,283.45 250.17,268.46 250.74,259.48 252.05,250.58 254.09,241.82 256.82,233.24 261.37,222.14 266.76,211.42 274.35,198.49 284.31,183.5 294.82,168.89 321.74,132.82 333.91,115.71 339.7,108.83 346.55,103.01 351.62,99.81 356.99,97.12 362.57,94.93 371.23,92.5 377.13,91.39 386.07,90.41 395.06,90.15 404.06,90.48 418.96,92.11 433.74,94.7 451.3,98.62 500.83,110.79 518.45,114.46 533.23,116.99 551.09,119.23 566.05,120.36 581.04,120.79 599.03,120.39"   /><polyline id="SvgjsPolyline6030" points="345.56,599.2 356.83,595.09 368.46,592.16 380.33,590.4 395.31,589.73 407.29,590.26 422.18,592.04 439.86,595.43 457.32,599.78"   /><polyline id="SvgjsPolyline6031" points="250.2,344.85 250.69,332.87 249.82,317.9 248.16,306.01 243.02,276.46 240.91,258.59 240.15,243.61 239.93,216.61 239.56,210.62 238.76,204.68 237.27,198.87 236.17,196.08 233.07,190.96 231.04,188.75 226.42,184.93 221.19,182.02 218.37,181.01 212.5,179.76 203.52,179.38 194.57,180.21 182.79,182.48 168.31,186.4 151.15,191.84 134.09,197.57 100.19,209.69 85.95,214.39 71.53,218.53 56.91,221.87 45.07,223.83 30.15,225.3 15.16,225.67 0.17,225.07"   /><polyline id="SvgjsPolyline6032" points="243.5,396.01 245.09,381.11 249.94,351.5 251.19,336.56 251.18,327.56 250.57,318.58 249.5,309.65 244,274.07 242.96,262.12 242.7,253.13 242.92,244.13 243.93,232.17 249.35,196.59 250.23,187.63 250.38,181.64 249.51,172.69 247.92,166.91 246.75,164.15 243.61,159.05 241.66,156.78 237.29,152.67 234.91,150.84 229.71,147.85 224.11,145.72 218.28,144.33 212.33,143.56 203.34,143.32 197.35,143.65 188.42,144.73 173.75,147.82 159.38,152.13 142.47,158.29 97.84,175.95 80.8,181.76 66.36,185.8 51.68,188.88 42.78,190.2 33.83,191.12 18.84,191.75 0.86,191.2"   /><polyline id="SvgjsPolyline6033" points="251.22,345.53 251.96,333.56 251.65,321.57 250.42,309.63 246.92,285.89 245.55,273.97 244.93,258.99 245.56,247.01 247.25,235.13 250.65,220.52 255.05,206.19 263.71,180.61 266.99,169.07 269.22,157.29 269.73,148.31 269.3,142.33 268.11,136.45 266.1,130.8 263.25,125.53 261.53,123.07 257.57,118.57 251.08,112.34 244.25,106.49 236.92,101.27 231.7,98.31 226.2,95.93 217.55,93.45 211.64,92.44 205.65,92.12 199.66,92.43 193.72,93.27 182.08,96.14 167.96,101.2 154.2,107.17 118.96,123.88 105.27,130 88.54,136.64 74.3,141.32 65.61,143.68 56.83,145.65 47.97,147.21 39.04,148.36 30.07,149.09 21.08,149.42 12.08,149.4 0.09,148.88"   /><polyline id="SvgjsPolyline6034" points="249.01,293.54 246.97,275.66 246.57,260.67 247.49,248.71 248.38,242.78 250.25,233.97 253.62,222.46 257.76,211.2 262.44,200.15 276.16,170.14 280.71,159.03 284.48,147.65 286.5,138.88 287.49,129.94 287.43,123.94 286.69,117.99 284.81,109.19 283.94,100.24 284.43,91.27 286.37,82.49 288.42,76.85 291,71.44 294.04,66.27 299.33,58.99 303.26,54.46 309.67,48.15 316.55,42.34 323.77,36.97 334,30.71 342.06,26.71 350.4,23.32 358.96,20.58 367.71,18.47 379.57,16.67 388.55,16.03 400.54,16.04 409.52,16.64 418.47,17.65 436.2,20.7 453.76,24.67 509.01,38.66 523.69,41.77 538.46,44.34 553.34,46.25 568.29,47.42 583.29,47.79 598.28,47.4"   /><polyline id="SvgjsPolyline6035" points="243.72,406.11 243.9,397.12 244.76,388.16 251.07,352.72 252.24,343.8 252.89,334.82 252.94,325.83 252.42,316.84 248.41,284.09 247.39,269.13 247.5,260.13 247.94,254.15 248.68,248.2 250.36,239.36 254.53,224.95 260.04,211.01 267.77,194.76 285.59,160.06 289.32,151.87 292.64,143.51 295.37,134.94 297.26,126.14 297.92,120.18 297.99,111.18 298.45,105.21 299.6,99.32 301.4,93.6 303.84,88.12 308.52,80.44 314.23,73.49 318.49,69.28 325.45,63.58 335.58,57.15 343.66,53.19 354.89,48.98 363.53,46.49 375.32,44.23 384.27,43.3 396.26,42.97 405.25,43.34 414.21,44.14 426.1,45.79 434.96,47.38 452.55,51.17 507.94,64.6 522.64,67.59 537.43,70.07 552.32,71.93 567.27,73.08 582.26,73.49 597.26,73.14"   /><polyline id="SvgjsPolyline6036" points="247.76,241.5 250.3,229.77 253.75,218.28 258.96,204.22 269.37,179.31 274.78,165.32 278.32,153.85 280.16,145.05 280.97,136.09 280.41,127.12 279.13,121.26 274.86,110.06 272.14,101.48 270.87,95.62 270.13,89.67 269.97,83.67 270.43,77.69 271.5,71.79 274.17,63.2 277.91,55.02 284.18,44.8 289.63,37.64 297.67,28.74 306.43,20.54 315.8,13.05 325.75,6.34 336.12,0.32"   /><polyline id="SvgjsPolyline6037" points="465.46,0.14 494.34,8.26 508.86,12.03 523.48,15.38 538.22,18.15 553.07,20.22 568.02,21.44 583.02,21.82 598.01,21.46"   /><polyline id="SvgjsPolyline6038" points="246.11,246.51 247.98,234.66 251.63,220.12 256.32,205.87 266.64,177.7 270.99,163.35 272.82,154.54 273.52,148.59 273.69,142.59 273.21,136.61 271.98,130.75 271.06,127.89 268.62,122.41 267.11,119.82 244.3,88.19 238.73,81.12 232.59,74.55 227.96,70.74 220.29,66.06 214.67,63.98 211.74,63.35 205.76,62.87 196.82,63.74 190.97,65.09 185.24,66.85 176.83,70.05 165.88,74.95 125.8,95.41 106.85,104.47 87.41,112.38 70.25,117.82 61.52,119.99 52.69,121.74 37.83,123.74 19.86,124.68 1.87,124.24"   /><polyline id="SvgjsPolyline6039" points="273.07,158.65 274.62,149.79 275.09,140.81 274.09,131.87 272.47,126.1 271.36,123.32 268.55,118.02 262.05,107.93 255.93,97.61 250.32,87 246.53,78.84 241.12,64.86 233.31,39.01 229,27.82 225.98,22.65 221.95,18.22 219.54,16.44 216.89,15.03 214.08,13.99 208.18,12.96 205.19,12.88 199.21,13.38 190.43,15.31 181.88,18.13 165.35,25.23 127.79,44.04 108.75,52.89 92.03,59.54 74.88,64.98 57.33,68.98 39.51,71.43 21.54,72.4 0.55,71.95"   /><polyline id="SvgjsPolyline6040" points="274.21,148.26 274.32,139.27 273.55,133.33 272.01,127.53 269.66,122.02 268.2,119.4 253.31,96.88 236.11,68.71 230.74,61.5 226.5,57.26 224.11,55.45 218.79,52.72 215.92,51.85 210.02,50.76 204.03,50.53 198.07,51.21 189.34,53.38 180.88,56.42 164.51,63.9 127.29,83.37 108.41,92.56 91.82,99.53 74.78,105.31 66.09,107.66 57.31,109.6 48.44,111.14 39.51,112.26 21.55,113.32 0.56,112.84"   /><polyline id="SvgjsPolyline6041" points="256.71,205.82 268.26,174.91 271.01,166.34 273.23,157.63 274.66,148.74 275.01,142.76 274.74,136.77 273.75,130.85 271.97,125.13 269.4,119.71 256.67,99.37 248.2,83.49 242.16,69.77 233.89,47.24 230.27,39.01 227.05,33.95 225.06,31.71 222.78,29.75 220.24,28.17 217.49,26.98 211.63,25.75 202.64,25.63 193.79,27.17 185.19,29.83 176.84,33.17 165.96,38.23 126.01,58.95 109.78,66.72 98.75,71.45 90.35,74.67 73.21,80.15 64.48,82.34 55.66,84.13 46.77,85.53 37.82,86.52 19.85,87.39 1.86,86.98"   /><polyline id="SvgjsPolyline6042" points="251.37,223.96 256.07,209.72 269.25,176.22 273.21,164.9 276.31,153.31 277.35,147.4 277.91,141.43 277.64,132.44 275.76,123.66 273.53,118.09 269.42,110.09 265.75,101.87 262.78,93.38 261.29,87.57 259.99,78.67 259.82,72.67 260.25,66.69 261.25,60.78 262.77,54.98 265.91,46.54 269.86,38.46 272.85,33.26 277.76,25.72 284.94,16.11 290.7,9.19 298.75,0.29"   /><polyline id="SvgjsPolyline6043" points="245.29,382.33 250.87,349.81 251.81,340.86 252.18,331.87 251.95,322.87 251.19,313.91 247.04,284.19 245.84,272.26 245.52,257.27 246.46,245.31 248.48,233.48 252.32,218.99 257.17,204.79 267.78,176.73 271.49,165.32 274.23,153.65 275.03,147.7 275.32,141.71 274.53,132.76 273.07,126.94 272.04,124.13 269.38,118.75 258.41,100.85 252.81,90.24 247.95,79.27 244.02,67.94 241.8,59.22 240.24,50.36 239.24,41.41 237.54,17.47 236.2,8.58 234.7,2.77"   /><polyline id="SvgjsPolyline6044" points="511.73,0.38 535.17,5.49 544.06,6.94 555.97,8.38 576.93,9.58 597.92,9.28"   /><polyline id="SvgjsPolyline6045" points="275.24,141.07 274.32,132.13 272.76,126.34 271.68,123.54 268.93,118.21 260.92,105.53 253.61,92.43 248.48,81.59 244.17,70.39 241.57,61.78 239.53,53.02 234.54,23.44 232.88,17.68 231.75,14.9 228.69,9.76 226.68,7.53 224.37,5.62 219.23,2.53 213.6,0.49"   /><polyline id="SvgjsPolyline6046" points="268.27,175.21 272.64,160.87 274.83,149.08 275.23,143.09 275.03,137.1 274.12,131.17 273.37,128.27 272.43,125.42 269.94,119.97 260.43,104.68 253.19,91.55 248.12,80.68 244.87,72.29 242.16,63.7 240.01,54.97 235.23,25.36 233.85,19.52 231.79,13.89 228.68,8.77 226.65,6.57 224.32,4.69 221.73,3.17 216.08,1.21 213.12,0.72 207.13,0.51 195.23,1.96 183.64,5.05 175.18,8.11 164.12,12.78 123.45,32.03 106.94,39.2 87.23,46.42 69.9,51.27 52.23,54.69 37.33,56.4 19.35,57.17 1.36,56.75"   /><polyline id="SvgjsPolyline6047" points="162.07,0.57 123.66,17.56 109.8,23.3 92.89,29.45 75.61,34.49 58.01,38.21 40.16,40.52 22.19,41.46 1.2,41.05"   /><polyline id="SvgjsPolyline6048" points="132.45,0.54 112.96,8.36 95.99,14.36 81.61,18.62 67.01,22.04 52.22,24.55 34.32,26.33 19.33,26.87 1.34,26.41"   /><polyline id="SvgjsPolyline6049" points="100.51,0.16 86.13,4.44 74.48,7.32 62.72,9.68 50.86,11.48 38.93,12.76 26.95,13.5 14.95,13.67 2.96,13.29"   /><polyline id="SvgjsPolyline6050" points="43.61,0.26 31.65,1.25 22.66,1.61 10.66,1.58 1.67,1.19"   /></g></svg>