<?xml version="1.0" standalone="no"?>
<svg id="SvgjsSvg1001" width="600" height="600" xmlns="http://www.w3.org/2000/svg" version="1.1" xmlns:xlink="http://www.w3.org/1999/xlink" xmlns:svgjs="http://svgjs.com/svgjs" class="svg-paper" viewBox="0 0 600 600"><title id="SvgjsTitle2334">x=cos(max(((cos(x)-x)-sqrt(x*x + y*y)),sqrt(x*x + y*y)))|y=x|dTest=0.0|sd=0.2|sm=0.2|ts=0.05 | generated with FlowLines</title><style>*{fill:none;stroke:#777}</style><g id="SvgjsG2335"><polyline id="SvgjsPolyline2336" points="0,521.08 10.03,571.08 14.99,597.62"   /><polyline id="SvgjsPolyline2337" points="0.39,456.77 4.96,483.38 10,509.91 28.38,598.01"   /><polyline id="SvgjsPolyline2338" points="0.02,582.13 2.82,599.91"   /><polyline id="SvgjsPolyline2339" points="0.1,320.47 2.96,365.38 5.37,395.28 9.12,431.08 13.09,460.82 17.83,490.44 22.78,516.98 28.27,543.42 40.69,599.05"   /><polyline id="SvgjsPolyline2340" points="0.31,140.33 2.95,158.13 5.53,178.97 7.3,196.88 8.87,217.82 10.67,256.78 12.48,337.76 13.7,373.74 15.6,406.68 18.53,439.55 21,460.41 23.51,478.23 29.58,513.71 36.87,548.96 48.35,598.66"   /><polyline id="SvgjsPolyline2341" points="0.47,73.45 7.31,108.8 11.72,135.43 15.58,165.18 18.11,195.07 19.25,219.04 19.81,246.04 19.45,336.04 19.84,372.03 21.26,408 24.06,443.89 26.03,461.78 28.41,479.62 33.79,512.18 40.97,547.46 52.59,597.11"   /><polyline id="SvgjsPolyline2342" points="0.23,9.26 4.45,32.88 16.37,91.69 20.61,115.31 24.77,145.01 27.4,174.9 28.51,201.87 28.64,231.87 28,261.86 25.77,330.83 25.3,372.82 25.55,390.82 26.28,411.81 27.32,429.78 29.06,450.7 32.99,483.47 38.34,516.03 46.25,554.21 56.7,597.98"   /><polyline id="SvgjsPolyline2343" points="11.04,1.5 15.44,25.09 27.13,80.88 31.43,104.49 33.67,119.32 35.48,134.21 36.85,149.15 37.78,164.12 38.43,191.11 37.91,221.1 36.36,254.06 31.95,328.93 30.6,367.91 30.44,388.91 30.79,409.91 31.54,427.89 32.98,448.84 34.72,466.75 36.93,484.62 42.16,517.2 45.6,534.87 50.05,555.39 60.62,599.13"   /><polyline id="SvgjsPolyline2344" points="23.39,2.42 37.24,66.95 42.24,93.48 44.47,108.31 46.23,123.21 47.49,138.16 48.34,156.13 48.41,183.13 47.15,213.1 44.98,243.02 38.3,320.74 35.77,362.66 35.07,386.65 35.04,407.65 35.61,428.64 36.61,446.61 38.12,464.55 40.13,482.43 42.63,500.26 45.6,518.01 49.61,538.62 53.45,556.21 64.13,599.92"   /><polyline id="SvgjsPolyline2345" points="35.17,0.16 47.72,55.77 51.3,73.41 53.86,88.19 55.93,103.04 57.45,117.96 58.41,132.93 58.82,147.92 58.33,174.92 56.35,204.85 53.1,237.69 44.4,315.2 40.84,357.05 39.58,381.01 39.07,402.01 39.13,420.01 39.83,440.99 41,458.96 42.7,476.87 44.93,494.73 47.67,512.52 51.47,533.18 55.83,553.72 66.51,597.43"   /><polyline id="SvgjsPolyline2346" points="47.53,0.59 59.23,50.23 62.25,64.92 64.82,79.7 66.85,94.56 68.47,112.48 69.13,127.47 69.19,142.47 68.22,166.44 65.23,199.31 61.91,226.1 50.47,309.32 48,330.17 45.63,354.05 44.06,374.99 43.06,395.97 42.71,416.97 43.06,437.96 43.96,455.94 45.42,473.88 47.44,491.76 50.49,512.54 54.22,533.21 57.9,550.83 62.65,571.28 69.27,597.45"   /><polyline id="SvgjsPolyline2347" points="59.89,0.78 67.17,29.89 71.22,47.42 74.15,62.13 76.12,73.97 78,88.85 79.2,103.8 79.71,118.79 79.56,133.79 79.02,145.78 77.89,160.73 74.46,190.53 70.04,220.21 56.59,303.12 53.22,326.88 50.67,347.73 48.35,371.61 46.94,392.57 46.19,413.55 46.18,434.55 46.79,452.54 48.25,473.49 50.52,494.36 53.07,512.18 56.72,532.86 60.36,550.49 65.1,570.95 71.76,597.11"   /><polyline id="SvgjsPolyline2348" points="72.26,0.78 79.03,26.92 82.45,41.52 85.4,56.23 87.73,71.05 89.34,85.96 90.07,97.93 90.31,112.93 89.85,127.92 87.87,151.84 83.83,181.56 78.75,211.13 63.33,293.7 58.89,320.33 55.45,344.08 52.63,367.92 50.59,391.83 49.55,412.8 49.27,433.8 49.67,451.79 50.93,472.75 52.68,490.67 55.47,511.48 59.03,532.18 63.26,552.74 67.33,570.28 74.78,599.34"   /><polyline id="SvgjsPolyline2349" points="84.63,0.62 90.81,23.81 94.23,38.41 96.57,50.18 98.86,65.01 100.12,76.94 100.93,91.91 100.92,106.91 100.15,121.89 97.61,145.75 92.85,175.37 87.67,201.87 69.2,289.95 64.21,316.49 60.27,340.16 56.97,363.93 54.44,387.8 52.98,408.74 52.3,429.73 52.46,450.73 53.5,471.7 55.09,489.63 57.74,510.46 61.18,531.18 65.34,551.76 70.82,575.13 76.85,598.36"   /><polyline id="SvgjsPolyline2350" points="97,0.33 102.52,20.59 105.95,35.19 108.71,49.93 110.33,61.82 111.54,76.77 111.84,88.77 111.57,100.76 110.5,115.72 107.43,139.52 101.96,169.02 96.16,195.39 75.78,283.05 70.8,306.53 65.72,333.04 61.84,356.73 58.38,383.5 56.28,407.41 55.3,428.38 55.2,449.38 56,470.36 57.42,488.31 59.9,509.16 63.22,529.89 67.29,550.49 72.72,573.87 79.54,600"   /><polyline id="SvgjsPolyline2351" points="110.19,2.86 114.17,17.32 117.6,31.93 120.27,46.68 121.73,58.59 122.55,70.56 122.72,82.56 122.27,94.55 120.93,109.49 117.86,130.26 112.5,156.72 105.49,185.89 82.56,276.02 76.43,302.31 70.83,328.73 65.97,355.28 62.44,379.02 59.84,402.88 58.43,423.83 57.91,444.82 58.21,462.82 59.45,483.78 61.61,504.67 64.67,525.44 69.15,549.02 73.8,569.49 81.33,598.53"   /><polyline id="SvgjsPolyline2352" points="122.56,2.46 126.54,16.91 129.83,31.55 131.82,43.38 133.13,55.31 133.72,67.29 133.61,79.29 132.83,91.26 131.05,106.15 127.36,126.82 121.24,153.12 90.33,265.96 82.91,295.03 76.1,324.24 71.26,347.75 67.13,371.39 63.89,395.17 61.7,419.07 60.74,440.04 60.83,464.04 61.96,485.01 64.06,505.9 67.08,526.68 71.55,550.26 76.94,573.65 83.81,599.76"   /><polyline id="SvgjsPolyline2353" points="134.93,2.01 138.89,16.48 141.47,28.19 143.38,40.04 144.54,51.98 144.91,63.97 144.5,75.97 143.4,87.91 141.68,99.79 137.54,120.37 131.6,143.62 99.25,252.94 90.43,284.74 82.25,316.71 75.63,345.96 71.11,369.53 67.47,393.25 64.89,417.11 63.61,438.07 63.31,459.07 64.04,480.05 66.11,503.96 68.96,524.76 73.28,548.37 78.58,571.78 85.42,597.9"   /><polyline id="SvgjsPolyline2354" points="147.3,1.55 150.51,13.11 153.12,24.82 154.97,36.67 155.99,48.63 156.18,57.63 155.68,69.61 154.41,81.54 152.48,93.39 147.89,113.87 142.25,134.1 107.71,242.74 97.48,277.26 88.71,309.07 82.14,335.26 75.77,364.57 71.15,391.17 68.16,414.98 66.39,438.91 65.93,459.91 66.53,480.89 68.17,501.83 71.28,525.62 75.57,549.23 80.88,572.64 87.76,598.75"   /><polyline id="SvgjsPolyline2355" points="159.68,1.08 162.86,12.64 164.79,21.43 166.62,33.29 167.37,42.26 167.58,51.26 167.03,63.24 165.61,75.15 163.48,86.96 159.22,104.45 154.12,121.71 147.54,141.65 129.79,192.65 118.31,226.77 105.63,266.81 95.45,301.34 86.88,333.21 80.03,362.41 74.95,388.93 71.2,415.66 69.19,439.58 68.55,460.56 69.01,481.56 70.54,502.5 73.12,523.34 77.23,546.98 83.13,573.32 90.05,599.42"   /><polyline id="SvgjsPolyline2356" points="172.05,0.6 175.22,12.18 177.04,20.99 178.32,29.9 179,38.87 179.07,47.87 178.25,59.83 177.02,68.75 174.68,80.52 170.88,95.03 164.49,115.02 139.51,182.55 127.38,216.45 114.98,253.42 103.32,290.64 93.32,325.22 85.11,357.18 78.89,386.53 74.66,413.19 72.23,437.06 71.24,458.04 71.48,482.03 72.9,502.98 75.4,523.83 79.46,547.48 85.34,573.83 92.29,599.92"   /><polyline id="SvgjsPolyline2357" points="184.44,0.12 187.58,11.7 189.3,20.53 190.39,29.46 190.79,38.45 190.51,47.45 189.59,56.4 188.09,65.27 185.37,76.96 181.07,91.32 174,111.1 148.38,175.16 135.62,208.83 124.64,239.94 114.24,271.26 100.9,314.24 90.44,351.81 83.58,381.01 78.7,407.56 75.66,431.37 74.14,452.31 73.81,476.3 74.99,500.27 77.64,524.12 81.07,544.84 86.79,571.22 93.66,597.33"   /><polyline id="SvgjsPolyline2358" points="197.7,2.72 199.95,11.43 201.55,20.29 202.41,29.25 202.54,35.24 202.1,44.23 200.95,53.15 199.17,61.97 196.89,70.68 192.22,84.93 186.85,98.93 160.72,159.54 148.18,190.06 137.51,218.1 125.51,252.04 110.53,297.64 97.53,340.72 92.79,358.09 88.46,375.56 85.23,390.21 82.42,404.94 78.94,428.68 76.86,452.59 76.31,476.58 77.12,497.56 79.48,521.44 83.24,545.14 88.23,568.61 95.82,597.64"   /><polyline id="SvgjsPolyline2359" points="210.1,2.46 212.35,11.17 213.42,17.08 214.12,23.03 214.42,32.03 214.13,38.02 212.99,46.94 211.12,55.74 208.66,64.4 203.61,78.52 197.79,92.34 171.08,149.4 160.11,174.07 148.72,201.82 136.09,235.53 119.56,283.78 110.33,312.32 102.4,338.13 92.81,372.83 88.68,390.35 85.69,405.05 81.91,428.74 79.57,452.63 78.98,464.61 78.79,476.61 79.44,497.6 81.66,521.49 85.33,545.2 90.28,568.68 97.88,597.7"   /><polyline id="SvgjsPolyline2360" points="222.5,2.18 224.79,10.88 225.81,16.79 226.37,22.77 226.47,28.76 226.1,34.75 225.29,40.69 224.09,46.57 221.68,55.24 216.44,69.29 210.27,82.96 181.69,139.1 168.74,166.16 156.78,193.68 147.92,215.98 138.57,241.31 127.75,272.48 108.19,332.37 97.24,369.8 92.81,387.24 88.94,404.82 84.87,428.47 82.24,452.32 81.52,464.3 81.22,476.29 81.68,497.29 82.51,509.26 83.74,521.19 87.31,544.92 92.88,571.34 99.78,597.44"   /><polyline id="SvgjsPolyline2361" points="234.91,1.82 236.62,7.56 237.87,13.43 238.59,19.39 238.74,25.38 238.32,31.37 237.38,37.29 235.99,43.12 234.21,48.85 229.79,60.01 223.25,73.5 192.61,128.55 178.76,155.16 166.05,182.33 155.6,207.22 147,229.63 138.87,252.21 128.16,283.42 114.96,323.29 101.72,366.3 97,383.67 92.81,401.17 89.81,415.87 87.78,427.7 84.85,451.51 83.98,463.48 83.54,475.47 83.53,487.47 83.94,499.46 86.01,523.37 89.62,547.09 95.27,573.49 102.26,599.57"   /><polyline id="SvgjsPolyline2362" points="247.32,1.25 249.23,6.93 250.58,12.77 251.35,21.73 250.51,30.68 249.16,36.52 247.31,42.23 243.84,50.53 236.91,63.83 229.25,76.73 205.53,114.97 190.56,140.96 176.83,167.63 164.45,194.95 156.52,214.4 148.06,236.86 139.06,262.31 126.53,299.25 115.22,333.42 107.1,359.17 101.25,379.34 96.73,396.76 93.43,411.4 91.15,423.18 87.68,446.92 86.33,461.86 85.73,473.84 85.57,485.84 85.84,497.84 86.55,509.81 87.67,521.76 91.1,545.51 93.35,557.3 96.61,571.94 103.54,598.03"   /><polyline id="SvgjsPolyline2363" points="259.7,0.24 262.99,8.6 264.27,14.46 264.57,17.45 264.41,23.44 263.96,26.4 261.45,35.03 257.72,43.22 250.11,56.14 217.86,103.13 208.04,118.22 200.2,131 192.69,143.99 185.56,157.19 177.5,173.28 171.2,186.89 164.1,203.43 157.44,220.16 149.11,242.66 141.19,265.32 112.68,350.68 105.64,373.62 100.05,393.87 96.53,408.45 93.48,423.13 89.8,446.84 88.57,458.78 87.76,470.75 87.41,482.75 87.49,494.75 88.02,506.73 88.98,518.69 90.36,530.61 92.63,545.44 94.86,557.23 98.1,571.88 105.03,597.97"   /><polyline id="SvgjsPolyline2364" points="273.32,1.65 276.22,6.9 277.39,9.66 278.85,15.47 279,18.46 278.08,24.37 277.12,27.21 274.54,32.63 269.76,40.25 264.48,47.54 240.37,78.19 227.69,94.93 217.25,109.59 208.92,122.06 197.89,139.93 189.07,155.62 179.53,174.33 170.76,193.41 159.43,221.18 146.18,257.86 116.52,346.01 110.14,366.01 104.19,386.15 100.34,400.65 96.93,415.26 94.03,429.97 92.13,441.82 90.64,453.73 89.58,465.68 88.88,480.66 88.83,492.66 89.23,504.65 90.35,519.61 93.5,543.4 95.64,555.2 98.8,569.87 102.43,584.42 106.46,598.87"   /><polyline id="SvgjsPolyline2365" points="287.07,1.77 294.36,7.02 297.1,8.23 300.05,8.71 302.99,8.2 305.72,6.97 313.01,1.71"   /><polyline id="SvgjsPolyline2366" points="282.9,0.97 288.93,7.65 290.68,10.08 291.82,12.85 291.83,15.83 290.17,21.58 288.79,24.24 285.34,29.15 281.54,33.79 255.72,63.01 242.18,79.07 231.01,93.18 220.3,107.65 208.49,125.01 197.47,142.89 185.9,163.91 176.66,182.77 164.78,210.31 158.28,227.09 151.12,246.84 119.39,340.61 106.75,380.66 101.95,398.01 99.08,409.66 95.92,424.32 93.33,439.1 91.37,453.97 90.28,465.92 89.64,477.9 89.46,489.9 89.73,501.89 90.7,516.86 91.96,528.79 94.1,543.64 96.25,555.45 99.41,570.11 103.04,584.66 107.07,599.11"   /><polyline id="SvgjsPolyline2367" points="495.22,597.8 499.88,580.41 503.3,565.81 505.69,554.05 508.18,539.26 510.07,524.38 511.11,512.42 511.72,500.44 511.85,485.44 511.27,470.45 510.29,458.49 508.89,446.58 506.55,431.76 504.25,419.99 500.9,405.37 497.1,390.85 492.08,373.57 476.34,325.06 449.27,245.54 436.55,211.87 430.77,198.03 423.36,181.63 413.98,162.84 403.77,144.49 391.08,124.12 379.13,106.85 364.6,87.76 351.21,71.58 335.27,53.64 310.65,27.38 308.71,25.09 307.12,22.55 306.42,16.64 307.3,13.79 310.66,8.83 316.61,2.08"   /><polyline id="SvgjsPolyline2368" points="510.79,467.57 509.7,455.62 508.17,443.71 503.92,420.1 497.54,393.87 489.05,365.1 458.7,274.02 444.8,234.39 438.4,217.57 431.57,200.91 424.24,184.47 417.7,170.97 410.73,157.69 403.34,144.64 395.51,131.85 385.55,116.85 376.81,104.67 365.82,90.41 356.27,78.85 344.36,65.35 334.04,54.46 325.47,46.07 318.72,40.11 311.36,34.95 308.65,33.68 305.77,32.84 302.79,32.59 299.81,32.91 294.02,34.49 291.26,35.65 286.09,38.69 281.26,42.25 274.41,48.08 259.43,62.78 243.36,80.61 230.1,96.89 217.6,113.77 205.92,131.21 195.08,149.2 186.49,165.01 178.52,181.15 171.14,197.57 162.11,219.81 148.85,256.48 119.15,344.61 111.77,367.44 106.57,384.68 102.59,399.14 99.03,413.71 95.98,428.4 93.51,443.19 91.68,458.08 90.54,473.03 90.11,488.02 90.4,503.02 91.39,517.99 93.06,532.89 95.36,547.71 98.87,565.37 102.36,579.96 107.1,597.32"   /><polyline id="SvgjsPolyline2369" points="482.87,597.35 488.31,577.07 492.17,559.49 495.12,541.74 497.05,523.84 497.88,505.87 497.69,490.87 496.68,475.9 494.42,458.05 492.32,446.23 489.79,434.51 486.08,419.97 481.87,405.58 476.33,388.45 451.82,317.57 431.38,251.67 422.84,226.06 416.48,209.22 410.64,195.4 404.23,181.84 398.65,171.22 391.07,158.28 384.5,148.24 375.61,136.16 367.94,126.93 359.72,118.19 350.92,110.04 341.47,102.65 333.92,97.75 325.95,93.59 317.56,90.35 308.81,88.28 299.84,87.58 290.89,88.33 282.14,90.45 273.77,93.72 265.81,97.91 258.27,102.83 248.84,110.24 240.06,118.41 231.86,127.17 224.19,136.4 215.32,148.49 208.76,158.54 201.2,171.49 194.3,184.81 188.02,198.43 182.3,212.3 177.06,226.35 169.43,249.11 148.08,317.86 125.5,383.07 118.04,405.88 113.84,420.27 110.14,434.81 107.62,446.54 105.53,458.36 103.29,476.21 102.3,491.18 102.19,509.18 103.22,527.14 105.35,545.01 107.89,559.8 111.76,577.37 117.24,597.65"   /><polyline id="SvgjsPolyline2370" points="507.57,598.19 515.18,569.17 520.26,545.72 523.78,525.02 526.57,501.18 527.85,480.22 527.92,456.23 526.52,432.27 524.15,411.41 519.72,384.78 513.3,355.47 505.73,326.45 493.89,286.15 481.1,246.15 468.44,209.26 458.14,181.09 439.93,133.45 431.66,110.92 426.07,93.81 422.13,79.34 419.69,67.59 418.39,58.69 417.63,49.72 417.46,40.72 417.92,31.74 419.01,22.8 420.68,13.96 423.71,2.35"   /><polyline id="SvgjsPolyline2371" points="501.98,597.88 508.77,571.75 514.25,545.31 517.73,521.57 519.71,497.65 520.09,485.66 520.07,473.66 519.03,452.69 516.35,428.85 512.23,405.2 508.34,387.63 503.94,370.18 493.11,332.71 484.96,306.97 472.69,269.95 455.66,221.88 445.86,196.73 434.09,169.13 421.39,141.96 393.39,85.52 387.34,71.8 382.17,57.72 380.49,51.96 378.52,43.18 377.37,34.26 377.13,28.26 377.34,22.27 377.99,16.31 379.06,10.4 381.38,1.71"   /><polyline id="SvgjsPolyline2372" points="498.67,599.01 505.51,572.89 510.97,546.46 513.27,531.64 514.69,519.72 515.71,507.76 516.31,495.78 516.49,483.78 516.23,471.79 515.54,459.81 514.44,447.86 511.03,424.1 508.17,409.38 505.53,397.68 500.28,377.34 494.42,357.18 477.88,305.77 457.48,246.17 448.1,220.85 439.15,198.58 426.92,171.19 414.82,147.06 400.27,120.83 369.84,69.12 364.31,58.47 359.51,47.47 357.54,41.81 355.97,36.02 354.9,30.12 354.41,24.14 354.56,18.14 355.35,12.2 356.73,6.36 358.6,0.66"   /><polyline id="SvgjsPolyline2373" points="497.08,597.5 503.84,571.37 506.41,559.65 509.15,544.9 512.35,521.12 513.34,509.16 513.98,494.17 513.99,482.17 513.57,470.18 512.7,458.22 511.4,446.29 509.21,431.45 507.03,419.65 500.94,393.35 494.46,370.24 487.33,347.32 460.69,267.66 452.76,245.01 444.42,222.51 437.76,205.78 430.66,189.24 424.37,175.63 417.71,162.19 410.67,148.94 403.27,135.9 387.45,110.41 352.2,58.2 344.78,45.17 340.99,37.01 338.3,28.43 337.42,22.5 337.32,19.5 337.45,16.51 338.42,10.59 341.3,2.07"   /><polyline id="SvgjsPolyline2374" points="495.74,598.28 499.67,583.81 503.21,569.23 506.27,554.55 508.34,542.73 510.03,530.85 511.58,515.93 512.35,503.95 512.67,491.96 512.54,479.96 511.97,467.97 510.95,456.02 509.07,441.14 504.79,417.53 502.13,405.83 497.61,388.4 491.71,368.25 483.5,342.53 452.76,251.58 444.57,229.02 438.05,212.25 431.1,195.65 423.64,179.27 415.62,163.15 408.49,149.95 399.4,134.42 391.4,121.73 381.31,106.82 370.77,92.24 336.1,46.99 331.15,39.48 327.12,31.45 324.81,22.76 324.46,16.79 324.82,13.81 326.49,8.06 330.54,0.03"   /><polyline id="SvgjsPolyline2375" points="490.25,599.62 495.7,579.34 500.24,558.84 503.24,541.09 505.33,523.21 506.4,505.25 506.41,487.25 505.34,469.29 503.21,451.41 500.68,436.63 497.53,421.96 493.86,407.42 488.88,390.13 479.68,361.57 437.48,236.5 430.09,216.85 423.21,200.21 417,186.56 408.9,170.48 400.05,154.82 392.06,142.12 383.48,129.82 374.3,117.96 364.47,106.63 351.81,93.84 342.78,85.94 333.13,78.82 325.41,74.2 317.21,70.49 308.56,68.04 299.62,67.22 290.68,68.19 282.07,70.76 273.92,74.57 266.23,79.24 256.63,86.43 245.47,96.45 235.1,107.28 225.42,118.74 216.37,130.7 207.93,143.09 200.06,155.86 191.35,171.61 184.68,185.05 177.32,201.47 171.66,215.36 164.33,235.04 156.54,257.74 138.7,311.88 120.34,365.84 113,388.69 107.99,405.98 104.29,420.51 101.11,435.17 98.56,449.95 96.4,467.82 95.3,485.78 95.3,503.78 96.36,521.75 98.45,539.62 101.47,557.37 106.04,577.86 111.55,598.12"   /><polyline id="SvgjsPolyline2376" points="493.57,597.14 498.92,576.84 502.81,559.26 505.92,541.54 508.42,520.69 509.51,502.72 509.57,484.73 508.58,466.76 506.57,448.87 504.17,434.07 500.49,416.45 496.08,399 491.11,381.7 480.1,347.42 452.35,264.97 443.46,239.47 436.1,219.81 428.14,200.37 420.73,183.97 412.69,167.87 403.98,152.12 396.19,139.3 387.91,126.79 377.32,112.24 366,98.25 355.98,87.09 345.34,76.51 333.91,66.81 323.96,60.13 318.68,57.28 313.2,54.83 307.46,53.1 304.51,52.58 298.52,52.3 295.54,52.57 289.68,53.85 281.36,57.26 273.62,61.84 264.02,69.03 252.86,79.04 242.41,89.8 230.63,103.41 219.61,117.64 210.98,129.91 201.29,145.08 192.32,160.68 185.38,173.98 177.66,190.23 170.55,206.77 163.95,223.52 155.78,246.08 120.31,351.26 109.39,385.56 104.52,402.89 100.28,420.38 97.33,435.09 94.99,449.9 93.08,467.8 92.21,485.78 92.39,503.77 93.6,521.73 95.8,539.59 98.9,557.32 103.51,577.81 109.02,598.07"   /><polyline id="SvgjsPolyline2377" points="469.7,599.74 474.47,582.39 477.8,567.76 480.41,552.99 482.47,535.12 483.23,520.14 483.06,505.14 481.95,490.18 479.93,475.32 475.65,454.77 472.54,443.18 469.03,431.7 462.16,411.86 442.12,358.5 437.31,344.3 432.9,329.96 426.01,303.85 413.13,248.33 408.35,230.98 403.74,216.71 399.56,205.46 394.88,194.41 389.67,183.6 383.89,173.09 377.5,162.93 372.29,155.59 364.78,146.24 358.68,139.62 352.18,133.4 345.26,127.65 337.89,122.49 330.07,118.05 321.81,114.47 316.09,112.67 307.27,110.95 301.28,110.52 295.29,110.69 286.4,112.05 280.62,113.64 272.24,116.93 264.3,121.15 256.8,126.12 249.75,131.71 243.13,137.8 236.92,144.32 229.26,153.55 223.95,160.81 217.43,170.88 211.52,181.33 206.18,192.07 201.4,203.08 197.11,214.29 192.4,228.52 187.51,245.85 173.17,307.19 166.13,333.25 161.62,347.56 156.73,361.74 138.73,409.45 131.76,429.26 124.98,452.28 122.23,463.96 120.51,472.8 118.33,487.63 117.06,502.58 116.73,517.57 117.34,532.56 118.83,547.48 121.14,562.3 124.91,579.9 129.61,597.27"   /><polyline id="SvgjsPolyline2378" points="519.94,598.52 526.74,572.39 532.11,549 536.11,528.38 539.34,507.63 541.71,486.77 543.16,465.82 543.69,444.83 543.3,423.83 542.04,402.87 539.62,379 536.29,355.23 531.66,328.63 526.3,302.17 521.09,278.74 499.93,191.27 493.9,164.95 488.7,138.46 485.31,114.7 484.05,99.76 483.63,87.76 483.79,75.77 484.86,60.81 486.87,45.94 489.1,34.15 492.51,19.55 497.25,2.19"   /><polyline id="SvgjsPolyline2379" points="514.88,598.6 521.65,572.46 526.87,549.03 530.63,528.37 533.84,504.59 535.6,483.67 536.35,462.68 536.05,441.69 534.76,420.73 532.13,396.88 527.9,370.21 522.55,343.75 515.71,314.54 507.33,282.62 498.33,250.87 470.31,159.06 464.42,138.9 458.41,115.67 454.78,98.04 452.97,86.18 451.78,74.24 451.32,62.25 451.66,50.26 452.8,38.31 454.73,26.47 457.35,14.76 461.38,0.31"   /><polyline id="SvgjsPolyline2380" points="511.89,599.06 519.39,570.01 524.46,546.56 528.03,525.87 530.95,502.05 532.51,478.1 532.73,457.1 531.86,436.12 529.97,415.21 526.65,391.44 521.67,364.91 514.92,335.68 507.25,306.68 497.22,272.11 485.62,234.87 450.28,129.65 443.53,106.62 439.34,89.12 437.22,77.31 435.8,65.39 435.28,56.41 435.38,44.41 436.42,32.46 437.81,23.57 440.37,11.85 443.61,0.3"   /><polyline id="SvgjsPolyline2381" points="505.47,599.51 513.01,570.48 517.98,547 521.75,523.3 523.9,502.42 524.91,481.44 524.59,457.45 522.74,433.52 519.46,409.75 516.77,395 513.64,380.33 509.42,362.83 504.77,345.44 491.92,302.32 476.07,253.84 465.12,222.71 455.63,197.44 443.28,166.84 415.11,100.57 408.79,83.73 404.33,69.41 402.19,60.67 400.58,51.81 399.6,42.87 399.34,33.87 399.59,27.88 400.6,18.94 402.33,10.11 404.68,1.42"   /><polyline id="SvgjsPolyline2382" points="457.38,599.15 461.37,584.69 464.63,570.05 467.03,555.24 468.27,543.31 468.87,531.33 468.66,516.33 467.71,504.37 466.09,492.48 464.44,483.63 461.71,471.95 455.63,451.86 448.3,432.18 432.13,393.42 426.62,379.46 420.69,362.47 416.52,348.06 413.14,333.45 410.48,318.69 403.91,268.12 401.12,250.34 397.45,232.72 392.6,215.39 389.66,206.88 385.18,195.75 380,184.93 375.65,177.05 370.87,169.43 365.67,162.09 360.01,155.09 353.89,148.49 347.3,142.37 340.21,136.83 332.63,131.98 327.31,129.22 318.95,125.9 313.16,124.32 307.25,123.29 301.27,122.86 295.28,123.04 289.33,123.82 283.49,125.17 275.01,128.18 266.97,132.21 261.88,135.38 254.65,140.74 247.92,146.71 241.67,153.18 235.88,160.08 230.55,167.32 225.66,174.87 221.18,182.68 215.86,193.44 211.23,204.51 208.2,212.98 203.16,230.25 199.33,247.84 196.44,265.6 189.45,319.15 186.77,333.9 183.36,348.51 179.17,362.91 174.27,377.09 168.83,391.06 152.65,429.82 145.2,449.45 138.95,469.5 136.09,481.15 134.34,489.98 132.57,501.85 131.32,516.79 131.09,528.79 131.76,543.77 133.44,558.67 135.46,570.5 138.74,585.13 142.78,599.58"   /><polyline id="SvgjsPolyline2383" points="532.31,598.74 538.92,572.56 543.7,552.11 547.43,534.51 550.74,516.81 553.14,502.01 555.9,481.19 557.69,463.28 559.09,442.33 559.71,424.34 559.79,403.34 559.22,382.35 557.88,358.39 556.19,337.45 553.8,313.57 544.17,233.15 541,203.32 538.78,173.4 538.08,146.41 538.38,131.42 539.25,116.44 540.69,101.52 542.71,86.65 545.24,71.87 548.19,57.16 560.87,1.59"   /><polyline id="SvgjsPolyline2384" points="526.79,599.52 533.45,573.35 537.53,555.82 541.79,535.26 545.39,514.57 548.24,493.77 550.05,475.86 551.24,457.9 551.87,436.91 551.68,415.91 550.73,394.93 548.8,371.01 546.09,347.17 543.2,326.37 538.98,299.7 523.55,214.08 518.62,184.49 514.7,154.75 512.78,130.83 512.33,115.84 512.57,100.84 513.54,85.87 515.26,70.97 517.67,56.17 520.67,41.47 530.83,0.72"   /><polyline id="SvgjsPolyline2385" points="524.26,597.79 529.5,577.45 534.96,554.09 539.11,533.5 542.56,512.79 544.88,494.94 546.79,474.03 547.83,453.05 547.99,432.06 547.3,411.07 545.55,387.13 542.89,363.28 539.47,339.53 535.97,318.82 530.94,292.3 512.94,207.18 507.11,177.75 502.32,148.14 500.5,133.25 499.41,121.3 498.65,106.32 498.64,91.32 499.47,76.35 500.74,64.42 503.05,49.6 506.05,34.9 509.58,20.32 515.03,0.04"   /><polyline id="SvgjsPolyline2386" points="518.05,598.81 524.8,572.67 529.45,552.19 533.91,528.61 536.94,507.83 539.06,486.94 540.21,465.97 540.39,444.98 539.6,423.99 537.9,403.06 534.95,379.25 530.53,352.61 525.18,326.15 519.13,299.84 511.82,270.74 481.29,157.8 474.64,128.55 472.41,116.75 470.58,104.89 468.99,89.98 468.38,78 468.42,66 469.17,54.03 470.62,42.12 472.71,30.3 476.11,15.69 480.14,1.24"   /><polyline id="SvgjsPolyline2387" points="445.08,598.55 448.26,586.98 450.89,575.27 452.88,563.44 454.19,551.51 454.76,539.53 454.56,527.53 453.57,515.57 452.32,506.66 449.99,494.89 447.77,486.17 444.26,474.7 441.25,466.22 432.03,444.06 415.48,408.75 409.49,394.99 403.28,378.11 399.26,363.66 396.51,348.92 394.76,331.01 394.26,316.02 393.99,277.02 393.48,265.03 392.53,253.07 391.45,244.14 389.46,232.3 386.77,220.61 384.28,211.96 381.34,203.46 377.95,195.12 374.1,186.99 369.77,179.1 364.95,171.5 359.63,164.24 353.8,157.39 349.62,153.08 345.21,149.02 338.13,143.47 330.52,138.67 325.16,135.98 316.73,132.84 310.91,131.42 304.97,130.59 298.97,130.39 292.99,130.81 287.08,131.84 281.31,133.46 272.98,136.86 267.69,139.69 260.2,144.68 255.51,148.41 248.92,154.53 244.82,158.91 239.11,165.87 233.9,173.21 229.2,180.88 224.98,188.83 221.23,197.01 217.95,205.39 215.11,213.93 212.71,222.6 210.16,234.32 208.69,243.2 207.27,255.12 206.4,267.08 205.96,279.08 205.76,315.07 205.29,330.07 203.62,347.98 200.95,362.74 197.01,377.21 190.86,394.12 183.66,410.62 167.13,445.94 162.39,456.96 158.04,468.14 154.19,479.51 151.69,488.15 148.94,499.83 147.36,508.69 146.2,517.62 145.35,529.58 145.28,541.58 145.98,553.56 147.41,565.47 148.93,574.34 151.52,586.06 154.68,597.63"   /><polyline id="SvgjsPolyline2388" points="544.68,598.83 556.41,549.2 563.06,516.87 568.95,481.36 572.9,448.6 575.47,415.7 576.42,394.73 576.92,373.73 576.92,337.73 575.42,265.75 575.09,235.75 575.5,205.76 576.63,181.78 579.27,151.9 583.36,122.19 588.09,95.61 599.81,36.76"   /><polyline id="SvgjsPolyline2389" points="539.44,597.55 550.56,550.86 557.59,515.56 560.5,497.79 562.95,479.96 564.63,465.06 566.2,447.13 567.3,429.16 567.94,411.17 568.15,390.17 567.84,369.18 566,327.22 560.49,246.41 559.01,219.45 558.2,189.46 558.73,159.47 560.68,132.54 562.41,117.64 564.58,102.8 568.84,79.18 580.05,26.36 584.62,2.8"   /><polyline id="SvgjsPolyline2390" points="530.19,598.12 536.07,574.85 540.84,554.4 545.1,533.84 548.26,516.12 550.91,498.31 553.01,480.44 554.74,459.51 555.59,441.53 555.86,420.53 555.41,399.54 554.28,378.57 552.28,354.65 549.64,330.8 546.51,307 534,223.94 530,194.21 527.06,164.36 525.8,137.39 525.8,122.39 526.42,107.41 527.7,92.46 529.63,77.59 532.15,62.8 535.8,45.18 546.34,1.43"   /><polyline id="SvgjsPolyline2391" points="536.14,597.67 542.63,571.47 547.33,551 551.01,533.38 554.28,515.68 557.1,497.9 559.43,480.05 561.25,462.15 562.56,444.19 563.26,429.21 563.67,408.22 563.46,387.22 562.7,366.23 561.48,345.27 559.63,321.34 551.9,240.71 549.49,210.81 548.06,180.84 548.06,153.85 548.72,138.86 549.9,123.91 551.61,109.01 554.27,91.21 559.27,64.68 573.28,0.18"   /><polyline id="SvgjsPolyline2392" points="432.8,597.97 435.87,586.37 438.3,574.62 439.96,562.74 440.67,553.77 440.87,541.77 440.43,532.78 439.06,520.86 436.81,509.08 433.73,497.48 430.93,488.93 427.75,480.51 423,469.49 415.05,453.34 395.22,416.32 387.65,400 384.46,391.58 381.83,382.98 379.86,374.2 378.94,368.27 378.04,356.31 378.43,341.32 379.95,326.4 384.93,287.72 385.88,275.76 386.28,263.77 385.86,248.78 384.67,236.84 382.66,225.01 379.79,213.36 377.05,204.79 373.79,196.4 367.2,182.94 362.52,175.25 357.3,167.92 351.52,161.02 347.35,156.71 342.93,152.66 335.81,147.16 330.74,143.95 325.43,141.15 317.06,137.87 311.25,136.37 305.32,135.48 299.33,135.23 293.35,135.63 287.44,136.66 281.67,138.29 273.36,141.74 268.11,144.63 263.1,147.93 256.06,153.54 251.7,157.65 247.58,162.02 241.89,168.98 236.75,176.37 232.15,184.11 225.69,197.63 222.51,206.05 219.85,214.65 217.08,226.32 215.16,238.16 214.06,250.11 213.71,262.1 214.03,274.1 214.91,286.06 220.21,327.73 221.66,342.65 221.92,357.65 220.88,369.6 219.28,378.45 217.82,384.27 215.1,392.84 211.84,401.23 205.53,414.84 184.33,454.53 176.45,470.71 171.76,481.75 168.63,490.19 165.89,498.76 163.57,507.46 161.2,519.22 159.71,531.12 159.11,543.11 159.25,552.1 160.18,564.07 161.94,575.93 164.44,587.67 167.63,599.23"   /><polyline id="SvgjsPolyline2393" points="557.05,598.74 569.58,543.14 576.2,510.81 582.38,475.34 586.94,442.66 590.18,412.84 592.87,379.95 594.54,353 597.78,287.08 599.89,251.14"   /><polyline id="SvgjsPolyline2394" points="551.24,598.55 563.33,545.92 570.43,510.63 576.24,475.1 580.28,442.35 583.32,406.48 585.01,373.53 585.82,346.54 587.23,262.55 588.12,235.57 589.05,217.59 590.58,196.65 592.65,175.75 595.74,151.95 599.53,128.25"   /><polyline id="SvgjsPolyline2395" points="549.44,597.62 560.3,550.87 567.53,515.61 570.67,497.88 573.87,477.13 577.83,444.37 580.34,414.47 582.21,375.52 582.91,336.53 583.25,258.53 583.9,231.54 584.87,210.56 586.65,186.63 589.6,159.79 593.56,133.09 599.43,100.61"   /><polyline id="SvgjsPolyline2396" points="542.02,599.85 552.47,556.08 560.32,517.88 565.57,485.3 569.35,452.52 570.78,434.58 571.9,413.61 572.58,377.62 571.81,335.63 568.45,257.7 567.55,227.72 567.51,197.72 568.57,170.74 569.69,155.78 571.23,140.86 575.5,111.17 579.86,87.57 591.86,28.78 596.48,2.18"   /><polyline id="SvgjsPolyline2397" points="420.52,597.42 423.49,585.79 425.67,574 426.94,562.07 427.26,553.07 426.8,541.09 425.78,532.15 423.54,520.36 421.23,511.66 418.41,503.12 415.13,494.74 411.44,486.53 405.97,475.85 396.89,460.31 374.24,424.94 366.88,411.88 363.1,403.71 360.97,398.1 358.56,389.44 357.55,383.53 357.08,377.55 357.12,371.55 357.62,365.57 359.1,356.7 361.98,345.05 370.74,316.36 374.78,301.91 378.07,287.28 380.36,272.46 381.45,257.5 381.19,242.51 379.49,227.61 376.28,212.97 373.61,204.38 370.37,195.98 366.56,187.83 363.7,182.56 360.58,177.43 355.41,170.07 349.65,163.16 345.47,158.85 338.69,152.93 333.84,149.41 328.73,146.28 323.36,143.59 317.77,141.42 312,139.81 306.08,138.81 300.09,138.47 294.11,138.79 288.19,139.76 282.41,141.36 274.09,144.79 268.84,147.69 263.85,151.02 259.12,154.71 252.54,160.84 246.56,167.56 242.91,172.32 239.52,177.27 234.93,185.01 232.19,190.35 228.56,198.58 225.5,207.04 223,215.69 220.54,227.43 218.82,242.32 218.55,257.32 219.62,272.27 221.9,287.1 225.18,301.73 229.21,316.18 237.97,344.87 240.86,356.51 242.36,365.38 242.88,371.36 242.93,377.36 242.47,383.34 241.48,389.26 239.09,397.93 236.97,403.54 233.2,411.71 225.86,424.78 203.21,460.15 194.12,475.69 188.64,486.36 184.94,494.57 181.65,502.94 178.83,511.48 175.84,523.11 174.25,531.96 173,543.89 172.74,552.89 173.27,564.87 174.31,573.81 176.47,585.61 179.47,597.23"   /><polyline id="SvgjsPolyline2398" points="428.32,597.49 431.21,585.85 433.32,574.04 434.59,562.11 434.95,553.11 434.78,544.12 433.71,532.17 432.29,523.28 429.57,511.6 426.97,502.98 423.92,494.51 420.48,486.2 415.36,475.35 406.83,459.5 387.09,425.87 378.84,409.87 374.25,398.79 372.28,393.12 369.94,384.44 368.86,378.53 368.19,372.57 367.93,363.58 368.21,357.59 369.17,348.64 371.19,336.81 377.51,307.49 380.31,292.75 382.38,277.9 383.34,265.94 383.5,250.94 382.7,238.97 380.47,224.14 377.64,212.49 374.9,203.92 371.61,195.54 367.77,187.4 364.9,182.13 361.79,177 356.63,169.63 352.88,164.95 346.76,158.36 340.04,152.37 335.23,148.78 330.17,145.57 324.85,142.79 319.31,140.49 310.65,138.09 304.71,137.25 298.72,137.06 292.74,137.53 286.84,138.64 281.09,140.35 272.84,143.92 267.63,146.9 262.68,150.28 257.98,154.01 251.44,160.18 247.4,164.62 241.84,171.69 238.45,176.64 233.84,184.37 229.79,192.41 226.29,200.7 221.68,214.96 219.05,226.67 217.06,241.53 216.44,253.51 216.81,268.5 217.91,280.45 220.12,295.28 228.73,336.39 230.77,348.21 231.76,357.16 232.06,363.15 231.84,372.14 231.2,378.11 229.48,386.94 227.85,392.71 225.9,398.38 222.44,406.69 214.24,422.71 194.55,456.37 184.69,474.91 179.69,485.82 176.35,494.17 173.42,502.68 170.94,511.33 168.95,520.11 167.11,531.96 166.22,543.93 166.19,552.93 166.95,564.9 168.11,573.82 170.38,585.6 173.42,597.21"   /><polyline id="SvgjsPolyline2399" points="569.41,598.45 583.76,530.96 589.07,504.49 594.95,472.02 599.61,442.38"   /><polyline id="SvgjsPolyline2400" points="586.65,442.57 590.05,409.75 592.55,376.85 597.64,274.97 599.99,239.05"   /><polyline id="SvgjsPolyline2401" points="407.45,599.81 410.46,588.2 412.62,576.39 413.72,564.45 413.8,555.45 413.22,546.47 411.43,534.61 408.5,522.98 404.51,511.67 400.89,503.43 395.33,492.79 389.07,482.56 382.25,472.69 369.31,456.15 340.07,421.95 332.88,412.35 329.7,407.26 327.06,401.88 325.28,396.16 324.85,393.19 324.76,390.19 325.58,384.26 326.4,381.38 328.62,375.8 332.77,367.82 349.88,339.61 358.54,323.83 363.69,312.99 367.13,304.68 370.18,296.21 372.8,287.6 374.94,278.86 376.59,270.02 377.7,261.09 378.27,252.11 378.27,243.11 377.69,234.13 376.52,225.21 374.75,216.38 372.38,207.7 369.41,199.21 367.09,193.67 363.11,185.61 358.51,177.87 355.11,172.93 349.48,165.92 345.37,161.54 338.69,155.51 333.89,151.92 328.81,148.72 323.48,145.98 317.91,143.75 312.15,142.09 306.24,141.06 300.26,140.7 294.27,141.01 288.35,141.98 282.57,143.59 276.98,145.77 271.63,148.47 266.53,151.63 261.71,155.19 254.99,161.18 250.86,165.53 245.2,172.52 241.77,177.44 237.14,185.16 234.39,190.49 230.78,198.73 227.77,207.21 225.37,215.89 223.57,224.7 222.36,233.62 221.75,242.6 221.71,251.59 222.25,260.58 223.33,269.51 225.6,281.29 227.88,290 230.62,298.57 233.78,306.99 241.23,323.37 248.36,336.57 265.47,364.78 271.17,375.34 274.3,383.77 275.22,389.68 275.19,392.68 274.82,395.66 273.13,401.41 270.55,406.81 267.41,411.92 258.36,423.88 227.21,460.4 216.3,474.71 209.58,484.65 204.92,492.35 199.33,502.97 195.68,511.19 191.65,522.49 188.67,534.11 187.18,542.98 186.22,554.94 186.26,563.94 187.31,575.89 189.42,587.7 192.52,599.29"   /><polyline id="SvgjsPolyline2402" points="416.28,598.19 419.11,586.53 421.04,574.69 421.84,565.72 421.99,553.73 421.39,544.75 419.63,532.88 417.62,524.11 414.05,512.66 410.77,504.28 407.02,496.1 402.88,488.11 396.82,477.76 386.88,462.75 360.55,426.26 352.55,413.58 348.5,405.54 346.31,399.96 344.68,394.19 343.73,388.27 343.53,382.27 344.03,376.3 345.14,370.4 346.72,364.62 350.77,353.32 362.47,325.7 367.92,311.73 373.41,294.59 376.83,279.99 378.29,271.11 379.26,262.16 379.74,247.18 379.31,238.19 378.32,229.25 375.39,214.54 373.77,208.77 370.85,200.25 367.34,191.97 363.24,183.96 358.54,176.29 355.07,171.39 349.36,164.44 345.2,160.11 340.78,156.06 333.62,150.62 328.51,147.47 323.15,144.78 317.56,142.6 311.78,141 305.87,140.01 299.88,139.69 293.89,140.04 287.98,141.05 282.21,142.68 276.63,144.88 271.28,147.59 266.18,150.75 261.35,154.31 254.63,160.28 250.48,164.62 244.79,171.58 239.7,179.01 236.65,184.17 232.56,192.19 230.17,197.69 227.07,206.13 224.55,214.77 221.65,229.48 220.33,244.42 220.54,259.41 221.36,268.37 222.68,277.27 225.88,291.92 231.16,309.13 236.48,323.15 249.32,353.55 253.35,364.85 254.91,370.64 256,376.54 256.48,382.51 256.24,388.51 255.27,394.42 253.61,400.19 251.41,405.76 247.33,413.78 239.32,426.46 214.72,460.5 203.22,478.07 197.31,488.51 193.29,496.56 189.69,504.81 186.57,513.25 183.24,524.77 181.42,533.59 179.93,545.49 179.54,554.48 179.95,566.47 180.95,575.41 183.13,587.21 186.21,598.8"   /><polyline id="SvgjsPolyline2403" points="581.77,597.93 599.94,506.72"   /><polyline id="SvgjsPolyline2404" points="395.2,599.11 398.17,587.49 400.03,575.64 400.63,563.66 399.89,551.69 397.8,539.88 394.4,528.38 389.8,517.3 384.13,506.73 375.77,494.28 366.24,482.71 355.73,472.01 344.36,462.24 337.11,456.9 332.09,453.62 321.52,447.94 315.96,445.72 310.19,444.05 301.28,442.89 298.28,442.9 292.32,443.54 286.49,444.93 280.84,446.93 275.38,449.42 270.11,452.29 260.09,458.88 248.39,468.26 241.79,474.38 235.5,480.81 225.79,492.24 217.21,504.54 212.71,512.33 210.02,517.69 205.46,528.78 202.1,540.3 200.06,552.12 199.37,564.09 200.01,576.07 201.92,587.91 205,599.51"   /><polyline id="SvgjsPolyline2405" points="404.26,598.69 406.44,589.96 407.56,584.07 408.99,572.16 409.23,560.17 408.23,548.21 406,536.43 402.56,524.94 398.03,513.83 391.03,500.57 382.79,488.04 371.63,473.93 359.41,460.71 344.13,446.31 330.24,434.87 322.89,429.68 317.77,426.56 309.6,422.81 303.78,421.38 300.79,421.11 297.8,421.2 291.92,422.33 289.08,423.3 283.63,425.8 278.44,428.82 271.03,433.92 257.06,445.26 241.8,459.68 229.64,472.95 218.55,487.12 210.39,499.7 204.75,510.29 202.28,515.75 199.06,524.15 195.74,535.68 193.63,547.49 192.78,559.45 193.17,571.44 194.75,583.33 195.96,589.21 198.27,597.9"   /><polyline id="SvgjsPolyline2406" points="407.05,599.5 410.48,584.9 412.06,573.01 412.51,561.03 411.77,549.05 409.83,537.22 406.72,525.63 402.53,514.39 397.37,503.56 391.4,493.16 382.97,480.75 373.73,468.94 361.86,455.42 343.02,436.08 306.22,400.76 301.63,396.91 298.79,396.64 296.38,398.4 291.96,402.46 261.65,431.54 246.83,446.41 234.59,459.61 224.93,471.08 215.94,483.09 209.38,493.14 203.54,503.62 198.55,514.52 194.55,525.83 191.66,537.47 189.95,549.35 189.46,561.33 190.15,573.31 191.42,582.22 192.6,588.1 195.72,599.68"   /><polyline id="SvgjsPolyline2407" points="407.83,597.82 410.56,586.14 412.26,574.26 412.85,562.28 412.25,550.3 411.02,541.39 408.34,529.7 404.54,518.32 399.74,507.32 394.07,496.75 389.32,489.11 382.45,479.27 375.08,469.8 365.32,458.41 357.19,449.59 319.38,411.03 313.72,404.05 312.24,401.44 311.32,398.59 311.18,395.6 311.74,392.66 313.79,387.03 315.14,384.35 320.1,376.85 339.98,350.51 351.59,333.02 357.55,322.6 361.62,314.58 366.47,303.6 369.6,295.17 372.28,286.58 375.08,274.91 376.57,266.04 377.69,254.09 377.79,242.1 377.18,233.12 375.97,224.2 374.15,215.39 371.72,206.72 368.69,198.25 366.33,192.74 362.27,184.71 357.6,177.02 354.13,172.12 348.42,165.17 344.25,160.85 337.48,154.93 332.61,151.43 327.47,148.33 322.08,145.71 316.46,143.61 310.66,142.11 304.72,141.24 298.73,141.04 292.75,141.53 286.87,142.67 281.13,144.43 275.6,146.76 270.32,149.59 265.29,152.87 260.54,156.53 253.95,162.65 249.9,167.08 244.37,174.17 241.02,179.15 236.52,186.94 232.64,195.06 230.39,200.62 227.53,209.15 225.28,217.86 223.63,226.71 222.59,235.65 222.14,244.64 222.47,256.63 223.37,265.58 225.44,277.4 228.43,289.02 231.24,297.57 235.68,308.71 239.49,316.86 245.13,327.45 249.74,335.18 259.76,350.13 279.62,376.48 284.63,383.95 287.11,389.4 287.7,392.34 287.6,395.33 286.84,398.23 285.6,400.96 282.34,405.99 278.59,410.67 270.54,419.57 239.48,452.13 229.6,463.42 222.08,472.77 215,482.46 210.06,489.98 204.06,500.37 200.09,508.44 195.6,519.56 192.15,531.05 189.84,542.82 188.89,551.77 188.68,563.77 189.64,575.72 191.7,587.54 194.77,599.14"   /><polyline id="SvgjsPolyline2408" points="594.11,597.15 599.76,564.64"   /><polyline id="SvgjsPolyline2409" points="382.97,598.43 385.83,586.78 387.11,577.87 387.5,565.89 386.76,556.92 385.14,548.07 381.63,536.61 378.05,528.35 372.15,517.91 365.1,508.2 357.07,499.3 348.16,491.26 338.45,484.23 327.96,478.41 319.62,475.05 313.85,473.4 307.96,472.29 298.98,471.75 290.03,472.6 281.3,474.75 272.91,478 262.37,483.71 252.59,490.66 243.62,498.61 235.51,507.45 228.38,517.1 222.38,527.48 218.72,535.7 215.09,547.13 213.37,555.96 212.54,564.92 212.8,576.91 214,585.83 216.82,597.48"   /><polyline id="SvgjsPolyline2410" points="392.42,599.55 395.19,587.88 396.71,575.99 396.88,564 396.06,555.03 393.73,543.27 390.02,531.87 385.05,520.95 378.96,510.62 375.55,505.68 370.01,498.59 361.92,489.73 350.8,479.67 341.13,472.57 330.76,466.56 319.79,461.71 314.06,459.92 308.19,458.7 299.23,458.06 290.28,458.95 284.44,460.34 278.76,462.26 273.26,464.64 267.93,467.4 257.81,473.83 248.37,481.24 237.55,491.62 227.9,503.09 221.17,513.02 215.48,523.58 210.97,534.69 208.45,543.33 206.34,555.14 205.71,564.11 206.13,576.1 207.93,587.95 211,599.55"   /><polyline id="SvgjsPolyline2411" points="242.25,321.89 250,334.73 258.6,347.02 267.91,358.77 277.89,369.97 286.49,378.33 291.32,381.88 294.06,383.09 297.02,383.52 299.98,383.13 305.65,381.19 308.31,379.8 313.21,376.34 319.94,370.37 326.23,363.94 332.22,357.22 337.93,350.26 345.1,340.64 354.84,325.51 359.2,317.64 363.17,309.56 366.72,301.29 369.81,292.84 373.89,278.42 376.51,263.65 377.48,251.69 377.23,236.7 375.82,224.79 374.06,215.97 372.54,210.16 368.69,198.8 363.75,187.87 357.7,177.51 350.54,167.89 342.26,159.23 337.69,155.34 332.84,151.81 327.71,148.69 322.34,146.03 316.73,143.91 310.93,142.37 302.01,141.28 293.03,141.7 284.24,143.61"   /><polyline id="SvgjsPolyline2412" points="285.24,155.71 279.66,157.91 274.37,160.72 269.39,164.07 264.76,167.88 260.49,172.09 256.58,176.64 253.05,181.49 249.89,186.59 247.11,191.91 244.72,197.41 241.86,205.94 240.46,211.77 239.14,220.67 238.8,226.66 238.9,232.66 239.45,238.63 240.47,244.54 241.98,250.35 243.96,256.01 246.44,261.47 249.4,266.69 252.84,271.6 256.73,276.16 261.06,280.32 268.01,286.03 275.32,291.27 280.46,294.37 285.86,296.98 291.54,298.9 297.45,299.89 300.44,299.99 306.42,299.47 312.3,298.3 320.91,295.69 326.42,293.33 331.67,290.42 336.6,287.02 341.19,283.15 345.38,278.86 350.87,271.73 353.97,266.6 356.61,261.21 358.79,255.63 361.2,246.96 362.23,241.05 362.96,232.08 362.9,226.09 362.03,217.13 360.95,211.23 358.59,202.55 355.38,194.15 352.76,188.75 349.79,183.54 344.64,176.16 340.76,171.59 334.27,165.36 327,160.06 321.76,157.15 316.23,154.82 310.48,153.15 304.56,152.19 298.56,151.99 292.59,152.56 286.74,153.86"   /><polyline id="SvgjsPolyline2413" points="236.11,269.44 239.55,277.76 243.81,285.68 248.88,293.11 254.74,299.93 263.44,308.19 270.44,313.85 278.03,318.67 286.3,322.19 292.12,323.61 301.08,324.26 307.06,323.8 315.86,321.94 321.52,319.97 329.59,315.99 337.05,310.96 343.82,305.05 349.86,298.38 355.15,291.1 359.66,283.32 363.39,275.14 366.34,266.64 368.5,257.9 369.88,249.01 370.51,237.03 370.1,228.05 368.38,216.18 366.23,207.44 363.36,198.91 358.43,187.98 353.9,180.2 348.67,172.89 342.72,166.13 338.37,162.01 333.71,158.23 328.74,154.87 323.49,151.98 317.97,149.62 312.24,147.86 306.35,146.76 300.36,146.36 291.4,147.1 285.56,148.45 279.91,150.45 274.49,153.02 269.34,156.09 264.49,159.62 259.94,163.53 255.71,167.78 251.79,172.32 246.49,179.6 243.36,184.71 240.54,190.01 236.9,198.23 233.97,206.74 232.42,212.54 230.7,221.37 229.97,227.32 229.49,236.31 229.6,242.31 230.83,254.24 231.97,260.13 234.33,268.81"   /><polyline id="SvgjsPolyline2414" points="251.51,314.05 257.55,320.71 264.23,326.75 271.53,331.99 279.46,336.24 287.94,339.22 296.81,340.67 302.81,340.7 311.69,339.31 320.19,336.39 328.14,332.19 335.48,326.99 342.18,320.99 350.13,312.01 355.36,304.69 359.95,296.95 365.08,286.11 368.18,277.66 370.61,269 372.8,257.2 373.66,248.25 373.74,236.25 373,227.28 370.97,215.46 368.67,206.77 365.69,198.27 360.69,187.37 356.17,179.59 349.1,169.91 343.01,163.28 336.26,157.34 328.85,152.25 320.82,148.19 315.17,146.17 309.34,144.77 303.39,144.03 297.39,143.98 291.43,144.63 285.58,145.95 277.15,149.08 271.83,151.85 266.78,155.08 259.75,160.69 253.38,167.04 249.51,171.63 244.26,178.93 241.13,184.05 236.99,192.04 234.6,197.54 232.5,203.16 229.92,211.78 228.56,217.63 227.09,226.5 226.3,235.47 226.15,241.46 226.49,250.45 227.51,259.39 229.21,268.23 230.72,274.04 233.53,282.58 235.78,288.15 238.3,293.59 242.63,301.48 245.87,306.53 251.26,313.74"   /><polyline id="SvgjsPolyline2415" points="370.76,597.73 372.95,589 374.3,580.11 374.63,571.12 373.92,562.15 372.15,553.33 369.35,544.79 365.58,536.62 360.93,528.92 355.48,521.76 349.31,515.22 342.49,509.34 335.1,504.22 327.18,499.96 318.8,496.69 310.06,494.57 301.11,493.73 292.13,494.24 283.32,496.05 274.84,499.05 266.8,503.09 259.27,508.01 252.31,513.71 245.98,520.09 242.14,524.7 238.63,529.57 234.05,537.31 230.37,545.52 227.66,554.09 225.98,562.93 225.35,571.9 225.78,580.89 227.21,589.77 229.58,598.45"   /><polyline id="SvgjsPolyline2416" points="273.55,346.73 281.23,351.4 286.72,353.82 292.48,355.48 295.44,355.98 301.42,356.25 307.37,355.51 313.14,353.87 315.92,352.75 323.84,348.49 331.1,343.18 337.77,337.15 345.82,328.25 352.96,318.62 359.21,308.37 364.53,297.62 367.89,289.27 371.49,277.83 374.06,266.11 375.54,254.21 375.93,245.22 375.69,236.22 374.37,224.3 371.93,212.56 369.35,203.94 366.13,195.53 362.28,187.4 356.15,177.09 350.8,169.86 344.81,163.15 338.16,157.09 330.86,151.83 322.95,147.55 314.51,144.45 308.66,143.14 302.7,142.49 296.7,142.52 287.81,143.84 282.06,145.53 276.5,147.8 268.64,152.15 263.73,155.6 256.91,161.46 252.72,165.76 246.98,172.69 241.89,180.11 237.45,187.93 233.64,196.08 230.46,204.5 227.93,213.14 226.03,221.93 224.77,230.84 224.14,239.82 224.15,248.81 224.51,254.8 225.56,263.74 227.22,272.58 229.48,281.29 232.32,289.83 235.72,298.16 239.65,306.26 244.11,314.07 249.08,321.57 254.56,328.72 260.54,335.43 267.06,341.63 271.73,345.4"   /><polyline id="SvgjsPolyline2417" points="292.64,367.74 298.54,368.78 304.51,368.42 310.27,366.74 313.01,365.52 318.21,362.54 325.41,357.15 332.04,351.07 340.15,342.23 347.53,332.77 354.19,322.79 358.71,315.01 364.04,304.26 368.54,293.14 372.13,281.7 374.2,272.94 376.09,261.09 376.82,252.12 376.87,240.13 376.19,231.15 374.32,219.3 372.2,210.56 368.4,199.18 364.82,190.93 360.62,182.97 355.79,175.38 350.33,168.23 344.22,161.62 337.48,155.67 330.1,150.53 322.12,146.39 316.5,144.28 307.75,142.24 301.77,141.7 295.78,141.83 286.91,143.3 281.18,145.07 272.98,148.77 267.83,151.84 260.62,157.22 254.05,163.36 248.12,170.13 242.83,177.41 238.17,185.1 234.14,193.15 230.74,201.48 227.95,210.03 225.79,218.77 223.87,230.61 223.16,239.58 223.05,248.58 223.55,257.56 225.13,269.45 226.99,278.26 229.39,286.93 232.31,295.44 236.98,306.49 241.03,314.53 245.52,322.33 252.15,332.33 259.5,341.81 265.48,348.53 271.92,354.82 278.87,360.53 286.5,365.28 292.04,367.56"   /><polyline id="SvgjsPolyline2418" points="288.98,167.11 286.15,168.08 280.73,170.64 273.37,175.8 267.08,182.22 261.97,189.62 258.1,197.73 256.25,203.44 255.01,209.31 254.38,218.27 255.3,227.21 257.88,235.82 260.52,241.21 262.11,243.75 265.8,248.47 267.89,250.63 270.12,252.63 274.97,256.15 277.57,257.66 283.03,260.13 291.7,262.49 300.66,263.19 309.6,262.25 318.2,259.65 323.59,257.02 326.13,255.44 330.88,251.77 333.05,249.7 335.07,247.48 338.61,242.65 341.46,237.37 342.6,234.6 343.57,231.76 344.93,225.92 345.62,216.96 345.22,210.97 344.16,205.07 341.41,196.51 338.85,191.09 335.73,185.97 330.04,179 323.23,173.15 318.11,170.01 315.41,168.72 309.75,166.75 306.82,166.09 303.85,165.66 297.86,165.52 294.88,165.81 289.02,167.1"   /><polyline id="SvgjsPolyline2419" points="258.29,258.19 262.3,262.65 266.8,266.62 271.73,270.03 276.96,272.96 282.42,275.44 288.1,277.36 293.98,278.55 299.96,278.94 305.95,278.59 311.87,277.62 317.65,276.03 323.22,273.82 328.51,270.99 333.44,267.58 337.95,263.62 341.96,259.16 345.44,254.27 348.34,249.03 350.65,243.49 352.37,237.75 353.51,231.86 354.07,225.89 354.07,219.89 353.54,213.92 352.5,208.01 350.96,202.21 347.76,193.81 345.05,188.45 341.9,183.35 338.3,178.55 334.28,174.1 329.85,170.06 322.46,164.94 314.29,161.2 308.51,159.61 305.55,159.12 302.56,158.83 296.57,158.9 293.59,159.24 287.74,160.55 279.41,163.92 271.82,168.74 267.24,172.62 263.07,176.93 257.62,184.08 254.53,189.22 251.88,194.6 249.7,200.19 247.99,205.94 246.77,211.81 246.06,217.77 245.87,223.76 246.23,229.75 247.84,238.6 250.77,247.1 253.47,252.45 256.74,257.48"   /><polyline id="SvgjsPolyline2420" points="256.9,290.42 265.89,298.37 273.11,303.73 280.96,308.11 286.59,310.18 295.43,311.82 301.42,312.06 310.34,310.96 319.03,308.62 327.31,305.14 335.02,300.5 342.03,294.86 348.24,288.36 353.61,281.14 358.08,273.34 361.66,265.09 364.33,256.5 366.1,247.68 367,238.72 367.04,229.73 365.79,217.8 363.91,209 360.18,197.61 356.48,189.4 352.02,181.59 346.81,174.25 340.85,167.52 334.15,161.52 326.73,156.44 318.65,152.49 310.04,149.9 301.11,148.88 295.12,149.11 289.2,150.07 280.63,152.78 272.61,156.83 265.25,162 258.61,168.07 252.71,174.86 247.57,182.24 241.88,192.8 238.5,201.14 235.21,212.67 233.66,221.53 232.88,233.5 233.59,245.47 235.15,254.33 237.6,262.99 240.95,271.33 245.2,279.26 250.35,286.64 256.36,293.33 267.43,303.43 274.63,308.84 282.45,313.27 285.21,314.44 290.95,316.18 296.88,317.05 305.86,316.8 314.69,315.09 323.2,312.18 331.2,308.07 338.56,302.91 345.2,296.84 351.06,290.01 354.5,285.1 357.58,279.95"   /><polyline id="SvgjsPolyline2421" points="357.68,599.83 360.1,591.16 361.23,585.27 361.83,579.31 361.68,570.31 360.24,561.44 358.57,555.68 356.36,550.1 352.08,542.19 346.75,534.95 340.5,528.49 335.87,524.67 328.32,519.78 320.17,515.99 314.46,514.16 308.59,512.92 299.62,512.26 290.67,513.04 284.82,514.36 279.13,516.26 271.02,520.15 265.95,523.35 258.95,529 252.76,535.53 249.15,540.32 244.6,548.07 242.19,553.56 239.59,562.17 238.56,568.08 238.1,574.06 238.48,583.05 240.08,591.89 241.8,597.64"   /><polyline id="SvgjsPolyline2422" points="292.46,178.59 286.9,180.83 281.9,184.12 277.6,188.29 274.09,193.15 271.45,198.53 269.77,204.28 269.3,207.24 269.17,213.23 270.16,219.14 272.29,224.74 275.51,229.79 279.71,234.06 284.68,237.39 290.21,239.7 296.07,240.95 302.06,241.12 307.99,240.21 313.64,238.23 318.81,235.2 323.27,231.21 326.82,226.38 329.3,220.93 330.65,215.09 330.86,209.11 329.99,203.18 328.12,197.48 325.32,192.19 321.65,187.45 317.21,183.43 312.09,180.32 306.45,178.3 300.51,177.54 294.55,178.08"   /><polyline id="SvgjsPolyline2423" points="345.56,598.4 347.38,592.69 348.71,586.84 349.36,580.88 349.29,574.88 348.51,568.93 347.01,563.13 344.81,557.55 341.96,552.28 338.49,547.38 334.47,542.93 327.54,537.21 322.4,534.12 316.93,531.66 311.21,529.88 305.3,528.84 299.31,528.54 293.34,529.01 287.47,530.23 281.79,532.16 276.39,534.77 271.34,538 264.56,543.91 260.67,548.47 257.34,553.45 254.63,558.8 252.59,564.44 251.25,570.28 250.63,576.25 250.73,582.24 251.54,588.19 253.02,594 255.13,599.61"   /><polyline id="SvgjsPolyline2424" points="295.75,190.13 292.94,191.18 290.37,192.72 288.1,194.67 286.19,196.98 284.68,199.56 283.61,202.36 283.02,205.3 282.93,208.3 283.36,211.26 284.31,214.1 285.77,216.72 287.68,219.03 289.97,220.95 292.58,222.44 295.4,223.45 298.35,223.98 301.34,224 304.3,223.53 307.14,222.57 309.77,221.13 312.1,219.25 314.05,216.98 315.56,214.39 316.56,211.56 317.05,208.61 317.02,205.61 316.48,202.67 315.46,199.85 313.99,197.23 312.12,194.9 309.88,192.9 307.34,191.32 304.55,190.22 301.61,189.64 298.61,189.62 295.67,190.16"   /><polyline id="SvgjsPolyline2425" points="332.35,599.43 334.47,593.83 336.15,588.07 336.91,582.13 336.93,579.13 336.72,576.14 335.56,570.26 334.62,567.41 332.06,561.99 328.65,557.06 326.66,554.82 322.17,550.85 317.1,547.65 311.58,545.3 308.7,544.47 302.78,543.53 299.78,543.43 293.81,543.95 290.88,544.58 288.01,545.44 282.52,547.85 277.49,551.11 273.04,555.13 269.3,559.81 267.73,562.37 265.23,567.81 264.33,570.67 263.66,573.6 263.05,579.56 263.41,585.54 263.95,588.49 265.69,594.23 268.28,599.64"   /><polyline id="SvgjsPolyline2426" points="298.92,201.71 296.52,203.4 295.77,206.24 297.05,208.88 299.74,210.05 302.56,209.21 304.14,206.74 303.73,203.84 301.54,201.88"   /><polyline id="SvgjsPolyline2427" points="319.09,598.86 320.64,596.29 323.13,590.84 324.63,585.04 324.73,579.06 323.39,573.22 322.19,570.47 318.85,565.51 314.41,561.5 311.86,559.92 306.29,557.73 300.35,556.93 294.4,557.57 288.77,559.59 283.78,562.9 281.62,564.98 278.14,569.85 275.93,575.41 275.14,581.35 275.28,584.34 276.62,590.17 279.27,595.54 281.04,597.96"   /><polyline id="SvgjsPolyline2428" points="311.28,587.96 312.25,585.13 312.53,582.15 312.1,579.19 310.97,576.42 309.21,573.99 306.92,572.06 304.24,570.73 301.33,570.07 298.33,570.11 295.43,570.85 292.79,572.26 290.56,574.25 288.87,576.72 287.82,579.52 287.47,582.49 287.83,585.46 288.88,588.27 290.55,590.75 292.76,592.77 295.38,594.22 298.27,595 301.26,595.05 304.18,594.39 306.85,593.04 309.13,591.11 310.9,588.69"   /><polyline id="SvgjsPolyline2429" points="300.46,582.75 299.57,582.98"   /></g></svg>