<?xml version="1.0" standalone="no"?>
<svg id="SvgjsSvg1001" width="600" height="600" xmlns="http://www.w3.org/2000/svg" version="1.1" xmlns:xlink="http://www.w3.org/1999/xlink" xmlns:svgjs="http://svgjs.com/svgjs" class="svg-paper" viewBox="0 0 600 600"><title id="SvgjsTitle5870">x=x|y=cos((x+y))|dTest=0.0|sd=0.2|sm=0.2|ts=0.05 | generated with FlowLines</title><style>*{fill:none;stroke:#777}</style><g id="SvgjsG5871"><polyline id="SvgjsPolyline5872" points="251.81,599.39 240.95,589.04 229.26,579.66 214.44,569.45 199,560.2 183.09,551.78 164.05,542.94 144.55,535.15 127.49,529.39 110.15,524.58 95.5,521.39 80.69,519.01 65.77,517.52 50.78,516.94 35.78,517.25 17.85,518.7 0,521.08"   /><polyline id="SvgjsPolyline5873" points="266.66,598.03 256.51,586.99 245.28,577.07 233.21,568.16 218.05,558.46 199.76,548.14 178.31,537.4 156.37,527.67 136.81,520.03 119.78,514.19 102.51,509.12 85.01,504.93 67.3,501.74 52.41,499.94 34.44,498.88 16.45,499.01 1.48,499.98"   /><polyline id="SvgjsPolyline5874" points="235.01,599.8 223.5,590.19 211.33,581.43 198.64,573.43 182.87,564.76 166.6,557.05 152.72,551.37 135.72,545.47 121.29,541.4 106.65,538.15 91.83,535.79 76.9,534.39 64.91,533.97 49.92,534.3 34.97,535.5 20.09,537.41 2.34,540.37"   /><polyline id="SvgjsPolyline5875" points="281.57,597.93 278.09,593.05 274.28,588.41 270.19,584.02 265.81,579.93 253.96,570.74 238.83,561 217.9,549.26 193.78,537.14 169.21,525.94 144.22,515.73 124.47,508.58 104.44,502.28 87.04,497.69 69.43,493.97 51.64,491.26 33.71,489.66 15.72,489.22 0.73,489.73"   /><polyline id="SvgjsPolyline5876" points="216.16,599.69 203.64,591.42 193.25,585.42 179.86,578.67 166.09,572.74 154.82,568.61 140.47,564.27 125.85,560.89 114.02,558.92 102.09,557.64 90.11,557.05 78.11,557.14 66.13,557.87 54.2,559.16 39.37,561.42 1.11,568.95"   /><polyline id="SvgjsPolyline5877" points="226.94,598.7 214.86,589.81 202.22,581.73 189.13,574.42 175.65,567.85 161.83,562.03 147.7,556.98 133.31,552.76 118.68,549.44 106.85,547.48 94.92,546.17 79.94,545.47 67.94,545.65 52.97,546.6 38.07,548.31 20.3,551.17 2.62,554.54"   /><polyline id="SvgjsPolyline5878" points="294.52,597.35 290.55,589.28 288.88,586.79 284.9,582.31 277.93,576.63 265.27,568.6 238.85,554.39 209.23,539.85 179.19,526.18 148.7,513.58 126.17,505.3 109.06,499.73 88.84,494.06 71.29,490.06 53.55,487 38.66,485.24 20.69,484.17 2.7,484.24"   /><polyline id="SvgjsPolyline5879" points="192.49,598.75 181.57,593.76 173.21,590.45 164.7,587.51 153.17,584.2 144.39,582.19 132.57,580.18 123.63,579.17 111.65,578.5 102.65,578.51 93.66,578.92 84.69,579.7 72.79,581.27 55.08,584.45 16.96,592.7 2.24,595.58"   /><polyline id="SvgjsPolyline5880" points="207.97,599.23 197.57,593.24 186.87,587.83 173.1,581.88 161.81,577.81 150.32,574.37 138.64,571.6 126.82,569.54 114.9,568.21 102.92,567.63 90.92,567.77 78.95,568.59 67.03,569.96 46.3,573.33 2.23,582.42"   /><polyline id="SvgjsPolyline5881" points="301.9,597.93 303.38,595.35 308.78,592.91 311.77,592.94 317.57,594.42 328.72,598.85"   /><polyline id="SvgjsPolyline5882" points="300.88,583.06 298.18,581.75 333.05,599.21"   /><polyline id="SvgjsPolyline5883" points="300,393.55 299.73,519.55 299.18,555.54 298.82,561.53 297.84,567.44 296.18,569.91 293.43,571.03 287.46,571.28 284.51,570.8 275.95,568.02 256.69,559.67 196.76,532.02 169.22,520.12 152.53,513.37 135.7,507.01 121.54,502.05 107.25,497.48 92.83,493.36 78.27,489.75 63.58,486.74 51.74,484.81 39.83,483.34 24.87,482.19 12.88,481.84 0.88,482"   /><polyline id="SvgjsPolyline5884" points="163.72,599.82 154.92,597.92 146.03,596.5 134.09,595.36 125.1,595.06 113.1,595.37 104.13,596.11 92.24,597.66 80.42,599.75"   /><polyline id="SvgjsPolyline5885" points="181.11,599.15 166.86,594.49 152.26,591.04 143.38,589.58 134.44,588.59 119.46,587.98 104.47,588.6 86.61,590.76 65.98,594.66 42.56,599.93"   /><polyline id="SvgjsPolyline5886" points="299.99,391.89 301.04,514.88 301.97,541.86 302.64,550.84 303.83,559.76 305.22,565.59 307.43,571.16 310.38,576.38 314.02,581.15 318.35,585.3 323.08,588.98 330.57,593.96 338.31,598.56"   /><polyline id="SvgjsPolyline5887" points="299.47,390.72 298.04,388.09 295.07,388.1 292.43,389.5 290.11,391.4 285.9,395.67 278.52,405.13 262.11,430.24 255.2,440.05 247.63,449.35 239.11,457.79 231.96,463.25 224.15,467.71 215.79,471.01 209.99,472.56 204.09,473.6 195.12,474.35 183.13,474.09 171.2,472.79 159.38,470.77 147.65,468.24 133.09,464.63 75.24,448.69 51.97,442.82 25.56,437.26 1.84,433.61"   /><polyline id="SvgjsPolyline5888" points="300.46,398.01 302.45,400.24 305.35,399.54 307.82,397.86 310.01,395.8 314,391.32 321.05,381.62 335.36,358.73 343.77,346.31 351.24,336.93 355.33,332.54 359.71,328.43 364.39,324.68 369.37,321.35 377.39,317.28 385.92,314.43 394.76,312.74 403.73,312.07 415.72,312.42 427.63,313.81 439.45,315.91 462.81,321.4 520.62,337.46 546.78,344.14 573.19,349.72 587.99,352.17 599.89,353.73"   /><polyline id="SvgjsPolyline5889" points="300.48,391.12 298.06,392.82 296.39,395.31 293.67,400.66 290.16,408.95 278.25,439.72 273.58,450.77 266.91,464.2 260.51,474.35 256.82,479.07 252.72,483.45 245.75,489.13 237.86,493.42 232.2,495.4 226.34,496.7 217.39,497.56 208.4,497.37 199.45,496.42 187.63,494.34 175.94,491.63 161.47,487.71 98.35,468.4 81.04,463.47 63.61,458.97 46.05,455.05 31.3,452.32 16.46,450.17 1.53,448.65"   /><polyline id="SvgjsPolyline5890" points="300.58,391.94 299.48,394.72 298.07,400.55 289.85,441.74 285.18,462.21 281.12,476.65 278.17,485.15 275.89,490.7 273.28,496.1 270.24,501.27 266.68,506.09 262.49,510.39 257.66,513.94 255.03,515.37 252.28,516.56 246.52,518.22 237.58,519.16 228.6,518.74 216.75,516.86 205.08,514.07 179.27,506.16 131.05,489.55 108.24,482.1 88.1,476.13 64.84,470.23 50.16,467.17 32.39,464.28 17.49,462.59 2.53,461.61"   /><polyline id="SvgjsPolyline5891" points="300.87,391.46 299.95,394.3 295.2,445.08 292.43,468.92 289.65,486.7 285.72,504.26 281.94,515.64 279.38,521.07 276.14,526.11 272.03,530.46 269.63,532.25 267.01,533.72 261.34,535.65 255.4,536.37 246.42,535.92 237.56,534.34 225.96,531.28 203.22,523.62 152.7,504.54 127.29,495.42 104.47,487.99 78.45,480.78 57.94,476.27 40.19,473.35 22.29,471.42 1.31,470.54"   /><polyline id="SvgjsPolyline5892" points="299.74,400.37 297.71,448.33 296.19,475.28 294.16,499.2 291.62,517.01 290.35,522.88 288.68,528.64 286.6,534.26 283.93,539.63 282.22,542.09 280.18,544.29 277.82,546.13 275.16,547.52 272.31,548.44 266.36,549.08 260.38,548.63 251.57,546.84 240.08,543.38 220.39,536.09 167.57,514.66 142.37,504.96 114.03,495.12 88.13,487.51 64.76,482.08 44.05,478.6 23.16,476.53 2.17,475.96"   /><polyline id="SvgjsPolyline5893" points="300.03,392.44 298.24,488.42 297.25,512.4 295.87,530.35 294.03,542.2 292.35,547.96 291.1,550.68 289.41,553.15 284.96,557.16 282.31,558.54 279.4,559.25 273.42,559.23 264.62,557.38 256.06,554.61 239.29,548.06 184.18,524.33 150.84,510.77 122.64,500.53 96.86,492.52 85.27,489.43 70.65,486.05 58.87,483.79 47.01,481.96 26.12,479.89 14.13,479.39 2.13,479.38"   /><polyline id="SvgjsPolyline5894" points="301.42,400.62 302.66,403.35 304.31,405.86 306.47,407.93 309.13,409.3 315.03,410.34 318.02,410.28 323.82,408.79 329.2,406.16 336.61,401.05 345.7,393.23 369.81,370.7 379.18,363.21 386.65,358.19 394.51,353.82 399.98,351.34 405.59,349.24 417.19,346.2 429.08,344.63 438.07,344.28 450.06,344.72 462,345.96 476.81,348.32 506.14,354.62 564.45,368.73 582.06,372.48 599.76,375.73"   /><polyline id="SvgjsPolyline5895" points="300.41,397.47 301.82,403.3 303.7,409 307.38,417.21 310.43,422.37 313.89,427.27 319.74,434.1 326.61,439.9 334.41,444.36 337.18,445.51 342.92,447.24 351.82,448.47 357.82,448.41 363.78,447.74 369.66,446.54 378.27,443.95 392.12,438.19 424.27,422 440.75,414.78 449.22,411.75 460.77,408.48 469.58,406.65 478.48,405.35 490.44,404.41 502.44,404.28 514.43,404.83 526.37,405.93 553.09,409.83 597.27,418.34"   /><polyline id="SvgjsPolyline5896" points="300.61,399.32 303.38,414.06 306.18,425.72 309.47,437.26 314.26,451.47 318.63,462.65 323.59,473.57 329.22,484.17 333.91,491.85 339.01,499.27 346.44,508.68 352.49,515.35 361.13,523.67 370.38,531.31 377.68,536.57 387.84,542.96 398.42,548.61 406.6,552.35 417.8,556.66 429.28,560.16 438.03,562.24 446.89,563.83 455.82,564.92 464.8,565.52 476.8,565.56 491.76,564.49 509.56,561.84 527.17,558.15 568.06,548.56 582.79,545.71 597.62,543.5"   /><polyline id="SvgjsPolyline5897" points="299.89,392.77 301.59,410.69 304.58,434.5 307.82,455.25 311.23,472.92 314.62,487.53 318.68,501.97 323.65,516.12 328.44,527.12 334.08,537.71 340.59,547.78 347.96,557.25 356.09,566.07 364.87,574.24 376.56,583.64 386.36,590.57 399.04,598.58"   /><polyline id="SvgjsPolyline5898" points="300.34,401.42 303.78,455.31 305.36,473.24 307.38,491.13 309.59,505.96 311.87,517.74 314.72,529.4 317.32,538.01 321.69,549.18 325.78,557.2 330.6,564.79 336.12,571.9 342.25,578.49 348.85,584.6 358.2,592.12 368,599.04"   /><polyline id="SvgjsPolyline5899" points="299.17,389.72 298.12,386.91 296.63,384.3 294.58,382.11 291.94,380.71 288.98,380.29 286,380.68 280.31,382.55 277.6,383.83 272.53,387.03 265.58,392.75 236.04,422.58 226.98,430.45 219.73,435.78 214.64,438.96 209.35,441.79 201.08,445.32 195.37,447.16 189.54,448.59 177.67,450.29 168.68,450.67 156.69,450.24 144.76,448.97 132.91,447.09 106.51,441.48 39.52,424.94 18.98,420.57 1.26,417.41"   /><polyline id="SvgjsPolyline5900" points="299.65,391.49 298.74,388.64 297.26,386.03 294.86,384.24 291.89,383.92 288.98,384.64 286.29,385.95 281.43,389.47 275.01,395.76 246.27,430.38 237.92,438.99 231.13,444.9 226.31,448.48 221.25,451.69 213.22,455.75 207.62,457.88 201.86,459.56 195.98,460.78 190.04,461.58 181.06,462.09 169.07,461.69 157.14,460.39 145.3,458.43 118.95,452.56 63.81,438.13 43.4,433.19 19.9,428.3 2.15,425.36"   /><polyline id="SvgjsPolyline5901" points="299.44,389.9 296.6,390.74 294.38,392.75 290.76,397.52 284.73,407.9 273.81,429.26 266.6,442.42 260.14,452.53 250.91,464.35 246.75,468.66 242.24,472.61 234.79,477.66 226.64,481.44 220.91,483.2 215.03,484.4 206.07,485.24 194.08,484.97 182.17,483.56 170.37,481.38 147.06,475.67 83.65,457.38 57.51,450.6 42.88,447.32 28.15,444.48 16.3,442.59 1.41,440.76"   /><polyline id="SvgjsPolyline5902" points="299.85,392.15 298.27,394.7 300.76,396.03 303.64,390.78 305.88,385.22 318.51,348.32 323.75,334.27 329.87,320.58 335.82,310.17 339.3,305.28 343.2,300.72 349.94,294.77 355.01,291.58 357.7,290.26 363.33,288.18 369.17,286.82 378.12,285.98 387.11,286.22 396.05,287.25 407.85,289.45 419.51,292.27 431.07,295.48 496.93,316.07 514.21,321.11 531.61,325.71 549.15,329.73 566.84,333.04 584.67,335.51 599.61,336.83"   /><polyline id="SvgjsPolyline5903" points="299.87,393.9 300.32,396.87 301.19,399.74 302.55,402.41 304.65,404.55 307.48,405.5 310.46,405.27 313.3,404.3 315.94,402.89 320.77,399.33 327.25,393.09 335.27,384.17 350.74,365.82 358.86,356.99 365.37,350.77 372.33,345.08 377.26,341.65 382.42,338.6 390.57,334.79 396.23,332.8 402.03,331.27 407.92,330.17 413.88,329.47 422.87,329.08 434.86,329.57 446.78,330.93 458.61,332.92 482.05,338.06 554.73,356.58 578.2,361.59 598.9,365.11"   /><polyline id="SvgjsPolyline5904" points="303.09,397.07 306.94,392.49 311.48,384.72 325.89,355.04 332.92,341.79 339.19,331.56 346.32,321.92 350.36,317.48 354.75,313.39 362.04,308.14 370.11,304.18 375.81,302.31 381.68,301.05 390.63,300.15 399.62,300.22 411.56,301.4 423.38,303.45 435.09,306.07 449.6,309.86 510.06,327.58 539.05,335.28 553.68,338.62 568.39,341.52 583.2,343.89 598.1,345.67"   /><polyline id="SvgjsPolyline5905" points="298.63,394.93 295.71,403.44 286.04,438.12 280.68,455.3 275.29,469.29 269.93,480.02 266.73,485.09 263.08,489.86 259.05,494.3 254.64,498.36 249.7,501.76 247.05,503.17 241.48,505.39 235.66,506.81 226.71,507.68 217.72,507.38 208.79,506.27 197.02,503.96 173.85,497.7 105.29,475.72 73.54,466.74 56.02,462.6 38.35,459.16 20.54,456.58 2.62,454.95"   /><polyline id="SvgjsPolyline5906" points="300.7,398.58 302.54,404.29 305.22,409.65 308.86,414.41 311.09,416.41 313.59,418.07 316.32,419.31 319.21,420.1 322.19,420.45 325.19,420.39 334.05,418.9 342.44,415.67 350.28,411.27 360.16,404.46 379.25,389.91 389.03,382.96 399.24,376.65 407.23,372.53 415.53,369.05 427,365.53 438.78,363.31 450.74,362.31 459.74,362.23 471.72,362.88 483.64,364.19 498.46,366.51 521.99,371.23 574.65,383.2 598.16,388.01"   /><polyline id="SvgjsPolyline5907" points="301.71,402.55 304.96,410.93 307.88,416.17 311.48,420.96 315.82,425.1 320.86,428.33 326.48,430.42 332.4,431.31 338.4,431.35 344.36,430.71 350.19,429.31 355.85,427.33 361.35,424.92 374.48,417.69 405.07,398.71 413,394.45 421.14,390.63 429.52,387.33 438.1,384.65 446.86,382.6 455.75,381.18 467.71,380.21 479.7,380.16 491.68,380.86 506.59,382.55 521.4,384.89 536.14,387.67 597.78,400.69"   /><polyline id="SvgjsPolyline5908" points="301.54,403.11 303.05,408.92 305.83,417.48 310.47,428.54 314.7,436.48 317.9,441.55 321.43,446.41 325.28,451 331.6,457.41 336.09,461.38 340.87,465.02 345.91,468.27 351.2,471.11 356.69,473.51 362.37,475.45 371.13,477.48 380.07,478.46 389.07,478.43 398.02,477.51 406.86,475.83 415.56,473.54 426.96,469.79 460.55,456.85 477.58,451.03 494.99,446.5 509.77,443.97 518.72,443.01 527.71,442.46 536.7,442.29 548.7,442.59 560.67,443.4 572.61,444.62 599.33,448.43"   /><polyline id="SvgjsPolyline5909" points="302.26,405.55 306.11,416.91 311.28,427.73 314.39,432.86 317.89,437.73 321.78,442.3 326.06,446.49 333.23,451.93 341.16,456.15 349.69,458.98 355.59,460.08 361.56,460.69 367.55,460.89 376.52,460.2 382.43,459.17 391.15,456.93 405.26,451.88 438.15,437.24 454.87,430.58 466.29,426.91 475.01,424.66 483.83,422.89 492.74,421.61 501.7,420.79 513.69,420.38 525.68,420.65 537.66,421.49 549.59,422.77 564.44,424.86 599.89,431.13"   /><polyline id="SvgjsPolyline5910" points="314.1,427.03 318.3,431.3 323.07,434.93 328.36,437.76 331.15,438.83 336.97,440.28 342.94,440.8 348.93,440.49 354.84,439.47 363.46,436.91 377.23,430.96 387.86,425.4 414.03,410.74 424.79,405.43 433.08,401.92 444.42,398.01 453.13,395.74 464.93,393.61 476.88,392.48 485.87,392.22 497.87,392.55 509.83,393.51 521.74,394.96 548.36,399.45 598.33,409.64"   /><polyline id="SvgjsPolyline5911" points="301.07,401.51 303.02,410.3 306.29,421.84 310.29,433.15 313.8,441.44 317.78,449.51 322.26,457.31 327.26,464.79 332.81,471.88 338.89,478.5 345.39,484.73 352.3,490.49 359.66,495.67 367.41,500.24 375.52,504.14 381.09,506.35 389.67,509.08 398.44,511.08 410.34,512.6 422.33,512.84 434.29,511.91 446.13,510 457.83,507.3 469.38,504.08 509.56,491.86 524.12,488.24 535.89,485.93 550.75,483.87 565.71,482.77 580.7,482.57 598.68,483.34"   /><polyline id="SvgjsPolyline5912" points="300.62,400.11 303.84,420.86 308,441.44 312.39,458.9 317.77,476.07 324.42,492.79 331.12,506.21 338.94,519 347.74,531.15 357.63,542.42 368.49,552.75 375.41,558.51 382.59,563.94 395.05,572.27 408.05,579.76 424.23,587.63 440.96,594.28 458.14,599.63"   /><polyline id="SvgjsPolyline5913" points="300.69,399.67 303.03,411.44 305.98,423.07 309.51,434.54 313.66,445.8 318.49,456.78 322.6,464.78 328.78,475.07 333.96,482.42 339.61,489.43 347.86,498.14 354.55,504.16 361.65,509.69 371.64,516.33 379.43,520.83 387.5,524.81 395.83,528.23 401.49,530.19 410.15,532.64 416.01,533.95 424.89,535.4 433.85,536.25 439.84,536.48 448.84,536.35 457.81,535.69 469.7,534.06 484.4,531.09 530.79,518.77 554.21,513.56 574.99,510.56 586.95,509.6 598.94,509.16"   /><polyline id="SvgjsPolyline5914" points="303.68,417.84 306.15,429.58 309.77,444.13 314.07,458.5 318.07,469.81 322.66,480.9 326.54,489.02 332.33,499.53 337.17,507.12 342.42,514.42 350.07,523.67 358.4,532.3 365.06,538.35 372.03,544.05 381.75,551.07 391.92,557.45 402.46,563.18 413.29,568.34 424.37,572.93 432.86,575.94 444.37,579.32 453.13,581.39 464.94,583.48 476.87,584.79 485.85,585.25 494.85,585.29 503.84,584.91 512.81,584.15 524.71,582.61 542.43,579.43 583.47,570.52 598.2,567.69"   /><polyline id="SvgjsPolyline5915" points="300.84,400.77 303.09,412.55 306.65,427.12 310.06,438.63 314.03,449.95 318.61,461.04 322.5,469.16 328.32,479.65 333.19,487.21 340.38,496.81 346.29,503.6 352.61,510.01 361.65,517.9 371.31,525.01 378.92,529.8 386.81,534.13 397.72,539.14 406.14,542.3 414.74,544.94 429.4,548.12 441.28,549.73 450.26,550.35 459.26,550.44 468.25,550.02 483.15,548.31 497.9,545.59 512.51,542.2 547.41,533.36 565.01,529.6 582.78,526.79 597.71,525.32"   /><polyline id="SvgjsPolyline5916" points="301.19,403.47 303.9,418.22 306.51,429.93 310.34,444.43 313.92,455.89 318.03,467.16 322.75,478.19 328.14,488.91 334.25,499.23 339.33,506.66 346.76,516.08 354.9,524.9 361.43,531.09 370.65,538.76 377.92,544.07 388.01,550.56 398.51,556.36 406.62,560.26 417.72,564.83 429.08,568.67 437.77,571.04 449.51,573.49 458.41,574.79 467.37,575.61 479.37,575.98 488.36,575.73 497.34,575.05 515.17,572.63 535.76,568.52 576.73,559.28 597.39,555.5"   /><polyline id="SvgjsPolyline5917" points="299.07,388.44 295.63,376.95 293.34,371.4 289.4,363.31 283.1,353.11 279.43,348.37 275.4,343.93 271,339.84 266.26,336.17 258.54,331.56 253.05,329.14 247.35,327.29 238.52,325.61 232.53,325.2 223.55,325.56 214.66,326.94 205.94,329.16 191.79,334.13 158.79,348.5 142.02,355.04 133.46,357.81 124.77,360.16 115.97,362.05 107.09,363.47 95.15,364.64 86.15,365 77.15,364.98 65.17,364.42 53.22,363.35 38.33,361.48 2.84,355.48"   /><polyline id="SvgjsPolyline5918" points="298.31,386.67 295.85,381.21 294.23,378.68 292.31,376.38 290.07,374.38 287.52,372.8 284.73,371.72 281.78,371.16 278.79,371.08 272.83,371.77 269.9,372.43 267.05,373.34 261.56,375.75 253.82,380.34 244.13,387.42 218.32,407.98 208.41,414.74 200.62,419.24 189.73,424.26 181.21,427.16 169.52,429.82 157.6,431.18 148.6,431.46 136.62,431.01 124.68,429.83 109.84,427.59 86.31,422.9 27.85,409.41 1.39,404.04"   /><polyline id="SvgjsPolyline5919" points="298.4,387.17 295.73,381.81 293.87,379.46 291.61,377.49 288.97,376.07 286.07,375.32 283.08,375.19 280.11,375.58 274.43,377.48 269.14,380.32 261.8,385.51 254.91,391.31 230.43,413.43 220.95,420.78 213.44,425.73 202.94,431.53 191.83,436.05 180.23,439.08 168.34,440.68 159.35,441.06 147.36,440.67 135.42,439.48 120.6,437.19 97.09,432.35 29.96,416.41 0.53,410.62"   /><polyline id="SvgjsPolyline5920" points="300.2,391.67 303.31,343.77 305.75,313.88 308.17,293.02 311.32,275.3 313.67,266.61 315.76,260.99 318.49,255.66 320.19,253.18 322.15,250.92 324.4,248.94 326.92,247.32 329.66,246.1 332.54,245.28 338.5,244.66 344.49,245.01 353.34,246.61 364.9,249.82 387.52,257.84 437.76,277.63 465.86,288.12 491.46,296.7 514.53,303.31 537.92,308.67 558.64,312.08 576.55,313.9 597.53,314.64"   /><polyline id="SvgjsPolyline5921" points="299.11,396.79 300.45,394.13 301.93,388.31 309.73,350.1 314.46,329.65 319.5,312.37 322.54,303.9 324.88,298.38 327.57,293.01 330.68,287.89 334.33,283.12 338.58,278.9 340.95,277.06 346.13,274.04 348.89,272.89 354.67,271.28 363.61,270.38 372.6,270.81 384.44,272.69 396.12,275.46 419.09,282.39 470.19,299.85 490.15,306.37 513.16,313.19 533.51,318.38 551.12,322.07 565.92,324.52 583.8,326.59 598.77,327.53"   /><polyline id="SvgjsPolyline5922" points="304.84,415.93 309.95,430.03 313.7,438.21 316.5,443.51 321.19,451.19 324.65,456.1 330.35,463.06 334.49,467.4 338.9,471.46 346,476.98 351.04,480.25 356.29,483.15 361.73,485.67 370.2,488.7 378.93,490.89 384.82,491.99 393.78,492.89 402.77,492.94 411.74,492.21 423.56,490.19 432.31,488.05 443.8,484.61 477.8,472.78 492.11,468.29 509.57,463.94 524.36,461.42 539.28,459.97 557.27,459.56 578.24,460.6 599.12,462.84"   /><polyline id="SvgjsPolyline5923" points="305.82,417.1 310.57,428.12 316.53,438.52 320.01,443.41 323.84,448.03 330.22,454.37 334.9,458.12 339.9,461.43 347.93,465.49 356.45,468.36 362.32,469.58 368.28,470.26 374.28,470.42 383.25,469.77 389.17,468.81 397.93,466.74 406.52,464.06 417.78,459.92 448.25,447.26 465.12,440.98 473.71,438.3 482.42,436.03 491.23,434.19 500.12,432.8 512.06,431.64 521.05,431.26 533.05,431.34 542.04,431.78 565.91,434.2 598.5,439.37"   /><polyline id="SvgjsPolyline5924" points="302.16,407.13 304.24,415.89 307.58,427.41 311.56,438.73 315.01,447.04 320.26,457.83 324.74,465.63 329.69,473.14 335.15,480.3 341.09,487.06 347.51,493.37 354.38,499.18 361.67,504.45 369.33,509.16 377.34,513.27 385.63,516.75 394.18,519.58 405.86,522.3 411.79,523.2 420.75,523.98 432.75,523.99 447.7,522.78 459.54,520.85 471.25,518.23 520.32,504.37 531.98,501.51 543.73,499.11 555.59,497.25 570.51,495.74 582.5,495.17 597.49,495.2"   /><polyline id="SvgjsPolyline5925" points="310.59,433.14 316.94,446.72 319.87,451.96 324.72,459.53 328.26,464.38 334.05,471.27 340.39,477.65 344.92,481.58 354.65,488.6 359.82,491.65 367.9,495.59 373.49,497.78 382.09,500.39 393.89,502.58 402.86,503.25 411.85,503.15 420.81,502.33 432.64,500.29 444.32,497.55 452.98,495.11 487.21,483.95 501.57,479.63 516.12,476 530.87,473.29 545.77,471.59 563.75,470.84 581.74,471.33 599.68,472.79"   /><polyline id="SvgjsPolyline5926" points="302.57,416.75 305.7,437.52 308.37,452.28 312.19,469.87 316.07,484.35 320.76,498.6 325.24,509.73 330.48,520.52 336.53,530.88 343.41,540.71 351.07,549.95 359.42,558.56 370.66,568.48 380.19,575.77 392.63,584.16 402.92,590.32 418.8,598.78"   /><polyline id="SvgjsPolyline5927" points="301.32,405.13 303.75,419.94 306.65,434.65 310.07,449.26 314.1,463.7 317.86,475.1 322.19,486.29 327.16,497.21 331.36,505.17 337.61,515.4 342.8,522.76 348.41,529.8 356.49,538.66 365.2,546.92 372.09,552.7 381.7,559.89 391.72,566.49 402.1,572.5 412.79,577.95 423.76,582.81 437.81,588.05 449.29,591.54 460.96,594.36 475.73,596.94 487.65,598.34 499.62,599.01 508.62,599.04 520.61,598.49 532.55,597.32 544.43,595.63 556.25,593.54 597.38,585.07"   /><polyline id="SvgjsPolyline5928" points="300.09,396.23 299.96,393.23 298.7,387.37 295.64,378.91 291.22,371.09 287.4,366.47 282.83,362.59 277.57,359.72 274.74,358.73 268.9,357.37 262.94,356.8 256.95,357.19 251.08,358.39 245.36,360.21 237.11,363.79 226.58,369.54 195.98,388.49 185.4,394.16 177.22,397.9 168.81,401.1 160.19,403.7 151.41,405.65 142.51,406.97 130.54,407.83 118.55,407.8 106.57,407.03 91.68,405.28 79.82,403.42 62.13,400.1 0.49,387.1"   /><polyline id="SvgjsPolyline5929" points="299.26,387.54 296.94,372.72 294.13,357.99 290.09,340.45 286.2,325.96 282.62,314.51 278.53,303.23 273.86,292.18 268.54,281.42 262.5,271.06 257.48,263.58 252.06,256.4 244.21,247.33 237.91,240.91 229,232.88 219.59,225.43 209.75,218.56 196.95,210.74 186.37,205.09 172.77,198.77 161.62,194.32 150.27,190.43 135.83,186.41 124.09,183.89 112.24,182.05 100.3,180.89 88.31,180.42 76.31,180.63 64.34,181.48 52.42,182.87 37.61,185.22 2.3,192.22"   /><polyline id="SvgjsPolyline5930" points="298.83,386.6 296.81,377.83 293.41,366.32 290.35,357.86 286.82,349.58 282.8,341.53 278.25,333.76 274.92,328.78 267.69,319.2 261.71,312.48 255.21,306.25 248.23,300.58 243.32,297.13 235.61,292.5 227.52,288.55 221.95,286.32 213.38,283.59 204.6,281.63 192.69,280.21 183.7,280.01 171.73,280.82 159.88,282.67 148.18,285.35 136.63,288.61 93.66,301.95 79.1,305.56 67.32,307.84 52.45,309.82 34.49,310.91 19.49,310.85 1.52,309.8"   /><polyline id="SvgjsPolyline5931" points="297.82,383.89 294.76,375.43 290.7,367.4 285.55,360.03 279.2,353.67 276.82,351.84 271.69,348.74 266.15,346.45 260.33,345.04 251.38,344.08 245.39,344.25 239.45,345.06 233.6,346.41 227.88,348.21 222.28,350.35 214.07,354.04 179.53,372.14 163.11,379.5 151.78,383.44 143.09,385.79 134.27,387.59 125.36,388.83 113.39,389.67 101.4,389.7 89.41,389.05 77.47,387.85 62.62,385.77 47.84,383.24 0.76,373.88"   /><polyline id="SvgjsPolyline5932" points="298.28,384.53 295.9,375.86 292.95,367.36 290.67,361.81 286.73,353.72 282.16,345.97 278.73,341.05 274.99,336.36 270.93,331.94 266.56,327.83 261.89,324.07 256.92,320.7 251.7,317.75 246.25,315.26 237.8,312.16 232.01,310.6 226.11,309.5 217.15,308.71 208.16,308.88 199.22,309.93 190.4,311.7 181.71,314.05 173.15,316.84 136.7,330.68 122.5,335.51 105.11,340.14 96.27,341.86 87.37,343.17 78.41,344.06 69.43,344.54 60.43,344.66 48.44,344.31 24.53,342.2 0.77,338.83"   /><polyline id="SvgjsPolyline5933" points="298.97,387.96 295.55,376.46 290.69,365.5 287.69,360.31 284.28,355.37 278.34,348.62 271.42,342.88 263.61,338.45 255.1,335.54 246.21,334.22 240.21,334.18 231.28,335.22 225.43,336.51 216.8,339.09 202.82,344.5 167.61,361.26 153.76,367.02 142.39,370.86 133.7,373.2 124.89,375.02 115.99,376.34 104.03,377.33 92.04,377.53 80.05,377.05 68.09,376.03 41.35,372.3 0.07,364.57"   /><polyline id="SvgjsPolyline5934" points="298.83,387.06 297.39,381.24 294.7,372.65 290.15,361.55 285.98,353.58 282.81,348.49 279.31,343.61 275.48,339 271.3,334.69 266.79,330.74 261.96,327.18 256.84,324.07 251.45,321.44 245.84,319.32 240.05,317.73 234.15,316.68 228.17,316.15 219.18,316.28 210.25,317.39 201.46,319.31 192.83,321.86 184.34,324.85 148.23,339.58 134.16,344.76 125.57,347.47 116.88,349.79 108.08,351.69 99.2,353.15 90.26,354.16 78.28,354.84 69.28,354.91 57.29,354.47 45.33,353.53 33.41,352.19 0.8,347.13"   /><polyline id="SvgjsPolyline5935" points="296.73,381.99 294.03,376.63 290.54,371.76 286.16,367.68 283.64,366.05 280.94,364.76 275.14,363.28 269.15,363.2 263.25,364.26 254.8,367.32 246.83,371.49 234.25,379.66 207.21,398.56 196.92,404.74 188.91,408.83 177.8,413.36 166.27,416.68 154.46,418.76 142.5,419.7 130.5,419.67 121.52,419.12 109.59,417.84 94.77,415.57 71.21,410.96 24.36,400.53 0.86,395.69"   /><polyline id="SvgjsPolyline5936" points="299.83,390.47 297.17,345.55 294.42,312.67 292.79,297.75 290.76,282.89 288.7,271.07 286.78,262.28 284.46,253.59 281.61,245.05 278.12,236.76 275.39,231.42 270.66,223.76 267.1,218.94 261.21,212.14 254.78,205.84 245.58,198.14 230.89,187.74 218.14,179.85 199.78,169.66 180.99,160.29 161.84,151.65 142.38,143.78 125.44,137.7 108.26,132.33 93.76,128.47 76.17,124.69 61.35,122.34 46.44,120.78 31.46,120.04 16.46,120.14 1.49,121.01"   /><polyline id="SvgjsPolyline5937" points="300.82,389.19 305.58,350.49 308.99,326.73 312.94,306.11 316.94,291.66 319.03,286.04 321.55,280.59 326.1,272.83 329.88,268.18 332.06,266.12 337.01,262.75 339.74,261.5 345.5,259.85 351.45,259.2 360.44,259.57 372.26,261.6 383.87,264.62 409.52,273.04 454.62,289.47 480.13,298.31 503.04,305.47 523.31,310.95 543.81,315.49 561.56,318.47 579.45,320.48 597.42,321.43"   /><polyline id="SvgjsPolyline5938" points="300.03,389.2 300.83,287.2 301.52,257.21 302.25,242.23 303.55,230.3 305,224.49 306.3,221.79 308.37,219.65 311.16,218.62 314.15,218.57 317.11,219.06 322.87,220.74 328.49,222.84 345.01,229.98 402.28,256.23 429.81,268.13 446.5,274.9 463.32,281.29 488.88,289.98 503.27,294.23 517.79,297.99 532.44,301.18 544.26,303.26 556.15,304.9 571.08,306.26 583.07,306.79 598.07,306.74"   /><polyline id="SvgjsPolyline5939" points="300.36,380.08 301.62,335.09 302.96,302.12 304.6,278.18 306.41,263.29 307.51,257.39 309.02,251.59 311.27,246.03 312.83,243.48 314.79,241.21 319.52,237.54 322.21,236.22 325.1,235.44 331.08,235.13 337.03,235.88 345.77,238.02 354.33,240.79 371.16,247.17 423.79,269.06 451.68,280.11 479.92,290.22 505.74,298.13 529.03,303.88 540.81,306.2 552.65,308.09 573.53,310.31 585.52,310.9 597.52,310.99"   /><polyline id="SvgjsPolyline5940" points="585.17,599.83 599.87,596.84"   /><polyline id="SvgjsPolyline5941" points="298.77,385.42 295.72,370.73 292.71,359.12 289.18,347.65 285.08,336.37 281.6,328.07 276.35,317.29 270.35,306.89 265.34,299.42 258.07,289.87 252.2,283.05 245.93,276.6 236.98,268.61 229.86,263.1 219.9,256.43 212.09,251.94 201.32,246.67 192.99,243.27 184.47,240.36 175.8,237.95 167,236.06 158.11,234.69 149.15,233.86 140.16,233.56 131.16,233.76 116.23,235.12 101.42,237.54 86.77,240.73 54.75,248.71 37.19,252.69 19.48,255.85 1.6,257.95"   /><polyline id="SvgjsPolyline5942" points="299.15,384.42 297.2,366.53 294.48,345.71 292.17,330.89 289.45,316.14 286.88,304.42 283.86,292.8 280.27,281.36 277.12,272.92 272.4,261.89 268.35,253.86 263.8,246.09 258.75,238.65 253.22,231.55 245.16,222.66 238.68,216.42 229.55,208.63 217.52,199.67 204.97,191.47 192.01,183.92 176.01,175.67 162.38,169.42 145.69,162.69 128.66,156.85 114.24,152.73 99.63,149.36 87.81,147.25 75.92,145.69 60.96,144.57 45.96,144.36 33.97,144.84 19.03,146.14 1.2,148.54"   /><polyline id="SvgjsPolyline5943" points="297.85,379.28 295.57,367.5 292.17,352.89 288.99,341.32 284.35,327.06 280.01,315.87 275.05,304.95 269.39,294.37 264.66,286.71 257.7,276.94 251.99,269.99 243.77,261.25 237.18,255.12 227.89,247.53 218.18,240.47 208.06,234.03 197.55,228.24 186.71,223.11 175.56,218.67 167.03,215.8 155.46,212.62 146.66,210.73 134.81,208.9 125.85,208.06 113.86,207.64 104.86,207.83 95.88,208.43 83.96,209.79 75.07,211.18 57.4,214.63 19.33,223.07 1.64,226.39"   /><polyline id="SvgjsPolyline5944" points="298.7,381.77 293.91,349.12 291.15,334.38 287.91,319.73 284.03,305.25 280.36,293.82 276.06,282.62 272.36,274.42 266.75,263.81 261.99,256.17 256.78,248.84 251.13,241.84 245.07,235.18 236.44,226.85 227.27,219.11 217.66,211.92 205.14,203.67 194.78,197.62 181.48,190.69 167.83,184.48 151.06,177.95 136.82,173.21 122.35,169.29 110.61,166.78 98.77,164.87 83.85,163.36 71.86,162.88 59.86,163.01 47.88,163.74 32.97,165.38 18.15,167.64 0.44,170.87"   /><polyline id="SvgjsPolyline5945" points="299.19,387.12 296.82,372.31 293.94,357.59 290.53,342.98 286.5,328.53 282.75,317.14 278.44,305.94 273.49,295.01 267.83,284.43 261.43,274.28 256.13,267.01 250.42,260.05 242.22,251.3 235.65,245.14 226.42,237.48 216.71,230.43 206.59,223.99 196.11,218.15 185.32,212.9 171.45,207.21 160.08,203.36 148.51,200.19 136.76,197.73 124.89,196.01 112.94,194.9 103.95,194.52 91.95,194.65 79.98,195.47 68.07,196.88 47.37,200.44 0.38,210.21"   /><polyline id="SvgjsPolyline5946" points="296.86,378.44 294.28,369.82 291.23,361.35 285,347.72 280.52,339.91 277.21,334.91 271.73,327.77 267.73,323.3 263.47,319.08 256.57,313.3 251.67,309.85 246.53,306.75 238.45,302.79 232.85,300.65 227.1,298.92 221.25,297.61 209.36,296.01 200.37,295.69 191.39,296.18 179.52,297.93 170.74,299.92 159.21,303.22 122.35,315.98 105.16,321.29 90.58,324.82 75.8,327.33 60.87,328.78 42.88,329.18 21.91,328.14 1.03,325.89"   /><polyline id="SvgjsPolyline5947" points="296.33,374.73 294,366.04 290.34,354.61 286.03,343.41 282.32,335.21 278.18,327.23 271.93,316.99 266.68,309.68 260.94,302.75 254.72,296.24 248.05,290.21 240.95,284.68 233.45,279.7 225.61,275.28 217.53,271.34 209.2,267.92 200.65,265.11 188.98,262.36 177.09,260.77 165.1,260.31 150.14,261.21 138.26,262.95 126.52,265.4 111.99,269.14 77.35,278.93 65.7,281.81 53.96,284.26 42.11,286.2 27.21,287.83 15.23,288.5 0.23,288.59"   /><polyline id="SvgjsPolyline5948" points="299.28,388.79 297.49,379.97 294.48,368.35 291.79,359.77 287.59,348.53 282.65,337.59 278.41,329.66 273.69,322 268.46,314.67 262.72,307.74 256.48,301.26 249.77,295.27 242.6,289.83 235.03,284.97 227.09,280.74 218.83,277.17 210.31,274.28 198.63,271.53 186.73,270.06 174.74,269.83 162.78,270.75 150.93,272.63 136.3,275.94 124.72,279.09 84.44,290.98 72.79,293.85 61.03,296.24 46.19,298.42 31.25,299.67 16.25,300.03 1.26,299.6"   /><polyline id="SvgjsPolyline5949" points="299.93,390.09 298.89,339.1 297.68,300.12 296.22,273.16 294.07,252.28 292.55,243.41 291.18,237.57 288.6,228.95 286.38,223.38 283.6,218.06 280.26,213.08 276.4,208.49 272.15,204.26 262.83,196.71 250.35,188.39 232.17,177.88 213.58,168.13 191.98,157.65 167.33,146.65 147.89,138.71 125.36,130.45 108.23,124.93 93.79,120.87 76.27,116.73 61.52,113.99 46.66,111.97 31.72,110.73 16.72,110.29 1.73,110.65"   /><polyline id="SvgjsPolyline5950" points="299.69,388.88 296.43,347.01 292.83,314.2 290.64,299.37 288.49,287.56 285.84,275.86 283.43,267.19 280.57,258.66 277.16,250.33 273.16,242.27 268.51,234.57 263.25,227.27 257.43,220.4 251.14,213.97 244.47,207.94 232.69,198.65 220.31,190.18 204.92,180.86 189.07,172.31 172.88,164.47 156.37,157.3 139.57,150.85 122.48,145.17 108.04,141.12 93.43,137.75 78.66,135.14 63.77,133.37 48.8,132.48 33.8,132.39 18.81,133.05 0.9,134.79"   /><polyline id="SvgjsPolyline5951" points="299.96,370.95 299.63,265.95 298.83,229.96 297.88,221.01 297.22,218.09 295.26,212.42 293.9,209.75 292.15,207.31 290.09,205.14 282.9,199.74 267.29,190.79 243.27,178.46 213.58,164.07 191.77,154.04 167,143.31 144.71,134.41 124.96,127.26 107.84,121.72 90.52,116.83 75.93,113.35 61.2,110.49 46.36,108.31 31.43,106.89 16.45,106.26 1.45,106.42"   /><polyline id="SvgjsPolyline5952" points="300,14.81 300.1,146.81 300.53,188.8 301.05,194.78 301.76,197.69 303.06,200.39 304.88,202.77 307.02,204.86 314.13,210.37 327.06,217.97 353.72,231.71 383.41,246.13 407.93,257.43 432.7,268.16 454.99,277.06 474.73,284.22 491.85,289.78 509.17,294.68 523.75,298.17 538.47,301.06 553.31,303.25 568.24,304.69 583.22,305.35 598.22,305.22"   /><polyline id="SvgjsPolyline5953" points="297.94,381.29 295.28,369.59 292.08,358.03 289.31,349.47 285.09,338.23 280.19,327.28 276.05,319.29 269.83,309.03 264.64,301.68 258.99,294.67 252.9,288.05 246.38,281.85 237.07,274.29 227.13,267.57 219.31,263.12 211.21,259.2 202.87,255.82 197.2,253.87 188.53,251.44 182.67,250.14 173.79,248.7 167.83,248.07 155.85,247.41 146.85,247.51 137.87,248.14 125.98,249.7 111.26,252.58 96.69,256.15 64.8,264.63 44.31,269.22 23.56,272.44 2.63,274.04"   /><polyline id="SvgjsPolyline5954" points="297.88,379.93 294.81,365.25 291.87,353.62 288.48,342.11 284.57,330.76 280.09,319.63 274.95,308.79 270.63,300.9 264.21,290.76 258.9,283.49 251.17,274.32 242.73,265.79 235.98,259.84 226.47,252.52 219.01,247.5 208.65,241.45 197.89,236.13 186.79,231.58 178.27,228.69 169.6,226.27 160.82,224.33 151.93,222.88 142.99,221.93 131,221.33 122,221.35 107.04,222.38 89.24,224.99 74.54,227.98 27.77,238.78 13.02,241.52 1.15,243.25"   /><polyline id="SvgjsPolyline5955" points="300,16.33 299.21,121.33 298.73,145.32 297.98,163.31 296.8,175.24 295.45,181.08 294.21,183.81 292.21,186.03 289.54,187.37 283.66,188.44 280.66,188.36 274.78,187.22 266.22,184.45 252.3,178.85 194.76,153.2 161.6,139.18 130.76,127.46 116.56,122.63 102.23,118.19 87.76,114.22 76.09,111.43 61.39,108.48 49.54,106.6 37.62,105.18 25.66,104.25 13.67,103.83 1.67,103.91"   /><polyline id="SvgjsPolyline5956" points="299.68,19.86 300.06,16.89 299.5,13.94 298.41,11.15 295.58,10.23 292.75,11.18 290.25,12.83 285.75,16.79 279.78,23.52 274.43,30.75 260.91,50.58 253.84,60.28 246.14,69.48 239.79,75.85 235.23,79.74 230.37,83.27 222.57,87.74 217.06,90.1 211.35,91.95 205.5,93.3 199.57,94.17 190.59,94.72 178.6,94.29 166.69,92.88 154.87,90.8 131.49,85.39 76.5,70.41 50.32,63.81 23.9,58.26 0.18,54.61"   /><polyline id="SvgjsPolyline5957" points="299.88,15.69 300.39,21.66 303.18,22.67 305.85,21.33 310.14,17.15 313.86,12.45 320.54,2.48"   /><polyline id="SvgjsPolyline5958" points="300.51,20.68 302.62,26.28 304.26,28.79 306.41,30.88 309.06,32.27 314.95,33.33 317.95,33.28 320.9,32.73 323.75,31.81 329.13,29.18 336.54,24.08 345.64,16.26 360.84,1.77"   /><polyline id="SvgjsPolyline5959" points="298.55,19.75 300.34,17.46 301.14,14.56 298.27,14.62 296.27,16.85 293.15,21.97 289.23,30.07 276.17,60.37 271.12,71.26 263.98,84.45 257.2,94.34 253.32,98.91 249.05,103.12 241.87,108.54 233.85,112.59 228.15,114.46 222.28,115.69 213.32,116.5 204.33,116.32 192.41,114.98 180.61,112.78 157.34,106.92 94.12,87.97 62.25,79.42 44.69,75.48 29.95,72.73 15.11,70.54 0.19,68.97"   /><polyline id="SvgjsPolyline5960" points="300.55,14.49 299.94,17.42 300.39,20.39 301.79,26.22 304.75,34.71 307.29,40.15 310.31,45.33 313.72,50.27 317.45,54.96 321.64,59.26 326.27,63.07 333.98,67.69 342.42,70.77 351.29,72.22 357.28,72.31 363.26,71.78 369.16,70.7 377.82,68.27 391.74,62.7 423.96,46.64 440.42,39.36 448.87,36.28 460.39,32.92 469.18,31.01 478.07,29.63 490.03,28.59 502.02,28.36 514.01,28.83 525.97,29.87 540.84,31.77 555.65,34.16 599.84,42.68"   /><polyline id="SvgjsPolyline5961" points="300.59,22.24 302.7,34.05 306.06,48.67 309.28,60.23 313.95,74.48 318.21,85.7 323.05,96.68 328.54,107.34 334.73,117.62 339.85,125.02 347.31,134.42 355.47,143.21 362.02,149.38 368.91,155.18 378.57,162.3 388.7,168.71 399.26,174.42 410.18,179.39 418.58,182.62 427.13,185.42 438.74,188.44 447.57,190.16 459.47,191.7 468.45,192.29 477.45,192.4 486.44,192.06 495.41,191.3 513.22,188.71 527.92,185.74 571.77,175.64 586.5,172.81 598.36,171"   /><polyline id="SvgjsPolyline5962" points="300.62,24.68 304.82,60.44 309.62,90.05 313.35,107.65 316.28,119.29 319.73,130.78 322.74,139.26 327.39,150.32 331.43,158.36 335.97,166.13 341.01,173.58 346.55,180.68 354.61,189.56 361.1,195.79 370.24,203.57 382.28,212.51 394.84,220.71 407.81,228.25 423.8,236.51 437.43,242.77 454.11,249.52 468.27,254.48 485.53,259.56 500.13,262.98 514.9,265.6 529.8,267.35 541.77,268.09 553.77,268.24 568.76,267.65 580.71,266.61 598.56,264.27"   /><polyline id="SvgjsPolyline5963" points="300.32,24.49 302.82,69.41 305.44,102.31 308.73,129.1 310.25,137.97 312.76,149.71 315.03,158.42 317.83,166.97 321.27,175.28 323.98,180.63 328.69,188.3 332.26,193.12 338.16,199.91 344.61,206.19 353.84,213.85 366.05,222.56 381.33,232.06 399.71,242.22 418.51,251.58 437.65,260.21 457.11,268.1 476.89,275.16 494.09,280.44 508.61,284.22 523.28,287.35 538.08,289.77 552.99,291.4 567.96,292.21 582.96,292.18 597.94,291.38"   /><polyline id="SvgjsPolyline5964" points="300.18,27.68 301.35,84.67 302.58,120.65 304.06,144.6 306.09,162.48 307.75,171.33 309.27,177.13 311.23,182.8 313.59,188.31 316.38,193.62 319.74,198.59 323.6,203.18 327.87,207.39 337.21,214.92 349.7,223.22 367.88,233.72 386.49,243.46 408.08,253.93 432.74,264.93 452.18,272.86 474.71,281.12 494.72,287.49 509.19,291.45 523.8,294.83 538.55,297.57 553.41,299.59 568.36,300.83 583.35,301.26 598.34,300.91"   /><polyline id="SvgjsPolyline5965" points="300.53,14.97 299.21,17.66 297.48,23.4 288.45,61.34 283.15,81.66 278.59,95.95 274.09,107.07 271.41,112.44 268.35,117.6 264.83,122.45 260.75,126.84 256.07,130.59 250.85,133.54 248.08,134.67 242.3,136.28 236.36,137.1 227.37,137.16 218.42,136.23 206.63,134 195,131.05 183.49,127.67 109.42,103.21 92.19,98.03 74.82,93.32 54.35,88.6 36.65,85.39 18.8,83.07 0.85,81.75"   /><polyline id="SvgjsPolyline5966" points="299.19,23.05 294.83,61.81 291.68,85.6 288.01,106.27 286.03,115.05 283.66,123.73 279.47,134.97 276.69,140.28 273.23,145.18 268.96,149.37 266.5,151.1 263.86,152.52 258.19,154.44 252.25,155.25 243.27,154.98 231.45,152.94 219.85,149.88 197.07,142.34 149.23,124.66 123.77,115.68 98.03,107.53 77.76,102.03 57.26,97.49 36.54,94.11 18.63,92.3 0.65,91.55"   /><polyline id="SvgjsPolyline5967" points="299.68,22.98 297.44,64.92 295.4,94.85 293.34,115.75 290.6,133.53 288.53,142.29 285.65,150.81 283.17,156.27 281.63,158.84 277.73,163.38 275.33,165.19 272.69,166.59 269.85,167.56 263.92,168.4 257.93,168.15 249.07,166.61 237.51,163.4 214.92,155.32 167.53,136.47 136.67,124.79 111.1,116.11 88.07,109.38 67.64,104.5 55.86,102.22 44.01,100.36 23.12,98.19 2.14,97.52"   /><polyline id="SvgjsPolyline5968" points="299.93,20.44 298.53,80.43 297.6,107.41 296.28,131.37 294.5,149.28 292.23,161.06 290.28,166.73 288.89,169.39 287.11,171.8 282.66,175.8 280.05,177.27 277.19,178.16 271.22,178.53 265.27,177.76 256.55,175.54 248.01,172.7 228.46,165.06 175.93,142.92 148.06,131.83 119.81,121.72 93.99,113.84 70.68,108.14 58.9,105.85 47.05,103.98 26.17,101.83 14.18,101.28 2.18,101.23"   /><polyline id="SvgjsPolyline5969" points="299.39,13.46 297.17,7.9 295.45,5.44 293.2,3.47 290.45,2.27 287.48,1.93 281.53,2.67 275.88,4.64 270.67,7.61 263.5,13.03 256.81,19.05 233.1,42 223.88,49.68 216.54,54.88 206.09,60.77 197.79,64.24 192.08,66.06 186.25,67.48 174.38,69.21 165.4,69.64 153.4,69.27 141.47,68.08 126.65,65.74 100.25,60.12 33.19,43.86 18.51,40.77 0.8,37.55"   /><polyline id="SvgjsPolyline5970" points="296.91,8.29 294.59,6.38 291.68,5.71 288.71,6.11 285.91,7.17 283.29,8.62 278.49,12.21 269.96,20.65 250.48,43.46 242.42,52.35 233.78,60.66 224.31,68.03 216.62,72.69 208.43,76.42 199.86,79.15 194,80.42 188.06,81.28 179.09,81.88 167.09,81.6 155.16,80.4 140.35,77.99 116.92,72.83 61.72,58.59 41.31,53.69 20.75,49.37 0.05,45.89"   /><polyline id="SvgjsPolyline5971" points="299.53,12.7 296.58,12.8 294.15,14.55 290.22,19.07 283.77,29.18 270.77,52.84 263.09,65.72 256.18,75.53 248.34,84.6 244.07,88.82 239.46,92.66 231.93,97.57 223.72,101.24 217.98,102.97 212.1,104.15 203.14,104.99 191.15,104.76 179.23,103.41 167.42,101.3 155.71,98.67 141.18,94.93 86.38,79.27 57.36,71.68 42.73,68.37 28.01,65.48 13.2,63.11 1.29,61.62"   /><polyline id="SvgjsPolyline5972" points="302.92,25.85 305.29,27.69 308.23,28.17 311.17,27.6 313.92,26.4 316.48,24.84 321.17,21.1 327.56,14.77 339.34,1.17"   /><polyline id="SvgjsPolyline5973" points="299.12,19.96 301.14,17.8 302.42,15.09 307.31,0.91"   /><polyline id="SvgjsPolyline5974" points="300.68,21.5 302.51,27.21 305.17,32.58 308.8,37.35 311.02,39.36 313.51,41.03 316.23,42.28 319.12,43.09 322.1,43.45 325.09,43.4 331.04,42.61 333.96,41.94 339.62,39.96 345.03,37.36 350.21,34.33 360.09,27.53 384.03,9.45 396.56,1.22"   /><polyline id="SvgjsPolyline5975" points="298.72,16.71 296.26,22.18 294.23,27.83 283.34,62.14 278.33,76.28 273.69,87.34 268.13,97.97 264.86,103 261.19,107.74 252.65,116.16 247.77,119.64 245.16,121.12 239.66,123.51 233.9,125.15 224.98,126.33 215.99,126.32 207.03,125.45 195.21,123.39 183.53,120.65 169.08,116.64 103.25,95.95 85.97,90.91 68.57,86.31 51.03,82.29 33.33,78.99 18.48,76.89 0.56,75.24"   /><polyline id="SvgjsPolyline5976" points="300.28,19.73 301.71,25.56 304.95,33.95 309.55,41.67 313.48,46.19 318.15,49.95 323.47,52.7 329.25,54.27 338.23,54.73 344.19,54.17 350.04,52.85 355.72,50.93 363.94,47.25 374.42,41.42 405.04,22.5 412.96,18.22 421.1,14.38 429.46,11.06 438.04,8.34 446.79,6.25 455.67,4.8 467.63,3.78 479.62,3.69 491.6,4.36 506.51,6.01 521.33,8.32 536.07,11.08 597.72,24.08"   /><polyline id="SvgjsPolyline5977" points="300.31,20.05 301.49,25.93 303.82,34.63 306.74,43.14 309.01,48.69 312.94,56.79 315.91,61.99 319.2,67.02 324.72,74.12 330.88,80.67 335.26,84.77 342.36,90.3 347.42,93.53 355.43,97.61 361.02,99.79 366.76,101.52 372.63,102.79 381.56,103.84 390.55,103.92 399.51,103.11 411.3,100.87 419.98,98.51 428.54,95.73 465.04,81.99 479.26,77.21 496.66,72.65 511.43,70.05 520.38,69.05 529.36,68.46 541.35,68.24 550.35,68.47 571.29,70.06 598.04,73.64"   /><polyline id="SvgjsPolyline5978" points="301.44,25.42 304.92,36.9 309.67,47.91 312.55,53.17 315.8,58.21 319.43,62.99 323.45,67.45 330.2,73.38 335.17,76.73 340.47,79.54 348.92,82.63 354.78,83.9 360.72,84.7 366.71,85.08 375.69,84.65 384.57,83.19 393.27,80.9 407.38,75.82 440.32,61.31 457.08,54.75 465.65,51.99 474.34,49.65 483.14,47.78 492.03,46.38 500.98,45.46 512.97,44.92 524.96,45.07 536.94,45.8 548.88,47 563.74,49.02 599.21,55.18"   /><polyline id="SvgjsPolyline5979" points="314.12,50.2 318.3,54.5 323.05,58.16 328.31,61.03 331.1,62.13 336.9,63.64 342.86,64.24 348.86,63.99 354.78,63.04 363.42,60.56 377.26,54.79 387.92,49.28 416.79,33.3 424.89,29.37 433.16,25.84 441.63,22.79 453.19,19.59 464.99,17.42 476.93,16.24 485.92,15.95 497.92,16.24 509.88,17.16 521.8,18.59 536.62,20.89 551.37,23.59 598.4,33.19"   /><polyline id="SvgjsPolyline5980" points="301.06,24.47 302.99,33.26 306.22,44.82 310.16,56.15 313.62,64.45 317.53,72.56 321.94,80.4 326.86,87.94 332.31,95.09 338.3,101.81 344.69,108.15 351.49,114.04 358.74,119.37 366.39,124.1 374.4,128.2 382.72,131.63 391.29,134.36 400.06,136.38 411.95,137.95 423.94,138.26 435.91,137.42 447.77,135.6 459.48,132.99 473.94,129 511.28,117.76 525.83,114.13 537.6,111.8 552.45,109.7 567.41,108.55 582.4,108.29 597.39,108.81"   /><polyline id="SvgjsPolyline5981" points="300.97,25.95 303.72,43.74 306.5,58.48 309.06,70.2 312.77,84.73 316.23,96.22 321.3,110.33 326.06,121.35 330.09,129.39 337.71,142.31 342.73,149.78 348.16,156.95 356.02,166.02 362.34,172.43 371.26,180.45 380.68,187.88 390.52,194.75 400.71,201.08 413.88,208.25 427.46,214.62 438.59,219.11 449.92,223.07 464.34,227.19 476.05,229.81 487.88,231.77 499.81,233.06 511.79,233.66 523.79,233.59 535.77,232.89 547.7,231.62 562.53,229.39 597.87,222.52"   /><polyline id="SvgjsPolyline5982" points="301.19,25.58 303.66,37.32 306.71,48.92 310.33,60.36 314.57,71.59 319.48,82.53 323.66,90.5 328.28,98.23 333.36,105.65 340.86,115.02 347.01,121.58 353.6,127.71 360.59,133.38 370.44,140.23 378.13,144.9 386.1,149.07 397.13,153.79 411.43,158.29 417.28,159.65 426.14,161.18 432.1,161.88 441.08,162.43 450.08,162.41 459.06,161.85 470.97,160.37 485.7,157.55 500.27,154 535.05,144.71 555.56,140.19 576.32,137.07 597.26,135.59"   /><polyline id="SvgjsPolyline5983" points="303.04,37.87 306.01,52.57 309.53,67.15 312.81,78.7 316.56,90.09 320.87,101.29 325.81,112.23 331.45,122.82 336.16,130.48 343.1,140.27 348.79,147.24 354.87,153.87 363.54,162.17 372.77,169.83 380.02,175.16 390.07,181.71 400.51,187.64 411.25,192.98 422.24,197.81 433.48,201.99 442.07,204.69 453.69,207.67 462.51,209.44 474.39,211.13 486.35,212.05 498.35,212.22 507.34,211.86 516.31,211.13 528.22,209.64 545.95,206.54 598.8,195.48"   /><polyline id="SvgjsPolyline5984" points="300.83,23.73 303.05,35.52 306.55,50.1 309.9,61.63 313.79,72.98 318.28,84.1 323.44,94.93 329.33,105.39 334.26,112.92 339.62,120.14 345.42,127.02 351.64,133.52 360.54,141.56 367.64,147.1 377.59,153.79 388.05,159.68 396.18,163.54 404.52,166.91 413.05,169.77 421.74,172.11 433.51,174.46 442.42,175.72 451.39,176.45 460.38,176.65 469.38,176.35 484.3,174.83 499.08,172.28 513.71,169.01 551.56,159.59 569.18,155.91 583.99,153.56 598.91,151.98"   /><polyline id="SvgjsPolyline5985" points="301.65,29.4 304.42,44.14 307.79,58.76 310.93,70.34 315.52,84.62 319.8,95.83 324.71,106.77 330.31,117.39 334.99,125.07 341.89,134.88 347.55,141.88 355.71,150.67 362.26,156.85 369.13,162.66 378.75,169.82 388.84,176.33 399.32,182.17 410.14,187.34 421.27,191.82 432.67,195.57 441.36,197.9 453.11,200.31 462.02,201.59 470.98,202.41 482.98,202.78 491.97,202.54 500.95,201.89 518.79,199.52 539.4,195.49 580.39,186.38 598.09,183.1"   /><polyline id="SvgjsPolyline5986" points="301.21,29.2 303.55,47.04 306.35,64.82 309.1,79.57 312.34,94.21 315.38,105.82 318.93,117.28 321.99,125.75 326.68,136.79 332.15,147.47 336.8,155.17 341.91,162.58 349.43,171.93 355.53,178.54 364.23,186.81 371.1,192.62 380.65,199.88 393.11,208.23 406.04,215.83 419.36,222.72 433.01,228.93 446.97,234.42 461.18,239.2 475.61,243.32 487.3,246 499.11,248.1 511.02,249.6 525.99,250.58 537.98,250.66 549.97,250.13 564.9,248.72 579.76,246.63 597.48,243.52"   /><polyline id="SvgjsPolyline5987" points="300.37,23.62 303.83,68.48 307.48,101.28 311.37,124.95 314,136.66 316.4,145.34 319.26,153.87 322.67,162.2 326.69,170.24 331.36,177.93 336.66,185.21 342.51,192.04 348.83,198.44 355.54,204.44 367.36,213.67 379.77,222.1 395.19,231.38 411.05,239.89 427.26,247.72 443.77,254.88 460.57,261.33 477.65,267.02 492.08,271.09 506.69,274.48 521.46,277.12 536.35,278.93 551.31,279.86 569.31,279.9 584.29,279.13 599.21,277.64"   /><polyline id="SvgjsPolyline5988" points="260.91,0.12 253.36,5.01 248.52,8.55 225.24,27.48 218.09,32.94 210.69,38.06 202.97,42.69 194.92,46.71 183.7,50.94 174.99,53.2 163.14,55.03 151.16,55.66 139.17,55.31 127.22,54.19 112.38,52.01 91.77,47.99 33.32,34.46 0.99,27.83"   /><polyline id="SvgjsPolyline5989" points="302.4,26.55 305.31,31.79 307.23,34.09 309.5,36.05 312.09,37.55 314.94,38.49 317.91,38.87 320.91,38.75 326.73,37.36 329.52,36.25 334.83,33.47 342.29,28.44 349.34,22.85 374.51,1.52"   /><polyline id="SvgjsPolyline5990" points="305.32,33.94 308.56,38.99 312.63,43.38 317.55,46.8 320.28,48.03 323.15,48.91 329.09,49.63 332.09,49.51 337.99,48.48 346.47,45.5 357.08,39.9 364.66,35.05 389.35,18.01 399.58,11.74 412.92,4.89 424.04,0.4"   /><polyline id="SvgjsPolyline5991" points="544.37,0.51 576.55,7.79 597.13,12.01"   /><polyline id="SvgjsPolyline5992" points="303.09,32.96 305.62,41.6 308.63,50.08 312.13,58.37 316.15,66.42 320.72,74.17 324.1,79.13 329.66,86.2 333.71,90.63 340.27,96.78 344.96,100.52 349.89,103.94 357.69,108.42 363.13,110.94 368.74,113.08 374.48,114.83 383.24,116.89 392.14,118.17 404.13,118.56 413.1,117.94 424.95,116.08 433.72,114.05 445.25,110.72 479.32,99.09 496.52,93.79 511.08,90.21 525.85,87.62 543.77,85.9 558.76,85.56 576.74,86.27 597.65,88.27"   /><polyline id="SvgjsPolyline5993" points="310.58,51.4 316.48,61.84 321.76,69.13 327.8,75.79 332.26,79.81 337.03,83.43 344.76,88.04 353.05,91.53 361.74,93.82 370.67,94.91 376.67,95 385.63,94.28 391.55,93.29 400.3,91.19 408.93,88.62 417.42,85.65 450.76,72.08 467.66,65.89 476.27,63.27 484.99,61.04 499.73,58.29 508.67,57.24 520.65,56.5 532.64,56.44 541.64,56.79 556.59,57.99 568.5,59.4 598.14,64.04"   /><polyline id="SvgjsPolyline5994" points="299.9,15.12 300.03,18.11 300.94,24.05 303.42,35.78 307.43,50.24 311.34,61.58 314.72,69.92 319.87,80.76 325.82,91.17 330.84,98.64 336.35,105.76 342.34,112.47 348.8,118.74 355.69,124.52 363,129.77 370.67,134.47 378.68,138.58 389.79,143.1 401.29,146.48 407.16,147.73 416.06,149.04 422.04,149.54 431.04,149.75 446.02,149.02 457.91,147.43 472.6,144.4 487.1,140.6 524.63,129.99 545.13,125.43 559.95,123.13 571.89,121.93 586.87,121.21 598.87,121.23"   /><polyline id="SvgjsPolyline5995" points="311.52,58.79 318,72.31 322.57,80.06 325.91,85.04 331.38,92.19 335.34,96.7 341.72,103.04 346.27,106.95 353.5,112.3 358.58,115.49 369.27,120.93 374.84,123.15 383.44,125.81 395.21,128.1 404.17,128.88 413.17,128.89 422.14,128.19 433.99,126.3 454.37,121.25 491.51,109.38 505.91,105.17 520.5,101.68 535.27,99.09 550.18,97.51 565.17,96.89 580.16,97.13 598.12,98.35"   /><polyline id="SvgjsPolyline5996" points="301.35,28.44 303.76,43.25 306.64,57.97 310.02,72.58 313.15,84.16 316.75,95.61 320.88,106.88 325.64,117.89 331.1,128.57 337.3,138.84 342.45,146.22 349.97,155.57 358.18,164.32 366.99,172.46 373.96,178.16 383.64,185.24 393.73,191.74 404.16,197.67 414.89,203.03 428.68,208.93 439.98,212.98 451.48,216.4 463.15,219.17 474.97,221.24 486.89,222.58 495.88,223.11 507.88,223.17 519.86,222.55 531.79,221.32 546.64,219.19 558.45,217.07 599.59,208.61"   /><polyline id="SvgjsPolyline5997" points="238.73,0.96 209.32,21.71 199.11,28.02 191.16,32.22 182.92,35.85 171.54,39.65 162.78,41.67 150.89,43.31 138.91,43.85 126.92,43.49 114.97,42.42 100.11,40.34 76.53,35.88 23.82,24.16 0.31,19.34"   /><polyline id="SvgjsPolyline5998" points="219.5,0.02 196.67,14.42 186.09,20.09 177.89,23.79 166.6,27.84 157.9,30.13 149.05,31.77 137.12,33 128.13,33.29 116.13,32.93 104.18,31.91 89.31,29.91 65.7,25.63 1.14,11.94"   /><polyline id="SvgjsPolyline5999" points="195.57,1.11 185.04,6.86 176.94,10.79 168.64,14.27 160.14,17.23 151.47,19.6 142.64,21.38 133.72,22.56 121.75,23.29 112.75,23.28 100.77,22.63 88.83,21.41 76.95,19.75 53.32,15.53 0.44,4.59"   /><polyline id="SvgjsPolyline6000" points="169.44,0.98 155.43,6.34 140.97,10.27 126.16,12.66 117.19,13.37 108.2,13.61 90.22,12.87 69.36,10.49 48.64,7.05 13.33,0.05"   /><polyline id="SvgjsPolyline6001" points="130.33,0.02 115.51,2.24 106.53,2.91 97.53,3.12 79.55,2.41 58.68,0.11"   /></g></svg>