<?xml version="1.0" standalone="no"?>
<svg id="SvgjsSvg1001" width="600" height="600" xmlns="http://www.w3.org/2000/svg" version="1.1" xmlns:xlink="http://www.w3.org/1999/xlink" xmlns:svgjs="http://svgjs.com/svgjs" class="svg-paper" viewBox="0 0 600 600"><title id="SvgjsTitle5513">x=min((x+cos(exp(x))),sin(x))|y=sin(y)|dTest=0.0|sd=0.2|sm=0.2|ts=0.05 | generated with FlowLines</title><style>*{fill:none;stroke:#777}</style><g id="SvgjsG5514"><polyline id="SvgjsPolyline5515" points="192.73,599.33 182.26,588.58 175.72,582.41 168.86,576.59 159.26,569.39 149.18,562.87 141.36,558.43 130.63,553.06 119.62,548.28 108.39,544.05 97,540.29 82.58,536.18 68.01,532.61 53.33,529.5 35.63,526.27 0,521.08"   /><polyline id="SvgjsPolyline5516" points="209.69,599.21 180.16,569.35 173.5,563.3 168.84,559.52 161.56,554.23 151.36,547.92 140.7,542.41 132.47,538.77 121.26,534.5 106.96,529.96 92.45,526.16 77.8,522.95 60.09,519.72 42.3,517.02 21.46,514.39 0.58,512.19"   /><polyline id="SvgjsPolyline5517" points="175.66,598.96 166.51,591.2 159.39,585.7 149.56,578.82 141.95,574.01 131.52,568.07 123.51,563.97 115.36,560.15 104.31,555.49 93.07,551.28 81.69,547.48 58.6,540.95 32.27,534.98 2.74,529.67"   /><polyline id="SvgjsPolyline5518" points="226.44,599.13 192.52,565.16 183.93,556.78 177.2,550.81 170.01,545.4 162.43,540.56 154.52,536.27 143.58,531.34 132.33,527.18 117.96,522.89 103.37,519.39 85.7,515.98 67.91,513.23 47.07,510.62 26.18,508.5 2.26,506.52"   /><polyline id="SvgjsPolyline5519" points="156.76,598.78 141.66,588.99 125.99,580.14 109.82,572.24 90.44,564.16 70.63,557.21 50.5,551.22 24.3,544.72 0.79,539.88"   /><polyline id="SvgjsPolyline5520" points="242.95,599.75 231,586.28 218.6,573.24 205.69,560.7 190.02,546.72 180.75,539.11 173.31,534.05 165.45,529.66 154.51,524.74 143.2,520.73 128.76,516.71 114.1,513.53 96.36,510.51 75.53,507.78 54.64,505.63 30.72,503.7 0.78,501.81"   /><polyline id="SvgjsPolyline5521" points="135.44,599.25 119.49,590.92 105.91,584.55 92.11,578.67 75.29,572.26 58.24,566.5 38.11,560.52 20.7,555.97 0.24,551.24"   /><polyline id="SvgjsPolyline5522" points="257.35,599.3 246.71,584.79 237.16,573.22 226.92,562.26 216.01,551.97 202.1,540.55 187.46,530.09 177.22,523.85 166.3,518.88 154.95,514.98 140.44,511.22 122.76,507.86 107.91,505.72 84.05,503.11 63.12,501.4 36.18,499.7 0.22,498.03"   /><polyline id="SvgjsPolyline5523" points="108.94,599.16 83.97,588.89 58.54,579.84 32.73,571.92 0.8,563.6"   /><polyline id="SvgjsPolyline5524" points="270.07,597.88 261.41,582.1 253.17,569.57 243.84,557.84 233.37,547.11 221.86,537.49 214.54,532.26 206.95,527.42 191.17,518.78 183.04,514.91 177.49,512.65 166.05,509.01 154.38,506.27 136.63,503.25 118.76,501.1 94.85,499.03 67.9,497.39 1.95,494.93"   /><polyline id="SvgjsPolyline5525" points="76.94,599.06 59.91,593.25 42.74,587.83 19.68,581.2 2.26,576.65"   /><polyline id="SvgjsPolyline5526" points="282.65,598.28 275.84,578.42 269.74,564.72 265.4,556.84 262.17,551.78 254.86,542.28 246.39,533.79 241.76,529.97 234.4,524.8 229.26,521.7 221.29,517.53 207.49,511.66 193.29,506.84 178.83,502.84 164.09,500.09 143.24,497.61 116.32,495.63 86.35,494.24 50.36,493.15 2.37,492.21"   /><polyline id="SvgjsPolyline5527" points="39.26,599.32 1.6,589.2"   /><polyline id="SvgjsPolyline5528" points="294.46,597.87 291.72,574.03 288.72,556.28 285,541.76 283,536.1 280.59,530.61 277.67,525.37 274.17,520.5 270.06,516.13 267.8,514.17 260.33,509.18 254.94,506.54 249.35,504.36 243.63,502.55 234.9,500.35 220.16,497.61 199.33,494.93 172.44,492.6 145.46,491.43 112.47,490.67 1.48,489.66"   /><polyline id="SvgjsPolyline5529" points="289.78,599.23 285.37,578.71 281.1,564.33 277.86,555.94 275.33,550.5 271.07,542.57 267.82,537.53 264.17,532.77 260.13,528.34 255.7,524.29 250.93,520.65 245.88,517.41 240.62,514.54 229.62,509.76 215.35,505.15 197.84,500.96 180.14,497.7 159.28,495.34 132.34,493.63 99.36,492.43 48.37,491.38 0.37,490.81"   /><polyline id="SvgjsPolyline5530" points="306.07,599.71 308.64,578.87 311.69,561.13 315.34,546.59 319.53,535.36 323.8,527.44 327.31,522.58 331.19,518.01 347.48,500.38 351.83,496.26 356.55,492.56 359.16,491.08 361.96,490.02 364.89,489.39 370.87,488.92 487.87,488.5"   /><polyline id="SvgjsPolyline5531" points="300.21,598.85 300.64,538.86 301.04,520.86 301.67,508.88 302.38,502.92 303.97,497.15 305.59,494.65 307.96,492.82 310.73,491.7 313.65,491.01 319.6,490.24 355.56,488.66 487.56,488.5"   /><polyline id="SvgjsPolyline5532" points="297.96,598.9 296.72,571.93 295.09,550.99 293.04,536.14 291.79,530.27 290.12,524.51 286.58,516.24 283.48,511.11 281.58,508.8 279.44,506.69 274.59,503.18 271.95,501.76 266.39,499.49 260.64,497.8 254.78,496.5 236.97,493.96 216.04,492.26 183.08,490.65 129.09,489.6 0.09,489.01"   /><polyline id="SvgjsPolyline5533" points="318.33,598.04 324.26,581.05 335.95,553.42 354.05,505.75 356.62,500.32 359.81,495.25 361.86,493.07 364.34,491.4 367.15,490.37 370.1,489.83 379.08,489.28 487.08,488.5"   /><polyline id="SvgjsPolyline5534" points="302.54,597.72 303.88,573.75 305.43,555.82 307.01,543.93 309.47,532.19 312.39,523.68 314.98,518.27 318.14,513.18 322.15,508.73 324.45,506.81 329.5,503.57 340.02,497.81 350.82,492.58 356.43,490.45 362.28,489.17 377.26,488.63 488.26,488.5"   /><polyline id="SvgjsPolyline5535" points="414.64,599.45 422.75,590.61 432.35,579.08 441.37,567.1 449.88,554.75 457.95,542.1 465.67,529.24 487.67,489.99"   /><polyline id="SvgjsPolyline5536" points="297.67,300 348.67,300.05 354.67,300.24 357.61,300.83 360.21,302.3 362.36,304.39 370.93,316.69 374.88,321.2 377.13,323.18 382.16,326.44 395.57,333.16 405.88,339.29 413.27,344.42 418,348.11 426.93,356.12 435.07,364.94 444.08,376.92 451.88,389.72 458.67,403.1 465.76,419.64 472.02,436.51 479.54,459.3 488.34,487.98"   /><polyline id="SvgjsPolyline5537" points="299.8,599.68 299.33,536.68 298.79,518.69 298.05,509.72 296.83,503.86 295.61,501.12 293.75,498.77 289.01,495.12 286.31,493.81 280.54,492.22 268.63,490.77 253.65,489.99 232.66,489.46 163.66,488.8 1.66,488.59"   /><polyline id="SvgjsPolyline5538" points="300,299.76 300.22,473.76 300.68,479.73 303.75,484.82 306.33,486.32 309.24,487.01 315.21,487.59 327.2,488 366.2,488.49 486.2,488.5"   /><polyline id="SvgjsPolyline5539" points="301.57,302.11 328.63,338.06 333.17,345.82 337.96,356.82 342.47,371.12 346.54,388.65 349.79,406.35 356.4,447.83 359.3,462.54 360.85,468.34 362.98,473.94 366,479.12 367.98,481.36 370.46,483.04 373.25,484.12 376.18,484.78 382.14,485.47 421.11,486.97 475.09,488.22"   /><polyline id="SvgjsPolyline5540" points="330.66,598.86 336.08,584.87 341.51,567.71 346.15,550.32 353.99,518.27 357.31,506.74 360.69,498.41 362.26,495.85 364.24,493.62 366.73,491.95 369.55,490.94 372.49,490.38 378.47,489.88 402.46,489.36 471.46,488.64"   /><polyline id="SvgjsPolyline5541" points="397.58,599.53 410.27,586.76 420.54,575.83 440.13,553.12 460.46,527.12 486.91,490.72"   /><polyline id="SvgjsPolyline5542" points="431.69,598.62 439.11,589.19 445.94,579.33 452.24,569.12 459.44,555.96 466.04,542.5 472.18,528.81 487.95,489.88"   /><polyline id="SvgjsPolyline5543" points="299.29,302.35 309.99,267.97 316.79,248.11 323.3,231.32 331.67,212.07 336.91,198.01 343.15,177.96 354.99,134.55 359.1,123.29 362.14,118.14 364.26,116.01 366.84,114.5 369.7,113.63 372.66,113.15 378.64,112.72 486.64,111.52"   /><polyline id="SvgjsPolyline5544" points="298.48,300.97 328.71,281.42 333.36,277.64 335.45,275.49 339.12,270.75 342.1,265.55 344.5,260.05 346.45,254.38 348.76,245.68 352.05,227.99 355.15,204.19 360.05,159.46 362.67,141.66 363.9,135.78 365.54,130.02 368.04,124.57 369.85,122.19 372.14,120.26 374.79,118.87 380.58,117.34 386.54,116.61 425.45,114.11 488.4,111.51"   /><polyline id="SvgjsPolyline5545" points="297.68,298.9 327.35,313.35 332.54,316.36 334.94,318.15 339.22,322.35 342.69,327.23 345.41,332.57 347.54,338.18 349.96,346.84 353.25,364.54 355.87,385.37 361.36,439.09 363.95,456.9 365.21,462.77 366.92,468.51 369.54,473.9 371.42,476.23 373.75,478.11 376.41,479.48 379.25,480.43 385.15,481.55 391.11,482.21 426.99,485.14 483.9,488.27"   /><polyline id="SvgjsPolyline5546" points="299.82,300.04 326.2,294.28 331.93,292.5 334.67,291.29 337.27,289.81 342.09,286.23 344.26,284.16 346.15,281.84 349.15,276.65 351.32,271.06 352.95,265.28 354.77,256.47 356.15,247.58 358.55,226.72 363.52,172.95 366.34,152.14 368.27,143.36 370.16,137.67 372.99,132.39 374.93,130.1 377.24,128.19 379.84,126.71 382.63,125.6 388.44,124.13 403.19,121.39 418.02,119.15 438.86,116.55 483.62,111.97"   /><polyline id="SvgjsPolyline5547" points="303.65,300.31 327.55,302.47 333.48,303.33 339.28,304.85 342.03,306.05 344.55,307.67 346.76,309.7 350.47,314.41 351.99,316.99 354.26,322.53 355.88,328.31 358.53,343.07 360.65,360.94 365.51,411.71 366.96,423.62 368.85,435.47 370.86,444.24 372.75,449.93 375.39,455.31 377.12,457.76 379.16,459.95 381.5,461.83 384.08,463.36 389.62,465.65 400.98,469.52 415.4,473.64 444.65,480.32 485.93,488.04"   /><polyline id="SvgjsPolyline5548" points="298.28,300.01 334.28,299.78 346.27,299.38 349.25,299.01 352.13,298.18 354.64,296.56 356.6,294.29 358.1,291.7 360.48,286.19 362.32,280.48 365.02,268.79 370.82,239.36 374.57,224.84 376.52,219.17 378.87,213.65 383.5,205.95 387.48,201.47 400.31,188.84 426.66,164.32 453.77,140.63 485.94,113.63"   /><polyline id="SvgjsPolyline5549" points="298.95,300 349.95,299.99 358.94,299.66 361.84,298.9 372.74,293.89 378.38,291.85 384.2,290.42 401.89,287.09 410.65,285.03 419.31,282.58 427.8,279.6 436.01,275.93 441.25,273 448.57,267.78 452.99,263.72 458.78,256.84 462.06,251.82 464.91,246.54 467.38,241.08 470.49,232.63 474.5,218.18 478.06,200.54 481.21,179.78 484.71,149.99 488.24,114.16"   /><polyline id="SvgjsPolyline5550" points="303.26,300 357.26,300.1 360.24,300.42 371.7,303.94 380.52,305.74 401.34,308.41 416.14,310.84 430.74,314.26 442.06,318.22 447.47,320.81 452.59,323.93 459.48,329.71 465.11,336.71 468.14,341.89 470.66,347.33 474.5,358.69 477.84,373.31 480.62,391.09 483.24,414.95 485.65,444.85 488.39,486.76"   /><polyline id="SvgjsPolyline5551" points="354.54,300.73 357.26,301.98 359.44,304.04 362.53,309.16 373.33,337.14 375.93,342.54 379.01,347.69 380.78,350.11 384.84,354.52 400.75,368.23 413.67,380.75 423.86,391.75 435.38,405.58 447.9,422.44 459.58,439.89 472.15,460.33 487.22,486.27"   /><polyline id="SvgjsPolyline5552" points="358.92,300.73 361.61,302.04 370.67,309.89 375.68,313.19 381.19,315.55 395.5,320.03 406.77,324.16 417.71,329.07 425.58,333.43 433.03,338.47 439.94,344.23 446.19,350.7 451.72,357.8 456.53,365.4 461.95,376.1 466.43,387.23 471.04,401.5 474.86,416.01 479.34,436.52 487.72,483.79"   /><polyline id="SvgjsPolyline5553" points="351.95,300.2 354.94,300.51 357.74,301.55 360.05,303.46 361.89,305.83 364.8,311.07 369.84,321.96 372.65,327.26 376.02,332.22 377.98,334.49 382.47,338.45 394.9,346.86 402.14,352.2 413.65,361.8 420.18,368 426.39,374.51 434.17,383.64 439.63,390.8 444.78,398.18 451.19,408.33 457.13,418.75 462.68,429.39 474.06,453.87 487.92,487.09"   /><polyline id="SvgjsPolyline5554" points="299.99,303.19 299.51,414.19 299.11,441.19 298.55,456.18 297.31,468.11 295.57,473.83 293.98,476.37 291.83,478.45 289.31,480.07 283.84,482.52 280.98,483.43 272.14,485.07 260.19,486.15 239.21,487.04 170.22,488.05 2.22,488.36"   /><polyline id="SvgjsPolyline5555" points="299.6,298.63 308.29,327.35 316.88,352.94 323.34,369.74 332.8,391.8 337.88,405.91 343.19,423.11 352.64,457.84 356.12,469.33 359.47,477.67 360.93,480.29 362.75,482.67 365.03,484.61 367.74,485.88 370.65,486.59 376.61,487.2 448.6,488.2"   /><polyline id="SvgjsPolyline5556" points="299.7,297.76 305.13,336.37 309.08,360.05 313.96,383.54 318.61,400.93 322.5,412.28 325.99,420.57 348.56,466.31 352.8,474.24 355.99,479.32 359.91,483.84 362.36,485.57 365.12,486.71 368.06,487.33 374.04,487.81 383.03,488.01 440.03,488.32"   /><polyline id="SvgjsPolyline5557" points="300.21,303.47 304.31,363.33 306.33,384.23 308.22,399.11 310.75,413.89 314.18,428.49 316.92,437.06 320.49,445.32 325.16,453 335,464.31 347.58,477.18 352.03,481.21 356.85,484.77 359.5,486.16 362.34,487.13 365.28,487.69 371.27,488.11 389.26,488.29"   /><polyline id="SvgjsPolyline5558" points="300.09,303.75 301.79,366.72 302.76,390.7 304.02,411.67 305.08,423.62 306.61,435.52 308.32,444.35 310.91,452.97 313.23,458.5 316.11,463.75 319.88,468.41 324.5,472.22 335.08,477.88 351.54,485.14 357.25,486.98 360.18,487.6 366.15,488.19"   /><polyline id="SvgjsPolyline5559" points="344.11,597.72 346.77,586.02 349.04,574.23 356.22,529.81 358.94,515.06 362.03,503.48 364.53,498.03 366.33,495.64 368.66,493.76 371.39,492.52 374.29,491.78 380.24,491.05 410.22,489.98 467.21,488.84"   /><polyline id="SvgjsPolyline5560" points="381.07,599.63 385,595.11 408.33,571.77 437.68,541.73 487.4,489.65"   /><polyline id="SvgjsPolyline5561" points="446.85,598.87 451.6,591.22 457.29,580.66 462.33,569.77 466.85,558.65 471.93,544.54 476.54,530.27 487.31,492.79"   /><polyline id="SvgjsPolyline5562" points="298.11,297.24 279.3,270.13 263.39,248.32 248.57,229.44 234.94,213.47 218.51,195.98 201.17,179.39 183,163.72 178.19,160.13 170.58,155.32 159.88,149.91 145.89,144.52 131.49,140.32 110.97,135.88 90.23,132.58 63.42,129.43 36.52,127.09 0.59,124.77"   /><polyline id="SvgjsPolyline5563" points="299.67,296.88 295.32,258.12 290.8,225.43 286.32,201.86 281.65,184.48 278.63,176.01 276.26,170.49 272.08,162.53 268.8,157.51 265.09,152.8 260.95,148.45 254.02,142.72 249,139.44 243.74,136.56 235.52,132.89 227.05,129.87 218.41,127.34 206.74,124.54 194.97,122.22 183.13,120.24 171.23,118.74 147.3,116.88 111.33,115.38 60.35,114.28 0.35,113.59"   /><polyline id="SvgjsPolyline5564" points="299.69,300.41 330.46,259.74 334.99,251.97 339.72,240.95 344.1,226.61 347.98,209.04 351.52,188.34 357.34,149.77 360.15,135.04 361.67,129.24 363.74,123.61 365.17,120.98 367.05,118.65 369.44,116.85 372.2,115.68 378.08,114.55 384.06,114.07 423.04,112.81 486.03,111.55"   /><polyline id="SvgjsPolyline5565" points="300.22,297.77 304.69,256.01 308.67,226.27 312.31,205.59 316.5,188.09 320.21,176.68 325.02,165.7 337.42,145.15 350.53,125.05 354.18,120.29 358.38,116.03 360.87,114.35 363.63,113.2 366.56,112.55 378.53,111.91 432.53,111.65"   /><polyline id="SvgjsPolyline5566" points="361.63,0.1 365.03,35.94 367.95,56.73 369.94,65.51 371.88,71.18 374.73,76.45 376.64,78.75 378.89,80.74 381.4,82.38 386.85,84.87 398.07,89.14 412.35,93.73 426.8,97.73 444.28,102.03 485.34,110.86"   /><polyline id="SvgjsPolyline5567" points="337.18,299.41 346.14,298.64 349.05,297.9 351.71,296.52 353.89,294.47 355.58,292 357.96,286.5 360.27,277.81 361.92,268.96 368.49,221.41 371.73,203.71 373.97,194.99 376.82,186.46 379.37,181.03 382.67,176.03 386.84,171.73 398.56,162.37 410.78,153.69 423.42,145.61 436.38,138.05 449.56,130.9 487.15,112.16"   /><polyline id="SvgjsPolyline5568" points="309.61,299.71 330.6,299.02 336.59,298.61 342.53,297.79 345.42,297 348.13,295.71 350.47,293.85 352.37,291.53 353.87,288.94 355.08,286.19 356.9,280.48 359.78,265.77 361.72,250.89 366.85,203.17 370.06,182.42 372.17,173.67 374.13,168 378.32,160.05 382,155.33 386.68,151.59 397.06,145.58 407.78,140.18 421.51,134.15 432.68,129.78 449.65,123.77 486.83,112.01"   /><polyline id="SvgjsPolyline5569" points="298.66,300.1 328.57,297.8 337.46,296.39 343.08,294.33 345.58,292.69 347.75,290.62 351.03,285.62 353.27,280.05 354.88,274.28 357.58,259.53 359.73,241.66 365.13,184.91 366.65,173.01 368.15,164.14 370.29,155.4 372.43,149.8 375.62,144.74 377.72,142.6 380.13,140.82 385.38,137.92 388.14,136.74 399.37,132.52 413.68,128.03 428.17,124.17 442.78,120.75 483.94,112.38"   /><polyline id="SvgjsPolyline5570" points="346.95,300.4 352.86,301.31 355.47,302.78 357.51,304.97 360.31,310.26 363.05,318.82 370.26,351.02 374.3,365.47 376.3,371.12 378.7,376.62 383.35,384.31 387.33,388.8 412.81,414.22 487.75,487.77"   /><polyline id="SvgjsPolyline5571" points="302.78,300.02 332.78,300.28 344.77,300.72 350.65,301.81 353.27,303.26 355.37,305.39 358.23,310.65 360.12,316.34 361.54,322.17 363.73,333.96 369.35,369.52 371.06,378.36 373.16,387.11 374.92,392.84 378.15,401.24 380.9,406.57 382.55,409.08 386.44,413.63 399.73,425.76 411.24,435.38 423.07,444.6 447.51,462 487.81,488.06"   /><polyline id="SvgjsPolyline5572" points="318.22,300.3 339.21,300.91 345.16,301.6 348.06,302.37 350.73,303.73 352.95,305.74 354.69,308.18 356.05,310.85 358.81,319.4 361.12,331.18 368.03,384.73 369.9,396.58 371.69,405.4 374.09,414.07 376.29,419.65 380.84,427.4 382.66,429.79 386.97,433.95 399.02,442.87 411.6,451.04 421.97,457.08 435.21,464.13 448.68,470.73 487.02,487.86"   /><polyline id="SvgjsPolyline5573" points="307.74,300.26 331.72,301.16 337.7,301.66 343.6,302.73 346.41,303.77 348.95,305.35 351.08,307.46 352.78,309.92 354.14,312.6 356.93,321.14 359.68,335.88 361.89,353.74 366.23,395.52 368.18,410.39 369.7,419.26 371.75,428.02 373.65,433.71 376.28,439.1 379.97,443.8 382.25,445.76 387.23,449.1 395.01,453.62 405.69,459.09 419.39,465.19 430.55,469.59 444.67,474.66 484.71,487.35"   /><polyline id="SvgjsPolyline5574" points="356.14,299.54 358.94,298.47 361.28,296.6 364.94,291.86 371.51,281.82 377.54,275.15 379.77,273.15 384.71,269.75 395.29,264.1 405.54,257.87 417.65,249.03 424.45,243.13 430.84,236.79 436.79,230.05 444.04,220.48 448.97,212.96 454.93,202.54 460.27,191.8 466.23,178.04 475.55,152.7 488.15,112.64"   /><polyline id="SvgjsPolyline5575" points="351.51,299.74 354.49,299.38 357.26,298.24 359.5,296.25 361.26,293.83 363.96,288.47 370.51,271.71 373,266.25 375.98,261.05 381.57,254.01 385.95,249.91 402.26,236.69 415.35,224.34 427.51,211.08 440.51,194.59 450.7,179.76 461.67,161.85 473.31,140.86 487.11,114.23"   /><polyline id="SvgjsPolyline5576" points="349.89,299.66 352.87,299.3 355.68,298.27 357.98,296.35 359.75,293.93 361.15,291.28 364.27,282.85 370.07,262.67 372.96,254.14 376.66,245.95 379.86,240.88 385.92,234.23 399.08,221.95 411.78,209.2 421.99,198.22 433.81,184.64 445.19,170.7 457.99,154.05 487.72,112.61"   /><polyline id="SvgjsPolyline5577" points="337.45,299.99 355.45,299.82 358.41,299.32 361.11,298.02 363.45,296.15 371.99,287.74 376.97,284.4 382.46,281.99 393.81,278.1 404.92,273.57 415.73,268.36 423.48,263.81 430.84,258.62 435.45,254.79 441.89,248.5 445.82,243.97 452.79,234.21 458.66,223.75 463.58,212.81 468.7,198.71 472.98,184.34 477.35,166.88 481.79,146.35 487.48,116.9"   /><polyline id="SvgjsPolyline5578" points="332.63,300 359.63,299.92 377.58,298.62 419.54,296.97 440.48,295.37 452.36,293.69 461.1,291.57 466.67,289.36 469.29,287.9 473.89,284.07 477.34,279.18 478.64,276.48 480.6,270.81 482.98,259.06 484.34,247.14 485.57,229.18 486.65,202.2 488.48,112.22"   /><polyline id="SvgjsPolyline5579" points="359.9,299.72 371.58,297 377.5,296.03 401.39,293.72 416.26,291.75 428.05,289.52 436.75,287.22 445.17,284.07 455.65,278.25 460.36,274.54 462.5,272.44 466.3,267.8 470.79,260.01 473.1,254.47 474.98,248.78 477.84,237.13 480.34,222.34 482.46,204.47 484.27,183.55 486.24,153.61 488.33,114.67"   /><polyline id="SvgjsPolyline5580" points="360.15,300.13 375.08,301.55 420.02,303.79 434.95,305.24 443.84,306.6 452.65,308.45 461.2,311.23 466.51,314 468.94,315.76 473.12,320.04 476.28,325.14 479.43,333.55 481.93,345.28 483.74,360.17 485.25,381.11 486.21,402.09 488.44,486.06"   /><polyline id="SvgjsPolyline5581" points="355.69,300.09 358.68,300.35 361.57,301.16 369.52,305.35 375.06,307.64 380.86,309.17 395.6,311.95 407.29,314.69 418.77,318.17 427.14,321.47 435.15,325.55 442.62,330.57 447.17,334.47 451.44,338.69 457.2,345.59 462,353.2 467.09,364.06 471.02,375.39 474.81,389.9 478.3,407.56 481.08,425.34 484.15,449.14 488.11,484.92"   /><polyline id="SvgjsPolyline5582" points="348.38,300.31 351.37,300.57 354.28,301.29 356.8,302.89 358.75,305.17 360.26,307.75 363.48,316.15 369.7,339.33 373.3,350.77 376.91,359.01 380.04,364.12 383.94,368.68 396.93,381.13 409.62,393.89 419.93,404.79 431.97,418.17 455.12,445.74 486.52,485.92"   /><polyline id="SvgjsPolyline5583" points="297.52,301.88 257.21,333.13 229.58,356.2 207.43,376.43 194.6,389.06 179.99,404.14 171.08,412.17 159.04,421.11 146.17,428.8 132.66,435.3 118.69,440.76 104.41,445.35 87,449.91 69.39,453.66 48.7,457.25 24.94,460.57 1.09,463.27"   /><polyline id="SvgjsPolyline5584" points="298.92,302.5 282.86,338.04 272.07,359.47 266.22,369.95 260,380.21 253.33,390.19 248.01,397.45 236.51,411.28 230.31,417.81 221.61,426.07 214.77,431.91 205.28,439.26 195.42,446.1 185.26,452.48 174.62,458.02 169.07,460.3 160.56,463.21 146.05,467.02 125.41,470.82 104.58,473.51 77.69,475.97 41.76,478.23 2.8,479.91"   /><polyline id="SvgjsPolyline5585" points="300.29,298.47 292.61,336.7 285.59,365.87 279.58,385.99 275.45,397.25 271.92,405.53 267.92,413.59 263.37,421.36 258.23,428.73 254.44,433.39 250.37,437.8 243.76,443.9 239.05,447.62 231.6,452.66 223.78,457.11 215.68,461.03 207.37,464.49 196.08,468.54 178.81,473.6 170,475.45 158.15,477.32 134.28,479.83 101.35,481.88 59.38,483.42 2.39,484.63"   /><polyline id="SvgjsPolyline5586" points="299.65,303.93 295.25,348.71 291.39,378.46 287.01,402.05 284.94,410.81 282.47,419.47 279.47,427.95 277.09,433.46 272.83,441.38 269.45,446.33 265.6,450.93 261.3,455.12 256.61,458.84 251.58,462.11 246.29,464.95 238.03,468.52 229.51,471.42 220.84,473.81 200.28,478.07 185.46,480.4 173.55,481.83 149.62,483.59 116.64,484.9 71.65,485.86 2.66,486.63"   /><polyline id="SvgjsPolyline5587" points="299.73,306.83 297.6,354.79 295.75,384.73 293.51,408.62 290.82,426.42 288.83,435.19 286.2,443.8 284.07,449.4 281.39,454.77 278.07,459.76 274.04,464.2 271.78,466.16 266.84,469.56 261.5,472.3 255.92,474.49 247.28,477.01 238.48,478.9 217.7,481.89 187.82,484.5 166.85,485.63 133.86,486.52 76.87,487.21 1.87,487.61"   /><polyline id="SvgjsPolyline5588" points="356.49,597.58 361.73,543.83 364.57,523.03 366.5,514.24 368.43,508.57 369.76,505.88 371.46,503.41 373.58,501.3 376.08,499.66 381.72,497.65 396.56,495.49 429.41,492.4 483.29,488.81"   /><polyline id="SvgjsPolyline5589" points="369.76,599.17 373.47,581.56 377.14,570.15 379.68,564.72 381.22,562.14 384.89,557.4 387.04,555.31 396.1,547.45 405.47,539.95 415.11,532.8 427.47,524.31 450.38,510.03 486.94,489.35"   /><polyline id="SvgjsPolyline5590" points="373.7,599.03 376.75,590.57 379.47,585.22 381.11,582.71 385,578.15 397.84,565.54 417.64,547.18 435.72,531.4 456.48,514.14 486.91,489.75"   /><polyline id="SvgjsPolyline5591" points="461.97,597.26 465.37,588.93 468.36,580.44 471.85,568.96 474.9,557.36 480.7,530.99 488.29,489.68"   /><polyline id="SvgjsPolyline5592" points="297.84,299.57 265.51,292.95 245.04,288.26 224.76,282.81 210.5,278.17 199.32,273.82 191.13,270.08 159.49,252.93 135.35,240.82 119.01,233.29 99.68,225.08 74.45,215.46 51.71,207.78 28.73,200.88 2.63,193.96"   /><polyline id="SvgjsPolyline5593" points="297.87,298.6 260.59,273.4 248.4,264.66 234.04,253.8 220.06,242.46 206.54,230.59 193.53,218.15 178.88,203.11 169.98,195.06 162.92,189.48 155.57,184.29 142.72,176.56 129.27,169.92 115.38,164.26 101.18,159.45 83.85,154.6 66.31,150.56 45.67,146.66 21.95,143.02 1.12,140.38"   /><polyline id="SvgjsPolyline5594" points="300.33,300.92 287.72,267.2 275.99,239.59 266.6,220.81 260.6,210.42 255.74,202.85 248.72,193.11 243.05,186.13 237,179.47 230.6,173.14 223.86,167.18 216.82,161.58 209.5,156.34 199.39,149.88 183.63,141.19 172.58,136.52 158.22,132.24 149.43,130.26 137.63,128.13 110.85,124.72 80.95,122.25 48,120.41 0.03,118.64"   /><polyline id="SvgjsPolyline5595" points="301.47,301.45 233.2,233.96 182.25,183.09 177.81,179.05 170.79,173.43 165.88,169.98 158.22,165.26 144.83,158.51 130.88,153.01 113.68,147.72 96.17,143.53 78.49,140.16 54.76,136.61 30.92,133.81 1.05,131.08"   /><polyline id="SvgjsPolyline5596" points="298.96,297.88 284.08,268.42 272.46,247.43 261.37,229.6 254.54,219.73 247.31,210.15 241.62,203.18 231.67,191.96 225.41,185.49 216.71,177.23 207.62,169.4 200.57,163.8 190.91,156.69 180.94,150.02 170.29,144.49 164.75,142.18 156.27,139.2 147.62,136.69 138.88,134.57 121.2,131.21 97.42,127.97 70.54,125.38 40.61,123.31 1.66,121.39"   /><polyline id="SvgjsPolyline5597" points="299.31,296.8 291.33,261.7 284.27,235.64 277.5,215.77 272.99,204.65 269.2,196.49 264.96,188.55 260.21,180.91 254.9,173.65 251.04,169.05 246.92,164.69 240.3,158.6 233.18,153.09 225.66,148.15 217.82,143.74 209.73,139.8 201.46,136.26 190.22,132.06 181.67,129.26 172.96,127 155.25,123.8 143.34,122.29 128.41,120.86 95.48,118.73 56.51,117.2 2.53,115.91"   /><polyline id="SvgjsPolyline5598" points="300.01,301.31 299.15,190.31 298.66,166.31 297.93,148.33 296.88,136.38 295.12,127.56 294.08,124.75 292.62,122.14 290.64,119.89 288.2,118.15 282.61,116 273.76,114.46 258.8,113.34 234.81,112.59 162.82,111.83 0.82,111.61"   /><polyline id="SvgjsPolyline5599" points="299.82,296.33 297.47,251.39 295.14,218.48 292.59,194.61 289.62,176.86 287.48,168.12 284.74,159.55 282.54,153.97 279.86,148.61 276.58,143.58 272.67,139.04 268.16,135.1 265.71,133.37 260.51,130.37 255.04,127.92 246.51,125.04 237.79,122.86 228.95,121.14 217.09,119.35 202.19,117.62 184.26,116.01 160.3,114.66 124.31,113.68 76.32,113.04 1.32,112.56"   /><polyline id="SvgjsPolyline5600" points="300.23,294.65 302.15,252.69 303.95,222.75 306.03,198.84 308.39,181 310.06,172.15 312.19,163.41 313.89,157.66 315.98,152.04 320.12,144.05 321.81,141.58 325.73,137.04 337.22,127.41 349.31,118.54 357.12,114.09 362.86,112.4 368.83,111.86 377.83,111.7 473.83,111.52"   /><polyline id="SvgjsPolyline5601" points="349.68,1.19 352.45,18.98 358.09,63.62 360.78,81.42 362.66,90.22 364.42,95.95 367.15,101.27 369.16,103.49 371.64,105.16 374.43,106.26 380.31,107.41 386.29,107.93 422.25,109.58 482.22,111.34"   /><polyline id="SvgjsPolyline5602" points="373.85,2.01 377.73,13.36 381.9,21.32 385.56,26.07 394.11,34.49 411.76,50.75 432.32,68.25 455.83,86.88 486.97,110.37"   /><polyline id="SvgjsPolyline5603" points="368.82,2.8 372.22,20.47 373.79,26.26 375.77,31.93 378.17,37.42 381.08,42.66 384.81,47.35 387,49.41 396.25,57.05 405.83,64.27 415.69,71.1 425.79,77.58 449.15,91.12 486.43,110.46"   /><polyline id="SvgjsPolyline5604" points="365.78,2.97 368.89,26.77 370.49,35.62 372.63,44.36 374.59,50.03 377.25,55.4 378.95,57.87 382.9,62.39 385.11,64.41 392.53,69.51 402.79,75.71 413.37,81.38 424.18,86.59 437.93,92.59 451.86,98.15 485.67,110.5"   /><polyline id="SvgjsPolyline5605" points="357.7,0.22 361.84,45.03 364.83,68.84 366.64,77.65 368.42,83.38 371.22,88.67 373.2,90.92 375.57,92.75 380.85,95.58 383.66,96.64 392.41,98.74 404.19,101.01 433.86,105.43 487.53,111.4"   /><polyline id="SvgjsPolyline5606" points="355,300 475,300.14 484,300.43 486.86,301.18 487.95,303.84 488.39,318.83 488.49,483.83"   /><polyline id="SvgjsPolyline5607" points="359.11,300 473.11,299.99 482.1,299.72 484.35,301.61 486.38,299.78 487.07,296.88 487.64,290.91 488.16,272.92 488.49,113.92"   /><polyline id="SvgjsPolyline5608" points="599.07,158.44 589.01,151.89 581.21,147.42 570.53,141.95 556.85,135.79 531.68,126.04 489.03,111.68"   /><polyline id="SvgjsPolyline5609" points="597.78,456.15 589.64,459.99 578.53,464.51 558.62,471.17 544.18,475.26 526.74,479.69 488.73,488.44"   /><polyline id="SvgjsPolyline5610" points="297.37,300.61 268.22,307.69 247.93,313.11 230.71,318.36 216.58,323.39 202.78,329.26 192.1,334.73 161.5,353.67 137.95,366.88 121.88,374.98 102.77,383.69 77.7,393.7 55.01,401.53 29.14,409.24 0.06,416.61"   /><polyline id="SvgjsPolyline5611" points="301.04,298.69 280.39,324.44 261.25,347.54 245.56,365.69 229.39,383.43 208.44,404.9 188.88,423.51 177.52,433.3 167.57,439.99 162.34,442.93 154.25,446.87 140.28,452.31 123.02,457.39 105.45,461.31 84.75,464.83 60.95,467.91 31.09,470.81 1.17,473"   /><polyline id="SvgjsPolyline5612" points="301.3,299.39 276.9,310.94 258.15,320.4 239.77,330.55 224.41,339.93 212.04,348.41 200.17,357.58 191.1,365.44 173.64,381.9 162.05,391.42 154.79,396.74 144.78,403.35 137.04,407.95 126.46,413.59 115.6,418.7 101.72,424.4 87.58,429.39 73.24,433.78 58.74,437.63 41.2,441.66 20.59,445.68 2.83,448.64"   /><polyline id="SvgjsPolyline5613" points="298.53,305.03 288.88,336.59 279.82,362.02 271.44,381.27 262.89,397.1 256.47,407.24 251.19,414.53 245.48,421.48 239.32,428.04 232.75,434.18 225.78,439.88 218.48,445.14 210.89,449.98 195.06,458.52 184.15,463.52 178.56,465.71 172.87,467.59 164.18,469.93 146.52,473.39 134.64,475.08 119.73,476.73 89.82,479.06 50.87,481 2.89,482.51"   /><polyline id="SvgjsPolyline5614" points="301.06,298.17 282.72,329.14 269.83,349.39 257.83,366.62 243.05,385.52 227.08,403.43 212.14,418.19 203.2,426.19 193.98,433.87 184.51,441.24 177.08,446.31 171.87,449.28 163.76,453.18 149.71,458.42 132.34,463.11 114.68,466.6 93.9,469.65 67.06,472.54 34.16,475.07 1.21,476.91"   /><polyline id="SvgjsPolyline5615" points="365.22,598.31 368.56,571.52 370.11,562.65 372.17,553.89 374.9,545.32 377.36,539.85 380.68,534.86 382.72,532.67 387.5,529.05 397.85,522.99 408.54,517.54 422.23,511.43 436.19,505.92 450.31,500.86 487.41,488.84"   /><polyline id="SvgjsPolyline5616" points="361.67,598.15 365.44,559.33 367.05,547.44 368.69,538.6 370.19,532.79 372.28,527.17 375.39,522.05 379.51,517.7 381.86,515.84 384.45,514.32 389.98,512.01 401.3,508.04 415.69,503.81 441.95,497.54 486.12,488.93"   /><polyline id="SvgjsPolyline5617" points="474.23,599.13 477.87,581.51 481.42,557.78 484.79,527.97 488.44,489.14"   /><polyline id="SvgjsPolyline5618" points="296.15,300.04 194.17,301.57 2.27,307.93"   /><polyline id="SvgjsPolyline5619" points="297.29,298.93 272.25,288.82 253.03,280.37 234.17,271.13 218.46,262.36 205.84,254.25 196.17,247.14 189.21,241.44 171.17,225.61 156.88,214.68 149.45,209.59 139.29,203.22 128.83,197.33 118.13,191.91 107.2,186.96 93.28,181.36 79.13,176.39 64.8,171.96 50.33,168.02 32.82,163.85 0.44,157.49"   /><polyline id="SvgjsPolyline5620" points="295.77,299.63 259.93,296.25 236.08,293.55 215.3,290.55 197.62,287.2 185.95,284.39 131.02,269.17 81.68,256.26 40.88,246.31 2.84,237.69"   /><polyline id="SvgjsPolyline5621" points="302.37,300.63 273.44,292.69 250.49,285.69 230.72,278.62 214.2,271.48 206.18,267.41 195.82,261.36 166.44,240.56 156.42,233.95 143.63,226.13 133.18,220.22 119.87,213.3 98.05,203.31 75.69,194.6 52.91,187.06 26.91,179.79 0.63,173.62"   /><polyline id="SvgjsPolyline5622" points="292.82,299.04 266.08,295.3 239.44,290.95 218.87,286.71 204.37,282.9 190.17,278.08 156.87,264.4 131.72,254.57 92.21,240.32 72.27,233.74 46.45,225.84 26.25,220.13 0.12,213.33"   /><polyline id="SvgjsPolyline5623" points="297.09,298.55 273.04,286.26 257.23,277.66 241.72,268.53 226.63,258.72 214.49,249.91 202.84,240.47 193.92,232.45 178.91,217.76 172.18,211.78 165.19,206.12 155.51,199.03 148.03,194.01 137.74,187.85 129.8,183.62 118.96,178.47 105.09,172.77 90.94,167.8 76.57,163.47 62.06,159.69 41.56,155.16 23.86,151.86 0.15,148.13"   /><polyline id="SvgjsPolyline5624" points="300.09,293.41 301.22,224.42 302.6,182.44 303.57,167.47 304.84,155.54 306.42,146.68 308.06,140.91 310.26,135.34 313.19,130.11 317.26,125.73 322.29,122.49 330.71,119.33 348.02,114.41 356.81,112.5 365.77,111.7"   /><polyline id="SvgjsPolyline5625" points="299.87,292.59 298.76,238.6 297.61,202.62 296.27,178.66 294.41,160.76 292.83,151.9 291.3,146.1 289.13,140.51 287.73,137.86 286.07,135.36 282.25,130.74 280.09,128.66 275.18,125.23 272.51,123.86 266.92,121.7 261.14,120.1 252.3,118.39 234.43,116.26 207.49,114.48 174.52,113.21 141.52,112.64 0.53,111.97"   /><polyline id="SvgjsPolyline5626" points="300.01,289.82 300.51,145.82 300.9,133.83 301.43,127.85 302,124.91 303.11,122.12 306.94,117.53 309.46,115.92 312.27,114.91 318.16,113.79 327.13,113.02 357.1,111.66 393.1,111.51"   /><polyline id="SvgjsPolyline5627" points="299.99,2.57 299.71,101.57 299.01,104.47 296.85,106.51 291.37,108.92 285.47,109.97 279.49,110.42 249.5,111.09 0.5,111.47"   /><polyline id="SvgjsPolyline5628" points="336.93,0.42 341.38,14.75 345.09,29.28 354.79,76.29 358.25,90.88 360.04,96.61 362.47,102.09 364.15,104.57 366.32,106.62 368.96,108.03 371.84,108.86 380.78,109.79 464.76,111.24"   /><polyline id="SvgjsPolyline5629" points="386.17,1.39 409.51,24.72 432.26,48.62 456.5,75.23 488.25,111.23"   /><polyline id="SvgjsPolyline5630" points="598.69,300.08 532.7,300.29 508.7,300.82 502.74,301.41 496.93,302.91 494.26,304.25 492.28,306.48 491.15,309.25 490.11,315.15 489.15,336.12 488.52,474.12"   /><polyline id="SvgjsPolyline5631" points="599.14,299.54 548.14,298.82 530.16,298.13 518.2,297.12 512.29,296.14 506.58,294.32 503.96,292.86 501.66,290.94 497.85,286.31 495.2,280.95 493.05,272.22 491.62,260.31 490.83,248.34 489.58,206.36 488.51,113.37"   /><polyline id="SvgjsPolyline5632" points="598.9,173.88 587.29,164.39 577.61,157.3 567.59,150.69 554.69,143.04 541.47,135.95 528.02,129.31 489.74,112.05"   /><polyline id="SvgjsPolyline5633" points="598.11,143.41 590.02,139.47 578.94,134.87 559.03,128.2 547.48,124.95 530.02,120.58 491.93,112.23"   /><polyline id="SvgjsPolyline5634" points="599.62,440.51 589.65,447.19 579.34,453.32 568.69,458.85 557.79,463.87 546.71,468.48 529.86,474.79 490,488.02"   /><polyline id="SvgjsPolyline5635" points="597.59,469.57 580.23,474.31 556.7,479.02 530.01,483.14 491.34,488.14"   /><polyline id="SvgjsPolyline5636" points="295.33,300.53 262.57,304.44 238.8,307.79 218.13,311.45 200.57,315.43 189.03,318.72 135.13,337.25 89.39,351.8 46.14,364.22 2.55,375.37"   /><polyline id="SvgjsPolyline5637" points="296.79,301.04 271.18,309.59 251.47,316.83 232.12,324.98 218.67,331.61 208.23,337.53 198.18,344.08 188.58,351.27 167.48,368.13 150.26,380.13 140.07,386.47 129.64,392.39 118.98,397.92 108.13,403.04 85.93,412.13 74.62,416.15 60.33,420.72 34.29,427.84 2.07,434.94"   /><polyline id="SvgjsPolyline5638" points="301.01,299.84 271.42,304.77 244.9,309.83 227.36,313.87 210.05,318.81 201.55,321.76 193.21,325.14 163.52,339.53 141.73,349.6 116.93,360.27 97.4,368 74.85,376.21 52.07,383.74 26.18,391.43 0.08,398.33"   /><polyline id="SvgjsPolyline5639" points="486.61,598.91 487.53,559.92 488.47,490.92"   /><polyline id="SvgjsPolyline5640" points="295.65,300.25 259.72,302.47 232.8,304.51 211.9,306.58 197.03,308.55 82,329.92 2.22,343.91"   /><polyline id="SvgjsPolyline5641" points="295.41,299.84 235.46,297.38 214.49,296.15 196.55,294.72 2.83,272.44"   /><polyline id="SvgjsPolyline5642" points="289.84,300.34 232.88,302.58 196.96,304.92 0.11,326.19"   /><polyline id="SvgjsPolyline5643" points="295.71,299.95 238.72,299.14 196.73,298.15 1.9,290.11"   /><polyline id="SvgjsPolyline5644" points="295.05,299.7 235.19,295.51 217.28,293.75 199.43,291.45 190.55,289.98 78.64,268.25 1.89,254.37"   /><polyline id="SvgjsPolyline5645" points="296.22,299.59 263.43,295.86 239.65,292.67 218.94,289.2 201.36,285.33 189.83,282 127.26,261.02 89.99,249.53 43.77,236.58 0.11,225.7"   /><polyline id="SvgjsPolyline5646" points="300.38,1.37 300.98,52.37 301.89,76.35 303.26,88.26 304.89,94.03 306.28,96.68 308.15,99.02 310.46,100.93 315.64,103.95 321.27,105.98 327.15,107.2 344.97,109.73 353.91,110.77 362.89,111.35"   /><polyline id="SvgjsPolyline5647" points="287.99,2.57 283.92,20.1 281.44,28.75 278.56,37.27 275.15,45.6 272.53,51 269.58,56.22 266.27,61.23 262.58,65.96 258.51,70.36 254.08,74.4 249.33,78.06 244.3,81.34 239.06,84.26 233.65,86.85 225.31,90.23 211.02,94.77 190.59,99.59 175.82,102.22 157.94,104.23 133.99,105.87 104.02,107.11 65.03,108.09 2.04,108.99"   /><polyline id="SvgjsPolyline5648" points="294.94,0.12 292.69,20.99 289.9,38.77 285.72,56.28 283.86,61.98 281.61,67.54 278.89,72.88 275.61,77.9 271.72,82.47 269.56,84.54 262.31,89.85 257.01,92.67 251.48,94.99 240.02,98.53 222.39,102.11 198.59,105.2 171.69,107.48 147.71,108.52 111.72,109.36 0.73,110.35"   /><polyline id="SvgjsPolyline5649" points="298.21,0.69 297.27,24.67 295.68,48.62 293.89,63.5 291.32,75.22 289.27,80.85 286.63,86.24 283.3,91.22 281.26,93.42 276.53,97.09 273.92,98.56 268.39,100.89 262.64,102.6 256.79,103.89 241.94,106.05 218.02,107.98 188.06,109.38 161.07,110.1 125.07,110.54 2.07,111.04"   /><polyline id="SvgjsPolyline5650" points="324.43,1.66 331.54,18.2 337.81,35.07 343.32,52.2 352.63,83.86 356.48,95.23 358.89,100.72 360.38,103.32 362.19,105.71 364.45,107.67 367.15,108.97 370.05,109.7 379.01,110.45 487.01,111.49"   /><polyline id="SvgjsPolyline5651" points="403.17,1.29 413.71,11.96 423.85,23.01 433.6,34.42 442.97,46.13 452.01,58.1 462.48,72.74 487.57,110.09"   /><polyline id="SvgjsPolyline5652" points="598.71,312.08 584.09,315.43 569.68,319.58 558.43,323.75 547.63,328.97 542.49,332.06 537.59,335.51 530.79,341.4 524.78,348.1 519.62,355.46 515.26,363.33 510.49,374.34 506.66,385.71 502.79,400.2 499.64,414.86 496.46,432.58 492.85,456.31 488.82,486.03"   /><polyline id="SvgjsPolyline5653" points="598.19,305.43 580.3,307.44 565.47,309.7 550.82,312.87 539.32,316.28 531.03,319.77 523.31,324.39 518.68,328.2 516.57,330.33 511.11,337.46 506.92,345.42 502.87,356.71 499.99,368.35 497.38,383.12 495.09,400.98 493.07,421.88 488.54,487.72"   /><polyline id="SvgjsPolyline5654" points="597.74,302.04 573.77,303.11 555.81,304.36 543.88,305.64 532.05,307.64 523.4,310.08 515.21,313.79 510.18,317.05 507.93,319.03 504.11,323.65 502.56,326.21 500.07,331.67 497.47,340.28 495.26,352.07 493.81,363.98 492.35,381.92 491.07,405.89 488.85,474.85"   /><polyline id="SvgjsPolyline5655" points="599.23,287.54 584.64,284.09 570.26,279.82 559.05,275.56 548.29,270.26 543.17,267.14 538.28,263.65 531.5,257.74 525.5,251.05 520.31,243.7 515.91,235.85 511.07,224.88 507.16,213.54 503.19,199.07 499.95,184.43 496.67,166.73 493.37,145.99 489.15,116.29"   /><polyline id="SvgjsPolyline5656" points="598.75,294.17 580.89,292.01 566.08,289.59 551.47,286.23 540.02,282.63 531.8,278.99 524.16,274.25 517.48,268.25 512.02,261.1 507.8,253.16 503.65,241.91 500.65,230.29 497.91,215.55 495.49,197.71 493.34,176.83 488.86,116.99"   /><polyline id="SvgjsPolyline5657" points="599,297.68 572.04,296.27 554.1,294.75 542.21,293.18 530.47,290.7 522,287.69 514.19,283.24 509.52,279.48 507.48,277.28 504.06,272.37 500.37,264.17 497.91,255.52 495.73,243.72 493.93,228.83 492.49,210.89 491.3,189.92 488.6,114.97"   /><polyline id="SvgjsPolyline5658" points="599.58,191.11 588.7,180.78 579.72,172.82 568.11,163.33 556.13,154.31 543.84,145.71 528.78,135.85 490.28,112.56"   /><polyline id="SvgjsPolyline5659" points="597.89,129.89 580.5,125.27 559.9,121.2 533.21,117.11 491.54,111.87"   /><polyline id="SvgjsPolyline5660" points="599.32,425.09 587.77,434.66 578.14,441.81 568.16,448.49 555.32,456.23 542.14,463.4 528.74,470.13 490.54,487.59"   /><polyline id="SvgjsPolyline5661" points="598.19,481.95 577.28,483.89 553.34,485.47 490.41,488.42"   /><polyline id="SvgjsPolyline5662" points="294.75,300.44 261.87,303.34 238.01,305.84 217.19,308.6 199.46,311.73 187.78,314.47 132.7,329.14 89.08,340.18 42.38,351.28 1.37,360.33"   /><polyline id="SvgjsPolyline5663" points="498.61,599.3 495.99,581.49 493.47,557.62 491.09,527.72 488.52,488.8"   /><polyline id="SvgjsPolyline5664" points="312.38,1.29 315.06,12.99 318.23,24.56 322.06,35.93 325.51,44.24 351.3,95.07 356.06,102.7 360.08,107.14 362.58,108.79 365.38,109.84 368.32,110.41 374.3,110.85 473.3,111.45"   /><polyline id="SvgjsPolyline5665" points="305.74,1.78 309.21,28.55 311.46,40.34 314.37,51.98 317.16,60.53 319.47,66.07 323.83,73.94 327.42,78.74 337.47,89.87 348,100.55 354.83,106.41 360.02,109.38 362.88,110.27 368.83,111.01 398.82,111.33"   /><polyline id="SvgjsPolyline5666" points="302.19,1.69 303.72,31.65 304.68,43.61 306.04,55.53 307.52,64.41 308.87,70.25 310.68,75.97 313.15,81.43 316.25,86.57 320.02,91.22 322.23,93.25 327.18,96.62 340.59,103.35 351.6,108.11 357.3,109.98 360.23,110.6 366.2,111.19"   /><polyline id="SvgjsPolyline5667" points="276.24,0.16 268.92,16.6 264.73,24.56 260.12,32.29 256.8,37.29 251.4,44.49 247.52,49.07 241.3,55.56 236.88,59.63 229.91,65.31 217.47,73.68 209.63,78.1 201.58,82.12 185.02,89.17 173.62,92.91 159,96.21 141.21,98.94 123.31,100.85 99.38,102.66 72.42,104.08 36.44,105.39 0.45,106.3"   /><polyline id="SvgjsPolyline5668" points="420.27,1.46 428.26,10.41 435.81,19.74 444.63,31.87 452.84,44.42 460.52,57.3 469.18,73.08 488.05,110.6"   /><polyline id="SvgjsPolyline5669" points="598.3,324.43 587.31,329.24 576.61,334.67 566.32,340.83 558.95,346 549.71,353.66 543.31,359.97 535.52,369.1 530.27,376.41 525.49,384.03 519.78,394.59 514.74,405.47 510.24,416.6 505.21,430.72 500.66,445.02 489.31,485.45"   /><polyline id="SvgjsPolyline5670" points="598.91,275.19 587.94,270.31 577.27,264.82 569.53,260.24 559.66,253.43 550.43,245.76 544.02,239.44 538.09,232.68 530.93,223.05 526.11,215.45 520.34,204.93 515.23,194.08 510.65,182.99 505.52,168.89 500.87,154.63 489.26,114.27"   /><polyline id="SvgjsPolyline5671" points="599.49,208.09 576.02,184.89 551.56,162.74 526.28,141.53 488.7,111.67"   /><polyline id="SvgjsPolyline5672" points="598.4,117.51 577.48,115.73 556.52,114.44 490.58,111.58"   /><polyline id="SvgjsPolyline5673" points="599.92,407.88 589.08,418.24 577.85,428.19 566.2,437.64 554.2,446.64 541.91,455.23 529.39,463.49 491.02,486.99"   /><polyline id="SvgjsPolyline5674" points="599.54,493.87 578.6,492.27 560.63,491.27 491.68,488.6"   /><polyline id="SvgjsPolyline5675" points="510.43,597.23 505.01,580.07 499.57,556.71 495.26,533.1 488.94,491.58"   /><polyline id="SvgjsPolyline5676" points="262.91,0.97 253.1,16.06 244.04,28.01 234.12,39.26 223.35,49.69 211.81,59.27 197.1,69.64 181.67,78.89 170.73,83.81 159.35,87.59 144.78,91.17 127.06,94.31 109.21,96.63 88.31,98.66 64.37,100.4 31.42,102.15 1.44,103.32"   /><polyline id="SvgjsPolyline5677" points="435.36,0.25 442.56,9.85 449.11,19.9 455.09,30.3 460.56,40.98 465.62,51.86 472.58,68.46 479.03,85.27 487.19,107.84"   /><polyline id="SvgjsPolyline5678" points="597.58,337.76 587.47,344.22 580.11,349.4 570.65,356.78 563.85,362.67 557.34,368.89 551.13,375.4 543.34,384.52 537.86,391.66 532.69,399.03 526.23,409.14 520.22,419.52 514.59,430.12 503.02,454.51 488.86,487.61"   /><polyline id="SvgjsPolyline5679" points="598.27,261.85 588.19,255.34 580.85,250.14 571.4,242.74 564.61,236.83 555.99,228.49 549.87,221.89 538.55,207.9 533.34,200.57 526.81,190.5 520.73,180.15 515.03,169.6 503.26,145.3 488.84,112.31"   /><polyline id="SvgjsPolyline5680" points="599.36,224.86 548.59,173.81 490.27,113.35"   /><polyline id="SvgjsPolyline5681" points="599.64,105.57 584.7,106.9 560.75,108.44 491.81,111.38"   /><polyline id="SvgjsPolyline5682" points="599.79,390.92 576.36,414.15 551.98,436.38 524.49,459.62 489.39,487.79"   /><polyline id="SvgjsPolyline5683" points="598.42,505.82 580.97,501.45 560.32,497.61 533.6,493.78 491.88,488.87"   /><polyline id="SvgjsPolyline5684" points="524.51,598.38 518.96,587.74 515.21,579.56 510.75,568.43 506.78,557.1 499.12,531.22 488.97,490.46"   /><polyline id="SvgjsPolyline5685" points="248.07,2.07 236.6,15.94 226.5,27.03 215.91,37.64 202.57,49.72 188.62,61.1 178.92,68.15 171.13,72.67 160.23,77.66 148.92,81.67 134.45,85.62 119.77,88.69 102.01,91.57 81.17,94.15 57.27,96.39 30.34,98.32 0.39,99.95"   /><polyline id="SvgjsPolyline5686" points="450.54,0.37 455.02,8.18 460.32,18.94 464.96,30 469.1,41.27 477.07,67.06 487.57,107.73"   /><polyline id="SvgjsPolyline5687" points="598.95,351.04 582.77,364.43 569.58,376.67 555.08,391.85 543.42,405.57 530.68,422.26 517.08,442.03 504.25,462.31 488.78,488.02"   /><polyline id="SvgjsPolyline5688" points="599.7,248.57 583.57,235.14 570.39,222.88 555.85,207.73 544.14,194.06 531.3,177.45 519.22,160.27 507.74,142.69 490.39,114.62"   /><polyline id="SvgjsPolyline5689" points="598.41,93.63 580.99,98.13 557.4,102.58 530.68,106.44 491.96,111.1"   /><polyline id="SvgjsPolyline5690" points="599.67,374.16 553.11,420.94 490.89,485.96"   /><polyline id="SvgjsPolyline5691" points="597.76,518.59 586.79,513.71 578.39,510.49 558.37,504.16 532.18,497.59 491.07,489.01"   /><polyline id="SvgjsPolyline5692" points="540.13,599.63 533.16,589.86 526.72,579.74 519.47,566.61 514.23,555.82 508.23,542.07 502.69,528.13 489.51,491.43"   /><polyline id="SvgjsPolyline5693" points="233.18,1.43 218.69,16.64 203.83,31.47 188.59,45.92 179.62,53.88 172.38,59.23 164.72,63.95 156.74,68.1 148.49,71.7 137.21,75.8 122.81,79.97 108.19,83.33 90.49,86.57 72.67,89.16 51.82,91.59 27.92,93.8 0.99,95.77"   /><polyline id="SvgjsPolyline5694" points="465.6,2.51 471.23,19.6 474.26,31.21 476.9,42.92 481.89,69.45 488.41,110.94"   /><polyline id="SvgjsPolyline5695" points="597.64,80.88 589.47,84.65 578.32,89.09 566.96,92.94 555.45,96.35 529.26,102.89 491.11,110.97"   /><polyline id="SvgjsPolyline5696" points="599.97,534.24 589.88,527.74 579.45,521.82 568.69,516.5 557.69,511.7 543.71,506.27 529.55,501.32 489.47,488.79"   /><polyline id="SvgjsPolyline5697" points="555.47,598.97 545.69,587.6 538.33,578.13 531.4,568.33 523.31,555.7 515.76,542.74 507.26,526.87 488.81,489.15"   /><polyline id="SvgjsPolyline5698" points="216.27,1.87 182.4,35.88 173.45,43.87 166.26,49.27 156.11,55.68 145.47,61.21 137.23,64.82 125.99,69.03 111.66,73.44 97.11,77.1 82.42,80.15 64.69,83.2 46.86,85.73 23.02,88.49 2.12,90.47"   /><polyline id="SvgjsPolyline5699" points="477.93,1.22 480.65,19.01 483.29,42.87 485.79,72.76 488.3,108.68"   /><polyline id="SvgjsPolyline5700" points="599.76,65.23 589.7,71.77 579.3,77.74 568.57,83.11 557.59,87.97 546.45,92.41 529.51,98.49 489.48,111.2"   /><polyline id="SvgjsPolyline5701" points="599.9,549.7 588.24,540.27 578.5,533.26 568.42,526.75 555.43,519.25 542.12,512.33 528.59,505.87 490.06,489.15"   /><polyline id="SvgjsPolyline5702" points="572.63,599.37 562.18,588.62 552.08,577.53 542.41,566.06 533.13,554.27 522.47,539.77 512.23,524.97 489.31,489.78"   /><polyline id="SvgjsPolyline5703" points="199.28,1.79 178.24,23.18 171.57,29.22 164.56,34.86 157.24,40.09 147.03,46.4 136.41,51.98 125.46,56.88 114.26,61.17 99.99,65.8 85.51,69.73 70.9,73.09 41.39,78.49 20.6,81.48 2.74,83.66"   /><polyline id="SvgjsPolyline5704" points="490.28,2.16 489.36,44.15 488.51,110.14"   /><polyline id="SvgjsPolyline5705" points="599.65,49.78 588.01,59.24 578.29,66.28 568.24,72.83 555.29,80.39 542.01,87.38 525.79,95.18 490.07,110.83"   /><polyline id="SvgjsPolyline5706" points="598.49,564.83 587.5,554.62 578.41,546.79 566.64,537.49 554.5,528.69 542.05,520.32 526.81,510.75 490.5,489.63"   /><polyline id="SvgjsPolyline5707" points="589.56,599.21 566.25,575.85 543.64,551.81 521.67,527.19 490.42,490.76"   /><polyline id="SvgjsPolyline5708" points="182.2,1.89 173.46,10.12 166.6,15.95 159.5,21.47 149.65,28.32 142,33.06 131.5,38.86 123.42,42.84 112.43,47.66 101.24,51.98 89.88,55.84 78.39,59.3 63.89,63.13 49.27,66.49 34.56,69.45 2.01,74.82"   /><polyline id="SvgjsPolyline5709" points="502.27,2.53 498.75,20.18 495.3,43.93 492.61,67.77 488.67,109.59"   /><polyline id="SvgjsPolyline5710" points="598.21,34.65 587.23,44.88 578.16,52.73 566.42,62.07 554.32,70.92 541.91,79.35 526.72,89 490.54,110.33"   /><polyline id="SvgjsPolyline5711" points="598.51,581.87 574.91,558.81 552.48,538.89 526.93,518 488.86,488.77"   /><polyline id="SvgjsPolyline5712" points="165.48,1.15 155.83,8.27 148.37,13.32 132.97,22.62 116.97,30.86 97.7,39.2 77.94,46.3 54.93,53.12 28.69,59.45 2.19,64.64"   /><polyline id="SvgjsPolyline5713" points="515.09,2.49 508.72,19.32 505.22,30.8 502.16,42.4 495.76,71.71 489.27,107.12"   /><polyline id="SvgjsPolyline5714" points="598.22,17.62 576.83,38.65 552.27,60.68 526.83,81.7 488.94,111.17"   /><polyline id="SvgjsPolyline5715" points="146.58,0.08 131,9.11 114.98,17.31 98.57,24.69 81.82,31.29 64.81,37.17 44.7,43.21 24.38,48.49 0.95,53.72"   /><polyline id="SvgjsPolyline5716" points="529.13,2.19 523.09,12.56 518.97,20.55 514.01,31.48 509.55,42.62 500.87,68.18 489.3,108.56"   /><polyline id="SvgjsPolyline5717" points="598.09,0.8 545.15,53.92 490.44,109.52"   /><polyline id="SvgjsPolyline5718" points="122.86,0 106.54,7.6 92.74,13.46 78.76,18.9 64.63,23.93 50.36,28.57 33.1,33.65 1.11,41.77"   /><polyline id="SvgjsPolyline5719" points="544.68,1.57 537.41,11.11 530.61,21 524.36,31.23 517.2,44.41 511.91,55.19 505.73,68.85 498.78,85.46 488.86,110.57"   /><polyline id="SvgjsPolyline5720" points="581.12,0.78 560.08,22.16 549.99,33.26 538.25,46.9 517.6,72.64 490.6,108.64"   /><polyline id="SvgjsPolyline5721" points="93.62,0.11 73.96,7.48 51.22,15.14 28.23,22.02 2.13,28.93"   /><polyline id="SvgjsPolyline5722" points="562,0.4 551.91,11.5 542.34,23.05 533.37,35.06 526.58,44.96 518.53,57.61 510.86,70.51 500.62,88.84 489.29,110"   /><polyline id="SvgjsPolyline5723" points="58.79,0.03 30.06,8.65 1.07,16.38"   /><polyline id="SvgjsPolyline5724" points="15.37,0.26 0.82,3.91"   /></g></svg>