<?xml version="1.0" standalone="no"?>
<svg id="SvgjsSvg1001" width="600" height="600" xmlns="http://www.w3.org/2000/svg" version="1.1" xmlns:xlink="http://www.w3.org/1999/xlink" xmlns:svgjs="http://svgjs.com/svgjs" class="svg-paper" viewBox="0 0 600 600"><title id="SvgjsTitle2039">x=sin(min(sqrt(x*x + y*y),x)*x)|y=x|dTest=0.0|sd=0.2|sm=0.2|ts=0.05 | generated with FlowLines</title><style>*{fill:none;stroke:#777}</style><g id="SvgjsG2040"><polyline id="SvgjsPolyline2041" points="18.63,0.34 18.57,288.34 18.33,330.34 17.61,363.33 16.43,384.29 14.52,402.19 12.11,416.99 5.76,449.37 3.21,467.19 1.18,491.1 0,521.08"   /><polyline id="SvgjsPolyline2042" points="30.63,0.34 34.48,20.98 36.9,41.84 38.32,65.79 39.07,95.78 39.48,179.78 39.5,599.78"   /><polyline id="SvgjsPolyline2043" points="6.63,0.34 4.1,15.12 2.28,30.01 0.92,47.96 0.06,68.94"   /><polyline id="SvgjsPolyline2044" points="17.57,1.21 16.35,22.18 14.38,40.07 11.92,54.86 5.54,87.24 2.92,105.04 1.29,122.97 0.06,149.94"   /><polyline id="SvgjsPolyline2045" points="18.58,1.22 18.02,67.22 17.44,85.21 16.35,103.18 15.16,115.12 13.48,127 6.07,165.29 3.29,183.07 1.29,203.97 0.06,230.94"   /><polyline id="SvgjsPolyline2046" points="18.62,49.22 18.24,136.22 17.67,160.21 16.79,178.19 15.49,193.13 13.94,205.03 11.9,216.86 6.06,246.28 3.28,264.06 1.29,284.96 0.06,311.93"   /><polyline id="SvgjsPolyline2047" points="18.62,130.15 18.22,217.15 17.63,241.14 16.7,259.11 15.35,274.05 13.74,285.94 5.84,327.19 3.13,344.98 1.21,365.89 0.02,392.86"   /><polyline id="SvgjsPolyline2048" points="18.63,2.01 18.69,254.01 18.92,296.01 19.51,326 20.76,349.97 22.64,367.87 25.1,382.66 33.63,423.78 35.76,438.63 37.19,453.56 38.34,474.53 39.03,501.52 39.48,597.52"   /><polyline id="SvgjsPolyline2049" points="18.63,2.58 18.51,230.58 18.16,266.58 17.48,290.57 16.17,311.53 14.08,329.4 12.08,341.23 5.73,373.62 3.19,391.43 1.12,415.34 0.07,439.32"   /><polyline id="SvgjsPolyline2050" points="18.64,269.29 18.98,365.29 19.48,389.28 20.28,407.26 21.47,422.22 23.71,440.07 26.37,454.84 33.15,487.13 35.03,498.98 36.43,510.9 37.61,525.85 38.46,543.83 39.33,597.82"   /><polyline id="SvgjsPolyline2051" points="18.63,189.9 18.47,384.9 18.08,417.89 17.29,441.88 16.06,459.84 13.61,480.69 11.61,492.52 5.78,521.95 3.09,539.74 1.18,560.65 0.01,587.63"   /><polyline id="SvgjsPolyline2052" points="43,0.82 41.65,15.75 40.81,30.73 40.15,51.72 39.74,81.72 39.5,522.72"   /><polyline id="SvgjsPolyline2053" points="62.18,0.59 61.73,81.59 60.92,108.58 59.73,126.54 58.44,138.47 56.05,153.27 47.39,191.3 44.63,206.04 42.14,226.89 40.7,250.84 39.94,280.83 39.62,319.83 39.5,598.83"   /><polyline id="SvgjsPolyline2054" points="62.2,69.6 62.01,237.6 61.54,270.6 60.61,294.58 59.16,312.52 57.14,327.38 54.25,342.1 46.8,374.25 44.66,386.05 43.05,397.94 41.68,412.88 40.83,427.85 39.8,472.84"   /><polyline id="SvgjsPolyline2055" points="62.2,249.6 61.9,372.6 61.38,399.6 60.43,420.57 58.82,438.5 56.63,453.34 54.25,465.1 46.8,497.25 45.14,506.09 43.4,517.96 41.91,532.89 40.83,550.85 39.8,595.84"   /><polyline id="SvgjsPolyline2056" points="62.2,372.6 62.01,483.6 61.61,513.6 60.92,534.59 59.74,552.55 58.05,567.45 55.5,582.23 51.5,599.78"   /><polyline id="SvgjsPolyline2057" points="18.63,245.79 18.84,416.79 19.35,449.79 20.19,470.77 21.62,488.71 24.04,506.55 26.79,521.29 32.44,547.69 34.91,562.49 36.9,580.37 38.06,598.34"   /><polyline id="SvgjsPolyline2058" points="18.63,1.68 18.61,409.68 18.04,493.68 16.85,523.65 14.67,547.55 11.96,565.34 5.59,597.72"   /><polyline id="SvgjsPolyline2059" points="74.18,0.6 79.95,23.9 82.14,35.69 83.4,44.6 85.51,68.51 86.64,98.48 87.26,176.48 87.31,599.48"   /><polyline id="SvgjsPolyline2060" points="62.94,1.63 63.48,16.62 64.43,31.59 65.63,43.53 66.88,52.44 70.45,70.08 77.24,96.21 79.97,107.9 81.66,116.74 83.41,128.61 84.9,143.53 85.84,158.5 86.5,176.49 86.98,203.48"   /><polyline id="SvgjsPolyline2061" points="62.23,1.64 62.67,73.64 63.35,97.63 64.42,115.6 66,130.51 67.91,142.36 71.15,157 79.32,188.97 81.65,200.74 83.4,212.61 84.9,227.53 85.97,245.5 87.01,290.49"   /><polyline id="SvgjsPolyline2062" points="62.22,61.71 62.65,151.71 63.43,178.69 64.34,193.67 65.87,208.59 68.29,223.39 70.91,235.1 79.1,267.06 81.48,278.82 83.28,290.69 84.82,305.61 85.93,323.57 87,368.56"   /><polyline id="SvgjsPolyline2063" points="62.22,142.65 62.62,232.65 63.22,256.64 64.41,277.61 65.98,292.52 67.87,304.37 70.39,316.1 79.28,350.99 81.62,362.76 83.38,374.63 84.88,389.55 85.96,407.52 87,452.5"   /><polyline id="SvgjsPolyline2064" points="62.22,226.64 62.62,316.64 63.35,343.63 64.42,361.6 66,376.51 67.91,388.36 71.15,403 79.32,434.97 81.65,446.74 83.4,458.61 84.9,473.53 85.97,491.5 87.01,536.49"   /><polyline id="SvgjsPolyline2065" points="62.22,307.71 62.65,397.71 63.43,424.69 64.59,442.66 66.28,457.56 68.29,469.39 70.91,481.1 79.1,513.06 80.94,521.87 82.88,533.71 84.56,548.62 85.63,563.58 86.8,599.56"   /><polyline id="SvgjsPolyline2066" points="62.2,2.12 62.25,401.12 62.55,452.12 63.16,479.11 64.52,503.07 65.77,515 67.07,523.91 70.03,538.61 79.56,576.42 81.84,588.21 83.16,597.11"   /><polyline id="SvgjsPolyline2067" points="62.2,2.69 62.22,431.69 62.62,509.69 63.34,536.68 64.95,560.62 67.36,578.46 71.64,599.01"   /><polyline id="SvgjsPolyline2068" points="18.63,315.09 18.74,465.09 19.06,501.09 19.67,525.08 20.88,546.05 22.45,560.96 25.29,578.73 29.62,599.28"   /><polyline id="SvgjsPolyline2069" points="18.62,467.83 18.4,554.83 17.41,599.82"   /><polyline id="SvgjsPolyline2070" points="86.54,0.42 87.08,36.41 87.27,90.41 87.31,597.41"   /><polyline id="SvgjsPolyline2071" points="115.76,1.2 115.59,49.2 115.15,79.2 114.22,103.18 112.77,121.12 111.19,133.01 108.28,147.72 105.23,159.33 96.84,188.13 93.5,202.75 91.99,211.62 90.49,223.53 88.74,247.46 87.78,280.44 87.42,322.44 87.31,598.44"   /><polyline id="SvgjsPolyline2072" points="115.8,58.21 115.59,220.21 114.99,256.21 114.05,277.18 112.45,295.11 109.61,312.88 106.08,327.46 96.13,362.05 93.53,373.76 91.58,385.6 89.93,400.51 88.9,415.48 88.02,439.46 87.63,463.46"   /><polyline id="SvgjsPolyline2073" points="115.8,229.21 115.47,349.21 114.79,379.2 113.62,400.17 111.66,418.06 108.98,432.82 106.08,444.46 96.13,479.05 93.53,490.76 91.58,502.6 89.93,517.51 88.9,532.48 88.02,556.46 87.63,580.46"   /><polyline id="SvgjsPolyline2074" points="115.8,346.21 115.47,466.21 114.79,496.2 113.62,517.17 111.66,535.06 108.98,549.82 106.08,561.46 98.47,587.36 95.42,598.97"   /><polyline id="SvgjsPolyline2075" points="98.54,0.11 94.8,14.64 92.52,26.42 90.53,41.28 89.27,56.23 88.28,77.21 87.79,98.2 87.34,176.2"   /><polyline id="SvgjsPolyline2076" points="127.76,1.22 138.44,32.44 140.89,41.1 143.5,52.81 145.41,64.65 146.76,76.58 147.86,91.54 148.54,106.52 149.25,139.51 149.54,190.51 149.6,598.51"   /><polyline id="SvgjsPolyline2077" points="111.26,2.06 109.67,10.92 106.95,22.61 98.54,51.4 95.48,63 93.58,71.8 91.62,83.64 89.95,98.54 88.77,116.5 87.96,140.49 87.55,170.49"   /><polyline id="SvgjsPolyline2078" points="119.1,2.29 121.42,17.1 124.15,28.78 128.58,43.11 138.33,71.48 141.52,83.05 143.97,94.79 146.1,109.64 147.66,127.57 148.53,145.55 149.16,172.54"   /><polyline id="SvgjsPolyline2079" points="115.22,1.98 114.53,22.97 113.61,37.94 112.43,49.88 110.69,61.75 108.95,70.58 106.82,79.32 98.4,108.11 95.36,119.72 92.93,131.47 90.8,146.32 89.44,161.26 88.37,182.23 87.78,206.22 87.44,245.22"   /><polyline id="SvgjsPolyline2080" points="115.53,106.35 115.14,130.35 114.37,151.33 113.33,166.3 111.59,181.2 110.1,190.07 107.49,201.78 98.32,233.48 95.29,245.09 92.89,256.84 91.12,268.71 89.64,283.64 88.73,298.61 88.01,319.6 87.62,343.59"   /><polyline id="SvgjsPolyline2081" points="116.6,2.36 117.19,17.34 118.22,32.31 119.55,44.23 121.52,56.07 123.51,64.84 125.96,73.5 136.65,104.72 140.15,116.2 142.94,127.87 145.01,139.69 146.77,154.58 148.03,172.53 148.82,193.52 149.28,220.51"   /><polyline id="SvgjsPolyline2082" points="115.99,2.36 116.31,29.36 116.92,50.35 117.74,65.33 119.16,80.26 121.51,95.07 124.28,106.74 128.73,121.06 135.69,140.88 139.33,152.31 142.31,163.93 144.06,172.76 146.16,187.61 147.69,205.54 148.74,229.52 149.28,259.52"   /><polyline id="SvgjsPolyline2083" points="115.9,23.37 116.09,53.36 116.69,83.36 117.74,104.33 119.16,119.26 121.5,134.07 124.26,145.75 128.72,160.07 138.46,188.44 141.62,200.02 144.05,211.77 146.15,226.62 147.69,244.55 148.74,268.52 149.28,298.52"   /><polyline id="SvgjsPolyline2084" points="115.9,62.38 116.16,98.38 116.79,125.37 117.72,143.35 119.13,158.28 121.46,173.09 124.21,184.77 128.65,199.1 135.6,218.91 139.25,230.34 142.25,241.96 144.51,253.74 146.45,268.62 147.85,286.56 148.73,307.54 149.28,337.54"   /><polyline id="SvgjsPolyline2085" points="115.9,101.36 116.09,131.36 116.69,161.35 117.74,182.33 119.16,197.26 121.51,212.07 124.28,223.74 128.73,238.06 135.69,257.88 139.33,269.31 142.31,280.93 144.06,289.76 146.48,307.59 147.87,325.54 148.74,346.52 149.28,376.52"   /><polyline id="SvgjsPolyline2086" points="115.9,140.37 116.09,170.37 116.69,200.36 117.74,221.33 119.16,236.26 121.5,251.07 124.26,262.75 128.72,277.07 138.46,305.44 141.62,317.02 144.05,328.77 146.15,343.62 147.69,361.55 148.74,385.52 149.28,415.52"   /><polyline id="SvgjsPolyline2087" points="115.9,179.38 116.16,215.38 116.79,242.37 117.72,260.35 119.13,275.28 121.46,290.09 124.21,301.77 128.65,316.1 135.6,335.91 139.25,347.34 142.25,358.96 144.51,370.74 146.45,385.62 147.85,403.56 148.73,424.54 149.28,454.54"   /><polyline id="SvgjsPolyline2088" points="115.9,218.36 116.09,248.36 116.69,278.35 117.74,299.33 119.16,314.26 121.51,329.07 124.28,340.74 128.73,355.06 135.69,374.88 139.33,386.31 142.31,397.93 144.06,406.76 146.48,424.59 147.87,442.54 148.74,463.52 149.28,493.52"   /><polyline id="SvgjsPolyline2089" points="115.9,257.37 116.09,287.37 116.69,317.36 117.74,338.33 119.16,353.26 121.5,368.07 124.26,379.75 128.72,394.07 138.46,422.44 141.62,434.02 144.05,445.77 146.15,460.62 147.69,478.55 148.74,502.52 149.28,532.52"   /><polyline id="SvgjsPolyline2090" points="115.9,296.38 116.16,332.38 116.79,359.37 117.72,377.35 119.13,392.28 121.46,407.09 124.21,418.77 128.65,433.1 135.6,452.91 139.25,464.34 142.25,475.96 144.51,487.74 146.45,502.62 147.85,520.56 148.73,541.54 149.28,571.54"   /><polyline id="SvgjsPolyline2091" points="115.89,335.45 116.19,374.45 116.76,398.44 117.66,416.42 119.39,434.33 121.29,446.18 123.97,457.87 128.35,472.21 138.99,503.45 141.35,512.13 143.84,523.87 146.02,538.71 147.4,553.64 148.39,571.62 149.11,598.6"   /><polyline id="SvgjsPolyline2092" points="115.86,362.68 116.11,407.67 116.74,437.67 117.85,458.64 119.74,476.53 121.8,488.35 124.66,500.01 128.18,511.48 137.96,539.84 141.92,554.3 143.75,563.11 145.59,574.97 146.88,586.9 147.77,598.87"   /><polyline id="SvgjsPolyline2093" points="115.8,0.16 115.86,405.16 116.21,456.16 116.92,483.15 117.76,498.12 118.84,510.07 120.47,521.96 122.17,530.8 125.05,542.45 127.61,551.07 139.16,585.16 142.81,599.71"   /><polyline id="SvgjsPolyline2094" points="115.8,0.55 116.03,507.55 116.42,534.55 117.31,558.53 118.9,579.47 121.35,597.3"   /><polyline id="SvgjsPolyline2095" points="115.79,407.66 115.57,500.66 114.7,542.65 113.68,560.62 112.17,575.54 110.32,587.4 107.82,599.14"   /><polyline id="SvgjsPolyline2096" points="140.08,0.25 142.26,8.99 144.02,17.81 145.78,29.68 146.75,38.63 148.43,65.57 149.17,95.56 149.58,179.56 149.6,599.56"   /><polyline id="SvgjsPolyline2097" points="193.57,0.75 193.23,45.75 192.38,75.73 190.91,96.68 188.46,114.51 185.88,126.22 182.37,137.69 177.99,148.86 165.73,176.24 162.5,184.64 158.78,196.05 156.55,204.77 154.81,213.6 153.12,225.48 151.96,237.42 150.47,267.38 149.76,318.37 149.6,597.37"   /><polyline id="SvgjsPolyline2098" points="193.65,36.76 193.32,201.76 192.52,234.75 190.93,258.7 189.47,270.61 187.94,279.47 185.93,288.25 183.4,296.88 178.08,310.9 168.17,332.76 163.61,343.86 158.84,358.07 155.97,369.72 153.51,384.52 151.75,402.43 150.57,426.4 149.92,459.39"   /><polyline id="SvgjsPolyline2099" points="193.65,198.76 193.53,288.76 193.13,327.76 192.24,354.75 191.46,366.72 190.28,378.66 189.01,387.57 187.33,396.41 183.4,410.88 178.08,424.9 168.17,446.76 163.61,457.86 158.84,472.08 155.97,483.72 153.51,498.52 151.75,516.43 150.57,540.4 149.92,573.39"   /><polyline id="SvgjsPolyline2100" points="193.65,312.76 193.53,402.76 193.07,444.76 191.89,474.74 189.89,495.64 187.33,510.41 183.4,524.88 178.08,538.9 168.17,560.76 163.61,571.86 158.84,586.08 155.97,597.72"   /><polyline id="SvgjsPolyline2101" points="152.47,0.16 151.34,15.12 150.66,30.1 149.86,72.09 149.6,336.09"   /><polyline id="SvgjsPolyline2102" points="205.57,0.78 210.6,11.67 216.82,21.93 225.8,33.93 243.16,54.61 252.43,66.4 260.92,78.76 268.4,91.76 272.35,99.85 275.89,108.12 281.82,125.11 286.4,142.51 288.81,154.27 290.82,166.1 293.82,189.91 296.06,216.81 297.61,246.77 298.69,282.75 299.35,324.75 299.75,381.75 299.99,597.75"   /><polyline id="SvgjsPolyline2103" points="181.57,0.72 177.25,11.91 167.36,33.77 162.75,44.85 158.12,59.11 155.45,70.81 152.85,88.61 151.21,109.55 150.19,139.53 149.8,172.53"   /><polyline id="SvgjsPolyline2104" points="198.17,1.89 200.65,13.63 203.27,22.24 207.77,33.36 211.86,41.37 216.6,49.02 221.86,56.33 248.56,88.74 253.98,95.92 260.72,105.85 266.81,116.18 272.19,126.91 276.85,137.97 281.71,152.15 285.63,166.63 289.29,184.25 292.42,205.01 294.65,225.89 296.41,249.83 297.71,276.8 299.2,339.78"   /><polyline id="SvgjsPolyline2105" points="189.46,1.71 186.63,16.43 182.4,30.82 177.02,44.82 167.12,66.68 162.55,77.77 158.77,89.16 155.92,100.81 153.48,115.61 151.53,136.51 150.47,160.49 149.86,196.48"   /><polyline id="SvgjsPolyline2106" points="192.29,1.7 191.3,16.67 189.63,31.57 188.15,40.45 185.44,52.14 182.79,60.74 178.59,71.98 166.36,99.36 161.89,110.5 158.26,121.93 155.54,133.62 152.9,151.42 151.24,172.35 150.34,196.33 149.82,232.33"   /><polyline id="SvgjsPolyline2107" points="193.23,1.04 192.62,25.03 191.44,46 189.85,60.91 187.26,75.68 184.21,87.29 180.24,98.6 175.59,109.67 165.69,131.53 160.36,145.55 156.42,160.01 153.8,174.78 151.7,195.67 150.54,219.64 149.88,255.63 149.64,312.63"   /><polyline id="SvgjsPolyline2108" points="193.5,48.51 193.13,81.51 192.39,105.49 190.93,126.44 189.02,141.32 185.94,155.99 182.45,167.47 177.09,181.47 167.19,203.34 162.61,214.43 158.82,225.81 155.95,237.46 153.13,255.23 151.54,273.16 150.47,297.13 149.92,327.13"   /><polyline id="SvgjsPolyline2109" points="195.34,2.03 196.96,19.96 199.4,34.75 202.49,46.34 204.51,51.99 208.01,60.28 213.68,70.85 220.41,80.78 227.83,90.21 248.93,115.58 256.06,125.23 262.62,135.28 269.86,148.41 274.84,159.33 280.07,173.38 284.32,187.76 287.71,202.37 290.85,220.1 293.53,240.92 295.44,261.83 296.94,285.79 298.05,312.76 298.93,348.75 299.49,393.75"   /><polyline id="SvgjsPolyline2110" points="194.27,2.06 195.54,32.03 196.61,43.98 197.78,52.9 199.4,61.75 201.6,70.48 203.45,76.18 206.79,84.54 212.15,95.27 218.65,105.35 225.93,114.89 243.29,135.57 250.75,144.96 257.76,154.71 264.15,164.86 271.17,178.11 275.97,189.11 281,203.23 284.32,214.76 287.7,229.37 290.85,247.1 292.86,261.96 294.96,282.85 296.62,306.8 297.73,330.77 299.16,390.75"   /><polyline id="SvgjsPolyline2111" points="193.88,2.06 194.62,41.05 195.34,56.03 196.29,68 197.78,79.9 199.39,88.75 201.59,97.48 203.45,103.19 209.31,116.99 212.14,122.27 216.92,129.9 225.92,141.89 243.28,162.57 250.74,171.97 259.41,184.21 265.63,194.46 272.43,207.83 278.1,221.71 282.72,235.98 286.44,250.51 289.9,268.17 292.49,285.98 294.7,306.87 296.26,327.81 297.49,351.78 298.48,381.76 299.21,420.75 299.64,468.75"   /><polyline id="SvgjsPolyline2112" points="193.83,23.06 194.42,62.06 195,77.05 196.01,92.01 197.34,103.94 198.79,112.82 200.78,121.6 203.43,130.19 209.28,144 213.64,151.87 216.89,156.91 225.89,168.91 243.25,189.59 250.71,198.98 257.72,208.72 264.12,218.87 271.14,232.12 275.94,243.12 280.98,257.24 285.04,271.68 288.28,286.32 290.84,301.1 293.19,318.95 295.2,339.85 296.78,363.8 297.73,384.77 299.16,444.76"   /><polyline id="SvgjsPolyline2113" points="193.83,50.07 194.51,92.07 196,119.02 197.32,130.95 198.76,139.83 200.74,148.61 203.39,157.21 209.22,171.02 213.57,178.9 216.82,183.94 225.8,195.95 243.16,216.63 250.63,226.02 259.3,238.25 265.54,248.5 272.35,261.86 278.03,275.74 282.67,290 286.4,304.53 289.86,322.19 292.47,340 294.68,360.88 296.43,384.82 297.61,408.79 298.69,444.77 299.68,528.76"   /><polyline id="SvgjsPolyline2114" points="193.83,77.1 194.5,119.09 195.97,146.05 197.27,157.98 198.7,166.86 200.66,175.65 203.27,184.26 209.05,198.09 211.86,203.39 216.61,211.04 225.56,223.06 242.92,243.74 250.4,253.12 257.43,262.85 263.86,272.98 269.59,283.52 275.75,297.19 280.82,311.3 284.92,325.73 288.18,340.37 291.21,358.11 293.47,375.97 295.16,393.89 296.58,414.84 297.71,438.81 299.2,501.79"   /><polyline id="SvgjsPolyline2115" points="193.63,25.87 193.46,85.87 192.83,124.86 191.67,148.83 189.85,166.74 187.26,181.51 183.31,195.97 176.95,212.8 167.04,234.66 162.48,245.76 158.72,257.15 155.88,268.81 153.09,286.59 151.52,304.51 150.46,328.49 149.92,358.48"   /><polyline id="SvgjsPolyline2116" points="193.53,103.69 193.24,136.68 192.54,163.67 191.25,184.63 189.54,199.53 186.77,214.27 182.6,228.67 177.21,242.67 167.31,264.53 162.72,275.61 158.9,286.99 156.01,298.63 153.54,313.42 151.56,334.33 150.32,364.3 149.82,400.3"   /><polyline id="SvgjsPolyline2117" points="193.27,165.73 192.62,192.72 191.42,213.69 189.82,228.6 187.21,243.37 184.14,254.96 180.15,266.28 165.56,299.18 161.22,310.37 157.74,321.85 154.65,336.52 152.69,351.39 151.3,369.34 150.44,390.32 149.91,420.31"   /><polyline id="SvgjsPolyline2118" points="193.65,66.45 193.35,228.45 192.74,258.45 191.45,282.41 190.26,294.35 188.99,303.26 187.3,312.1 185.11,320.83 182.39,329.41 179.23,337.83 165.85,367.99 160.49,382 156.51,396.45 154.78,405.28 153.46,414.19 152.19,426.12 151.34,438.09 150.24,468.07 149.74,513.06 149.61,597.06"   /><polyline id="SvgjsPolyline2119" points="193.83,104.06 194.52,146.05 196.02,173.01 197.34,184.93 198.8,193.81 200.79,202.59 203.45,211.18 206.78,219.54 209.31,224.99 213.67,232.85 216.93,237.89 225.92,249.89 243.28,270.57 250.75,279.96 259.41,292.21 265.64,302.46 272.43,315.83 278.1,329.71 282.73,343.98 286.44,358.51 289.9,376.17 292.49,393.98 294.96,417.85 296.62,441.8 297.95,471.77 298.69,498.76 299.69,585.75"   /><polyline id="SvgjsPolyline2120" points="193.83,131.06 194.52,173.06 196.01,200.01 197.34,211.94 198.79,220.82 200.78,229.59 203.44,238.19 209.29,251.99 213.65,259.86 216.9,264.9 225.9,276.9 243.26,297.58 250.72,306.98 259.39,319.22 265.62,329.47 271.14,340.12 277.04,353.91 280.98,365.24 285.04,379.68 288.28,394.32 290.84,409.1 293.2,426.94 295.2,447.85 296.78,471.8 297.73,492.77 299.16,552.75"   /><polyline id="SvgjsPolyline2121" points="193.83,158.07 194.51,200.06 196,227.02 197.32,238.95 198.77,247.83 200.75,256.6 203.4,265.2 209.24,279.01 212.07,284.3 216.84,291.93 225.83,303.94 243.19,324.62 250.66,334.01 259.33,346.24 265.56,356.49 271.1,367.14 277,380.92 281.83,395.12 285.73,409.6 288.82,424.28 291.69,442.05 293.83,459.92 295.65,480.84 297.08,504.8 298.14,531.77 299.38,597.76"   /><polyline id="SvgjsPolyline2122" points="193.83,185.09 194.5,227.09 195.98,254.04 197.29,265.97 198.72,274.85 200.68,283.64 203.31,292.24 209.11,306.07 211.92,311.36 216.67,319.01 225.64,331.03 243,351.71 250.47,361.09 257.5,370.82 263.92,380.96 270.97,394.19 275.79,405.17 279.93,416.44 284.2,430.81 287.61,445.42 290.31,460.17 292.8,478 294.66,495.9 296.42,519.84 297.6,543.81 299.02,597.79"   /><polyline id="SvgjsPolyline2123" points="193.65,1.38 193.5,241.38 193,280.38 191.69,310.34 190.62,322.3 189.02,334.19 187.33,343.03 185.16,351.76 182.45,360.34 178.13,371.53 165.87,398.91 161.48,410.08 157.2,424.45 154.3,439.16 152.77,451.06 151.73,463.02 150.38,492.98 149.81,531.98 149.63,597.98"   /><polyline id="SvgjsPolyline2124" points="193.65,228.45 193.53,318.45 193.13,357.45 192.07,387.43 190.26,408.35 188.99,417.26 187.3,426.1 183.36,440.56 176.95,457.38 167.05,479.24 162.49,490.34 158.73,501.73 155.88,513.39 153.46,528.19 151.72,546.1 150.66,567.07 149.99,597.06"   /><polyline id="SvgjsPolyline2125" points="193.83,212.06 194.52,254.05 196.02,281.01 197.34,292.93 198.8,301.81 200.79,310.59 203.45,319.18 209.31,332.98 212.15,338.27 216.93,345.89 225.93,357.89 243.28,378.57 250.75,387.96 257.75,397.71 264.15,407.86 269.85,418.41 274.83,429.33 279.11,440.54 283.54,454.87 286.44,466.51 289.39,481.22 291.71,496.03 293.53,510.92 295.2,528.84 296.62,549.8 298.48,597.76"   /><polyline id="SvgjsPolyline2126" points="193.83,239.06 194.34,275.06 195.76,305.02 197.77,322.9 199.39,331.76 201.59,340.48 203.44,346.19 206.77,354.55 209.3,359.99 213.66,367.86 222.19,380.19 247.04,410.24 254.3,419.8 259.39,427.21 264.13,434.87 269.84,445.42 274.82,456.33 278.09,464.72 281.87,476.1 285.76,490.59 288.85,505.27 291.28,520.07 293.53,537.93 295.2,555.85 296.44,573.8 297.61,597.77"   /><polyline id="SvgjsPolyline2127" points="193.83,266.07 194.42,305.06 195.76,332.03 196.94,343.97 198.24,352.87 200.03,361.69 202.45,370.36 204.46,376.01 207.96,384.3 210.63,389.67 215.21,397.42 223.98,409.58 246.99,437.26 255.98,449.27 262.55,459.31 267.03,467.11 271.11,475.13 274.78,483.35 279.07,494.56 282.69,505.99 285.74,517.6 288.83,532.28 291.27,547.07 293.19,561.95 294.95,579.86 296.25,597.82"   /><polyline id="SvgjsPolyline2128" points="193.83,293.09 194.42,332.08 195.74,359.05 196.91,370.99 198.21,379.89 199.98,388.71 202.38,397.39 204.38,403.04 207.86,411.34 210.52,416.72 215.08,424.48 223.83,436.65 244.96,462 254.11,473.88 259.21,481.29 263.96,488.94 268.33,496.81 272.28,504.89 275.83,513.16 279.96,524.43 282.63,533.02 285.68,544.62 288.22,556.35 290.33,568.16 292.45,583.01 294.11,597.92"   /><polyline id="SvgjsPolyline2129" points="193.83,320.13 194.49,362.12 195.93,389.08 197.22,401.01 198.62,409.9 200.55,418.69 203.14,427.31 208.86,441.17 211.64,446.48 216.36,454.14 225.29,466.19 244.54,489.2 253.72,501.06 262.08,513.51 269.39,526.6 273.24,534.73 276.69,543.05 282.44,560.1 286.87,577.54 290.69,598.18"   /><polyline id="SvgjsPolyline2130" points="193.8,344.25 194.35,386.25 195.79,416.21 197,428.15 198.86,440 200.88,448.77 203.57,457.35 206.84,465.74 209.37,471.18 212.21,476.46 217,484.08 226.01,496.07 243.37,516.75 250.83,526.14 257.82,535.89 264.21,546.05 271.22,559.3 276.01,570.3 281.03,584.43 285.09,598.87"   /><polyline id="SvgjsPolyline2131" points="193.65,259.38 193.53,349.38 193.13,388.38 192.08,418.36 190.28,439.28 189.02,448.19 187.33,457.03 183.41,471.5 176.97,488.3 163.58,518.46 159.59,529.77 157.2,538.45 154.79,550.2 152.77,565.06 151.53,580.01 150.66,597.99"   /><polyline id="SvgjsPolyline2132" points="193.65,2.54 193.84,383.54 194.17,410.54 194.79,431.53 195.63,446.51 197.11,461.43 199.04,473.27 201.96,484.91 205.88,496.25 210.99,507.1 215.61,514.82 222.59,524.57 245.58,552.28 256.41,566.65 261.36,574.16 265.94,581.91 270.13,589.87 273.9,598.04"   /><polyline id="SvgjsPolyline2133" points="193.65,0.04 193.82,420.04 194.47,462.03 195.08,477.02 196.15,491.98 198.02,506.86 200.97,521.57 204.39,533.06 209.05,544.11 214.96,554.55 221.86,564.36 250.4,599.15"   /><polyline id="SvgjsPolyline2134" points="193.62,423.57 193.11,501.57 192.47,522.56 191.16,543.51 189.59,558.43 187.13,573.22 183.45,587.76 179.53,599.1"   /><polyline id="SvgjsPolyline2135" points="193.63,383.32 193.52,437.32 193.01,479.32 191.91,506.29 189.93,527.19 188.55,536.09 186.72,544.9 182.53,559.29 176.99,573.23 165.82,597.81"   /><polyline id="SvgjsPolyline2136" points="164.42,1.3 160.27,12.56 157.03,24.11 154.66,35.87 153.01,47.76 151.48,65.69 150.63,83.67 149.77,137.66"   /><polyline id="SvgjsPolyline2137" points="218.82,1.27 228.02,13.12 247.26,36.14 254.5,45.7 262.77,58.21 269.99,71.36 273.78,79.52 277.16,87.85 280.17,96.34 283.62,107.83 288.35,128.28 291.75,149 294.46,172.85 296.46,199.77 297.96,232.74 298.88,268.73 299.8,370.72 300,598.72"   /><polyline id="SvgjsPolyline2138" points="300.51,597.11 301.8,525.12 302.89,498.14 304.64,471.2 306.7,450.3 309.16,432.47 313.08,411.84 316.67,397.28 321.15,382.97 325.47,371.78 330.5,360.88 337.8,347.78 344.4,337.76 351.57,328.14 378.27,295.73 383.51,288.42 388.24,280.76 392.32,272.74 395.68,264.39 398.34,255.8 400.94,244.09 402.72,232.22 404.15,217.29 405.15,199.32 405.69,181.33 406.23,130.33 406.35,1.33"   /><polyline id="SvgjsPolyline2139" points="193.7,367.29 194.14,430.29 195.32,463.27 196.57,478.21 197.73,487.14 199.99,498.92 202.39,507.59 204.4,513.25 208.05,521.47 212.45,529.32 215.74,534.34 224.77,546.3 244.02,569.31 251.45,578.74 258.4,588.52 264.73,598.71"   /><polyline id="SvgjsPolyline2140" points="193.68,403.02 193.87,457.02 194.48,493.01 195.92,519.97 198.09,537.83 199.82,546.66 202.16,555.35 205.06,563.87 208.59,572.15 211.34,577.48 216.02,585.17 221.22,592.51 226.79,599.58"   /><polyline id="SvgjsPolyline2141" points="193.68,437.97 194,509.97 195.15,548.95 196.26,563.91 197.73,575.81 199.79,587.63 202.72,599.27"   /><polyline id="SvgjsPolyline2142" points="233.65,1 247.1,17.13 256.09,29.14 264.18,41.77 269.88,52.32 275.99,66.02 280.09,77.29 284.33,91.68 288.3,109.23 291.3,126.98 293.54,144.84 295.44,165.75 296.94,189.7 298.05,216.68 298.82,246.67 299.72,333.66"   /><polyline id="SvgjsPolyline2143" points="300.12,598.06 300.72,496.06 302.18,433.08 303.51,406.11 305.06,385.17 307.3,364.29 309.97,346.49 314.16,325.92 318.9,308.56 321.78,300.03 325.04,291.64 331.35,278.04 338.79,265.02 347.25,252.64 356.5,240.83 375.74,217.81 384.54,205.68 389.15,197.95 391.85,192.59 395.3,184.28 398.04,175.71 400.74,164.02 402.58,152.17 404.07,137.24 404.97,122.27 406.01,80.29 406.32,2.29"   /><polyline id="SvgjsPolyline2144" points="312.51,597.21 315.95,582.61 320.26,568.25 325.58,554.22 330.62,543.34 337.94,530.25 346.29,517.8 355.48,505.94 376.59,480.58 381.96,473.36 386.86,465.81 392.43,455.19 395.77,446.83 399.14,435.32 401.5,423.56 403.41,408.69 404.57,393.73 405.47,372.75 405.99,345.76 406.33,261.76 406.35,0.76"   /><polyline id="SvgjsPolyline2145" points="305.72,599.73 307.42,584.83 309.14,572.95 311.84,558.2 314.46,546.49 317.54,534.89 320.24,526.31 324.4,515.05 327.98,506.79 331.96,498.72 336.35,490.87 341.12,483.24 346.25,475.85 355.43,463.98 374.69,440.98 383.62,428.93 389.77,418.64 392.4,413.24 395.74,404.89 398.39,396.29 400.42,387.53 403.09,369.73 404.17,357.78 405.03,342.81 405.95,306.82"   /><polyline id="SvgjsPolyline2146" points="302.88,599.75 304.15,578.79 305.69,560.86 307.39,545.96 309.58,531.12 312.41,516.39 315.93,501.81 319.3,490.29 323.29,478.98 327.97,467.93 331.96,459.86 336.35,452.01 342.79,441.89 353.54,427.45 376.55,399.77 385.25,387.56 388.33,382.41 392.4,374.38 394.71,368.85 397.58,360.32 399.8,351.6 401.49,342.76 402.75,333.85 403.94,321.91 405.37,294.95 406.11,252.96"   /><polyline id="SvgjsPolyline2147" points="301.61,597.05 302.58,570.07 303.93,546.11 305.68,525.18 307.77,507.3 310.61,489.53 313.72,474.86 316.81,463.26 321.37,448.97 325.73,437.8 330.79,426.92 336.58,416.41 341.38,408.8 351.96,394.24 376.83,364.21 382.18,356.97 387.06,349.41 389.98,344.17 393.77,336.01 396.84,327.55 399.23,318.88 401.06,310.07 402.8,298.19 404.2,283.26 405.05,268.29 405.96,232.3 406.31,163.3"   /><polyline id="SvgjsPolyline2148" points="300.97,597.84 301.56,570.85 302.64,540.87 304.02,516.91 305.81,495.98 308.37,475.14 310.85,460.35 314.03,445.69 318.06,431.25 322.01,419.91 327.85,406.1 333.24,395.38 339.33,385.05 344.34,377.57 351.5,367.94 378.2,335.53 383.45,328.22 388.19,320.57 392.28,312.56 395.64,304.21 398.31,295.62 400.36,286.86 402.33,275.02 403.66,263.1 404.72,248.13 405.46,230.15 406.17,182.16 406.34,74.16"   /><polyline id="SvgjsPolyline2149" points="300.28,599.7 301.28,512.71 302.06,485.72 303.14,461.75 304.78,437.8 306.55,419.89 308.95,402.05 312.2,384.35 315.75,369.78 320.22,355.47 326.77,338.7 333.42,325.26 341.17,312.42 348.08,302.62 355.48,293.17 374.74,270.17 383.66,258.12 386.87,253.05 391.16,245.14 395.77,234.07 398.41,225.47 400.43,216.7 402.38,204.86 403.69,192.93 404.74,177.97 405.47,159.98 406.15,114.99"   /><polyline id="SvgjsPolyline2150" points="301.16,567.17 301.96,537.18 302.98,513.2 304.54,489.25 306.55,468.35 308.96,450.51 311.61,435.75 314.99,421.14 319.27,406.77 322.34,398.3 327.05,387.27 332.52,376.59 338.71,366.32 345.56,356.46 352.9,346.97 377.75,316.92 383.04,309.64 387.82,302.02 391.96,294.03 395.39,285.71 398.11,277.13 400.79,265.44 402.62,253.58 404.09,238.66 405.11,220.69 405.74,199.7 406.26,142.7 406.35,1.7"   /><polyline id="SvgjsPolyline2151" points="450.4,599.06 450.27,248.06 449.71,203.06 448.52,176.09 447.47,164.14 445.87,152.25 444.16,143.41 441.92,134.69 436.98,120.54 425.94,95.9 421.33,84.82 417.38,73.5 414.13,61.95 411.72,50.19 409.67,35.34 408.38,20.39 407.47,2.42"   /><polyline id="SvgjsPolyline2152" points="300.01,553.22 300.3,376.22 300.78,322.22 301.55,283.23 302.77,250.25 304.68,220.31 307.12,196.44 310.24,175.67 313.94,158.06 318.87,140.75 324.1,126.7 330.48,113.13 338.01,100.16 344.8,90.27 354,78.43 373.25,55.42 378.72,48.27 383.78,40.83 388.29,33.04 392.15,24.91 396.39,13.69 399.58,2.13"   /><polyline id="SvgjsPolyline2153" points="248.65,0.13 259.17,14.73 266.88,27.59 273.48,41.06 276.9,49.38 279.93,57.85 284.95,75.13 289.31,95.67 292.44,116.43 294.92,140.3 296.42,161.25 297.83,191.22 298.81,227.2 299.38,266.2 299.89,368.2 300,599.2"   /><polyline id="SvgjsPolyline2154" points="300.56,536.64 301.86,467.66 302.99,440.68 304.32,419.72 306.23,398.81 308.52,380.96 311.04,366.17 314.27,351.53 318.37,337.1 323.48,323 328.39,312.05 335.53,298.87 341.89,288.69 348.86,278.93 356.31,269.52 373.67,248.84 380.99,239.33 385.99,231.85 389,226.67 394.12,215.82 396.19,210.19 398.74,201.56 400.68,192.77 402.55,180.92 403.8,168.99 404.65,157.02 405.78,124.04"   /><polyline id="SvgjsPolyline2155" points="300.34,499.2 300.78,451.2 301.47,415.2 302.37,388.22 303.6,364.25 305.2,343.31 307.12,325.42 309.73,307.61 313.26,289.96 316.94,275.42 321.48,261.13 327.06,247.21 333.76,233.79 339.92,223.5 348.51,211.2 355.94,201.78 375.18,178.77 382.38,169.17 387.24,161.59 390.13,156.34 394.99,145.37 397.8,136.83 399.97,128.09 401.61,119.25 403.18,107.35 404.23,95.4 405.19,77.42 406,41.43"   /><polyline id="SvgjsPolyline2156" points="300.28,527.28 301.22,443.29 302.18,410.3 303.33,386.33 304.8,365.38 306.93,344.49 309.47,326.67 312.91,309.01 316.64,294.48 321.34,280.24 327.14,266.41 334.1,253.13 340.48,242.97 347.48,233.22 356.8,221.47 374.16,200.79 381.44,191.26 386.4,183.75 389.37,178.54 393.27,170.43 395.46,164.84 398.17,156.26 400.25,147.51 401.82,138.65 403.32,126.74 404.32,114.79 405.24,96.81 406.05,57.82"   /><polyline id="SvgjsPolyline2157" points="324.26,599.66 327.82,591.39 331.78,583.31 336.15,575.45 342.58,565.32 353.31,550.87 376.32,523.18 381.7,515.97 386.63,508.45 390.95,500.55 394.57,492.32 397.47,483.8 399.72,475.09 401.89,463.29 403.65,448.39 404.87,430.44 405.62,409.45 406.23,355.45 406.35,220.45"   /><polyline id="SvgjsPolyline2158" points="317.32,597.44 321.12,586.06 325.63,574.94 330.88,564.15 336.87,553.75 341.81,546.23 350.68,534.14 373.66,506.43 382.7,494.47 389,484.26 392.95,476.18 395.19,470.61 397.96,462.05 400.09,453.31 402.14,441.49 403.53,429.57 404.64,414.61 405.32,399.63 406.09,357.63"   /><polyline id="SvgjsPolyline2159" points="308.22,598.14 311.82,577.45 316.05,559.96 321.64,542.86 325.02,534.52 328.81,526.36 336.07,513.23 344.4,500.77 355.35,486.48 376.47,461.13 385.19,448.93 389.71,441.15 393.54,433.01 396.66,424.57 399.1,415.91 401.47,404.15 403.08,392.26 404.37,377.32 405.37,356.34 406.19,302.35 406.34,191.35"   /><polyline id="SvgjsPolyline2160" points="450.4,598.48 450.08,421.49 449.32,388.5 447.77,364.55 445.34,346.72 443.47,337.92 441.04,329.25 435.82,315.2 424.72,290.58 420.27,279.44 415.63,265.18 412.24,250.57 409.67,232.76 407.86,208.84 406.96,181.85 406.52,142.85"   /><polyline id="SvgjsPolyline2161" points="450.4,421.48 450.34,331.48 449.96,277.48 449.2,250.49 447.48,226.56 446.34,217.63 444.8,208.76 441.07,194.24 435.86,180.18 424.76,155.57 420.3,144.43 415.66,130.17 412.84,118.51 410.02,100.74 408.19,79.82 407.18,55.84 406.63,22.85"   /><polyline id="SvgjsPolyline2162" points="304,597.87 305.48,579.93 307.11,565.02 309.23,550.17 311.35,538.36 313.93,526.65 317.06,515.06 320.82,503.67 325.27,492.53 329.1,484.38 333.35,476.45 338,468.75 343.03,461.28 352.1,449.34 375.13,421.67 384.01,409.59 388.68,401.9 391.43,396.57 395.97,385.47 398.57,376.85 399.95,371.01 401.6,362.17 403.17,350.27 404.22,338.32 405.06,323.34 405.92,290.35"   /><polyline id="SvgjsPolyline2163" points="438.4,599.06 433.98,587.9 422.88,563.29 418.54,552.11 415.82,543.53 413.59,534.81 410.46,517.09 408.43,496.19 407.2,469.22 406.6,433.23 406.37,364.23"   /><polyline id="SvgjsPolyline2164" points="462.4,599.06 473.09,567.84 476.29,556.27 478.19,547.48 480.1,535.63 481.44,523.71 482.52,508.75 483.18,493.76 483.86,460.77 484.14,409.77 484.2,1.77"   /><polyline id="SvgjsPolyline2165" points="446.46,597.99 443.68,583.25 439.43,568.87 433.98,554.9 424.07,533.04 420.62,524.73 416.67,513.41 413.59,501.81 410.88,487.06 408.88,469.18 407.61,448.21 406.82,418.23"   /><polyline id="SvgjsPolyline2166" points="453.84,598.03 456.19,583.22 458.92,571.54 463.33,557.2 473.09,528.84 476.29,517.27 478.73,505.53 480.83,490.68 482.15,475.74 483.18,454.76 483.78,427.77"   /><polyline id="SvgjsPolyline2167" points="449.23,597.86 448.37,582.88 446.87,567.96 444.96,556.11 442.17,544.44 439.43,535.87 435.15,524.66 424.07,500.04 419.55,488.93 415.02,474.64 412.37,462.94 410.08,448.11 408.23,427.2 407.29,406.22 406.69,376.23"   /><polyline id="SvgjsPolyline2168" points="451.23,597.93 451.84,582.95 452.89,567.98 454.23,556.06 456.19,544.22 458.16,535.44 460.58,526.77 471.24,495.55 474.78,484.08 477.6,472.42 479.69,460.61 481.44,445.71 482.52,430.75 483.28,412.77 483.86,382.77"   /><polyline id="SvgjsPolyline2169" points="450.06,597.84 449.47,570.85 448.37,549.88 446.87,534.96 444.35,520.18 441.32,508.57 437.37,497.24 432.78,486.15 422.88,464.29 418.54,453.11 414.28,438.73 411.33,424.03 409.14,406.16 407.61,382.21 406.86,355.23 406.5,319.23"   /><polyline id="SvgjsPolyline2170" points="450.59,597.93 450.99,567.93 451.56,549.94 452.4,534.96 453.84,520.03 456.19,505.22 458.92,493.54 463.33,479.2 473.95,447.97 476.97,436.35 479.23,424.57 481.15,409.7 482.52,391.75 483.28,373.77 483.89,340.77"   /><polyline id="SvgjsPolyline2171" points="450.5,576.93 450.78,540.93 451.33,516.94 452.4,495.96 453.84,481.03 456.19,466.22 458.92,454.54 463.33,440.2 473.95,408.97 476.97,397.35 479.23,385.57 481.15,370.7 482.52,352.75 483.28,334.77 483.89,301.77"   /><polyline id="SvgjsPolyline2172" points="450.5,537.93 450.78,501.93 451.33,477.94 452.4,456.96 453.84,442.03 456.19,427.22 458.92,415.54 463.33,401.2 473.95,369.97 476.97,358.35 479.23,346.57 481.15,331.7 482.52,313.75 483.28,295.77 483.89,262.77"   /><polyline id="SvgjsPolyline2173" points="450.5,498.93 450.78,462.93 451.33,438.94 452.4,417.96 453.84,403.03 456.19,388.22 458.92,376.54 463.32,362.2 473.95,330.97 476.97,319.35 479.23,307.57 481.15,292.7 482.52,274.75 483.28,256.77 483.89,223.77"   /><polyline id="SvgjsPolyline2174" points="450.5,459.93 450.78,423.93 451.43,396.94 452.4,378.96 453.84,364.03 456.19,349.22 458.91,337.54 463.32,323.2 473.95,291.96 476.96,280.35 479.23,268.57 481.15,253.69 482.52,235.75 483.28,217.76 483.89,184.77"   /><polyline id="SvgjsPolyline2175" points="450.5,420.92 450.82,381.92 451.32,360.93 452.19,342.95 453.83,325.03 456.17,310.21 458.9,298.53 463.29,284.19 471.21,261.54 473.92,252.95 476.95,241.34 479.21,229.56 481.14,214.69 482.51,196.74 483.36,175.76 483.89,145.76"   /><polyline id="SvgjsPolyline2176" points="450.5,381.9 450.77,345.9 451.31,321.9 452.37,300.93 453.79,286 456.11,271.18 458.81,259.5 463.19,245.15 473.83,213.92 476.87,202.31 479.16,190.53 481.4,172.68 482.66,154.72 483.51,130.74 483.89,106.74"   /><polyline id="SvgjsPolyline2177" points="450.49,345.81 451.27,285.82 452.09,267.84 453.65,249.91 455.89,235.08 458.51,223.37 462.81,209 473.48,177.78 476.6,166.19 478.96,154.43 480.98,139.57 482.42,121.63 483.32,100.65 483.91,67.65"   /><polyline id="SvgjsPolyline2178" points="450.44,327.55 451.07,255.55 451.86,234.57 453.22,216.62 455.19,201.75 458.26,187.07 462.45,172.67 474,138.58 477.01,126.96 479.71,112.21 481.71,94.33 483.08,70.37 483.79,40.38 484.09,1.38"   /><polyline id="SvgjsPolyline2179" points="450.4,599.92 450.49,263.92 450.91,218.92 451.94,188.94 452.79,176.97 454.07,165.04 455.42,156.15 457.83,144.39 461.7,129.9 471.46,101.54 474.14,92.95 477.12,81.32 478.85,72.49 480.91,57.64 482.19,42.69 483.1,24.72 483.7,0.72"   /><polyline id="SvgjsPolyline2180" points="450.4,236.28 450.51,116.28 451.03,65.29 451.67,44.3 452.49,29.32 453.81,14.38 455.4,2.49"   /><polyline id="SvgjsPolyline2181" points="450.11,197.35 449.63,170.35 448.52,146.38 447.13,131.44 444.78,116.63 441.92,104.98 437.02,90.81 433.6,82.48 422.51,57.87 417.28,43.82 414.05,32.26 412.19,23.46 410.74,14.57 409.33,2.66"   /><polyline id="SvgjsPolyline2182" points="300.21,486.9 301,396.91 301.79,363.92 303.03,333.94 304.86,307.01 306.66,289.1 309.1,271.26 312.41,253.57 317.59,233.23 322.29,218.99 328.05,205.14 334.92,191.81 341.22,181.6 349.94,169.4 374.79,139.35 382.02,129.77 386.91,122.22 389.84,116.98 394.77,106.05 397.63,97.52 399.84,88.79 401.51,79.95 403.11,68.06 404.18,56.11 405.04,41.13 405.99,2.15"   /><polyline id="SvgjsPolyline2183" points="300.45,409.33 301.6,337.34 302.57,310.35 304.12,283.4 305.64,265.46 308.13,244.61 311.1,226.86 315.1,209.31 319.4,194.95 324.52,180.85 329.4,169.89 336.52,156.69 342.98,146.59 350.04,136.88 373.01,109.16 380.37,99.69 387,89.69 392.53,79.05 394.83,73.51 397.67,64.97 399.87,56.25 401.54,47.4 402.79,38.49 403.96,26.55 405.28,2.59"   /><polyline id="SvgjsPolyline2184" points="300.08,391.92 300.66,274.92 302,211.94 303.04,187.96 304.88,161.02 307.04,140.14 309.98,119.34 313.4,101.67 317.91,84.25 322.69,70.04 328.53,56.22 335.49,42.94 343.53,30.29 352.48,18.25 365.91,2.11"   /><polyline id="SvgjsPolyline2185" points="300.01,599.57 300.31,404.57 300.76,353.57 301.51,314.58 302.7,281.6 304.33,254.65 306.94,227.78 309.99,207.01 314.32,186.46 319.37,169.19 324.72,155.18 328.48,147.01 332.62,139.01 338.64,128.64 347.08,116.24 354.42,106.75 373.68,83.75 381,74.24 387.54,64.19 391.73,56.22 396.2,45.09 399.45,33.55 402.15,18.8 404.05,0.9"   /><polyline id="SvgjsPolyline2186" points="300.11,411.59 300.74,300.59 301.47,261.6 302.49,231.61 304,204.66 306.41,177.77 309.24,156.96 312.59,139.28 317.08,121.85 321.89,107.64 326.52,96.58 334.63,80.52 340.89,70.28 349.59,58.06 357.07,48.68 372.53,30.32 379.93,20.88 386.61,10.92 392.22,0.32"   /><polyline id="SvgjsPolyline2187" points="263.79,0.29 270.86,13.51 275.7,24.49 279.85,35.75 284.13,50.12 287.56,64.72 290.27,79.48 292.77,97.3 294.64,115.2 296.22,136.14 297.2,154.12 298.86,208.09 299.66,280.08 299.95,394.08"   /><polyline id="SvgjsPolyline2188" points="300.36,473.44 301.41,395.44 302.39,365.46 303.45,344.49 304.98,323.54 307.18,302.66 309.82,284.86 312.7,270.14 317.23,252.72 322.07,238.53 326.74,227.48 333.63,214.16 339.96,203.96 346.91,194.19 356.2,182.41 375.44,159.4 382.61,149.78 387.45,142.19 390.32,136.92 395.14,125.94 397.91,117.38 400.06,108.64 402.12,96.82 403.52,84.9 404.64,69.95 405.31,54.96 406.14,6.97"   /><polyline id="SvgjsPolyline2189" points="337.57,598.96 344.14,588.93 351.29,579.29 374.29,551.6 383.26,539.58 388.02,531.95 392.14,523.95 394.48,518.42 397.4,509.91 399.66,501.2 401.85,489.41 403.34,477.5 404.53,462.55 405.8,426.57 406.27,369.58"   /><polyline id="SvgjsPolyline2190" points="450.11,467.18 449.53,437.19 448.52,416.21 446.75,398.3 444.15,383.54 441.91,374.82 438.07,363.46 433.42,352.4 424.72,333.28 419.26,319.31 414.85,304.98 412.82,296.22 411.23,287.36 409.36,272.48 407.86,251.53 406.96,224.55 406.57,194.55"   /><polyline id="SvgjsPolyline2191" points="450.28,597.28 449.92,558.28 449.23,534.29 448.11,516.33 446.44,501.43 443.65,486.69 440.36,475.16 435.09,461.12 424.01,436.5 419.5,425.38 415.77,413.97 412.34,399.38 409.72,381.57 408.04,360.64 407.11,336.66 406.56,297.67"   /><polyline id="SvgjsPolyline2192" points="450.31,427.77 450,385.77 449.32,358.78 448.05,337.82 446.32,322.93 443.46,308.21 440.1,296.69 434.76,282.68 424.88,260.81 420.25,249.73 416.37,238.38 412.75,223.83 409.96,206.05 408.36,188.13 407.17,161.16 406.62,128.16"   /><polyline id="SvgjsPolyline2193" points="450.4,576.46 450.16,369.46 449.49,333.46 447.92,306.51 445.62,288.66 443.83,279.85 441.5,271.15 438.62,262.63 435.35,254.25 424.27,229.62 419.73,218.52 415.95,207.13 412.46,192.55 410.15,177.73 408.26,156.82 407.21,132.84 406.64,99.85"   /><polyline id="SvgjsPolyline2194" points="450.34,376.13 450.09,331.13 449.55,304.13 448.55,283.16 446.82,265.25 444.27,250.47 440.28,236.02 436.03,224.8 423.75,197.43 420.33,189.1 415.6,174.87 412.79,163.21 409.99,145.43 408.18,124.51 407.1,97.54 406.6,64.54"   /><polyline id="SvgjsPolyline2195" points="425.13,597.87 420.48,586.81 417.45,578.33 414.92,569.7 412.29,557.99 410.41,546.14 409.1,534.22 408.03,519.26 407.37,504.27 406.69,471.28 406.4,417.28 406.35,0.28"   /><polyline id="SvgjsPolyline2196" points="474.72,599.98 476.92,591.26 478.69,582.43 481.12,564.6 482.81,540.67 483.74,507.68 484.18,417.68 484.2,0.68"   /><polyline id="SvgjsPolyline2197" points="512.66,597.05 512.51,549.05 512.06,516.05 511.31,495.07 509.7,474.13 507.61,459.28 505.17,447.53 502.09,435.94 494.49,410.03 490.42,392.5 488.49,380.66 487.42,371.72 485.67,347.79 484.74,317.81 484.33,275.81 484.2,2.81"   /><polyline id="SvgjsPolyline2198" points="512.69,534.03 512.49,375.03 511.91,339.04 510.78,315.06 509.02,297.15 506.54,282.36 502.98,267.79 493.05,233.2 490.47,221.48 488.53,209.64 486.87,194.73 485.68,176.77 485.01,158.78 484.5,128.79"   /><polyline id="SvgjsPolyline2199" points="512.69,363.03 512.37,243.03 511.71,213.04 510.56,192.07 508.61,174.18 505.91,159.43 502.98,147.79 493.05,113.2 490.47,101.48 488.53,89.64 486.87,74.73 485.68,56.77 485.01,38.78 484.5,8.79"   /><polyline id="SvgjsPolyline2200" points="512.69,243.03 512.37,123.03 511.91,99.04 510.78,75.06 509.02,57.15 506.54,42.36 502.98,27.79 495.37,1.89"   /><polyline id="SvgjsPolyline2201" points="450.41,289.61 450.52,217.61 450.93,178.61 452.01,148.63 453.5,130.69 455.65,115.85 458.94,101.22 462.42,89.74 472.24,61.39 474.82,52.77 477.01,44.04 480.13,26.32 481.45,14.39 482.35,2.43"   /><polyline id="SvgjsPolyline2202" points="450.4,315.93 450.34,207.93 450,156.93 449.04,123.95 448.28,111.97 447.1,100.03 445.82,91.13 444.1,82.29 440.03,67.86 434.74,53.83 424.85,31.96 420.24,20.89 416.36,9.53 414.03,0.84"   /><polyline id="SvgjsPolyline2203" points="450.48,190.43 450.71,154.44 451.35,124.44 452.45,103.47 454.31,85.57 456.3,73.74 459.07,62.07 462.58,50.59 473.29,19.38 475.73,10.72 477.74,1.95"   /><polyline id="SvgjsPolyline2204" points="450.31,165.72 450.08,129.72 449.44,99.72 448.3,78.76 446.34,60.87 443.48,46.15 439.2,31.78 433.77,17.8 426.3,1.42"   /><polyline id="SvgjsPolyline2205" points="450.4,294.3 450.27,117.3 449.62,69.3 448.69,48.33 447.09,30.4 444.71,15.59 441.08,1.04"   /><polyline id="SvgjsPolyline2206" points="300.01,425.79 300.51,212.79 301.26,161.8 302.63,119.82 303.8,98.85 305.18,80.91 306.64,65.98 308.51,51.09 310.37,39.24 313.26,24.52 316.1,12.86 319.49,1.36"   /><polyline id="SvgjsPolyline2207" points="300.05,391.45 300.32,283.45 301.26,205.45 303.09,154.49 304.47,133.53 306.44,112.63 308.81,94.78 311.41,80.01 314.75,65.39 318.96,51 324.13,36.92 330.26,23.23 337.52,10.11 344.09,0.07"   /><polyline id="SvgjsPolyline2208" points="300.17,360.94 300.97,261.95 301.83,225.96 302.94,198.98 304.47,175.03 306.8,151.15 309.79,130.36 312.68,115.64 316.35,101.1 320.98,86.84 326.69,72.97 333.57,59.65 339.89,49.45 348.66,37.28 371.64,9.58 378.97,0.08"   /><polyline id="SvgjsPolyline2209" points="278.8,2.59 281.61,11.14 284.83,22.69 287.51,34.39 289.74,46.18 291.99,61.01 293.43,72.92 296.01,102.81 297.58,132.77 298.8,174.75 299.49,225.74 299.87,309.74"   /><polyline id="SvgjsPolyline2210" points="352.37,598.13 375.38,570.45 384.23,558.35 388.88,550.64 391.61,545.3 395.1,537.01 397.89,528.45 400.04,519.71 401.66,510.86 403.21,498.96 404.25,487.01 405.58,457.04 406.21,406.05"   /><polyline id="SvgjsPolyline2211" points="450.36,598.18 450.16,544.18 449.66,514.19 448.6,490.21 446.51,469.32 443.76,454.58 440.51,443.03 434.07,426.23 424.15,404.38 419.63,393.27 415.87,381.87 413,370.22 410.11,352.46 408.24,331.55 407.2,307.57 406.63,274.58"   /><polyline id="SvgjsPolyline2212" points="450.11,508.94 449.52,478.95 448.48,457.98 447.07,443.04 444.68,428.24 441.77,416.6 437.89,405.25 433.24,394.19 423.33,372.33 417.94,358.34 414.55,346.83 411.52,332.14 409.24,314.29 407.95,296.34 407.07,272.35 406.64,245.36"   /><polyline id="SvgjsPolyline2213" points="412.92,599.93 411.3,591.08 409.72,579.18 407.88,555.26 406.86,522.27 406.46,477.28"   /><polyline id="SvgjsPolyline2214" points="488.23,600 486.7,585.08 485.58,567.11 484.82,543.13 484.45,516.13 484.2,0.13"   /><polyline id="SvgjsPolyline2215" points="501.52,599.94 495.53,579.81 491.8,565.28 489.04,550.54 487.51,538.64 486.23,523.7 485.21,502.72 484.61,475.73 484.32,439.73"   /><polyline id="SvgjsPolyline2216" points="523.89,599.94 529.82,576.68 532.17,564.91 533.54,556.02 534.9,544.1 535.85,532.14 537.15,499.17 537.76,418.17 537.8,1.17"   /><polyline id="SvgjsPolyline2217" points="510.78,599.06 509.01,581.15 506.53,566.36 502.97,551.79 493.02,517.19 490.44,505.48 488.51,493.63 486.86,478.73 485.67,460.77 484.86,436.78 484.44,406.78"   /><polyline id="SvgjsPolyline2218" points="512.4,485.9 511.9,458.9 511.14,440.92 510,425.96 508.56,414.05 507.06,405.18 504.45,393.47 495.26,361.78 492.25,350.16 489.85,338.4 488.08,326.54 486.59,311.61 485.66,296.64 485,278.65 484.53,251.66"   /><polyline id="SvgjsPolyline2219" points="513.37,599.01 514.72,569.04 515.81,557.09 517.41,545.2 520.96,527.56 530.48,489.74 532.19,480.91 533.94,469.04 535.43,454.11 536.36,439.14 537.01,421.15 537.48,394.16"   /><polyline id="SvgjsPolyline2220" points="512.73,599 513.23,524 514,500.01 515.2,482.05 516.94,467.16 519,455.34 521.65,443.63 529.82,411.66 531.64,402.85 533.54,391 535.18,376.09 536.2,361.13 537,340.15 537.48,313.15"   /><polyline id="SvgjsPolyline2221" points="512.71,539 513.08,449 513.74,422.01 514.95,401.05 516.54,386.13 519.01,371.34 521.66,359.64 529.84,327.67 531.65,318.86 533.55,307.01 535.18,292.1 536.2,277.13 537.01,256.15 537.48,229.16"   /><polyline id="SvgjsPolyline2222" points="512.71,454.97 513.07,367.97 513.73,340.98 514.91,320.01 516.47,305.1 518.91,290.3 521.54,278.59 529.73,246.63 532.1,234.86 533.88,223 535.39,208.07 536.47,190.11 537.5,145.12"   /><polyline id="SvgjsPolyline2223" points="512.71,370.99 513.08,284 513.74,257 514.94,236.04 516.52,221.13 518.99,206.33 521.64,194.63 529.82,162.66 531.63,153.85 533.54,142 535.17,127.09 536.2,112.13 536.92,94.14 537.48,64.15"   /><polyline id="SvgjsPolyline2224" points="512.71,289.87 513.14,205.87 513.91,178.88 515.04,160.92 516.68,146.01 518.63,134.17 521.2,122.45 530.07,87.56 533.28,69.86 535.01,54.96 536.1,40 537.33,1.02"   /><polyline id="SvgjsPolyline2225" points="512.69,598.31 512.75,202.31 513.04,154.31 513.64,127.32 515.21,100.37 517.42,82.5 520.96,64.86 530.44,27.03 532.64,15.24 534.6,0.37"   /><polyline id="SvgjsPolyline2226" points="512.69,597.7 512.72,159.7 513.13,87.7 513.88,60.72 515.24,39.76 517.79,18.92 521.25,1.26"   /><polyline id="SvgjsPolyline2227" points="512.68,160.19 512.47,85.19 511.92,52.19 511.34,37.21 510.34,22.24 509.06,10.31 507.72,1.41"   /><polyline id="SvgjsPolyline2228" points="299.45,1.09 299.89,97.09 300,286.09"   /><polyline id="SvgjsPolyline2229" points="367.27,598.83 376.79,587.24 382.15,580 387.03,572.45 391.29,564.52 394.85,556.26 397.69,547.72 399.89,538.99 402.01,527.19 403.44,515.27 404.4,503.31 405.7,470.34 406.22,422.34 406.34,323.34"   /><polyline id="SvgjsPolyline2230" points="400.54,599.23 402.04,590.35 403.47,578.44 405.18,551.5 406,515.51 406.31,446.51"   /><polyline id="SvgjsPolyline2231" points="537.03,597.22 537.52,567.23 537.76,510.23 537.8,0.23"   /><polyline id="SvgjsPolyline2232" points="560.48,597.35 560.03,510.35 559.23,483.37 558.05,465.41 556.35,450.51 554.36,438.67 545.68,400.65 542.95,385.91 540.46,365.06 539.01,341.11 538.29,314.12 537.93,275.12 537.8,2.12"   /><polyline id="SvgjsPolyline2233" points="560.5,522.34 560.31,354.34 559.85,321.34 558.93,297.36 557.49,279.42 555.46,264.56 552.55,249.85 545.11,217.7 542.98,205.89 541.37,194 540,179.07 539.15,164.09 538.1,119.1"   /><polyline id="SvgjsPolyline2234" points="560.49,342.34 560.2,219.34 559.69,192.35 558.75,171.37 557.49,156.42 555.46,141.56 552.55,126.85 545.11,94.7 543.46,85.85 541.73,73.98 540.23,59.06 539.29,44.09 538.17,2.1"   /><polyline id="SvgjsPolyline2235" points="382.33,599.52 387.2,591.95 390.1,586.7 394.96,575.74 396.92,570.06 399.29,561.39 401.1,552.57 402.46,543.68 404.22,525.76 405.49,498.8 406,471.8 406.28,420.8"   /><polyline id="SvgjsPolyline2236" points="572.48,597.35 576.35,576.71 578.78,555.85 580.19,531.9 580.94,501.91 581.34,423.91 581.37,0.91"   /><polyline id="SvgjsPolyline2237" points="560.5,598.66 560.57,289.66 560.79,253.66 561.39,223.66 562.65,199.7 564.53,181.8 567.56,164.06 574.99,128.84 577.29,114.01 578.58,102.09 579.82,84.13 580.6,63.14 581.27,0.15"   /><polyline id="SvgjsPolyline2238" points="560.5,598.21 560.54,235.21 560.77,187.21 561.34,157.22 562.52,133.25 564.6,112.36 567.44,94.58 573.68,65.24 576.76,47.51 579.01,26.63 580.3,2.67"   /><polyline id="SvgjsPolyline2239" points="560.5,599.48 560.44,206.48 560.19,161.48 559.56,131.48 558.24,107.52 556.24,89.64 553.18,71.9 546.44,42.67 544.04,30.91 541.77,16.09 540.26,1.17"   /><polyline id="SvgjsPolyline2240" points="584.21,599.88 583.11,584.92 582.33,566.93 581.51,509.94 581.37,23.94"   /><polyline id="SvgjsPolyline2241" points="599.92,489.49 598.91,468.52 597.58,453.58 595,435.77 588.06,400.44 585.72,385.63 583.84,367.73 582.49,343.77 581.74,310.78 581.44,262.78 581.37,1.78"   /><polyline id="SvgjsPolyline2242" points="599.93,300.48 598.71,276.52 596.87,258.61 594.5,243.8 587.57,208.48 585.74,196.62 584.38,184.69 583.22,169.74 582.5,154.76 581.68,115.77"   /><polyline id="SvgjsPolyline2243" points="599.93,174.48 598.71,150.52 596.87,132.61 594.5,117.8 587.57,82.48 584.68,61.68 582.89,37.75 581.83,1.77"   /><polyline id="SvgjsPolyline2244" points="560.5,231.11 560.72,123.11 561.04,99.11 561.81,75.13 563.28,54.18 565.38,36.31 567.96,21.53 572.38,1"   /><polyline id="SvgjsPolyline2245" points="560.5,259.84 560.36,124.84 560.08,94.85 559.48,70.85 558.52,52.88 556.74,34.97 554.37,20.16 550.63,2.56"   /><polyline id="SvgjsPolyline2246" points="596.16,598.79 593.71,583.99 587.37,551.61 584.56,530.8 583.34,515.85 582.57,500.87 581.7,461.88"   /><polyline id="SvgjsPolyline2247" points="599.96,401.3 598.93,377.32 597.13,356.4 594.54,338.59 588.72,309.16 586.22,294.37 584.15,276.5 582.77,255.54 581.94,228.56 581.52,189.56 581.37,0.56"   /><polyline id="SvgjsPolyline2248" points="599.99,212.28 598.81,185.31 596.9,164.4 594.2,146.6 586.83,108.31 584.24,87.47 582.56,60.53 581.66,18.54"   /><polyline id="SvgjsPolyline2249" points="599.99,86.28 599,62.3 597.25,41.38 594.72,23.56 590.1,0.01"   /><polyline id="SvgjsPolyline2250" points="599.91,558.45 598.6,531.48 596.89,513.56 594.18,495.77 586.82,457.48 585.17,445.59 583.73,430.66 582.68,412.69 581.9,385.7 581.41,307.71"   /></g></svg>