<?xml version="1.0" standalone="no"?>
<svg id="SvgjsSvg1001" width="600" height="600" xmlns="http://www.w3.org/2000/svg" version="1.1" xmlns:xlink="http://www.w3.org/1999/xlink" xmlns:svgjs="http://svgjs.com/svgjs" class="svg-paper" viewBox="0 0 600 600"><title id="SvgjsTitle5059">x=(x-min(cos(sqrt(x*x + y*y)*x),log(abs(x))))|y=(sqrt(x*x + y*y)-(y+cos(log(abs(x)))))|dTest=0.0|sd=0.2|sm=0.2|ts=0.05 | generated with FlowLines</title><style>*{fill:none;stroke:#777}</style><g id="SvgjsG5060"><polyline id="SvgjsPolyline5061" points="34.55,597.46 26.25,574.94 18.17,555.56 8.95,536.69 0,521.08"   /><polyline id="SvgjsPolyline5062" points="47.72,599.24 38.27,570.77 25.87,536.97 11.5,500.72 0.64,476"   /><polyline id="SvgjsPolyline5063" points="22.23,598.59 0.99,555.55"   /><polyline id="SvgjsPolyline5064" points="60.4,598.41 26.48,524.86 0.75,467.35"   /><polyline id="SvgjsPolyline5065" points="38.05,599.89 27.68,568.56 18.21,543.28 12.35,529.47 8.54,521.32 0.07,505.44"   /><polyline id="SvgjsPolyline5066" points="8.83,598.44 0.68,575.87"   /><polyline id="SvgjsPolyline5067" points="73.39,599.21 67.25,582.29 60.69,565.53 54.76,551.75 48.33,538.2 38.38,519.71 15.51,480.96 8.42,467.74 0.34,451.66"   /><polyline id="SvgjsPolyline5068" points="85.43,598.17 77.11,566.24 67.36,534.72 54.22,498 40.8,464.6 32.05,445.51 27.87,437.54 23.3,429.79 16.49,419.91 1.39,401.26"   /><polyline id="SvgjsPolyline5069" points="77.27,599 67.54,567.47 60.86,547.56 52.48,525.08 45.41,508.53 38.89,495.02 31.58,481.92 25.12,471.81 8.2,447.04 0.44,434.2"   /><polyline id="SvgjsPolyline5070" points="98.08,598.22 86.91,567.17 74.76,536.49 49.12,475.67 34.55,442.76 26.4,426.71 20.15,416.47 13.03,406.82 1.4,393.08"   /><polyline id="SvgjsPolyline5071" points="79.35,597.43 70.49,565.64 60.75,534.11 51.85,508.62 42.95,486.34 35.28,470.06 27.84,457.04 22.84,449.56 8.49,430.32 1.64,420.47"   /><polyline id="SvgjsPolyline5072" points="111.68,599.96 102.55,577.76 92.68,555.89 83.49,537 57.83,486.11 29.57,426.47 23.81,415.94 17.29,405.87 11.79,398.75 0,385.15"   /><polyline id="SvgjsPolyline5073" points="123.61,598.5 109.08,543.39 98.18,505.94 92.6,488.83 86.52,471.89 80.95,457.96 76.06,447 69.17,433.69 61.13,421.03 53.86,411.49 40.49,395.29 35.09,388.09 30.05,380.64 18.92,362.83 13.76,355.46 7.97,348.57 1.65,342.17"   /><polyline id="SvgjsPolyline5074" points="119.2,599.09 109.62,570.66 101.12,548.22 92.78,528.95 83.5,510.11 74.67,494.43 55.75,463.81 48.18,450.86 42.44,440.32 27.34,410.98 21.4,400.55 18.14,395.51 12.8,388.28 0.86,374.81"   /><polyline id="SvgjsPolyline5075" points="135.75,598.46 131.88,577.82 127.27,557.33 121.82,537.05 114.61,514.16 106.54,491.56 96.73,466.41 84.05,435.94 72.96,411.33 64.57,395.41 59.76,387.8 56.24,382.95 50.49,376.02 32.14,356.23 26.62,349.12 16.31,334.37 10.73,327.3 6.64,322.92 0.06,316.79"   /><polyline id="SvgjsPolyline5076" points="121.94,599.51 110.03,559.23 99.72,527.88 91.26,505.43 86.54,494.4 81.38,483.56 75.68,473.01 67.81,460.24 48.83,433.24 40.59,420.71 24.26,392.04 17.99,381.81 10.79,372.22 0.59,361.22"   /><polyline id="SvgjsPolyline5077" points="148.34,599.31 143.62,581.94 137.44,561.87 130.6,542.02 122.08,519.58 111.8,494.62 97.43,461.61 80.33,423.25 70.02,401.58 62.72,388.48 57.71,381.01 54.05,376.25 48.11,369.5 37.66,358.73 31.63,352.05 26.07,344.98 17.43,332.71 11.96,325.57 7.95,321.11 1.42,314.92"   /><polyline id="SvgjsPolyline5078" points="160.91,599.22 155.15,582.16 148.92,565.28 142.17,548.59 133.75,529.35 122.23,504.93 95.62,451.16 75.02,407.8 66.85,391.77 60.71,381.46 53.6,371.8 47.61,365.09 32.99,350.01 27.24,343.09 13.07,323.73 7.05,317.04 0.43,310.94"   /><polyline id="SvgjsPolyline5079" points="173.1,598.44 166.79,575.28 160.04,552.26 153.67,532.25 147.76,515.24 142.41,501.23 136.57,487.41 130.11,473.88 124.4,463.32 119.79,455.6 113.22,445.56 93.98,418.74 85.64,406.28 77.92,393.42 64.72,369.87 59.96,362.23 56.5,357.33 48.73,348.19 33.58,333.65 29.45,329.31 23.68,322.4 12.69,308.15 8.63,303.74 1.99,297.66"   /><polyline id="SvgjsPolyline5080" points="185.08,598.36 179.37,550.71 175.98,526.95 171.49,503.37 165.61,480.11 161.23,465.77 157.37,454.4 147.75,429.18 132.35,393.35 124.77,377.02 119.38,366.3 115.01,358.43 110.18,350.84 104.72,343.69 100.69,339.25 94.14,333.08 80.36,321.5 73.83,315.31 67.86,308.58 56.59,294.55 50.3,288.12 45.71,284.26 31.38,273.36 24.81,267.22 12.38,254.21 7.78,250.37 0.48,245.1"   /><polyline id="SvgjsPolyline5081" points="177.96,599.22 157.39,496.26 152.84,475.76 148.41,458.31 141.57,435.31 134.67,415.47 126.9,395.97 119.31,379.65 111.88,366.62 104.81,356.94 96.61,348.19 81.01,334.14 74.66,327.76 68.83,320.9 59.8,308.93 54.04,302.01 47.59,295.75 33.46,284.6 28.92,280.67 12.49,263.2 7.99,259.23 0.8,253.82"   /><polyline id="SvgjsPolyline5082" points="175.25,598.68 166.63,563.73 158.32,531.79 151.11,505.77 145.07,485.66 139.42,468.57 133.18,451.69 127.37,437.86 120.71,424.42 114.59,414.11 107.65,404.32 100.01,395.07 86.07,379.37 78.58,369.99 71.75,360.13 60.43,342.44 55.11,335.18 51.2,330.64 46.98,326.37 29.16,310.3 25.09,305.89 11.64,289.77 7.36,285.57 0.45,279.81"   /><polyline id="SvgjsPolyline5083" points="197.25,599.84 194.07,570.01 192.33,558.14 189.7,543.38 186.54,528.71 183.64,517.07 180.41,505.51 175.93,491.2 166.73,465.82 155.13,438.15 129.87,383.73 117.69,359.64 113.13,351.88 109.8,346.89 102.27,337.56 95.83,331.28 81.97,319.79 75.28,313.77 69.13,307.2 57.79,293.23 53.75,288.8 47.07,282.77 30.38,270.04 25.97,265.96 13.54,252.96 8.99,249.05 1.71,243.75"   /><polyline id="SvgjsPolyline5084" points="176.08,598.31 156.88,516.53 150.34,490.34 144.85,470.07 138.76,449.97 132.88,432.96 127.34,419.02 120.96,405.45 115,395.04 106.29,382.83 100.46,375.98 83.67,358.84 77.64,352.15 70.3,342.67 58.31,325.42 52.62,318.46 46.22,312.14 30.21,298.55 23.95,292.09 12.17,278.49 7.81,274.36 0.79,268.73"   /><polyline id="SvgjsPolyline5085" points="209.21,598.85 203.67,569.37 197.34,543.12 189.69,517.23 180.74,491.76 171.74,469.52 159.38,442.18 126.5,374.77 116.75,356.18 110.4,346 102.95,336.6 96.56,330.27 80.39,316.87 73.79,310.77 67.74,304.1 58.3,292.44 52.15,285.88 45.29,280.07 30.91,269.24 26.47,265.21 14.02,252.22 9.49,248.28 2.22,242.98"   /><polyline id="SvgjsPolyline5086" points="221.58,599.9 215.36,567.49 211.35,549.95 207.6,535.42 203.44,521.01 198.81,506.75 190.29,484.31 182.91,467.89 176.07,454.55 142.42,397.78 121.02,358.19 115.07,347.77 108.39,337.81 102.61,330.92 96.13,324.68 79.79,311.49 73.15,305.41 67.09,298.76 57.52,287.21 53.39,282.86 46.59,276.98 34.47,268.14 29.8,264.37 12.83,247.42 8.17,243.64 0.81,238.47"   /><polyline id="SvgjsPolyline5087" points="233.4,597.87 228.97,568.21 224.64,544.6 219.42,521.18 213.08,498.03 206.39,478.13 198.44,458.69 190.51,442.54 181.49,426.97 174.88,416.96 165.98,404.88 146.76,381.85 137.6,369.98 129.19,357.56 113.41,332.04 108.14,324.75 104.25,320.18 100.03,315.93 95.51,311.98 81.15,301.13 74.26,295.35 67.95,288.94 58.12,277.61 51.68,271.33 46.99,267.59 32.33,257.14 27.77,253.25 17.2,242.6 12.75,238.58 7.98,234.94 0.53,229.89"   /><polyline id="SvgjsPolyline5088" points="245.56,599.27 243.12,569.37 241.14,536.43 240.26,506.44 240.09,461.44 239.72,443.45 238.65,425.48 236.92,410.58 234.83,398.77 232.78,390.01 230.3,381.36 226.3,370.05 222.81,361.75 217.62,350.93 206.04,329.91 196.67,314.55 189.73,304.76 183.78,298.02 176.97,292.14 172,288.78 166.79,285.81 142.32,274.41 137.01,271.61 131.91,268.45 124.8,262.94 113.84,252.71 106.79,247.12 99.12,242.43 85.82,235.49 80.65,232.45 73.39,227.14 64.36,219.24 59.62,215.56 54.59,212.3 38.94,203.42 34.02,199.97 20.04,188.65 2.04,177.85"   /><polyline id="SvgjsPolyline5089" points="240.74,598.51 237.05,568.74 224.71,482.62 216.74,414.08 214.79,399.21 212.87,387.37 209.1,369.77 203.97,352.52 198.52,338.55 191.83,325.13 187.03,317.53 183.38,312.76 179.33,308.34 172.51,302.48 162.38,296.06 141.04,285.07 133.35,280.4 126.24,274.9 113.4,262.3 106.58,256.42 99.09,251.44 83.34,242.74 78.29,239.5 73.52,235.87 62.35,225.86 57.62,222.17 52.59,218.9 37.07,209.78 32.25,206.22 23.16,198.39 18.39,194.75 0.49,183.77"   /><polyline id="SvgjsPolyline5090" points="238.01,597.73 233.53,565.04 228.9,538.44 221.49,503.21 213.73,471.14 206.36,445.17 199.71,425.25 192.9,408.6 188.94,400.51 184.52,392.68 177.78,382.76 170.05,373.58 159.35,363.07 139.28,345.01 131.04,336.3 125.4,329.29 111.34,309.84 107.52,305.21 103.38,300.88 96.54,295.03 81.77,284.75 74.65,279.25 68.13,273.05 57.89,262.09 53.46,258.05 48.71,254.39 33.79,244.32 29.12,240.56 18.31,230.16 13.75,226.27 1.33,217.86"   /><polyline id="SvgjsPolyline5091" points="257.51,598.22 259.87,529.26 260.24,505.26 259.6,475.27 257.76,448.34 254.74,421.51 252.75,409.68 250.12,397.97 247.58,389.34 244.4,380.92 241.87,375.48 237.43,367.66 229.23,355.1 194.52,306.16 186.88,296.92 180.29,290.79 175.45,287.25 167.67,282.74 143.07,271.62 137.72,268.91 132.57,265.84 125.37,260.44 114.31,250.32 107.23,244.77 99.53,240.12 86.19,233.26 81,230.25 73.71,224.98 64.64,217.12 59.88,213.47 54.83,210.24 39.15,201.41 34.23,197.97 20.2,186.71 2.17,175.96"   /><polyline id="SvgjsPolyline5092" points="239.36,598.51 235.07,565.79 229.13,530.28 217.56,468.36 208.54,424.27 202.15,398.04 197.01,380.79 191.72,366.76 187.89,358.61 185,353.36 181.78,348.29 178.22,343.47 174.28,338.94 170.01,334.74 160.63,327.26 140.69,313.91 131.21,306.56 124.75,300.29 111.02,284.41 104.58,278.13 97.42,272.69 82.12,263.21 77.18,259.8 72.51,256.04 59.58,243.52 54.97,239.68 50.06,236.24 34.84,226.63 30.12,222.94 16.64,211.02 11.72,207.59 1.52,201.27"   /><polyline id="SvgjsPolyline5093" points="240.07,599.54 237.53,578.69 234.55,557.9 212.89,424.65 208.18,398.07 204.25,380.5 199.2,363.23 193.75,349.26 188.24,338.61 184.97,333.58 181.3,328.84 175.13,322.29 170.67,318.28 160.9,311.32 140.22,299.15 132.79,294.07 125.93,288.25 111.53,272.98 104.85,266.96 97.47,261.81 84.5,254.27 76.98,249.34 72.3,245.59 61.36,235.32 56.73,231.51 51.79,228.11 36.41,218.77 31.6,215.18 17.96,203.45 0.22,192.23"   /><polyline id="SvgjsPolyline5094" points="238.9,598.85 234.56,566.14 230.09,539.52 221.5,495.34 211.81,451.4 205.11,425.25 198.92,405.18 192.33,388.44 188.35,380.37 185.37,375.16 178.49,365.34 172.67,358.48 168.48,354.18 159.45,346.29 140.54,331.51 131.63,323.49 123.62,314.55 110.69,298.01 106.67,293.56 102.31,289.43 95.19,283.94 82.64,275.72 75.38,270.42 68.72,264.37 58.26,253.61 53.73,249.68 48.89,246.14 33.84,236.27 29.17,232.51 15.93,220.33 11.09,216.78 0.98,210.31"   /><polyline id="SvgjsPolyline5095" points="269.51,598.49 271.22,538.52 272.65,505.55 274.66,475.62 277.15,451.75 280.51,431.03 282.48,422.25 284.91,413.58 287.89,405.09 291.55,396.87 294.45,391.62 297.87,386.7 302.42,382.93 315.07,366.17 322.94,357.12 331.68,348.91 341.22,341.63 351.26,335.06 374.35,321.07 385.25,316.08 415.98,304.06 424.09,300.16 429.29,297.17 434.25,293.79 438.92,290.02 456.12,273.29 463.12,267.65 470.78,262.92 489.53,253.47 497.21,248.78 501.98,245.15 513.16,235.15 517.87,231.44 522.89,228.15 536.05,220.96 543.7,216.23 559.96,202.95 564.94,199.62 580.5,190.57 585.35,187.04 594.59,179.39 599.5,175.94"   /><polyline id="SvgjsPolyline5096" points="264.86,599.95 266.47,551.98 267.62,437.99 268.39,411 269.3,393.02 270.98,375.1 273.06,363.29 274.65,357.51 276.81,351.91 279.68,346.65 281.4,344.19 287.44,337.53 296.68,329.89 299.3,328.46 302.14,327.53 309.83,322.87 315.33,320.49 324.07,318.39 347.96,316.11 359.74,313.86 411.14,297.36 419.54,294.13 427.67,290.26 432.82,287.2 437.69,283.7 442.27,279.82 455.47,267.58 462.6,262.1 470.35,257.54 489.24,248.37 496.96,243.76 501.76,240.16 513.07,230.3 517.86,226.7 522.95,223.52 541.34,213.39 546.23,209.93 560.19,198.57 580.83,186.34 594.95,175.2 599.94,171.86"   /><polyline id="SvgjsPolyline5097" points="262.36,598.1 264.09,553.13 264.53,523.14 263.57,460.15 262.07,421.18 260.12,397.26 257.34,379.48 255.28,370.72 253.47,365 251.19,359.46 248.35,354.17 244.92,349.25 238.79,342.68 222.38,329.58 213.56,321.45 205.45,312.61 190.01,294.25 185.76,290.01 181.17,286.15 176.25,282.72 168.38,278.37 143.59,267.66 138.2,265.03 133,262.04 125.73,256.75 114.54,246.76 107.38,241.32 102.25,238.2 86.22,230.02 81.03,227.01 76.1,223.6 64.62,213.95 59.81,210.37 54.71,207.21 39,198.44 34.1,194.97 24.84,187.34 19.98,183.82 1.91,173.14"   /><polyline id="SvgjsPolyline5098" points="281.5,598.91 284.32,572.06 287.71,548.3 291.74,527.69 295.64,513.21 297.64,507.56 298.88,504.83 300.66,502.43 302.03,499.77 305.28,491.38 323.73,434.29 329.75,417.32 335.24,403.37 341.36,389.67 346.84,379 354.54,366.13 361.44,356.31 365.13,351.58 369.15,347.13 373.58,343.09 378.35,339.45 383.36,336.16 391.17,331.69 417.87,318.02 428.04,311.65 432.82,308.02 437.32,304.06 441.56,299.82 455.72,284.31 460.05,280.16 464.72,276.39 472.26,271.49 488.15,263.04 495.86,258.4 502.99,252.92 513.95,242.68 518.58,238.87 523.52,235.46 539.15,226.54 544.18,223.27 548.92,219.6 560.26,209.78 565.16,206.32 578.09,198.73 583.1,195.43 594.67,185.89 599.47,182.3"   /><polyline id="SvgjsPolyline5099" points="275.6,598.7 278.45,556.8 281.94,523.99 286.21,497.33 288.7,485.59 291.77,473.99 294.6,465.45 296.87,459.9 298.22,457.22 301.87,452.55 304.57,447.19 319.79,411.28 327.33,394.94 332.87,384.29 337.37,376.5 342.23,368.93 347.47,361.62 353.11,354.6 361.17,345.72 369.79,337.37 374.56,333.73 379.61,330.5 387.53,326.22 417.45,312.31 425.31,307.93 430.32,304.63 435.07,300.98 439.55,296.98 456.18,279.68 462.98,273.79 470.48,268.83 489.07,259.07 496.75,254.38 501.54,250.77 514.87,238.68 519.62,235.02 524.65,231.76 537.76,224.47 542.86,221.3 547.68,217.74 561.44,206.15 566.45,202.85 581.92,193.66 598.34,180.58"   /><polyline id="SvgjsPolyline5100" points="272.61,599.14 275.03,548.2 277.87,512.31 279.93,494.43 282.16,479.6 284.41,467.81 287.23,456.15 291.75,441.85 296.45,430.82 297.94,428.21 301.91,423.82 303.5,421.27 317.37,394.67 324.75,381.62 331.25,371.54 336.57,364.27 342.29,357.33 350.54,348.62 359.37,340.49 370.94,330.96 375.96,327.68 383.89,323.43 416.86,308.98 424.83,304.8 429.92,301.62 434.76,298.08 439.31,294.17 456.17,277.1 463.06,271.31 470.62,266.44 489.28,256.81 496.96,252.12 501.74,248.5 512.85,238.43 517.49,234.63 525.01,229.69 538.15,222.45 543.22,219.26 548.02,215.66 557.09,207.8 561.85,204.16 582.37,191.72 594,182.26 598.83,178.7"   /><polyline id="SvgjsPolyline5101" points="267.2,597.22 270.08,483.26 271.79,450.31 273.99,426.41 275.68,414.53 277.36,405.69 279.56,396.97 281.39,391.25 284.61,382.85 287.17,377.43 291.75,369.69 295.33,364.87 297.33,362.64 302.25,359.34 310.66,350.78 317.38,344.8 322.21,341.24 329.94,336.63 338.05,332.73 360.08,323.22 376.29,315.41 387.47,311.04 412.88,301.93 421.15,298.38 429.1,294.17 434.12,290.88 438.84,287.18 456.27,270.68 463.36,265.16 471.08,260.54 487.23,252.59 495.06,248.16 502.31,242.84 513.53,232.89 518.31,229.26 523.38,226.05 541.71,215.83 546.59,212.34 560.49,200.91 565.52,197.65 581.08,188.6 597.61,175.68"   /><polyline id="SvgjsPolyline5102" points="263.85,599.7 265.34,560.73 265.81,533.73 265.56,428.73 265.02,383.74 264.14,362.76 262.87,350.83 261.1,342.01 258.93,336.43 257.39,333.85 255.52,331.52 253.34,329.45 248.4,326.06 240.33,322.1 223.71,315.19 218.42,312.36 213.39,309.09 208.64,305.42 204.17,301.42 189.36,286.55 184.8,282.64 179.93,279.14 174.78,276.07 169.42,273.38 144.43,263.16 138.99,260.64 133.73,257.75 126.36,252.6 115.02,242.78 107.78,237.44 102.61,234.4 86.51,226.36 81.3,223.38 76.36,219.98 64.81,210.42 59.94,206.91 39.06,195.1 34.17,191.62 22.46,182.27 1.86,169.98"   /><polyline id="SvgjsPolyline5103" points="265.71,597.87 267.01,558.9 267.76,495.9 268.67,453.91 269.8,426.94 271.09,408.98 273.32,391.13 275.11,382.31 276.7,376.52 278.71,370.87 281.24,365.43 284.3,360.28 287.85,355.44 293.73,348.63 298.14,344.58 300.91,343.48 312.85,334.44 320.74,330.13 329.19,327.05 349.51,321.76 360.95,318.13 380.45,310.36 414.5,298.69 422.77,295.14 428.1,292.39 433.2,289.23 438.02,285.65 455.62,269.35 462.71,263.81 470.43,259.2 489.28,249.94 496.99,245.31 501.78,241.7 513.05,231.8 517.82,228.17 525.49,223.47 538.7,216.36 543.74,213.12 560.07,199.93 565.11,196.67 580.68,187.65 585.51,184.1 594.8,176.5 599.76,173.13"   /><polyline id="SvgjsPolyline5104" points="264.17,599.53 265.45,566.55 266.03,539.56 266.29,413.56 266.56,383.56 267.12,362.57 268.02,350.6 269,344.69 269.79,341.79 270.88,339 272.35,336.39 276.03,331.65 278.15,329.54 282.95,325.94 295.76,318.15 298.43,316.77 301.36,316.53 306.76,313.92 312.38,311.84 315.3,311.17 321.26,310.52 345.24,311.27 354.22,310.79 360.16,309.94 368.91,307.86 406.31,296.78 417.63,292.83 425.87,289.22 433.67,284.74 438.52,281.2 454.13,267.16 461.18,261.57 468.87,256.91 487.78,247.8 495.6,243.35 500.48,239.86 511.84,230.06 516.58,226.39 521.61,223.13 537.47,214.61 542.57,211.46 547.39,207.88 558.97,198.36 563.98,195.06 579.61,186.13 584.49,182.65 593.79,175.07 598.72,171.65"   /><polyline id="SvgjsPolyline5105" points="293.45,599.99 295.35,591.19 297.65,582.5 298.61,579.65 301.23,574.28 302.24,571.46 305.57,559.93 326.97,469.43 332.29,449.11 337.29,431.82 344.89,409.06 351.58,392.35 359.4,376.14 362.42,370.96 365.8,366.01 369.56,361.33 373.68,356.98 378.12,352.94 382.83,349.22 392.77,342.5 418.53,327.13 425.92,321.99 430.6,318.25 439.24,309.93 456.92,289.53 461.21,285.33 465.84,281.53 473.34,276.56 489.11,267.87 496.72,263.09 503.75,257.47 514.57,247.09 519.16,243.22 526.6,238.17 539.6,230.69 544.62,227.4 549.34,223.7 558.28,215.69 562.97,211.96 583.33,199.27 599.61,186.03"   /><polyline id="SvgjsPolyline5106" points="264.07,598.98 265.36,566.01 265.93,539.01 265.93,332.01 265.7,326.02 262.96,320.72 260.64,318.85 257.88,317.68 228.81,310.31 220.34,307.28 214.97,304.61 209.89,301.41 205.13,297.77 189.7,283.53 185.04,279.75 180.1,276.36 174.88,273.39 169.47,270.8 144.39,260.81 138.94,258.32 133.67,255.45 126.29,250.31 114.89,240.56 110.08,236.97 102.37,232.34 86.23,224.38 81.03,221.38 76.11,217.96 62.11,206.65 57.05,203.42 43.83,196.34 38.7,193.24 22.07,180.43 6.49,171.44 1.45,168.18"   /><polyline id="SvgjsPolyline5107" points="266.5,323.01 265.35,320.29 267.74,318.53 284.99,313.45 298.86,307.78 301.82,307.57 310.3,304.58 313.25,304.04 319.23,303.72 325.22,304.17 346.03,306.95 355.02,307.08 360.99,306.55 369.82,304.83 401.68,296.21 415.96,291.63 424.28,288.22 432.22,283.99 437.18,280.61 441.83,276.83 455.22,264.8 462.42,259.41 470.23,254.94 489.18,245.9 496.92,241.31 501.72,237.72 513.09,227.93 517.93,224.39 523.05,221.26 536.31,214.27 541.47,211.19 546.35,207.71 555.55,200.01 560.37,196.43 581.04,184.27 592.79,174.95 597.67,171.47"   /><polyline id="SvgjsPolyline5108" points="305.8,599.51 310.79,576.03 327.35,493.68 333.29,467.34 339.19,444.08 345.97,421.06 349.81,409.69 354.05,398.47 356.4,392.95 360.42,384.9 366.84,374.77 370.54,370.04 374.55,365.59 383.41,357.5 393.04,350.35 418.1,333.86 425.29,328.45 429.86,324.57 438.32,316.06 457.54,293.03 464.06,286.84 471.32,281.53 489.54,271.1 497.11,266.23 504.08,260.55 514.81,250.07 519.36,246.16 526.76,241.04 539.72,233.49 544.72,230.18 549.44,226.48 558.34,218.43 563,214.65 567.96,211.28 583.29,201.87 599.52,188.56"   /><polyline id="SvgjsPolyline5109" points="253.41,1.12 253.34,10.12 254.42,19.04 255.87,24.86 261.75,41.87 263.41,47.64 265.13,56.47 265.9,65.43 266.01,302.43 264.37,304.91 259.1,307.71 256.19,308.43 250.21,308.8 244.22,308.46 235.31,307.19 226.51,305.32 217.99,302.43 212.61,299.79 205.12,294.81 189.3,281.01 182.06,275.67 176.89,272.63 171.51,269.97 143.62,258.94 138.17,256.42 132.93,253.5 125.61,248.28 116.49,240.48 109.28,235.1 104.14,232.02 87.99,224.07 80.18,219.61 75.3,216.11 66.07,208.46 61.23,204.91 56.11,201.78 40.3,193.19 35.35,189.8 26.02,182.26 21.13,178.78 5.5,169.86 0.52,166.51"   /><polyline id="SvgjsPolyline5110" points="253.44,0.6 253.32,9.6 254.32,18.54 256.62,27.23 261.59,41.38 263.29,47.14 265.06,55.95 265.88,64.91 266.08,286.91 266.32,292.91 266.74,295.88 267.93,298.62 270.12,300.66 272.83,301.92 275.75,302.59 281.73,303.07 284.72,302.94 290.61,301.83 299.17,299.08 302.14,298.79 307.87,297.01 310.81,296.43 316.79,296.16 325.69,297.42 340.28,300.93 346.17,302.05 355.12,302.9 361.12,302.78 370.03,301.57 390.48,296.78 407.85,292.09 419.22,288.25 427.46,284.63 435.21,280.08 442.31,274.55 455.81,262.65 463.12,257.41 471.01,253.08 487.32,245.46 495.17,241.08 500.08,237.64 511.5,227.91 516.26,224.27 521.32,221.03 537.21,212.59 542.32,209.45 547.15,205.89 558.77,196.42 563.8,193.15 579.45,184.26 584.33,180.78 593.66,173.23 598.61,169.85"   /><polyline id="SvgjsPolyline5111" points="318.17,599.19 325.22,554.74 332.34,513.35 338.64,480.96 344.03,457.58 349.09,440.3 355.39,423.45 361.88,409.93 364.86,404.72 369.77,397.18 377.12,387.71 387.47,376.86 396.4,368.84 417.03,351.43 427.84,341.03 437.57,329.63 455.47,305.55 459.37,300.99 463.6,296.75 468.19,292.88 473.07,289.4 491.06,278.56 498.46,273.44 505.24,267.53 515.76,256.84 520.25,252.86 527.56,247.63 540.42,239.91 545.39,236.54 550.07,232.79 563.46,220.77 568.35,217.31 583.62,207.78 588.35,204.09 599.72,194.32"   /><polyline id="SvgjsPolyline5112" points="265.38,1.92 269.01,10.16 271.92,18.67 273.2,21.38 274.77,23.93 276.68,26.24 278.96,28.18 281.58,29.63 284.45,30.5 287.43,30.78 290.42,30.54 299.08,28.15 302.06,27.93 307.81,26.25 310.78,25.82 316.75,26.14 322.5,27.83 327.9,30.45 335.62,35.07 351.54,43.46 359.35,47.94 364.33,51.28 380.99,64.06 385.98,67.38 393.76,71.91 401.87,75.79 407.48,77.94 413.29,79.38 422.21,80.55 440.2,81.18 449.19,80.89 455.17,80.36 461.1,79.46 502.26,71.14 507.99,69.37 524.73,62.76 541.97,57.61 547.6,55.53 563.87,47.84 580.76,41.63 599.52,32.23"   /><polyline id="SvgjsPolyline5113" points="241.44,0.32 236.92,4.27 232.11,7.85 227.05,11.07 221.78,13.94 213.57,17.62 199.58,23.01 183.31,30.71 177.62,32.6 171.74,33.75 165.77,34.36 153.77,34.71 141.78,34.43 129.84,33.28 88.59,25.4 82.83,23.73 68.73,18.63 48.52,12.94 31.96,5.91 14.92,0.11"   /><polyline id="SvgjsPolyline5114" points="252.34,2.32 250.74,11.17 249.29,16.99 247.24,22.63 245.88,25.3 240.74,32.68 236.37,36.77 231.49,40.27 226.37,43.39 221.05,46.16 215.57,48.59 207.1,51.63 178.19,59.64 172.33,60.9 166.37,61.63 157.38,61.91 145.39,61.56 136.41,60.95 127.47,59.92 118.66,58.11 101.3,53.36 83.72,49.49 75.14,46.8 61.28,41.06 41.28,34.68 35.76,32.34 24.96,27.09 8.09,20.83 2.65,18.32"   /><polyline id="SvgjsPolyline5115" points="252.76,1.28 250.05,25.13 249.46,34.1 249.4,40.1 249.82,49.09 250.51,55.05 252.18,63.89 256.87,84.36 258.28,96.27 258.39,105.27 257.78,114.24 256.6,123.16 254.95,132.01 251.34,146.57 246.77,160.85 241.22,174.78 236.02,185.59 230.01,195.98 222.99,205.7 216.77,212.2 211.99,215.81 209.37,217.27 206.6,218.42 200.77,219.75 194.78,220 188.79,219.62 176.88,218.13 162.09,215.66 150.38,213.04 141.81,210.29 133.69,206.44 123.46,200.17 115.52,195.94 95.97,188.29 87.77,184.58 82.6,181.56 72.74,174.71 67.62,171.59 45.99,161.2 40.91,158.02 28.6,149.46 9.97,139.79 0.11,132.96"   /><polyline id="SvgjsPolyline5116" points="254.88,1.18 255.79,7.11 257.36,12.9 263.77,29.72 265.57,35.44 266.91,41.29 268.24,50.19 269.56,56.03 271.78,61.6 273.4,64.12 275.47,66.29 280.45,69.62 283.22,70.74 286.17,71.26 289.17,71.22 292.13,70.73 297.85,68.95 300.83,68.65 309.53,66.43 315.51,66.42 321.33,67.85 324.11,68.97 329.41,71.78 336.9,76.76 344.7,81.25 371.76,94.19 390.06,104.48 395.42,107.17 400.94,109.52 406.61,111.49 412.4,113.06 418.29,114.2 427.25,114.93 436.25,114.96 448.24,114.4 460.16,113.09 468.95,111.19 486.09,105.68 509.34,99.76 517.79,96.67 528.58,91.42 534.1,89.07 553.88,82.03 569.79,73.65 589.17,65.56 599.59,59.63"   /><polyline id="SvgjsPolyline5117" points="254.03,1.6 254.84,10.55 256.18,16.4 263.25,36.17 265.58,44.86 266.57,50.77 267.78,62.71 269.56,71.52 271.78,77.09 273.41,79.6 275.48,81.77 280.47,85.09 283.25,86.2 286.2,86.71 289.19,86.67 292.15,86.17 297.88,84.39 300.85,84.11 309.55,81.88 315.54,81.88 321.35,83.31 324.13,84.43 329.43,87.23 341.91,95.55 352.53,101.12 380.05,113.06 399.09,121.9 407.64,124.72 413.48,126.07 419.41,126.98 425.39,127.44 440.38,127.17 458.3,125.52 470.06,123.15 489.84,116.13 510.09,110.58 518.58,107.59 534.7,99.6 557.12,91.06 572.89,82.41 589.46,75.37 594.81,72.65 599.94,69.55"   /><polyline id="SvgjsPolyline5118" points="253.65,1.54 253.99,10.53 254.94,16.45 256.49,22.24 263.4,42.07 265.41,50.84 266.2,56.78 267.41,74.74 268.8,83.63 270.52,89.37 271.77,92.09 273.41,94.61 275.48,96.77 280.47,100.08 283.25,101.19 286.2,101.7 289.2,101.66 292.15,101.16 297.88,99.38 300.86,99.1 309.56,96.87 312.55,96.67 315.54,96.87 321.35,98.29 329.44,102.21 344.31,112.34 354.97,117.84 366.04,122.47 399.74,135.13 408.37,137.66 414.26,138.79 420.22,139.48 426.21,139.72 435.21,139.44 447.17,138.48 459.08,137.05 467.93,135.39 473.71,133.8 493.24,126.1 513.36,120.1 521.77,116.92 537.72,108.59 560,99.69 575.64,90.79 592.12,83.55 599.98,79.19"   /><polyline id="SvgjsPolyline5119" points="253.45,7.51 253.9,13.49 254.96,19.39 256.58,25.17 262.52,42.16 264.09,47.95 265.23,53.84 266.12,62.79 267.12,86.76 268.79,98.64 270.51,104.38 271.76,107.1 273.4,109.62 275.47,111.78 280.47,115.08 283.25,116.18 286.21,116.69 289.2,116.65 292.16,116.15 297.88,114.37 300.86,114.09 309.56,111.86 312.55,111.66 318.49,112.41 324.14,114.4 329.45,117.19 346.68,129.16 357.36,134.63 365.7,138.01 377.05,141.91 405.86,150.26 411.74,151.41 417.7,152.09 423.7,152.31 429.69,152.1 441.64,150.97 456.52,149.08 465.39,147.56 474.12,145.38 479.76,143.34 496.22,136.07 516.21,129.64 521.82,127.52 527.23,124.94 540.33,117.63 562.47,108.39 577.97,99.26 594.35,91.81 599.63,88.96"   /><polyline id="SvgjsPolyline5120" points="266.14,74.8 266.45,89.79 267.11,101.77 268.2,110.7 269.52,116.55 271.75,122.11 273.39,124.62 275.47,126.78 280.47,130.08 283.26,131.17 286.21,131.68 289.21,131.63 292.16,131.13 297.89,129.35 300.86,129.08 309.57,126.85 312.56,126.65 318.49,127.4 324.15,129.38 329.46,132.16 334.49,135.43 344.04,142.69 349.03,146.03 354.27,148.93 362.48,152.61 373.81,156.56 388.29,160.48 402.96,163.6 414.84,165.25 423.83,165.38 435.76,164.11 462.41,159.81 471.2,157.89 476.95,156.18 482.54,153.99 498.74,146.16 518.58,139.29 526.87,135.81 542.47,126.84 564.46,117.25 579.83,107.9 598.77,98.85"   /><polyline id="SvgjsPolyline5121" points="266.13,89.81 266.44,104.81 267.1,116.79 268.18,125.72 269.51,131.57 271.74,137.13 273.38,139.63 275.47,141.79 280.48,145.07 283.27,146.16 286.22,146.66 289.21,146.62 292.17,146.11 297.9,144.33 300.87,144.06 309.57,141.83 312.56,141.63 318.5,142.38 324.16,144.35 329.48,147.12 336.95,152.12 346.41,159.52 351.35,162.91 356.59,165.83 364.83,169.44 376.24,173.13 387.93,175.86 399.75,177.88 411.69,179.11 420.68,179.16 426.66,178.64 432.59,177.71 467.84,170.41 479.36,167.09 484.89,164.77 500.82,156.4 506.36,154.09 523.28,147.96 528.75,145.49 544.17,136.22 549.52,133.52 566,126.28 571.21,123.31 583.86,115.26 597.4,108.81"   /><polyline id="SvgjsPolyline5122" points="266.13,104.83 266.44,119.82 267.08,131.8 268.17,140.74 269.49,146.59 271.73,152.14 273.38,154.64 275.46,156.79 280.48,160.06 283.27,161.15 286.23,161.65 289.22,161.6 292.18,161.09 297.9,159.31 300.88,159.04 309.58,156.81 312.57,156.61 318.51,157.35 324.17,159.32 329.49,162.08 336.99,167.05 348.81,176.29 353.71,179.74 358.94,182.67 364.41,185.14 372.92,188.06 384.59,190.84 396.45,192.65 408.41,193.59 414.41,193.65 420.4,193.31 429.29,191.92 449.55,186.44 469.97,181.54 481.42,177.97 489.56,174.15 499.91,168.08 505.26,165.36 524.8,157.69 530.25,155.19 535.47,152.22 548.12,144.17 567.16,135.33 572.38,132.37 584.87,124.08 598.3,117.41"   /><polyline id="SvgjsPolyline5123" points="266.13,119.85 266.42,134.84 267.07,146.82 268.14,155.76 269.46,161.61 271.71,167.16 273.36,169.66 275.46,171.8 280.49,175.06 283.28,176.13 286.23,176.62 289.23,176.57 292.19,176.06 297.91,174.28 300.89,174.02 309.59,171.79 312.58,171.58 318.52,172.32 324.18,174.28 332.07,178.59 339.45,183.74 353.67,194.78 358.73,197.99 364.11,200.64 372.58,203.67 381.33,205.78 393.2,207.52 405.17,208.26 417.16,207.91 426.05,206.53 434.71,204.09 451.66,198.06 474.77,191.57 483.26,188.61 491.33,184.65 501.49,178.26 506.73,175.33 512.17,172.8 526.08,167.2 534.16,163.24 549.19,153.35 554.47,150.51 570.72,142.77 575.81,139.61 585.67,132.76 590.88,129.79 598.95,125.82"   /><polyline id="SvgjsPolyline5124" points="253.46,0.18 253.3,9.17 254.23,18.12 256.46,26.83 261.43,40.98 263.15,46.73 264.48,52.57 265.66,61.49 265.94,67.49 265.95,85.49 265.57,124.48 264.58,142.45 262.89,154.33 260.59,163.02 258.39,168.6 255.6,173.91 250.58,181.38 237.77,198.01 228.06,209.44 219.4,217.74 214.55,221.27 211.95,222.76 206.38,224.97 203.45,225.6 197.47,225.97 191.49,225.56 179.61,223.85 161.9,220.63 150.23,217.87 141.67,215.09 133.56,211.22 120.86,203.23 115.59,200.36 107.36,196.74 93.38,191.3 85.31,187.33 67.89,175.63 62.6,172.79 49,166.47 43.74,163.59 28.99,153.28 23.79,150.29 10.42,143.49 5.35,140.29 0.51,136.74"   /><polyline id="SvgjsPolyline5125" points="266.12,134.87 266.41,149.87 267.04,161.85 268.11,170.78 269.43,176.63 271.69,182.18 273.35,184.68 275.45,186.81 280.49,190.05 283.29,191.11 286.25,191.6 289.24,191.54 292.2,191.03 297.92,189.24 300.9,188.99 309.6,186.75 312.59,186.55 318.53,187.29 324.2,189.23 332.11,193.51 339.52,198.61 356.28,211.26 361.37,214.43 366.81,216.96 375.38,219.68 384.21,221.38 393.16,222.33 405.15,222.65 417.12,221.86 423.04,220.89 428.85,219.39 437.27,216.23 453.78,209.07 476.65,201.79 485.07,198.64 493.07,194.51 505.58,186.25 510.82,183.33 530.05,174.91 535.37,172.14 552.8,160.45 571.59,151.08 576.7,147.94 588.97,139.32 599.58,133.72"   /><polyline id="SvgjsPolyline5126" points="265.89,124.54 265.4,151.53 264.9,160.52 263.98,169.47 262.99,175.39 261.59,181.22 259.67,186.9 257.14,192.34 252.3,199.92 248.54,204.59 244.24,208.77 230.46,220.35 223.22,225.69 215.48,230.27 209.91,232.5 204.03,233.64 198.04,233.63 192.09,232.87 165.61,227.63 151.03,224.11 145.29,222.36 139.68,220.22 131.71,216.07 119.18,207.83 113.94,204.91 108.5,202.38 91.82,195.61 86.43,192.98 81.29,189.89 66.53,179.59 61.26,176.74 45.06,168.89 39.98,165.7 27.82,156.93 9.3,147.04 1.84,142.02"   /><polyline id="SvgjsPolyline5127" points="266.11,149.9 266.8,173.89 268.08,185.82 269.39,191.67 270.37,194.5 271.66,197.21 273.33,199.7 275.44,201.83 280.5,205.03 283.3,206.09 286.26,206.56 289.26,206.5 292.21,205.98 297.94,204.19 300.91,203.95 309.61,201.71 312.6,201.51 318.54,202.24 324.22,204.17 332.15,208.4 339.61,213.44 356.61,225.76 361.66,229 367.05,231.62 372.74,233.53 381.55,235.33 390.5,236.2 402.5,236.31 411.48,235.71 417.43,234.93 423.31,233.76 429.06,232.07 437.32,228.51 450.61,221.55 456.06,219.03 464.47,215.84 478.68,211.04 487.02,207.68 494.91,203.35 507.2,194.76 512.36,191.7 531.44,182.93 536.73,180.11 553.96,168.13 575.2,156.99 589.87,146.56 597.71,142.14"   /><polyline id="SvgjsPolyline5128" points="266.1,164.95 266.77,188.94 268.02,200.87 269.34,206.72 270.32,209.55 271.62,212.26 273.3,214.74 275.43,216.84 280.51,220.02 283.32,221.05 286.28,221.51 289.28,221.44 292.23,220.92 297.95,219.13 300.93,218.9 309.63,216.66 312.62,216.46 318.56,217.18 324.24,219.08 329.62,221.75 337.25,226.51 357.06,240.05 362.25,243.06 367.68,245.61 373.41,247.35 382.29,248.77 391.28,249.21 400.28,248.98 409.24,248.18 418.12,246.76 423.96,245.35 429.64,243.45 435.11,240.98 453.21,230.35 458.57,227.65 466.89,224.22 480.98,219.07 489.22,215.46 496.96,210.89 509.05,202.01 514.16,198.87 533.1,189.81 538.35,186.9 555.4,174.66 576.52,163.28 591.07,152.7 598.85,148.19"   /><polyline id="SvgjsPolyline5129" points="265.9,145.63 265.45,172.62 264.98,181.61 264.11,190.56 262.52,199.42 260.88,205.19 258.63,210.75 255.7,215.98 252.24,220.88 248.32,225.42 243.83,229.39 238.85,232.73 228.29,238.42 220.04,242.02 211.39,244.44 205.42,244.91 202.42,244.74 196.51,243.73 158.73,234.09 147.19,230.78 138.79,227.57 130.88,223.28 118.57,214.71 113.43,211.62 105.33,207.71 91.5,201.91 83.5,197.79 66.38,185.65 61.18,182.66 47.7,176.1 42.46,173.18 25.35,161.01 9.48,152.53 1.96,147.6"   /><polyline id="SvgjsPolyline5130" points="266.12,183.02 266.93,207 267.95,215.94 269.27,221.79 271.56,227.32 273.26,229.79 275.41,231.87 280.53,234.99 283.35,236 286.31,236.44 289.31,236.35 292.26,235.83 297.98,234.04 300.96,233.82 309.66,231.58 312.65,231.38 318.59,232.08 324.28,233.96 329.68,236.58 355.06,252.55 363.07,256.66 368.66,258.83 374.5,260.18 380.46,260.85 389.45,261.01 398.44,260.49 407.38,259.45 416.23,257.85 424.92,255.51 430.52,253.37 438.45,249.13 453.43,239.15 458.63,236.16 466.79,232.38 483.53,225.77 491.65,221.88 496.76,218.75 508.69,209.66 513.65,206.29 518.87,203.33 537.68,194.01 542.71,190.75 552.2,183.4 557.13,179.98 578.13,168.4 590.12,159.38 597.71,154.56"   /><polyline id="SvgjsPolyline5131" points="265.69,187.77 264.63,208.74 262.78,220.58 261.15,226.36 258.86,231.9 255.8,237.05 252.14,241.81 250.14,244.04 245.65,248.01 240.6,251.25 235.15,253.74 226.58,256.47 220.73,257.8 214.78,258.54 208.79,258.47 205.81,258.07 200.01,256.57 180.37,249.14 148.76,239.68 137.6,235.29 129.8,230.81 117.73,221.92 112.69,218.66 104.7,214.53 88.25,207.22 82.98,204.36 77.98,201.04 68.48,193.72 63.5,190.37 42.26,179.23 37.26,175.9 25.27,166.9 20.12,163.83 9.5,158.23 1.93,153.38"   /><polyline id="SvgjsPolyline5132" points="266.11,198.12 266.86,222.1 267.85,231.05 269.15,236.9 271.47,242.42 273.2,244.86 275.39,246.91 280.55,249.95 283.39,250.92 286.35,251.33 289.35,251.22 292.3,250.68 298.02,248.89 301,248.71 309.69,246.46 312.69,246.25 318.63,246.94 321.52,247.74 327.09,249.97 332.41,252.74 353.13,264.85 358.56,267.4 364.17,269.51 369.97,271.03 378.92,271.9 387.91,271.67 396.87,270.81 408.72,268.94 417.49,266.94 426.06,264.2 434.22,260.41 439.3,257.23 453.84,246.62 458.91,243.4 466.92,239.32 486.27,231.17 494.23,226.97 499.2,223.61 513.41,212.57 518.52,209.44 534.62,201.39 539.83,198.41 544.76,195 556.6,185.79 561.69,182.62 577.49,174.01 582.43,170.61 591.89,163.23 599.52,158.46"   /><polyline id="SvgjsPolyline5133" points="265.69,209 265.26,220.99 264.55,229.96 263.72,235.9 262.43,241.76 260.48,247.43 259.2,250.14 255.94,255.17 252,259.69 249.83,261.76 244.96,265.25 239.56,267.86 233.84,269.64 227.94,270.73 221.97,271.33 215.98,271.32 210.03,270.52 207.13,269.78 201.52,267.67 188.2,260.77 180.02,257.02 171.59,253.88 145.92,245.51 140.36,243.27 134.97,240.63 127.4,235.77 113.04,224.93 105.21,220.51 91.55,214.31 83.54,210.21 78.5,206.96 64.2,196.04 59.07,192.93 45.71,186.1 40.52,183.1 23.65,170.61 7.92,161.88 0.44,156.89"   /><polyline id="SvgjsPolyline5134" points="266.06,210.3 266.44,231.29 266.98,240.28 267.68,246.23 268.96,252.09 269.96,254.92 271.32,257.59 273.11,260 275.35,261.98 280.59,264.87 283.45,265.78 286.43,266.13 289.42,265.99 292.37,265.44 298.09,263.64 301.06,263.5 309.76,261.25 315.74,261.2 318.7,261.69 324.43,263.44 329.93,265.85 345.86,274.22 351.29,276.76 356.89,278.92 362.66,280.56 368.57,281.58 374.56,281.9 383.54,281.42 392.47,280.32 404.29,278.24 415.95,275.42 424.49,272.58 432.65,268.8 440.19,263.91 454.35,252.79 461.87,247.87 469.91,243.81 486.41,236.63 494.35,232.39 499.31,229.03 510.94,219.56 515.82,216.08 520.98,213.01 534.37,206.25 539.59,203.3 544.56,199.93 553.9,192.4 558.75,188.88 579.59,176.99 591.45,167.82 598.95,162.85"   /><polyline id="SvgjsPolyline5135" points="265.68,233.49 264.95,248.47 264.27,254.43 263.11,260.32 261.19,265.99 259.83,268.67 256.21,273.43 251.74,277.43 246.65,280.59 243.89,281.75 238.11,283.34 232.16,284.14 226.17,284.31 220.18,283.93 214.28,282.86 208.58,281.01 203.19,278.4 188.09,268.61 182.88,265.62 177.49,262.99 169.15,259.62 146.49,251.7 140.94,249.44 135.55,246.8 127.96,241.98 116.25,232.6 111.36,229.13 103.53,224.7 89.94,218.35 82.02,214.1 77.05,210.74 62.85,199.69 57.72,196.58 41.81,188.17 36.8,184.87 27.38,177.44 22.49,173.97 6.79,165.16 1.77,161.88"   /><polyline id="SvgjsPolyline5136" points="265.96,219.54 265.8,252.54 265.28,267.53 264.66,273.5 263.4,279.36 262.33,282.16 260.83,284.76 258.89,287.04 256.57,288.93 251.37,291.93 245.71,293.88 239.79,294.76 233.79,294.92 227.8,294.55 221.87,293.67 213.25,291.14 207.82,288.58 200.3,283.65 185.94,272.81 178.16,268.29 167.17,263.49 144.65,255.18 139.16,252.77 133.86,249.96 126.43,244.9 114.86,235.36 109.95,231.9 104.78,228.86 88.57,221.04 80.73,216.64 75.83,213.18 66.54,205.59 61.67,202.08 56.53,198.98 40.68,190.47 35.72,187.09 26.35,179.6 21.44,176.15 5.77,167.3 0.79,163.96"   /><polyline id="SvgjsPolyline5137" points="266.05,228.13 266.58,252.12 267.04,258.1 267.91,264.04 269.63,269.77 271.05,272.42 272.95,274.74 275.3,276.59 280.7,279.17 283.6,279.94 286.59,280.19 292.52,279.38 298.23,277.57 301.2,277.56 309.89,275.3 315.88,275.22 318.84,275.67 324.62,277.27 346.74,286.56 352.43,288.45 358.27,289.82 364.22,290.58 370.22,290.69 379.18,289.86 391.02,287.92 405.68,284.76 417.22,281.49 425.64,278.32 433.64,274.22 441,269.05 454.85,257.55 459.72,254.05 467.52,249.56 486.63,240.86 494.54,236.58 499.49,233.2 511.03,223.61 515.84,220.03 520.94,216.88 536.91,208.57 542.03,205.44 558.58,192.53 563.65,189.34 579.34,180.52 593.59,169.54 598.6,166.24"   /><polyline id="SvgjsPolyline5138" points="330.49,598.07 333.24,580.28 336.95,559.61 340.62,541.99 344.83,524.49 348.8,510.03 354.23,492.87 359.36,478.78 365.11,464.92 374.26,446.02 380.07,435.52 386.27,425.25 396.17,410.22 425.36,368.41 433.41,355.75 445.8,335.2 454.02,322.65 461.38,313.19 467.8,306.88 474.92,301.38 492.52,289.93 499.69,284.49 506.23,278.32 516.43,267.32 523.1,261.29 527.94,257.74 545.57,246.35 550.24,242.58 561.1,232.24 565.7,228.39 585.7,215.13 599.25,203.3"   /><polyline id="SvgjsPolyline5139" points="324.73,598.11 330.78,556.54 335.19,529.91 340.06,506.41 345.36,486.09 351.91,466.14 355.18,457.76 360,446.77 368.21,430.76 372.84,423.04 377.82,415.55 384.96,405.9 390.62,398.91 416.41,369.65 425.9,358.04 434.71,345.9 446.19,328.32 454.72,315.98 460.35,308.97 464.53,304.66 469.06,300.73 473.87,297.15 491.62,285.93 496.53,282.48 503.42,276.69 515.88,263.72 522.59,257.72 527.45,254.21 545.17,242.94 549.86,239.21 563.07,226.99 567.86,223.38 580.57,215.41 585.49,211.98 599.1,200.21"   /><polyline id="SvgjsPolyline5140" points="276.3,1.19 281.53,4.11 284.39,5 287.37,5.29 290.36,5.07 299.02,2.67 301.99,2.49 307.75,0.81 310.71,0.38 313.71,0.33 316.69,0.68 322.44,2.36 327.83,4.97 351.43,18.09 358.72,23.36 370.08,33.15 379.53,40.54 389.5,47.22 397.35,51.6 402.84,54.01 411.56,56.2 420.48,57.4 432.45,58.25 444.44,58.49 456.41,57.72 486.13,53.58 497.91,51.32 503.66,49.62 517.81,44.65 535.2,40.02 540.91,38.17 557.4,30.98 577.22,24.06 590.67,17.42 599.04,14.12"   /><polyline id="SvgjsPolyline5141" points="268.81,1.53 270.86,7.17 272.21,9.85 273.94,12.3 276.12,14.35 278.71,15.86 281.57,16.73 287.54,17.26 290.53,17 299.19,14.62 302.16,14.32 307.92,12.66 310.89,12.24 316.86,12.59 322.6,14.3 327.99,16.94 354.21,31.5 361.59,36.65 373.12,46.24 380.3,51.66 387.78,56.65 395.6,61.12 403.76,64.9 409.51,66.61 418.38,68.07 427.35,68.83 442.34,69.22 454.32,68.59 489.85,62.83 501.58,60.31 521.33,53.2 538.66,48.33 544.32,46.35 560.71,38.93 574.88,34.01 580.43,31.75 591.09,26.23 599.35,22.67"   /><polyline id="SvgjsPolyline5142" points="259.86,2.23 266.79,18.84 270.01,30.39 271.1,33.18 272.51,35.83 274.34,38.2 276.61,40.16 279.27,41.54 285.07,43.02 288.06,43.19 291.04,42.85 296.8,41.19 302.64,40.11 308.41,38.49 311.39,38.14 314.39,38.19 320.26,39.38 325.79,41.68 338.7,49.31 362.58,61.9 370.13,66.8 384.75,77.29 395.17,83.22 400.61,85.75 409.04,88.88 414.87,90.3 420.81,91.11 429.79,91.67 438.79,91.77 447.79,91.49 456.75,90.68 462.66,89.68 480.15,85.4 503.62,80.44 512.17,77.64 525.97,71.75 548.76,64.28 564.93,56.37 584.49,48.77 597.7,41.66"   /><polyline id="SvgjsPolyline5143" points="250.89,1.81 248.42,7.27 246.76,9.77 242.64,14.11 238.03,17.95 230.65,23.09 225.51,26.19 220.17,28.93 211.88,32.43 197.66,37.18 177.97,44.46 169.14,46.17 157.16,46.78 139.17,46.25 127.25,44.9 109.72,40.86 92.05,37.42 83.3,35.32 66.45,29.02 43.5,22.01 27.06,14.69 10.11,8.67 2.03,4.7"   /><polyline id="SvgjsPolyline5144" points="220.97,0.72 204.5,7.98 188.88,16.92 183.46,19.48 180.63,20.46 174.79,21.83 168.84,22.59 150.86,23.24 141.86,23.02 132.89,22.26 94.42,15.93 85.7,13.69 71.5,8.88 54.08,4.34 48.39,2.45 42.86,0.13"   /><polyline id="SvgjsPolyline5145" points="252.12,5.51 249.37,23.29 246.62,34.97 244.52,40.59 243.17,43.26 239.69,48.14 237.56,50.25 232.87,53.99 225.19,58.67 219.81,61.33 211.47,64.69 205.76,66.53 197.04,68.75 176.49,73.06 167.58,74.32 158.58,74.59 149.59,74.26 134.63,73.14 125.71,72.02 116.9,70.17 99.71,64.86 79.31,59.87 70.82,56.91 57.07,50.91 37.18,44.21 21,36.34 6.98,31.02 1.49,28.6"   /><polyline id="SvgjsPolyline5146" points="252.65,1.82 248.56,31.54 244.84,52.2 241.58,63.74 239.37,69.31 236.71,74.69 233.32,79.63 231.31,81.86 229.11,83.9 224.19,87.32 218.81,89.95 210.37,93.09 204.61,94.77 195.84,96.75 178,99.16 169.03,99.83 163.03,99.89 154.05,99.31 136.17,97.26 124.28,95.62 115.46,93.87 109.69,92.21 92.85,85.88 75.52,81 67.02,78.05 50.78,70.3 31.1,63.01 15.16,54.66 1.27,49"   /><polyline id="SvgjsPolyline5147" points="252.52,2.96 246.24,50.55 244.66,68.47 244.56,77.47 244.83,83.47 247.87,113.31 248.4,122.29 248.13,134.28 247.55,140.25 246.14,149.14 243.35,160.81 239.61,172.21 234.96,183.27 230.84,191.27 226.13,198.93 220.68,206.09 216.51,210.4 214.22,212.33 209.17,215.55 206.41,216.73 200.58,218.09 194.59,218.37 185.61,217.75 170.75,215.76 158.94,213.63 150.17,211.61 141.61,208.85 133.5,204.97 123.24,198.74 115.26,194.59 95.68,187.02 87.49,183.28 82.34,180.22 69.92,171.81 64.65,168.95 51,162.74 45.67,159.97 28.26,148.25 12.22,140.09 7.08,137 2.2,133.52"   /><polyline id="SvgjsPolyline5148" points="256.07,1.33 258.53,9.98 264.12,23.89 266.05,29.57 269.26,44.22 270.14,47.09 272.74,52.47 274.63,54.8 276.96,56.68 279.66,57.97 282.59,58.62 288.58,58.76 291.55,58.35 297.29,56.62 303.13,55.57 308.92,54.02 314.9,53.85 320.74,55.15 323.54,56.23 328.87,58.97 341.64,66.83 368.42,80.35 376.14,84.98 386.16,91.57 394.04,95.92 405.08,100.59 410.82,102.36 416.67,103.68 425.61,104.6 434.61,104.8 446.6,104.45 458.55,103.31 467.36,101.52 481.75,97.29 508,91 516.45,87.9 530.11,81.72 547.18,76.02 552.76,73.82 568.78,65.62 588.23,57.72 598.67,51.82"   /><polyline id="SvgjsPolyline5149" points="342.36,599.79 349.85,561.52 354.53,541.05 359,523.61 363.96,506.31 368.52,492.02 373.51,477.88 378.98,463.91 388.74,441.99 399.68,420.63 442.74,345.03 452.16,329.7 457.25,322.28 461,317.6 465.1,313.22 469.55,309.2 476.74,303.79 489.29,295.57 496.61,290.34 503.4,284.44 515.63,271.23 522.13,265.02 529.35,259.65 542,251.6 546.87,248.09 551.45,244.22 564.54,231.88 569.34,228.28 584.45,218.49 589.16,214.78 598.03,206.71"   /><polyline id="SvgjsPolyline5150" points="343.91,0.16 349.03,3.27 353.9,6.77 369.71,20.59 379.12,28.03 389.02,34.81 396.83,39.28 399.59,40.46 405.32,42.21 414.17,43.86 429.08,45.39 444.07,46.05 456.05,45.49 479.91,42.87 488.82,41.6 497.61,39.69 514.75,34.22 532.22,29.89 537.95,28.1 554.56,21.2 571.68,15.63 577.2,13.3 588,8.07 599.25,3.9"   /><polyline id="SvgjsPolyline5151" points="193.24,0.39 188.08,3.44 185.34,4.65 182.5,5.63 176.66,6.97 164.73,8.24 149.74,8.69 140.75,8.47 134.77,7.98 105.03,4.06 96.15,2.55 87.46,0.24"   /><polyline id="SvgjsPolyline5152" points="252.77,0.82 249.05,27.56 245.62,45.23 243.96,50.99 241.74,56.56 238.69,61.72 236.78,64.04 234.64,66.13 229.75,69.6 224.43,72.36 213.4,77.07 207.71,78.98 199.01,81.28 178.32,84.89 166.4,86.15 154.4,85.97 130.5,83.8 121.61,82.45 115.76,81.13 98.7,75.38 78.41,70.01 72.68,68.21 53.47,59.75 33.68,52.75 17.62,44.65 0.91,37.97"   /><polyline id="SvgjsPolyline5153" points="246.86,43.53 242.8,67.18 239.33,81.77 237.45,87.47 235.05,92.96 232.1,98.19 228.61,103.06 224.33,107.25 221.91,109.02 219.34,110.57 213.89,113.06 208.18,114.89 199.43,116.99 184.58,119.11 169.61,119.84 157.63,119.21 122.15,113.13 110.44,110.52 101.96,107.54 88.19,101.61 71.02,96.2 62.59,93.04 46.58,84.83 27.06,77.11 11.31,68.41 0.3,63.65"   /><polyline id="SvgjsPolyline5154" points="247.84,37.26 233.97,126.19 230.53,143.85 227.44,155.45 223.21,166.66 220.44,171.98 217.05,176.93 212.89,181.24 210.49,183.04 207.9,184.55 202.31,186.69 196.42,187.82 190.44,188.31 175.45,188.05 166.49,187.25 157.57,186.05 148.77,184.18 143.06,182.35 123.95,173.64 115.49,170.6 101.18,166.09 92.81,162.78 87.5,160 77.29,153.7 72,150.88 55.4,143.91 50,141.31 32.18,130.22 13.28,121.08 0.78,112.8"   /><polyline id="SvgjsPolyline5155" points="246.01,49.74 242.02,76.44 239.27,97.26 234.87,145.06 232.91,156.89 230.79,165.64 227.98,174.18 225.64,179.71 222.87,185.03 219.55,190.02 215.52,194.45 210.85,198.21 208.31,199.81 202.76,202.05 196.86,203.11 190.87,203.4 181.88,203.08 172.91,202.29 155.12,199.58 146.39,197.4 140.75,195.38 119.36,184.52 96.8,176.36 88.59,172.67 70.76,161.6 51.62,152.98 46.32,150.18 31.31,140.25 12.54,130.85 7.45,127.68 0.1,122.48"   /><polyline id="SvgjsPolyline5156" points="354.7,598.97 357.28,578.13 359.94,560.33 363.05,542.6 366.02,527.89 369.37,513.27 373.94,495.87 378.26,481.5 383.07,467.29 391.83,444.95 403.16,420.45 412.82,401.81 438.57,354.34 449.1,336.18 453.93,328.58 459.19,321.28 465.2,314.59 469.64,310.55 476.81,305.12 491.8,295.16 496.63,291.6 503.39,285.67 515.59,272.43 522.06,266.19 529.25,260.78 541.88,252.7 546.76,249.2 551.35,245.34 564.4,232.95 569.18,229.33 581.81,221.23 586.67,217.73 597.86,207.75"   /><polyline id="SvgjsPolyline5157" points="366.46,1.8 375.69,9.47 385.35,16.58 392.99,21.34 398.54,23.6 407.26,25.79 419.12,27.6 437.03,29.4 449.02,29.8 458.01,29.4 475.95,27.96 484.88,26.87 490.79,25.81 508.12,20.95 531.47,15.45 537.14,13.49 548.26,8.99 565.47,3.72 573.84,0.43"   /><polyline id="SvgjsPolyline5158" points="246.28,47.62 241.89,74.25 238.25,91.88 234.94,103.41 232.72,108.98 229.89,114.27 226.2,118.99 224.01,121.04 219.21,124.64 213.97,127.54 205.46,130.42 196.64,132.2 190.69,133.02 181.73,133.79 172.73,134.05 163.74,133.81 157.77,133.22 151.86,132.19 137.27,128.71 116.69,124.5 107.97,122.32 99.52,119.23 88.7,114.04 83.16,111.75 66.09,106.04 60.51,103.82 44.66,95.31 28.01,88.48 22.57,85.96 9.63,78.38 1.49,74.56"   /><polyline id="SvgjsPolyline5159" points="252.82,0.51 248,36.19 241.99,74.72 237.02,101.25 233.27,115.78 231.31,121.44 228.87,126.92 225.77,132.05 223.89,134.39 221.78,136.52 217.11,140.28 214.59,141.92 211.94,143.31 206.33,145.43 197.55,147.36 185.62,148.62 173.62,148.92 161.64,148.32 155.7,147.53 149.83,146.28 132.58,141.16 106.36,134.72 97.91,131.63 81.81,123.6 62.08,116.4 56.58,114.01 40.92,105.16 21.65,96.82 6.17,87.65 0.8,84.99"   /><polyline id="SvgjsPolyline5160" points="250.22,20.38 245.49,53.04 238.28,97.45 234.31,118.07 230.52,132.58 228.54,138.25 226.11,143.73 223.04,148.88 221.19,151.24 216.79,155.3 211.74,158.54 206.28,161 197.54,163.1 185.6,164.17 170.6,164.08 158.65,163.03 152.74,162 146.94,160.5 127.16,153.46 104.02,147.09 95.61,143.9 77.03,134.14 60.22,127.7 54.73,125.29 36.57,114.76 17.45,106.1 2.14,96.66"   /><polyline id="SvgjsPolyline5161" points="241.61,77.95 235.92,113.5 232.64,131.2 228.96,145.73 227.03,151.41 224.67,156.93 221.74,162.16 219.98,164.59 215.78,168.86 213.33,170.59 210.69,172.01 205.04,173.99 193.21,175.92 184.22,176.35 172.22,176.04 160.28,174.93 151.42,173.37 142.81,170.76 128.99,164.93 123.35,162.89 100.38,155.95 92.09,152.45 79.1,144.97 73.73,142.3 57.02,135.61 51.59,133.05 36.26,123.64 19.93,116.07 14.61,113.3 2.02,105.16"   /><polyline id="SvgjsPolyline5162" points="366.96,597.36 372.8,549.71 378.6,511.15 380.84,499.36 384.16,484.73 390.7,461.65 394.54,450.28 399.85,436.25 410.69,411.52 421.29,389.99 436.41,360.66 448.11,339.71 454.48,329.54 457.94,324.64 463.73,317.76 468.03,313.58 475.05,307.95 489.98,297.9 497.23,292.56 503.92,286.56 516.05,273.26 522.55,267.04 529.75,261.65 542.37,253.54 547.22,250.01 551.77,246.11 564.82,233.71 569.61,230.1 584.68,220.27 589.38,216.55 598.23,208.44"   /><polyline id="SvgjsPolyline5163" points="383.12,0.05 388.07,3.43 390.72,4.85 396.3,7.03 402.09,8.59 413.89,10.78 434.68,13.73 443.64,14.53 449.64,14.67 470.62,13.76 485.51,12.06 505.92,7.13 523.56,3.54 532.19,1.02"   /><polyline id="SvgjsPolyline5164" points="378.89,598.68 384.05,557 390.29,515.47 397.45,477.14 404.25,447.92 407.56,436.39 411.3,424.98 419.88,402.57 427.05,386.06 434.63,369.74 439.99,359 445.71,348.45 453.33,335.54 458.4,328.1 464.19,321.22 468.48,317.03 475.47,311.37 492.75,299.42 499.77,293.8 506.18,287.49 518.19,274.09 524.88,268.07 547.13,252.81 551.69,248.91 564.65,236.43 569.4,232.76 581.97,224.58 586.84,221.07 597.99,211.05"   /><polyline id="SvgjsPolyline5165" points="424.48,0.21 439.3,2.55 451.28,3.1 472.26,2.28 481.2,1.32 487.11,0.27"   /><polyline id="SvgjsPolyline5166" points="391.15,597.07 405.06,511.19 410.84,481.76 416.97,455.46 424.21,429.46 432.81,403.87 438.26,389.89 442.99,378.86 448.05,367.98 452.17,359.98 458.49,349.79 462.09,344.99 466.02,340.46 474.76,332.25 491.33,319.35 498.14,313.46 504.4,307 517.75,290.8 524.05,284.37 531.06,278.73 543.38,270.19 548.12,266.51 552.58,262.5 563,251.71 567.43,247.66 572.18,244 586.99,233.78 591.57,229.9 598.04,223.65"   /><polyline id="SvgjsPolyline5167" points="402.98,599.04 409.85,576.05 418.55,550.49 427.29,528.14 435.8,508.94 447.92,484.82 483.22,422.06 505.17,379.38 512.42,366.25 517.28,358.68 522.74,351.53 528.86,344.93 542.11,332.76 548.51,326.42 554.38,319.61 563.49,307.7 569.35,300.87 575.92,294.72 589.81,283.28 598.15,274.66"   /><polyline id="SvgjsPolyline5168" points="396.22,597.62 402.48,571.35 408.55,548.13 416.06,522.2 422.49,502.21 428.59,485.27 435.43,468.63 441.87,455.08 449.14,441.96 455.6,431.85 460.81,424.51 481.2,398.57 490.1,386.5 498.28,373.93 513.61,348.14 518.7,340.72 522.43,336.03 530.81,327.45 542.23,317.72 548.85,311.63 554.92,304.99 564.36,293.33 570.51,286.77 575.01,282.8 589.15,271.66 593.54,267.57 599.67,260.99"   /><polyline id="SvgjsPolyline5169" points="394.25,598.39 401.81,563.19 410.6,525.19 419.32,490.27 426.47,464.23 433.6,441.32 439.69,424.38 445.55,410.57 452.45,397.26 458.94,387.18 466.41,377.78 472.55,371.21 489.77,354.49 497.82,345.6 505.11,336.07 517.14,318.86 522.91,311.96 529.4,305.73 543.57,294.64 550.37,288.74 554.56,284.45 564.47,273.19 568.72,268.96 573.29,265.07 587.77,254.38 592.29,250.44 598.61,244.03"   /><polyline id="SvgjsPolyline5170" points="393.65,597.27 416.22,488.59 420.2,471.04 424.63,453.59 431.33,430.55 439.1,407.84 444.7,393.93 451.37,380.5 457.8,370.38 463.4,363.33 469.49,356.71 473.8,352.53 489.63,338.74 498.24,330.38 505.98,321.22 516.76,306.81 522.67,300.03 529.31,293.96 548.4,279.43 552.79,275.34 567.21,260.08 571.79,256.21 588.78,243.88 599.6,233.49"   /><polyline id="SvgjsPolyline5171" points="415.34,599.45 421.98,576.39 430.39,550.73 438.72,528.23 446.64,508.78 456.32,486.82 466.49,465.08 501.44,392.01 511.13,373.38 517.52,363.23 523.02,356.1 529.13,349.51 542.27,337.21 548.58,330.78 554.36,323.9 565.24,309.55 569.17,305.02 575.66,298.8 589.5,287.29 593.8,283.1 599.79,276.39"   /><polyline id="SvgjsPolyline5172" points="394.54,599.74 401.69,567.52 409.46,535.45 415.55,512.24 423.02,486.29 429.49,466.31 435.77,449.45 441.77,435.7 448.74,422.42 455.17,412.29 462.39,402.71 470.18,393.59 486.31,375.82 493.93,366.55 500.93,356.8 515.56,334.11 522.93,324.65 529.27,318.27 543.15,306.82 549.84,300.81 555.96,294.21 565.64,282.75 569.86,278.49 574.4,274.56 588.69,263.63 593.13,259.6 599.35,253.09"   /><polyline id="SvgjsPolyline5173" points="427.7,599.73 431.57,579.09 437.12,555.75 443.82,532.7 452.57,507.16 462.41,482.02 474.21,454.44 496.44,405.23 508.28,380.97 515.89,368.05 521.17,360.77 525.05,356.19 531.33,349.74 544.41,337.38 548.53,333.02 554.28,326.1 565.09,311.71 571.07,304.99 575.45,300.89 589.26,289.34 593.56,285.16 599.56,278.45"   /><polyline id="SvgjsPolyline5174" points="440.03,598.8 445.82,563.27 449.76,542.64 454.58,522.2 460.34,502.01 468.97,476.43 478.65,451.23 493.78,415.28 505.08,390.76 510.67,380.14 515.33,372.44 520.54,365.11 524.37,360.5 528.46,356.1 541.44,343.63 547.69,337.16 553.45,330.25 564.16,315.78 569.99,308.93 576.51,302.74 590.24,291.1 598.44,282.35"   /><polyline id="SvgjsPolyline5175" points="452.34,597.65 468.52,536.76 475.98,510.81 481.31,493.62 487.07,476.57 492.33,462.52 498.16,448.7 503.39,437.9 509.26,427.44 514.17,419.9 521.36,410.29 534.85,394.2 542.24,384.75 547.39,377.36 560.12,357.02 565.23,349.61 572.99,340.47 590.25,323.8 594.22,319.31 599.8,312.24"   /><polyline id="SvgjsPolyline5176" points="450.67,597.72 467.96,524.74 477.96,487.05 484.13,466.97 491.03,447.14 497.66,430.41 503.93,416.78 509.67,406.25 517.99,393.78 525.56,384.46 539.83,369.06 545.66,362.21 551.06,355.01 561.11,340.08 566.42,332.81 570.3,328.24 574.48,323.94 587.86,311.9 592.11,307.66 599.88,298.52"   /><polyline id="SvgjsPolyline5177" points="464.71,597.73 475.69,569.82 487.86,542.4 496.98,523.48 523.85,469.84 545.63,423.72 553.72,407.64 559.78,397.29 564.92,389.91 570.6,382.93 586.67,365.1 592.16,357.98 598.96,348.09"   /><polyline id="SvgjsPolyline5178" points="456.07,598.47 466.32,567.1 474.66,544.6 484.07,522.52 490.57,509 496.15,498.38 505.15,482.79 521.04,457.35 530.28,441.9 538.93,426.12 552.69,399.46 560.19,386.47 565.3,379.07 569.05,374.38 587.41,354.6 593.05,347.59 598.29,340.27"   /><polyline id="SvgjsPolyline5179" points="453.42,598.68 466.78,552.58 477.05,521.22 482.21,507.14 487.84,493.24 492.79,482.3 498.23,471.61 504.23,461.22 510.75,451.15 529.97,424.33 538.32,411.86 544.51,401.58 557.79,378.08 564.33,368.02 571.91,358.73 584.57,345.94 590.66,339.31 599.78,327.41"   /><polyline id="SvgjsPolyline5180" points="476.99,599.13 482.47,581.98 488.38,564.98 501.29,531.38 511.65,506.45 531.87,459.63 542.8,434.94 549.2,421.37 556.26,408.14 562.74,398.05 568.23,390.92 582.2,375.23 587.92,368.29 599.89,351.04"   /><polyline id="SvgjsPolyline5181" points="489.34,599.81 493.89,579.31 498.34,561.87 503.33,544.58 508.82,527.44 516.8,504.8 525.34,482.37 535.46,457.34 543.79,438.06 553,419.2 560.74,406.36 567.94,396.76 585.56,376.31 590.91,369.07 599.2,356.57"   /><polyline id="SvgjsPolyline5182" points="501.69,599.35 511.38,567.81 520.94,539.37 529.48,516.95 538,497.75 544.93,484.45 551.08,474.15 571.29,444.37 577.68,434.21 593.75,405.39 599.97,395.13"   /><polyline id="SvgjsPolyline5183" points="499.69,597.86 511.65,554.48 521.29,522.92 531.2,494.61 540.38,472.44 547.05,459 554.62,446.06 561.4,436.16 574.2,419.51 581.23,409.79 587.72,399.7 598.48,381.67"   /><polyline id="SvgjsPolyline5184" points="514.05,599.91 526.2,572.48 558.77,504.93 585.1,447.69 592.01,434.38 599.98,421.69"   /><polyline id="SvgjsPolyline5185" points="527.42,599.13 535.24,576.44 545.78,548.35 556.86,520.48 571.74,484.42 580.11,465.17 586.54,451.62 592.24,441.06 598.67,430.93"   /><polyline id="SvgjsPolyline5186" points="540.68,597.27 548.18,571.33 556.31,545.58 564.19,522.92 571.72,503.31 578.84,486.78 585.51,473.35 591.54,462.97 599.99,450.59"   /><polyline id="SvgjsPolyline5187" points="553.05,597.62 559.19,583.94 567.08,567.76 589.57,525.36 599.03,506.61"   /><polyline id="SvgjsPolyline5188" points="545.39,598.94 551.29,581.94 557.61,565.08 563.32,551.21 568.27,540.28 573.63,529.55 580.88,516.42 599.78,485.78"   /><polyline id="SvgjsPolyline5189" points="565.23,599.69 598.95,519.49"   /><polyline id="SvgjsPolyline5190" points="578.61,598.75 588.92,567.4 599.29,539.25"   /><polyline id="SvgjsPolyline5191" points="590.95,599.49 598.82,583.3"   /></g></svg>