<?xml version="1.0" standalone="no"?>
<svg id="SvgjsSvg1001" width="600" height="600" xmlns="http://www.w3.org/2000/svg" version="1.1" xmlns:xlink="http://www.w3.org/1999/xlink" xmlns:svgjs="http://svgjs.com/svgjs" class="svg-paper" viewBox="0 0 600 600"><title id="SvgjsTitle4572">x=sin((x-cos(x)))|y=cos(y)|dTest=0.0|sd=0.2|sm=0.2|ts=0.05 | generated with FlowLines</title><style>*{fill:none;stroke:#777}</style><g id="SvgjsG4573"><polyline id="SvgjsPolyline4574" points="0,521.08 6.6,527.2 13.65,532.79 40.91,551.37 48.15,556.72 52.76,560.56 57.11,564.7 61.05,569.22 64.37,574.21 66.66,579.73"   /><polyline id="SvgjsPolyline4575" points="0.08,504.18 6.38,510.61 12.96,516.75 42.59,542.1 48.99,548.43 52.99,552.9 58.43,560.06 62.94,567.84 66.12,576.25 66.77,579.17 66.92,582.09"   /><polyline id="SvgjsPolyline4576" points="1.35,538.44 6.21,541.95 13.87,546.67 21.8,550.93 43.28,561.63 53.67,567.62 60.86,573.03 64.9,577.44 66.41,580.03"   /><polyline id="SvgjsPolyline4577" points="0.89,487.57 13.35,500.55 36.95,523.62 44.95,532.56 50.46,539.67 56.91,549.78 62.08,560.6 64.1,566.25 65.69,572.03 67.06,580.92"   /><polyline id="SvgjsPolyline4578" points="13.05,599.3 48.06,590.95 59.52,587.39 64.99,584.95"   /><polyline id="SvgjsPolyline4579" points="2.31,553.73 7.71,556.35 16.04,559.75 44.45,569.37 52.87,572.56 60.96,576.49 63.46,578.13 65.71,580.11"   /><polyline id="SvgjsPolyline4580" points="1.67,471.13 26.88,496.83 34.99,505.67 44.3,517.42 50.81,527.5 53.7,532.76 57.53,540.9 59.75,546.47 62.57,555.02 64.78,563.74 65.89,569.63 66.7,575.58 67.11,581.56"   /><polyline id="SvgjsPolyline4581" points="344.08,392.68 344.41,395.66 343.68,401.61 342.08,407.39 338.65,415.7 334.38,423.62 329.53,431.2 324.27,438.51 316.84,447.93 307.13,459.36 293.06,474.95 278.63,490.21 265.93,502.95 255,513.23 245.96,521.12 236.6,528.63 226.89,535.68 214.23,543.72 206.36,548.09 198.31,552.1 184.51,557.98 167.47,563.77 152.98,567.64 135.38,571.37 117.62,574.35 76.06,580.35 70.17,581.51 67.55,582.67"   /><polyline id="SvgjsPolyline4582" points="0.9,588.53 54.75,584.56 63.7,583.6 66.62,582.98"   /><polyline id="SvgjsPolyline4583" points="60.24,599.79 64.72,592 66.66,586.33 66.89,583.45"   /><polyline id="SvgjsPolyline4584" points="2.8,567.3 17.4,570.73 43.96,575.55 55.71,578 64.3,580.65 66.69,582.27"   /><polyline id="SvgjsPolyline4585" points="1.81,454.85 21.44,473.39 31.83,484.21 41.19,495.92 44.55,500.89 49.11,508.64 51.82,513.99 55.41,522.25 58.45,530.71 60.99,539.35 63.07,548.1 64.73,556.95 65.99,565.86 66.83,574.82"   /><polyline id="SvgjsPolyline4586" points="344.92,396.01 344.24,393.09 349.81,390.89 361.47,388.06 399.76,380.66 408.48,378.43 416.97,375.47 422.35,372.82 427.27,369.4 431.42,365.08 434.6,360.01 436.88,354.46 439.13,345.75 440.87,333.88 442.09,318.94 442.92,300.96 443.59,273.96 444.15,207.97"   /><polyline id="SvgjsPolyline4587" points="346.12,393.26 343.89,395.24 341.02,396.1 329.26,398.48 287.92,405.91 273.31,409.27 258.88,413.36 244.73,418.34 230.98,424.32 217.72,431.33 207.53,437.66 197.71,444.55 190.59,450.06 181.39,457.76 172.48,465.8 159.5,478.27 123.47,514.37 91.23,545.76 83.01,554.5 75.47,563.83 70.71,571.45 68.33,576.96 67.54,579.85"   /><polyline id="SvgjsPolyline4588" points="346.51,393.82 343.68,394.8 345.25,397.35 347.59,399.23 352.82,402.16 363.83,406.9 397.75,418.96 405.98,422.61 411.26,425.44 418.66,430.55 423.05,434.63 426.86,439.26 430.03,444.35 433.68,452.57 436.27,461.19 438.63,472.95 440.54,487.82 441.99,505.77 443.04,526.74 443.75,550.73 444.15,580.73"   /><polyline id="SvgjsPolyline4589" points="345.19,391.79 344.31,394.64 344.39,397.64 344.78,400.61 346.24,406.43 349.66,414.74 353.97,422.64 357.23,427.67 362.67,434.84 370.7,443.76 379.3,452.13 399.12,470.46 409.51,481.27 415.24,488.21 418.78,493.05 423.63,500.63 426.52,505.89 430.37,514.02 433.65,522.4 436.4,530.97 438.68,539.67 441.08,551.43 442.43,560.33 443.68,572.26 444.12,581.25"   /><polyline id="SvgjsPolyline4590" points="341.59,394.31 344.59,394.23 344.14,397.19 342.58,399.75 338.47,404.12 328.98,411.45 291.62,436.52 281.99,443.68 272.63,451.19 261.3,461.02 252.51,469.19 218.34,502.9 205.22,515.22 191.54,526.91 177.09,537.64 166.99,544.12 156.53,549.99 148.46,553.97 137.44,558.73 117.65,565.73 77.3,577.39 71.68,579.49 69.02,580.85"   /><polyline id="SvgjsPolyline4591" points="344.35,396.35 343.47,426.34 342.34,444.3 341.01,459.24 339.6,471.16 337.75,483.01 335.98,491.84 333.77,500.56 331,509.12 328.77,514.69 324.73,522.73 321.54,527.81 317.93,532.6 313.92,537.06 309.55,541.17 302.43,546.67 294.8,551.43 286.8,555.55 278.54,559.13 270.1,562.24 258.64,565.79 247.01,568.76 235.27,571.23 223.45,573.28 196.67,576.68 166.76,579.06 130.8,580.74 70.83,582.48"   /><polyline id="SvgjsPolyline4592" points="344.05,401.77 342.84,410.68 340.96,419.48 338.5,428.14 334.42,439.42 330.81,447.66 325.41,458.38 320.98,466.21 314.52,476.32 309.31,483.66 301.91,493.1 294.04,502.16 285.74,510.83 277.04,519.09 267.93,526.9 258.43,534.23 251.04,539.36 243.43,544.17 235.61,548.62 227.59,552.7 219.39,556.41 202.54,562.72 191.04,566.16 182.32,568.38 161.74,572.53 140.96,575.53 120.07,577.74 78.21,581.16 69.27,582.17"   /><polyline id="SvgjsPolyline4593" points="343.35,400.52 340.65,405.87 337.22,410.79 331.38,417.63 325.08,424.06 283.35,462.89 247.18,498.84 231.99,513.34 223.01,521.3 213.73,528.9 199.13,539.42 188.93,545.74 175.67,552.74 164.7,557.6 150.62,562.77 139.14,566.24 127.51,569.23 112.86,572.41 80.43,578.53 74.57,579.82 68.84,581.57"   /><polyline id="SvgjsPolyline4594" points="77.73,599.08 73.64,594.69 69.97,589.95 68.5,587.34 67.49,584.53"   /><polyline id="SvgjsPolyline4595" points="0.72,438.84 21.8,455.71 32.66,466.05 38.54,472.87 43.79,480.17 46.91,485.3 51,493.31 54.43,501.62 57.29,510.16 59.64,518.84 62.15,530.58 64.07,542.42 65.5,554.34 66.51,566.29 67.09,578.28"   /><polyline id="SvgjsPolyline4596" points="344.34,391.51 344.81,385.53 346.25,376.65 348.17,367.86 349.78,362.08 353.75,350.76 356.13,345.25 360.19,337.22 366.48,327.01 375.57,315.08 383.57,306.14 404.64,284.79 412.83,276.02 420.48,266.78 427.35,256.94 431.86,249.16 434.52,243.78 438.97,232.64 440.74,226.91 442.78,218.15 443.69,212.22 443.99,206.27"   /><polyline id="SvgjsPolyline4597" points="346.98,395.12 344.19,394.08 344.49,391.1 345.79,388.39 347.55,385.96 351.77,381.71 356.5,378.02 363.97,373 395.26,355.21 402.81,350.32 407.64,346.75 412.22,342.88 418.47,336.42 422.15,331.68 426.86,324.01 430.62,315.84 433.58,307.35 436.56,295.72 438.75,283.93 440.73,269.06 442.36,251.14 443.42,233.17 444.09,212.18"   /><polyline id="SvgjsPolyline4598" points="342.64,394.18 345.53,394.96 351.48,395.73 402.33,399.59 411.28,400.54 420.18,401.91 426.01,403.29 431.6,405.47 434.14,407.05 436.36,409.05 438.15,411.46 440.44,416.99 441.66,422.86 442.61,431.81 443.23,443.79 443.86,479.78 444.15,581.78"   /><polyline id="SvgjsPolyline4599" points="346.59,394.71 343.75,393.76 345.1,391.09 347.32,389.07 352.41,385.91 363.37,381.05 385.93,372.87 397.09,368.45 405.27,364.7 410.53,361.81 417.89,356.65 422.29,352.57 426.12,347.96 429.35,342.91 433.09,334.73 435.79,326.15 438.28,314.42 440.31,299.56 441.85,281.62 442.97,260.65 443.81,233.67 444.15,206.67"   /><polyline id="SvgjsPolyline4600" points="343.27,394.1 355.2,392.89 400.13,390.38 412.08,389.32 421,388.16 426.89,386.99 432.57,385.09 435.18,383.62 437.44,381.65 439.19,379.23 440.43,376.5 441.87,370.68 442.85,361.74 443.41,349.75 443.98,304.76 444.05,205.77"   /><polyline id="SvgjsPolyline4601" points="598.19,325.56 553.13,281.53 539.77,269.47 528.16,259.99 516.04,251.15 503.43,243.03 487.78,234.14 463.89,221.56 453.57,215.43 448.7,211.94 446.5,209.9 444.75,207.49"   /><polyline id="SvgjsPolyline4602" points="342.25,394.6 345.09,393.66 343.17,391.36 338.08,388.2 327.17,383.21 302.17,373.02 288.48,366.89 272.53,358.55 259.79,350.65 245.24,340.06 231.45,328.49 218.27,316.24 190.56,288.8 177.55,276.36 164.03,264.47 152.23,255.21 139.89,246.68 127.03,238.97 111.05,230.7 81.14,216.76 73.31,212.33 68.67,208.56"   /><polyline id="SvgjsPolyline4603" points="345.23,393.99 336.36,392.51 297.57,388.42 276.74,385.76 256.04,382.23 241.41,378.93 224.13,373.9 207.31,367.51 199.13,363.76 191.13,359.64 183.33,355.15 175.74,350.31 165.96,343.37 156.54,335.93 147.47,328.07 138.71,319.87 128.14,309.23 119.97,300.45 110.1,289.15 100.67,277.49 93.52,267.85 86.83,257.89 80.72,247.56 76.64,239.55 73.08,231.28 70.16,222.77 68.06,214.02 67.28,208.08"   /><polyline id="SvgjsPolyline4604" points="342.28,393.84 345.07,394.92 343.06,397.14 337.91,400.2 329.68,403.83 301.75,414.78 287.99,420.76 271.95,428.91 256.62,438.33 242.1,448.97 228.35,460.58 215.18,472.85 176.65,510.68 163.21,522.65 151.49,532.01 139.24,540.66 126.47,548.53 113.28,555.66 86.25,568.69 78.27,572.84 73.16,575.98 68.62,579.88"   /><polyline id="SvgjsPolyline4605" points="339.29,394.72 282.33,396.98 252.39,398.84 225.52,401.43 210.65,403.45 198.82,405.44 187.07,407.85 175.42,410.73 163.92,414.15 155.42,417.12 147.07,420.46 136.21,425.56 128.33,429.9 120.74,434.74 113.52,440.11 106.75,446.04 100.54,452.55 96.75,457.2 93.26,462.08 88.6,469.78 84.62,477.85 81.26,486.19 78.45,494.74 76.09,503.43 73.54,515.15 71.99,524.02 70.32,535.9 68.76,550.82 67.87,562.78 67.23,577.77"   /><polyline id="SvgjsPolyline4606" points="342.26,396.57 333.74,399.46 296.07,409.55 287.48,412.24 276.18,416.27 265.11,420.9 254.33,426.17 243.88,432.07 233.74,438.47 219.22,449.1 203.24,462.73 190.16,475.09 158.15,506.72 140.41,522.88 131.17,530.53 119.25,539.64 87.11,561.72 79.86,567.05 75.26,570.9 71.05,575.17 69.24,577.56 67.82,580.19"   /><polyline id="SvgjsPolyline4607" points="341.09,395.26 299.3,399.42 278.45,401.92 257.73,405.32 240.17,409.27 222.92,414.42 206.09,420.77 197.9,424.5 189.89,428.6 182.08,433.07 174.47,437.89 164.67,444.81 155.24,452.23 146.16,460.07 137.4,468.27 128.92,476.76 118.7,487.74 108.9,499.09 99.58,510.84 92.55,520.57 86,530.62 81.49,538.41 77.39,546.42 73.79,554.67 70.78,563.15 68.51,571.85 67.53,577.77"   /><polyline id="SvgjsPolyline4608" points="344.85,392.99 344.19,395.91 344.88,398.83 346.15,401.54 347.79,404.06 351.72,408.59 356.17,412.61 363.38,417.99 393.83,437.18 405.97,445.99 412.64,452.02 418.63,458.73 422.16,463.58 426.71,471.34 430.4,479.54 434.22,490.92 437.05,502.58 439.17,514.39 441.12,529.26 442.5,544.19 443.6,562.16 444.13,580.15"   /><polyline id="SvgjsPolyline4609" points="343.22,393.15 344.69,395.75 347.42,397 353.14,398.78 361.91,400.81 394.29,407.18 403.02,409.38 411.55,412.22 419.76,415.89 424.85,419.06 429.3,423.07 431.21,425.38 434.31,430.51 437.46,438.93 439.39,447.71 440.97,459.61 441.94,471.57 442.93,492.54 443.55,516.54 444.14,582.53"   /><polyline id="SvgjsPolyline4610" points="598.31,463.31 553.25,507.34 539.88,519.38 528.24,528.84 516.1,537.65 503.47,545.73 490.43,553.15 463.86,567.08 453.53,573.17 448.64,576.65 446.45,578.69 444.71,581.11"   /><polyline id="SvgjsPolyline4611" points="344.57,401.57 345.15,407.54 346.55,416.43 348.54,425.21 350.2,430.97 354.33,442.24 358.01,450.45 362.21,458.41 368.67,468.51 377.94,480.3 388.14,491.29 411.39,514.71 419.29,523.73 426.48,533.34 432.71,543.59 437.77,554.46 441.54,565.85 442.88,571.69 443.8,577.62"   /><polyline id="SvgjsPolyline4612" points="344.35,404.42 344.46,557.42 344.73,566.41 345.17,569.38 346.53,572.04 348.84,573.94 351.54,575.22 354.4,576.12 360.28,577.31 366.23,578.07 384.18,579.4 435.12,581.8 441.11,582.25 443.86,582.96"   /><polyline id="SvgjsPolyline4613" points="343.81,408.5 342.64,420.44 340.89,432.31 338.55,444.08 336.36,452.81 333.77,461.43 330.74,469.9 327.22,478.18 321.92,488.95 317.4,496.73 312.37,504.19 306.86,511.31 300.9,518.04 294.51,524.38 287.75,530.32 278.23,537.62 270.75,542.63 263.03,547.24 255.08,551.46 244.18,556.49 235.82,559.82 224.47,563.7 215.83,566.22 195.37,570.95 171.69,574.79 147.83,577.4 123.9,579.21 69.99,582.29"   /><polyline id="SvgjsPolyline4614" points="344.33,392.1 344,431.09 342.93,467.08 341.41,491.03 340.12,502.96 338.73,511.85 336.77,520.63 335.01,526.36 332.76,531.93 328.59,539.9 323.2,547.08 318.87,551.23 314.07,554.82 308.92,557.91 300.78,561.73 292.33,564.83 283.7,567.38 272.03,570.17 260.25,572.43 236.49,575.8 206.61,578.52 176.66,580.18 134.68,581.48 68.69,582.65"   /><polyline id="SvgjsPolyline4615" points="0.39,424.94 20.97,437.27 28.3,442.49 35.15,448.31 39.35,452.6 44.94,459.64 48.16,464.71 52.21,472.74 55.44,481.13 58,489.76 60.61,501.47 62.56,513.31 64.35,528.2 65.82,546.14 66.74,564.12 67.13,579.11"   /><polyline id="SvgjsPolyline4616" points="344.14,390.04 343.42,387.13 341.22,381.55 338.37,376.28 333.39,368.78 324.16,356.97 312.12,343.59 268.3,298.33 249.07,279.38 240.22,271.27 231.1,263.47 221.65,256.08 211.84,249.18 199.03,241.37 185.67,234.56 171.83,228.78 157.62,224 143.13,220.1 128.48,216.92 110.75,213.8 78.13,208.78 69.34,206.88"   /><polyline id="SvgjsPolyline4617" points="344.23,388.08 343.49,379.11 341.76,367.23 339.96,358.42 337.06,346.77 333.52,335.31 330.39,326.87 326.85,318.6 321.43,307.89 316.86,300.14 311.86,292.66 304.55,283.15 298.62,276.38 292.34,269.93 283.47,261.85 276.48,256.19 266.74,249.18 259.15,244.35 251.34,239.88 243.32,235.8 232.35,230.94 223.94,227.72 212.54,223.98 200.97,220.82 192.2,218.79 171.55,215.01 144.76,211.67 123.83,209.87 69.96,206.27"   /><polyline id="SvgjsPolyline4618" points="345.25,396.6 344.29,393.78 344.41,390.78 344.9,387.82 346.67,382.09 350.69,374.05 355.85,366.69 361.79,359.93 370.32,351.49 397.59,327.99 406.26,319.7 412.32,313.05 416.07,308.37 419.57,303.49 424.28,295.83 428.34,287.8 431.78,279.48 434.66,270.96 437.06,262.28 439.61,250.56 441.55,238.72 442.96,226.8 443.86,214.84"   /><polyline id="SvgjsPolyline4619" points="344.43,385.17 345.12,367.18 346.44,349.23 348.12,334.32 350.38,319.5 352.84,307.75 356.15,296.22 359.37,287.82 363.38,279.77 366.53,274.67 370.09,269.83 374.02,265.3 380.52,259.08 385.17,255.29 392.48,250.05 417.93,234.17 425.38,229.13 430.16,225.49 434.66,221.53 438.74,217.13 442.1,212.17 443.33,209.45"   /><polyline id="SvgjsPolyline4620" points="344.33,393.42 344.78,381.43 345.92,369.49 347.7,357.62 349.49,348.8 351.73,340.09 354.48,331.52 357.81,323.16 361.78,315.08 369.67,302.33 375.06,295.13 378.94,290.55 389.38,279.79 409.36,261.63 418.04,253.35 424.21,246.8 429.91,239.83 434.97,232.39 439.2,224.45 442.36,216.04 443.71,210.2 444.04,207.22"   /><polyline id="SvgjsPolyline4621" points="345.07,384.87 347.15,376.12 350.24,367.67 354.2,359.59 360.63,349.46 366.14,342.35 374.14,333.41 399.77,308.14 410.01,297.18 419.27,285.39 425.68,275.25 428.52,269.96 432.29,261.79 437.34,247.67 440.98,233.13 442.54,224.27 443.62,215.33"   /><polyline id="SvgjsPolyline4622" points="343.66,394.25 436.66,394.39 439.56,395.04 443.03,399.79 443.82,405.72 444.03,414.71 444.15,540.71"   /><polyline id="SvgjsPolyline4623" points="599.6,411.35 585.36,416.08 571.52,421.84 560.79,427.22 547.91,434.89 535.63,443.5 523.95,452.92 512.86,463 500.25,475.85 490.32,487.09 479.17,501.21 468.99,516.06 461.43,529.01 453.63,545.22 449.34,556.43 446.11,567.98 444.99,573.87 444.29,579.83"   /><polyline id="SvgjsPolyline4624" points="597.36,394.08 516.36,393.57 474.37,392.59 465.39,391.99 459.45,391.22 456.53,390.53 453.76,389.39 451.4,387.55 447.87,382.73 446.75,379.95 445.61,374.07 444.92,365.09 444.34,332.1 444.15,224.1"   /><polyline id="SvgjsPolyline4625" points="344.8,14.81 344.32,17.77 344.64,23.76 345.59,29.68 347.02,35.5 348.88,41.21 351.12,46.77 355.17,54.81 358.27,59.94 365.29,69.67 373.13,78.75 400.66,106.37 410.68,117.52 419.67,129.52 424.43,137.16 427.3,142.43 433.46,156.1 438.2,170.32 441.62,184.92 443.47,196.78 444.04,202.75"   /><polyline id="SvgjsPolyline4626" points="599.39,342.04 587.83,332.49 576.65,322.48 538.12,284.65 520.52,268.34 509.05,258.68 497.16,249.54 484.92,240.87 465.03,227.43 455.39,220.29 450.89,216.33 446.88,211.87 445.28,209.34 444.49,206.6"   /><polyline id="SvgjsPolyline4627" points="599.9,310.68 574.34,285.33 558.98,271.01 545.16,259.48 530.57,248.95 517.79,241.1 504.5,234.14 488.06,226.84 454.64,213.47 449.3,210.72 446.8,209.07 444.73,206.96"   /><polyline id="SvgjsPolyline4628" points="342.1,395.38 344.61,393.78 344.02,390.84 342.56,388.22 340.73,385.85 336.52,381.58 327.19,374.04 293.08,349.53 276.7,336.4 267.67,328.49 256.7,318.26 226.85,288.72 211.62,274.26 197.99,262.51 183.61,251.69 173.56,245.14 163.13,239.2 152.37,233.91 141.31,229.25 132.86,226.15 121.44,222.46 107,218.42 80.85,211.69 75.1,209.96 69.53,207.76"   /><polyline id="SvgjsPolyline4629" points="341.29,391.69 332.68,389.08 294.87,379.55 283.39,376.05 274.89,373.09 263.71,368.74 252.77,363.81 239.55,356.73 229.38,350.36 214.84,339.76 198.84,326.17 185.74,313.82 151.58,280.1 133.8,263.99 117.48,250.78 88.44,229.5 79.04,222.05 72.58,215.79 69,210.98 67.73,208.28"   /><polyline id="SvgjsPolyline4630" points="342.67,389.88 338.05,386.06 333,382.82 303.97,367.13 291.01,359.59 278.47,351.36 266.43,342.42 254.9,332.83 241.56,320.74 205.21,284.97 192.07,272.67 178.35,261.02 163.87,250.34 148.55,240.9 132.48,232.8 113.03,224.9 79.04,213.04 73.52,210.69 68.42,207.58"   /><polyline id="SvgjsPolyline4631" points="340.2,393.87 286.24,392.01 253.29,390.21 220.43,387.12 196.69,383.67 184.91,381.39 173.22,378.65 161.68,375.39 153.14,372.55 141.96,368.18 133.79,364.42 125.85,360.19 118.21,355.43 113.32,351.95 106.39,346.21 102.08,342.04 96.17,335.25 92.63,330.41 87.95,322.73 84,314.65 80.71,306.27 77.99,297.7 75.74,288.98 73.32,277.23 71.44,265.38 69.65,250.49 68.59,238.53 67.66,223.56 67.18,208.57"   /><polyline id="SvgjsPolyline4632" points="346.15,394.7 343.56,393.21 337.73,391.83 302.2,386.03 284.51,382.69 269.92,379.24 258.39,375.9 244.26,370.88 230.55,364.81 217.31,357.76 204.58,349.84 197.22,344.65 187.74,337.3 178.58,329.54 169.71,321.46 156.78,308.95 125.06,277.02 93.03,245.42 82.82,234.43 75.39,225.01 70.72,217.33 68.37,211.82 67.58,208.92"   /><polyline id="SvgjsPolyline4633" points="341.7,393.66 290.81,390.35 266.9,388.22 243.11,385.1 222.49,381.15 210.85,378.22 202.23,375.65 185.34,369.45 174.38,364.55 166.35,360.5 155.95,354.52 148.4,349.61 138.71,342.54 131.73,336.85 122.84,328.8 114.46,320.21 108.53,313.44 101.15,303.98 94.43,294.05 89.84,286.3 84.36,275.63 80.74,267.39 77.53,258.99 73.89,247.55 71.64,238.84 69.27,227.08 67.7,215.18 67.28,206.22"   /><polyline id="SvgjsPolyline4634" points="340.53,394.27 208.53,394.67 163.53,395.16 124.54,396.03 103.56,396.93 88.62,398.2 79.78,399.86 76.95,400.84 74.31,402.26 72.11,404.28 70.56,406.84 69.58,409.68 68.56,415.58 67.93,424.56 67.32,463.55 67.16,571.55"   /><polyline id="SvgjsPolyline4635" points="346.33,394.11 337.4,395.16 295.48,397.71 268.57,399.93 244.75,402.88 224.09,406.62 215.33,408.65 203.76,411.84 195.2,414.62 183.99,418.9 175.77,422.56 165.03,427.91 157.19,432.33 149.57,437.11 142.18,442.25 132.71,449.62 123.72,457.56 117.31,463.88 111.21,470.49 103.6,479.77 98.31,487.05 91.88,497.18 86.17,507.73 82.38,515.9 79.02,524.24 75.17,535.61 72.03,547.19 69.61,558.94 67.92,570.82 67.24,579.79"   /><polyline id="SvgjsPolyline4636" points="339.44,394.46 276.46,395.64 240.48,396.88 210.53,398.7 183.67,401.37 159.95,405.03 148.21,407.5 133.68,411.22 122.27,414.94 113.94,418.34 105.93,422.43 100.86,425.63 96.09,429.27 91.72,433.38 87.84,437.95 84.48,442.92 81.66,448.21 79.31,453.73 77.38,459.41 75.09,468.11 73.35,476.94 72.01,485.84 69.64,509.72 68.16,536.68 67.2,575.66"   /><polyline id="SvgjsPolyline4637" points="599.48,446.81 587.93,456.39 576.78,466.42 538.25,504.25 520.63,520.54 509.13,530.17 497.22,539.28 484.95,547.91 465.01,561.28 455.35,568.38 450.82,572.32 446.82,576.78 445.22,579.31 444.53,582"   /><polyline id="SvgjsPolyline4638" points="597.92,480.23 574.49,503.47 559.12,517.77 545.28,529.28 530.67,539.78 517.87,547.6 504.57,554.53 490.88,560.65 454.65,575.08 449.31,577.8 446.8,579.45 444.72,581.55"   /><polyline id="SvgjsPolyline4639" points="344.58,405.18 345.35,417.15 346.6,429.09 348.37,440.95 350.77,452.71 353.08,461.41 355.93,469.95 360.45,481.06 364.54,489.07 369.31,496.7 372.86,501.53 376.68,506.16 382.85,512.71 393.98,522.77 419.43,543.76 425.96,549.95 430.06,554.34 435.62,561.4 438.82,566.48 442.53,574.66 443.94,580.48"   /><polyline id="SvgjsPolyline4640" points="344.45,405.56 345.13,426.55 346.22,444.51 347.61,459.45 349.65,474.31 352,486.07 354.38,494.75 358.5,506.02 362.43,514.11 365.57,519.22 369.16,524.02 373.16,528.49 379.82,534.54 384.6,538.17 392.11,543.12 420.86,559.32 430.91,565.87 435.58,569.63 439.78,573.9 443.07,578.9 443.86,581.71"   /><polyline id="SvgjsPolyline4641" points="344.55,420.69 345.17,447.69 346.05,468.67 347.33,486.62 348.67,498.54 350.72,510.37 353.02,519.06 355.11,524.68 357.61,530.14 360.56,535.36 364.14,540.17 368.32,544.47 373,548.22 380.67,552.91 386.06,555.55 394.37,559.01 419.81,568.03 430.95,572.48 438.87,576.74 441.27,578.54 443.29,580.74"   /><polyline id="SvgjsPolyline4642" points="344.35,400.37 344.79,466.37 345.28,490.37 346.18,511.35 347.18,523.3 348.45,532.21 350.65,540.93 353.03,546.43 354.59,548.99 358.23,553.76 360.29,555.94 365,559.64 373,563.74 381.51,566.65 390.22,568.89 431.37,577.3 437.15,578.91 442.67,581.22"   /><polyline id="SvgjsPolyline4643" points="344.34,400.71 344.17,451.71 343.66,493.7 342.84,517.69 341.64,532.64 340.19,541.52 338.57,547.29 337.45,550.08 334.4,555.23 330.51,559.79 325.93,563.65 320.72,566.61 315.16,568.86 309.42,570.63 300.66,572.66 282.89,575.49 256.02,578.15 223.08,580.09 187.1,581.29 142.11,582.06 70.11,582.68"   /><polyline id="SvgjsPolyline4644" points="344.35,597.26 344.36,594.26 343.82,591.32 345.12,588.68 342.76,586.91 347.8,584 353.76,583.44 365.76,583.17 440.76,582.79"   /><polyline id="SvgjsPolyline4645" points="452.08,598.91 447.16,591.38 444.73,585.91"   /><polyline id="SvgjsPolyline4646" points="0.73,412.53 14.84,417.63 23.17,421.03 31.26,424.98 38.85,429.79 43.47,433.61 47.58,437.98 51.09,442.85 55.2,450.84 58.17,459.33 60.31,468.07 61.88,476.93 63.4,488.83 64.91,506.77 65.88,524.74 67.03,566.72"   /><polyline id="SvgjsPolyline4647" points="343.92,386.98 342.83,381.08 340.36,372.43 337.13,364.03 333.28,355.9 328.95,348.01 324.21,340.36 315.71,328 308.47,318.43 300.89,309.13 291,297.85 280.72,286.93 272.19,278.49 263.38,270.35 254.24,262.57 244.76,255.22 234.9,248.38 222.04,240.66 214.06,236.51 205.89,232.74 189.09,226.29 171.82,221.22 154.25,217.32 136.5,214.33 115.67,211.67 76.88,207.62 68.01,206.16"   /><polyline id="SvgjsPolyline4648" points="344.2,382.2 342.68,352.25 340.18,328.38 338.3,316.53 335.95,304.76 333.76,296.03 331.06,287.45 327.74,279.09 325.13,273.69 320.54,265.95 317.02,261.09 313.13,256.52 306.69,250.24 302.05,246.45 294.65,241.32 286.87,236.81 278.79,232.84 270.5,229.35 259.19,225.33 250.57,222.74 238.95,219.77 227.21,217.3 215.38,215.24 188.6,211.83 158.7,209.45 128.74,207.97 68.77,205.94"   /><polyline id="SvgjsPolyline4649" points="344.22,385.69 343.61,373.7 342.27,358.76 340.72,346.86 338.69,335.04 336.06,323.33 333.61,314.67 330.69,306.16 327.23,297.85 323.17,289.82 318.49,282.14 315.03,277.24 309.33,270.28 303.16,263.73 296.6,257.57 289.62,251.89 282.29,246.68 274.65,241.92 266.75,237.6 255.9,232.48 247.56,229.1 239.08,226.08 227.6,222.59 207.17,217.77 183.49,213.87 156.65,210.94 126.73,208.87 75.78,206.5"   /><polyline id="SvgjsPolyline4650" points="344.38,376.25 345.15,310.25 345.74,292.26 346.96,271.3 348.26,259.37 349.87,250.52 352.51,241.93 355.23,236.59 358.94,231.89 363.56,228.07 368.78,225.13 374.33,222.86 382.95,220.27 391.72,218.25 430.05,211.09 435.88,209.66 441.55,207.72"   /><polyline id="SvgjsPolyline4651" points="344.35,389.05 344.78,362.05 345.51,341.06 346.77,320.1 348.22,305.17 349.95,293.3 352.52,281.58 355.31,273.03 359.16,264.9 363.97,257.3 367.76,252.66 372.05,248.47 379.21,243.03 384.33,239.89 392.31,235.74 419.83,223.81 430.62,218.55 435.75,215.45 440.46,211.74 442.46,209.51 443.78,206.9"   /><polyline id="SvgjsPolyline4652" points="598.43,394.7 529.43,395.77 502.45,396.74 484.49,397.87 472.57,399.21 463.77,401.08 458.25,403.41 453.36,406.87 451.28,409.02 449.66,411.54 448.46,414.29 446.95,420.09 445.83,429.02 445.14,440.99 444.67,458.99 444.26,512.99"   /><polyline id="SvgjsPolyline4653" points="597.41,424.59 586.78,430.15 579.04,434.75 571.52,439.68 561.81,446.74 552.47,454.26 543.44,462.16 523.96,480.86 484.37,521.87 472.17,535.1 464.33,544.19 456.99,553.67 452.03,561.18 447.83,569.13 444.87,577.62"   /><polyline id="SvgjsPolyline4654" points="599.02,402.75 581.29,405.83 560.83,410.57 543.64,415.88 529.69,421.39 516.23,427.99 503.42,435.79 498.53,439.27 491.51,444.9 482.84,453.19 475.1,462.35 469.99,469.76 466.93,474.91 461.6,485.66 456.31,499.69 452.28,514.13 448.73,531.78 446.27,549.61 444.54,570.53"   /><polyline id="SvgjsPolyline4655" points="597.76,406.67 580.31,411.06 566.05,415.72 552.18,421.41 538.79,428.17 526.01,436.01 511.41,446.53 500.04,456.31 489.5,466.98 479.91,478.5 471.39,490.84 464.03,503.91 459.01,514.8 453.78,528.86 449.66,543.28 446.62,557.96 444.68,572.83"   /><polyline id="SvgjsPolyline4656" points="597.39,382.08 579.86,378 562.66,372.71 548.7,367.24 535.19,360.72 522.25,353.15 509.97,344.54 498.47,334.92 487.88,324.3 478.34,312.74 471.56,302.84 464.22,289.77 458.14,276.06 453.25,261.88 449.45,247.37 446.18,229.68 444.54,214.77"   /><polyline id="SvgjsPolyline4657" points="599.9,388.85 579.03,386.48 558.31,383.09 537.82,378.51 520.59,373.32 506.64,367.82 498.55,363.88 493.32,360.94 485.81,355.98 481.09,352.28 476.65,348.24 472.55,343.87 468.82,339.17 465.48,334.19 462.53,328.96 459.96,323.54 455.81,312.29 452.06,297.77 448.99,280.04 446.92,262.16 445.17,238.23 444.25,214.25"   /><polyline id="SvgjsPolyline4658" points="599.83,391.73 569.89,390 548.97,388.11 528.15,385.41 510.45,382.12 495.9,378.51 487.34,375.73 481.77,373.5 476.38,370.87 471.25,367.75 466.53,364.06 464.37,361.98 462.37,359.75 458.87,354.88 454.87,346.83 452.9,341.16 451.36,335.37 449.16,323.57 447.17,305.69 445.83,284.73 444.79,254.75 444.27,224.75"   /><polyline id="SvgjsPolyline4659" points="599.96,393.22 566.97,392.41 537,391.13 513.05,389.48 495.16,387.54 483.32,385.58 477.48,384.22 471.75,382.45 463.57,378.71 460.99,377.18 456.4,373.34 452.88,368.5 451.55,365.81 449.58,360.15 447.78,351.34 446.45,339.41 445.45,321.44 444.81,297.45 444.15,210.45"   /><polyline id="SvgjsPolyline4660" points="344.28,18.9 344.36,15.91 339,13.23 327.64,9.39 298.9,0.77"   /><polyline id="SvgjsPolyline4661" points="342.76,15.88 344.63,18.19 350.46,19.61 365.28,21.86 398.02,26 406.9,27.45 415.69,29.38 421.42,31.15 426.89,33.6 431.77,37.07 433.83,39.25 435.57,41.69 438.12,47.11 440.34,55.82 441.55,64.74 442.47,76.7 443.62,115.68 444.15,199.68"   /><polyline id="SvgjsPolyline4662" points="345.37,17.21 343.49,19.53 340.93,21.09 335.46,23.56 295.98,37.86 279.39,44.84 263.38,53.05 250.61,60.92 236.05,71.5 222.26,83.07 209.08,95.32 170.56,133.16 159.42,143.21 147.85,152.75 135.77,161.64 120.63,171.36 78.58,194.5 71.28,199.75 69.17,201.87 67.6,204.38"   /><polyline id="SvgjsPolyline4663" points="344.28,16.7 344.38,19.69 343.82,22.64 342.89,25.49 340.31,30.9 337.12,35.99 331.82,43.26 322.09,54.67 311.74,65.52 263.19,114.55 246.07,131.37 237.25,139.5 228.15,147.33 218.73,154.77 211.43,160.03 198.79,168.1 185.58,175.19 171.86,181.24 157.74,186.29 143.32,190.43 128.71,193.81 113.98,196.62 78.45,202.47 69.68,204.45"   /><polyline id="SvgjsPolyline4664" points="345.96,23.25 347.79,25.63 352.12,29.78 361.92,36.68 369.64,41.3 395.93,55.76 403.5,60.62 408.33,64.18 415.06,70.14 419.12,74.56 422.76,79.33 427.38,87.04 431.05,95.25 434.74,106.67 437.41,118.37 439.37,130.2 441.44,148.08 442.81,166.03 443.79,187.01 444.14,205"   /><polyline id="SvgjsPolyline4665" points="344.29,15.53 344.11,27.53 343.24,39.5 341.86,51.42 339.55,66.24 337.16,77.99 334.17,89.62 330.47,101.03 327.15,109.39 323.31,117.53 318.91,125.38 313.94,132.88 308.4,139.97 302.34,146.62 295.81,152.8 288.86,158.53 281.56,163.79 273.96,168.61 266.11,173.01 258.04,176.99 247.01,181.7 235.71,185.75 227.11,188.38 215.49,191.4 203.76,193.93 180.08,197.77 153.23,200.65 129.3,202.36 69.38,205.41"   /><polyline id="SvgjsPolyline4666" points="344.34,17.16 344.35,20.16 344.87,23.11 346.84,28.78 349.65,34.07 354.94,41.34 361.08,47.92 367.72,53.99 395.7,76.63 406.81,86.71 412.92,93.31 416.68,97.98 421.79,105.39 424.81,110.58 428.76,118.66 433.05,129.86 435.63,138.49 438.37,150.16 440.49,161.98 442.41,176.85 443.46,188.8 444.13,203.79"   /><polyline id="SvgjsPolyline4667" points="344.46,24.34 345.02,33.33 346.33,45.25 348.28,57.09 350.21,65.88 353.41,77.45 356.3,85.97 359.73,94.29 363.76,102.33 368.42,110.03 371.86,114.94 375.56,119.67 381.51,126.42 392.23,136.9 416.84,158.89 423.18,165.27 429.09,172.06 434.38,179.33 438.85,187.14 442.23,195.47 443.68,201.29 444.03,204.26"   /><polyline id="SvgjsPolyline4668" points="345.15,30.49 347.15,42.32 350.21,53.92 354.35,65.18 359.61,75.96 365.95,86.14 375.15,97.98 385.16,109.15 412.46,137 420.21,146.16 427.2,155.9 431.81,163.63 434.53,168.98 439.08,180.08 442.34,191.62 443.42,197.52 444.06,203.48"   /><polyline id="SvgjsPolyline4669" points="599.67,356.44 589.6,349.92 579.84,342.95 570.43,335.49 561.35,327.65 546.05,313.27 505.53,273.18 465.67,236.76 457.2,228.26 451.39,221.39 446.57,213.81 444.5,208.19"   /><polyline id="SvgjsPolyline4670" points="599.87,293.73 580.41,275.02 564.49,261.33 550.02,250.63 534.72,241.16 521.36,234.34 504.76,227.41 490.58,222.51 456.13,212.08 450.5,210.01 445.23,207.19"   /><polyline id="SvgjsPolyline4671" points="331.55,393.94 271.56,392.98 232.58,391.73 199.64,389.75 172.78,387.06 149.07,383.35 137.32,380.93 125.69,377.97 117.11,375.25 108.74,371.94 100.74,367.84 95.73,364.55 91.11,360.72 87,356.36 81.96,348.91 79.34,343.52 77.23,337.9 75.54,332.15 73.59,323.36 72.15,314.48 70.74,302.56 68.99,278.63 67.73,245.66 67.16,206.66"   /><polyline id="SvgjsPolyline4672" points="339.34,393.7 288.39,391.45 261.45,389.7 234.59,386.96 210.89,383.22 199.15,380.73 190.43,378.52 178.93,375.08 170.44,372.08 162.1,368.71 153.93,364.94 145.96,360.76 138.23,356.15 130.77,351.12 123.63,345.64 116.85,339.73 108.36,331.25 102.45,324.47 97.04,317.27 93.74,312.27 89.23,304.48 85.26,296.4 81.8,288.1 78.81,279.61 75.47,268.08 72.78,256.39 70.64,244.59 69,232.7 67.84,220.76"   /><polyline id="SvgjsPolyline4673" points="1.63,215.57 13.5,213.84 52.22,209.2 61.1,207.76 64.03,207.11 66.74,205.99"   /><polyline id="SvgjsPolyline4674" points="336.48,394.16 225.49,393.18 189.5,392.24 159.53,390.85 132.62,388.75 111.81,385.96 97.17,382.69 91.48,380.8 86.05,378.27 81.15,374.83 79.02,372.71 75.63,367.78 74.36,365.06 72.47,359.37 70.32,347.57 69.02,332.63 68.15,311.65 67.25,239.66"   /><polyline id="SvgjsPolyline4675" points="340.21,394.34 274.21,394.92 226.22,395.82 190.24,397.21 160.32,399.26 136.46,401.9 124.62,403.79 115.8,405.61 107.12,407.96 98.62,410.91 93.15,413.38 88.03,416.5 83.47,420.38 81.47,422.62 79.7,425.04 76.81,430.29 74.68,435.9 73.13,441.69 71.09,453.51 69.44,471.43 68.32,495.41 67.58,528.4 67.17,576.4"   /><polyline id="SvgjsPolyline4676" points="339.9,394.24 189.9,393.92 111.91,392.87 96.92,392.25 84.98,391.11 79.16,389.69 73.84,386.95 71.64,384.93 70.14,382.34 69.24,379.48 68.34,373.56 67.79,364.57 67.3,328.58 67.16,220.58"   /><polyline id="SvgjsPolyline4677" points="0.34,394.35 57.33,394.78 60.31,395.13 65.28,398.32 66.36,401.08 66.88,407.05 67.09,422.05 67.16,572.05"   /><polyline id="SvgjsPolyline4678" points="599.58,433.78 592.09,438.76 582.43,445.88 564.07,461.33 550.94,473.63 521.15,503.25 506,517.78 492.65,529.86 463.27,555.5 456.82,561.78 450.9,568.55 447.49,573.48 444.93,578.9"   /><polyline id="SvgjsPolyline4679" points="597.91,497.18 580.57,513.77 564.62,527.43 550.14,538.11 542.58,543 534.81,547.54 521.44,554.33 504.82,561.23 487.77,567 456.16,576.45 450.52,578.51 445.24,581.31"   /><polyline id="SvgjsPolyline4680" points="344.09,542.54 343.77,554.54 343.29,560.52 342.79,563.48 341.86,566.32 340.25,568.85 338.03,570.86 335.46,572.39 329.94,574.73 324.16,576.33 318.25,577.38 306.33,578.72 288.37,579.9 240.4,581.49 174.4,582.33 69.4,582.72"   /><polyline id="SvgjsPolyline4681" points="334.85,598.91 329.85,595.61 327.17,594.26 321.52,592.25 315.69,590.83 306.82,589.31 297.89,588.22 273.97,586.31 241,584.79 202.02,583.81 154.02,583.22 82.02,582.85"   /><polyline id="SvgjsPolyline4682" points="353.78,598.82 358.92,595.72 361.65,594.48 367.36,592.66 376.17,590.86 391.05,588.96 429.89,585.38 441.76,583.66"   /><polyline id="SvgjsPolyline4683" points="487.15,599.71 455.78,589.45 450.22,587.21 447.53,585.87 445.09,584.16"   /><polyline id="SvgjsPolyline4684" points="434.88,599.71 440.39,592.61 443.13,587.28 443.91,584.4"   /><polyline id="SvgjsPolyline4685" points="1.42,403.12 16.17,405.81 27.9,408.38 36.54,410.87 42.13,413.06 47.41,415.88 52.14,419.57 55.97,424.16 58.8,429.45 60.79,435.1 62.74,443.88 63.95,452.8 64.97,464.76 66.31,497.73 67.02,548.72"   /><polyline id="SvgjsPolyline4686" points="344.31,384.27 343.6,345.28 342.23,315.31 340.37,294.4 339.13,285.48 337.44,276.64 335.96,270.83 333.15,262.28 330.86,256.73 328.07,251.43 324.7,246.47 320.75,241.95 316.3,237.94 311.43,234.44 306.25,231.41 298.11,227.58 289.68,224.44 281.07,221.82 269.42,218.93 257.66,216.58 245.82,214.64 230.94,212.69 201.07,209.97 168.12,208.19 135.13,207.15 69.15,205.87"   /><polyline id="SvgjsPolyline4687" points="344.24,352.09 343.91,313.09 343.24,283.1 342.28,265.13 340.94,253.2 339.8,247.31 338.26,241.52 336.2,235.89 334.84,233.21 331.32,228.37 329.16,226.28 324.26,222.85 318.85,220.26 313.19,218.29 307.39,216.74 298.58,214.92 277.78,212.04 247.88,209.55 217.92,208.06 184.94,207.08 142.94,206.41 67.95,205.78"   /><polyline id="SvgjsPolyline4688" points="344.36,346.46 344.58,268.46 345.05,244.46 345.65,235.48 346.62,229.57 348.45,223.86 349.76,221.16 351.57,218.78 353.86,216.85 356.48,215.38 362.15,213.45 368.02,212.25 382.92,210.51 430.82,207.44 442.75,206.19"   /><polyline id="SvgjsPolyline4689" points="598.02,398.35 574.12,400.48 553.3,403.21 535.6,406.46 515.21,411.49 500.99,416.25 492.72,419.78 487.37,422.49 482.2,425.55 477.29,428.99 472.7,432.85 468.52,437.15 463.14,444.35 460.17,449.57 457.67,455.02 453.83,466.38 451.14,478.07 448.45,495.87 446.72,513.78 445.14,540.73 444.38,564.72"   /><polyline id="SvgjsPolyline4690" points="598.25,396.27 568.28,397.66 544.35,399.44 520.5,402.15 502.77,405.19 488.24,408.89 479.73,411.82 474.22,414.21 466.51,418.82 461.99,422.76 459.99,424.99 458.19,427.39 455.18,432.57 451.97,440.97 449.85,449.71 447.71,464.56 446.28,482.5 445.24,506.47 444.55,536.47 444.17,575.46"   /><polyline id="SvgjsPolyline4691" points="599.76,370.32 588.71,365.65 577.96,360.31 565.03,352.73 555.1,345.98 545.55,338.72 536.34,331.03 525.26,320.92 512.45,308.28 498.02,293.03 484.07,277.33 472.62,263.44 463.66,251.41 457.12,241.36 451.39,230.82 446.88,219.71 444.68,210.99"   /><polyline id="SvgjsPolyline4692" points="597.55,377.26 583.31,372.56 569.45,366.83 556.09,360.03 545.81,353.84 531.06,343.53 519.37,334.13 508.28,324.04 495.72,311.14 485.91,299.8 475.03,285.47 466.83,272.91 459.58,259.78 453.43,246.11 448.58,231.92 445.79,220.25 444.25,208.36"   /><polyline id="SvgjsPolyline4693" points="597.69,386.34 576.97,382.9 559.44,378.87 542.24,373.57 528.31,368.02 514.9,361.31 502.21,353.31 490.47,343.98 481.83,335.67 474.16,326.45 470.73,321.53 466.12,313.8 460.92,302.99 455.8,288.9 451.92,274.41 448.52,256.74 445.86,235.91 444.52,217.96"   /><polyline id="SvgjsPolyline4694" points="344.34,14.33 344.03,2.33"   /><polyline id="SvgjsPolyline4695" points="345.77,17.26 225.78,18.35 186.79,19.36 153.83,20.9 126.91,23.03 114.99,24.43 106.1,25.83 97.31,27.73 91.56,29.45 86.04,31.79 83.44,33.28 78.81,37.08 76.91,39.39 74.02,44.63 71.46,53.25 69.74,65.12 68.55,83.08 67.85,107.07 67.16,203.06"   /><polyline id="SvgjsPolyline4696" points="347.23,13.33 352.65,10.77 361.13,7.76 387.05,0.23"   /><polyline id="SvgjsPolyline4697" points="345.77,16.51 357.7,15.23 399.59,12.18 417.47,10.11 423.35,8.95 429.09,7.21 431.82,5.97 434.35,4.36 436.54,2.32"   /><polyline id="SvgjsPolyline4698" points="346.08,16.42 343.81,18.36 345.73,20.65 348.18,22.38 353.52,25.12 364.74,29.36 396.1,39.61 404.46,42.95 412.5,46.98 417.54,50.23 422.17,54.05 426.23,58.46 429.63,63.4 432.37,68.73 435.43,77.19 437.58,85.92 439.54,97.76 441.14,112.67 442.35,130.63 443.78,172.61"   /><polyline id="SvgjsPolyline4699" points="342.23,17.15 354.21,17.85 405.19,19.22 423.15,20.36 432.02,21.85 434.91,22.65 437.64,23.87 439.93,25.79 441.45,28.36 442.32,31.23 443.15,37.17 443.77,52.15 444.15,190.15"   /><polyline id="SvgjsPolyline4700" points="599.12,81.03 583.78,95.37 549.6,129.07 538.54,139.2 527.07,148.87 512.68,159.67 500.16,167.94 487.28,175.61 463.75,188.86 453.64,195.31 448.87,198.95 446.72,201.05 444.96,203.45"   /><polyline id="SvgjsPolyline4701" points="342.71,22.54 338.6,26.9 331.55,32.48 294,57.28 281.88,66.11 272.49,73.58 263.37,81.38 252.32,91.52 220.29,123.13 205.05,137.58 189.05,151.18 174.52,161.78 164.35,168.16 156.49,172.54 148.44,176.56 137.45,181.38 117.69,188.47 77.39,200.29 71.78,202.41 69.11,203.77"   /><polyline id="SvgjsPolyline4702" points="344.74,17.91 341.9,18.89 336.05,20.23 303.55,25.92 288.84,28.83 274.23,32.24 259.8,36.32 245.65,41.29 231.89,47.26 218.63,54.26 205.94,62.25 198.61,67.47 189.15,74.86 173.36,88.7 162.52,99.07 126.47,135.14 87.75,172.77 79.7,181.67 75.98,186.38 72.59,191.33 69.72,196.59 68.57,199.36 67.69,202.23 67.46,205.08"   /><polyline id="SvgjsPolyline4703" points="343.48,16.07 344.61,18.84 342.67,21.13 337.8,24.62 329.89,28.91 302.8,41.81 289.54,48.81 274.19,58.2 259.61,68.75 247.98,78.22 236.77,88.19 225.92,98.54 198.22,126 185.1,138.32 171.41,150 156.96,160.74 144.3,168.77 128.42,177.23 111.97,184.53 78.48,197.74 73.1,200.39 70.54,201.95 68.24,203.86"   /><polyline id="SvgjsPolyline4704" points="342.89,19.13 337.23,21.11 331.44,22.69 296.5,31.32 276.46,37.59 265.27,41.93 254.36,46.92 243.78,52.59 233.58,58.89 216.55,71.17 200.5,84.71 185.24,99.13 153.23,130.76 137.73,144.93 126.23,154.56 116.76,161.93 87.58,183.01 80.47,188.52 73.81,194.57 69.95,199.15 68.4,201.72"   /><polyline id="SvgjsPolyline4705" points="344.11,22.98 343.16,28.9 340.86,37.6 337.75,46.04 334.01,54.23 329.76,62.16 323.54,72.42 316.83,82.37 309.67,91.99 302.14,101.34 292.32,112.67 282.08,123.63 273.59,132.11 264.81,140.29 255.71,148.12 246.27,155.52 236.45,162.42 223.64,170.22 215.68,174.42 207.54,178.25 190.78,184.8 173.54,189.96 155.99,193.94 135.28,197.42 117.43,199.69 81.61,203.36 69.72,204.93"   /><polyline id="SvgjsPolyline4706" points="343.71,21.95 342.39,24.64 338.95,29.54 334.94,34 330.63,38.18 321.58,46.06 298.42,65.13 282.64,78.99 265.25,95.53 233.32,127.23 220.15,139.5 206.39,151.1 191.86,161.71 181.7,168.1 171.17,173.85 160.31,178.95 146.34,184.41 134.93,188.12 123.37,191.33 108.78,194.81 79.46,201.14 70.8,203.58 68.08,204.83"   /><polyline id="SvgjsPolyline4707" points="344.35,23.96 345.26,80.95 346.26,104.93 347.52,122.88 348.86,134.8 350.95,146.62 353.37,155.28 356.97,163.52 360.27,168.52 364.31,172.95 369,176.69 376.81,181.14 385.12,184.57 393.67,187.38 419.72,194.5 431.19,198.01 436.78,200.19 442.02,203.08"   /><polyline id="SvgjsPolyline4708" points="344.2,23.5 343.32,32.45 341.88,41.33 339.2,53.03 336.64,61.66 332.53,72.93 328.92,81.17 323.43,91.84 318.82,99.57 312.22,109.59 305.03,119.19 299.26,126.1 291.11,134.9 282.47,143.22 273.37,151.04 263.83,158.33 256.4,163.41 248.75,168.15 240.89,172.52 232.83,176.53 224.59,180.16 213.38,184.42 204.82,187.21 196.17,189.67 184.5,192.48 163.86,196.33 143.05,199.1 122.14,201.13 80.26,204.18 68.32,205.4"   /><polyline id="SvgjsPolyline4709" points="344.34,21.83 343.34,54.81 342.41,69.78 341.06,84.72 339.58,96.63 337.57,108.46 335.59,117.24 333.15,125.9 330.21,134.4 327.85,139.92 323.59,147.84 320.23,152.81 316.47,157.48 312.31,161.81 307.81,165.77 300.54,171.07 292.8,175.65 284.72,179.61 276.4,183.05 267.92,186.05 259.31,188.67 247.69,191.66 235.95,194.15 221.17,196.67 194.37,199.94 164.46,202.22 131.49,203.73 71.52,205.46"   /><polyline id="SvgjsPolyline4710" points="344.35,16.39 344.69,34.39 345.73,52.36 347.15,67.29 349.22,82.14 351.55,93.91 354.71,105.49 357.8,113.94 362.94,124.77 365.96,129.96 371.17,137.29 375.08,141.84 381.49,148.15 386.06,152.05 393.22,157.5 420.48,176.09 427.59,181.6 432.06,185.6 436.21,189.93 439.85,194.7 442.71,199.96 443.67,202.8"   /><polyline id="SvgjsPolyline4711" points="599.67,276.7 583.85,262.9 569.5,252.04 554.31,242.4 546.4,238.1 538.31,234.17 524.45,228.44 507.36,222.78 489.97,218.18 454.87,210.17 446.31,207.41"   /><polyline id="SvgjsPolyline4712" points="1.03,228.42 15.21,223.56 52.89,213.49 61.31,210.34 63.97,208.96 66.33,207.14"   /><polyline id="SvgjsPolyline4713" points="2.58,203.26 65.53,205.51"   /><polyline id="SvgjsPolyline4714" points="2.33,391.77 32.28,389.93 41.21,388.88 47.1,387.74 52.76,385.78 55.33,384.24 59.79,380.25 61.56,377.83 62.85,375.13 64.43,369.35 65.28,363.41 66.43,342.44 66.96,300.45 67.16,207.45"   /><polyline id="SvgjsPolyline4715" points="1.17,321.07 22.24,299.72 30.44,290.96 39.95,279.37 46.73,269.46 51.22,261.67 53.92,256.31 59.81,242.52 62.58,233.96 64.09,228.16 65.86,219.33 66.67,213.39"   /><polyline id="SvgjsPolyline4716" points="599.83,512.1 583.99,525.89 569.62,536.72 554.41,546.32 546.49,550.6 538.38,554.51 524.51,560.21 507.42,565.83 490.01,570.41 457.81,577.63 452,579.14 446.34,581.09"   /><polyline id="SvgjsPolyline4717" points="293.74,599.86 279.25,595.98 261.58,592.56 240.78,589.68 219.88,587.65 195.94,586.03 168.97,584.84 138.98,584.01 87.98,583.18"   /><polyline id="SvgjsPolyline4718" points="404.05,599.78 421.31,594.67 429.84,591.8 438.09,588.22 440.67,586.69 442.98,584.79"   /><polyline id="SvgjsPolyline4719" points="558.95,599.76 538.48,595.07 517.77,591.6 496.94,588.97 458.14,585.05 446.25,583.46"   /><polyline id="SvgjsPolyline4720" points="344.34,368.03 344.24,266.03 343.67,233.04 343.08,227.07 342.43,224.14 341.25,221.38 339.39,219.04 334.65,215.38 329.16,212.99 323.33,211.58 317.41,210.65 299.48,209.02 272.51,207.76 236.53,206.85 191.53,206.27 68.53,205.77"   /><polyline id="SvgjsPolyline4721" points="346.64,208.42 344.15,207.33 350.09,206.51 362.08,206.14 443.08,205.77"   /><polyline id="SvgjsPolyline4722" points="342.35,18.48 344.64,16.59 335.92,14.42 303.36,9.04 288.62,6.27 273.97,3.05 262.37,0"   /><polyline id="SvgjsPolyline4723" points="344.94,16.98 336.02,15.82 291.19,11.91 270.34,9.43 246.68,5.43 226.23,0.68"   /><polyline id="SvgjsPolyline4724" points="342.14,18 294.33,22.2 273.46,24.52 252.7,27.73 232.17,32.12 220.59,35.24 212,37.95 195.22,44.43 187.06,48.23 179.08,52.4 171.31,56.93 163.75,61.81 154.01,68.82 144.65,76.33 135.67,84.29 127.05,92.63 118.79,101.34 110.9,110.38 103.41,119.75 96.37,129.47 91.42,136.98 85.34,147.33 79.92,158.03 76.35,166.29 72.32,177.59 69.93,186.27 68.17,195.09 67.22,204.03"   /><polyline id="SvgjsPolyline4725" points="341.99,16.87 282.06,14.07 264.1,12.86 246.17,11.23 231.28,9.44 216.46,7.13 201.73,4.31 187.15,0.78"   /><polyline id="SvgjsPolyline4726" points="342.31,17.59 288.36,19.85 258.42,21.7 231.55,24.37 207.83,28.03 199.01,29.81 184.43,33.31 172.9,36.65 164.38,39.55 153.23,43.98 145.07,47.76 134.5,53.45 126.88,58.23 119.58,63.49 112.66,69.24 106.19,75.49 100.25,82.25 94.89,89.48 91.66,94.54 87.33,102.42 83.6,110.61 80.41,119.02 76.88,130.49 74.71,139.23 72.34,150.99 70.47,162.84 68.72,177.74 67.76,189.7 67.18,204.68"   /><polyline id="SvgjsPolyline4727" points="338.91,16.98 260.93,15.05 236.96,13.9 216.01,12.41 195.12,10.26 174.35,7.23 156.68,3.81 142.14,0.13"   /><polyline id="SvgjsPolyline4728" points="336.56,17.58 279.58,18.8 243.6,20.18 210.68,22.46 186.84,25.16 172.02,27.49 160.25,29.82 139.93,35.11 131.37,37.89 122.97,41.11 114.81,44.89 107,49.36 102.07,52.78 97.45,56.6 93.2,60.84 89.39,65.47 86.05,70.45 83.18,75.72 80.74,81.2 77.79,89.7 75.51,98.4 73.72,107.22 70.86,128.02 68.73,154.93 67.48,184.91"   /><polyline id="SvgjsPolyline4729" points="344.64,17.23 272.64,16.64 230.65,15.96 194.67,14.82 167.71,13.34 143.8,11.28 120.01,8.13 111.17,6.46 102.43,4.3 96.73,2.44 91.21,0.08"   /><polyline id="SvgjsPolyline4730" points="346.55,17.26 163.55,16.74 121.55,16.14 94.57,15.16 82.62,14.16 76.72,13.04 73.91,12.02 71.44,10.34 69.75,7.89 68.82,5.04 68.31,2.08"   /><polyline id="SvgjsPolyline4731" points="346.85,17.17 268.87,18.28 238.87,18.99 202.91,20.52 172.99,22.77 146.2,26.09 134.39,28.17 125.6,30.11 116.92,32.48 111.23,34.39 105.67,36.64 97.67,40.75 92.61,43.98 88.01,47.82 84,52.28 82.26,54.72 79.3,59.94 76.98,65.47 75.18,71.19 73.77,77.02 71.37,91.82 69.32,115.73 68.14,142.7 67.33,181.69"   /><polyline id="SvgjsPolyline4732" points="314.63,17.29 185.63,17.58 113.63,18.47 98.64,19 86.68,19.9 80.77,20.94 77.94,21.92 75.41,23.51 71.42,27.97 70.1,30.66 68.76,36.49 67.99,45.46 67.34,81.45 67.16,195.45"   /><polyline id="SvgjsPolyline4733" points="0.79,103.5 9,112.25 26.01,129.18 34.29,137.87 42.08,146.99 47.45,154.21 53.82,164.37 58.05,172.32 60.53,177.78 64.47,189.11 65.86,194.94 66.82,200.86"   /><polyline id="SvgjsPolyline4734" points="599.66,17.26 461.66,17.31 449.67,17.57 447.33,15.89 446.17,13.16 444.94,7.3 444.51,1.32"   /><polyline id="SvgjsPolyline4735" points="598.98,17.85 556.99,18.49 527,19.35 503.03,20.5 482.11,22.3 470.27,24.27 464.52,25.94 461.75,27.1 459.14,28.58 456.78,30.42 452.68,34.79 451.01,37.28 449.71,39.98 447.95,45.71 446.52,54.6 445.58,66.56 444.57,105.54 444.15,204.54"   /><polyline id="SvgjsPolyline4736" points="598.32,66.46 584.26,77.69 573.03,87.63 560.01,100.07 530.16,129.61 512.47,145.82 496.25,159.16 464.87,182.32 455.52,189.83 451.16,193.95 447.28,198.52 445.68,201.06 444.54,203.81"   /><polyline id="SvgjsPolyline4737" points="598.46,97.92 570.76,125.38 557.66,137.73 544,149.45 529.61,160.24 516.99,168.36 506.53,174.23 490.34,182.08 462.7,193.75 454.52,197.51 449.28,200.42 446.83,202.15 444.8,204.31"   /><polyline id="SvgjsPolyline4738" points="346.25,16.96 343.45,18.03 337.53,19.04 298.81,23.63 280.99,26.19 263.3,29.5 248.72,33.03 231.56,38.44 217.66,44.07 204.24,50.77 191.4,58.51 181.53,65.34 171.97,72.59 162.75,80.27 151.65,90.35 138.8,102.96 128.38,113.75 116.14,126.94 104.19,140.41 89.05,159.02 83.79,166.32 78.89,173.87 74.51,181.73 70.82,189.94 68.9,195.62 67.58,201.47"   /><polyline id="SvgjsPolyline4739" points="344.33,26.29 343.89,68.28 342.96,101.27 341.73,122.23 339.66,140.11 336.55,154.78 334.71,160.48 332.3,165.98 329.21,171.11 327.38,173.49 323.19,177.77 318.4,181.39 313.21,184.38 307.75,186.87 299.27,189.87 290.59,192.25 278.86,194.77 267.03,196.78 240.23,200.02 210.31,202.27 174.35,203.84 138.36,204.71 72.36,205.6"   /><polyline id="SvgjsPolyline4740" points="344.53,35.49 345.16,56.48 346.09,74.45 347.27,89.41 349.03,104.3 351.11,116.12 353.27,124.85 356.17,133.37 360.05,141.48 364.95,149.03 368.66,153.74 372.83,158.05 379.78,163.76 384.75,167.12 392.53,171.64 419.46,184.87 429.96,190.65 437.29,195.86 441.51,200.11 443.16,202.61"   /><polyline id="SvgjsPolyline4741" points="344.35,34.4 344.59,115.4 345.33,154.39 346.13,166.36 347.28,175.29 348.61,181.13 350.96,186.64 352.72,189.06 354.88,191.14 357.35,192.83 362.84,195.23 371.57,197.41 389.4,199.8 431.24,203.44 440.17,204.59 443.09,205.24"   /><polyline id="SvgjsPolyline4742" points="598.6,259.62 584.01,249.09 568.57,239.85 560.55,235.77 552.35,232.06 538.34,226.71 524.01,222.29 509.45,218.69 491.8,215.17 453.34,208.68 447.5,207.33 444.73,206.23"   /><polyline id="SvgjsPolyline4743" points="0.56,242.43 8.39,237.99 16.47,234.03 41.4,223.69 52.32,218.71 57.57,215.8 62.47,212.36 64.66,210.31 66.42,207.9"   /><polyline id="SvgjsPolyline4744" points="0.23,190.54 14.84,193.93 53.24,200.74 59.08,202.1 64.77,203.98"   /><polyline id="SvgjsPolyline4745" points="1.77,379.78 16.2,375.68 24.75,372.86 33.08,369.48 40.97,365.15 45.75,361.55 49.96,357.28 53.45,352.4 57.34,344.3 59.97,335.7 61.77,326.88 63.4,314.99 64.7,300.05 65.69,282.08 66.48,258.09 67.16,207.1"   /><polyline id="SvgjsPolyline4746" points="1.16,337.28 21.02,318.99 31.49,308.26 37.3,301.38 40.9,296.59 44.26,291.62 48.81,283.85 51.51,278.5 55.07,270.23 58.09,261.75 60.6,253.11 62.67,244.35 64.34,235.51 65.64,226.61 66.8,214.66"   /><polyline id="SvgjsPolyline4747" points="1,304.03 11.2,293.04 36.72,267.65 44.61,258.61 50.04,251.43 56.39,241.26 61.52,230.42 63.57,224.78 65.22,219.02 66.85,210.17"   /><polyline id="SvgjsPolyline4748" points="598.74,529.18 584.12,539.68 576.49,544.46 568.66,548.88 560.63,552.94 552.42,556.63 538.4,561.95 524.05,566.33 506.56,570.55 488.88,573.92 456.31,579.28 447.52,581.18 444.75,582.26"   /><polyline id="SvgjsPolyline4749" points="221.85,599.85 210.23,596.87 195.54,593.82 180.74,591.41 162.88,589.18 129.99,586.43 70.08,583.17"   /><polyline id="SvgjsPolyline4750" points="597.93,592.37 571.14,589.04 538.25,586.41 508.29,584.95 445.32,582.89"   /><polyline id="SvgjsPolyline4751" points="344.35,56.15 344.32,194.15 343.56,197.04 341.3,198.98 338.56,200.17 335.66,200.96 329.77,202.1 323.82,202.84 311.85,203.66 290.86,204.39 209.87,205.41 71.87,205.74"   /><polyline id="SvgjsPolyline4752" points="343.5,17.62 292.59,20.64 268.66,22.5 241.85,25.66 221.17,29.31 209.48,32.02 200.81,34.41 192.23,37.13 180.99,41.33 172.74,44.92 162.02,50.32 154.23,54.82 146.67,59.7 136.92,66.7 129.87,72.29 123.1,78.22 114.56,86.65 106.62,95.64 101.1,102.75 95.98,110.15 89.82,120.44 85.71,128.45 80.9,139.44 76.84,150.73 74.27,159.35 71.43,171.01 69.25,182.81 67.77,194.72 67.2,203.7"   /><polyline id="SvgjsPolyline4753" points="0.42,17.29 60.42,17.56 65.65,20.26 66.64,23.03 67.05,32.01 67.16,137.01"   /><polyline id="SvgjsPolyline4754" points="1.35,14.16 28.28,12.2 37.21,11.12 43.12,10.04 48.88,8.38 51.62,7.17 54.17,5.6 58.66,1.63"   /><polyline id="SvgjsPolyline4755" points="0.44,48.19 13.35,55.82 20.88,60.76 28.05,66.19 32.55,70.16 38.72,76.71 42.38,81.46 47.16,89.08 51.1,97.16 54.31,105.57 57.84,117.04 59.92,125.79 62.08,137.59 63.73,149.48 65.49,167.39 67.04,197.35"   /><polyline id="SvgjsPolyline4756" points="1.42,87.14 22.64,108.35 32.89,119.3 42.25,131.02 48.8,141.07 51.71,146.31 55.6,154.43 57.87,159.98 60.81,168.49 64.5,183.02 66.72,197.84"   /><polyline id="SvgjsPolyline4757" points="0.36,120.57 6.43,127.21 12.84,133.52 39.52,157.69 49.81,168.6 55.32,175.71 60.09,183.34 63.91,191.48 66.48,200.09"   /><polyline id="SvgjsPolyline4758" points="599.66,5.26 579.23,0.45"   /><polyline id="SvgjsPolyline4759" points="599.24,10.46 584.38,8.45 572.55,6.43 557.86,3.38 546.23,0.45"   /><polyline id="SvgjsPolyline4760" points="599.1,13.44 572.2,11.14 551.37,8.46 530.72,4.67 513.24,0.38"   /><polyline id="SvgjsPolyline4761" points="599.03,15.16 560.09,13.11 530.23,10.26 515.38,8.14 503.59,5.93 491.91,3.18 483.3,0.56"   /><polyline id="SvgjsPolyline4762" points="598.82,16.23 565.83,15.42 541.85,14.46 517.89,12.98 499.97,11.29 485.13,9.12 476.36,7.14 465.05,3.15 459.84,0.2"   /><polyline id="SvgjsPolyline4763" points="599.1,29.85 581.6,34.06 564.45,39.51 550.55,45.13 537.11,51.79 524.25,59.49 516.84,64.6 509.68,70.06 498.37,79.91 487.93,90.67 478.48,102.31 470.14,114.77 462.98,127.95 457.04,141.72 454.03,150.2 451.42,158.81 447.93,173.4 445.48,188.19 444.21,203.13"   /><polyline id="SvgjsPolyline4764" points="598.64,23.11 577.8,25.68 557.12,29.33 539.6,33.47 522.41,38.78 508.5,44.39 500.44,48.37 495.22,51.34 487.71,56.3 482.97,59.98 478.5,63.97 474.34,68.29 470.52,72.91 467.07,77.82 464,82.97 461.29,88.33 456.86,99.48 452.82,113.91 449.47,131.6 447.2,149.45 445.45,170.38 444.26,197.35"   /><polyline id="SvgjsPolyline4765" points="598.73,20.1 571.78,21.82 547.9,24.19 527.13,27.24 509.52,30.94 495.09,35.03 486.64,38.13 481.18,40.61 475.92,43.5 470.97,46.88 464.38,52.99 459.14,60.29 455.26,68.4 453.32,74.08 451.77,79.87 449.51,91.66 447.68,106.54 446.12,127.48 444.98,154.46 444.33,184.45"   /><polyline id="SvgjsPolyline4766" points="598.95,52.13 583.66,61.63 569.16,72.28 555.42,83.91 537.99,100.4 501.94,136.48 469.58,167.75 461.26,176.39 455.38,183.21 450.09,190.48 445.91,198.44 444.93,201.27 444.34,204.2"   /><polyline id="SvgjsPolyline4767" points="598.39,114.85 579.04,133.68 563.28,147.57 549.01,158.52 533.9,168.3 517.99,176.71 504.24,182.69 487.32,188.84 455.93,199.01 450.36,201.23 447.67,202.55 445.2,204.24"   /><polyline id="SvgjsPolyline4768" points="344.2,85.22 343.44,142.21 342.68,157.19 341.24,169.1 339.78,174.91 338.69,177.71 335.51,182.78 333.43,184.93 328.74,188.68 323.53,191.64 317.94,193.79 312.16,195.42 297.43,198.18 276.56,200.55 249.63,202.45 216.66,203.85 180.67,204.71 69.68,205.7"   /><polyline id="SvgjsPolyline4769" points="598.44,244.49 585.3,237.25 571.65,231.05 557.57,225.87 540.28,220.89 525.64,217.63 507.91,214.54 490.08,212.1 457.3,208.31 445.46,206.37"   /><polyline id="SvgjsPolyline4770" points="0.13,257.85 4.84,254.14 14.69,247.29 43.17,230.62 53.14,223.96 57.79,220.17 62.02,215.91 65.47,211.02 66.65,208.27"   /><polyline id="SvgjsPolyline4771" points="0.92,177.78 14.74,183.6 43.3,192.77 54.58,196.85 62.63,200.86 65.04,202.63 66.72,204.94"   /><polyline id="SvgjsPolyline4772" points="1.48,367.42 14.85,360.61 22.68,356.19 30.2,351.25 34.94,347.57 41.43,341.34 45.24,336.71 48.58,331.73 52.73,323.75 55.95,315.35 58.43,306.7 60.91,294.96 62.72,283.1 64.36,268.19 65.7,250.24 66.69,229.27 67.12,211.27"   /><polyline id="SvgjsPolyline4773" points="2.18,351.38 21.25,336.81 28.03,330.9 32.32,326.7 38.31,319.99 41.94,315.22 45.26,310.22 49.62,302.35 53.27,294.12 56.28,285.65 58.76,277 60.8,268.23 62.96,256.43 64.6,244.54 66.67,220.63"   /><polyline id="SvgjsPolyline4774" points="0.48,286.85 6.61,280.26 13.11,274.03 33.52,256.36 42.4,248.29 48.7,241.87 52.64,237.34 57.99,230.11 62.47,222.31 65.74,213.94 66.97,208.08"   /><polyline id="SvgjsPolyline4775" points="598.54,544.32 585.38,551.51 571.71,557.67 557.62,562.81 540.31,567.75 525.67,570.98 507.93,574.04 490.1,576.46 454.33,580.59 445.47,582.13"   /><polyline id="SvgjsPolyline4776" points="149.88,599.97 138.27,596.93 126.55,594.33 108.85,591.06 79.25,586.2 70.46,584.29 67.7,583.18"   /><polyline id="SvgjsPolyline4777" points="599.83,580.52 539.84,581.93 446.85,582.69"   /><polyline id="SvgjsPolyline4778" points="0.42,29.29 15,32.81 26.53,36.11 34.97,39.24 40.36,41.86 42.95,43.38 47.76,46.95 51.92,51.27 55.26,56.24 57.81,61.67 60.49,70.25 62.25,79.08 63.78,90.98 64.77,102.94 65.72,120.91 66.39,141.9 67.13,195.89"   /><polyline id="SvgjsPolyline4779" points="1.04,22.54 15.95,24.18 27.83,25.85 36.65,27.63 45.25,30.26 50.75,32.66 55.61,36.14 57.64,38.35 60.67,43.51 62.57,49.19 63.77,55.07 64.86,64 65.52,72.98 66.51,102.96 67.05,159.96"   /><polyline id="SvgjsPolyline4780" points="0.64,2.18 6.4,0.5"   /><polyline id="SvgjsPolyline4781" points="0.99,5.36 21.35,0.21"   /><polyline id="SvgjsPolyline4782" points="2.17,63.08 20.91,78.07 31.85,88.33 35.88,92.77 41.43,99.85 44.77,104.84 49.18,112.68 52.92,120.86 55.06,126.47 57.8,135.04 60.07,143.75 62.48,155.5 63.91,164.39 65.39,176.29 66.44,188.25"   /><polyline id="SvgjsPolyline4783" points="0.27,37.93 14.13,43.66 22.24,47.55 30.12,51.89 37.55,56.96 42.08,60.9 46.13,65.32 49.65,70.17 53.89,78.1 57.04,86.53 59.38,95.22 61.62,107 63.21,118.9 64.6,133.83 65.74,151.79 66.49,169.78 67.1,196.77"   /><polyline id="SvgjsPolyline4784" points="0.06,137.84 6.46,144.17 13.29,150.02 42.12,171.57 49.03,177.34 53.39,181.46 59.34,188.2 62.73,193.15 65.43,198.5 66.98,204.26"   /><polyline id="SvgjsPolyline4785" points="598.6,40.18 584.83,46.12 574.1,51.49 563.72,57.52 553.72,64.15 544.1,71.31 532.57,80.9 521.51,91.04 508.76,103.74 494.46,119.12 482.68,132.73 471.48,146.81 462.81,159.05 456.53,169.28 451.09,179.97 446.83,191.18 444.73,199.92"   /><polyline id="SvgjsPolyline4786" points="599.74,25.42 579.05,28.97 561.53,33.13 544.38,38.57 530.5,44.24 517.15,51.07 504.51,59.13 492.67,68.34 486.06,74.45 481.92,78.79 474.36,88.1 470.97,93.04 466.37,100.78 461.16,111.58 455.96,125.65 451.98,140.1 448.47,157.76 446.04,175.59 444.4,196.52"   /><polyline id="SvgjsPolyline4787" points="598.01,33.78 583.73,38.36 569.82,43.98 556.4,50.66 546.07,56.76 533.71,65.25 519.69,76.54 506.52,88.8 496.08,99.57 484.36,113.23 475.34,125.21 467.12,137.75 459.85,150.87 453.68,164.54 448.78,178.71 445.94,190.36 444.3,202.24"   /><polyline id="SvgjsPolyline4788" points="598.26,131.87 582.62,145.87 568.46,156.98 553.47,166.93 545.66,171.4 537.65,175.51 523.92,181.54 506.95,187.53 486.73,193.19 454.68,201.04 446.2,204.03"   /><polyline id="SvgjsPolyline4789" points="599.12,231.01 587.89,226.79 573.55,222.38 558.98,218.83 541.29,215.51 526.45,213.37 508.56,211.37 454.72,207.16 445.78,206.2"   /><polyline id="SvgjsPolyline4790" points="1.44,163.92 9.04,168.73 16.91,173.1 41.27,184.75 51.88,190.35 59.36,195.33 63.78,199.38 65.62,201.75"   /><polyline id="SvgjsPolyline4791" points="599.18,557.8 585.08,562.92 573.58,566.33 559,569.84 541.3,573.12 526.45,575.23 508.56,577.2 454.72,581.36 445.77,582.3"   /><polyline id="SvgjsPolyline4792" points="599.7,146.88 585.47,157.9 570.41,167.74 562.56,172.14 554.52,176.18 537.92,183.14 523.69,187.86 509.2,191.74 491.61,195.54 453.25,202.58 447.44,204.06 444.72,205.25"   /><polyline id="SvgjsPolyline4793" points="597.75,217.58 582.97,215.01 571.09,213.35 556.18,211.68 538.25,210.15 508.3,208.4 445.35,205.93"   /><polyline id="SvgjsPolyline4794" points="597.54,163.91 584.63,171.54 571.17,178.14 557.24,183.72 540.08,189.12 525.51,192.69 507.83,196.08 490.04,198.76 454.33,203.35 445.5,205.06"   /><polyline id="SvgjsPolyline4795" points="597,205.22 447,205.74"   /><polyline id="SvgjsPolyline4796" points="598.63,177.37 584.76,183.07 570.52,187.78 556.01,191.6 541.33,194.65 526.53,197.08 508.67,199.35 457.88,203.86 445.95,205.21"   /><polyline id="SvgjsPolyline4797" points="599.84,192.63 585.11,195.45 573.25,197.29 543.43,200.6 513.51,202.64 444.58,205.68"   /></g></svg>