<?xml version="1.0" standalone="no"?>
<svg id="SvgjsSvg1001" width="600" height="600" xmlns="http://www.w3.org/2000/svg" version="1.1" xmlns:xlink="http://www.w3.org/1999/xlink" xmlns:svgjs="http://svgjs.com/svgjs" class="svg-paper" viewBox="0 0 600 600"><title id="SvgjsTitle1848">x=sin(sqrt(x*x + y*y))|y=sin(min(sqrt(x*x + y*y),y))|dTest=0.0|sd=0.2|sm=0.2|ts=0.05 | generated with FlowLines</title><style>*{fill:none;stroke:#777}</style><g id="SvgjsG1849"><polyline id="SvgjsPolyline1850" points="0.04,544.95 0.82,539 1.11,533.01 0.85,527.01 0,521.08"   /><polyline id="SvgjsPolyline1851" points="0.67,587.49 5.8,576.66 7.82,571.01 9.45,565.23 11.11,556.39 11.9,544.42 11.75,538.43 11.1,532.46 9.13,523.69 5.89,515.3 1.35,507.54"   /><polyline id="SvgjsPolyline1852" points="8.06,598.86 12.41,590.98 14.97,585.55 17.12,579.96 18.86,574.21 20.16,568.36 21.28,559.43 21.46,553.44 21.18,547.45 19.91,538.54 18.48,532.72 16.57,527.03 14.19,521.52 11.34,516.25 8.01,511.26 4.22,506.61 0.01,502.34"   /><polyline id="SvgjsPolyline1853" points="21.46,599.49 24.05,594.08 26.21,588.48 27.92,582.73 29.61,573.9 30.17,567.93 30.29,561.93 29.96,555.94 28.66,547.04 27.27,541.2 24.4,532.68 21.96,527.19 19.12,521.91 15.87,516.87 10.26,509.84 6.05,505.57 1.5,501.66"   /><polyline id="SvgjsPolyline1854" points="35.07,598.84 36.94,593.14 38.33,587.3 39.22,581.37 39.69,572.39 39.46,566.39 38.8,560.43 37.74,554.53 35.42,545.83 32.27,537.41 29.71,531.98 25.21,524.19 21.77,519.28 17.99,514.62 13.89,510.24 9.48,506.18 2.34,500.7"   /><polyline id="SvgjsPolyline1855" points="47.47,599.76 48.7,593.89 49.59,584.94 49.6,578.94 48.81,569.98 47.78,564.07 45.57,555.35 43.66,549.66 40.18,541.36 37.46,536.01 32.8,528.32 27.45,521.08 23.52,516.55 19.31,512.28 12.5,506.4 5.16,501.19 0.01,498.12"   /><polyline id="SvgjsPolyline1856" points="59.9,599.29 60.33,593.31 60.08,584.32 58.89,575.4 57.63,569.53 56.04,563.75 53.06,555.26 49.41,547.03 46.63,541.72 41.94,534.04 36.65,526.76 30.77,519.95 26.54,515.69 22.08,511.68 14.98,506.16 9.99,502.82 2.19,498.35"   /><polyline id="SvgjsPolyline1857" points="72.14,597.17 71.66,591.19 70.18,582.31 67.93,573.6 65,565.09 61.46,556.82 58.78,551.45 54.3,543.65 49.29,536.18 45.66,531.4 39.78,524.59 33.41,518.24 28.9,514.28 21.77,508.79 16.79,505.44 9.03,500.88 0.96,496.9"   /><polyline id="SvgjsPolyline1858" points="84.69,599.59 82.93,590.77 81.4,584.97 78.55,576.43 75.13,568.11 71.19,560.02 66.76,552.19 61.86,544.64 56.5,537.41 46.56,526.19 40.01,520.02 33.05,514.31 25.72,509.1 18.05,504.4 10.08,500.21 1.87,496.54"   /><polyline id="SvgjsPolyline1859" points="96.57,597.94 93.86,589.36 90.57,580.99 86.79,572.82 82.57,564.87 77.93,557.16 72.89,549.71 65.54,540.22 59.56,533.49 53.2,527.13 46.45,521.18 34.42,512.23 26.78,507.48 18.87,503.19 10.72,499.37 2.37,496.01"   /><polyline id="SvgjsPolyline1860" points="109.32,597.5 105.73,589.25 101.76,581.18 97.41,573.3 91.06,563.12 84.1,553.35 78.48,546.32 72.51,539.58 66.21,533.16 59.55,527.1 52.57,521.43 45.27,516.16 37.68,511.32 29.84,506.92 21.77,502.94 10.71,498.28 2.23,495.26"   /><polyline id="SvgjsPolyline1861" points="123.31,598.38 117.58,587.84 111.38,577.57 104.67,567.62 99.3,560.39 93.66,553.39 85.67,544.44 77.14,535.99 70.4,530.04 63.35,524.44 56.02,519.22 48.42,514.4 37.92,508.59 29.81,504.7 21.52,501.19 10.25,497.08 1.65,494.42"   /><polyline id="SvgjsPolyline1862" points="137.25,598.09 129.13,585.48 122.23,575.66 114.93,566.14 107.21,556.95 101.14,550.32 92.63,541.86 85.93,535.84 76.58,528.32 69.26,523.09 61.69,518.23 53.89,513.74 43.17,508.34 34.93,504.72 23.73,500.43 12.32,496.72 0.75,493.55"   /><polyline id="SvgjsPolyline1863" points="152.77,599.21 136.66,577.55 127.06,566.02 118.99,557.14 110.53,548.63 101.66,540.56 94.72,534.83 85.08,527.68 77.57,522.72 67.21,516.67 59.21,512.55 48.28,507.61 37.09,503.27 25.71,499.47 14.17,496.18 2.51,493.34"   /><polyline id="SvgjsPolyline1864" points="168.22,599.47 157,585.4 149.26,576.23 139.22,565.08 130.85,556.49 122.13,548.25 113.02,540.43 103.52,533.11 93.6,526.35 83.3,520.2 72.65,514.68 64.46,510.95 53.32,506.5 41.97,502.59 30.47,499.17 15.92,495.51 1.24,492.46"   /><polyline id="SvgjsPolyline1865" points="183.57,599.02 161.81,574.22 151.41,563.4 140.58,553.03 131.55,545.13 122.15,537.67 112.36,530.73 102.19,524.37 91.65,518.63 80.8,513.51 69.68,509 58.35,505.05 46.86,501.59 32.33,497.89 17.66,494.77 2.89,492.14"   /><polyline id="SvgjsPolyline1866" points="198.81,598.01 174.32,571.62 163.66,561.08 152.58,550.96 141.01,541.42 131.34,534.31 121.3,527.75 110.88,521.79 100.13,516.47 89.09,511.78 77.81,507.69 63.46,503.31 48.92,499.65 34.24,496.57 19.47,493.96 1.66,491.37"   /><polyline id="SvgjsPolyline1867" points="215.99,598.78 199.5,581.34 186.84,568.54 175.98,558.2 164.72,548.29 152.97,538.97 143.17,532.05 132.98,525.71 122.43,520 111.54,514.96 100.38,510.56 86.12,505.9 71.63,502.04 56.97,498.85 39.25,495.7 21.44,493.13 0.58,490.71"   /><polyline id="SvgjsPolyline1868" points="233.11,599.25 214.31,579.87 201.53,567.2 190.6,556.92 179.31,547.05 167.54,537.75 155.21,529.22 144.9,523.07 134.23,517.6 123.22,512.83 109.08,507.82 94.65,503.73 80.03,500.41 65.27,497.7 47.47,495.05 26.62,492.59 2.72,490.39"   /><polyline id="SvgjsPolyline1869" points="250.18,599.52 216.27,565.54 203.11,553.27 191.75,543.47 179.91,534.27 170.02,527.48 157.08,519.89 146.29,514.65 135.17,510.16 120.9,505.54 106.35,501.89 88.68,498.48 70.87,495.87 50,493.52 26.09,491.46 2.15,489.86"   /><polyline id="SvgjsPolyline1870" points="267.21,599.65 228.92,561.57 215.73,549.33 202.03,537.65 190.05,528.63 180.01,522.06 169.53,516.22 158.63,511.2 147.39,507 132.99,502.83 118.34,499.63 103.54,497.18 82.7,494.63 58.79,492.54 31.84,490.83 1.88,489.43"   /><polyline id="SvgjsPolyline1871" points="284.21,599.7 241.61,557.44 226.22,543.16 214.8,533.43 202.84,524.38 192.78,517.85 182.24,512.13 171.24,507.33 159.88,503.46 145.35,499.78 130.59,497.1 112.74,494.8 88.83,492.72 64.87,491.3 1.91,489.08"   /><polyline id="SvgjsPolyline1872" points="301.19,599.7 252.21,551.1 241.28,540.83 230.03,530.91 218.27,521.6 208.35,514.86 197.89,508.99 186.9,504.17 175.5,500.45 160.88,497.11 146.06,494.83 128.15,493.01 104.2,491.47 77.22,490.39 2.24,488.82"   /><polyline id="SvgjsPolyline1873" points="318.15,599.71 265.01,546.78 251.98,534.37 240.77,524.4 229,515.11 218.99,508.5 211.06,504.25 199.95,499.73 188.4,496.5 176.61,494.3 161.71,492.53 143.76,491.24 119.78,490.24 95.79,489.65 2.8,488.65"   /><polyline id="SvgjsPolyline1874" points="335.12,599.74 273.54,538.27 260.54,525.83 251.61,517.82 242.28,510.27 232.33,503.57 224.36,499.41 215.95,496.2 207.25,493.93 195.41,492.01 180.47,490.68 162.49,489.85 108.5,488.96 0.5,488.54"   /><polyline id="SvgjsPolyline1875" points="352.08,599.84 286.34,534.05 264.71,513.27 255.57,505.49 248.28,500.23 240.41,495.87 234.83,493.68 229.05,492.09 220.17,490.62 208.21,489.65 193.22,489.12 130.23,488.62 1.23,488.5"   /><polyline id="SvgjsPolyline1876" points="366.95,597.9 343.74,574.45 286.29,517.34 275.49,506.94 268.77,500.95 261.6,495.52 256.37,492.6 250.71,490.61 244.81,489.56 238.83,489.06 220.84,488.63 1.84,488.5"   /><polyline id="SvgjsPolyline1877" points="110.03,297.76 113.04,302.94 117.97,313.88 121.25,322.26 125.11,333.62 128.37,345.17 130.39,353.94 132.02,362.79 133.21,371.71 133.89,380.68 134.01,386.68 133.63,395.67 132.92,401.63 131.09,410.43 129.28,416.15 126.97,421.69 124.15,426.98 120.83,431.98 117.05,436.64 112.88,440.94 108.36,444.89 98.56,451.8 93.37,454.81 85.33,458.86 77.08,462.44 68.67,465.64 51.53,471.14 28.32,477.23 1.96,483.09"   /><polyline id="SvgjsPolyline1878" points="383.92,598.25 360.83,574.67 288.19,503.06 279.42,494.88 274.64,491.26 271.98,489.89 269.1,489.06 266.12,488.72 212.12,488.5"   /><polyline id="SvgjsPolyline1879" points="111.44,299.91 121.91,310.65 129.96,319.55 139.64,331.01 148.88,342.83 164.46,364.87 174.19,380.01 181.96,392.84 190.91,408.46 199.43,424.32 204.76,435.07 209.6,446.05 212.61,454.52 214,460.36 214.37,463.33 214.38,466.33 213.89,469.29 212.78,472.07 211.07,474.52 206.69,478.61 204.17,480.22 201.44,481.47 192.78,483.87 177.91,485.79 156.94,486.96 126.95,487.67 18.96,488.39"   /><polyline id="SvgjsPolyline1880" points="108.44,301.18 69.37,316.6 55.61,322.57 42.07,329.01 31.46,334.61 21.12,340.71 11.16,347.4 1.69,354.76"   /><polyline id="SvgjsPolyline1881" points="109.5,301.8 115.92,295.49 128.09,282.24 135.92,273.14 145.34,261.47 154.35,249.48 162.97,237.2 171.23,224.68 180.72,209.39 189.82,193.86 198.51,178.1 206.67,162.05 211.59,151.11 214.71,142.67 216.76,133.92 216.97,130.93 216.75,127.94 215.95,125.06 214.44,122.47 212.31,120.37 209.78,118.76 207.04,117.55 201.28,115.9 195.37,114.85 180.44,113.45 159.46,112.59 129.46,112.08 0.46,111.54"   /><polyline id="SvgjsPolyline1882" points="111.8,299.05 109.09,307.63 104.71,318.8 97.12,335.12 88.19,350.74 81.56,360.74 76.25,368.01 64.92,381.99 50.72,397.45 35.79,412.23 0.89,445.17"   /><polyline id="SvgjsPolyline1883" points="111.3,298.74 112.81,310.64 113.25,325.63 112.39,340.6 110.32,355.45 107.59,367.13 103.83,378.52 98.98,389.49 93.05,399.92 86.1,409.69 78.25,418.77 69.66,427.14 60.47,434.86 48.37,443.71 35.77,451.85 20.24,460.96 1.85,471.08"   /><polyline id="SvgjsPolyline1884" points="113.22,302.35 119.86,312.34 126.06,322.62 131.83,333.14 137.19,343.88 142.14,354.81 147.84,368.68 151.93,379.96 155.54,391.4 158.54,403.02 160.27,411.85 161.41,420.78 161.73,426.77 161.31,435.75 160.24,441.65 158.38,447.35 155.64,452.68 153.94,455.15 149.94,459.61 145.3,463.41 140.21,466.59 134.83,469.23 126.42,472.43 111.94,476.32 94.23,479.54 70.42,482.48 37.53,485.21 1.59,487.3"   /><polyline id="SvgjsPolyline1885" points="112.43,302.56 116.43,317.01 118.24,325.82 119.62,334.72 120.92,349.66 120.82,364.65 119.37,379.57 118.32,385.48 116.14,394.21 112,405.46 109.38,410.86 106.4,416.06 103.05,421.04 99.37,425.78 91.11,434.48 81.9,442.16 69.43,450.47 56.24,457.63 39.85,465.06 23.09,471.61 0.43,479.51"   /><polyline id="SvgjsPolyline1886" points="110.54,298.49 115.21,306.18 120.86,316.77 125.99,327.62 130.62,338.68 133.77,347.11 137.51,358.52 140.67,370.09 142.61,378.88 144.12,387.75 145.09,396.7 145.57,405.68 145.38,414.68 144.22,423.6 142.79,429.42 140.76,435.06 138.07,440.42 134.74,445.41 130.81,449.94 126.38,453.98 121.56,457.55 116.45,460.69 111.12,463.44 105.63,465.86 97.19,468.98 79.88,473.9 59.32,478.15 35.6,481.85 2.84,485.78"   /><polyline id="SvgjsPolyline1887" points="400.87,598.86 388.56,585.73 373.76,570.84 326.11,525.16 289.67,489.49"   /><polyline id="SvgjsPolyline1888" points="113.82,301.66 130.52,314.39 146.64,327.84 162.07,342.09 176.75,357.1 188.79,370.48 200.44,384.2 247.74,442.41 282.94,483.35 284.84,485.67 286.01,488.17"   /><polyline id="SvgjsPolyline1889" points="109.7,298.61 119.06,306.13 130.42,315.92 141.45,326.08 150.01,334.49 158.32,343.15 168.37,354.28 185.6,375.07 205.63,401.29 246.59,456.82 257.05,471.46 261.8,479.11 263.19,481.77 264.08,484.62 262.9,487.16 260.05,487.97"   /><polyline id="SvgjsPolyline1890" points="118.89,306.46 136.27,323.01 150.68,338.28 166.2,356.58 182.62,378.01 196.54,397.56 208.4,414.89 225.04,439.85 234.74,455.02 240.79,465.38 243.42,470.77 244.48,473.57 245.78,479.42 245.6,482.4 243.92,484.82 241.26,486.19 235.39,487.37 226.42,487.98 214.42,488.26 151.42,488.47"   /><polyline id="SvgjsPolyline1891" points="111.07,299.48 118.73,308.71 127.78,320.67 136.29,333.02 144.28,345.71 151.78,358.71 158.78,371.97 165.31,385.48 171.33,399.21 175.79,410.35 179.75,421.68 182.97,433.24 184.6,442.08 185.09,448.06 184.86,454.05 183.58,459.9 182.45,462.68 180.96,465.28 179.14,467.66 174.67,471.65 172.15,473.27 166.76,475.89 161.1,477.88 155.3,479.42 146.47,481.17 137.57,482.46 116.66,484.45 86.71,486.07 50.73,487.2 2.74,488.12"   /><polyline id="SvgjsPolyline1892" points="110.66,299.1 118.75,307.97 128.37,319.47 135.73,328.95 144.49,341.12 152.8,353.61 162.2,368.96 169.59,382.02 176.59,395.28 184.45,411.47 189.26,422.47 193.54,433.67 196.18,442.28 198.07,451.07 198.79,457.03 198.59,463.01 197.97,465.95 196.92,468.75 195.4,471.33 193.45,473.6 191.15,475.53 185.93,478.46 180.28,480.49 174.46,481.94 159.64,484.19 138.71,485.81 111.73,486.87 69.74,487.7 24.74,488.17"   /><polyline id="SvgjsPolyline1893" points="115.05,303.3 125.7,313.85 135.95,324.8 143.86,333.83 153.36,345.43 162.47,357.35 171.21,369.54 179.65,381.94 191.03,399.59 202,417.5 212.53,435.66 218.23,446.23 223.38,457.06 225.51,462.67 227.79,471.36 228.02,474.35 227.64,477.32 226.38,480.02 224.27,482.13 221.66,483.6 215.93,485.35 207.02,486.62 195.05,487.4 174.06,487.95 144.06,488.23 0.06,488.48"   /><polyline id="SvgjsPolyline1894" points="108.8,298.34 65.24,271.83 52.64,263.68 40.29,255.17 28.29,246.18 19.01,238.57 10.09,230.55 1.6,222.06"   /><polyline id="SvgjsPolyline1895" points="107.56,304.18 96.96,314.79 83.91,327.19 46.19,361.51 28.65,377.9 13.81,392.76 1.7,406.07"   /><polyline id="SvgjsPolyline1896" points="108.64,299.88 39.72,296.48 18.78,294.96 0.86,293.18"   /><polyline id="SvgjsPolyline1897" points="112.54,299.83 74.09,306.32 41.76,312.96 30.12,315.86 18.59,319.19 10.07,322.07 1.69,325.36"   /><polyline id="SvgjsPolyline1898" points="113.29,298.82 67.86,328.01 52.96,338.11 40.77,346.85 28.9,356.03 17.47,365.74 8.72,373.95 0.41,382.6"   /><polyline id="SvgjsPolyline1899" points="108.35,300.78 70.63,310.66 56.25,314.95 42.04,319.74 30.84,324.06 19.89,328.95 11.89,333.08 1.6,339.25"   /><polyline id="SvgjsPolyline1900" points="111.48,300.91 111.6,288.91 110.48,273.96 108.74,262.09 106.15,250.37 102.65,238.9 98.23,227.74 92.87,217.01 86.59,206.79 79.48,197.13 71.64,188.05 63.18,179.54 54.22,171.56 44.88,164.02 32.81,155.12 0.42,133.4"   /><polyline id="SvgjsPolyline1901" points="110.12,300.21 148.65,294.2 175.21,289.34 195.69,284.69 207.24,281.46 215.8,278.66 224.21,275.48 232.44,271.82 240.41,267.65 245.56,264.57 257.79,255.89 264.71,250.15 273.6,242.08 286.51,229.54 324.67,191.34 337.22,178.43 347.39,167.4 357.05,155.93 362.4,148.7 367.19,141.08 370.9,132.89 372.14,127.04 372.07,124.05 371.3,121.16 369.75,118.6 367.56,116.56 364.97,115.05 362.18,113.96 356.34,112.63 347.38,111.78 311.39,111.56"   /><polyline id="SvgjsPolyline1902" points="111.2,300.68 114.93,292.5 118.23,284.13 121.18,275.62 124.63,264.13 127.57,252.5 129.36,243.68 130.76,234.79 131.73,225.84 132.18,210.86 131.6,201.88 130.78,195.93 128.8,187.16 126.91,181.46 124.55,175.95 121.68,170.68 118.34,165.71 114.54,161.06 110.34,156.78 105.8,152.86 95.95,146.02 88.07,141.67 82.66,139.09 68.75,133.49 48.72,127.2 28.35,122.08 1.93,116.55"   /><polyline id="SvgjsPolyline1903" points="111.24,300.14 134.84,287.02 157.8,272.82 177.42,259 186.86,251.59 196.03,243.86 209.3,231.7 224.18,216.88 275.71,162.39 313.66,123.98 317.75,119.58 321.49,114.9"   /><polyline id="SvgjsPolyline1904" points="110.12,301.79 117.05,292 123.41,281.82 129.34,271.39 134.86,260.74 139.96,249.88 145.87,236.09 150.14,224.88 153.95,213.5 157.21,201.95 159.2,193.17 160.68,184.3 161.47,175.34 161.29,166.34 160.45,160.41 158.86,154.63 156.41,149.15 154.86,146.59 151.11,141.91 146.67,137.89 141.71,134.51 136.42,131.69 128.09,128.3 113.67,124.2 104.86,122.35 93.03,120.37 69.2,117.46 36.32,114.74 0.38,112.65"   /><polyline id="SvgjsPolyline1905" points="115.72,296.86 134.49,281.9 150.23,268.01 163.15,255.48 179.62,238.02 191.45,224.45 202.92,210.59 245.94,156.63 278.5,117.38 280.3,114.98 281.56,112.34"   /><polyline id="SvgjsPolyline1906" points="113.34,297.89 122.68,286.15 129.75,276.46 136.48,266.52 144.43,253.8 151.87,240.78 158.82,227.49 165.29,213.96 171.27,200.2 175.66,189.03 179.54,177.68 181.97,169.01 183.76,160.2 184.42,154.24 184.43,148.24 183.52,142.32 181.37,136.73 179.77,134.2 175.66,129.85 173.26,128.05 168.02,125.15 162.44,122.94 156.69,121.25 147.89,119.34 139,117.94 115.12,115.57 88.17,114.07 55.18,112.96 1.2,111.87"   /><polyline id="SvgjsPolyline1907" points="113.28,298.49 124.4,288.42 133.03,280.09 149.56,262.69 165.09,244.39 183.26,220.52 197.08,200.91 213.87,176.04 230.28,150.93 238.13,138.15 242.46,130.26 244.88,124.78 245.75,121.91 246.04,118.93 245.1,116.13 242.76,114.3 239.93,113.34 236.98,112.79 231.01,112.22 219.01,111.8 0.02,111.51"   /><polyline id="SvgjsPolyline1908" points="115.15,296.08 124.96,284.73 132.45,275.36 141.39,263.32 149.86,250.94 157.89,238.27 165.51,225.35 172.73,212.21 179.57,198.86 189.52,177.02 193.78,165.8 196.38,157.19 198.35,148.41 199.03,142.45 198.74,136.47 198.07,133.55 196.95,130.77 195.36,128.23 193.35,126.01 191.01,124.14 185.74,121.29 177.17,118.57 171.29,117.35 162.39,116.06 144.46,114.49 120.49,113.37 90.5,112.62 36.5,111.93"   /><polyline id="SvgjsPolyline1909" points="117.49,294.4 128.1,283.8 136.3,275.04 146.18,263.75 155.65,252.12 164.72,240.18 173.45,227.98 191.67,200.47 202.74,182.62 213.41,164.53 219.21,154.03 224.53,143.28 227.74,134.88 228.84,128.99 228.35,123.03 227.26,120.25 225.26,118.03 222.7,116.48 217,114.66 208.1,113.36 193.13,112.46 139.13,111.73 1.13,111.52"   /><polyline id="SvgjsPolyline1910" points="111.49,302.03 110.74,311 108.87,322.85 106.1,334.52 102.45,345.95 97.93,357.06 92.72,367.87 88.32,375.72 81.8,385.79 76.45,393.02 68.77,402.24 60.56,410.99 51.92,419.32 42.94,427.28 31.36,436.81 0.45,460.59"   /><polyline id="SvgjsPolyline1911" points="109.62,303.47 103.34,313.7 94.82,326.04 85.68,337.94 76.05,349.44 55.8,371.56 17.83,409.96 1.36,427.42"   /><polyline id="SvgjsPolyline1912" points="113.77,302.82 120.91,312.46 129.29,324.9 135.58,335.12 142.93,348.19 149.73,361.56 154.77,372.45 160.54,386.29 164.66,397.56 168.23,409.02 170.41,417.75 171.98,426.61 172.54,432.58 172.58,438.58 171.44,447.5 169.84,453.27 167.18,458.64 165.45,461.09 161.28,465.39 156.41,468.89 151.11,471.69 145.55,473.95 139.84,475.78 125.22,479.11 104.44,482.06 80.53,484.19 47.59,486.08 2.62,487.75"   /><polyline id="SvgjsPolyline1913" points="417.78,599.9 403.74,584.29 386.83,567.26 367.17,548.75 327.43,512.19 303.57,489.4"   /><polyline id="SvgjsPolyline1914" points="110.97,299.85 139.85,307.95 165.61,316.05 185.28,323.38 201.7,330.76 214.89,337.9 222.53,342.66 229.93,347.77 244.06,358.91 257.44,370.96 272.49,385.59 310.68,423.78 333.64,447.48 341.59,456.46 347.2,463.5 352.16,471 354.62,476.46 355.24,479.39 354.96,482.36 353.36,484.85 350.83,486.44 347.98,487.35 339.05,488.34 312.06,488.43"   /><polyline id="SvgjsPolyline1915" points="110.39,299.47 139.93,314.18 153.06,321.42 163.37,327.57 176,335.65 185.85,342.51 195.42,349.75 204.7,357.35 218.11,369.35 231.02,381.89 276.9,429.34 314.91,467.69 323.1,476.47 326.89,481.12 328.52,483.63 329.35,486.45"   /><polyline id="SvgjsPolyline1916" points="115.74,302.5 138.6,316.87 155.8,328.91 172.32,341.87 188.06,355.77 200.95,368.33 213.39,381.34 253.69,425.79 272.06,445.57 311.86,486.37"   /><polyline id="SvgjsPolyline1917" points="110.06,297.34 102.13,284.61 93.52,272.33 84.41,260.42 74.82,248.88 54.56,226.76 16.59,188.37 0.16,170.87"   /><polyline id="SvgjsPolyline1918" points="112.68,300.35 72.52,288.08 55.49,282.23 41.48,276.89 30.45,272.15 19.67,266.88 9.24,260.96 1.72,256.02"   /><polyline id="SvgjsPolyline1919" points="108.64,297.06 86.84,276.46 48.69,242.61 30.98,226.41 15.99,211.71 1.77,196.26"   /><polyline id="SvgjsPolyline1920" points="109.18,299.03 70.59,282.45 57.04,276.02 43.73,269.1 30.78,261.53 20.78,254.9 8.84,245.82 1.99,240"   /><polyline id="SvgjsPolyline1921" points="108.08,299.48 69.59,293.2 40.19,287.23 17.04,280.95 8.5,278.08 0.13,274.79"   /><polyline id="SvgjsPolyline1922" points="113.49,299.9 77.54,301.78 44.6,303.89 20.7,305.99 2.82,308.13"   /><polyline id="SvgjsPolyline1923" points="111.74,301.2 109.87,292.4 107.39,283.75 104.45,275.24 99.85,264.16 95.93,256.06 88.71,242.92 83.94,235.29 77.07,225.45 71.57,218.32 63.85,209.14 49.43,193.88 34.22,179.4 0.69,149.39"   /><polyline id="SvgjsPolyline1924" points="112.17,297.77 115.22,283.09 116.95,268.19 117.35,253.21 116.43,238.24 115.24,229.32 114.11,223.43 110.96,211.85 106.55,200.7 100.83,190.16 93.86,180.4 85.8,171.52 76.85,163.53 64.75,154.68 51.94,146.88 38.66,139.9 22.35,132.3 0.24,122.96"   /><polyline id="SvgjsPolyline1925" points="114.7,300.18 156.62,302.77 186.53,305.1 210.4,307.63 228.19,310.33 237,312.14 245.71,314.4 257.01,318.44 262.43,321.01 267.63,323.99 272.6,327.36 277.32,331.05 290.57,343.23 335.32,387.57 347.98,400.37 358.23,411.32 368,422.7 375.25,432.26 381.72,442.36 385.74,450.41 388.59,458.93 389.42,464.87 389.36,467.86 388.9,470.83 387.98,473.68 386.58,476.32 384.72,478.67 382.49,480.68 377.33,483.71 374.54,484.8 368.75,486.37 362.83,487.35 356.86,487.93 341.87,488.45"   /><polyline id="SvgjsPolyline1926" points="113.72,299.29 139.33,290.74 159,283.41 178.3,275.13 194.41,267.12 209.9,257.95 222.21,249.38 233.94,240.04 249.55,226 273.07,202.85 315.41,160.34 327.92,147.4 335.96,138.49 341.64,131.51 345.05,126.58 347.76,121.23 348.42,118.32 347.85,115.42 345.69,113.42 342.87,112.43 339.92,111.93 333.93,111.58 312.93,111.55"   /><polyline id="SvgjsPolyline1927" points="114.86,299.86 153.82,298.08 186.76,296.14 213.66,293.84 231.52,291.6 246.26,288.82 254.94,286.46 260.6,284.45 268.74,280.64 273.86,277.51 278.7,273.96 285.52,268.1 292.02,261.88 343.3,211.34 359.95,194.05 369.8,182.74 378.88,170.81 385.26,160.65 389.23,152.58 392.08,144.05 393.01,138.13 393.07,135.13 392.78,132.15 392.09,129.23 390.97,126.45 389.4,123.9 387.45,121.62 382.67,118.02 380,116.66 374.36,114.65 368.5,113.33 362.56,112.49 350.59,111.72"   /><polyline id="SvgjsPolyline1928" points="114.22,299.41 143.47,292.76 166.69,286.69 186.71,280.35 203.45,273.74 211.59,269.9 219.53,265.66 234.76,256.09 242.03,250.79 249.06,245.16 264.68,231.13 315.76,180.4 328.36,167.54 340.62,154.36 348.37,145.2 353.74,137.98 358.34,130.25 360.42,124.64 360.8,121.67 360.34,118.72 358.78,116.19 356.37,114.42 353.6,113.29 347.72,112.13 341.74,111.69 311.75,111.57"   /><polyline id="SvgjsPolyline1929" points="114.11,299.79 155.95,296.08 185.76,292.68 209.45,288.88 226.97,284.78 235.55,282.06 241.15,279.93 249.32,276.14 257.19,271.79 262.24,268.54 269.45,263.16 282.88,251.19 338.12,196.12 348.48,185.27 358.47,174.08 367.82,162.36 374.5,152.39 378.69,144.43 380.83,138.83 381.6,135.93 382.24,129.98 381.94,127 381.09,124.13 379.66,121.5 377.69,119.24 375.33,117.4 369.94,114.81 361.19,112.76 352.23,111.89 337.24,111.52 310.29,111.65"   /><polyline id="SvgjsPolyline1930" points="454.22,2.46 445.09,14.35 432.98,27.66 417.8,42.17 401.9,55.88 376.08,76.43 347.21,97.94 332.25,107.93 326.84,110.5 323.93,111.22"   /><polyline id="SvgjsPolyline1931" points="115.38,298.44 131.99,291.51 148.42,284.15 161.88,277.54 175.06,270.38 185.33,264.17 195.31,257.52 207.35,248.57 216.61,240.95 229.98,228.89 242.88,216.34 310.37,148.07 324.85,132.86 330.61,125.95 335.63,118.49 336.61,115.67 335.66,113.01 332.95,111.97"   /><polyline id="SvgjsPolyline1932" points="424.47,0.15 410.53,15.86 391.39,34.9 309.35,109.66"   /><polyline id="SvgjsPolyline1933" points="113.19,297.26 118.93,286.72 122.87,278.63 127.69,267.64 130.97,259.26 134.89,247.92 137.46,239.3 140.37,227.66 142.08,218.82 143.32,209.91 144.06,200.94 144.28,191.94 143.98,185.95 142.71,177.05 141.2,171.24 139.1,165.63 136.37,160.29 133,155.33 129.06,150.81 124.64,146.76 119.83,143.18 114.73,140.02 109.41,137.24 103.94,134.78 95.52,131.59 78.25,126.56 57.71,122.17 31.05,117.91 1.28,114.22"   /><polyline id="SvgjsPolyline1934" points="113.47,295.03 117.99,280.73 120.16,271.99 121.93,263.17 123.28,254.27 124.19,245.32 124.58,230.33 124.03,221.35 123.29,215.4 120.77,203.67 117.99,195.11 115.77,189.54 113.15,184.14 110.13,178.96 106.71,174.03 102.94,169.37 98.84,164.99 94.45,160.9 84.98,153.54 72.19,145.71 58.74,139.09 42.06,132.32 22.2,125.52 2.09,119.46"   /><polyline id="SvgjsPolyline1935" points="109.89,301 130.01,287.92 149.49,273.91 165.84,260.74 183.6,244.6 194.21,234 206.53,220.87 252.18,169.14 268.32,151.37 284.84,133.96 305.91,112.61"   /><polyline id="SvgjsPolyline1936" points="110.69,301.02 118.02,291.53 124.92,281.71 133.01,269.08 140.53,256.1 146.15,245.5 152.67,231.99 158.61,218.22 162.9,207.01 166.69,195.63 169.1,186.96 171.01,178.16 172.17,169.24 172.36,163.25 171.88,157.27 169.99,148.48 167.63,142.98 166.04,140.43 162.12,135.91 157.43,132.18 152.23,129.18 146.74,126.78 141.06,124.83 126.49,121.3 105.73,118.21 78.84,115.77 42.9,113.75 0.92,112.21"   /><polyline id="SvgjsPolyline1937" points="117.83,294.82 135.81,278.92 150.79,264.2 166.99,246.5 182.28,228.01 205.82,196.91 249.77,136.14 254.79,128.67 259.27,120.87 260.49,118.13 261.01,115.2 259.29,112.93 256.41,112.16 244.44,111.59 1.44,111.5"   /><polyline id="SvgjsPolyline1938" points="314.15,0.24 265.25,48.91 250,63.36 238.72,73.24 226.86,82.42 216.79,88.93 206.12,94.41 197.76,97.74 183.4,102.05 171.65,104.47 156.79,106.51 138.86,108.05 117.89,109.15 90.9,110.02 0.91,111.31"   /><polyline id="SvgjsPolyline1939" points="432.76,599.2 423.13,587.71 415.02,578.86 406.61,570.31 393.58,557.89 362.16,530.02 321.26,494.76 314.16,489.24"   /><polyline id="SvgjsPolyline1940" points="110.24,299.8 148.73,306.09 175.21,311.31 195.58,316.43 215.52,322.99 223.86,326.37 232,330.22 239.88,334.56 244.96,337.74 257.06,346.59 263.95,352.4 272.8,360.5 321.75,409.12 336.39,424.17 346.55,435.21 354.31,444.36 361.49,453.97 366.16,461.66 368.65,467.12 369.56,469.97 370.14,472.91 370.23,475.91 369.64,478.84 368.21,481.46 366.08,483.56 363.5,485.09 360.71,486.18 354.86,487.47 345.9,488.26 310.06,488.46"   /><polyline id="SvgjsPolyline1941" points="114.44,301.04 136.96,309.36 156.4,317.28 172.73,324.84 185.99,331.86 198.82,339.63 213.53,350 227.5,361.34 240.89,373.37 262.3,394.38 325.57,458.39 333.58,467.32 339.12,474.4 342.17,479.56 343.11,482.4 342.78,485.32 340.54,487.18 337.66,487.96 331.68,488.42 313.68,488.46"   /><polyline id="SvgjsPolyline1942" points="116.98,300.04 209.98,300.98 236.97,301.64 257.94,302.65 269.89,303.77 278.74,305.37 284.43,307.24 287.13,308.56 292.04,311.99 315.85,334.83 358.27,372.89 366.92,381.22 375.27,389.83 385.13,401.13 394.06,413.18 400.25,423.45 405.22,434.37 407.08,440.07 408.41,445.92 409.06,451.88 408.87,457.87 407.67,463.74 406.63,466.55 405.3,469.24 401.77,474.08 399.64,476.18 394.8,479.71 389.44,482.41 383.78,484.4 377.96,485.84 372.05,486.85 357.11,488.14"   /><polyline id="SvgjsPolyline1943" points="114.35,300.26 150.18,303.78 176.99,306.98 200.69,310.73 218.27,314.6 232.6,319 240.94,322.37 246.34,324.99 256.64,331.14 263.97,336.36 270.97,342.01 279.86,350.07 290.61,360.54 330.92,400.83 347.56,418.13 357.51,429.35 365.01,438.71 371.82,448.59 376.14,456.48 378.38,462.04 379.21,464.93 379.95,470.87 379.67,473.85 378.81,476.72 377.32,479.31 375.28,481.51 372.85,483.26 370.18,484.62 367.37,485.66 361.54,487.04 352.6,488.05 337.6,488.47"   /><polyline id="SvgjsPolyline1944" points="120.71,300.19 186.69,301.89 225.64,303.8 237.6,304.83 249.5,306.33 258.34,308.04 266.95,310.61 272.44,313.04 277.59,316.11 287.01,323.53 349.52,384.03 362.12,396.89 374.07,410.34 383.2,422.24 389.65,432.35 392.47,437.65 394.92,443.12 397.67,451.69 398.63,457.6 398.76,460.6 398.13,466.55 397.29,469.43 396.06,472.17 394.46,474.7 392.52,476.99 390.3,478.99 387.85,480.72 382.5,483.42 373.89,486 365,487.41 353.03,488.23 311.04,488.45"   /><polyline id="SvgjsPolyline1945" points="459.83,599.27 451.04,587.12 445.26,580.23 439.17,573.6 424.11,558.97 408.23,545.24 382.28,524.85 355.61,505.42 338.1,493.84 332.82,490.99 327.17,489.01"   /><polyline id="SvgjsPolyline1946" points="116.21,299.94 185.2,298.9 230.17,297.51 245.14,296.58 257.08,295.34 265.94,293.79 271.72,292.19 277.34,290.1 282.71,287.43 289.93,282.07 315.73,256.97 355.16,220.08 367.81,207.28 379.72,193.78 388.72,181.79 391.99,176.76 396.41,168.92 398.96,163.49 401.09,157.88 403.28,149.16 403.82,143.19 403.73,140.2 402.7,134.3 401.69,131.47 398.69,126.3 396.72,124.04 392.07,120.26 389.49,118.73 384,116.32 375.33,113.95 366.43,112.61 354.46,111.79 339.46,111.52 309.59,111.6"   /><polyline id="SvgjsPolyline1947" points="469.09,1.52 465.91,6.6 459,16.41 453.35,23.42 447.35,30.12 441.06,36.56 432.31,44.77 413.92,60.18 399.58,71.06 384.91,81.5 369.98,91.55 357.3,99.56 349.52,104.08 341.47,108.1 335.84,110.16 329.95,111.26"   /><polyline id="SvgjsPolyline1948" points="440.98,0.27 431.72,12.07 421.68,23.21 408.94,35.92 395.69,48.11 370.68,69.63 331.28,102.01 321.69,109.21 319.08,110.69 316.31,111.16"   /><polyline id="SvgjsPolyline1949" points="407.63,1.31 395.49,14.6 380.71,29.52 321.93,85.25 296.27,110.49"   /><polyline id="SvgjsPolyline1950" points="367.67,1.76 291.25,78.08 276.13,92.65 269.32,98.54 262.08,103.87 256.92,106.92 251.33,109.08 245.45,110.28 239.48,110.85 218.49,111.38 2.49,111.5"   /><polyline id="SvgjsPolyline1951" points="331.11,0.21 273.79,57.45 251.97,78.03 242.78,85.74 233.07,92.79 222.65,98.73 214.35,102.19 205.73,104.76 193.95,107.04 182.04,108.42 164.07,109.59 146.09,110.23 113.09,110.82 2.09,111.44"   /><polyline id="SvgjsPolyline1952" points="297.18,0.24 252.49,44.65 239.42,57.01 228.19,66.96 216.47,76.32 206.61,83.15 196.23,89.16 185.33,94.18 174.01,98.14 162.39,101.15 147.64,103.86 129.78,106.05 111.84,107.53 81.88,109.1 18.91,110.83"   /><polyline id="SvgjsPolyline1953" points="112.37,1.29 108.61,9.47 103,20.08 98.4,27.81 91.75,37.8 86.39,45.03 78.73,54.27 72.61,60.86 66.15,67.13 59.38,73.05 52.29,78.59 44.91,83.74 37.26,88.49 29.38,92.83 21.29,96.77 10.26,101.49 1.82,104.61"   /><polyline id="SvgjsPolyline1954" points="137.22,299.99 269.22,299.88 284.22,299.68 290.2,299.19 295.75,296.97 298.12,295.14 306.8,286.85 315.98,279.13 361.07,244.27 376.95,230.53 389.66,217.79 399.3,206.3 404.52,198.98 407.71,193.9 413.26,183.26 415.54,177.71 417.42,172.02 418.84,166.19 419.74,160.26 420.04,154.27 419.62,148.29 419.11,145.33 417.44,139.58 414.84,134.17 413.2,131.66 409.29,127.13 407.06,125.12 402.16,121.67 394.06,117.77 388.36,115.89 382.53,114.48 370.67,112.7 358.7,111.87 340.71,111.52 310.71,111.56"   /><polyline id="SvgjsPolyline1955" points="281.06,300.03 290.06,300.1 293.05,300.39 295.87,299.51 302.52,305.57 311.93,313.01 356.3,343.77 375.36,358.36 384.42,366.23 390.92,372.44 397.12,378.97 402.94,385.84 408.3,393.06 413.13,400.65 417.33,408.61 419.72,414.11 422.61,422.63 424.51,431.42 425.24,440.39 424.97,446.38 424,452.29 423.22,455.19 421.07,460.78 418.08,465.98 414.32,470.64 409.87,474.67 404.9,478.02 399.55,480.74 391.09,483.77 382.33,485.81 373.42,487.11 364.46,487.87 352.47,488.34"   /><polyline id="SvgjsPolyline1956" points="473.17,598.15 468.49,590.47 463.37,583.06 457.79,576 451.84,569.26 445.57,562.8 436.83,554.58 420.73,541.1 408.78,532.03 394.1,521.63 379.11,511.66 366.38,503.72 356,497.71 347.99,493.61 339.63,490.3 333.78,488.99"   /><polyline id="SvgjsPolyline1957" points="444.92,598.82 435.74,586.96 425.74,575.79 412.99,563.09 397.44,548.97 374.51,529.63 337.01,499.67 324.83,490.93 322.18,489.52 319.32,488.72"   /><polyline id="SvgjsPolyline1958" points="482.43,2.06 478.12,9.96 473.31,17.56 467.95,24.79 462.13,31.66 455.95,38.2 447.25,46.45 438.13,54.25 428.68,61.65 416.52,70.42 401.52,80.38 386.18,89.79 373.13,97.18 362.46,102.68 351.46,107.47 342.86,110.1 336.95,111.08"   /><polyline id="SvgjsPolyline1959" points="390.82,2.06 380.52,12.97 365.71,27.86 320.52,71.76 288.57,103.44 281.81,109.37 279.19,110.82 273.28,111.45 204.28,111.5"   /><polyline id="SvgjsPolyline1960" points="350.72,1.93 287.11,65.6 267.72,84.38 258.73,92.32 251.62,97.84 244,102.62 238.57,105.17 232.9,107.11 224.09,108.96 215.15,109.96 203.17,110.63 158.18,111.29 71.18,111.46"   /><polyline id="SvgjsPolyline1961" points="280.21,0.24 239.77,40.41 224.4,54.72 213.02,64.49 201.11,73.61 191.12,80.25 180.65,86.11 169.74,91.1 155.59,96.05 141.06,99.76 126.31,102.49 108.47,104.87 87.56,106.82 63.62,108.4 36.65,109.67 0.67,110.88"   /><polyline id="SvgjsPolyline1962" points="126.35,0.55 120.54,11.05 114.27,21.28 109.25,28.75 102.13,38.41 94.52,47.69 88.48,54.36 79.97,62.82 73.24,68.79 66.22,74.41 58.91,79.67 51.34,84.53 40.87,90.4 30.05,95.57 21.73,99.01 13.27,102.09 1.82,105.65"   /><polyline id="SvgjsPolyline1963" points="98.96,1.84 96.1,10.37 92.7,18.7 88.82,26.83 84.52,34.73 79.82,42.4 72.93,52.23 67.32,59.26 61.31,65.96 54.93,72.3 48.17,78.24 41.06,83.76 33.62,88.83 25.89,93.43 17.9,97.58 9.69,101.26 1.3,104.5"   /><polyline id="SvgjsPolyline1964" points="292.93,300.07 295.57,298.69 297.97,300.38 339.27,292.72 365.67,287.07 380.19,283.32 391.68,279.84 402.95,275.75 411.2,272.15 419.18,267.99 426.76,263.14 433.78,257.51 438.05,253.31 443.73,246.33 446.97,241.28 450.99,233.24 454.01,224.77 456.63,213.06 457.78,201.13 457.57,189.13 456.04,177.24 453.12,165.61 451.09,159.96 448.67,154.47 445.83,149.19 442.56,144.16 436.85,137.21 430.24,131.12 422.85,125.99 414.88,121.83 409.32,119.57 403.62,117.69 391.96,114.89 380.09,113.14 365.14,111.99 347.14,111.55"   /><polyline id="SvgjsPolyline1965" points="149.94,300 293.94,300.1 296.4,298.41 298.7,300.23 301.12,298.45 308.86,293.87 345.99,274.24 364.25,263.88 379.39,254.15 386.68,248.87 393.72,243.27 404.74,233.1 412.72,224.14 418.09,216.92 421.33,211.87 426.89,201.24 429.16,195.69 431.05,190 432.55,184.19 433.63,178.29 434.25,172.33 434.37,166.33 433.55,157.37 431.38,148.65 427.72,140.44 424.44,135.42 422.55,133.09 420.52,130.89 416.03,126.91 408.49,122.03 403.06,119.46 397.43,117.39 385.8,114.47 373.92,112.79"   /><polyline id="SvgjsPolyline1966" points="115.53,300 292.53,299.81 295.32,300.84 297.66,299.01 303.24,301.18 348.91,315.95 363.01,321.08 374.13,325.59 385.04,330.58 395.65,336.18 405.81,342.55 413.03,347.92 419.79,353.86 423.99,358.15 429.74,365.07 433.16,369.99 436.23,375.15 438.93,380.5 442.27,388.86 444.01,394.6 445.36,400.44 446.66,409.35 447.07,418.33 446.83,424.33 445.68,433.25 444.35,439.1 442.54,444.82 440.23,450.35 437.4,455.64 434.05,460.61 428.07,467.33 423.52,471.23 418.59,474.65 413.35,477.57 407.88,480.03 402.24,482.07 396.47,483.73 390.62,485.05 381.74,486.51 366.81,487.88 348.82,488.43"   /><polyline id="SvgjsPolyline1967" points="109.16,300 292.15,299.84 295.09,300.39 297.4,298.51 299.71,300.43 307.47,304.99 342.21,322.7 360.64,332.77 378.5,343.81 390.67,352.57 402.06,362.33 406.33,366.54 412.36,373.22 417.86,380.33 421.2,385.32 425.65,393.14 428.2,398.57 430.41,404.15 433,412.76 434.21,418.64 434.99,424.58 435.29,430.58 435.09,436.57 434.34,442.52 432.99,448.36 431.01,454.02 428.37,459.41 423.17,466.74 416.65,472.92 411.71,476.32 406.43,479.17 400.9,481.49 395.2,483.36 383.5,485.97 368.6,487.68 353.62,488.34"   /><polyline id="SvgjsPolyline1968" points="486.49,597.89 482.38,589.89 477.72,582.2 472.47,574.89 464.73,565.72 458.48,559.25 449.68,551.09 440.46,543.42 430.9,536.16 418.6,527.57 403.43,517.89 387.9,508.79 374.68,501.7 361.12,495.3 352.72,492.07 344.04,489.73 338.1,488.88"   /><polyline id="SvgjsPolyline1969" points="495.68,1.55 492.11,9.8 487.9,17.76 483,25.3 475.57,34.72 467.34,43.44 458.49,51.55 449.17,59.1 439.47,66.17 426.96,74.44 411.49,83.65 395.64,92.16 382.14,98.7 368.32,104.53 356.94,108.33 348.16,110.3 339.22,111.27"   /><polyline id="SvgjsPolyline1970" points="263.24,0.27 227.12,36.28 213.97,48.57 200.33,60.31 188.41,69.42 178.44,76.09 168.04,82.07 154.47,88.44 143.22,92.62 128.82,96.81 114.18,100.04 96.42,102.98 75.57,105.5 54.66,107.37 30.71,109 0.75,110.53"   /><polyline id="SvgjsPolyline1971" points="140.27,0.97 126.9,20.89 119.66,30.46 112.03,39.72 103.97,48.61 95.47,57.08 88.79,63.1 79.46,70.65 72.16,75.91 62.04,82.35 54.19,86.75 43.41,92.04 35.14,95.58 23.9,99.78 12.47,103.41 0.88,106.52"   /><polyline id="SvgjsPolyline1972" points="86.65,1.02 85.48,6.91 83.1,15.58 80.08,24.06 76.52,32.33 72.45,40.35 67.92,48.12 62.92,55.61 57.48,62.77 47.42,73.9 40.82,80.01 33.82,85.67 26.46,90.83 18.76,95.5 10.78,99.66 2.56,103.31"   /><polyline id="SvgjsPolyline1973" points="293.81,299.4 296.61,300.3 299.59,299.98 332.55,301.66 383.44,305.03 410.28,307.89 428.02,310.92 436.75,313.09 445.27,315.99 450.71,318.52 455.82,321.65 458.2,323.48 462.48,327.67 466.01,332.52 468.77,337.84 470.83,343.47 472.31,349.28 473.97,361.16 474.37,370.15 474.3,376.15 473.79,385.13 472.8,394.07 470.11,408.83 466.05,423.26 463.99,428.9 460.39,437.14 454.52,447.6 451.09,452.52 447.32,457.19 441.03,463.62 434.03,469.27 429.02,472.56 423.77,475.47 418.34,478.01 412.75,480.18 401.24,483.55 389.46,485.83 374.55,487.49"   /><polyline id="SvgjsPolyline1974" points="281.38,300.01 293.37,300.21 295.97,298.75 298.25,300.64 337.97,287 354.86,280.77 371.45,273.8 382.29,268.66 390.24,264.45 400.5,258.22 407.84,253.02 414.78,247.29 421.22,241.01 425.18,236.51 430.56,229.29 435.17,221.57 438.97,213.41 441.03,207.78 442.7,202.02 444.48,193.2 445.17,187.24 445.45,181.25 445.09,172.26 444.3,166.31 443.05,160.45 440.23,151.91 436.22,143.86 431,136.54 424.65,130.18 417.35,124.92 409.37,120.77 400.94,117.63 392.24,115.35 380.41,113.35 368.47,112.23 356.48,111.71"   /><polyline id="SvgjsPolyline1975" points="302.7,299.84 347.61,296.96 380.49,294.13 407.27,290.74 419.08,288.62 427.84,286.57 436.45,283.95 442.04,281.77 447.42,279.12 452.48,275.9 457.08,272.05 461.06,267.57 464.34,262.56 466.93,257.15 468.89,251.48 470.32,245.65 471.96,233.77 472.28,227.78 472.26,218.78 471.05,203.84 468.44,189.07 464.36,174.65 459.89,163.51 454.19,152.96 450.84,147.99 447.14,143.26 440.94,136.75 434.01,131.02 429.03,127.67 423.81,124.72 415.62,121 404.22,117.26 392.5,114.69 377.63,112.77"   /><polyline id="SvgjsPolyline1976" points="308.71,299.1 353.42,294.05 383.07,289.5 394.83,287.11 406.46,284.18 417.87,280.45 426.14,276.91 434,272.54 441.39,267.4 448.02,261.33 451.85,256.72 455.14,251.7 459.07,243.62 461.87,235.07 463.71,226.26 464.89,214.33 465.01,208.33 464.65,199.34 464.07,193.37 462.66,184.48 459.78,172.84 455.65,161.58 453.07,156.16 450.12,150.94 446.79,145.95 443.07,141.24 436.79,134.8 429.74,129.22 424.68,126 419.38,123.2 411.08,119.73 399.58,116.31 387.8,114.05 375.88,112.66 360.91,111.81 339.91,111.52"   /><polyline id="SvgjsPolyline1977" points="302.41,300.43 343.76,307.79 370.13,313.57 381.72,316.69 393.18,320.24 401.65,323.26 409.96,326.72 418.02,330.73 425.71,335.4 432.87,340.85 437.25,344.94 441.27,349.39 446.49,356.71 449.41,361.95 452.95,370.22 455.52,378.84 457.58,390.66 458.22,402.63 457.55,414.61 455.55,426.43 452.12,437.92 449.84,443.47 447.14,448.83 442.31,456.41 436.51,463.29 429.82,469.3 422.38,474.35 414.37,478.43 405.95,481.61 394.35,484.65 382.51,486.58 370.56,487.7"   /><polyline id="SvgjsPolyline1978" points="499.7,598.78 496.4,590.41 492.43,582.34 487.7,574.68 480.45,565.13 474.42,558.45 465.77,550.14 456.57,542.44 444.48,533.56 431.91,525.38 416.35,516.34 400.38,508.03 384.04,500.49 372.9,496.02 361.51,492.26 349.8,489.66 340.85,488.75"   /><polyline id="SvgjsPolyline1979" points="507.92,2.54 505.18,11.12 501.59,19.36 497.16,27.19 490.16,36.93 482.14,45.86 473.36,54.02 463.98,61.5 454.15,68.39 441.39,76.27 425.57,84.85 409.32,92.59 392.71,99.52 378.58,104.54 367.04,107.84 355.27,110.17 343.33,111.27"   /><polyline id="SvgjsPolyline1980" points="246.27,0.36 212.41,34.38 199.23,46.63 187.85,56.4 175.98,65.57 163.52,73.92 153.1,79.86 142.3,85.09 131.17,89.57 116.9,94.2 102.37,97.9 87.66,100.85 69.88,103.64 49.03,106.16 28.13,108.13 1.2,110.09"   /><polyline id="SvgjsPolyline1981" points="154.04,2.4 145.11,14.45 137.68,23.87 129.94,33.04 121.86,41.91 113.4,50.42 104.53,58.51 97.61,64.25 87.99,71.43 77.95,78 70.16,82.51 59.48,87.96 48.49,92.79 37.27,97.04 25.86,100.75 14.3,103.97 2.62,106.74"   /><polyline id="SvgjsPolyline1982" points="74.34,1.62 73.41,10.57 72.29,16.46 69.99,25.16 67.02,33.66 63.46,41.92 59.34,49.92 56.29,55.09 51.29,62.57 45.77,69.67 39.76,76.37 33.26,82.6 28.68,86.47 21.46,91.84 13.86,96.66 8.61,99.56 0.49,103.44"   /><polyline id="SvgjsPolyline1983" points="301.55,300 412.54,299.44 442.54,298.94 460.52,298.2 472.44,296.83 478.15,295.06 480.67,293.44 482.63,291.19 483.94,288.5 484.77,285.62 485.63,279.68 486,270.69 485.86,261.69 484.38,240.75 481.56,219.94 477.98,202.31 473.98,187.85 468.82,173.77 465.05,165.6 462.22,160.31 455.71,150.24 447.97,141.08 443.64,136.93 439.01,133.11 431.58,128.05 420.91,122.56 409.64,118.46 398.01,115.55 386.17,113.62"   /><polyline id="SvgjsPolyline1984" points="304.66,300.45 343.46,304.4 373.21,308.23 396.83,312.48 405.58,314.56 414.22,317.06 422.69,320.12 428.17,322.55 436.14,326.73 441.18,329.99 448.06,335.76 452.08,340.22 455.54,345.11 458.45,350.36 461.79,358.71 463.42,364.48 464.62,370.36 465.94,382.28 466.02,394.28 465,406.23 462.89,418.04 459.65,429.58 455.15,440.7 452.38,446.02 449.24,451.14 443.83,458.32 437.58,464.79 430.56,470.41 422.9,475.12 417.51,477.76 411.96,480.02 403.38,482.75 391.67,485.34"   /><polyline id="SvgjsPolyline1985" points="293.28,299.54 296.08,300.5 299.01,299.98 350,300.9 385.99,301.82 409.97,302.79 433.9,304.55 442.83,305.71 451.65,307.49 457.37,309.28 465.42,313.29 470.18,316.91 472.2,319.13 475.37,324.2 477.51,329.81 478.87,335.64 479.98,344.57 480.34,353.56 480.17,362.56 479.59,371.54 478.24,383.46 475.01,401.17 472.81,409.89 470.18,418.5 464.66,432.44 460.58,440.46 457.5,445.61 452.29,452.94 448.42,457.52 444.22,461.81 439.71,465.77 434.92,469.37 429.87,472.61 424.6,475.48 419.15,477.98 407.84,481.96 402.04,483.49 393.22,485.29 378.35,487.2 363.38,488.12 342.38,488.48 309.46,488.34"   /><polyline id="SvgjsPolyline1986" points="308.13,299.81 368.11,298.14 401.07,296.64 424.99,294.7 433.92,293.55 442.77,291.92 448.57,290.42 454.22,288.39 462.13,284.12 464.59,282.4 468.91,278.26 470.72,275.87 473.59,270.61 475.59,264.96 476.94,259.11 477.79,253.17 478.28,247.19 478.48,238.2 478.18,229.2 477.45,220.23 476.33,211.3 474.81,202.43 472.89,193.64 470.53,184.96 465.5,170.83 461.72,162.67 458.84,157.4 452.16,147.44 446.3,140.62 441.99,136.45 437.37,132.63 432.47,129.16 427.33,126.08 421.98,123.36 416.46,121.01 405.05,117.31 393.33,114.75 378.46,112.82 360.49,111.78"   /><polyline id="SvgjsPolyline1987" points="511.94,598.24 509.58,589.56 506.33,581.17 502.18,573.18 495.46,563.26 487.63,554.17 478.94,545.9 469.6,538.37 459.77,531.49 446.98,523.66 431.08,515.22 411.99,506.49 395.24,499.9 381,495.18 366.48,491.44 354.64,489.5 342.68,488.66"   /><polyline id="SvgjsPolyline1988" points="520.13,2.39 518.39,11.22 515.7,19.8 512.03,28.01 509.07,33.23 505.76,38.23 500.19,45.3 491.84,53.91 482.67,61.64 470.38,70.23 457.44,77.81 441.32,85.82 424.76,92.85 407.85,99.03 390.64,104.3 376.06,107.82 361.26,110.23 349.3,111.19"   /><polyline id="SvgjsPolyline1989" points="229.32,0.56 199.96,30.59 186.89,42.96 175.59,52.83 163.81,62.11 153.98,68.99 141.15,76.76 130.47,82.22 119.46,87 105.34,92.04 93.82,95.41 79.24,98.91 61.56,102.3 43.77,105 25.9,107.21 2.02,109.55"   /><polyline id="SvgjsPolyline1990" points="169.48,2.34 150.27,25.38 140.11,36.42 131.64,44.92 122.83,53.06 113.63,60.76 104.03,67.96 94.03,74.59 83.65,80.61 75.64,84.71 64.7,89.63 53.51,93.97 39.26,98.65 27.7,101.86 16.03,104.65 1.33,107.62"   /><polyline id="SvgjsPolyline1991" points="62.36,1.02 62.61,7.02 62.12,16 61.28,21.94 59.33,30.72 57.62,36.47 54.49,44.91 50.71,53.07 46.32,60.93 41.33,68.42 35.77,75.49 29.64,82.08 25.26,86.18 18.28,91.86 13.38,95.31 5.69,99.98 0.36,102.74"   /><polyline id="SvgjsPolyline1992" points="303.43,300.01 420.42,300.47 444.42,300.83 459.41,301.42 468.36,302.34 474.13,303.93 476.69,305.48 480.87,309.76 482.39,312.34 483.44,315.15 484.61,321.03 485.14,327 485.32,336 484.23,356.97 481.67,377.81 478.3,395.48 473.59,412.85 468.39,426.92 464.59,435.07 461.74,440.35 455.16,450.37 451.41,455.06 447.35,459.47 440.69,465.52 435.89,469.12 430.84,472.36 422.87,476.54 411.7,480.89 400.11,484 385.32,486.48"   /><polyline id="SvgjsPolyline1993" points="599.77,300 494.77,299.81 490.69,295.54 489.79,292.69 489.08,286.74 487.01,256.81 485.49,241.89 482.96,224.07 480.14,209.33 477.31,197.68 473.86,186.18 469.66,174.94 464.58,164.08 458.44,153.77 453.07,146.56 449.1,142.05 444.83,137.84 437.88,132.14 430.34,127.23 419.57,121.95 411.11,118.89 399.51,115.85"   /><polyline id="SvgjsPolyline1994" points="598.13,237.39 582.97,222.86 546.72,186.98 529.05,170.76 517.49,161.19 507.89,153.99 497.95,147.28 487.65,141.12 477.02,135.56 463.3,129.52 449.17,124.47 434.77,120.27 420.13,117.02 405.32,114.66 390.41,113.07 372.44,112"   /><polyline id="SvgjsPolyline1995" points="524.09,598.97 522.26,587.12 519.7,578.5 516.13,570.24 513.23,564.99 509.95,559.97 504.4,552.89 496.03,544.3 486.8,536.63 474.41,528.2 461.35,520.82 445.09,513.1 425.58,505.34 408.51,499.63 391.17,494.83 376.5,491.68 361.66,489.58 346.69,488.66"   /><polyline id="SvgjsPolyline1996" points="532.15,0.78 531.39,12.75 529.63,21.57 526.78,30.1 524.29,35.56 521.37,40.8 516.23,48.18 512.36,52.76 508.18,57.07 499.09,64.89 489.24,71.74 476.2,79.15 459.87,86.7 443.05,93.1 425.9,98.58 405.6,103.93 387.97,107.55 370.15,110.06 355.19,111.15"   /><polyline id="SvgjsPolyline1997" points="212.37,0.92 195.97,18.43 183.35,31.27 172.51,41.63 161.26,51.56 149.52,60.89 139.72,67.81 129.54,74.16 119,79.88 108.12,84.95 96.97,89.38 85.6,93.21 71.16,97.26 56.54,100.63 38.85,103.95 21.06,106.66 0.21,109.21"   /><polyline id="SvgjsPolyline1998" points="186.75,0.67 172.96,16.51 162.82,27.56 152.32,38.27 143.61,46.52 134.57,54.42 125.18,61.88 115.39,68.83 105.23,75.2 94.7,80.96 83.85,86.09 72.74,90.61 58.55,95.48 44.13,99.58 29.53,103.04 14.82,105.96 0.02,108.41"   /><polyline id="SvgjsPolyline1999" points="50.4,2.04 51.32,7.97 51.73,13.95 51.5,22.95 50.81,28.91 49.74,34.81 47.47,43.51 45.53,49.19 42.02,57.47 37.81,65.43 34.62,70.51 29.29,77.76 25.38,82.3 19,88.65 14.43,92.53 9.63,96.13 2.03,100.95"   /><polyline id="SvgjsPolyline2000" points="598.19,300.36 547.19,300.94 520.22,302.06 514.25,302.71 508.37,303.87 505.54,304.84 502.89,306.24 500.57,308.14 498.66,310.45 497.14,313.03 494.7,318.51 492.92,324.24 491.11,333.05 486.58,362.7 484,377.48 480.85,392.15 477.8,403.75 474.15,415.18 470.94,423.58 465.9,434.47 461.47,442.3 454.57,452.11 448.61,458.85 444.26,462.98 439.62,466.79 432.18,471.84 424.25,476.08 413.11,480.53 401.55,483.73 386.78,486.32"   /><polyline id="SvgjsPolyline2001" points="599.77,288 588.06,285.38 576.46,282.3 565.05,278.58 556.69,275.25 548.6,271.33 540.88,266.71 533.66,261.33 527.07,255.21 519.33,246.05 515.87,241.15 511.13,233.5 504.04,220.29 486.89,185.26 481.12,174.74 476.44,167.06 469.57,157.22 463.87,150.25 457.67,143.74 450.93,137.77 443.69,132.44 438.6,129.26 430.63,125.08 422.34,121.59 413.8,118.76 405.08,116.52 396.25,114.8 387.34,113.54"   /><polyline id="SvgjsPolyline2002" points="599.24,294.64 581.35,292.65 569.47,290.92 557.69,288.67 546.04,285.81 537.49,283 531.97,280.66 524.13,276.26 519.34,272.64 515.02,268.48 511.21,263.85 507.9,258.85 503.69,250.9 498.02,237.02 486.41,202.94 478.81,183.38 475.04,175.2 470.87,167.23 466.22,159.52 461.04,152.17 455.26,145.27 448.87,138.94 441.88,133.27 431.75,126.86 423.65,122.94 415.24,119.75 406.6,117.23 394.86,114.77"   /><polyline id="SvgjsPolyline2003" points="598.73,298 574.75,296.94 556.79,295.72 541.88,294.09 533.01,292.56 524.32,290.26 516.03,286.78 510.87,283.73 506.36,279.78 504.42,277.49 501.18,272.46 498.63,267.03 496.58,261.39 493.33,249.84 484.31,211.9 480.2,197.47 474.18,180.51 470.59,172.27 466.5,164.25 461.87,156.54 456.62,149.23 450.72,142.43 446.42,138.25 439.45,132.56 434.48,129.2 426.63,124.81 418.39,121.21"   /><polyline id="SvgjsPolyline2004" points="599.43,253.59 580.74,238.55 565.19,224.44 552.43,211.74 519.39,176.93 504.32,162.3 490.59,150.67 483.36,145.31 475.89,140.3 465.52,134.25 454.75,128.98 440.79,123.51 429.31,120.02 417.63,117.25 402.85,114.7 387.95,113.04 372.98,112.08"   /><polyline id="SvgjsPolyline2005" points="599.85,222.5 581.26,202.92 568.55,190.17 555.41,177.87 544.01,168.13 532.11,158.99 519.7,150.58 506.76,143 493.33,136.32 479.48,130.56 465.29,125.7 450.84,121.69 433.25,117.91 418.44,115.54 400.55,113.53 382.59,112.31 361.61,111.66"   /><polyline id="SvgjsPolyline2006" points="536.07,598.27 536.18,592.28 535.82,586.29 534.36,577.41 531.79,568.79 529.48,563.26 526.69,557.95 521.7,550.46 517.9,545.83 513.77,541.48 504.69,533.65 499.83,530.13 492.23,525.3 478.98,518.29 462.43,511.22 445.44,505.29 425.25,499.49 404.79,494.78 387.06,491.67 369.19,489.6 351.21,488.66"   /><polyline id="SvgjsPolyline2007" points="544.14,0.43 544.9,6.38 545.22,12.37 545.09,18.37 544.48,24.33 543.38,30.23 541.78,36.01 538.39,44.34 535.5,49.6 532.13,54.56 528.33,59.2 524.16,63.51 519.66,67.48 514.91,71.13 504.79,77.57 491.37,84.26 474.59,90.77 454.5,96.88 434.09,101.8 410.5,106.23 389.7,109.07 368.77,110.81 344.79,111.47"   /><polyline id="SvgjsPolyline2008" points="37.85,1.5 40.09,10.22 41.05,16.14 41.53,22.12 41.56,28.12 41.16,34.1 39.79,42.99 37.56,51.71 35.61,57.38 33.3,62.92 29.18,70.91 26,76 20.6,83.2 16.6,87.67 10.03,93.81 5.3,97.51 0.33,100.86"   /><polyline id="SvgjsPolyline2009" points="598.26,312.36 586.57,315.04 574.99,318.21 563.62,322.03 555.3,325.47 547.27,329.51 539.63,334.27 532.52,339.78 528.13,343.87 524.04,348.26 518.46,355.31 510.39,367.95 503.38,381.21 486.18,416.21 480.34,426.69 475.58,434.33 468.6,444.08 462.81,450.97 456.51,457.39 449.67,463.24 442.34,468.46 434.56,472.98 426.42,476.8 417.99,479.95 406.44,483.18 397.62,484.96 388.72,486.29 376.77,487.47"   /><polyline id="SvgjsPolyline2010" points="597.77,305.73 582.87,307.44 568.04,309.69 556.29,312.1 544.7,315.19 536.22,318.22 530.78,320.73 523.11,325.42 518.47,329.22 514.3,333.54 510.64,338.28 507.44,343.36 504.63,348.65 498.77,362.46 485.94,399.29 479.32,416.02 475.56,424.2 471.41,432.18 466.78,439.9 463.41,444.86 457.86,451.94 451.71,458.51 447.28,462.55 440.15,468.03 432.5,472.77 424.43,476.75 416.04,480 407.42,482.57"   /><polyline id="SvgjsPolyline2011" points="597.87,302.17 579.89,302.97 558.93,304.37 547,305.6 535.15,307.46 526.42,309.66 520.81,311.77 512.97,316.17 508.28,319.9 506.22,322.08 502.71,326.94 499.94,332.26 497.7,337.82 493.43,352.2 484.11,390.06 478.92,407.3 474.77,418.56 471.21,426.82 467.16,434.86 462.58,442.6 457.39,449.95 451.56,456.8 445.08,463.04 437.97,468.55 430.33,473.29 422.24,477.25 413.83,480.44 405.19,482.95"   /><polyline id="SvgjsPolyline2012" points="599.35,275.65 582.98,268.18 569.88,260.88 562.35,255.95 555.13,250.59 543.85,240.71 533.56,229.8 524.14,218.13 515.34,205.98 496.54,178.86 485.61,164.56 479.75,157.73 473.54,151.22 466.96,145.08 459.98,139.41 452.6,134.26 444.85,129.68 436.78,125.7 428.44,122.32 419.89,119.51 411.19,117.23 402.37,115.43 390.5,113.68"   /><polyline id="SvgjsPolyline2013" points="597.67,264.75 587.51,258.38 577.69,251.48 565.87,242.25 556.87,234.32 548.28,225.94 538.06,214.95 505.3,175.87 491.12,160.39 482.45,152.1 475.59,146.27 465.96,139.12 458.36,134.3 447.78,128.65 436.75,123.94 425.37,120.13 410.8,116.56 396.01,114.13 381.08,112.64 363.1,111.77 342.11,111.52"   /><polyline id="SvgjsPolyline2014" points="598.27,203.32 586.15,190.01 575.54,179.42 564.35,169.42 554.96,161.96 542.65,153.39 532.37,147.21 521.74,141.63 508.05,135.52 493.99,130.3 479.65,125.91 465.1,122.25 447.45,118.71 432.63,116.4 414.76,114.3 396.82,112.87 375.84,111.92"   /><polyline id="SvgjsPolyline2015" points="548.05,598.98 549.01,593.05 549.56,587.08 549.68,581.08 549.35,575.09 548.53,569.15 547.2,563.3 545.34,557.6 542.94,552.1 538.36,544.37 534.7,539.62 530.61,535.23 526.17,531.19 521.44,527.51 511.31,521.09 497.82,514.54 480.95,508.27 463.67,503.24 443.22,498.5 419.6,494.24 395.81,491.11 371.89,489.21 350.9,488.58"   /><polyline id="SvgjsPolyline2016" points="556.48,1.88 558.99,13.61 560.02,25.56 559.9,31.55 559.32,37.52 558.21,43.42 556.54,49.18 554.27,54.73 551.4,59.99 546.02,67.2 541.82,71.48 537.22,75.32 532.3,78.77 527.15,81.84 521.82,84.58 513.57,88.18 499.4,93.08 482,97.69 461.42,101.87 440.68,105.14 413.87,108.31 389.94,110.22 365.97,111.23"   /><polyline id="SvgjsPolyline2017" points="25.41,2.6 28.56,11.03 30.16,16.81 31.29,22.7 31.97,28.66 32.19,34.66 31.97,40.65 31.33,46.62 29.57,55.44 26.89,64.03 24.6,69.57 21.9,74.93 18.81,80.07 15.34,84.96 11.48,89.56 7.27,93.83 0.34,99.56"   /><polyline id="SvgjsPolyline2018" points="597.91,324.72 581.56,332.24 573.65,336.53 565.98,341.23 553.83,350.02 542.64,360 534.41,368.72 524.92,380.34 516.09,392.46 495.62,422.07 488.42,431.67 482.73,438.65 474.64,447.51 468.14,453.73 461.24,459.51 453.95,464.78 443.64,470.91 435.53,474.81 424.32,479.08 412.78,482.38 401.03,484.79 386.17,486.79 371.21,487.89 356.22,488.36"   /><polyline id="SvgjsPolyline2019" points="599.08,186.25 591.02,177.35 582.46,168.94 575.69,163.02 566.17,155.71 556.14,149.13 545.66,143.3 534.8,138.2 523.64,133.78 512.27,129.97 497.82,125.95 483.19,122.62 468.45,119.87 450.65,117.21 432.77,115.14 414.83,113.61 396.86,112.54"   /><polyline id="SvgjsPolyline2020" points="560.42,597.95 563.43,586.34 564.81,577.45 565.27,571.47 565.31,565.47 564.9,559.48 563.97,553.56 562.46,547.75 560.33,542.15 557.55,536.84 552.21,529.61 545.68,523.42 540.85,519.88 535.73,516.75 530.4,514 522.13,510.45 507.9,505.72 490.43,501.4 469.78,497.56 446.02,494.23 416.17,491.22 386.23,489.33 359.24,488.61"   /><polyline id="SvgjsPolyline2021" points="568.89,1.92 573.8,16.09 575.33,21.89 577.08,30.71 578.13,39.65 578.35,45.64 578.12,51.64 577.34,57.59 574.93,66.24 572.36,71.66 570.77,74.2 568.99,76.61 564.9,81 560.23,84.76 555.15,87.95 549.79,90.65 544.25,92.93 538.58,94.89 529.92,97.34 515.26,100.51 494.51,103.73 467.67,106.63 437.75,108.88 407.79,110.39 371.81,111.33"   /><polyline id="SvgjsPolyline2022" points="565.21,2.78 567.71,11.43 568.99,17.29 570.54,29.18 570.72,35.18 570.43,41.17 569.61,47.11 568.17,52.93 566.06,58.54 563.25,63.84 559.92,68.83 556.13,73.47 549.44,79.48 544.49,82.87 539.27,85.83 533.86,88.41 525.48,91.7 511.13,96.03 493.56,99.94 472.85,103.38 449.03,106.34 419.15,109.01 392.2,110.57 359.21,111.41"   /><polyline id="SvgjsPolyline2023" points="11.79,2.28 15.82,10.32 18.15,15.85 20.06,21.53 21.53,27.35 22.56,33.26 23.14,39.23 23.28,45.23 22.96,51.22 21.63,60.11 20.17,65.93 18.25,71.62 15.88,77.12 13.04,82.41 9.75,87.42 6.01,92.11 1.85,96.43"   /><polyline id="SvgjsPolyline2024" points="599.88,336.91 587.28,345.06 577.57,352.1 568.22,359.62 559.24,367.58 550.64,375.95 540.36,386.87 508.96,423.17 496.72,436.37 488.1,444.72 481.33,450.64 474.26,456.21 466.89,461.38 456.6,467.54 445.83,472.82 434.66,477.21 423.19,480.72 411.51,483.44 396.7,485.85 384.77,487.1 369.8,488.01"   /><polyline id="SvgjsPolyline2025" points="599.69,169.05 591.28,160.5 582.12,152.76 574.77,147.56 564.43,141.49 553.58,136.36 542.37,132.08 530.91,128.53 519.29,125.56 504.6,122.5 486.84,119.58 466.01,116.95 448.09,115.21 427.15,113.67 403.18,112.46 379.19,111.79 355.19,111.54"   /><polyline id="SvgjsPolyline2026" points="572.82,598.4 576.31,590.1 579.32,581.62 583.18,567.14 584.72,558.27 585.35,552.3 585.59,546.31 585.35,540.32 584.51,534.38 582.93,528.59 580.48,523.13 578.9,520.58 577.09,518.19 572.87,513.93 568.03,510.4 562.77,507.51 557.26,505.14 551.59,503.19 537.04,499.54 519.29,496.58 495.44,493.92 465.53,491.7 429.57,489.95 390.58,488.86 357.59,488.53"   /><polyline id="SvgjsPolyline2027" points="567.74,599.29 570.7,590.79 572.33,585.02 573.69,579.18 575.13,570.3 575.64,564.32 575.73,558.32 575.33,552.34 574.35,546.42 570.68,535.01 567.91,529.69 566.24,527.2 562.39,522.61 557.94,518.59 553.05,515.12 547.83,512.16 536.81,507.43 522.46,503.1 504.85,499.35 481.12,495.79 451.29,492.67 421.37,490.53 388.4,489.08 358.4,488.56"   /><polyline id="SvgjsPolyline2028" points="581.19,0.41 586.72,11.06 591.65,22 596.03,33.17 599.86,44.54"   /><polyline id="SvgjsPolyline2029" points="575.78,0.87 579.4,9.1 582.58,17.52 586.85,31.9 588.7,40.7 589.57,46.64 590.28,55.61 590.36,61.61 589.88,67.58 588.68,73.46 586.57,79.07 585.13,81.7 583.43,84.16 579.31,88.52 576.96,90.38 571.87,93.53 566.41,96.04 560.76,98.04 554.99,99.67 546.2,101.62 528.42,104.37 507.53,106.49 474.6,108.65 438.63,110.14 393.64,111.19 354.64,111.49"   /><polyline id="SvgjsPolyline2030" points="1.51,8.47 7.23,19 9.56,24.53 11.5,30.21 13.03,36.01 14.13,41.91 14.78,47.87 14.97,53.86 14.68,59.86 13.9,65.8 12.61,71.66 10.79,77.38 8.44,82.9 5.55,88.15 0.21,95.38"   /><polyline id="SvgjsPolyline2031" points="598.84,351.75 585.08,363.36 571.81,375.52 556.85,390.26 527.49,420.29 514.5,432.75 498.53,446.37 483.9,456.85 473.63,463.05 465.66,467.23 454.72,472.16 443.47,476.33 431.98,479.77 420.3,482.52 408.49,484.65 393.61,486.52"   /><polyline id="SvgjsPolyline2032" points="599.45,151.71 594.97,147.73 587.78,142.32 580.09,137.65 574.74,134.94 566.45,131.43 557.94,128.51 549.28,126.06 537.58,123.4 513.9,119.51 499.01,117.74 481.09,116.06 439.17,113.4 400.2,112.05"   /><polyline id="SvgjsPolyline2033" points="586.31,597.44 593.42,584.23 599.81,570.66"   /><polyline id="SvgjsPolyline2034" points="580.83,598.45 587.22,584.88 591.62,573.72 596.22,559.44 599.89,544.9"   /><polyline id="SvgjsPolyline2035" points="579.08,598.16 585.19,584.47 588.33,576.03 591.07,567.46 594.61,552.89 595.95,543.99 596.38,538.01 595.85,526.03 594.61,520.17 593.59,517.35 590.66,512.13 588.74,509.83 586.56,507.77 581.62,504.38 573.39,500.77 561.8,497.67 547.01,495.23 526.12,493.11 502.17,491.58 469.19,490.23 421.21,489.07 379.21,488.59"   /><polyline id="SvgjsPolyline2036" points="594.69,0.17 599.69,7.65"   /><polyline id="SvgjsPolyline2037" points="599.73,77.61 598.25,83.42 595.82,88.89 594.09,91.34 589.72,95.43 584.55,98.46 578.98,100.67 573.21,102.33 564.4,104.14 543.56,106.71 525.61,108.02 507.63,108.93 465.65,110.27 411.66,111.18"   /><polyline id="SvgjsPolyline2038" points="0.02,33.68 2.99,42.17 4.47,47.99 5.87,56.87 6.2,62.86 5.71,71.84 4.67,77.75 3.01,83.51 0.7,89.04"   /><polyline id="SvgjsPolyline2039" points="599.63,366.65 557.1,408.97 546.22,419.3 535.03,429.29 523.43,438.8 513.8,445.95 503.83,452.62 490.87,460.18 477.41,466.78 463.5,472.4 452.12,476.18 437.63,480.07 422.94,483.09 405.13,485.68 387.21,487.31 369.23,488.15"   /><polyline id="SvgjsPolyline2040" points="600,136.37 594.99,133.08 589.7,130.24 584.21,127.83 575.7,124.91 566.99,122.64 558.17,120.85 537.38,117.92 510.49,115.58 477.53,113.81 429.56,112.31 381.56,111.62"   /><polyline id="SvgjsPolyline2041" points="599.99,503.23 594.95,499.97 592.27,498.63 583.71,495.87 577.84,494.67 568.93,493.39 551,491.82 524.03,490.54 482.04,489.5 428.05,488.81 368.05,488.51"   /><polyline id="SvgjsPolyline2042" points="599.68,104.36 590.95,106.5 582.04,107.78 570.08,108.8 549.11,109.77 480.12,110.98 366.12,111.5"   /><polyline id="SvgjsPolyline2043" points="599.54,383.59 585.27,398.99 572.64,411.82 559.46,424.08 547.96,433.7 535.93,442.66 523.35,450.82 510.24,458.11 496.67,464.49 482.71,469.98 468.44,474.6 451.02,479.1 436.31,482.05 418.52,484.75 400.61,486.61 379.65,487.87 358.66,488.39"   /><polyline id="SvgjsPolyline2044" points="598.05,121.03 592.28,119.36 586.42,118.1 574.55,116.36 559.61,115.01 538.64,113.87 511.66,113 466.66,112.18 370.67,111.53"   /><polyline id="SvgjsPolyline2045" points="597.09,487.64 543.09,488.28 360.09,488.49"   /><polyline id="SvgjsPolyline2046" points="598.15,402.83 588.09,413.95 577.45,424.52 568.46,432.47 556.6,441.65 544.06,449.88 533.59,455.73 522.79,460.95 508.89,466.6 494.68,471.37 480.22,475.37 462.65,479.28 444.92,482.35 424.09,485.03 406.16,486.64 385.2,487.81 364.21,488.35"   /><polyline id="SvgjsPolyline2047" points="599.47,474.57 588.16,478.55 576.45,481.14 561.59,483.18 543.66,484.72 516.7,486.12 480.71,487.21 432.72,488.03 381.72,488.43"   /><polyline id="SvgjsPolyline2048" points="598.93,419.94 590.76,428.74 582.01,436.94 575.05,442.64 565.25,449.56 557.55,454.21 546.88,459.71 535.86,464.44 524.56,468.49 513.07,471.94 498.51,475.56 483.81,478.53 469.02,480.99 451.17,483.36 433.27,485.2 412.33,486.77 394.35,487.67"   /><polyline id="SvgjsPolyline2049" points="599.36,460.47 591.77,465.3 586.49,468.14 575.39,472.69 566.78,475.29 558.02,477.37 540.29,480.42 516.44,483.1 489.51,485.07 447.56,486.99 408.57,488"   /><polyline id="SvgjsPolyline2050" points="599.28,437.19 592.86,443.49 585.97,449.27 578.63,454.47 568.24,460.47 560.1,464.3 551.72,467.59 540.31,471.28 528.7,474.31 514.01,477.37 499.22,479.82 481.37,482.16 463.46,484.01 442.53,485.67 421.57,486.9 376.59,488.29"   /></g></svg>