<?xml version="1.0" standalone="no"?>
<svg id="SvgjsSvg1001" width="600" height="600" xmlns="http://www.w3.org/2000/svg" version="1.1" xmlns:xlink="http://www.w3.org/1999/xlink" xmlns:svgjs="http://svgjs.com/svgjs" class="svg-paper" viewBox="0 0 600 600"><title id="SvgjsTitle1168">x=cos(y)|y=min(y,cos(x))|dTest=0.0|sd=0.2|sm=0.2|ts=0.05 | generated with FlowLines</title><style>*{fill:none;stroke:#777}</style><g id="SvgjsG1169"><polyline id="SvgjsPolyline1170" points="0.08,330.91 7.44,336.08 14.19,342.03 20.15,348.76 25.13,356.25 28.99,364.37 31.67,372.96 33.2,381.82 33.7,390.8 33.34,399.79 32.27,408.73 30.64,417.58 28.59,426.34 23.62,443.63 6.88,494.97 3.59,506.51 0,521.08"   /><polyline id="SvgjsPolyline1171" points="0.56,318.53 14.56,323.9 20.01,326.4 27.95,330.64 37.92,337.3 42.56,341.11 46.89,345.25 52.72,352.1 56.08,357.07 58.96,362.33 61.33,367.84 63.19,373.55 64.53,379.39 65.38,385.33 65.83,394.31 65.43,403.3 63.82,415.19 61.32,426.92 55.58,447.12 43.33,484.15 38.01,501.34 33.37,518.73 30.22,533.4 27.84,548.2 26.12,566.12 25.61,581.11 26.06,599.1"   /><polyline id="SvgjsPolyline1172" points="0.37,345.78 4.31,350.3 9.43,357.7 12.25,362.99 14.56,368.52 16.35,374.25 17.63,380.11 18.43,386.05 18.81,395.04 18.58,401.04 17.63,409.98 14.83,424.71 10.11,442.08 0.8,470.6"   /><polyline id="SvgjsPolyline1173" points="2.69,324.73 13.23,330.47 20.63,335.58 25.25,339.4 29.56,343.58 35.3,350.5 38.69,355.45 41.73,360.63 45.34,368.86 47.1,374.59 48.35,380.46 49.12,386.41 49.45,392.4 49.38,398.4 48.64,407.36 47.26,416.26 44.69,427.98 38.89,448.15 22.18,499.5 17.46,516.87 14.21,531.51 11.34,549.28 9.88,564.2 9.24,582.19 9.6,597.18"   /><polyline id="SvgjsPolyline1174" points="1.28,306.75 25.04,310.1 30.93,311.22 36.71,312.82 42.33,314.92 47.78,317.44 53.03,320.34 60.54,325.29 67.61,330.86 74.22,336.96 80.35,343.55 85.95,350.59 90.92,358.09 93.7,363.41 96.92,371.8 98.41,377.61 99.73,386.51 100.05,392.5 99.97,398.5 98.83,410.44 96.65,422.24 93.74,433.88 90.36,445.39 77.2,485.28 71.91,502.48 67.33,519.88 63.71,537.51 61.56,552.36 60.28,567.3 59.84,582.29 60.2,597.29"   /><polyline id="SvgjsPolyline1175" points="1.05,312.98 18.39,317.79 32.4,323.13 37.83,325.68 45.7,330.03 50.73,333.31 57.89,338.76 62.41,342.7 68.58,349.25 72.2,354.03 75.38,359.12 78.06,364.48 80.23,370.07 81.88,375.84 83.03,381.72 83.87,390.68 83.79,399.68 82.52,411.61 80.26,423.39 77.3,435.01 73.88,446.52 61.63,483.54 55.46,503.61 50.93,521.03 47.89,535.72 45.65,550.55 44.26,565.48 43.72,580.47 44.13,598.46"   /><polyline id="SvgjsPolyline1176" points="0.31,365.96 2.34,371.6 4.42,380.35 5.2,386.3 5.55,395.29 5.31,401.28 4.35,410.23 2.8,419.09 0.07,430.77"   /><polyline id="SvgjsPolyline1177" points="1.25,329.12 11.2,335.81 17.98,341.72 23.99,348.42 29.02,355.87 32.94,363.96 35.67,372.53 37.25,381.38 37.8,390.36 37.48,399.35 36.44,408.29 34.84,417.15 32.8,425.91 27.85,443.22 15.61,480.25 9.42,500.31 4.2,520.65 0.3,541.28"   /><polyline id="SvgjsPolyline1178" points="2.63,294.83 17.58,293.72 26.54,294.44 32.42,295.64 40.99,298.37 49.2,302.04 57.04,306.46 64.51,311.47 73.94,318.89 82.78,327 91.02,335.72 98.59,345.03 105.34,354.95 109.69,362.82 112.02,368.35 114.54,376.98 115.94,385.87 116.3,391.85 116.26,397.85 115.18,409.8 113.05,421.61 110.18,433.26 106.81,444.77 92.74,487.52 87.53,504.74 83.06,522.18 80.08,536.88 77.9,551.72 76.58,566.66 76.11,584.65 76.59,599.64"   /><polyline id="SvgjsPolyline1179" points="1.59,282.87 10.42,281.15 16.4,280.75 22.4,280.97 31.27,282.45 39.85,285.12 48.09,288.75 55.96,293.11 65.94,299.76 75.41,307.13 86.6,317.11 95.07,325.61 105,336.85 112.32,346.36 118.9,356.39 123.1,364.34 126.18,372.79 128.1,381.58 128.96,390.53 128.69,402.52 127.16,414.42 124.71,426.16 121.61,437.76 102.28,497.71 97.47,515.06 94.14,529.68 91.15,547.43 89.36,565.34 88.82,580.32 89.22,598.32"   /><polyline id="SvgjsPolyline1180" points="1.92,270.44 10.73,268.62 16.71,268.21 22.7,268.49 31.54,270.15 40.05,273.05 48.18,276.9 55.95,281.43 65.85,288.22 77.6,297.54 90.97,309.58 103.65,322.35 113.65,333.53 122.99,345.26 129.81,355.14 134.21,362.98 137.49,371.35 139.6,380.09 140.4,386.04 140.75,392.03 140.55,401.02 139.15,412.94 136.8,424.7 133.77,436.31 129.4,450.66 114.46,496.27 109.59,513.6 106.19,528.21 103.1,545.94 101.21,563.84 100.56,581.82 101.05,599.81"   /><polyline id="SvgjsPolyline1181" points="2.08,258 10.82,255.92 16.8,255.46 22.79,255.8 31.57,257.72 39.95,260.99 47.91,265.18 55.51,269.99 65.21,277.05 79.09,288.51 92.39,300.64 107.31,315.41 121.59,330.81 131.28,342.26 140.3,354.24 144.85,361.99 148.27,370.31 150.52,379.02 151.41,384.95 151.84,390.94 151.73,399.93 150.44,411.86 148.16,423.64 145.19,435.26 140.85,449.62 125.03,498.1 120.23,515.45 116.92,530.08 113.96,547.83 112.2,565.74 111.67,583.73 112.1,598.72"   /><polyline id="SvgjsPolyline1182" points="1.83,245.55 10.42,242.91 16.37,242.24 22.36,242.61 28.2,243.94 33.82,246.04 41.81,250.17 49.36,255.05 58.97,262.24 75,275.81 92.59,292.13 111.8,311.11 128.38,328.46 140.4,341.85 149.87,353.48 154.53,361.17 158.06,369.44 160.43,378.11 161.39,384.04 161.89,390.01 161.87,399.01 160.67,410.94 158.45,422.74 155.53,434.37 151.22,448.74 135.38,497.22 130.55,514.55 127.2,529.17 124.59,543.94 122.57,561.83 121.78,579.8 122.15,597.8"   /><polyline id="SvgjsPolyline1183" points="0.7,233.15 5.96,230.27 11.58,228.19 17.51,227.44 23.43,228.32 29.02,230.49 34.25,233.42 41.62,238.58 48.65,244.2 66.57,260.16 92.55,285.08 124.39,316.88 149.36,342.81 155.39,349.48 160.63,356.8 164.81,364.76 166.95,370.36 169.2,379.07 170.08,385 170.5,390.99 170.39,399.98 169.1,411.91 166.81,423.69 163.84,435.31 159.5,449.67 144.54,495.28 139.63,512.59 136.18,527.19 133.02,544.91 131.07,562.8 130.34,580.78 130.77,598.77"   /><polyline id="SvgjsPolyline1184" points="0.84,219.41 6.15,212.16 7.46,209.46 8.16,206.55 7.94,203.58 6.91,200.76 5.42,198.16 1.86,193.33"   /><polyline id="SvgjsPolyline1185" points="2.07,221.34 8.69,215.24 11.13,213.5 14,212.69 16.95,213.15 19.71,214.31 24.88,217.34 29.68,220.94 34.22,224.85 47.37,237.15 68.81,258.13 155.76,345.13 161.61,351.96 164.98,356.92 167.88,362.17 171.27,370.5 173.5,379.22 174.63,388.14 174.66,400.13 173.35,412.05 171.05,423.83 168.07,435.45 163.73,449.81 147.91,498.29 143.12,515.64 139.82,530.27 136.87,548.03 135.12,565.94 134.61,580.93 135.05,598.92"   /><polyline id="SvgjsPolyline1186" points="207.13,15.77 22.52,200.26 16.72,201.41 13.95,200.32 9.23,196.64 0.48,188.42"   /><polyline id="SvgjsPolyline1187" points="270.43,269.98 275.46,266.7 280.25,263.09 284.77,259.14 288.94,254.84 294.46,247.73 297.55,242.6 300.24,237.23 302.56,231.7 304.45,226.01 305.84,220.17 306.69,214.23 306.94,208.24 306.59,202.25 304.99,193.41 303.28,187.66 301.12,182.06 298.59,176.62 294.18,168.78 290.9,163.75 285.57,156.5 275.73,145.19 264.88,134.84 253.05,125.62 245.47,120.77 240.21,117.9 234.77,115.36 229.17,113.23 223.4,111.56 217.52,110.42 208.55,109.77 199.58,110.47 193.7,111.65 187.94,113.33 182.34,115.47 176.9,118 166.54,124.03 156.85,131.11 147.84,139.03 137.56,149.95 130.25,159.45 123.95,169.66 121.28,175.03 119.01,180.58 117.18,186.3 115.86,192.15 114.94,201.09 115.37,210.07 117.08,218.9 118.87,224.63 121.1,230.2 123.73,235.59 128.29,243.34 135.36,253.04 139.24,257.61 145.46,264.11 149.85,268.2 156.8,273.92 166.72,280.65 171.97,283.56 177.41,286.1 183.02,288.22 188.79,289.85 194.69,290.94 200.66,291.45 209.65,291.09 227.35,287.87 244.77,283.37 258.91,278.37 267.12,274.69 272.44,271.9 282.53,265.43 287.23,261.7 291.63,257.62 295.67,253.19 299.3,248.42 303.88,240.67 306.45,235.25 308.64,229.67 311.05,221.01 312.24,212.09 312.06,203.1 310.56,194.24 308.91,188.47 306.8,182.85 301.49,172.1 298.4,166.96 293.32,159.54 283.9,147.86 273.52,137.04 262.28,127.12 250.15,118.31 239.74,112.35 234.28,109.85 228.66,107.76 222.89,106.12 217,105.02 208.02,104.45 199.06,105.23 193.19,106.46 187.45,108.18 181.86,110.35 176.43,112.9 166.06,118.94 156.33,125.95 145.02,135.8 134.69,146.67 127.21,156.05 120.63,166.08 115.23,176.78 113.1,182.39 111.43,188.15 109.93,197.02 109.66,203.01 109.98,209 111.54,217.86 113.23,223.61 116.59,231.96 120.78,239.92 125.63,247.5 131.03,254.7 136.9,261.52 143.18,267.96 149.86,273.99 156.92,279.57 164.37,284.61 172.23,289 177.69,291.48 186.19,294.41 192.04,295.74 197.99,296.51 203.98,296.68 221.94,295.51 239.87,293.85 254.75,292 269.55,289.59 281.3,287.15 292.92,284.14 304.33,280.43 315.42,275.86 323.43,271.77 328.57,268.68 333.51,265.27 338.19,261.52 385.04,215.03 389.45,210.98 390.21,208.14 393.09,208.42 391.87,205.75 388.19,201.03 371.65,183.64 286.94,98.65 227.31,39.48 218.53,31.3 213.8,27.62 211.09,26.34 208.12,26.04 205.19,26.65 199.83,29.3 194.92,32.75 187.98,38.48 176.88,48.57 138.17,86.22 85.17,139.28 57.98,167.24 43.86,182.78 40.09,187.45 36.66,192.37 34.07,197.77 33.4,200.68 33.29,203.68 33.72,206.64 35.42,212.39 36.62,215.14 41.33,222.79 46.86,229.9 62.84,247.8 87.81,273.73 119.53,305.65 162.28,347.74 166.04,352.41 170.86,360.01 173.46,365.41 176.38,373.92 178.16,382.73 178.89,391.7 178.72,400.69 177.35,412.61 175.02,424.38 172.01,436 167.65,450.35 151.84,498.83 147.82,513.28 144.41,527.89 141.29,545.61 139.38,563.51 138.71,581.49 139.18,599.48"   /><polyline id="SvgjsPolyline1188" points="191.68,1.74 196.37,5.49 201.55,8.49 204.39,9.44 207.37,9.39 210.18,8.38 212.76,6.84 219.79,1.23"   /><polyline id="SvgjsPolyline1189" points="185.48,1.94 188.54,7.09 189.63,9.89 190.2,12.83 190.18,18.82 189.61,21.76 187.27,27.27 182.3,34.77 172.7,46.29 154.29,66.04 122.8,98.18 86.67,134.18 65.18,155.11 47.64,171.49 36.2,181.19 28.84,186.36 23.48,189.04 20.61,189.89 17.64,190.25 14.65,190.03 11.74,189.29 8.97,188.16 1.31,183.45"   /><polyline id="SvgjsPolyline1190" points="165.48,273.88 170.64,276.95 175.99,279.65 184.38,282.89 193.13,284.99 202.08,285.78 211.05,285.2 219.84,283.29 231.19,279.39 242.18,274.59 252.63,268.7 259.95,263.47 268.88,255.46 274.8,248.7 278.24,243.78 281.29,238.61 285.18,230.5 288.1,222 289.86,213.18 290.3,204.2 289.39,195.25 287.21,186.53 283.94,178.15 279.75,170.19 273.03,160.26 265.26,151.12 256.59,142.82 247.11,135.47 239.49,130.7 231.43,126.71 222.96,123.67 214.17,121.78 205.2,121.18 196.24,121.95 187.48,123.99 181.82,125.99 176.34,128.43 165.95,134.41 156.35,141.6 149.68,147.63 145.49,151.93 139.64,158.76 136.05,163.57 129.74,173.77 127.11,179.16 124.89,184.74 122.47,193.4 121.28,202.31 121.44,211.3 122.93,220.17 124.6,225.93 126.76,231.53 129.33,236.95 132.27,242.17 139.09,252.04 146.94,261.11 155.67,269.33 165.22,276.6 175.55,282.68 181,285.18 186.63,287.25 195.36,289.41 204.31,290.31 213.29,289.84 225.09,287.68 239.67,284.18 253.98,279.69 267.83,273.95 278.38,268.24 288.19,261.35 292.73,257.42 296.94,253.15 302.55,246.12 307.16,238.4 312.02,227.43 314.54,218.8 315.85,209.91 315.8,200.91 315,194.97 312.77,186.26 309.49,177.88 305.4,169.87 300.69,162.2 293.66,152.48 283.97,141.03 273.47,130.33 264.54,122.32 255.12,114.88 245.17,108.18 234.62,102.47 226.29,99.09 220.54,97.38 214.66,96.19 205.7,95.5 196.73,96.2 187.96,98.2 179.51,101.29 168.81,106.7 158.73,113.2 149.19,120.47 137.95,130.41 127.46,141.12 117.77,152.57 109.12,164.82 103.24,175.27 100.78,180.74 98.7,186.37 97.09,192.14 96.02,198.05 95.52,207.02 96.4,215.97 98.56,224.7 101.78,233.1 107.32,243.74 113.9,253.77 121.24,263.25 131.24,274.43 139.8,282.84 148.83,290.74 155.92,296.28 165.85,303.02 173.68,307.46 179.09,310.03 184.67,312.23 204.87,317.97 218.97,323.06 229.84,328.13 240.14,334.28 244.99,337.81 249.59,341.67 253.88,345.86 257.81,350.39 261.33,355.25 264.39,360.41 268.03,368.63 270.51,377.27 271.54,383.18 272.1,389.15 272,401.14 270.6,413.06 268.24,424.82 265.21,436.43 260.83,450.78 245.89,496.39 241.02,513.72 237.63,528.33 234.55,546.06 232.67,563.96 232.02,581.94 232.52,599.93"   /><polyline id="SvgjsPolyline1191" points="226.08,287.29 237.71,284.32 249.13,280.65 260.25,276.14 268.28,272.09 275.95,267.38 283.11,261.94 289.61,255.72 295.26,248.72 299.87,241 302.45,235.59 304.66,230.01 307.09,221.35 308.32,212.44 308.19,203.45 306.76,194.58 304.16,185.97 300.61,177.7 294.72,167.25 285.97,155.08 278.12,146 267.42,135.5 255.77,126.05 245.76,119.46 235.07,114.02 226.61,110.95 217.83,108.99 208.87,108.3 199.9,108.95 191.11,110.86 182.63,113.87 171.9,119.22 161.85,125.76 152.45,133.21 141.63,143.59 133.77,152.66 126.77,162.39 120.85,172.83 118.42,178.31 116.4,183.96 114.31,192.71 113.48,201.66 113.67,207.65 114.44,213.6 116.62,222.33 118.68,227.96 121.14,233.43 127.1,243.84 130.51,248.77 136.08,255.84 142.13,262.5 146.41,266.7 150.88,270.71 157.92,276.31 167.96,282.87 173.26,285.68 178.75,288.11 184.4,290.11 190.21,291.61 199.12,292.82 208.11,292.69 222.96,290.56 240.61,287.06 257.95,282.25 271.97,276.93 280.07,273.01 285.28,270.05 290.31,266.78 295.11,263.18 301.77,257.13 307.61,250.29 312.46,242.72 317.65,231.91 320.46,223.36 321.68,217.49 322.3,211.53 322.02,202.54 320.38,193.7 317.57,185.16 313.85,176.96 307.84,166.58 300.96,156.76 291.46,145.15 281.19,134.22 270.24,123.98 260.98,116.35 251.22,109.37 240.9,103.26 232.73,99.48 224.2,96.63 215.37,94.94 206.39,94.61 200.41,95.16 191.62,97.06 183.14,100.05 175.01,103.91 164.72,110.07 154.99,117.09 145.78,124.78 134.95,135.15 126.86,144.02 119.36,153.38 112.61,163.29 108.19,171.13 104.51,179.34 101.77,187.91 100.21,196.76 99.98,205.75 100.58,211.72 102.53,220.5 104.44,226.18 106.77,231.71 112.43,242.29 119.12,252.24 126.6,261.62 136.84,272.58 147.98,282.62 157.52,289.89 165.08,294.78 173,299.04 181.3,302.5 187.03,304.27 192.9,305.52 222.64,309.46 240.33,312.77 251.99,315.6 260.63,318.12 269.14,321.05 277.47,324.44 285.57,328.37 293.33,332.91 300.66,338.13 305.23,342.01 309.5,346.23 315.19,353.19 318.44,358.23 321.21,363.55 323.47,369.11 325.21,374.85 326.44,380.72 327.19,386.67 327.5,392.66 327.41,398.66 326.25,410.6 324.06,422.4 320.33,436.92 315.94,451.26 301.01,496.88 296.16,514.22 292.79,528.83 289.74,546.57 288.12,561.48 287.31,579.46 287.65,597.45"   /><polyline id="SvgjsPolyline1192" points="244.48,282.02 258.47,276.63 266.55,272.66 271.74,269.66 281.51,262.7 285.99,258.72 290.13,254.38 293.87,249.69 297.16,244.67 301.28,236.67 303.56,231.12 305.4,225.42 306.74,219.57 307.53,213.62 307.72,207.63 307.31,201.65 306.32,195.73 304.8,189.93 302.81,184.27 300.42,178.77 296.2,170.82 293.03,165.73 287.83,158.38 282.18,151.38 276.14,144.71 265.29,134.36 258.32,128.67 251,123.43 243.31,118.76 237.97,116.02 232.46,113.65 226.79,111.7 218.02,109.71 212.06,109.09 206.06,109.05 197.13,110.11 191.29,111.51 185.6,113.38 174.69,118.36 164.46,124.63 159.6,128.14 152.62,133.82 141.81,144.22 133.99,153.31 128.68,160.57 125.45,165.63 119.95,176.28 117.77,181.87 116.06,187.62 114.87,193.5 114.24,199.46 114.42,208.45 115.27,214.39 116.67,220.22 118.56,225.92 120.89,231.45 123.59,236.8 128.25,244.5 133.53,251.79 137.34,256.42 141.36,260.87 147.77,267.19 154.61,273.04 159.4,276.65 166.93,281.57 172.19,284.45 177.63,286.97 183.26,289.06 189.03,290.67 194.94,291.74 200.91,292.22 206.91,292.11 215.83,290.94 227.64,288.82 239.35,286.2 248.04,283.84 256.6,281.08 265,277.86 273.17,274.09 278.45,271.24 286.04,266.4 290.81,262.76 295.29,258.78 299.44,254.45 303.19,249.76 306.49,244.75 311.86,234.03 313.99,228.43 315.65,222.66 316.77,216.77 317.29,210.79 317.19,204.8 316.48,198.84 315.2,192.98 313.42,187.26 308.62,176.27 305.73,171.01 300.92,163.4 291.92,151.41 279.87,138.05 273.42,131.78 266.69,125.8 259.68,120.16 252.36,114.92 244.72,110.17 239.43,107.35 231.18,103.76 225.47,101.9 219.63,100.53 213.69,99.73 207.69,99.54 201.71,99.95 195.8,100.94 189.99,102.46 181.57,105.6 170.89,111.06 163.29,115.88 153.67,123.06 144.61,130.92 134.06,141.57 126.29,150.71 119.26,160.44 114.6,168.14 110.63,176.21 107.54,184.65 105.53,193.42 104.8,202.38 105.06,208.37 106.54,217.24 109.17,225.84 112.76,234.1 118.69,244.52 125.63,254.3 135.41,265.67 146.22,276.06 155.57,283.58 165.56,290.22 176.23,295.69 181.82,297.86 187.57,299.58 196.42,301.16 244.37,303.15 280.27,305.8 295.18,307.45 310.03,309.57 324.78,312.28 336.47,315 348,318.32 356.5,321.28 367.54,325.97 375.51,330.14 383.12,334.95 390.23,340.46 396.69,346.72 402.31,353.73 405.52,358.8 408.23,364.15 410.43,369.73 412.12,375.49 413.29,381.37 414.17,390.32 414.23,396.32 413.66,405.3 411.29,420.11 407.71,434.67 403.4,449.04 387.56,497.51 382.74,514.85 379.41,529.48 376.4,547.22 374.81,562.13 374.04,580.11 374.43,598.11"   /><polyline id="SvgjsPolyline1193" points="253.41,278.61 261.64,274.97 266.97,272.21 277.11,265.8 281.83,262.11 286.26,258.07 290.35,253.67 294.02,248.93 297.24,243.87 300.01,238.55 303.48,230.25 305.25,224.52 306.51,218.66 307.2,212.7 307.3,206.7 306.79,200.72 305.72,194.82 304.13,189.04 302.07,183.4 298.27,175.25 295.33,170.02 290.42,162.48 281.16,150.69 270.82,139.83 264.14,133.8 257.12,128.17 249.75,123.01 244.63,119.89 236.62,115.79 231.07,113.51 225.36,111.68 219.51,110.35 210.57,109.41 204.57,109.53 198.61,110.24 192.75,111.5 187.02,113.26 181.44,115.46 176.02,118.05 165.71,124.18 160.81,127.64 153.78,133.25 142.88,143.55 133.13,154.94 126.34,164.82 120.72,175.42 118.48,180.98 116.68,186.71 114.97,195.53 114.55,201.52 114.73,207.51 116.08,216.4 117.66,222.19 119.7,227.83 122.16,233.3 124.99,238.59 128.13,243.7 133.35,251.03 139.11,257.94 143.21,262.32 147.51,266.51 154.32,272.39 164.05,279.4 174.54,285.21 180.06,287.55 185.76,289.44 191.59,290.82 197.54,291.64 203.53,291.87 209.51,291.49 221.36,289.55 233.1,287.11 250.45,282.32 258.93,279.31 267.21,275.78 275.21,271.67 280.35,268.57 287.65,263.32 292.18,259.39 296.38,255.1 300.19,250.47 303.55,245.51 306.46,240.26 309.02,234.83 311.19,229.24 312.9,223.49 314.09,217.61 314.69,211.64 314.68,205.65 314.06,199.68 312.87,193.8 311.17,188.05 309.02,182.45 306.5,177.01 302.13,169.14 293.65,156.77 288.01,149.77 282.02,143.05 275.73,136.61 269.14,130.48 262.26,124.68 255.07,119.27 247.56,114.32 242.35,111.34 234.23,107.46 228.61,105.36 222.84,103.73 216.95,102.62 210.97,102.1 204.98,102.17 199.02,102.85 193.15,104.08 187.4,105.82 181.81,107.99 176.39,110.54 168.55,114.96 156.26,123.56 144.89,133.33 138.5,139.67 132.46,146.34 123.28,158.19 118.43,165.77 115.55,171.03 113,176.47 110.85,182.06 109.15,187.82 107.98,193.7 107.29,202.66 107.58,208.66 108.46,214.59 109.87,220.42 111.76,226.11 116.76,237.01 123.02,247.24 132.18,259.11 142.51,269.97 153.89,279.75 158.72,283.3 166.29,288.16 174.26,292.34 179.79,294.66 185.48,296.55 191.32,297.94 197.25,298.78 203.25,299.03 233.24,298.37 263.22,297.24 287.17,295.8 305.11,294.26 325.97,291.86 346.69,288.45 361.32,285.17 378.6,280.12 387.42,278.37 396.4,278 402.37,278.55 408.26,279.69 414.01,281.38 419.62,283.53 430.33,288.91 442.89,297.11 454.66,306.39 467.92,318.57 480.24,331.68 486.02,338.58 491.48,345.73 499.66,358.3 502.42,363.62 504.67,369.18 506.4,374.92 507.63,380.8 508.37,386.75 508.67,392.74 508.58,398.74 507.81,407.7 505.84,419.54 502.29,434.11 497.09,451.34 485.74,485.5 481.3,499.83 477.32,514.29 473.95,528.91 470.9,546.64 469.29,561.55 468.48,579.53 468.83,597.53"   /><polyline id="SvgjsPolyline1194" points="262.39,276.12 273.03,270.58 282.94,263.82 287.51,259.94 291.76,255.7 295.62,251.12 299.05,246.2 302.01,240.98 305.75,232.8 307.74,227.14 309.25,221.33 310.21,215.41 310.58,209.43 310.35,203.43 309.52,197.49 308.15,191.65 306.29,185.95 304.01,180.4 299.93,172.38 296.85,167.24 291.77,159.81 286.25,152.7 280.33,145.92 274.08,139.45 267.5,133.31 255.81,123.92 248.35,118.89 243.17,115.86 235.09,111.91 229.49,109.75 223.74,108.05 217.86,106.87 208.9,106.17 199.93,106.82 194.04,107.97 188.27,109.62 182.66,111.73 177.2,114.23 166.8,120.19 161.84,123.57 154.7,129.05 143.59,139.12 133.51,150.22 128.03,157.35 124.66,162.32 118.76,172.76 116.33,178.24 114.32,183.89 112.21,192.64 111.51,198.59 111.39,204.59 112.33,213.53 113.64,219.39 115.46,225.1 117.71,230.66 121.79,238.68 124.91,243.81 130.08,251.17 133.81,255.87 139.8,262.58 146.21,268.9 153.02,274.78 160.24,280.16 165.27,283.42 173.16,287.75 178.64,290.17 184.3,292.17 190.11,293.67 196.03,294.63 202.01,295.01 210.99,294.5 228.88,292.46 243.7,290.19 255.48,287.89 267.14,285.06 275.77,282.51 287.05,278.42 295.26,274.75 303.18,270.47 308.23,267.24 315.45,261.87 322.2,255.92 326.28,251.52 331.71,244.35 336.62,236.81 340.94,228.92 343.34,223.42 345.22,217.73 346.76,208.87 346.88,205.88 346.47,199.89 345.29,194.02 343.43,188.31 341.04,182.81 338.26,177.5 330.12,164.9 324.72,157.71 317.12,148.42 303.1,132.79 284.14,113.57 266.48,97.32 250.22,84.04 242.9,78.8 235.3,73.99 230.03,71.12 224.58,68.62 218.92,66.62 213.08,65.26 207.12,64.65 201.13,64.88 195.22,65.91 189.48,67.64 181.24,71.24 173.41,75.67 163.48,82.41 153.99,89.76 144.82,97.49 131.51,109.61 118.64,122.19 106.18,135.18 96.17,146.35 86.62,157.92 79.5,167.57 74.62,175.13 70.34,183.05 67.98,188.56 65.48,197.2 64.71,203.14 64.76,209.14 65.64,215.07 67.23,220.85 69.42,226.44 72.05,231.83 76.61,239.58 81.68,247.02 87.11,254.2 96.68,265.74 108.76,279.09 119.19,289.87 132.08,302.43 143.15,312.54 152.27,320.34 161.7,327.77 176.34,338.23 180.9,342.13 185.15,346.36 190.83,353.33 195.51,361.01 199.07,369.27 200.79,375.01 202.44,383.86 203.04,392.83 202.76,401.83 201.3,413.73 198.89,425.48 195.83,437.09 191.43,451.43 176.5,497.04 171.66,514.38 168.3,529 165.26,546.74 163.65,561.65 162.85,579.63 163.21,597.62"   /><polyline id="SvgjsPolyline1195" points="300.59,248.3 305.15,240.55 307.72,235.13 309.91,229.55 312.31,220.88 313.48,211.97 313.29,202.98 311.77,194.12 309.09,185.53 305.48,177.29 299.55,166.86 292.68,157.03 283.07,145.51 272.56,134.82 261.21,125.03 251.5,117.98 241.17,111.87 235.76,109.28 230.19,107.06 221.54,104.6 215.62,103.62 206.64,103.26 200.66,103.77 191.85,105.59 183.35,108.51 175.2,112.32 167.41,116.84 159.99,121.92 150.61,129.41 141.83,137.58 133.66,146.37 126.19,155.75 119.59,165.77 115.39,173.72 112.01,182.06 110.31,187.81 108.76,196.67 108.52,205.66 109.11,211.63 110.25,217.52 112.92,226.11 116.53,234.34 120.92,242.2 125.93,249.68 133.39,259.07 141.61,267.8 148.23,273.9 155.22,279.56 162.6,284.72 170.37,289.26 178.53,293.03 187.07,295.84 192.94,297.09 198.9,297.77 204.9,297.85 234.86,296.37 255.8,294.75 276.67,292.41 294.44,289.59 306.19,287.15 314.92,284.95 326.39,281.43 334.81,278.27 348.46,272.06 353.7,269.15 366.46,261.25 371.78,258.49 377.3,256.14 383.02,254.33 388.91,253.2 391.89,252.93 397.89,253.02 406.72,254.67 415.16,257.78 425.74,263.42 438.12,271.89 452.14,283.17 465.55,295.17 482.75,311.91 497.19,327.15 507.08,338.43 516.44,350.15 521.53,357.56 524.37,362.85 526.7,368.38 529.21,377.01 530.6,385.9 531,394.88 530.54,403.87 529.39,412.8 527.71,421.64 525.61,430.39 520.57,447.67 503.86,499.01 499.11,516.37 495.84,531.01 492.93,548.77 491.44,563.69 490.77,581.68 491.26,599.67"   /><polyline id="SvgjsPolyline1196" points="258.99,278.07 267.17,274.34 272.47,271.52 282.51,264.97 287.17,261.19 291.53,257.07 295.52,252.59 299.09,247.77 302.19,242.64 306.1,234.54 308.24,228.93 309.91,223.17 311.05,217.28 311.61,211.31 311.57,205.31 310.92,199.35 309.71,193.47 308,187.73 305.84,182.13 301.92,174.03 298.92,168.84 293.95,161.33 284.69,149.54 278.64,142.88 272.26,136.54 265.57,130.52 258.56,124.87 251.22,119.67 246.13,116.48 238.2,112.25 232.69,109.86 227.03,107.89 221.22,106.41 212.3,105.21 203.31,105.35 197.37,106.18 191.53,107.55 185.83,109.41 180.28,111.7 169.69,117.31 159.74,124.02 148.18,133.56 137.59,144.18 128.08,155.77 123.02,163.21 119.97,168.38 117.24,173.72 114.88,179.24 112.95,184.92 111.51,190.74 110.39,199.66 110.6,208.65 111.46,214.58 112.88,220.41 114.77,226.1 118.4,234.34 121.25,239.61 126.09,247.2 131.48,254.4 137.35,261.23 143.63,267.66 150.32,273.69 155,277.45 162.33,282.65 170.07,287.24 175.46,289.88 181.02,292.13 189.66,294.63 195.58,295.63 201.56,296.05 210.55,295.65 231.45,293.71 246.33,291.81 261.13,289.35 275.78,286.14 287.33,282.9 298.64,278.9 306.89,275.31 314.86,271.12 322.43,266.26 329.47,260.66 333.78,256.49 341.58,247.37 348.89,237.86 353.83,230.34 358.17,222.46 361.36,214.06 362.01,211.13 362.47,205.16 361.78,199.2 361.04,196.3 358.93,190.69 354.7,182.75 346.11,170.46 334.64,156.59 320.54,141.03 297.59,117.32 273.98,94.27 254.02,76.09 244.82,68.38 237.7,62.88 230.29,57.77 225.13,54.71 219.73,52.1 214.06,50.14 208.16,49.12 205.16,49.03 202.17,49.24 196.31,50.46 187.99,53.87 180.22,58.41 170.47,65.39 161.15,72.95 147.65,84.85 132.33,99.22 115.2,116.03 100.49,131.01 88.12,144.09 76.09,157.48 68.38,166.68 61.12,176.23 56.2,183.76 52.1,191.76 50.15,197.43 49.12,203.33 49.23,209.32 49.72,212.28 50.46,215.19 52.57,220.8 55.28,226.15 58.4,231.28 67.24,243.39 74.89,252.63 84.85,263.85 111.79,292.05 139.7,319.28 150.73,329.44 164.31,341.26 170.67,347.62 176.17,354.74 179.28,359.87 181.89,365.27 184.84,373.76 186.64,382.57 187.38,391.54 187.22,400.53 185.87,412.45 183.55,424.22 180.55,435.84 176.19,450.19 160.38,498.68 156.35,513.13 152.93,527.73 149.81,545.45 147.89,563.35 147.2,581.33 147.66,599.32"   /><polyline id="SvgjsPolyline1197" points="192.73,111.79 187,113.56 181.42,115.76 170.77,121.27 165.7,124.49 158.42,129.77 147.12,139.62 136.91,150.6 131.38,157.7 128,162.65 122.1,173.09 119.67,178.58 117.68,184.24 116.17,190.04 115.21,195.96 114.86,204.95 115.85,213.89 117.21,219.73 119.06,225.44 121.35,230.98 124.03,236.35 130.35,246.54 137.73,256 143.83,262.61 148.15,266.77 154.99,272.62 159.79,276.22 169.95,282.59 175.31,285.28 180.86,287.56 186.58,289.38 192.43,290.69 201.38,291.57 210.36,291.1 228.06,287.84 242.6,284.19 256.82,279.43 262.38,277.16 270.49,273.28 280.77,267.1 285.6,263.54 290.15,259.63 294.37,255.36 298.2,250.75 303.11,243.22 308.23,232.38 310.2,226.71 311.68,220.9 312.61,214.97 312.94,208.98 312.29,200.02 311.14,194.13 309.47,188.37 307.36,182.75 304.86,177.3 298.94,166.87 290.21,154.67 280.4,143.34 269.69,132.84 258.13,123.29 248.23,116.51 237.7,110.78 232.18,108.42 226.5,106.49 220.68,105.05 214.75,104.15 205.76,103.93 196.84,105.03 191.01,106.46 185.32,108.36 179.79,110.68 171.8,114.81 164.18,119.59 159.29,123.07 147.73,132.63 141.25,138.86 135.12,145.45 125.79,157.19 120.85,164.71 117.9,169.93 115.27,175.33 113.03,180.89 111.24,186.62 109.95,192.47 109.08,201.42 109.25,207.42 110,213.37 111.31,219.22 113.11,224.95 115.34,230.51 117.96,235.91 120.9,241.14 125.84,248.66 135.2,260.37 145.75,271.03 152.59,276.87 157.36,280.5 167.43,287.03 172.73,289.84 178.21,292.28 183.85,294.31 189.65,295.85 198.55,297.13 204.55,297.25 210.54,296.96 237.48,295.12 258.36,292.94 276.17,290.32 290.88,287.41 302.51,284.46 313.94,280.82 322.33,277.55 330.48,273.73 338.3,269.29 345.68,264.15 354.97,256.55 364.61,249.41 369.67,246.19 377.56,241.85 383.09,239.54 388.89,238.02 394.86,237.55 400.81,238.25 403.71,238.99 409.33,241.1 414.68,243.81 419.8,246.94 431.91,255.77 447.92,269.36 474.15,294.01 499.53,319.54 521.95,343.75 527.79,350.6 531.29,355.48 534.32,360.65 536.86,366.08 538.88,371.73 540.38,377.54 541.38,383.45 542.03,392.42 541.96,398.42 541.22,407.39 539.27,419.23 535.75,433.8 530.55,451.04 515.62,496.65 510.76,513.98 507.38,528.6 504.74,543.36 502.68,561.24 501.85,579.22 502.18,597.21"   /><polyline id="SvgjsPolyline1198" points="309.47,226.54 311.46,217.77 312.15,208.8 311.48,199.83 309.53,191.05 306.51,182.58 301.17,171.84 294.71,161.73 287.42,152.21 279.47,143.22 268.71,132.77 257.09,123.3 247.14,116.61 236.53,111.01 228.14,107.77 222.36,106.18 216.45,105.13 207.47,104.64 198.52,105.5 192.66,106.77 186.93,108.54 181.35,110.75 175.94,113.33 165.6,119.42 155.9,126.48 144.64,136.37 134.35,147.28 125.2,159.16 118.95,169.4 115.1,177.52 113.03,183.15 111.43,188.94 110.04,197.82 109.97,206.81 111.23,215.72 113.67,224.37 115.87,229.95 118.45,235.37 122.93,243.17 126.27,248.15 131.72,255.32 137.63,262.1 143.96,268.5 150.67,274.49 157.78,280.01 162.73,283.39 170.5,287.94 175.9,290.55 181.48,292.76 187.21,294.51 193.08,295.74 199.04,296.41 205.04,296.48 214.02,295.89 231.96,294.36 246.86,292.67 261.69,290.46 273.48,288.22 285.16,285.47 296.67,282.07 307.91,277.87 316.08,274.11 321.36,271.27 328.95,266.43 336.01,260.85 340.33,256.69 352.64,243.56 362.5,232.26 367.98,225.13 371.18,220.05 372.51,217.36 373.56,214.55 374.22,211.63 374.65,205.65 374.41,202.66 372.72,196.92 369.99,191.58 364.93,184.14 357.39,174.82 349.44,165.83 326.77,141.84 295.15,109.83 269.5,84.57 245.51,61.91 231.9,50.13 222.27,42.98 217.1,39.95 214.37,38.7 208.61,37.06 205.62,36.85 202.64,37.1 199.72,37.78 194.18,40.07 189.02,43.12 181.74,48.42 174.8,54.14 154.82,72.29 135.38,91.03 109.81,116.37 84.55,142.03 67.99,159.4 55.91,172.74 48.24,181.97 42.97,189.26 39.94,194.43 38.69,197.16 37.06,202.92 36.85,205.91 37.11,208.89 37.78,211.81 38.8,214.63 41.54,219.97 48.43,229.78 56.11,239 64.13,247.93 88.95,274 127.04,312.28 159.41,343.54 163.54,347.88 169.01,355.03 172.09,360.17 175.77,368.38 177.57,374.1 179.33,382.92 180.04,391.89 179.85,400.88 178.47,412.8 176.12,424.56 173.1,436.18 169.65,447.67 153.79,496.14 148.91,513.46 145.51,528.07 142.41,545.8 140.51,563.69 139.85,581.68 140.33,599.67"   /><polyline id="SvgjsPolyline1199" points="212.76,296.38 242.65,293.88 257.54,292.04 269.39,290.17 281.17,287.87 292.83,285.03 301.46,282.47 309.94,279.47 315.5,277.21 323.62,273.33 331.4,268.82 336.35,265.43 341.05,261.7 365.43,239.47 372.45,233.83 377.37,230.41 382.65,227.56 385.46,226.52 388.38,225.86 394.36,225.43 397.35,225.68 403.09,227.36 410.98,231.68 418.26,236.97 429.73,246.62 445.19,260.83 462.49,277.47 490.2,304.91 513.37,328.41 531.98,347.97 537.43,355.12 540.5,360.28 544.17,368.49 546.67,377.13 548.05,386.01 548.43,395 547.96,403.99 546.81,412.91 545.11,421.75 543.01,430.5 537.97,447.78 521.26,499.12 516.51,516.48 513.25,531.12 510.75,545.91 508.86,563.81 508.21,581.8 508.7,599.79"   /><polyline id="SvgjsPolyline1200" points="582.53,14.89 581.05,17.39 577.18,21.97 564.7,34.94 422.6,177.09 405.29,193.72 402.98,195.63 397.95,198.89 395.14,199.91 392.18,199.62 389.51,198.28 387.07,196.53 380.28,190.63 371.59,182.35 335.32,146.5 256.85,67.99 229.46,40.23 217.16,27.09 213.47,22.37 212.04,19.73 211.55,16.8 212.41,13.95 213.98,11.4 217.76,6.74 223.85,0.12"   /><polyline id="SvgjsPolyline1201" points="173.15,0.68 175.25,6.29 176.61,12.14 177.06,18.11 176.81,21.09 175.43,26.93 173.15,32.47 170.28,37.74 167.03,42.78 161.7,50.03 148.21,66.12 127.8,88.1 104.65,111.62 80.96,134.59 63.22,150.76 49.36,162.23 42.07,167.51 37,170.72 31.7,173.52 26.11,175.69 20.24,176.92 17.25,177.08 14.26,176.91 8.39,175.69 0.12,172.17"   /><polyline id="SvgjsPolyline1202" points="172.27,263.98 180.12,268.37 185.64,270.72 191.35,272.54 197.22,273.77 203.19,274.38 209.19,274.33 218.08,273.05 223.86,271.43 229.45,269.26 237.43,265.1 242.44,261.81 249.46,256.19 255.84,249.84 259.7,245.25 264.84,237.87 267.76,232.63 270.22,227.16 272.17,221.49 273.54,215.65 274.3,209.7 274.4,203.7 273.85,197.73 272.67,191.85 270.9,186.12 268.59,180.58 265.81,175.27 260.86,167.76 257.1,163.08 253.02,158.69 246.34,152.66 239.04,147.4 233.86,144.38 228.44,141.81 222.81,139.74 217.01,138.23 211.08,137.32 205.09,137.07 199.1,137.47 193.2,138.51 187.43,140.15 181.84,142.34 176.48,145.01 168.88,149.83 164.14,153.51 159.68,157.52 153.54,164.1 149.86,168.83 145.04,176.43 142.36,181.79 140.17,187.38 138.52,193.14 137.48,199.05 137.07,205.03 137.32,211.02 138.21,216.95 139.72,222.76 141.79,228.39 144.36,233.81 147.37,238.99 150.78,243.93 154.55,248.59 160.81,255.06 165.34,258.99 170.15,262.57"   /><polyline id="SvgjsPolyline1203" points="293.14,249.06 297.8,241.37 300.4,235.96 302.63,230.39 304.41,224.66 305.68,218.8 306.52,209.85 306.01,200.87 304.22,192.06 301.33,183.54 296.11,172.75 293.03,167.6 287.94,160.17 278.44,148.58 267.87,137.94 256.31,128.38 248.91,123.28 243.76,120.2 238.44,117.43 232.94,115.02 227.28,113.03 221.48,111.53 212.57,110.3 203.58,110.4 197.63,111.21 191.79,112.55 186.08,114.39 180.53,116.67 169.94,122.29 160.03,129.06 148.6,138.76 138.27,149.63 130.91,159.1 124.57,169.28 120.67,177.38 118.57,183.01 116.95,188.78 115.54,197.66 115.45,206.65 116.13,212.61 117.37,218.48 120.17,227.03 122.58,232.52 125.37,237.84 131.86,247.92 139.39,257.26 143.48,261.65 149.99,267.86 159.34,275.37 169.46,281.81 177.54,285.75 183.16,287.86 188.93,289.48 197.82,290.89 203.81,291.08 209.79,290.67 224.54,287.97 241.98,283.51 250.52,280.69 258.9,277.4 269.68,272.14 279.81,265.72 284.53,262.01 288.95,257.96 293.02,253.56 296.69,248.81 301.32,241.1 303.91,235.69 306.12,230.12 307.89,224.38 309.14,218.52 309.94,209.56 309.39,200.59 307.55,191.78 304.62,183.28 299.37,172.5 296.29,167.35 291.22,159.92 281.78,148.26 275.63,141.7 269.14,135.46 257.61,125.88 250.23,120.72 245.12,117.59 234.39,112.24 228.77,110.14 223,108.5 214.12,107.05 205.13,106.91 199.17,107.57 193.3,108.78 184.73,111.52 173.87,116.6 163.68,122.92 151.84,132.13 141.01,142.49 131.25,153.88 124.4,163.73 119.98,171.57 117.46,177.01 115.35,182.62 113.07,191.32 112.04,200.26 112.34,209.24 113.93,218.09 115.64,223.84 117.8,229.44 123.26,240.11 126.46,245.19 131.74,252.47 141.63,263.74 152.7,273.85 159.89,279.27 164.9,282.56 175.48,288.21 181.04,290.46 186.76,292.26 195.59,293.97 201.57,294.38 207.57,294.2 219.49,292.86 234.34,290.71 254.92,286.57 266.5,283.43 275.04,280.6 288.86,274.78 296.78,270.51 301.84,267.29 309,261.84 313.41,257.77 317.46,253.35 321.11,248.59 327.35,238.34 330.03,232.98 332.31,227.43 334.76,218.78 335.77,209.85 335.16,200.88 333.09,192.13 329.85,183.74 324.27,173.12 319.42,165.54 314.16,158.24 302.79,144.29 288.46,128.94 273.21,114.52 259.34,103.05 252.06,97.75 244.51,92.86 233.9,87.26 228.35,85 222.62,83.22 216.75,82 207.78,81.41 198.83,82.32 190.13,84.58 178.99,89.04 171.01,93.19 163.37,97.93 153.62,104.93 142.04,114.46 131.01,124.63 118.48,137.54 108.67,148.89 99.64,160.86 93.2,170.98 87.83,181.71 84.83,190.19 83.01,198.99 82.59,204.97 83.21,213.94 85.24,222.7 88.41,231.12 92.43,239.16 98.76,249.36 105.83,259.05 115.43,270.57 127.77,283.68 140.87,296.02 152.39,305.62 162.07,312.7 169.66,317.53 177.58,321.8 188.5,326.79 196.4,331.08 203.92,336.03 210.91,341.7 215.19,345.89 219.12,350.42 224.23,357.83 228.25,365.87 231.11,374.4 232.83,383.22 233.51,392.19 233.29,401.19 231.88,413.1 229.51,424.86 226.48,436.47 222.1,450.82 206.3,499.31 201.56,516.67 198.31,531.31 195.43,549.08 193.95,564 193.31,581.99 193.81,599.98"   /><polyline id="SvgjsPolyline1204" points="291.15,251.74 296.21,244.31 301.46,233.53 303.49,227.88 305.06,222.09 306.38,213.2 306.37,204.21 305.05,195.31 302.54,186.68 300.32,181.1 297.72,175.7 291.61,165.38 282.63,153.37 276.67,146.63 270.34,140.23 259.01,130.41 251.73,125.11 246.68,121.88 236.06,116.31 230.49,114.08 224.77,112.29 215.94,110.59 209.95,110.17 203.96,110.35 195.07,111.71 189.28,113.28 183.64,115.32 172.85,120.56 162.76,127.03 157.96,130.64 151.09,136.45 140.5,147.06 132.89,156.34 126.23,166.31 123.34,171.57 120.81,177.01 118.68,182.61 117.03,188.38 115.56,197.25 115.41,206.24 116.58,215.16 118.97,223.83 121.15,229.42 123.72,234.84 129.88,245.13 137.13,254.68 141.1,259.18 147.44,265.56 156.58,273.34 166.48,280.11 171.71,283.04 177.14,285.6 182.74,287.74 188.5,289.4 197.38,290.87 203.37,291.11 209.36,290.74 224.11,288.09 241.56,283.66 250.11,280.87 258.5,277.61 266.65,273.81 271.92,270.93 281.87,264.25 286.48,260.4 290.77,256.21 296.48,249.26 301.17,241.59 306.05,230.64 307.86,224.92 309.16,219.06 310.04,210.11 309.57,201.13 307.81,192.32 304.94,183.79 299.75,172.98 296.69,167.82 291.65,160.36 282.26,148.67 271.86,137.87 260.54,128.03 248.3,119.38 237.77,113.63 232.26,111.27 226.58,109.34 217.8,107.38 208.84,106.69 202.85,106.99 196.91,107.86 188.22,110.16 182.61,112.27 177.15,114.78 166.75,120.75 159.39,125.91 154.67,129.63 145.72,137.61 135.45,148.54 128.09,158.01 121.69,168.15 118.94,173.48 116.55,178.99 113.8,187.55 112.21,196.4 111.94,205.39 112.99,214.32 114.37,220.16 116.25,225.85 118.56,231.39 121.25,236.75 124.26,241.94 129.3,249.4 132.96,254.15 138.85,260.95 149.62,271.38 156.63,277.03 161.52,280.5 171.86,286.58 177.3,289.11 182.91,291.22 188.68,292.85 194.58,293.94 200.56,294.46 206.55,294.38 218.49,293.12 233.34,291.05 253.95,287.06 265.56,284.03 274.14,281.3 288.05,275.69 293.41,273.02 301.17,268.46 308.46,263.19 312.98,259.24 317.17,254.95 320.96,250.3 327.44,240.21 330.27,234.92 332.73,229.45 335.52,220.9 336.92,212.02 336.7,203.04 334.93,194.22 331.92,185.75 326.53,175.03 321.77,167.4 316.59,160.04 305.32,146.01 291.11,130.55 276,115.97 262.3,104.3 250.23,95.41 242.61,90.62 237.34,87.75 231.9,85.22 226.29,83.1 217.57,80.92 208.61,80.17 202.62,80.53 193.8,82.27 185.3,85.21 177.17,89.05 169.38,93.56 159.47,100.32 147.71,109.63 136.52,119.62 125.86,130.17 113.82,143.54 104.56,155.35 97.9,165.32 92.21,175.88 88.87,184.23 86.64,192.94 85.76,201.89 86.35,210.86 87.51,216.74 89.21,222.49 92.6,230.83 98.28,241.39 104.92,251.38 114.16,263.2 124.17,274.36 134.83,284.91 146.12,294.79 158.09,303.82 168.27,310.17 176.3,314.22 195.99,321.49 206.9,326.49 214.7,330.97 222.05,336.15 231.05,344.09 235.13,348.48 238.83,353.2 242.08,358.24 244.85,363.56 248.04,371.97 250.07,380.73 250.82,386.68 251.13,392.68 250.86,401.67 249.41,413.58 247.01,425.33 243.96,436.94 239.56,451.28 224.63,496.89 219.79,514.23 216.42,528.84 213.37,546.58 211.75,561.49 210.94,579.47 211.29,597.46"   /><polyline id="SvgjsPolyline1205" points="216.57,289.38 228.31,286.9 239.91,283.83 251.3,280.05 262.35,275.39 270.33,271.22 277.91,266.37 284.96,260.79 291.3,254.41 296.75,247.26 301.18,239.43 303.66,233.97 305.73,228.34 307.95,219.62 308.92,210.68 308.81,204.69 307.54,195.78 305.09,187.13 302.9,181.55 300.33,176.13 294.28,165.77 287.26,156.04 277.45,144.7 266.66,134.29 254.94,124.93 244.87,118.43 234.12,113.11 228.49,111.03 222.71,109.42 213.83,108.01 204.84,107.92 195.94,109.15 187.27,111.57 176.26,116.32 168.45,120.78 158.61,127.64 149.42,135.35 138.86,145.99 134.94,150.54 129.46,157.67 122.99,167.78 120.21,173.09 117.8,178.58 114.99,187.13 113.75,193 113.08,198.96 113.18,207.95 113.99,213.89 115.34,219.74 117.19,225.44 119.47,230.99 125.14,241.56 128.42,246.58 133.82,253.78 141.79,262.75 148.27,268.99 152.83,272.89 157.56,276.58 165.01,281.63 175.58,287.28 181.14,289.53 186.87,291.32 195.7,293.01 204.68,293.4 216.61,292.13 237.31,288.62 254.8,284.4 263.4,281.73 271.84,278.61 277.36,276.25 285.4,272.22 295.54,265.81 302.52,260.14 306.79,255.93 310.67,251.36 315.68,243.89 321.11,233.19 324.16,224.73 325.55,218.9 326.34,212.95 326.29,203.96 324.81,195.09 322.12,186.51 318.47,178.29 312.53,167.87 305.72,157.99 298.27,148.58 288.29,137.4 277.66,126.81 266.43,116.88 256.96,109.51 246.99,102.83 239.14,98.44 230.91,94.8 222.32,92.13 213.45,90.69 204.46,90.66 195.57,92.02 186.95,94.58 178.67,98.11 168.19,103.94 158.28,110.7 148.87,118.14 139.91,126.13 129.34,136.77 121.43,145.79 114.09,155.28 107.51,165.31 103.24,173.23 99.75,181.52 97.27,190.16 96.02,199.07 96.14,208.06 97.61,216.93 100.25,225.53 105.19,236.45 111.34,246.75 118.37,256.47 128.09,267.89 138.67,278.52 147.71,286.41 154.84,291.91 162.28,296.97 170.07,301.47 178.23,305.25 186.76,308.12 210.27,312.9 227.61,317.69 241.64,323 255,329.79 262.64,334.54 267.48,338.1 272.05,341.98 276.31,346.2 280.22,350.75 283.7,355.63 286.72,360.82 289.24,366.26 292.05,374.8 293.29,380.67 294.04,386.62 294.27,398.61 293.11,410.55 290.92,422.35 287.2,436.87 282.8,451.22 267.88,496.83 263.03,514.17 259.66,528.78 256.6,546.52 254.98,561.43 254.16,579.4 254.5,597.4"   /><polyline id="SvgjsPolyline1206" points="229.48,286.41 238.17,284.08 246.75,281.36 255.17,278.19 263.37,274.48 271.26,270.15 276.29,266.89 281.1,263.31 285.63,259.37 289.83,255.09 293.64,250.46 297,245.49 299.9,240.24 303.56,232.02 305.48,226.34 306.9,220.51 307.78,214.58 308.07,208.59 307.75,202.6 306.85,196.67 305.41,190.85 303.5,185.16 301.17,179.63 295.49,169.07 290.52,161.57 286.93,156.76 281.19,149.83 275.07,143.23 268.61,136.97 261.8,131.08 254.66,125.61 249.69,122.24 239.27,116.31 233.8,113.85 228.16,111.79 222.38,110.21 216.47,109.16 207.49,108.67 198.54,109.53 192.68,110.79 186.95,112.56 181.37,114.77 175.96,117.36 165.65,123.48 158.35,128.75 153.7,132.53 142.78,142.81 132.98,154.15 129.42,158.99 124.57,166.56 121.7,171.83 119.19,177.28 117.1,182.9 115.47,188.68 114.38,194.57 113.86,200.55 113.94,206.55 114.61,212.51 115.84,218.38 117.58,224.12 121.01,232.43 123.78,237.75 126.86,242.9 132.01,250.28 135.75,254.97 141.75,261.68 146,265.91 152.73,271.88 159.88,277.34 164.88,280.66 172.73,285.06 178.19,287.53 183.83,289.58 189.63,291.13 195.54,292.14 201.52,292.57 210.5,292.08 225.31,289.7 237.06,287.29 248.69,284.31 257.28,281.63 271.22,276.12 279.25,272.07 284.41,269.01 291.76,263.82 296.33,259.93 300.58,255.7 304.45,251.11 307.88,246.19 310.85,240.98 315.75,230.04 317.57,224.32 318.86,218.46 319.69,209.51 319.1,200.54 317.97,194.65 316.31,188.89 314.2,183.27 311.7,177.82 308.88,172.52 304.17,164.85 298.98,157.5 293.41,150.43 287.52,143.63 279.22,134.96 265.91,122.85 258.86,117.27 251.5,112.08 243.82,107.39 238.51,104.62 230.22,101.11 224.5,99.32 218.64,98.04 212.68,97.33 206.68,97.23 200.71,97.75 191.91,99.59 186.2,101.44 180.65,103.71 172.62,107.78 162.46,114.16 152.88,121.37 143.82,129.23 133.22,139.85 125.39,148.93 118.23,158.56 111.97,168.8 108.06,176.9 105.04,185.37 103.13,194.16 102.5,203.13 102.84,209.11 104.43,217.97 107.15,226.54 112.2,237.42 118.45,247.65 125.63,257.27 135.59,268.47 144.26,276.76 155.93,286.17 165.97,292.74 173.93,296.93 179.46,299.27 185.14,301.19 190.97,302.61 196.9,303.48 229.78,306.28 253.55,309.56 274.11,313.82 282.79,316.18 294.18,319.97 302.56,323.25 310.74,327 318.63,331.32 326.12,336.31 330.83,340.02 337.34,346.23 341.24,350.79 346.29,358.23 349.06,363.55 351.32,369.1 353.06,374.84 354.29,380.71 355.04,386.67 355.35,392.66 355.26,398.66 354.5,407.62 352.53,419.46 348.99,434.03 343.79,451.26 332.44,485.42 328,499.75 324.01,514.21 320.64,528.82 317.59,546.56 315.97,561.47 315.15,579.45 315.5,597.44"   /><polyline id="SvgjsPolyline1207" points="303.38,233.84 305.45,228.21 307.05,222.43 308.43,213.55 308.47,204.56 307.19,195.65 304.72,187.01 302.52,181.43 299.95,176.01 295.5,168.19 288.68,158.31 279.07,146.81 268.44,136.23 256.88,126.68 246.94,119.97 236.33,114.38 227.93,111.17 222.14,109.61 216.23,108.58 207.25,108.13 198.3,109.02 192.44,110.31 186.71,112.09 181.14,114.32 175.74,116.92 165.44,123.06 160.54,126.52 153.49,132.12 142.56,142.39 132.74,153.72 125.85,163.53 120.08,174.05 116.72,182.39 115.05,188.15 113.91,194.04 113.28,203.01 113.98,211.97 115.95,220.75 119.01,229.21 124.45,239.89 131.12,249.86 138.75,259.12 142.88,263.48 149.42,269.65 158.79,277.14 168.9,283.59 174.24,286.34 179.75,288.69 185.44,290.6 191.27,292.01 200.2,293.06 206.2,293.02 212.16,292.39 224.03,290.61 235.82,288.41 253.3,284.1 261.88,281.39 270.3,278.22 278.5,274.51 283.8,271.71 293.87,265.19 298.55,261.44 302.92,257.33 306.94,252.88 310.54,248.08 313.68,242.97 316.47,237.66 318.93,232.19 320.97,226.55 323.06,217.8 323.81,208.84 323.1,199.88 321.07,191.12 317.94,182.69 312.51,171.99 304.3,159.45 293.05,145.4 280.7,132.31 267.4,120.19 255.56,110.99 248.07,106 242.89,102.97 232.06,97.83 226.4,95.85 220.58,94.37 211.67,93.22 205.67,93.23 196.75,94.39 188.08,96.78 179.75,100.17 171.77,104.33 164.14,109.09 154.44,116.16 145.24,123.86 136.51,132.09 126.29,143.07 118.74,152.39 111.91,162.25 106.04,172.71 102.51,180.99 99.98,189.62 98.96,195.53 98.53,201.51 99.02,210.49 100.08,216.39 101.66,222.18 103.71,227.82 106.15,233.3 108.92,238.62 113.6,246.3 122.48,258.38 128.33,265.22 134.51,271.76 145.5,281.96 154.91,289.41 162.35,294.47 172.82,300.31 181.11,303.8 189.76,306.29 216.42,310.54 228.16,313 236.88,315.23 245.49,317.83 253.96,320.87 262.23,324.42 267.59,327.11 275.34,331.69 280.25,335.14 284.9,338.92 289.25,343.06 295.17,349.83 298.74,354.65 301.85,359.78 304.47,365.17 307.44,373.66 308.77,379.51 309.61,385.45 310.01,391.44 310,397.44 308.96,409.38 306.86,421.2 303.21,435.74 298.85,450.1 283.04,498.58 278.27,515.94 274.98,530.57 272.04,548.32 270.52,563.25 269.83,581.23 270.28,599.22"   /><polyline id="SvgjsPolyline1208" points="233.31,285.46 241.96,282.97 250.47,280.07 258.81,276.67 264.23,274.1 272.09,269.72 277.09,266.41 281.86,262.78 286.35,258.8 290.5,254.46 294.25,249.78 297.55,244.77 300.39,239.49 303.96,231.23 305.82,225.53 307.17,219.69 307.97,213.74 308.17,207.75 307.77,201.76 306.79,195.85 305.28,190.04 303.31,184.38 300.92,178.87 298.19,173.53 293.54,165.83 284.64,153.76 278.74,146.97 272.48,140.51 265.87,134.4 258.92,128.68 251.63,123.41 246.57,120.19 235.93,114.64 230.36,112.42 224.63,110.65 215.8,108.96 209.81,108.56 203.82,108.75 194.93,110.13 189.15,111.71 183.51,113.75 172.72,119 162.62,125.46 150.92,134.83 140.25,145.37 130.75,156.97 125.73,164.44 122.74,169.63 120.07,175.01 117.8,180.56 115.97,186.27 114.65,192.12 113.89,198.07 113.73,204.07 114.15,210.05 115.16,215.96 116.69,221.76 118.7,227.42 122.48,235.58 125.44,240.8 130.42,248.29 134.06,253.06 139.93,259.88 144.1,264.19 150.71,270.3 155.35,274.1 162.66,279.35 167.76,282.5 175.77,286.61 181.33,288.85 187.06,290.62 192.93,291.88 198.89,292.56 204.88,292.65 210.86,292.14 222.72,290.3 234.5,288.03 243.26,285.98 254.8,282.7 263.3,279.74 271.61,276.29 277.01,273.68 284.83,269.23 289.81,265.87 294.54,262.18 298.98,258.15 303.07,253.76 306.75,249.03 309.98,243.97 314.09,235.97 316.39,230.43 318.25,224.73 319.59,218.88 320.34,212.93 320.29,203.94 319.49,198 318.11,192.16 316.24,186.46 313.95,180.92 308.37,170.3 300.01,157.85 294.46,150.77 288.59,143.95 280.33,135.24 273.84,129.01 267.09,123.06 260.08,117.42 252.77,112.17 245.15,107.38 237.18,103.21 231.66,100.86 225.98,98.94 220.15,97.52 214.21,96.66 208.22,96.41 202.24,96.77 196.31,97.72 187.65,100.14 179.33,103.54 171.36,107.73 161.27,114.22 151.74,121.51 142.73,129.43 134.23,137.89 124.38,149.2 117.26,158.86 112.49,166.49 108.36,174.48 105.05,182.84 102.78,191.54 101.76,200.48 101.84,206.48 103.05,215.39 105.47,224.05 107.64,229.64 110.19,235.07 116.21,245.45 123.19,255.2 130.91,264.38 141.46,275.04 152.92,284.72 162.76,291.57 167.92,294.63 175.98,298.62 181.57,300.81 187.31,302.55 196.15,304.18 214.08,305.78 228.98,307.52 249.71,310.87 261.43,313.41 270.14,315.7 278.73,318.38 287.16,321.52 295.38,325.18 303.3,329.45 310.81,334.4 315.53,338.11 322.02,344.33 325.88,348.92 329.31,353.85 332.25,359.07 334.8,364.5 336.97,370.09 338.62,375.86 339.77,381.75 340.43,387.71 340.67,393.7 340.52,399.7 339.68,408.66 337.63,420.48 334.03,435.04 329.7,449.4 313.87,497.88 309.81,512.32 306.35,526.91 303.18,544.63 301.2,562.51 300.46,580.5 300.87,598.49"   /><polyline id="SvgjsPolyline1209" points="274.48,267.77 279.35,264.27 283.96,260.43 288.25,256.23 292.16,251.69 297.21,244.25 302.46,233.47 304.49,227.82 306.05,222.03 307.37,213.14 307.35,204.14 306.6,198.19 305.3,192.34 303.5,186.62 301.27,181.05 295.75,170.4 292.56,165.32 287.33,158 277.65,146.54 266.95,136.04 255.29,126.61 247.82,121.6 242.63,118.59 237.27,115.89 231.74,113.57 223.15,110.92 214.28,109.45 205.29,109.29 196.37,110.46 187.69,112.83 182.1,114.98 176.66,117.53 166.31,123.58 156.63,130.67 145.47,140.68 137.32,149.49 129.98,158.97 123.64,169.15 120.94,174.51 118.63,180.05 116,188.65 114.57,197.53 114.35,203.52 114.73,209.51 115.68,215.43 117.17,221.24 119.14,226.9 121.53,232.4 127.39,242.87 130.76,247.83 136.29,254.93 140.25,259.44 146.57,265.84 153.32,271.79 158.06,275.47 165.51,280.51 170.72,283.49 176.11,286.12 181.68,288.34 187.42,290.08 193.29,291.31 202.25,292.06 211.22,291.46 223.06,289.46 240.62,285.55 254.98,281.21 268.87,275.58 279.44,269.91 289.25,263.01 295.89,256.94 301.7,250.08 306.51,242.48 311.57,231.61 314.27,223.03 315.42,217.14 315.97,211.17 315.65,202.19 314.01,193.35 311.22,184.79 306.13,173.94 299.87,163.7 290.88,151.7 282.97,142.68 272.34,132.1 260.92,122.38 251.18,115.38 243.48,110.73 235.42,106.74 226.98,103.61 221.17,102.11 212.26,100.91 206.26,100.86 197.33,101.9 188.63,104.17 180.25,107.45 172.24,111.54 162.11,117.97 152.58,125.25 143.61,133.22 135.2,141.78 127.42,150.91 120.4,160.63 115.75,168.34 113.03,173.68 110.67,179.2 107.94,187.77 106.38,196.63 106.06,202.62 106.71,211.58 108.63,220.37 111.62,228.85 116.96,239.59 121.75,247.21 128.94,256.81 136.91,265.78 145.54,274.11 154.81,281.72 164.74,288.46 172.63,292.78 180.91,296.29 189.55,298.8 198.45,300.1 282.44,301.01 330.42,302.35 354.39,303.53 375.34,305.01 396.23,307.11 408.08,308.93 416.69,311.53 424.93,315.15 432.75,319.6 440.14,324.72 447.11,330.42 453.64,336.61 461.61,345.57 466.97,352.8 471.66,360.48 474.22,365.9 476.25,371.54 477.77,377.35 478.79,383.26 479.46,392.23 479.4,398.23 478.67,407.2 476.74,419.04 473.23,433.62 468.96,447.99 457.63,482.16 452.25,499.34 448.24,513.79 444.85,528.41 441.77,546.14 439.9,564.04 439.28,579.02 439.61,597.02"   /><polyline id="SvgjsPolyline1210" points="116.22,186.43 114.47,195.25 114.02,204.23 114.91,213.18 117.03,221.92 120.23,230.33 124.3,238.35 129.09,245.96 136.38,255.49 144.54,264.28 153.47,272.29 163.15,279.37 170.91,283.94 179.08,287.7 187.63,290.48 196.48,292.07 205.47,292.34 211.44,291.77 220.33,290.36 237.97,286.78 252.43,282.8 263.73,278.78 274.66,273.84 285.01,267.79 289.89,264.29 294.5,260.45 300.8,254.03 306.19,246.84 309.21,241.66 311.88,236.28 314.19,230.75 316.05,225.05 317.87,216.24 318.34,210.26 318.19,204.26 316.82,195.38 314.26,186.76 309.39,175.8 304.91,167.99 299.91,160.51 294.48,153.33 286.71,144.19 280.54,137.64 271.89,129.33 262.75,121.55 255.57,116.14 248.07,111.16 240.23,106.75 232.02,103.07 226.34,101.13 217.57,99.17 211.6,98.57 205.6,98.59 199.64,99.21 190.86,101.19 182.4,104.23 174.29,108.14 166.55,112.71 159.14,117.82 149.75,125.29 140.89,133.38 132.58,142.03 124.87,151.23 119.56,158.49 114.76,166.1 110.59,174.07 107.24,182.42 104.93,191.11 104.06,197.05 103.88,206.04 104.51,212 105.69,217.88 107.39,223.64 109.52,229.24 114.9,239.96 118.04,245.08 123.19,252.45 132.76,263.99 143.37,274.59 154.93,284.14 162.34,289.25 167.48,292.33 175.52,296.38 181.09,298.6 186.82,300.38 192.68,301.65 198.64,302.35 237.56,304.7 264.41,307.54 279.24,309.81 291.01,312.11 302.67,314.95 311.3,317.5 319.79,320.49 328.08,323.98 338.79,329.4 346.46,334.09 353.67,339.48 360.25,345.62 364.2,350.13 369.34,357.5 372.18,362.79 374.52,368.31 376.33,374.03 377.63,379.89 378.44,385.83 378.81,391.82 378.78,397.82 378.08,406.79 376.18,418.63 372.7,433.22 367.53,450.46 352.58,496.07 347.7,513.4 344.29,528 341.19,545.73 339.29,563.63 338.62,581.61 339.1,599.6"   /><polyline id="SvgjsPolyline1211" points="270.33,275.15 278.28,270.94 285.83,266.05 292.84,260.41 299.14,253.99 304.53,246.79 307.54,241.6 311.39,233.47 314.33,224.97 316.13,216.16 316.58,210.18 316.42,204.19 315.05,195.3 313.47,189.51 310.25,181.11 306.21,173.07 301.54,165.38 294.57,155.62 286.92,146.38 276.57,135.52 267.73,127.41 258.38,119.89 251.02,114.72 240.66,108.67 232.47,104.96 223.91,102.18 215.06,100.58 209.07,100.24 200.1,100.87 191.32,102.78 182.83,105.77 174.71,109.63 166.94,114.17 157.12,121.06 145.64,130.71 135.04,141.31 125.39,152.8 118.54,162.64 112.73,173.13 110.33,178.63 108.35,184.29 106.29,193.05 105.51,202.01 105.73,208 106.55,213.94 108.77,222.66 110.83,228.29 113.29,233.76 119.19,244.2 126.12,254 133.85,263.17 144.47,273.75 156.08,283.24 163.53,288.29 168.71,291.31 174.06,294.02 179.59,296.36 185.28,298.26 191.11,299.67 200.03,300.74 233.03,301.37 266.01,302.45 289.98,303.74 307.92,305.12 325.82,307.03 343.63,309.64 358.34,312.54 372.86,316.31 384.27,320.02 395.42,324.44 406.15,329.81 413.79,334.56 418.62,338.12 423.19,342 429.45,348.46 434.83,355.66 439.18,363.54 442.37,371.95 443.85,377.76 444.84,383.67 445.36,389.65 445.47,395.65 444.95,404.63 444.22,410.58 442.03,422.38 438.3,436.91 433.91,451.25 423.49,482.56 418.12,499.74 414.13,514.2 410.76,528.82 407.71,546.55 406.09,561.46 405.27,579.44 405.62,597.43"   /><polyline id="SvgjsPolyline1212" points="293.57,250.16 298.4,242.57 301.08,237.21 303.4,231.67 305.29,225.98 306.68,220.15 307.72,211.22 307.42,202.23 305.81,193.38 303.07,184.81 298.01,173.94 295,168.75 290.01,161.27 280.65,149.56 270.22,138.78 258.84,129.02 251.54,123.75 246.48,120.54 235.84,115 230.27,112.79 224.53,111.02 215.7,109.35 206.71,108.98 200.74,109.48 194.83,110.55 186.21,113.11 180.66,115.37 175.27,118.01 165,124.21 155.41,131.41 144.34,141.53 136.28,150.41 129.04,159.97 122.82,170.23 120.19,175.62 117.97,181.19 115.49,189.84 114.24,198.74 114.31,207.74 115.7,216.62 117.29,222.4 119.35,228.04 121.82,233.5 124.66,238.79 127.81,243.9 133.03,251.22 138.79,258.13 142.89,262.51 151.68,270.68 158.75,276.24 163.71,279.62 174.17,285.47 179.69,287.84 185.37,289.76 194.16,291.68 200.13,292.24 206.12,292.2 218.01,290.64 238.59,286.47 247.29,284.16 255.87,281.45 269.79,275.89 280.4,270.29 290.27,263.47 294.81,259.55 299.02,255.29 304.6,248.23 307.75,243.13 310.5,237.8 312.91,232.3 314.9,226.64 316.95,217.89 317.67,208.93 317.01,199.96 315.04,191.18 311.99,182.72 306.64,171.99 298.46,159.42 289.12,147.69 278.9,136.71 267.92,126.51 256.15,117.21 248.68,112.2 243.51,109.15 232.68,104 224.14,101.19 215.29,99.55 206.31,99.23 200.34,99.78 194.44,100.9 185.84,103.54 177.59,107.11 169.69,111.43 159.71,118.07 150.29,125.51 141.42,133.59 133.1,142.23 125.39,151.42 118.43,161.19 112.45,171.59 108.83,179.83 106.18,188.42 105.06,194.31 104.51,200.29 104.57,206.28 105.21,212.25 106.42,218.12 108.13,223.87 111.51,232.21 115.69,240.17 120.51,247.77 125.85,255.02 131.62,261.92 139.9,270.6 146.53,276.69 153.5,282.38 160.83,287.6 168.53,292.25 176.62,296.19 185.08,299.24 190.91,300.66 199.83,301.76 226.81,302.84 247.77,304.11 274.65,306.6 289.52,308.59 304.3,311.18 316.01,313.79 327.56,317.02 338.88,321 347.14,324.58 355.11,328.74 362.7,333.58 369.75,339.16 376.2,345.44 382,352.31 385.34,357.3 388.2,362.57 390.55,368.09 392.38,373.8 393.7,379.65 394.54,385.59 394.92,391.57 394.76,400.57 394.22,406.55 392.34,418.39 388.88,432.99 383.72,450.23 367.91,498.71 363.14,516.07 359.86,530.71 357.34,545.49 355.42,563.38 354.74,581.37 355.2,599.36"   /><polyline id="SvgjsPolyline1213" points="253.09,282.11 261.55,279.06 269.81,275.49 277.8,271.34 285.39,266.51 290.17,262.89 296.79,256.8 300.76,252.3 305.9,244.92 310.07,236.95 313.43,228.6 315.74,219.91 316.58,213.98 316.81,207.98 316,199.03 314.74,193.16 311.93,184.62 308.21,176.43 302.19,166.05 295.27,156.26 287.66,146.98 279.49,138.19 268.57,127.92 259.26,120.34 249.42,113.49 241.64,108.97 233.49,105.15 224.97,102.25 216.16,100.49 207.18,100.05 201.2,100.51 192.38,102.27 183.85,105.14 173.04,110.33 167.87,113.38 160.41,118.4 148.69,127.76 137.84,138.1 127.9,149.33 119.09,161.46 113.14,171.88 110.65,177.33 108.56,182.96 106.32,191.67 105.33,200.61 105.68,209.59 106.65,215.51 108.14,221.32 111.24,229.76 116.69,240.45 123.26,250.48 132.69,262.14 138.88,268.67 147.69,276.81 154.71,282.44 162.1,287.59 169.86,292.14 175.25,294.77 183.65,297.98 189.44,299.54 195.35,300.55 201.34,300.99 237.32,301.87 267.3,303.17 288.25,304.59 306.17,306.29 321.04,308.18 338.78,311.22 353.4,314.6 367.74,318.99 378.88,323.42 386.96,327.4 394.67,332.02 401.91,337.37 408.5,343.49 414.25,350.4 419.23,357.89 423.25,365.94 426.1,374.47 427.36,380.33 428.14,386.28 428.48,392.27 428.42,398.27 427.29,410.21 425.13,422.01 421.43,436.55 417.05,450.89 402.11,496.51 398,510.93 393.86,528.45 390.79,546.18 389.14,561.09 388.3,579.06 388.62,597.06"   /><polyline id="SvgjsPolyline1214" points="315.01,215.55 315.37,206.57 314.84,200.59 312.97,191.79 310.01,183.3 306.18,175.16 300.04,164.86 293.02,155.13 285.32,145.93 277.05,137.23 265.99,127.11 256.55,119.7 246.54,113.08 238.63,108.81 230.34,105.32 221.69,102.83 212.79,101.56 203.8,101.62 197.86,102.41 189.13,104.61 180.74,107.84 172.7,111.88 165.03,116.58 157.7,121.8 148.43,129.42 139.74,137.69 131.63,146.54 124.22,155.97 119.21,163.44 114.8,171.28 111.15,179.5 108.46,188.09 106.95,196.95 106.67,202.94 106.98,208.93 107.88,214.86 110.22,223.55 112.35,229.16 116.26,237.26 119.27,242.45 124.27,249.93 129.77,257.05 135.71,263.81 144.22,272.26 151.03,278.15 158.21,283.58 165.76,288.47 173.7,292.7 179.21,295.07 184.89,297 190.71,298.45 199.63,299.57 253.63,299.17 292.62,298.35 325.59,297.05 358.51,294.74 391.29,291.01 397.29,291.01 403.25,291.62 412.03,293.58 420.5,296.62 428.6,300.54 436.33,305.14 443.71,310.28 453.05,317.81 461.84,325.98 470.05,334.72 477.64,344.02 482.83,351.37 487.5,359.06 491.34,367.19 494.02,375.78 495.17,381.66 496.02,390.62 495.94,399.62 495.46,405.6 494.2,414.51 490.26,432.06 485.14,449.32 469.31,497.8 464.5,515.14 461.18,529.77 458.19,547.51 456.62,562.43 455.87,580.41 456.28,598.4"   /><polyline id="SvgjsPolyline1215" points="259.51,275.94 267.52,271.85 272.67,268.77 277.61,265.37 282.31,261.63 286.7,257.55 290.73,253.11 295.99,245.82 298.92,240.58 302.61,232.37 304.55,226.7 306.01,220.88 306.92,214.95 307.24,208.97 306.97,202.97 306.1,197.04 304.7,191.21 302.81,185.51 300.51,179.98 296.39,171.98 293.27,166.85 288.14,159.46 282.55,152.41 276.55,145.7 270.19,139.33 263.49,133.33 251.54,124.28 243.88,119.55 238.56,116.78 233.07,114.36 227.41,112.36 221.61,110.85 215.69,109.87 206.71,109.51 200.73,110.01 194.83,111.07 189.05,112.66 183.41,114.72 172.64,119.98 167.51,123.09 160.13,128.24 148.67,137.91 138.28,148.72 132.63,155.72 129.14,160.61 122.99,170.9 120.41,176.32 118.24,181.91 115.86,190.58 114.95,196.51 114.62,202.5 115.25,211.47 116.39,217.36 118.04,223.12 120.16,228.73 122.69,234.17 128.76,244.52 134.04,251.8 137.87,256.42 143.99,263.01 148.33,267.16 152.85,271.1 159.99,276.58 170.17,282.92 175.54,285.59 181.1,287.85 186.82,289.65 192.68,290.93 201.63,291.78 207.63,291.59 213.57,290.81 225.38,288.66 237.08,286.01 245.76,283.62 254.31,280.82 262.69,277.55 270.84,273.73 278.66,269.29 283.64,265.94 288.38,262.26 292.82,258.23 296.92,253.85 300.61,249.12 303.85,244.07 307.92,236.05 310.18,230.49 311.99,224.77 313.3,218.92 314.03,212.97 314.16,206.97 313.67,200.99 312.61,195.09 311.02,189.31 307.79,180.91 305.17,175.51 302.25,170.27 297.39,162.7 292.06,155.45 286.35,148.5 280.29,141.84 273.93,135.48 267.27,129.43 260.31,123.72 248.01,115.15 240.16,110.75 234.72,108.23 229.11,106.09 223.35,104.41 217.47,103.26 211.5,102.69 205.5,102.71 199.53,103.33 193.65,104.52 187.9,106.21 182.29,108.35 176.85,110.87 171.57,113.72 163.95,118.51 152.02,127.58 140.99,137.75 134.83,144.31 129.04,151.19 120.4,163.44 114.67,173.98 112.33,179.5 110.42,185.19 109,191.02 108.14,196.95 107.94,205.94 108.55,211.91 109.72,217.79 111.41,223.55 113.54,229.16 118.92,239.87 125.48,249.91 134.94,261.55 145.53,272.16 157.16,281.62 167.23,288.14 175.24,292.23 183.64,295.45 192.38,297.58 198.33,298.32 204.33,298.46 231.31,297.53 252.28,296.43 285.16,293.63 300.04,291.71 314.82,289.21 329.47,285.96 343.86,281.74 355.07,277.48 368.65,271.12 377.14,268.14 383,266.86 391.93,265.84 397.93,265.92 403.88,266.7 409.71,268.11 415.38,270.07 420.87,272.47 428.81,276.71 441.31,284.99 455.41,296.17 470.91,310.33 485.53,325.4 499.13,341.4 504.53,348.6 509.56,356.06 512.54,361.26 515.02,366.72 516.98,372.39 518.96,381.17 519.67,387.12 519.95,393.11 519.65,402.11 519.03,408.07 517.03,419.9 513.47,434.47 509.16,448.84 493.32,497.31 489.24,511.75 485.15,529.27 482.13,547.01 480.31,564.92 479.73,582.91 480.12,597.9"   /><polyline id="SvgjsPolyline1216" points="116,192.41 115.27,198.36 115.13,204.36 116.03,213.3 118.18,222.04 120.22,227.68 122.67,233.15 128.63,243.56 135.72,253.23 143.73,262.16 152.54,270.3 162.12,277.53 169.8,282.22 175.15,284.92 180.69,287.21 189.31,289.78 198.2,291.13 207.19,291.14 213.15,290.4 227.86,287.51 242.38,283.75 256.56,278.87 267.5,273.95 277.87,267.92 282.75,264.44 287.37,260.61 293.69,254.21 299.12,247.04 302.15,241.86 304.79,236.48 307.07,230.93 308.91,225.22 310.71,216.41 311.19,207.43 310.75,201.45 309.74,195.54 307.25,186.9 302.45,175.91 296.38,165.56 287.51,153.48 277.54,142.27 266.67,131.95 254.9,122.65 244.81,116.17 234.05,110.87 225.55,107.92 219.71,106.57 213.76,105.77 204.77,105.7 195.87,106.94 190.06,108.44 184.4,110.42 173.55,115.54 163.37,121.88 151.53,131.08 140.67,141.41 130.85,152.74 123.91,162.53 118.05,172.99 114.58,181.29 112.82,187.02 111.57,192.89 110.77,201.85 111.3,210.82 113.11,219.63 116.03,228.14 121.31,238.91 127.82,248.98 131.45,253.76 137.28,260.61 147.95,271.14 157.28,278.68 167.32,285.25 172.61,288.08 178.08,290.55 183.72,292.59 189.51,294.14 198.41,295.45 207.4,295.43 231.28,293.04 249.09,290.45 263.81,287.58 278.33,283.84 289.72,280.06 300.78,275.41 311.33,269.7 316.33,266.4 321.1,262.76 327.71,256.66 335.32,247.39 342.14,237.52 345.18,232.35 347.85,226.98 350.81,218.49 351.44,215.56 352.03,209.59 351.7,203.61 349.66,194.85 346.24,186.54 341.91,178.65 335.25,168.67 326.07,156.81 316.32,145.41 304.12,132.18 293.63,121.45 280.71,108.93 267.36,96.85 255.82,87.27 246.2,80.11 236.05,73.71 227.99,69.72 219.47,66.85 213.57,65.79 207.58,65.54 198.66,66.67 192.89,68.3 184.58,71.74 176.67,76.03 169.1,80.89 159.42,87.98 150.1,95.54 136.64,107.49 123.69,119.99 111.22,132.96 101.25,144.17 91.82,155.84 84.86,165.61 80.18,173.29 76.18,181.35 73.19,189.83 71.6,198.68 71.46,204.67 72.64,213.58 75.24,222.19 78.89,230.41 83.29,238.26 89.95,248.24 99.12,260.1 110.96,273.66 123.45,286.62 138.78,300.97 147.93,308.73 157.45,316.04 167.41,322.72 177.89,328.56 185.49,333.37 192.57,338.92 196.92,343.06 202.74,349.92 206.18,354.83 209.28,359.96 212.99,368.15 215.54,376.78 216.96,385.66 217.34,391.65 217.32,397.65 216.25,409.59 214.14,421.4 211.28,433.05 207.92,444.57 193.85,487.32 188.63,504.54 184.15,521.97 181.16,536.67 178.97,551.51 177.47,569.44 177.16,584.44 177.62,599.43"   /><polyline id="SvgjsPolyline1217" points="393.79,203.7 395.51,206.08 399.53,210.53 412.1,223.42 535.03,346.55 540.68,353.55 543.9,358.61 547.81,366.71 549.77,372.38 551.75,381.15 552.66,390.1 552.44,402.09 550.95,413.99 548.52,425.74 545.45,437.34 541.04,451.68 526.12,497.3 521.29,514.64 517.94,529.26 515.34,544.03 513.32,561.91 512.54,579.89 512.91,597.89"   /><polyline id="SvgjsPolyline1218" points="572.05,1.21 574.76,2.49 577.65,3.28 580.64,3.41 586.55,2.46 592.08,0.16"   /><polyline id="SvgjsPolyline1219" points="598.47,33.9 591.62,28.07 586.46,25.04 583.6,24.15 580.64,24.41 577.91,25.63 570.75,31.07 557.59,43.35 531.92,68.59 425.99,174.79 407.48,194.44 403.76,199.14 402.2,201.7 401.19,204.52 401.3,207.49 402.44,210.26 404.06,212.78 407.82,217.46 415.93,226.3 451.66,262.69 536.44,347.61 540.22,352.27 545.05,359.85 547.67,365.25 550.62,373.75 552.42,382.56 553.17,391.52 553.01,400.52 551.66,412.44 549.34,424.21 546.34,435.82 541.98,450.18 526.17,498.66 522.14,513.11 518.72,527.71 515.6,545.44 513.68,563.33 512.99,581.31 513.45,599.3"   /><polyline id="SvgjsPolyline1220" points="562.11,0.72 565.46,5.69 566.79,8.38 567.7,11.23 568.34,17.19 568.05,20.17 567.21,23.05 564.51,28.39 559.27,35.71 553.49,42.6 537.21,60.23 507.88,90.3 463.31,134.82 433.17,164.07 419.9,176.23 408.22,185.64 403.13,188.81 400.42,190.08 397.56,190.97 394.59,191.35 391.6,191.11 388.71,190.31 385.96,189.12 380.83,186.02 371.38,178.63 358.01,166.59 329.94,139.51 285.31,95.04 253.83,62.89 235.46,43.11 229.65,36.23 224.35,28.97 221.53,23.68 220.59,20.83 220.17,17.87 220.35,14.88 221.1,11.98 223.71,6.58 227.07,1.62"   /><polyline id="SvgjsPolyline1221" points="160.95,0.5 163.24,9.19 163.74,12.15 164.02,15.14 163.89,21.13 163.48,24.1 162.04,29.92 159.93,35.54 157.32,40.94 154.33,46.14 149.37,53.64 138.37,67.89 124.54,83.69 105.88,103.2 86.48,121.97 68.5,137.86 54.29,148.91 46.81,153.92 41.63,156.94 36.26,159.61 30.68,161.8 24.88,163.33 21.92,163.8 18.93,164.05 12.94,163.84 7.04,162.75 1.34,160.9"   /><polyline id="SvgjsPolyline1222" points="178.75,253.88 184.04,256.72 189.59,258.98 198.31,261.14 207.28,261.69 213.25,261.13 219.11,259.85 224.78,257.9 230.2,255.34 235.33,252.23 240.13,248.63 244.57,244.59 248.61,240.16 252.21,235.36 255.32,230.24 257.89,224.82 259.84,219.15 261.5,210.31 261.7,204.32 261.15,198.35 258.99,189.62 255.38,181.39 252.28,176.25 248.69,171.45 244.66,167.01 240.24,162.96 235.45,159.35 230.32,156.23 224.91,153.66 219.24,151.69 210.41,150.01 201.43,149.98 195.5,150.88 189.72,152.48 181.48,156.07 176.34,159.16 171.53,162.75 167.08,166.77 163.03,171.19 159.41,175.98 156.28,181.09 153.69,186.5 151.72,192.16 150.02,200.99 149.97,209.98 151.57,218.82 154.69,227.26 157.5,232.55 160.84,237.53 164.64,242.17 168.86,246.44 173.46,250.28 178.41,253.67"   /><polyline id="SvgjsPolyline1223" points="198.37,300.38 267.36,301.7 309.32,303.56 327.27,304.88 345.18,306.69 360.04,308.71 374.81,311.33 389.41,314.74 400.9,318.19 412.12,322.44 420.27,326.25 428.03,330.81 437.67,337.94 444.34,343.98 450.33,350.69 455.4,358.12 458.18,363.43 460.45,368.99 462.2,374.72 463.44,380.59 464.41,389.53 464.44,398.53 464.01,404.52 461.73,419.33 458.2,433.91 453,451.14 442.58,482.45 437.21,499.63 433.21,514.09 429.84,528.7 426.78,546.44 425.15,561.35 424.33,579.33 424.67,597.32"   /><polyline id="SvgjsPolyline1224" points="598.85,30.1 595.79,24.95 594.96,22.08 594.88,19.09 595.46,16.15 596.52,13.34 599.22,7.99"   /><polyline id="SvgjsPolyline1225" points="598.68,45.61 593.14,43.34 587.31,41.9 581.34,41.5 575.45,42.56 569.87,44.75 562.09,49.26 552.43,56.38 543.23,64.08 523.3,82.29 495.35,109.48 467.95,137.25 445.4,161.34 433.71,175.02 428.26,182.18 424.92,187.16 420.74,195.12 418.96,200.84 418.53,203.81 418.8,209.79 419.46,212.71 421.6,218.31 426.06,226.12 435.04,238.13 442.82,247.26 452.89,258.37 479.9,286.51 507.53,314.03 538.05,342.88 542.24,347.17 547.81,354.24 552.36,361.99 554.77,367.49 557.4,376.08 558.91,384.95 559.34,390.93 559.36,396.93 558.38,408.89 556.31,420.7 553.49,432.37 550.15,443.89 536.1,486.64 530.85,503.86 526.33,521.28 522.8,538.93 520.74,553.78 519.53,568.73 519.18,583.73 519.61,598.72"   /><polyline id="SvgjsPolyline1226" points="550.98,2.54 553.54,11.16 554.21,17.11 553.6,23.07 551.87,28.81 547.9,36.87 542.98,44.41 533.79,56.25 523.97,67.59 501.41,91.67 478.18,115.11 454.4,137.99 436.54,154.02 422.46,165.23 412.39,171.74 404.21,175.46 398.4,176.9 395.41,177.19 392.41,177.15 386.51,176.15 383.65,175.24 378.15,172.84 372.93,169.88 367.93,166.58 353.73,155.52 333.6,137.53 307.7,112.53 284.53,89.03 264.08,67.09 252.38,53.41 245.12,43.86 240.26,36.29 236.38,28.18 234.77,22.4 234.3,16.43 235.11,10.5 235.93,7.62 238.22,2.07"   /><polyline id="SvgjsPolyline1227" points="149.17,2.08 150.48,7.94 151.27,13.88 151.06,22.87 150.01,28.77 148.32,34.52 146.11,40.1 143.49,45.5 140.55,50.72 135.68,58.29 124.83,72.65 113.04,86.25 98.49,101.39 83.2,115.79 67.09,129.24 54.88,137.95 47.17,142.59 41.83,145.32 36.31,147.67 30.61,149.54 21.77,151.18 12.79,151.18 6.86,150.26 1.07,148.69"   /><polyline id="SvgjsPolyline1228" points="184.96,243.61 190.35,246.25 193.17,247.28 198.99,248.72 201.96,249.12 207.95,249.24 213.9,248.46 216.81,247.74 219.66,246.82 225.14,244.39 232.63,239.42 239.02,233.11 242.57,228.27 244.09,225.69 245.44,223.01 247.57,217.4 248.33,214.5 249.2,208.57 249.3,205.57 248.82,199.6 247.46,193.76 245.29,188.17 243.92,185.5 240.66,180.47 234.63,173.81 227.44,168.42 222.11,165.66 219.32,164.56 213.54,162.97 210.58,162.5 204.59,162.22 201.6,162.42 195.7,163.49 192.83,164.34 187.29,166.64 184.65,168.07 179.69,171.44 173.16,177.61 167.92,184.91 165.28,190.29 164.25,193.11 163.42,195.99 162.39,201.9 162.27,207.89 162.54,210.88 163.74,216.75 165.78,222.39 167.09,225.09 170.23,230.19 176.11,236.99 183.18,242.53"   /><polyline id="SvgjsPolyline1229" points="598.47,57.59 589.77,55.32 583.81,54.64 577.83,54.96 574.88,55.49 569.13,57.18 560.93,60.9 550.72,67.19 541.08,74.33 529.53,83.89 511.75,100.02 490.31,120.99 471.65,140.51 455.81,158.53 444.83,172.79 438.43,182.94 435.74,188.3 433.57,193.89 432.13,199.71 431.75,202.68 431.61,205.68 432.1,211.65 433.53,217.47 435.68,223.07 438.36,228.44 441.42,233.6 446.49,241.03 451.93,248.2 461.54,259.72 471.55,270.89 483.91,283.97 498.69,298.89 520.45,319.54 531.69,329.47 545.61,340.88 552.01,347.2 557.57,354.27 560.72,359.37 564.52,367.52 567.15,376.12 568.66,384.99 569.08,390.97 569.1,396.97 568.11,408.92 566.04,420.74 563.22,432.4 559.88,443.93 545.82,486.68 540.58,503.9 536.06,521.32 532.53,538.97 530.47,553.82 529.27,568.77 528.92,583.76 529.35,598.76"   /><polyline id="SvgjsPolyline1230" points="538.76,1.91 540.78,10.68 541.17,13.65 541.27,19.64 540.44,25.58 537.75,34.16 533.83,42.25 527.44,52.4 518.42,64.38 508.75,75.85 490.42,95.67 471.3,114.74 453.67,131.02 437.54,144.46 425.34,153.17 414.91,159.09 409.39,161.45 403.66,163.2 397.75,164.19 394.75,164.35 391.75,164.27 385.82,163.43 380.05,161.79 374.5,159.52 364.01,153.71 351.75,145.07 335.58,131.68 317.92,115.43 296.69,94.23 280.41,76.6 268.83,62.83 259.93,50.76 253.72,40.5 250.02,32.3 247.68,23.62 247.16,17.65 247.24,14.65 248.1,8.72 250.82,0.16"   /><polyline id="SvgjsPolyline1231" points="137.16,2.68 138.26,8.58 138.89,14.54 138.59,23.53 137.59,29.44 136.01,35.23 133.95,40.86 131.47,46.32 125.59,56.77 117,69.07 105.51,82.92 93.1,95.95 79.89,108.18 65.84,119.41 53.33,127.68 42.67,133.17 37.09,135.38 31.35,137.13 22.5,138.7 16.51,138.95 10.53,138.54 1.72,136.74"   /><polyline id="SvgjsPolyline1232" points="190.95,233.21 196.45,235.6 202.3,236.87 208.29,236.97 214.18,235.87 219.74,233.65 224.79,230.42 229.15,226.31 231.03,223.97 234.1,218.83 236.14,213.2 237.04,207.27 236.74,201.29 235.27,195.48 232.71,190.07 229.18,185.23 224.82,181.12 219.78,177.88 214.22,175.65 208.33,174.54 202.34,174.62 196.49,175.89 190.99,178.27 186.03,181.64 181.78,185.86 178.38,190.79 175.96,196.27 174.65,202.12 174.52,208.11 175.58,214 177.77,219.58 180.98,224.64 185.06,229.03 189.88,232.59"   /><polyline id="SvgjsPolyline1233" points="599.69,70.09 590.93,68.05 584.97,67.35 581.97,67.31 576,67.81 567.26,69.93 558.93,73.33 548.46,79.18 538.57,85.97 526.79,95.25 513.26,107.12 496,123.79 481.58,139.05 467.97,155.04 459.04,167.09 454.21,174.68 451.32,179.94 448.77,185.37 446.69,190.99 444.69,199.76 444.29,205.74 444.69,211.72 445.85,217.61 447.66,223.32 449.98,228.85 454.2,236.8 459.03,244.39 466.1,254.08 475.61,265.68 487.66,279.05 500.22,291.94 513.24,304.37 522.2,312.36 531.42,320.04 540.98,327.29 555.83,337.44 560.46,341.27 564.78,345.42 570.58,352.29 575.42,359.88 578.03,365.28 580.98,373.77 582.77,382.59 583.52,391.55 583.36,400.55 582.01,412.46 579.69,424.24 575.86,438.74 556.51,498.69 552.49,513.14 549.07,527.74 545.95,545.46 544.03,563.36 543.34,581.34 543.8,599.33"   /><polyline id="SvgjsPolyline1234" points="526.18,0.31 528.13,9.1 528.82,18.06 527.83,26.99 525.34,35.63 521.73,43.87 515.74,54.25 508.88,64.1 497.59,78.11 483.45,93.64 468.56,108.44 452.92,122.46 438.78,133.58 426.24,141.81 415.53,147.2 409.91,149.28 404.11,150.81 395.18,151.83 386.22,151.16 380.37,149.82 374.69,147.9 369.19,145.5 363.87,142.73 353.69,136.38 339.32,125.56 325.7,113.79 310.54,99.27 294.1,81.78 284.43,70.32 275.46,58.3 269.06,48.15 266.26,42.85 263.82,37.37 261.07,28.81 259.74,19.92 260.09,10.94 262.04,2.16"   /><polyline id="SvgjsPolyline1235" points="125.05,2.79 126.06,8.7 126.64,14.67 126.34,23.66 124.71,32.5 122.97,38.24 120.78,43.83 115.33,54.51 112.19,59.62 107.05,67.01 97.63,78.67 87.33,89.57 76.27,99.7 64.44,108.92 54.36,115.42 43.66,120.85 38.07,123.03 32.33,124.75 23.48,126.36 14.5,126.63 8.53,126.04 2.64,124.87"   /><polyline id="SvgjsPolyline1236" points="196.75,222.71 199.5,223.92 202.4,224.68 205.38,224.97 208.37,224.8 211.3,224.15 214.09,223.05 216.67,221.53 218.99,219.64 220.99,217.41 222.63,214.9 223.86,212.16 224.65,209.27 224.97,206.29 224.82,203.3 224.2,200.37 223.12,197.57 221.63,194.97 219.75,192.63 217.54,190.61 215.04,188.95 212.32,187.7 209.44,186.89 206.46,186.54 203.46,186.67 200.53,187.26 197.72,188.31 195.11,189.78 192.76,191.64 190.72,193.83 189.04,196.32 187.76,199.03 186.92,201.91 186.55,204.88 186.65,207.87 187.22,210.82 188.24,213.63 189.69,216.26 191.53,218.62 193.7,220.68 196.17,222.38"   /><polyline id="SvgjsPolyline1237" points="598.54,82.01 589.71,80.27 580.74,79.84 571.81,80.94 566.01,82.45 560.36,84.47 552.21,88.28 541.89,94.4 529.73,103.16 518.19,112.75 505.04,125.03 492.58,138.02 480.93,151.74 472.09,163.85 465.86,174.11 460.83,184.99 458.95,190.69 457.6,196.53 456.79,205.48 457.1,211.47 458.8,220.3 460.64,226.01 464.23,234.26 468.58,242.14 475.19,252.14 482.47,261.68 490.22,270.84 500.43,281.83 508.96,290.27 517.79,298.4 529.3,308.01 536.5,313.41 543.96,318.44 551.73,322.97 562.48,328.32 567.7,331.26 575.2,336.24 579.91,339.95 586.43,346.14 592.14,353.1 596.86,360.75 599.38,366.19"   /><polyline id="SvgjsPolyline1238" points="597.24,68.63 588.37,67.22 585.37,67.14 579.39,67.59 570.63,69.62 562.26,72.91 551.72,78.62 541.75,85.29 529.88,94.47 518.52,104.25 503.25,118.67 488.67,133.78 476.83,147.34 467.64,159.19 460.98,169.17 455.35,179.76 453.12,185.32 451.41,191.07 450.07,199.96 450.1,205.96 451.48,214.84 453.17,220.59 456.61,228.91 460.85,236.84 465.66,244.45 470.88,251.78 478.32,261.19 488.17,272.5 498.51,283.37 511.49,295.84 522.8,305.69 532.24,313.09 539.6,318.27 547.26,322.99 557.84,328.65 565.44,333.47 570.22,337.09 574.71,341.06 580.81,347.67 585.95,355.05 589.99,363.08 592.85,371.61 595.11,383.39 595.77,392.36 595.54,401.35 594.11,413.27 591.73,425.03 588.69,436.63 584.31,450.98 569.37,496.59 564.52,513.92 561.13,528.54 558.06,546.27 556.42,561.18 555.59,579.15 555.92,597.15"   /><polyline id="SvgjsPolyline1239" points="514.21,1.29 515.93,10.12 516.37,19.1 515.33,28.02 512.96,36.7 509.53,45.02 503.77,55.54 495.29,67.9 485.86,79.56 473.66,92.8 460.67,105.25 449.23,114.94 437.14,123.82 426.89,130.05 416.02,135.12 410.34,137.04 404.5,138.44 395.57,139.4 386.59,138.87 380.71,137.72 374.95,136.02 369.36,133.84 363.94,131.28 353.56,125.26 341.34,116.57 329.8,107 316.69,94.67 304.37,81.55 294.81,70 287.78,60.28 281.53,50.03 278.81,44.69 276.45,39.17 274.51,33.5 273.09,27.67 272.11,18.73 272.61,9.76 274.52,0.97"   /><polyline id="SvgjsPolyline1240" points="112.9,2.69 114.25,11.58 114.43,20.57 113.27,29.49 111.82,35.31 109.88,40.99 107.53,46.5 104.8,51.85 98.47,62.03 91.19,71.56 81.03,82.59 69.85,92.59 60.2,99.72 49.89,105.85 44.49,108.44 38.91,110.65 33.18,112.42 27.31,113.68 18.36,114.51 9.38,114 0.57,112.21"   /><polyline id="SvgjsPolyline1241" points="202.42,212.13 205.29,212.94 208.24,212.51 210.76,210.92 212.42,208.45 212.95,205.52 212.24,202.63 210.42,200.27 207.8,198.85 204.83,198.61 202.02,199.6 199.85,201.64 198.69,204.38 198.74,207.36 199.99,210.06 202.23,212.02"   /><polyline id="SvgjsPolyline1242" points="598.09,94.08 589.22,92.55 580.24,92.23 571.31,93.32 562.63,95.67 554.29,99.04 543.74,104.74 533.77,111.41 522.02,120.74 510.98,130.88 500.62,141.73 491.04,153.26 482.46,165.56 476.63,176.04 473.12,184.32 471.31,190.04 470.02,195.9 469.18,204.85 469.74,213.83 471.64,222.62 474.65,231.09 480,241.83 486.43,251.95 493.63,261.55 501.42,270.67 511.84,281.46 520.66,289.59 529.93,297.21 539.68,304.2 547.36,308.89 555.38,312.96 560.93,315.24 575.21,319.85 583.62,323.05 591.81,326.76 599.72,331.05"   /><polyline id="SvgjsPolyline1243" points="599.56,79.5 590.72,77.87 581.74,77.78 572.86,79.23 564.29,81.96 553.45,87.07 543.21,93.32 531.1,102.17 519.61,111.81 506.5,124.14 494.11,137.19 482.57,151 473.89,163.23 467.91,173.63 465.39,179.07 463.27,184.68 461.07,193.4 460.25,202.35 460.93,211.32 462.98,220.07 466.13,228.5 470.13,236.56 476.41,246.78 483.45,256.49 493.03,268.03 503.29,278.98 511.91,287.32 520.91,295.25 530.32,302.69 537.69,307.86 545.36,312.56 550.67,315.36 570.1,323.3 580.8,328.72 590.81,335.33 595.45,339.13 599.78,343.28"   /><polyline id="SvgjsPolyline1244" points="599.37,442.9 581.75,497.11 576.91,514.45 573.55,529.06 570.94,543.83 568.91,561.71 568.11,579.69 568.47,597.69"   /><polyline id="SvgjsPolyline1245" points="502.12,1.67 503.67,10.54 504.01,19.52 502.98,28.45 500.7,37.15 497.38,45.51 491.74,56.1 485.09,66.08 475.74,77.81 465.51,88.78 454.52,98.98 442.78,108.31 432.78,114.94 422.18,120.54 413.8,123.82 408.03,125.44 402.13,126.53 393.15,127.05 384.2,126.2 378.34,124.9 372.62,123.11 364.33,119.61 353.84,113.79 343.95,107.01 332.32,97.54 321.44,87.22 311.33,76.14 303.89,66.73 297.18,56.79 291.46,46.25 288.06,37.92 285.67,29.25 284.52,20.33 284.74,11.34 286.31,2.49"   /><polyline id="SvgjsPolyline1246" points="100.72,2.54 102.11,11.43 102.31,20.42 101.17,29.33 98.78,38.01 95.34,46.31 89.41,56.74 82.28,66.38 74.18,75.23 65.23,83.22 55.49,90.21 50.33,93.27 44.97,95.97 36.6,99.26 27.88,101.45 18.93,102.37 9.95,101.95 1.13,100.21"   /><polyline id="SvgjsPolyline1247" points="597.98,106.21 589.1,104.76 580.11,104.48 571.18,105.54 562.48,107.82 554.12,111.14 543.55,116.8 536.04,121.76 526.57,129.12 517.67,137.17 507.39,148.08 499.9,157.46 493.25,167.44 487.7,178.07 484.5,186.48 482.34,195.21 481.43,204.15 481.87,213.14 483.6,221.96 486.46,230.49 491.65,241.3 498.04,251.45 505.32,260.98 513.31,269.94 521.9,278.31 531.08,286.04 538.34,291.35 548.58,297.6 556.69,301.5 565.16,304.51 570.99,305.93 597.73,309.66"   /><polyline id="SvgjsPolyline1248" points="599.52,480.89 594.1,498.06 590.05,512.5 586.6,527.1 583.88,541.85 581.99,556.72 581.09,568.69 580.73,583.68 581.16,598.68"   /><polyline id="SvgjsPolyline1249" points="489.98,1.78 491.46,10.65 491.78,19.64 490.76,28.58 488.51,37.28 485.22,45.66 479.57,56.23 474.59,63.72 467.17,73.15 459.02,81.96 450.22,90.11 440.8,97.54 430.73,104.06 419.99,109.39 411.5,112.37 402.71,114.24 393.73,114.83 384.77,114.09 376.01,112.08 367.56,108.99 356.88,103.54 346.87,96.93 337.5,89.44 328.75,81.23 320.66,72.37 313.31,62.89 308.39,55.35 302.85,44.72 299.67,36.3 297.55,27.56 296.69,18.61 297.15,9.63 298.91,0.81"   /><polyline id="SvgjsPolyline1250" points="88.53,2.46 90.01,11.34 90.23,20.32 89.59,26.29 87.51,35.03 84.22,43.4 79.91,51.3 74.76,58.68 66.79,67.64 57.73,75.49 50.28,80.54 42.32,84.72 33.89,87.86 25.1,89.77 16.13,90.31 7.18,89.42 1.34,88.06"   /><polyline id="SvgjsPolyline1251" points="598,118.38 589.12,116.93 580.13,116.64 574.16,117.2 565.37,119.1 556.9,122.12 548.81,126.06 541.14,130.76 531.55,137.97 522.71,146.07 514.64,154.95 507.47,164.57 502.81,172.27 498.91,180.37 495.95,188.87 494.12,197.67 493.58,206.65 494.39,215.6 496.46,224.35 499.62,232.78 503.68,240.8 510.21,250.86 515.79,257.92 523.98,266.69 532.94,274.67 542.63,281.73 550.39,286.29 558.55,290.07 567.09,292.88 575.93,294.53 581.92,294.91 587.91,294.7 599.85,293.52"   /><polyline id="SvgjsPolyline1252" points="599.59,523.95 595.77,544.59 593.79,562.48 593.05,580.46 593.46,598.45"   /><polyline id="SvgjsPolyline1253" points="477.81,1.8 479.3,10.67 479.62,19.66 479.08,25.63 477.2,34.42 474.17,42.89 470.2,50.96 465.45,58.6 460.05,65.81 454.11,72.56 445.44,80.85 435.96,88.2 428.34,92.99 420.29,97 411.84,100.08 403.06,102.02 394.09,102.68 385.13,101.98 376.36,99.99 367.92,96.88 359.89,92.84 352.28,88.03 342.83,80.65 334.17,72.34 328.25,65.57 322.88,58.35 318.15,50.7 314.21,42.61 311.22,34.13 309.38,25.33 308.83,16.35 309.23,10.37 310.9,1.53"   /><polyline id="SvgjsPolyline1254" points="76.33,2.58 77.94,11.43 78.28,17.41 77.91,23.4 76.08,32.2 74.07,37.85 70.02,45.88 64.91,53.28 58.89,59.96 52.08,65.84 44.57,70.78 36.44,74.63 30.74,76.49 21.89,78.07 15.9,78.26 9.92,77.75 1.17,75.72"   /><polyline id="SvgjsPolyline1255" points="598,130.57 589.13,129.05 583.14,128.7 577.15,128.97 568.29,130.51 559.74,133.29 551.61,137.13 543.95,141.85 536.79,147.3 530.16,153.38 524.1,160.03 518.67,167.21 513.98,174.88 510.17,183.03 507.43,191.6 505.93,200.46 505.69,206.46 506.08,212.44 507.78,221.27 510.7,229.77 514.66,237.85 519.47,245.45 525.01,252.55 531.16,259.11 537.88,265.1 545.11,270.44 552.85,275.03 561.05,278.72 569.66,281.32 575.57,282.36 584.55,282.78 590.53,282.28 599.32,280.42"   /><polyline id="SvgjsPolyline1256" points="465.62,1.86 467.19,10.72 467.56,16.71 466.94,25.67 465.75,31.55 464,37.29 460.43,45.54 455.89,53.31 450.55,60.55 444.52,67.23 437.87,73.29 430.66,78.67 422.92,83.24 414.68,86.86 408.96,88.65 400.11,90.27 394.13,90.57 388.14,90.24 379.3,88.59 373.58,86.78 365.36,83.13 357.63,78.53 350.43,73.13 343.8,67.05 337.79,60.36 332.47,53.11 327.96,45.33 324.42,37.06 322.69,31.32 321.52,25.43 320.94,16.46 321.77,7.51 323.09,1.66"   /><polyline id="SvgjsPolyline1257" points="63.28,0.13 65.47,8.85 66.21,14.8 66.14,20.8 65.25,26.73 63.59,32.49 59.78,40.62 54.6,47.97 50.49,52.34 43.49,57.98 38.33,61.04 32.85,63.46 27.1,65.17 21.18,66.11 15.18,66.23 9.23,65.54 0.6,63.05"   /><polyline id="SvgjsPolyline1258" points="597.87,142.77 589.02,141.14 583.03,140.76 577.05,141.07 571.13,142.04 562.52,144.65 557.04,147.09 549.28,151.63 544.45,155.19 539.91,159.11 533.7,165.61 529.99,170.33 525.19,177.93 521.43,186.1 519.6,191.81 518,200.66 517.76,206.65 518.2,212.63 520.08,221.42 522.09,227.08 526.07,235.14 529.3,240.2 534.88,247.25 541.24,253.61 545.87,257.42 553.35,262.42 558.66,265.2 567.06,268.41 572.89,269.82 578.84,270.6 584.84,270.7 590.8,270.13 599.55,268.06"   /><polyline id="SvgjsPolyline1259" points="453.42,2.09 455.12,10.93 455.51,16.91 455.2,22.9 454.2,28.81 452.55,34.58 450.31,40.14 447.53,45.46 442.49,52.9 438.61,57.48 432.11,63.7 424.88,69.05 419.69,72.06 411.43,75.61 405.66,77.24 399.75,78.22 393.76,78.51 387.77,78.11 381.88,77.02 376.14,75.28 367.93,71.6 362.79,68.51 355.64,63.06 349.23,56.75 345.41,52.12 340.48,44.6 337.78,39.25 335.63,33.65 334.09,27.85 333.2,21.92 333,15.93 333.51,9.95 335.53,1.19"   /><polyline id="SvgjsPolyline1260" points="51.21,1.8 53.11,7.49 54.28,13.36 54.43,19.35 54.12,22.34 52.75,28.17 50.45,33.7 47.29,38.8 43.39,43.35 38.85,47.26 33.75,50.42 28.23,52.74 22.39,54.11 19.41,54.43 13.42,54.28 7.54,53.12 1.93,51"   /><polyline id="SvgjsPolyline1261" points="597.48,154.96 591.62,153.64 585.68,152.88 579.68,152.88 573.74,153.66 567.93,155.18 562.35,157.37 557.06,160.19 552.09,163.55 547.5,167.4 541.39,174 537.91,178.89 534.96,184.11 532.62,189.63 530.94,195.39 529.99,201.3 529.8,207.3 530.38,213.27 531.72,219.11 533.75,224.75 536.41,230.13 539.64,235.18 543.38,239.87 547.57,244.16 552.17,248.01 557.14,251.37 562.44,254.17 568.02,256.36 573.83,257.86 579.77,258.63 585.77,258.62 591.72,257.85 597.52,256.34"   /><polyline id="SvgjsPolyline1262" points="441.23,2.62 442.62,8.46 443.41,14.4 443.39,20.4 443.07,23.38 441.85,29.25 439.88,34.91 437.22,40.29 433.95,45.31 430.14,49.94 425.85,54.13 421.11,57.81 415.99,60.94 410.54,63.43 404.82,65.23 398.92,66.26 392.93,66.49 386.96,65.9 381.12,64.53 375.51,62.41 370.2,59.63 365.25,56.25 360.7,52.34 356.61,47.96 353.03,43.14 350.03,37.96 347.66,32.44 346.01,26.68 345.13,20.75 345.06,14.75 345.34,11.77 346.48,5.88 348.38,0.19"   /><polyline id="SvgjsPolyline1263" points="37.89,1.5 39.29,4.15 41.45,9.75 42.18,12.65 42.58,18.62 42.23,21.6 41.53,24.52 39.11,29.99 35.48,34.76 33.28,36.79 30.86,38.57 25.49,41.21 19.65,42.5 16.65,42.61 10.73,41.74 7.89,40.78 5.18,39.48 0.31,36"   /><polyline id="SvgjsPolyline1264" points="599.51,168.09 590.87,165.62 587.92,165.1 581.93,164.75 578.94,164.94 575.97,165.35 570.17,166.87 567.37,167.95 562.05,170.71 557.17,174.2 552.81,178.31 549.06,182.99 547.43,185.51 544.74,190.86 542.86,196.56 542.25,199.49 541.74,205.47 542.16,211.44 542.73,214.39 544.52,220.11 547.14,225.5 548.73,228.04 552.43,232.77 556.73,236.94 561.56,240.49 566.85,243.32 572.49,245.35 578.37,246.51 581.36,246.73 584.36,246.73 590.31,246 593.22,245.29 598.85,243.23"   /><polyline id="SvgjsPolyline1265" points="428.06,0.8 430.67,9.4 431.22,12.35 431.54,18.33 430.85,24.29 430.13,27.2 429.17,30.04 426.57,35.44 423.17,40.37 419.05,44.73 414.32,48.41 411.75,49.97 409.08,51.32 403.44,53.35 400.51,54.01 394.55,54.57 391.55,54.47 385.63,53.5 379.96,51.56 377.26,50.25 372.21,47.02 369.89,45.13 365.71,40.83 362.23,35.95 360.78,33.32 358.54,27.77 357.77,24.87 356.97,18.93 357.2,12.94 357.7,9.98 358.44,7.07 360.63,1.5"   /><polyline id="SvgjsPolyline1266" points="29.45,11.92 30.34,14.78 30.56,17.76 30.11,20.72 29.01,23.5 27.31,25.97 25.11,28 22.51,29.48 19.65,30.35 16.66,30.56 13.7,30.09 10.93,28.96 8.47,27.25 6.46,25.03 4.99,22.42 4.14,19.55 3.96,16.56 4.45,13.61 5.6,10.85 7.33,8.4 9.56,6.41 12.18,4.96 15.05,4.13 18.04,3.96 20.99,4.48 23.75,5.64 26.18,7.39 28.16,9.64"   /><polyline id="SvgjsPolyline1267" points="599.88,181.4 597.21,180.03 591.62,177.87 585.76,176.6 582.77,176.44 576.81,177.07 571.12,178.93 565.92,181.91 563.57,183.77 559.48,188.15 557.78,190.62 556.33,193.25 554.28,198.87 553.45,204.8 553.51,207.8 554.57,213.7 556.83,219.24 560.17,224.22 562.19,226.44 566.83,230.22 569.41,231.74 572.13,233 577.89,234.64 583.87,235.04 589.8,234.17 592.66,233.27 598.03,230.62"   /><polyline id="SvgjsPolyline1268" points="414.74,0.84 416.21,3.46 418.51,8.99 419.8,14.84 419.91,17.83 419.06,23.76 416.83,29.32 413.39,34.21 411.27,36.34 406.39,39.8 400.84,42.04 394.92,42.92 388.96,42.36 383.3,40.41 380.68,38.95 378.24,37.2 374.04,32.94 370.92,27.83 369.06,22.14 368.6,16.17 368.91,13.19 370.58,7.44 373.54,2.24"   /><polyline id="SvgjsPolyline1269" points="34.39,1.37 35.98,3.91 38.09,9.51 38.55,12.47 38.6,15.47 38.21,18.44 37.39,21.32 36.15,24.05 34.52,26.57 32.53,28.81 30.22,30.71 27.63,32.22 24.82,33.27 21.88,33.83 18.88,33.86 15.93,33.33 13.14,32.25 10.61,30.65 8.45,28.58 6.78,26.09 5.7,23.3 5.3,20.34 5.66,17.37 6.8,14.6 8.67,12.27 11.17,10.64 14.08,9.98 17.01,10.53 19.3,12.4 19.88,15.23 17.05,18.27"   /><polyline id="SvgjsPolyline1270" points="589.51,189.91 586.67,188.96 583.7,188.53 580.71,188.63 577.78,189.25 575,190.37 572.45,191.95 570.22,193.94 568.35,196.29 566.92,198.92 565.97,201.76 565.53,204.73 565.61,207.72 566.22,210.65 567.33,213.44 568.9,215.99 570.88,218.23 573.22,220.1 575.85,221.54 578.69,222.51 581.65,222.96 584.64,222.89 587.58,222.3 590.37,221.2 592.93,219.64 595.18,217.66 597.06,215.33 598.51,212.71 599.48,209.87 599.95,206.91 599.89,203.92 599.31,200.98 598.22,198.19 596.67,195.62 594.7,193.36 592.37,191.48 589.76,190.01"   /><polyline id="SvgjsPolyline1271" points="406.57,11.47 407.54,14.31 407.87,17.28 407.53,20.26 406.55,23.09 404.97,25.63 402.88,27.77 400.37,29.41 397.57,30.46 394.6,30.87 391.62,30.62 388.77,29.72 386.18,28.21 383.98,26.18 382.27,23.72 381.14,20.95 380.65,18 380.82,15.01 381.64,12.13 383.07,9.5 385.04,7.24 387.45,5.47 390.19,4.26 393.13,3.68 396.12,3.77 399.02,4.51 401.69,5.87 404,7.77 405.84,10.13"   /><polyline id="SvgjsPolyline1272" points="584.76,200.93 581.82,200.6 579.18,201.93 577.67,204.48 577.79,207.43 579.5,209.85 582.24,210.95 585.15,210.39 587.28,208.34 587.96,205.47 586.97,202.68 584.62,200.88"   /><polyline id="SvgjsPolyline1273" points="410.71,0.56 413.78,5.69 414.78,8.52 415.39,11.45 415.58,14.45 415.33,17.43 414.66,20.35 413.56,23.14 412.06,25.74 410.19,28.07 407.97,30.09 405.47,31.74 402.72,32.95 399.82,33.67 396.83,33.86 393.85,33.51 391,32.61 388.37,31.17 386.08,29.23 384.25,26.86 382.98,24.15 382.38,21.22 382.51,18.23 383.42,15.38 385.09,12.9 387.43,11.05 390.26,10.09 393.23,10.3 395.77,11.82 396.93,14.5 394.5,18.69"   /></g></svg>