<?xml version="1.0" standalone="no"?>
<svg id="SvgjsSvg1001" width="600" height="600" xmlns="http://www.w3.org/2000/svg" version="1.1" xmlns:xlink="http://www.w3.org/1999/xlink" xmlns:svgjs="http://svgjs.com/svgjs" class="svg-paper" viewBox="0 0 600 600"><title id="SvgjsTitle7372">x=(sqrt(x*x + y*y)+exp(cos(sqrt(x*x + y*y))))|y=x|dTest=0.0|sd=0.2|sm=0.2|ts=0.05 | generated with FlowLines</title><style>*{fill:none;stroke:#777}</style><g id="SvgjsG7373"><polyline id="SvgjsPolyline7374" points="0,521.08 23.71,534.01 47.7,546.4 69.27,556.92 93.84,568.11 115.97,577.39 138.39,585.94 158.26,592.73 181.26,599.59"   /><polyline id="SvgjsPolyline7375" points="0.65,507.65 37.42,527.95 69.43,544.41 99.26,558.53 124.06,569.19 149.27,578.86 174.89,587.37 200.92,594.52 224.38,599.61"   /><polyline id="SvgjsPolyline7376" points="2.09,535.96 17.94,544.48 39.31,555.41 74.57,572.06 91.08,579.23 110.53,587.14 130.2,594.5 144.38,599.38"   /><polyline id="SvgjsPolyline7377" points="1.42,494.22 45.79,519.35 69.63,532.04 91.06,542.83 107.32,550.55 126.51,559.07 145.97,566.98 162.86,573.19 179.96,578.82 197.25,583.82 214.73,588.11 232.37,591.67 250.15,594.44 265.06,596.12 283.01,597.36 298.01,597.74 313.01,597.52 330.97,596.46 345.89,594.94 363.71,592.35 381.38,588.97 398.9,584.83 416.24,579.99 433.37,574.49 450.31,568.4 469.82,560.62 486.33,553.45 508.06,543.26 526.84,533.86 548.07,522.68 574.33,508.17 597.73,494.71"   /><polyline id="SvgjsPolyline7378" points="1.64,549.38 28.23,563.28 55.26,576.29 82.72,588.38 110.6,599.44"   /><polyline id="SvgjsPolyline7379" points="2.33,480.78 51.53,509.57 72.53,521.19 93.77,532.36 115.31,542.94 131.69,550.4 148.28,557.38 165.09,563.82 182.12,569.65 199.36,574.81 216.8,579.24 234.43,582.89 249.23,585.29 267.11,587.39 285.07,588.6 300.06,588.91 315.06,588.59 333.02,587.38 350.89,585.28 365.69,582.86 383.32,579.21 400.76,574.78 418,569.61 435.03,563.78 454.62,556.21 471.17,549.14 487.51,541.6 506.34,532.3 527.58,521.13 548.58,509.51 597.77,480.71"   /><polyline id="SvgjsPolyline7380" points="389.92,599.37 413.22,593.62 439.07,585.82 461.7,577.84 486.78,567.84 514.2,555.68 538.51,543.95 567.84,528.81 599.37,511.44"   /><polyline id="SvgjsPolyline7381" points="1.26,562.81 17.18,571.22 38.68,581.88 57.74,590.7 77.01,599.03"   /><polyline id="SvgjsPolyline7382" points="0.88,465.76 54.69,498.51 75.48,510.51 93.87,520.64 109.82,528.98 128.69,538.21 147.85,546.79 164.53,553.55 181.46,559.68 198.61,565.13 215.99,569.81 233.57,573.69 251.31,576.69 266.2,578.5 281.15,579.67 299.14,580.19 314.14,579.9 332.1,578.67 349.96,576.51 364.75,574.01 382.35,570.22 399.74,565.61 416.92,560.23 433.87,554.16 450.57,547.46 467.04,540.19 485.97,531.1 504.62,521.45 523.03,511.35 543.83,499.38 597.66,466.66"   /><polyline id="SvgjsPolyline7383" points="434.12,599.99 451.28,594.55 471.09,587.59 490.68,580.02 512.79,570.7 531.93,562.05 553.55,551.65 577.6,539.36 598.71,527.95"   /><polyline id="SvgjsPolyline7384" points="0.91,576.24 22.17,587.37 46.49,599.09"   /><polyline id="SvgjsPolyline7385" points="2.18,452.33 55.39,486.05 75.92,498.48 96.71,510.47 115.17,520.48 133.93,529.92 150.27,537.47 166.86,544.45 183.71,550.77 200.81,556.37 215.25,560.44 232.78,564.54 250.49,567.74 265.36,569.68 283.3,571.11 301.29,571.54 316.29,571.13 334.23,569.72 349.1,567.8 366.82,564.62 384.35,560.54 401.66,555.61 418.73,549.9 435.54,543.48 452.1,536.42 468.4,528.79 487.12,519.27 505.55,509.2 523.72,498.69 546.81,484.69 600,450.93"   /><polyline id="SvgjsPolyline7386" points="472.38,599.9 503.24,588.21 533.58,575.24 566.11,559.81 598.03,543.17"   /><polyline id="SvgjsPolyline7387" points="0.55,589.68 19.12,599.48"   /><polyline id="SvgjsPolyline7388" points="1.18,437.25 61.31,476.85 97.07,498.87 115.32,509.26 133.88,519.08 150.07,526.95 166.52,534.24 183.26,540.86 200.27,546.75 217.54,551.81 235.05,555.98 252.75,559.21 267.63,561.14 285.57,562.51 300.57,562.85 318.56,562.29 333.5,561.02 348.37,559.04 366.06,555.75 383.56,551.51 400.81,546.4 417.81,540.47 434.52,533.8 450.96,526.47 467.13,518.57 485.68,508.71 503.91,498.29 524.43,485.85 544.69,472.99 599.77,436.62"   /><polyline id="SvgjsPolyline7389" points="507.74,599.34 532.66,588.96 554.52,579.05 576.09,568.53 599.99,555.98"   /><polyline id="SvgjsPolyline7390" points="0.41,422.16 59.8,462.87 82.36,477.7 97.6,487.28 115.64,498.03 134,508.22 150.03,516.4 166.35,524 182.96,530.91 199.88,537.07 217.07,542.38 234.52,546.78 252.2,550.19 267.05,552.24 284.99,553.71 299.98,554.1 314.98,553.71 332.91,552.24 350.73,549.7 365.44,546.78 382.9,542.39 400.09,537.08 417.01,530.92 433.62,524.01 449.94,516.42 465.98,508.23 481.74,499.54 499.82,488.86 515.08,479.33 535.19,466.22 599.56,422.18"   /><polyline id="SvgjsPolyline7391" points="537.46,599.96 553.88,592.58 570.12,584.83 599.44,569.68"   /><polyline id="SvgjsPolyline7392" points="2.32,408.79 63.45,452.24 98.31,475.66 118.71,488.31 136.92,498.76 152.84,507.15 169.07,514.93 185.62,522.01 202.49,528.29 216.77,532.87 234.17,537.48 248.85,540.55 266.64,543.24 284.57,544.81 299.57,545.23 317.55,544.68 332.49,543.34 347.34,541.22 364.98,537.68 379.51,533.94 396.69,528.58 413.57,522.33 432.86,514.04 449.06,506.18 464.94,497.73 483.12,487.21 500.96,476.13 518.51,464.59 538.3,451.02 599.42,407.56"   /><polyline id="SvgjsPolyline7393" points="567.19,599.58 585.96,590.17 599.2,583.13"   /><polyline id="SvgjsPolyline7394" points="2,393.68 64.82,439.91 84.39,453.81 101.75,465.63 119.4,476.99 137.42,487.78 153.19,496.46 169.28,504.53 185.7,511.88 202.47,518.43 219.56,524.08 234.03,528.03 251.62,531.8 266.45,534.07 281.37,535.54 299.36,536.19 314.35,535.8 332.28,534.23 347.12,532.02 364.73,528.33 382.09,523.58 399.15,517.85 415.88,511.22 432.27,503.79 448.33,495.66 466.66,485.42 482.06,476.08 499.69,464.68 534.14,440.66 599.39,392.67"   /><polyline id="SvgjsPolyline7395" points="594.19,599.41 599.46,596.55"   /><polyline id="SvgjsPolyline7396" points="1.88,378.57 68.79,429.36 102.85,453.92 120.3,465.6 138.12,476.71 153.73,485.67 169.68,494.01 185.99,501.64 202.65,508.44 219.66,514.32 234.08,518.44 248.7,521.8 266.45,524.76 281.37,526.29 299.35,526.97 314.34,526.57 332.26,524.92 350.03,522.05 364.66,518.76 379.1,514.7 396.14,508.9 412.82,502.16 429.15,494.59 445.13,486.29 460.76,477.37 478.61,466.3 496.08,454.66 513.24,442.56 532.58,428.34 599.49,377.56"   /><polyline id="SvgjsPolyline7397" points="1.93,363.47 72.87,418.85 106.6,443.87 121.41,454.11 139.03,465.52 154.49,474.75 170.29,483.36 186.47,491.25 203.03,498.3 219.96,504.4 237.23,509.46 251.86,512.79 269.62,515.66 284.55,517.07 299.54,517.56 314.53,517.13 332.44,515.39 350.19,512.38 364.78,508.93 382.02,503.75 398.91,497.53 415.42,490.37 431.56,482.4 444.72,475.2 460.19,466.01 477.83,454.62 495.1,442.66 528.78,417.58 599.74,362.22"   /><polyline id="SvgjsPolyline7398" points="2.13,348.38 77.08,408.35 108.07,432.03 125.18,444.21 140.14,454.21 155.44,463.69 171.1,472.56 189.87,481.98 206.39,489.12 223.3,495.28 237.67,499.57 255.21,503.61 270.01,506 284.94,507.45 299.93,507.94 317.91,507.25 332.82,505.62 347.6,503.05 365.09,498.81 382.25,493.39 396.26,488.05 412.72,480.76 428.77,472.63 444.44,463.76 459.74,454.28 474.71,444.29 491.82,432.11 522.81,408.44 597.77,348.47"   /><polyline id="SvgjsPolyline7399" points="0.08,331.44 25.82,352.09 81.41,397.85 112.12,421.88 126.64,432.52 143.95,444.41 159.15,454.05 172.11,461.6 188.04,469.99 204.38,477.52 218.32,483.05 235.42,488.67 252.87,493.07 267.63,495.72 282.53,497.41 300.51,498.1 318.49,497.32 333.39,495.57 348.14,492.85 365.57,488.38 379.82,483.72 396.56,477.11 412.89,469.53 428.79,461.09 441.73,453.51 456.91,443.84 471.75,433.66 488.7,421.26 519.39,397.2 574.98,351.44 598.38,332.67"   /><polyline id="SvgjsPolyline7400" points="0.45,316.36 26.07,337.16 90.44,391.13 113.89,409.84 130.68,422.46 145.38,432.84 160.43,442.71 175.87,451.96 191.74,460.45 208.05,468.06 224.8,474.63 239.08,479.22 253.62,482.91 268.36,485.65 283.26,487.36 298.25,488.02 313.24,487.61 328.16,486.14 342.95,483.64 360.43,479.36 374.72,474.8 391.48,468.26 407.8,460.68 423.68,452.21 439.14,442.98 454.2,433.13 468.91,422.76 485.7,410.15 513.8,387.64 571.23,339.4 599.16,316.7"   /><polyline id="SvgjsPolyline7401" points="0.87,301.31 26.42,322.19 88.01,374.79 115.82,397.65 132.43,410.5 146.99,421.09 161.89,431.18 177.19,440.66 192.93,449.39 206.4,455.98 220.2,461.86 237.17,467.85 254.55,472.53 269.28,475.32 284.18,477.05 299.16,477.68 314.15,477.18 329.06,475.57 343.82,472.89 361.23,468.34 375.43,463.54 392.07,456.68 408.24,448.78 423.95,439.99 436.7,432.1 449.18,423.77 463.81,413.29 480.51,400.55 506.11,379.73 567.71,327.13 597.83,302.37"   /><polyline id="SvgjsPolyline7402" points="1.31,286.26 33.7,312.99 94.9,366.05 120.24,387.19 136.74,400.18 151.2,410.89 166.02,421.1 178.69,429.14 194.3,438.09 210.4,446.13 227,453.1 241.18,457.96 255.67,461.86 270.39,464.71 285.29,466.44 300.27,467.01 315.25,466.4 330.15,464.63 344.86,461.74 359.33,457.8 373.51,452.91 390.09,445.9 406.17,437.83 421.77,428.86 434.43,420.81 449.24,410.58 463.69,399.85 477.84,388.73 507.79,363.74 566.71,312.64 599.14,285.94"   /><polyline id="SvgjsPolyline7403" points="1.73,271.22 34.14,297.93 101.85,357.21 129.42,380.37 143.54,391.52 157.98,402.27 170.3,410.83 182.92,418.94 198.5,427.95 211.86,434.75 228.38,441.9 242.53,446.88 256.99,450.86 271.7,453.74 286.6,455.45 301.59,455.94 313.57,455.44 328.47,453.72 343.18,450.82 357.64,446.83 374.57,440.73 388.29,434.68 401.66,427.87 417.23,418.85 429.84,410.73 442.16,402.17 456.6,391.42 470.72,380.26 500.55,355.14 565.99,297.82 584.39,282.41 598.43,271.14"   /><polyline id="SvgjsPolyline7404" points="2.1,256.2 20.8,271.24 39.15,286.71 104.35,344.31 131.72,367.7 145.72,379 160.03,389.92 172.25,398.62 184.77,406.89 200.24,416.09 216.23,424.33 229.98,430.33 244.09,435.41 258.53,439.45 273.24,442.35 288.15,444.01 300.14,444.41 312.13,443.99 327.03,442.3 341.74,439.39 356.17,435.33 373.06,429.1 386.72,422.91 402.62,414.48 415.47,406.74 427.98,398.47 442.6,387.97 468.5,367.52 495.86,344.13 561.06,286.53 581.73,269.16 598.13,256.05"   /><polyline id="SvgjsPolyline7405" points="0.02,239.35 23.51,258.01 44.15,275.41 115.95,339.13 138.76,358.62 150.4,368.08 164.67,379.06 176.85,387.81 186.82,394.49 202.19,403.84 215.42,410.91 229.04,417.18 243.06,422.52 257.43,426.81 272.1,429.93 283.99,431.5 298.96,432.27 313.95,431.69 325.86,430.26 340.56,427.32 354.98,423.18 369.04,417.97 382.72,411.82 396,404.86 411.44,395.61 423.92,387.28 436.08,378.5 447.97,369.36 461.95,358.03 487,336.54 556.55,274.81 577.21,257.42 598.36,240.64"   /><polyline id="SvgjsPolyline7406" points="0.14,224.34 23.79,242.8 46.82,262.03 69.39,281.78 120.82,327.78 145.88,349.25 169.42,367.85 181.59,376.62 191.56,383.29 206.95,392.61 220.22,399.61 233.9,405.75 247.98,410.92 262.42,414.95 274.19,417.29 286.1,418.77 301.08,419.37 316.05,418.57 327.94,416.93 339.67,414.45 354.07,410.24 368.09,404.93 381.71,398.65 397.51,390.04 410.25,382.12 420.18,375.38 432.31,366.55 455.78,347.87 480.79,326.35 532.22,280.35 554.82,260.62 577.89,241.44 599.21,224.88"   /><polyline id="SvgjsPolyline7407" points="0.11,209.35 23.95,227.55 49.43,248.52 74.33,270.18 130.28,320.12 150.81,337.66 174.35,356.26 194.01,370.02 209.37,379.39 222.63,386.4 236.32,392.53 247.57,396.7 259.06,400.14 273.72,403.3 288.6,405.11 300.59,405.52 312.58,405.02 327.45,403.1 339.18,400.59 353.56,396.32 367.55,390.91 381.11,384.52 394.25,377.3 406.99,369.37 426.6,355.55 447.79,338.82 470.61,319.34 526.56,269.4 549.19,249.7 574.63,228.68 598.45,210.45"   /><polyline id="SvgjsPolyline7408" points="2.33,196.12 16.82,206.8 31.06,217.81 56.56,238.75 81.5,260.36 133.07,306.21 155.88,325.69 177.07,342.43 196.71,356.21 209.48,364.07 222.69,371.18 233.57,376.23 247.57,381.61 259.05,385.09 273.7,388.28 288.59,390.1 300.58,390.52 312.56,390.01 324.47,388.58 336.25,386.26 350.68,382.2 364.73,376.95 378.34,370.66 391.51,363.49 404.26,355.58 423.86,341.73 442.69,326.87 465.54,307.42 517.11,261.58 546.61,236.07 572.2,215.24 598.62,195.47"   /><polyline id="SvgjsPolyline7409" points="1.98,181.16 28.63,200.61 42.81,211.69 59.08,224.97 84.19,246.39 140.5,295.92 161.13,313.34 180.02,328.15 189.75,335.17 199.71,341.86 212.54,349.62 225.83,356.58 236.79,361.46 250.89,366.57 265.37,370.46 277.17,372.62 289.1,373.9 301.09,374.28 313.07,373.74 324.98,372.3 339.67,369.26 351.19,365.9 365.22,360.62 376.13,355.62 389.35,348.54 402.12,340.67 412.04,333.92 421.73,326.84 445.17,308.13 463.41,292.53 519.72,242.99 549.54,217.86 575.5,197.48 599.84,179.95"   /><polyline id="SvgjsPolyline7410" points="1.39,166.22 25.95,183.45 54.51,205.36 84.54,230.23 141.23,279.34 159.57,294.82 180.76,311.54 190.48,318.58 200.44,325.27 213.29,333.02 226.6,339.92 237.6,344.71 248.89,348.77 260.43,352.05 275.14,354.98 287.06,356.35 299.04,356.86 314.03,356.27 325.94,354.81 337.71,352.49 349.28,349.35 363.41,344.3 374.38,339.45 385.04,333.95 397.95,326.3 407.95,319.67 417.7,312.69 441.27,294.13 459.6,278.63 514,231.47 548.69,202.81 574.93,182.81 599.53,165.64"   /><polyline id="SvgjsPolyline7411" points="0.57,151.29 30.32,171.56 56.74,191.33 87.09,215.82 146.58,266.26 165.09,281.54 186.51,297.97 203.92,309.7 216.89,317.23 227.63,322.58 238.69,327.25 250.03,331.15 261.62,334.25 273.4,336.53 285.31,337.97 300.29,338.6 315.27,337.92 327.18,336.44 338.95,334.12 350.53,330.98 361.86,327.04 372.9,322.34 383.62,316.95 396.57,309.39 413.96,297.62 435.37,281.17 456.16,263.95 508.75,219.28 543.73,190.97 558.04,180.06 572.6,169.48 599.94,151"   /><polyline id="SvgjsPolyline7412" points="2.03,138 32.09,157.8 61.21,178.96 96.53,206.84 166.04,264.01 187.57,280.3 205.03,291.95 218.05,299.4 228.83,304.66 239.94,309.21 251.33,312.96 262.96,315.9 274.77,318.03 286.7,319.35 298.68,319.85 310.68,319.53 322.62,318.39 334.46,316.44 346.13,313.68 357.59,310.1 368.76,305.73 379.61,300.61 392.72,293.32 410.28,281.82 429.53,267.49 450.58,250.58 506.08,204.72 524.83,189.74 541.47,176.93 568.21,157.59 598.29,137.82"   /><polyline id="SvgjsPolyline7413" points="0.75,123.12 33.69,144.01 48.55,154.16 63.18,164.64 94.25,188.22 155.22,236.87 171.8,249.76 191.19,263.89 208.85,275.25 219.34,281.08 230.15,286.27 241.29,290.73 252.72,294.38 264.38,297.21 276.2,299.23 288.14,300.45 300.13,300.86 312.12,300.43 324.05,299.19 335.88,297.15 347.53,294.31 358.95,290.64 370.09,286.17 380.9,280.96 391.38,275.12 409.02,263.74 428.41,249.6 447.34,234.84 508.32,186.21 539.45,162.72 566.53,143.86 581.63,134.06 599.48,123"   /><polyline id="SvgjsPolyline7414" points="1.83,109.8 35.1,130.14 50.16,140 67.45,151.92 96.51,173.16 172.84,231.39 194.92,246.91 210.2,256.43 220.72,262.2 231.56,267.34 242.71,271.76 254.16,275.36 262.9,277.51 274.7,279.65 286.63,280.97 298.61,281.48 310.61,281.16 322.55,280.03 334.39,278.08 346.06,275.3 357.5,271.68 368.65,267.25 379.48,262.09 390,256.32 407.76,245.12 424.93,233.03 444.15,218.65 501.27,174.83 532.74,151.79 547.54,141.55 565.09,130.02 598.37,109.69"   /><polyline id="SvgjsPolyline7415" points="0.13,94.97 36.33,116.27 51.58,125.82 69.12,137.37 98.64,157.98 154.31,198.74 178.73,216.17 198.72,229.44 214.21,238.62 224.85,244.16 235.79,249.08 244.19,252.31 255.64,255.9 264.38,258.04 276.19,260.14 288.12,261.39 300.11,261.8 312.1,261.37 321.06,260.5 332.91,258.6 344.58,255.84 353.19,253.21 364.42,249 375.36,244.06 385.99,238.51 401.47,229.32 421.46,216.04 443.45,200.37 501.55,157.85 531.07,137.24 561.31,117.72 597.47,96.36"   /><polyline id="SvgjsPolyline7416" points="0.87,81.63 39.98,103.89 70.64,122.75 100.63,142.67 174.67,193.83 197.41,208.39 215.63,218.83 226.34,224.23 237.32,229.07 248.58,233.22 257.19,235.83 265.93,237.96 277.75,240.04 289.68,241.24 301.68,241.56 310.67,241.22 322.61,239.99 334.42,237.89 343.15,235.73 354.6,232.14 363.01,228.93 373.98,224.07 384.69,218.66 402.89,208.2 423.12,195.29 445.47,180.13 499.67,142.47 532.19,120.94 560.33,103.71 599.44,81.45"   /><polyline id="SvgjsPolyline7417" points="1.49,68.28 43.52,91.46 71.99,108.15 99.94,125.69 152.62,160.25 175.35,174.82 195.88,187.24 214.28,197.36 225.05,202.65 236.04,207.46 247.28,211.66 258.76,215.16 270.45,217.84 279.34,219.28 288.29,220.21 300.28,220.65 312.26,220.17 321.21,219.2 330.09,217.73 341.77,215.01 350.4,212.44 361.68,208.37 372.72,203.67 383.54,198.47 402,188.46 425.12,174.53 500.52,125.39 531.05,106.31 556.96,91.19 598.99,68.01"   /><polyline id="SvgjsPolyline7418" points="2.01,54.93 46.97,79 70.57,92.12 101.57,110.41 173.19,154.3 196.68,167.61 215.38,177.17 226.28,182.17 237.39,186.72 248.71,190.7 260.24,194.01 271.96,196.55 280.86,197.9 292.82,198.92 301.81,199.08 310.8,198.71 322.73,197.42 331.6,195.87 343.27,193.09 354.73,189.56 365.99,185.4 377.03,180.71 387.89,175.59 406.5,165.88 427.35,153.98 498.96,110.09 524.77,94.79 550.95,80.13 598.54,54.62"   /><polyline id="SvgjsPolyline7419" points="2.45,41.57 79.47,82.03 100.43,93.72 157.59,126.7 178.57,138.36 197.19,148.07 213.44,155.82 224.45,160.58 235.64,164.93 247,168.76 258.56,172 270.29,174.52 279.18,175.9 288.14,176.81 300.12,177.24 312.11,176.79 321.06,175.87 329.96,174.48 341.68,171.93 353.23,168.69 364.6,164.84 375.78,160.49 386.79,155.72 403.03,147.96 421.65,138.24 445.23,125.1 491.97,98.06 515.49,84.8 539.25,71.98 597.76,41.43"   /><polyline id="SvgjsPolyline7420" points="0.21,26.78 24.14,39.29 85.75,70.35 170.45,115.54 189.24,124.91 208.33,133.65 222.21,139.34 233.48,143.47 244.91,147.13 256.5,150.23 268.24,152.7 277.13,154.07 286.08,155.02 298.07,155.57 307.06,155.43 319.03,154.53 330.91,152.85 339.73,151.1 351.38,148.2 362.86,144.71 376.98,139.66 388.11,135.17 404.55,127.85 426.11,117.3 513.48,70.75 577.76,38.32 599.01,27.17"   /><polyline id="SvgjsPolyline7421" points="0.65,13.42 29.97,28.56 94.77,59.93 161.87,93.43 186.3,104.93 205.6,113.21 216.78,117.57 230.94,122.52 242.42,126 254.05,128.97 265.8,131.36 277.68,133.09 289.63,134.12 298.63,134.4 307.62,134.25 319.59,133.39 331.49,131.81 343.27,129.57 354.93,126.72 366.45,123.35 380.64,118.52 391.85,114.23 413.93,104.82 438.35,93.32 505.46,59.82 570.26,28.45 599.56,13.27"   /><polyline id="SvgjsPolyline7422" points="1.1,0.05 27.73,13.84 57.53,28.02 158.28,74.61 183,85.47 202.48,93.32 216.58,98.43 230.86,103.02 242.42,106.22 254.11,108.95 265.91,111.13 277.8,112.71 289.76,113.63 298.76,113.88 310.76,113.61 322.72,112.65 334.61,111.05 346.4,108.84 358.08,106.09 372.51,102 383.91,98.26 398.01,93.13 420.24,84.1 453.1,69.39 556.53,21.45 578.1,10.93 596.71,1.21"   /><polyline id="SvgjsPolyline7423" points="27.76,0.45 43.99,8.23 68.58,19.37 145.62,52.86 181.67,67.74 207.01,77.05 221.29,81.64 232.83,84.93 244.48,87.81 256.23,90.23 268.08,92.12 280,93.46 291.98,94.19 300.98,94.33 312.97,93.96 321.94,93.28 333.86,91.85 345.69,89.87 357.43,87.37 369.06,84.42 383.45,80.18 394.84,76.42 422.94,65.92 456.18,52.09 533.2,18.58 555.06,8.67 571.3,0.91"   /><polyline id="SvgjsPolyline7424" points="57.15,1.08 95.79,17.53 151.42,40.01 182.29,51.68 207.87,60.3 230.97,66.81 242.65,69.53 254.43,71.82 266.29,73.64 278.22,74.94 290.2,75.69 299.2,75.88 308.19,75.75 320.17,75.07 341.02,72.58 352.83,70.46 364.55,67.9 376.18,64.95 390.59,60.77 419.02,51.21 449.87,39.5 505.49,17 544.12,0.52"   /><polyline id="SvgjsPolyline7425" points="86.59,0.7 122.91,14.9 159.49,28.44 187.87,38.14 213.73,45.9 237.04,51.59 257.7,55.35 278.56,57.73 299.54,58.57 320.52,57.8 341.39,55.48 362.06,51.78 385.38,46.14 411.25,38.43 439.65,28.75 479.03,14.16 512.56,1.04"   /><polyline id="SvgjsPolyline7426" points="118.82,0.48 152.78,12.42 178.45,20.79 201.47,27.57 221.81,32.78 242.37,37.06 263.13,40.22 281.05,41.87 302.03,42.47 320.02,41.8 337.94,40.09 358.69,36.87 379.23,32.53 402.45,26.48 425.43,19.57 453.91,10.14 482.19,0.11"   /><polyline id="SvgjsPolyline7427" points="153.81,0.1 176.76,7.1 196.99,12.73 214.47,17.06 232.07,20.8 249.81,23.84 264.69,25.74 279.64,27.01 297.62,27.64 315.62,27.27 330.58,26.21 348.45,24.09 363.25,21.68 380.9,18.11 401.31,13.18 421.55,7.59 444.52,0.63"   /><polyline id="SvgjsPolyline7428" points="197.2,0.37 226.5,6.8 250.18,10.69 274.04,13.21 286.02,13.89 298.02,14.16 310.02,14.02 322,13.47 345.89,11.21 360.74,9.06 372.55,6.98 401.87,0.6"   /><polyline id="SvgjsPolyline7429" points="263.35,0.2 281.3,1.5 299.3,1.97 317.29,1.57 338.23,0.05"   /></g></svg>