<?xml version="1.0" standalone="no"?>
<svg id="SvgjsSvg1001" width="600" height="600" xmlns="http://www.w3.org/2000/svg" version="1.1" xmlns:xlink="http://www.w3.org/1999/xlink" xmlns:svgjs="http://svgjs.com/svgjs" class="svg-paper" viewBox="0 0 600 600"><title id="SvgjsTitle1763">x=(sqrt(x*x + y*y)-min(sin(x),y))|y=cos(y)|dTest=0.0|sd=0.2|sm=0.2|ts=0.05 | generated with FlowLines</title><style>*{fill:none;stroke:#777}</style><g id="SvgjsG1764"><polyline id="SvgjsPolyline1765" points="0,521.08 209.24,539 269.06,543.65 334.9,548.26 397.78,552.08 463.69,555.48 532.63,558.44 598.59,560.79"   /><polyline id="SvgjsPolyline1766" points="1.04,509.12 212.98,530.36 272.72,535.92 332.51,540.97 398.33,545.82 464.2,549.92 524.12,553.06 599.05,556.32"   /><polyline id="SvgjsPolyline1767" points="1.96,533.29 196.48,546.9 271.34,551.58 331.24,554.92 388.17,557.72 460.11,560.73 529.07,563.12 598.04,565.1"   /><polyline id="SvgjsPolyline1768" points="2.21,497.18 240.7,524.07 288.44,529.12 342.18,534.33 404.96,539.68 458.81,543.63 530.67,548.07 599.58,551.58"   /><polyline id="SvgjsPolyline1769" points="1.1,545.26 171.85,554.42 312.7,560.92 384.65,563.64 453.61,565.84 597.57,569.32"   /><polyline id="SvgjsPolyline1770" points="0.51,484.91 89.89,495.45 268.48,517.99 313.17,523.21 357.91,528.02 414.65,533.45 474.45,538.37 534.3,542.55 597.19,546.26"   /><polyline id="SvgjsPolyline1771" points="0.43,557.24 183.31,563.86 312.25,567.83 465.21,571.39 597.19,573.52"   /><polyline id="SvgjsPolyline1772" points="1.84,472.99 52.49,478.92 97.14,484.57 281.4,509.91 331.99,516.42 373.7,521.34 424.41,526.72 478.18,531.7 537.99,536.45 597.86,540.49"   /><polyline id="SvgjsPolyline1773" points="2.97,569.35 173.94,572.58 314.93,574.85 443.92,576.46 599.91,577.83"   /><polyline id="SvgjsPolyline1774" points="0.2,460.74 59.8,467.58 113.36,474.5 166.83,482.06 312.22,503.73 389.54,514.01 437.22,519.53 487.95,524.71 544.73,529.74 598.57,533.85"   /><polyline id="SvgjsPolyline1775" points="2.74,581.34 599.74,582.22"   /><polyline id="SvgjsPolyline1776" points="1.47,448.81 73.05,456.58 138.5,465.09 194.89,473.42 337.12,495.89 378.69,501.93 414.37,506.73 462.01,512.55 506.75,517.42 554.52,522.04 599.36,525.89"   /><polyline id="SvgjsPolyline1777" points="2.71,593.34 326.68,589.04 599.67,586.81"   /><polyline id="SvgjsPolyline1778" points="2.65,436.86 71.34,443.37 110.09,447.75 142.83,451.89 175.52,456.43 211.11,461.8 347.29,484.14 418.48,494.89 460.11,500.5 504.78,505.96 549.51,510.87 597.28,515.56"   /><polyline id="SvgjsPolyline1779" points="434.78,599.99 599.74,596.25"   /><polyline id="SvgjsPolyline1780" points="0.66,424.71 51.53,428.36 90.39,431.69 132.18,435.89 176.86,441.2 209.56,445.65 242.2,450.52 378.38,472.84 443.63,482.77 485.23,488.52 520.94,493.08 598.45,501.86"   /><polyline id="SvgjsPolyline1781" points="1.44,412.73 61.37,415.62 115.26,418.99 160.12,422.55 210.87,427.62 246.61,431.92 282.28,436.76 409.85,455.92 475.19,465.25 531.7,472.66 597.24,480.45"   /><polyline id="SvgjsPolyline1782" points="1.94,400.75 70.93,402.02 148.9,404.17 202.86,406.37 256.77,409.44 295.67,412.27 340.5,416.07 597.4,439.89"   /><polyline id="SvgjsPolyline1783" points="2.63,406.28 74.59,408.74 134.52,411.6 185.41,414.89 233.24,418.94 269.05,422.63 304.81,426.79 489.29,450.53 539.92,456.61 599.55,463.32"   /><polyline id="SvgjsPolyline1784" points="2.13,388.75 104.11,386.88 176.08,384.6 212.04,382.88 235.99,381.4 262.91,379.29 286.79,376.92 319.53,372.79 361.01,366.21 411.16,356.98 531.9,333.46 561.44,328.27 599.95,322.07"   /><polyline id="SvgjsPolyline1785" points="2.46,394.61 287.46,395.3 599.45,397.72"   /><polyline id="SvgjsPolyline1786" points="2.65,397.36 89.64,398.2 161.63,399.3 215.62,400.55 269.59,402.35 365.48,406.97 599.09,420.37"   /><polyline id="SvgjsPolyline1787" points="1.97,376.75 52.9,374.12 94.8,371.27 130.66,368.09 163.44,364.28 190.13,360.22 216.6,354.93 236.9,349.55 245.44,346.72 253.83,343.46 264.67,338.33 274.9,332.07 279.65,328.41 284.04,324.32 289.68,317.33 292.55,312.07 293.66,309.28 295.12,303.47 297.66,288.69 299.24,282.9 302.35,274.46 304.88,269.02 309.34,261.21 314.55,253.88 318.42,249.29 327.01,240.92 331.69,237.17 339.15,232.14 344.36,229.17 352.49,225.31 358.07,223.11 366.63,220.33 381.22,216.88 396.03,214.54 413.94,212.72 431.9,211.55 455.88,210.56 494.87,209.63 599.86,208.49"   /><polyline id="SvgjsPolyline1788" points="1.86,382.85 52.83,381.13 97.78,379.12 133.72,377.01 166.62,374.49 199.45,371.15 223.25,368.02 246.9,363.96 267.38,359.33 281.79,355.16 295.9,350.09 309.58,343.94 322.67,336.63 332.67,330 342.28,322.81 353.86,313.29 381.17,289.83 390.54,282.34 400.21,275.23 410.21,268.6 420.56,262.53 431.25,257.07 442.24,252.27 453.59,248.38 468.09,244.55 482.78,241.55 500.56,238.71 521.39,236.1 542.29,234 599.13,229.72"   /><polyline id="SvgjsPolyline1789" points="1.57,385.91 55.55,384.58 103.53,382.99 142.49,381.26 175.43,379.34 205.34,377.05 235.19,374 258.97,370.76 276.7,367.7 291.39,364.65 308.88,360.41 323.31,356.32 340.44,350.78 368.57,340.37 446.55,309.15 474.75,298.9 494.71,292.4 515,286.97 538.43,281.79 564.97,276.85 597.56,271.65"   /><polyline id="SvgjsPolyline1790" points="0.36,391.54 102.35,390.62 183.34,389.32 240.32,387.77 288.28,385.76 339.19,382.78 399.04,378.51 599.38,362.24"   /><polyline id="SvgjsPolyline1791" points="1.53,387.38 100.5,385.09 142.48,383.59 178.43,381.87 211.37,379.76 238.27,377.48 262.13,374.87 282.93,371.99 300.68,369.02 318.34,365.54 338.82,360.89 353.37,357.23 390.98,346.92 480.34,321.17 518.05,311.21 553.24,303.64 597.52,295.67"   /><polyline id="SvgjsPolyline1792" points="0.2,390.17 105.19,388.72 177.17,386.98 237.11,384.54 267.06,382.74 290.99,380.93 332.8,376.91 386.42,370.53 597.51,342.05"   /><polyline id="SvgjsPolyline1793" points="1.83,388.14 103.81,386.02 178.76,383.25 208.71,381.59 235.64,379.65 262.52,377.13 286.35,374.26 318.95,369.19 348.41,363.51 392.33,353.7 476.91,333.34 520.75,323.17 553.09,316.62 597.41,308.82"   /><polyline id="SvgjsPolyline1794" points="2.66,392.95 170.66,392.04 281.64,390.45 392.6,387.38 599.48,380.26"   /><polyline id="SvgjsPolyline1795" points="1.43,364.76 40.29,361.45 76.08,357.64 105.82,353.71 132.47,349.35 155.99,344.58 182.19,338.07 205.21,331.27 224.94,324.12 238.63,317.98 249.15,312.22 259.09,305.51 266.02,299.78 272.41,293.44 276.36,288.92 292.79,267.5 300.48,258.29 311.03,247.64 320.29,240.01 330.24,233.32 340.82,227.66 351.9,223.06 363.34,219.46 375.03,216.74 389.83,214.32 407.73,212.43 428.68,211.07 455.66,210.04 488.66,209.31 599.65,208.19"   /><polyline id="SvgjsPolyline1796" points="0.59,371.34 39.51,368.74 81.36,365.18 117.13,361.21 146.83,356.95 176.31,351.4 202.58,345.17 222.73,339.27 239.58,332.96 250.41,327.8 260.68,321.6 267.8,316.1 274.2,309.79 277.98,305.13 282.86,297.58 293.89,276.27 300.12,266.01 305.39,258.72 309.21,254.09 317.56,245.48 324.42,239.66 329.26,236.12 339.5,229.87 350.36,224.78 358.81,221.68 364.55,219.94 379.16,216.55 393.98,214.25 411.89,212.45 432.84,211.15 459.83,210.15 492.82,209.43 597.81,208.34"   /><polyline id="SvgjsPolyline1797" points="1.25,380.27 55.2,378.01 103.12,375.28 142.01,372.28 174.83,368.88 201.58,365.22 228.13,360.32 239.81,357.57 251.37,354.36 259.92,351.56 268.33,348.35 279.21,343.29 287.08,338.93 292.13,335.69 296.94,332.12 301.47,328.18 305.62,323.85 309.34,319.15 313.96,311.44 316.4,305.95 318.37,300.29 320.71,291.6 324.97,271.04 327.81,262.51 331.77,254.43 335.02,249.39 338.73,244.68 342.87,240.34 347.38,236.39 352.23,232.85 357.34,229.72 362.68,226.98 368.19,224.62 379.58,220.85 391.26,218.12 406.07,215.75 423.97,213.89 444.93,212.51 474.9,211.31 504.89,210.57 597.89,209.32"   /><polyline id="SvgjsPolyline1798" points="2.41,381.83 53.38,379.95 92.33,378.08 128.26,375.86 164.15,372.94 193.97,369.7 217.73,366.32 241.31,361.89 258.79,357.57 275.91,352.04 284.26,348.68 292.39,344.82 300.23,340.4 305.24,337.12 314.66,329.69 325.19,319.02 332.72,309.68 339.55,299.82 358.91,269.47 364.15,262.15 369.8,255.15 378.15,246.54 385.08,240.8 392.65,235.95 400.78,232.08 412.11,228.17 426.7,224.71 444.48,221.89 462.37,219.96 489.3,218 519.27,216.54 597.23,214.22"   /><polyline id="SvgjsPolyline1799" points="0.16,384.53 54.14,382.98 102.1,381.12 141.05,379.1 173.97,376.84 206.83,373.83 230.66,370.93 251.41,367.69 271.99,363.54 286.53,359.86 300.86,355.44 314.92,350.22 328.66,344.2 339.41,338.87 352.63,331.78 399.25,304.53 420.25,292.92 433.64,286.16 444.51,281.08 455.52,276.32 466.69,271.93 478.08,268.16 489.64,264.92 504.24,261.49 518.95,258.57 536.7,255.57 554.51,252.98 599.19,247.64"   /><polyline id="SvgjsPolyline1800" points="0.11,382.59 45.08,381.08 90.04,379.11 131.97,376.66 164.87,374.1 194.71,371.05 221.47,367.41 242.14,363.72 262.58,358.94 279.77,353.62 293.68,348.02 306.99,341.11 317.03,334.54 326.42,327.08 335.19,318.89 345.46,307.96 369.3,280.99 377.65,272.37 384.22,266.22 393.47,258.58 403.32,251.73 411.08,247.17 421.87,241.93 433.15,237.87 447.66,234.09 465.36,230.81 483.2,228.42 504.09,226.33 531.02,224.32 557.97,222.76 599.93,220.85"   /><polyline id="SvgjsPolyline1801" points="0.99,383.85 51.96,382.29 102.92,380.18 141.86,378 171.78,375.81 201.64,372.96 225.45,369.99 249.14,366.12 269.66,361.69 284.13,357.72 298.33,352.91 309.44,348.38 322.93,341.82 333.37,335.91 346.02,327.86 387.67,298.43 410.3,283.71 420.67,277.67 433.96,270.71 444.84,265.65 455.94,261.11 467.33,257.33 481.82,253.47 496.49,250.34 511.27,247.74 532.05,244.73 549.92,242.57 597.69,237.96"   /><polyline id="SvgjsPolyline1802" points="0.73,385.22 57.71,383.69 102.68,382.06 141.63,380.19 174.57,378.1 204.46,375.61 231.3,372.66 255.05,369.22 275.69,365.33 290.29,361.9 304.73,357.86 318.97,353.15 332.99,347.81 346.79,341.92 360.41,335.64 406.2,313.19 433.37,300.48 458.23,289.94 480.73,281.61 500.89,275.75 527.23,269.82 559.73,264.13 598.35,258.69"   /><polyline id="SvgjsPolyline1803" points="1.83,386.66 97.79,384.21 133.77,382.84 175.71,380.7 205.64,378.63 235.51,375.9 259.34,373.02 280.09,369.82 297.78,366.47 312.42,363.2 329.85,358.73 347.14,353.72 378.54,343.56 458.01,316.35 486.61,307.3 506.79,301.5 524.26,297.16 544.78,292.71 571.31,287.68 597.93,283.18"   /><polyline id="SvgjsPolyline1804" points="0.51,352.79 30.31,349.33 60.03,345.23 86.67,340.82 110.21,336.18 133.56,330.63 156.66,324.11 182.42,316.04 202.23,309.07 216.17,303.55 229.87,297.43 240.57,292 253.5,284.41 268.24,274.08 293.83,253.26 303.35,245.94 313.22,239.13 320.91,234.45 331.55,228.9 339.79,225.29 351.09,221.25 362.65,218.07 377.36,215.14 392.23,213.13 410.15,211.55 431.12,210.41 458.11,209.53 494.1,208.86 599.1,207.94"   /><polyline id="SvgjsPolyline1805" points="0.07,381.31 51.03,379.37 92.98,377.26 131.89,374.69 161.78,372.12 191.59,368.78 215.33,365.29 235.96,361.36 256.33,356.25 273.38,350.5 281.66,346.98 289.69,342.92 294.86,339.88 302.24,334.73 306.85,330.89 311.15,326.71 315.11,322.21 318.71,317.41 321.94,312.36 326.2,304.43 332.19,290.68 344.07,259.89 346.61,254.46 349.69,249.32 355.29,242.28 361.93,236.22 369.4,231.21 377.45,227.19 388.73,223.13 403.31,219.63 421.1,216.92 442.01,214.95 465.97,213.53 498.94,212.32 597.93,210.49"   /><polyline id="SvgjsPolyline1806" points="2.2,340.54 25.94,337.07 49.62,333.12 73.18,328.58 96.6,323.32 111.13,319.59 125.54,315.44 157.02,305.53 179.79,297.95 196.76,291.95 213.59,285.56 227.45,279.84 241.12,273.66 262.46,262.68 304.01,238.65 314.66,233.13 322.81,229.33 331.12,225.87 339.58,222.8 348.18,220.13 359.81,217.21 374.56,214.48 389.44,212.58 407.38,211.08 431.34,209.88 491.33,208.55 599.32,207.7"   /><polyline id="SvgjsPolyline1807" points="0.57,328.65 33.07,322.94 62.44,316.83 88.66,310.4 114.58,302.85 186,279.96 217.24,269.33 234.14,263.12 250.88,256.51 300.33,234.84 317,228.03 328.29,223.99 336.88,221.3 345.56,218.92 357.27,216.28 372.05,213.77 386.95,212.01 404.89,210.61 428.86,209.49 491.85,208.22 599.85,207.47"   /><polyline id="SvgjsPolyline1808" points="1.58,316.33 25.14,311.76 48.59,306.66 68.99,301.68 89.25,296.15 143.75,279.44 232.91,252.99 255.74,245.6 301.09,229.88 318.21,224.33 335.55,219.49 353.14,215.66 367.95,213.3 382.85,211.61 400.8,210.25 424.77,209.17 484.76,208 598.76,207.27"   /><polyline id="SvgjsPolyline1809" points="2.34,303.99 28.76,298.44 57.95,291.5 81.12,285.27 130.08,270.99 156.15,263.95 246.3,241.09 315.76,222.15 333.28,218.03 350.96,214.68 365.81,212.57 383.72,210.79 401.69,209.64 422.67,208.8 488.66,207.68 599.66,207.08"   /><polyline id="SvgjsPolyline1810" points="0,292.22 23.48,287.23 49.77,281.08 116.45,263.34 157.29,253.57 251.23,233.76 312.75,220.22 330.41,216.72 348.17,213.8 363.05,211.92 377.99,210.52 395.95,209.38 419.93,208.47 482.92,207.47 599.92,206.9"   /><polyline id="SvgjsPolyline1811" points="0.53,279.86 44.5,270.33 108.65,254.82 143.88,247.4 185.19,239.82 256.18,227.79 312.31,217.89 333.05,214.58 347.91,212.59 362.83,211.01 392.76,208.99 431.74,207.82 500.74,207.11"   /><polyline id="SvgjsPolyline1812" points="1.3,84.94 27.83,89.95 60.13,96.71 197.81,127.11 244.54,138.07 273.54,145.74 296.55,152.56 319.36,160.03 356.17,172.9 373.31,178.42 390.68,183.13 405.34,186.27 420.14,188.74 435.02,190.64 449.94,192.11 470.89,193.65 521.83,196.01 599.8,198.05"   /><polyline id="SvgjsPolyline1813" points="1.06,267.51 39.3,259.83 95.05,247.94 139.33,239.95 189.77,232.44 317.58,214.98 344.39,211.78 377.29,209.18 416.26,207.77 488.25,206.95 599.25,206.58"   /><polyline id="SvgjsPolyline1814" points="0.4,72.66 38.87,79.04 94.83,89.87 191.76,110.01 221.04,116.56 247.28,122.92 279.09,131.68 307.64,140.89 330.15,149.21 371.93,165.91 388.86,172.02 406.1,177.19 423.63,181.26 438.4,183.89 453.26,185.96 471.15,187.89 489.09,189.38 534.01,191.97 599.97,194.38"   /><polyline id="SvgjsPolyline1815" points="2.15,97.28 37.4,104.6 125.13,124.69 218.96,144.97 254.07,152.91 274.47,157.9 300.56,164.87 363.87,183.5 381.34,187.82 396.06,190.72 410.89,192.97 425.79,194.67 443.73,196.17 464.69,197.39 515.66,199.16 599.65,200.66"   /><polyline id="SvgjsPolyline1816" points="1.74,255.16 84.44,240.45 111.11,236.28 137.86,232.59 194.48,226.04 319.79,212.87 343.69,210.65 379.62,208.42 421.6,207.3 484.6,206.74 598.6,206.42"   /><polyline id="SvgjsPolyline1817" points="2.18,60.8 28.95,64.33 58.62,68.78 135.51,81.84 173.88,88.83 206.28,95.12 232.69,100.72 256.05,106.24 284.99,114.13 310.67,122.46 324.74,127.65 338.66,133.23 379.93,151.18 399.4,159.04 419.3,165.73 430.87,168.92 442.55,171.65 454.32,173.98 469.12,176.41 501.88,180.38 540.75,183.59 597.65,186.87"   /><polyline id="SvgjsPolyline1818" points="2.79,109.63 29.2,115.27 128.65,137.92 163.9,145.24 237.47,159.79 272.69,167.23 299,173.33 357.22,187.81 371.89,190.95 386.66,193.55 401.52,195.57 416.45,197.09 452.37,199.32 509.35,200.95 599.34,202.13"   /><polyline id="SvgjsPolyline1819" points="2.66,242.82 76.93,232.41 106.71,228.82 130.58,226.31 187.36,221.33 342.91,209.53 381.87,207.73 420.86,206.95 597.86,206.27"   /><polyline id="SvgjsPolyline1820" points="0.66,48.61 30.51,51.53 60.33,54.87 102,60.07 146.6,66.08 208.91,75.4 232.56,79.47 256.12,84.02 276.63,88.55 294.08,92.94 308.51,97.03 325.66,102.51 339.78,107.57 353.75,113.03 397.89,131.88 414.59,138.6 434.4,145.58 454.56,151.41 466.22,154.25 480.9,157.34 495.66,160 513.45,162.74 555.15,167.78 599.96,171.93"   /><polyline id="SvgjsPolyline1821" points="2.63,53.94 32.43,57.39 65.14,61.72 103.73,67.34 151.16,74.71 210.3,84.86 236.78,90.1 260.2,95.35 289.2,103.02 314.91,111.25 331.8,117.48 345.72,123.07 389.68,142.34 411.95,151.28 423.29,155.21 434.76,158.72 446.36,161.81 458.05,164.49 484.62,169.3 517.34,173.56 556.17,177.21 598.06,180.24"   /><polyline id="SvgjsPolyline1822" points="0.4,121.39 26.81,126.99 91.22,141.4 135.29,150.49 173.64,157.61 265.23,173.74 297.62,180.05 353.44,191.58 380.08,195.93 394.98,197.68 412.91,199.19 430.88,200.23 454.87,201.15 502.85,202.17 598.85,203.12"   /><polyline id="SvgjsPolyline1823" points="0.97,230.94 75.63,223.77 129.47,219.63 186.37,216.28 345.17,208.27 378.15,207.21 417.15,206.62 597.15,206.11"   /><polyline id="SvgjsPolyline1824" points="1.73,36.66 43.65,39.29 85.53,42.4 178.19,50.39 211.02,53.68 240.83,57.08 264.62,60.24 288.34,63.93 320.73,70.2 338.25,74.34 352.74,78.21 378.58,86.03 421.28,100.23 441.3,106.57 461.48,112.37 481.84,117.54 505.27,122.72 531.8,127.75 561.4,132.61 597.03,137.75"   /><polyline id="SvgjsPolyline1825" points="2.23,42.39 38.11,45.31 73.95,48.7 163.42,58.46 196.17,62.52 225.88,66.64 252.55,70.87 273.21,74.61 290.84,78.26 305.44,81.67 322.84,86.29 337.2,90.61 365.53,100.48 410.21,118.02 429.92,125.27 449.9,131.73 467.24,136.55 493.55,142.6 520.1,147.5 555.71,152.77 597.41,157.8"   /><polyline id="SvgjsPolyline1826" points="0.92,133.75 89.06,151.97 139.21,161.21 177.72,167.39 266.73,180.71 349.59,194.5 373.37,197.73 403.25,200.37 445.21,202.14 502.2,203.12 598.2,203.82"   /><polyline id="SvgjsPolyline1827" points="2.78,218.71 74.69,215.12 131.65,212.87 344.57,207.11 416.56,206.22 599.56,205.95"   /><polyline id="SvgjsPolyline1828" points="2.4,24.68 101.37,27.3 206.31,30.87 272.24,33.92 314.15,36.66 344.04,39.23 367.91,41.71 489.94,57.12 528.68,61.55 597.3,68.81"   /><polyline id="SvgjsPolyline1829" points="2.7,30.6 86.6,34.6 188.42,40.74 254.21,45.9 278.1,48.28 301.93,51.11 331.61,55.46 361.11,60.9 390.41,67.36 457.52,83.37 498.64,91.91 542.96,99.69 599.32,108.26"   /><polyline id="SvgjsPolyline1830" points="1.11,33.22 46.05,35.59 87.96,38.2 186.7,45.37 246.45,50.91 270.28,53.69 294.06,56.98 323.62,62.05 341.25,65.71 355.85,69.12 379.07,75.21 448.3,94.96 468.65,100.16 489.11,104.89 512.61,109.74 536.22,114.08 562.85,118.5 598.45,123.88"   /><polyline id="SvgjsPolyline1831" points="1.53,146.1 84.12,161.43 134.47,169.53 182.04,175.95 274.34,187.32 339.75,196.13 366.57,199.21 399.48,201.62 441.46,203.04 492.45,203.75 597.45,204.34"   /><polyline id="SvgjsPolyline1832" points="2.17,206.72 353.17,205.84 599.17,205.77"   /><polyline id="SvgjsPolyline1833" points="2.66,12.68 149.64,10.22 269.61,7.41 341.55,4.64 419.42,0.17"   /><polyline id="SvgjsPolyline1834" points="2.83,18.76 191.83,19.88 305.82,21 371.81,22.15 599.75,27.3"   /><polyline id="SvgjsPolyline1835" points="1.68,27.41 97.62,30.94 196.51,35.56 256.4,39.23 304.22,43.33 334.02,46.78 360.75,50.61 387.37,55.09 449.31,66.6 487.73,73.28 532.21,80.12 597.6,89.05"   /><polyline id="SvgjsPolyline1836" points="0.43,21.68 96.42,23.19 195.4,25.17 255.38,26.72 309.34,28.7 372.24,32.23 497.89,41.63 599.66,48.43"   /><polyline id="SvgjsPolyline1837" points="2.33,158.44 79.38,170.58 106.12,174.33 135.89,178.05 183.61,183.18 359.76,200.52 392.69,202.53 434.68,203.71 497.67,204.36 599.67,204.75"   /><polyline id="SvgjsPolyline1838" points="2.12,194.72 74.06,197.7 134.03,199.67 340.97,204.43 418.97,205.32 568.97,205.55"   /><polyline id="SvgjsPolyline1839" points="2.5,0.68 14.49,0.13"   /><polyline id="SvgjsPolyline1840" points="2.51,1.56 35.47,0.01"   /><polyline id="SvgjsPolyline1841" points="0.12,15.81 201.11,14.66 300.11,13.73 363.1,12.74 597.05,7.92"   /><polyline id="SvgjsPolyline1842" points="0.47,170.3 80.87,180.18 134.6,185.57 179.45,189.21 358.98,202.12 388.95,203.44 430.94,204.32 598.94,205.07"   /><polyline id="SvgjsPolyline1843" points="2.63,182.73 74.38,188.77 128.25,192.47 182.17,195.36 335,202.56 364.98,203.74 400.97,204.56 514.97,205.22"   /></g></svg>