<?xml version="1.0" standalone="no"?>
<svg id="SvgjsSvg1001" width="600" height="600" xmlns="http://www.w3.org/2000/svg" version="1.1" xmlns:xlink="http://www.w3.org/1999/xlink" xmlns:svgjs="http://svgjs.com/svgjs" class="svg-paper" viewBox="0 0 600 600"><title id="SvgjsTitle8876">x=y|y=max(sqrt(x*x + y*y),cos(x))|dTest=0.0|sd=0.2|sm=0.2|ts=0.05 | generated with FlowLines</title><style>*{fill:none;stroke:#777}</style><g id="SvgjsG8877"><polyline id="SvgjsPolyline8878" points="52.18,597.99 37.86,578.74 24.08,559.09 12.53,541.55 0,521.08"   /><polyline id="SvgjsPolyline8879" points="67.21,597.79 47.26,571.51 29.99,546.97 15.32,524.31 0.17,498.42"   /><polyline id="SvgjsPolyline8880" points="37.17,598.04 17.85,571.29 1.24,546.31"   /><polyline id="SvgjsPolyline8881" points="84.12,599.75 71.08,583.29 56.59,564.15 46.09,549.53 35.94,534.66 26.19,519.54 16.87,504.14 8.03,488.46 1.07,475.17"   /><polyline id="SvgjsPolyline8882" points="22.13,597.92 1.48,568.44"   /><polyline id="SvgjsPolyline8883" points="99.14,599.15 82.17,578.14 65.79,556.68 53.54,539.63 40.16,519.7 29.07,501.87 17.21,481.01 7.64,462.32 0.1,445.98"   /><polyline id="SvgjsPolyline8884" points="7.1,597.62 0.2,587.8"   /><polyline id="SvgjsPolyline8885" points="114.15,598.38 91.32,570.55 74.89,549.13 57.5,524.68 42.8,502.03 30.64,481.35 19.44,460.12 9.36,438.34 0.54,416.03"   /><polyline id="SvgjsPolyline8886" points="131.12,599.72 104.12,567.55 82.09,539.08 71.57,524.47 63.11,512.09 53.34,496.97 45.58,484.14 38.18,471.09 31.19,457.82 24.64,444.32 18.57,430.61 14.08,419.48 8.96,405.38 4.43,391.08 0.5,376.61"   /><polyline id="SvgjsPolyline8887" points="146.11,598.6 126.45,575.93 109.28,555.1 94.54,536.16 80.41,516.76 66.99,496.86 55.95,479.01 45.64,460.71 36.19,441.96 27.7,422.76 21.26,405.95 15.67,388.84 10.99,371.46 7.28,353.85 4.59,336.05 2.96,318.13 2.41,300.14 2.94,282.15 4.56,264.23 7.23,246.43 10.92,228.82 15.58,211.43 22.17,191.5 29.91,171.97 37.36,155.59 46.93,136.9 57.33,118.66 68.47,100.86 80.24,83.47 94.37,64.07 109.1,45.12 124.33,26.58 145.93,1.63"   /><polyline id="SvgjsPolyline8888" points="163.1,599.55 143.16,577.13 125.68,556.55 110.63,537.86 96.14,518.73 82.34,499.1 70.91,481.48 60.21,463.41 50.34,444.88 41.41,425.87 34.6,409.22 28.63,392.24 22.84,372.05 18.96,354.48 16.13,336.71 14.39,318.79 13.78,300.81 14.29,282.82 15.93,264.89 18.66,247.11 22.46,229.51 27.25,212.16 32.98,195.1 40.77,175.6 49.62,156.56 59.42,138 68.5,122.45 79.77,104.73 93.43,85 107.8,65.78 122.75,47.01 140.14,26.35 162.03,1.66"   /><polyline id="SvgjsPolyline8889" points="0.75,219.99 3.95,208.42 8.51,194.13 12.56,182.84 18.13,168.91 24.21,155.2 30.76,141.71 37.76,128.44 45.16,115.39 61.03,89.94 79.9,62.87 90.71,48.48 103.71,31.99 128.76,2.09"   /><polyline id="SvgjsPolyline8890" points="178.06,598.11 157.9,575.89 140.19,555.51 124.9,537.01 108.34,515.69 96.04,498.67 82.73,478.7 71.85,460.74 61.81,442.3 52.72,423.37 45.8,406.76 38.83,386.95 33.91,369.64 30.02,352.07 27.23,334.29 25.58,316.37 25.09,298.38 25.79,280.39 27.65,262.49 30.64,244.75 34.72,227.22 39.83,209.96 45.89,193.01 52.82,176.4 61.92,157.48 71.97,139.04 82.86,121.09 94.47,103.59 108.49,84.12 123.18,65.14 140.35,44.3 160.06,21.69 178.24,1.72"   /><polyline id="SvgjsPolyline8891" points="0.26,181.5 9.2,159.24 19.38,137.5 30.66,116.32 42.9,95.68 57.66,73.08 73.32,51.08 91.58,27.28 112.53,1.78"   /><polyline id="SvgjsPolyline8892" points="195.06,598.72 170.63,572.28 152.75,552.05 137.29,533.7 122.34,514.92 106.29,493.21 94.5,475.83 83.44,457.98 74.62,442.29 66.51,426.23 58.06,407.01 51.77,390.14 46.45,372.95 42.2,355.46 39.06,337.74 37.11,319.85 36.37,301.87 36.86,283.88 38.56,265.96 41.45,248.2 45.48,230.66 50.58,213.4 56.67,196.47 63.68,179.89 72.88,161.01 83.07,142.65 94.1,124.79 107.6,104.95 121.89,85.66 136.82,66.88 154.23,46.24 174.17,23.82 194.57,1.83"   /><polyline id="SvgjsPolyline8893" points="0.7,148.81 9.76,129.86 18.17,113.95 28.66,95.76 39.79,77.95 51.5,60.52 65.5,41.02 81.91,19.59 97,0.93"   /><polyline id="SvgjsPolyline8894" points="212.06,599.18 187.37,572.98 167.24,550.74 149.62,530.28 134.48,511.66 119.97,492.55 107.9,475.37 96.53,457.71 86,439.54 76.44,420.84 69.14,404.39 62.76,387.57 57.39,370.39 53.13,352.9 50.03,335.18 48.17,317.28 47.58,299.29 48.27,281.31 49.82,266.39 52.81,248.64 56.97,231.13 63.23,211.09 69.69,194.29 77.06,177.87 86.68,159.21 97.27,141.08 108.69,123.46 122.59,103.89 135.36,87.23 150.54,68.63 168.18,48.2 186.3,28.18 210.98,1.97"   /><polyline id="SvgjsPolyline8895" points="0.45,121.71 7.47,108.46 16.37,92.81 24.15,79.99 35.55,62.35 45.74,47.51 56.27,32.92 80.11,2.05"   /><polyline id="SvgjsPolyline8896" points="229.06,599.5 204.15,573.52 183.75,551.51 163.88,529.04 148.48,510.63 133.67,491.75 121.32,474.77 108.04,454.78 98.8,439.33 90.26,423.49 81.34,404.48 73.69,384.93 68.27,367.77 63.99,350.29 60.95,332.55 59.2,314.64 58.75,299.65 59.45,281.66 61.47,263.78 64.78,246.09 69.29,228.67 74.94,211.58 81.62,194.87 89.23,178.56 99.15,160.05 110.03,142.09 121.72,124.65 135.91,105.3 150.82,86.5 166.3,68.15 186.25,45.75 206.69,23.79 229.56,0"   /><polyline id="SvgjsPolyline8897" points="1.43,94.66 15.26,71.48 30.03,48.88 47.39,24.41 65.58,0.56"   /><polyline id="SvgjsPolyline8898" points="246.06,599.7 218.87,571.74 196.25,547.71 178.16,527.67 162.52,509.47 147.42,490.81 134.78,474.04 122.81,456.8 111.63,439.02 102.81,423.33 93.56,404.48 86.64,387.87 80.78,370.85 76.09,353.48 72.67,335.81 70.58,317.94 69.88,299.95 70.37,284.97 72.24,267.07 75.45,249.36 79.94,231.93 86.67,212.05 93.59,195.43 102.85,176.59 111.68,160.9 122.86,143.13 134.84,125.88 149.33,106.75 164.5,88.16 182.2,67.77 200.39,47.82 221.01,26.03 246.13,0.24"   /><polyline id="SvgjsPolyline8899" points="0.28,72.91 9.79,57.63 23.07,37.65 36.96,18.07 49.55,1.27"   /><polyline id="SvgjsPolyline8900" points="263.05,599.82 235.7,572.02 212.85,548.2 194.5,528.4 176.61,508.18 159.35,487.42 146.52,470.8 134.33,453.69 122.95,436.05 113.96,420.46 104.53,401.7 97.5,385.13 91.56,368.14 86.85,350.77 83.47,333.1 81.72,318.2 80.97,300.22 81.69,282.24 83.4,267.35 86.75,249.66 91.43,232.29 97.33,215.29 104.34,198.71 112.33,182.58 122.72,164.34 134.08,146.68 146.25,129.56 159.07,112.94 174.36,94.44 194.2,71.93 212.54,52.12 239.57,24.01 262.74,0.51"   /><polyline id="SvgjsPolyline8901" points="1.34,48.59 16.36,26.16 33.9,1.82"   /><polyline id="SvgjsPolyline8902" points="280.03,599.87 246.25,565.77 223.3,542.05 202.81,520.14 186.81,502.26 171.3,483.94 156.45,465.09 144.16,448.07 134.27,433.03 123.65,414.92 115.48,398.88 108.32,382.37 102.31,365.41 97.57,348.04 94.7,333.33 92.84,318.44 92.03,300.47 92.53,285.48 94.55,267.6 98.05,249.95 102.03,235.49 107.98,218.5 115.08,201.97 123.2,185.91 133.77,167.76 145.33,150.24 157.7,133.26 172.61,114.46 188.17,96.19 206.24,76.13 224.73,56.45 249.8,30.62 279.38,0.8"   /><polyline id="SvgjsPolyline8903" points="1.34,26.84 18.56,2.28"   /><polyline id="SvgjsPolyline8904" points="297.01,599.88 237.92,540.18 215.18,516.27 197.01,496.29 179.45,475.78 166.37,459.36 155.69,444.87 145.6,429.97 136.24,414.59 127.74,398.73 120.26,382.36 113.95,365.51 109.7,351.13 105.92,333.53 104.6,324.63 103.69,315.68 103.07,300.69 103.58,285.71 105.69,267.84 109.35,250.22 113.52,235.81 119.73,218.92 125.82,205.22 134.08,189.23 144.85,171.2 156.62,153.81 169.19,137 182.4,120.67 198.08,102.5 216.28,82.55 236.95,60.82 296.03,1.1"   /><polyline id="SvgjsPolyline8905" points="0.02,7.6 5.2,0.24"   /><polyline id="SvgjsPolyline8906" points="313.98,599.88 246.31,531.78 225.54,510.14 209.25,492.52 193.4,474.5 180.02,458.31 167.27,441.62 156.98,426.86 147.42,411.61 138.73,395.85 131.1,379.55 124.68,362.74 120.39,348.37 116.64,330.77 114.78,315.89 114.1,300.91 114.63,285.93 115.52,276.97 116.84,268.07 119.94,253.4 125.06,236.14 131.56,219.36 139.27,203.1 148.02,187.37 157.63,172.16 169.75,155.01 180.76,140.77 194.16,124.6 210.04,106.61 226.35,89 245.04,69.52 312.69,1.41"   /><polyline id="SvgjsPolyline8907" points="330.94,599.9 258.94,527.65 238.03,506.14 219.55,486.46 203.55,468.57 190.04,452.49 178.95,438.32 168.44,423.71 157.11,406.03 148.39,390.29 140.77,373.98 135.42,359.97 131.09,345.61 127.89,330.96 125.89,316.1 125.15,301.12 125.7,286.14 127.51,271.25 129.19,262.41 131.28,253.66 135.67,239.32 142.26,222.57 148.73,209.04 157.49,193.33 168.86,175.67 179.4,161.08 192.41,144.6 206.02,128.6 222.09,110.78 238.55,93.32 259.47,71.82 329.35,1.69"   /><polyline id="SvgjsPolyline8908" points="347.89,599.96 261.12,512.79 229.93,480.35 215.78,464.84 202.05,448.95 188.91,432.57 180.01,420.5 169.99,405.55 160.88,390.03 152.88,373.91 147.22,360.02 142.62,345.75 139.19,331.15 137.04,316.31 136.24,301.33 136.8,286.35 138.71,271.48 141.92,256.83 146.32,242.49 151.8,228.53 159.62,212.32 168.58,196.72 178.47,181.68 189.12,167.17 200.35,153.1 216,134.91 232.21,117.21 265.57,82.7 346.02,1.93"   /><polyline id="SvgjsPolyline8909" points="362.73,597.96 267.59,502.18 240.44,474.18 226.16,458.79 212.28,443.03 200.84,429.14 191.73,417.22 181.46,402.44 172.1,387.07 165.17,373.77 159.17,360.02 154.27,345.85 150.59,331.32 148.27,316.5 147.39,301.53 147.97,286.55 150,271.7 153.41,257.09 158.07,242.84 163.86,229.01 170.61,215.62 178.19,202.67 189.93,185.26 198.94,173.27 210.3,159.31 222.1,145.72 238.34,128.05 265.44,100 362.68,2.09"   /><polyline id="SvgjsPolyline8910" points="379.66,598.18 339.82,557.42 272.07,489.41 246.96,463.61 232.64,448.25 220.7,434.78 209.19,420.94 200.04,409.05 189.78,394.27 180.51,378.85 173.74,365.46 168.02,351.6 163.53,337.29 160.93,325.58 159.02,310.71 158.62,298.72 159.55,283.76 161.41,271.91 165.04,257.36 170.01,243.21 176.14,229.52 183.25,216.32 191.18,203.59 201.57,188.89 210.79,177.06 220.41,165.55 232.34,152.08 246.66,136.71 269.65,113.04 345.83,36.49 379.35,2.14"   /><polyline id="SvgjsPolyline8911" points="396.58,598.52 346.53,546.77 272.49,472.32 253.65,452.98 239.28,437.66 229.28,426.48 219.59,415.03 210.3,403.25 199.89,388.57 191.99,375.82 186.32,365.25 180.21,351.56 175.36,337.37 172.53,325.71 170.73,313.85 170.08,304.88 170,298.88 170.65,286.9 172.39,275.03 175.15,263.36 179.93,249.14 185.99,235.43 193.12,222.23 201.14,209.56 211.66,194.96 221.02,183.23 230.76,171.83 255.2,145.4 346,53.77 396.06,2.02"   /><polyline id="SvgjsPolyline8912" points="413.49,599 380.51,564.12 355.51,538.22 258.47,440.1 238.09,418.09 228.32,406.71 220.8,397.35 210.21,382.8 202.21,370.12 195.18,356.87 190.43,345.86 186.58,334.49 183.76,322.84 182.07,310.96 181.57,298.98 182.27,287 184.17,275.16 187.17,263.54 191.18,252.24 197.42,238.6 203.25,228.11 211.37,215.51 222.06,201.03 237.46,182.63 255.74,162.76 276.67,141.26 352.75,64.61 384,32.23 412.84,1.69"   /><polyline id="SvgjsPolyline8913" points="430.38,599.63 393.64,560.06 358.44,523.16 259.43,422.77 243.21,405.08 229.75,388.96 220.82,376.92 212.68,364.32 206.92,353.79 201.99,342.86 198.05,331.53 195.24,319.87 193.95,310.96 193.39,298.98 194.18,287.01 195.63,278.13 198.64,266.52 202.76,255.26 207.85,244.39 213.73,233.94 221.99,221.42 231.01,209.44 242.57,195.64 258.77,177.93 273.36,162.83 328.38,107.55 359.85,75.38 392.98,40.64 429.73,1.08"   /><polyline id="SvgjsPolyline8914" points="445.26,598.2 410.95,560.47 376.16,523.17 336.62,482.12 266.96,411.78 250.65,394.17 239.05,380.41 230.05,368.41 223.49,358.37 217.67,347.88 213.9,339.71 209.84,328.42 207.62,319.7 206.18,310.82 205.57,298.84 206.47,286.89 208.12,278.04 210.53,269.37 214.81,258.17 218.72,250.06 224.7,239.66 231.39,229.7 240.5,217.79 252.19,204.1 266.48,188.72 338.24,116.23 375.69,77.33 410.48,40.04 446.8,0.07"   /><polyline id="SvgjsPolyline8915" points="462.12,599.18 414.19,545.45 377.62,505.72 336.17,462.34 270.77,396.22 258.52,383.03 248.77,371.64 241.44,362.14 234.71,352.2 230.19,344.42 226.23,336.34 222.95,327.96 220.46,319.32 218.85,310.47 218.19,301.5 218.52,292.51 219.82,283.61 222.03,274.89 225.06,266.42 228.81,258.23 234.71,247.79 241.44,237.86 248.77,228.36 260.53,214.74 272.85,201.61 338.27,135.51 377.62,94.28 420.23,47.87 462.12,0.81"   /><polyline id="SvgjsPolyline8916" points="477.01,598.07 425.76,539.27 377.52,485.82 336.31,442.21 277.27,382.47 267,371.53 259.1,362.5 251.67,353.08 246.53,345.69 241.91,337.97 237.94,329.9 234.79,321.47 233.23,315.68 231.77,306.81 231.44,300.82 231.63,294.82 232.88,285.92 234.32,280.09 237.3,271.61 241.13,263.46 245.65,255.68 250.7,248.24 258.06,238.76 265.91,229.68 276.14,218.71 335.18,158.96 376.41,115.38 422.68,64.2 477.89,0.89"   /><polyline id="SvgjsPolyline8917" points="493.83,599.43 431.63,526.31 402.03,492.42 378.04,465.57 339.29,423.77 318.42,402.23 282.5,366.02 274.27,357.29 266.4,348.23 260.89,341.11 257.49,336.17 252.96,328.4 250.41,322.97 248.34,317.34 246.8,311.54 245.86,305.62 245.58,299.63 245.95,293.64 246.96,287.73 248.56,281.95 250.7,276.35 253.3,270.95 257.9,263.21 266.87,251.2 272.75,244.39 283.01,233.45 321.04,195.11 341.87,173.52 378.54,133.88 428.19,77.67 492.37,2.3"   /><polyline id="SvgjsPolyline8918" points="508.73,598.67 437.92,513.19 383.37,449.32 361.51,424.6 341.3,402.42 322.76,382.8 297.5,357.15 289.56,348.16 284.11,341 280.77,336.01 276.31,328.2 273.78,322.76 271.7,317.14 270.14,311.34 269.2,305.42 268.92,299.43 269.33,293.45 270.4,287.55 272.06,281.78 274.23,276.19 276.83,270.79 279.79,265.57 283.05,260.53 288.4,253.29 298.29,242.03 321.47,218.54 340.04,198.94 360.27,176.79 380.17,154.34 411.54,118.01 440.58,83.64 509.45,0.44"   /><polyline id="SvgjsPolyline8919" points="523.63,598.09 448.45,504.57 391.51,434.87 352.89,388.95 335.13,368.62 318.98,350.86 313.28,343.9 306.69,333.88 303.92,328.56 301.54,323.05 299.63,317.37 298.22,311.54 297.37,305.6 297.11,299.61 297.45,293.62 298.38,287.69 299.85,281.88 301.83,276.22 304.26,270.73 307.08,265.44 313.75,255.48 319.51,248.56 333.66,233.04 351.45,212.73 392.01,164.53 443.28,101.82 524.12,1.3"   /><polyline id="SvgjsPolyline8920" points="515.93,598.44 443.79,510.16 389.87,445.76 366.35,418.51 348.43,398.3 330.18,378.42 309.41,356.76 303.57,349.92 299.96,345.13 295.07,337.58 292.2,332.31 288.43,324.14 286.38,318.5 284.83,312.71 283.83,306.79 283.44,300.81 283.67,294.81 284.5,288.88 285.91,283.04 287.83,277.36 290.2,271.85 292.97,266.53 296.06,261.39 301.25,254.04 309,244.88 327.68,225.38 345.93,205.49 385.39,160.29 414.41,125.9 446.96,86.64 517.11,0.62"   /><polyline id="SvgjsPolyline8921" points="538.54,597.69 407.94,429.43 369.79,379.29 346.66,347.9 334.74,330.61 330.6,322.62 328.5,317.01 326.97,311.21 326.07,305.28 325.82,299.29 326.23,293.3 327.28,287.4 328.95,281.64 331.18,276.07 335.5,268.18 347.49,250.95 372.45,217.17 408.81,169.44 539.42,1.18"   /><polyline id="SvgjsPolyline8922" points="531.81,598.2 393.96,424.19 360.18,382.06 326.07,340.2 322.68,335.25 319.67,330.06 317.09,324.65 314.97,319.04 313.37,313.26 312.33,307.35 311.89,298.37 312.82,289.43 314.17,283.58 316.06,277.89 319.8,269.71 322.82,264.53 326.23,259.59 356.56,222.39 392.22,177.93 531.95,1.57"   /><polyline id="SvgjsPolyline8923" points="555.27,599.86 495.57,520.88 452.73,463.02 417.83,414.21 396.01,381.89 386.4,366.67 378.8,353.74 373.12,343.17 368,332.32 364.73,323.94 362.19,315.31 360.65,306.45 360.31,300.46 360.56,294.47 361.98,285.59 364.44,276.93 367.64,268.52 372.7,257.64 378.35,247.06 385.93,234.11 395.51,218.88 420.74,181.62 452.19,137.72 495.02,79.85 554.71,0.87"   /><polyline id="SvgjsPolyline8924" points="547,598.95 484.92,518.02 437.88,455.8 405.8,412.36 379.79,375.64 369.8,360.67 361.81,347.98 355.72,337.63 351.5,329.69 347.76,321.51 344.8,313.01 343.5,307.16 342.95,301.19 343.19,295.2 344.21,289.29 346.88,280.7 350.46,272.45 354.58,264.44 360.57,254.05 376.87,228.87 401.04,194.52 438.42,143.81 483.65,83.98 547.54,0.66"   /><polyline id="SvgjsPolyline8925" points="570.17,599.82 518.67,529.7 482.09,478.41 451.65,433.81 438.59,413.68 427.54,395.82 418.49,380.26 411.37,367.06 404.81,353.57 400.12,342.53 396.14,331.21 393.78,322.53 391.7,310.71 391.09,301.74 391.37,292.75 393.04,280.87 395.16,272.13 398.89,260.72 403.39,249.6 409.79,236.04 416.8,222.78 425.76,207.17 436.73,189.26 449.73,169.09 480.1,124.44 518.39,70.68 569.89,0.56"   /><polyline id="SvgjsPolyline8926" points="562.25,599.8 506.68,525.23 464.42,466.94 433.63,422.58 420.42,402.54 410.83,387.31 401.66,371.82 394.5,358.64 387.99,345.13 383.35,334.07 380.44,325.55 378.19,316.84 376.79,307.95 376.39,298.97 377.03,289.99 378.64,281.14 381.06,272.48 385.22,261.22 390.14,250.28 397.02,236.95 404.42,223.91 413.78,208.54 436.81,173.42 465.98,131.58 508.27,73.31 562.04,1.14"   /><polyline id="SvgjsPolyline8927" points="585.08,599.96 538.01,534.04 502.36,482.1 487.5,459.55 474.62,439.31 462.15,418.8 451.71,400.58 441.91,382.01 435.46,368.47 429.64,354.64 425.6,343.35 422.25,331.82 419.8,320.08 418.39,308.17 418.11,299.18 418.8,287.2 420.07,278.29 422.67,266.58 426.11,255.09 430.24,243.82 436.14,230.03 442.65,216.52 452.51,197.98 461.46,182.36 472.32,164.39 485.14,144.1 501.61,119.02 538.96,64.61 584.29,1.14"   /><polyline id="SvgjsPolyline8928" points="575.82,598.58 528.29,532.99 490.46,478.91 473.72,454.01 460.65,433.88 449.54,416.06 438.87,397.98 430.21,382.2 423.48,368.79 417.39,355.09 413.15,343.87 409.55,332.42 406.77,320.75 405.13,308.87 404.75,299.88 405.15,290.89 406.81,279.01 409.62,267.35 413.33,255.94 417.73,244.78 423.96,231.13 430.77,217.77 439.5,202.03 450.22,183.97 461.36,166.17 476.1,143.55 491.19,121.16 529.02,67.08 576.54,1.48"   /><polyline id="SvgjsPolyline8929" points="598.25,597.82 555.5,536.2 524.01,488.69 509.57,465.88 497.11,445.37 486.59,427.19 476.54,408.75 468.44,392.68 460.97,376.3 455.39,362.38 450.56,348.18 447.4,336.61 444.98,324.86 443.44,312.96 442.85,300.98 443.27,288.99 444.67,277.07 446.95,265.29 450.87,250.82 455.75,236.64 461.39,222.74 467.6,209.08 475.64,192.98 485.63,174.51 496.11,156.32 508.54,135.79 522.95,112.95 556.09,62.94 598.86,1.33"   /><polyline id="SvgjsPolyline8930" points="589.72,597.87 544.81,534.09 511.28,484.34 495.06,459.11 484.03,441.24 471.86,420.55 463.16,404.79 456.28,391.46 448.62,375.18 442.91,361.31 438.01,347.13 434.86,335.56 432.54,323.79 431.01,311.89 430.47,299.9 431.03,287.92 432.64,276.03 435.18,264.31 438.52,252.78 443.59,238.67 449.42,224.85 457.17,208.61 465.52,192.66 475.83,174.37 486.59,156.33 512.3,115.8 547.53,63.58 590.71,2.26"   /><polyline id="SvgjsPolyline8931" points="599.44,578.66 564.49,526.24 551.52,506.05 535.69,480.57 523.41,459.95 511.58,439.07 503.1,423.19 495.04,407.09 487.53,390.74 481.81,376.87 476.69,362.78 473.14,351.31 469.52,336.76 467.39,324.95 466.04,313.03 465.53,301.04 465.89,289.05 467.1,277.12 469.09,265.28 472.58,250.7 476.03,239.21 481.05,225.07 486.7,211.18 494.14,194.79 503.52,176 513.47,157.51 525.38,136.67 536.16,118.65 563.35,75.51 599.95,20.59"   /><polyline id="SvgjsPolyline8932" points="599.3,557.05 570.35,511.47 547.32,472.81 528.6,438.6 519.22,419.81 511.7,403.46 505.9,389.63 500.61,375.59 495.96,361.33 492.07,346.85 489.61,335.1 487.8,323.24 486.7,311.29 486.36,299.3 486.79,287.31 487.97,275.37 489.86,263.52 493.12,248.88 496.36,237.33 501.08,223.09 505.3,211.86 512.26,195.26 518.53,181.63 526.5,165.5 534.87,149.56 545.04,131.19 555.57,113.02 569.51,89.9 598.42,44.29"   /><polyline id="SvgjsPolyline8933" points="599.63,535.46 574.97,494.28 556.05,460.18 547.79,444.19 539.9,428.01 533.68,414.35 527.85,400.54 522.48,386.53 517.66,372.33 514.27,360.82 511.36,349.18 508.99,337.41 507.21,325.55 506.09,313.6 505.64,301.61 505.9,289.62 506.84,277.66 508.45,265.77 510.67,253.97 513.44,242.3 517.59,227.89 521.39,216.51 526.66,202.46 532.39,188.6 538.53,174.92 546.34,158.7 555.95,140.02 576.36,103.32 599.51,64.73"   /><polyline id="SvgjsPolyline8934" points="598.97,511.34 579.99,477.28 564.95,447.91 552.4,420.66 546.66,406.8 541.35,392.77 536.55,378.56 533.15,367.06 530.18,355.43 527.69,343.69 526.18,334.82 524.67,322.92 523.77,310.95 523.51,301.96 523.61,292.96 524.31,280.98 525.63,269.05 527.53,257.21 529.97,245.46 532.91,233.82 536.28,222.31 541.04,208.08 546.32,194.05 552.04,180.18 564.55,152.91 579.56,123.53 598.52,89.45"   /><polyline id="SvgjsPolyline8935" points="599.1,487.24 584.13,457.84 572.79,433.34 562.52,408.37 554.57,385.73 548.76,365.55 546.02,353.87 543.76,342.08 542.01,330.21 541.06,321.26 540.3,309.29 540.12,300.29 540.77,282.31 541.94,270.36 543.18,261.45 547.2,240.84 550.14,229.21 553.49,217.69 557.21,206.28 562.31,192.17 572.55,167.2 585.19,139.99 598.83,113.27"   /><polyline id="SvgjsPolyline8936" points="598.85,460.55 588.93,438.7 579.85,416.49 572.74,396.73 566.59,376.65 561.62,356.25 558.02,335.56 556.18,317.66 555.57,299.68 556.23,281.69 558.11,263.79 561.75,243.12 565.98,225.62 572,205.51 579.01,185.71 588,163.46 599.12,138.86"   /><polyline id="SvgjsPolyline8937" points="599.95,433.93 593.41,417.16 586.53,397.32 581.39,380.07 577.07,362.6 573.68,344.92 571.66,330.06 570.42,315.12 570,300.12 570.41,285.13 571.63,270.18 574.14,252.36 577.67,234.71 581.33,220.17 586.46,202.91 592.29,185.89 599.85,166.3"   /><polyline id="SvgjsPolyline8938" points="599.78,399.19 596.34,387.7 592.52,373.19 589.89,361.49 587.66,349.7 585.87,337.83 584.54,325.9 583.71,313.93 583.37,301.94 583.54,289.94 584.22,277.96 585.39,266.02 587.03,254.13 589.12,242.32 592.32,227.66 595.3,216.04 599.52,201.65"   /><polyline id="SvgjsPolyline8939" points="599.98,350.53 598.23,338.66 596.93,326.73 596.1,314.76 595.74,302.76 595.87,290.77 596.49,278.78 597.92,263.85 599.58,251.97"   /></g></svg>