<?xml version="1.0" standalone="no"?>
<svg id="SvgjsSvg1001" width="600" height="600" xmlns="http://www.w3.org/2000/svg" version="1.1" xmlns:xlink="http://www.w3.org/1999/xlink" xmlns:svgjs="http://svgjs.com/svgjs" class="svg-paper" viewBox="0 0 600 600"><title id="SvgjsTitle7152">x=sin(y/y)|y=(max(sqrt(x*x + y*y),x)+min(cos(y),y))|dTest=0.0|sd=0.2|sm=0.2|ts=0.05 | generated with FlowLines</title><style>*{fill:none;stroke:#777}</style><g id="SvgjsG7153"><polyline id="SvgjsPolyline7154" points="0,521.08 14.86,475.43 30.62,423.79 42.75,380.45 53.78,336.83 63.56,292.9 75.99,228.09 82.69,195.77 90.06,163.61 104.17,105.29 110.03,78.94 117.33,40.63 123.29,2.09"   /><polyline id="SvgjsPolyline7155" points="0.18,555.91 23.38,490.92 41.58,436.91 56.72,388.21 69.65,341.99 76.26,315.81 82.35,289.51 95.02,227.79 102.22,195.59 108.68,169.37 124.63,108.43 131.6,79.25 138.75,43.97 145.47,2.51"   /><polyline id="SvgjsPolyline7156" points="0.7,480.35 11.58,442.9 22.6,402.37 32.07,364.54 40.72,326.51 48.5,288.3 59.12,229.24 65.4,196.85 71.65,167.51 86.84,100.2 92.87,70.81 98.64,38.32 103.94,2.71"   /><polyline id="SvgjsPolyline7157" points="0.45,587.93 29.97,512.5 54.22,447.91 73.01,394.09 81.32,368.41 89.17,342.57 97.25,313.68 103.19,290.43 117,228.96 124.85,196.91 131.92,170.85 149.38,110.32 156.23,84.21 160.97,63.75 165.16,43.17 168.85,22.5 172.12,1.76"   /><polyline id="SvgjsPolyline7158" points="0.07,574.21 26.42,503.99 47.56,444.65 64.46,393.36 71.47,370.41 78.92,344.46 85.85,318.36 91.54,295.05 105.42,230.52 112.23,201.31 120.5,169.36 137.19,108.61 143.75,82.42 147.68,64.86 151.8,44.26 158.67,2.83"   /><polyline id="SvgjsPolyline7159" points="0.03,439.64 7.5,410.58 15.92,375.58 22.45,346.3 28.51,316.92 34.63,284.5 43.68,231.26 50.18,195.85 56.11,166.44 69.89,101.9 75.68,72.46 81.75,36.98 86.87,1.35"   /><polyline id="SvgjsPolyline7160" points="9.25,597.87 53.94,492.99 79.17,432 98.75,381.68 107.94,356.29 114.73,336.42 122.02,313.56 129.56,287.63 134.91,267.32 144.26,229.46 152.23,200.54 161.05,171.87 179.75,114.86 188.19,86.07 193.35,65.72 197.85,45.2 202.29,21.62 205.66,0.89"   /><polyline id="SvgjsPolyline7161" points="3.48,597.41 39.85,508.56 65.19,444.38 84.92,390.91 93.66,365.36 101.01,342.51 108.72,316.64 115.84,290.6 121.62,267.3 130.44,229.32 138.74,197.38 146.24,171.44 163.87,114.09 171.91,85.19 176.85,64.78 181.2,44.23 185.01,23.58 188.36,2.85"   /><polyline id="SvgjsPolyline7162" points="0.12,390.29 7.77,355.12 14.8,319.81 21.19,284.38 29.86,231.09 35.53,198.58 59.34,77.9 65.8,39.45 71.23,0.83"   /><polyline id="SvgjsPolyline7163" points="21.47,599.82 44.27,550.87 100.89,431.63 116.1,399 135.62,355.15 143.69,335.76 151.36,316.21 157.55,299.31 164.24,279.41 177.86,233.38 187.1,204.84 196.28,179.45 219.01,120.7 228.68,92.3 234.49,72.12 239.51,51.73 244.93,25.28 248.98,1.63"   /><polyline id="SvgjsPolyline7164" points="15.21,599.7 74.05,468.27 95.7,418.8 116.31,368.89 124.96,346.5 132.14,326.77 139.83,304.03 146.04,283.97 161.01,228.98 169.63,200.24 178.18,174.63 198.26,118.09 207.3,89.49 212.79,69.22 218.18,45.84 222.21,25.23 226.2,1.56"   /><polyline id="SvgjsPolyline7165" points="0.17,332.21 7.51,290.86 16.83,231.59 23.31,193.13 40.76,101.78 46.61,69.31 51.78,36.71 56.63,1.04"   /><polyline id="SvgjsPolyline7166" points="34.87,599.41 63.68,543.38 95.07,485.32 129.23,425.37 185.66,329.79 198.71,306.16 209.48,284.71 216.8,268.26 228.86,237.55 238.2,215.44 249.5,190.92 274.39,139.64 281.71,123.2 288.41,106.49 296.2,83.8 303.41,57.78 309.24,31.42 314.5,1.89"   /><polyline id="SvgjsPolyline7167" points="28.25,599.49 49.32,556.36 70.81,513.45 147.69,364.07 164.62,328.94 176.68,301.47 187.46,273.48 200.71,233.63 209.96,208.26 221.26,180.47 243.85,128.14 250.43,111.39 255.46,97.26 261.73,77.21 267.79,53.99 273.41,27.59 278.06,0.99"   /><polyline id="SvgjsPolyline7168" points="25.86,598.08 62.33,522.41 115.61,414.89 131.35,382.51 148.98,344.4 161.84,314 168.31,297.21 174.32,280.24 188.68,234.44 198.51,206.1 207.13,183.7 231,125.4 237.31,108.54 242.14,94.34 248.17,74.23 254.02,50.95 258.91,27.46 263.53,0.86"   /><polyline id="SvgjsPolyline7169" points="0.39,259.42 5.75,223.82 11.09,191.25 27.87,99.78 33,70.22 38.04,37.61 42.79,1.93"   /><polyline id="SvgjsPolyline7170" points="48.28,599.45 70.43,560.28 90.45,526.81 111.39,493.91 131.72,464.2 151.4,437.72 170.39,414.5 186.55,396.76 195.02,388.26 203.81,380.08 217.66,368.59 224.93,363.3 232.47,358.38 237.65,355.36 245.67,351.27 256.81,346.83 268.39,343.73 280.27,342.04 289.25,341.54 313.25,341.26 325.2,340.22 334.02,338.48 342.59,335.73 350.72,331.89 355.83,328.76 360.66,325.2 365.19,321.26 369.42,317.01 377.01,307.72 382.01,300.24 387.88,289.78 392.99,278.92 397.47,267.79 433.58,159.67 443.63,128.23 452.57,96.47 459.42,67.27 465.09,37.81 470.65,2.24"   /><polyline id="SvgjsPolyline7171" points="41.27,599.7 69.86,546.95 96.84,500.17 122.01,459.3 148.47,419.26 169.3,389.9 189.28,363.63 202.46,347.29 214.06,333.53 249.98,293.21 259.69,281.78 268.68,269.77 276.54,257 313.36,188.24 325.81,164.28 337.53,139.96 346.91,117.88 352.15,103.82 355.97,92.44 363.39,66.49 370,37.23 376.25,1.78"   /><polyline id="SvgjsPolyline7172" points="38.86,597.99 58.37,560.8 78.47,523.92 96.21,492.59 117.55,456.42 134.84,428.31 155.88,395.48 217.69,303.28 227.12,287.95 237.19,269.52 252.17,236.79 261.22,217.84 299.38,143.01 306.9,126.66 313.76,110.02 321.73,87.39 326.03,73.02 329.11,61.42 335.06,35.09 340.9,2.61"   /><polyline id="SvgjsPolyline7173" points="32.24,598.53 57.85,547.61 85.64,494.43 105.57,457.46 150.52,376.05 169.03,341.72 181.25,317.65 191.38,295.89 201.69,270.94 214.91,234.25 223.68,211.91 234.38,187.12 259.37,132.58 266.3,115.96 271.6,101.93 279.06,79.12 285.27,55.95 291.01,29.56 296.21,0.02"   /><polyline id="SvgjsPolyline7174" points="36.58,599.52 53.1,567.53 71.45,533.12 88.83,501.59 105.15,472.91 121.86,444.45 142.1,411.12 201.14,317.12 211.69,298.97 221.47,280.38 227.78,266.78 239.37,239.11 246.73,222.68 257.07,201.02 286.57,141.99 294.04,125.61 300.87,108.96 305.01,97.7 309.71,83.45 316.16,60.34 322.1,34 327.92,1.52"   /><polyline id="SvgjsPolyline7175" points="0.29,183.28 19.46,73.95 25.26,35.38 29.5,2.66"   /><polyline id="SvgjsPolyline7176" points="61.56,599.97 80.67,569.46 99.05,542.05 116.64,517.75 133.35,496.55 149.07,478.41 165.79,461.21 181.43,447.2 190.86,439.78 198.2,434.57 210.96,426.69 224.4,420.04 232.77,416.74 238.46,414.86 250.08,411.87 261.91,409.89 273.86,408.78 285.85,408.33 315.85,408.12 330.83,407.36 345.69,405.37 354.47,403.39 360.22,401.69 368.64,398.52 376.75,394.62 384.47,390 389.37,386.54 396.33,380.84 400.71,376.74 406.87,370.18 412.57,363.22 417.83,355.92 424.21,345.75 428.56,337.88 433.86,327.11 438.64,316.11 442.97,304.91 446.9,293.58 452.16,276.36 456.05,261.88 469.87,206.58 489.84,131.18 497.61,99.11 502.61,75.64 507.02,52.04 510.87,28.36 514.64,1.62"   /><polyline id="SvgjsPolyline7177" points="55.66,597.77 77.23,561.74 94.98,533.92 113.59,506.67 133.27,480.18 152.32,457.01 168.47,439.26 176.95,430.77 185.74,422.61 194.88,414.83 201.99,409.31 214.37,400.85 227.47,393.55 235.67,389.86 241.28,387.72 252.77,384.3 264.55,382.02 276.48,380.78 288.47,380.32 315.47,380.1 327.45,379.42 336.38,378.31 342.28,377.21 353.83,374 362.18,370.63 367.52,367.92 372.67,364.84 379.98,359.6 384.56,355.72 390.97,349.4 394.94,344.91 400.48,337.81 405.53,330.37 410.15,322.64 414.37,314.7 418.23,306.57 426.09,287.1 433.48,264.27 447.85,212.22 469.5,137.28 479.37,99.55 484.64,76.14 489.25,52.59 493.24,28.92 497.14,2.21"   /><polyline id="SvgjsPolyline7178" points="50.78,599.8 71.82,563.45 90.64,532.76 112.03,500.15 131.14,473.25 149.53,449.55 167.13,429.08 183.85,411.87 192.67,403.74 199.53,397.91 211.47,388.84 218.92,383.78 226.6,379.09 231.87,376.23 240.01,372.39 248.41,369.17 254.14,367.4 265.85,364.8 277.76,363.38 289.75,362.87 313.75,362.68 328.7,361.6 340.5,359.43 346.27,357.8 351.91,355.75 357.38,353.3 362.65,350.43 367.69,347.18 372.48,343.56 381.27,335.4 385.27,330.93 390.8,323.83 397.37,313.8 403.14,303.28 409.41,289.66 414.82,275.67 419.53,261.43 433.15,215.4 456.89,137.96 466.47,103.26 473.93,71.11 480.07,38.69 485.94,0.14"   /><polyline id="SvgjsPolyline7179" points="45.48,597.79 67.24,558.4 86.84,524.68 107.23,491.44 128.58,458.81 149.32,429.39 167.55,405.56 184.86,384.84 194.93,373.73 203.27,365.09 216.2,352.58 229.85,340.85 241.9,331.92 254.69,324.1 262.77,320.15 268.34,317.9 274.04,316.04 279.87,314.61 285.79,313.66 291.77,313.17 306.77,312.96 312.75,312.56 321.6,310.97 327.3,309.12 335.36,305.14 342.65,299.88 349.1,293.6 352.94,289 356.46,284.14 359.69,279.08 364.04,271.21 370.23,257.55 405.93,165.21 414.2,142.68 420.96,122.8 428.75,96.95 436.04,67.85 442,38.45 447.79,2.92"   /><polyline id="SvgjsPolyline7180" points="46.77,597.69 65.72,563.6 88.47,524.78 109.1,491.69 129.05,461.72 148.29,434.91 166.74,411.26 176.39,399.78 186.38,388.58 203.19,371.46 216.63,359.49 230.97,348.63 243.76,340.81 251.85,336.86 257.42,334.63 268.9,331.18 280.7,329.01 289.67,328.36 310.67,328.09 322.61,326.97 331.38,324.96 339.78,321.77 347.63,317.37 354.77,311.92 361.18,305.6 368.61,296.19 373.46,288.61 377.78,280.71 381.64,272.59 386.19,261.49 422.32,159.71 433.7,125.56 442.06,96.75 449.11,67.59 454.91,38.16 460.57,2.61"   /><polyline id="SvgjsPolyline7181" points="43.55,598.21 62.16,563.94 79.89,532.61 98.23,501.63 114.03,476.13 132.05,448.48 147.36,426.24 165.06,402.03 179.85,383.12 193.31,367.01 207.35,351.39 219.91,338.5 230.82,328.21 244.5,316.52 258.81,305.6 271.29,297.27 291.89,284.97 299.23,279.77 303.73,275.81 307.86,271.45 311.6,266.77 316.57,259.26 323.74,246.09 333.29,227.39 358.09,176.07 371.54,145.94 382.51,118.02 390.94,92.37 397.93,66.29 404.23,36.97 410.26,1.48"   /><polyline id="SvgjsPolyline7182" points="40.53,598.19 64.54,553.2 86.53,513.94 109.37,475.17 131.56,439.51 154.69,404.46 175.33,374.96 191.3,353.19 225.83,307.84 236.45,293.31 248.04,275.8 255.52,262.8 274.31,225.24 311.93,153.51 320.99,134.56 329.22,115.25 337.4,92.69 341.82,78.35 345.75,63.88 349.24,49.29 352.34,34.61 358.1,2.12"   /><polyline id="SvgjsPolyline7183" points="42.37,599.02 71.1,546.35 87.54,517.73 104.49,489.42 120.41,463.99 131.87,446.4 147.05,424.07 160.99,404.53 173.59,387.73 184.72,373.59 198.13,357.43 210.03,343.92 222.34,330.79 235.07,318.06 245.99,307.78 266.04,289.7 274.67,281.37 284.69,270.21 288.3,265.42 293.21,257.88 314.79,218.39 338.16,173.07 351.07,145.99 361.55,121.11 366.74,107.04 370.55,95.65 374.86,81.29 378.72,66.79 385.22,37.51 391.4,2.05"   /><polyline id="SvgjsPolyline7184" points="0,116.17 5.96,80.67 10.05,53.98 17.08,0.44"   /><polyline id="SvgjsPolyline7185" points="76.48,598.59 91.98,576.48 108.26,554.94 123.51,536.41 139.64,518.65 154.63,503.95 168.24,492.17 182.66,481.39 190.19,476.47 197.94,471.91 208.64,466.46 222.52,460.81 234,457.3 248.66,454.19 260.56,452.63 272.53,451.76 287.52,451.35 317.52,451.19 335.5,450.34 344.45,449.41 353.34,448.02 362.13,446.12 367.92,444.52 376.44,441.63 384.71,438.09 395.27,432.4 402.77,427.43 409.88,421.91 416.58,415.91 422.86,409.47 430.62,400.31 437.69,390.62 445.65,377.91 451.39,367.38 457.87,353.85 463.67,340.02 468.87,325.95 474.45,308.83 478.61,294.42 485.18,268.24 498.06,209.64 517.34,127.88 523.17,101.52 528.43,75.04 532.56,51.39 536.21,27.67 539.82,0.92"   /><polyline id="SvgjsPolyline7186" points="68.38,599.07 86.63,571.58 104.1,547.19 120.7,525.9 136.31,507.67 152.91,490.35 168.38,476.15 182.39,464.85 189.71,459.62 197.27,454.73 210.38,447.45 224.12,441.44 235.51,437.68 250.12,434.33 262,432.66 273.96,431.74 285.96,431.37 318.96,431.13 333.93,430.33 342.88,429.34 351.75,427.85 357.61,426.55 366.26,424.07 374.69,420.92 382.83,417.1 390.63,412.6 398.03,407.49 405,401.8 411.54,395.62 417.63,389 423.3,382.01 430.24,372.22 436.52,362 442.21,351.44 447.38,340.61 453.18,326.78 457.37,315.53 462.11,301.3 467.18,284.03 472.38,263.69 486.69,202.33 504.8,129.55 511.54,100.32 516.38,76.81 520.16,56.16 523.99,32.47 528.15,2.76"   /><polyline id="SvgjsPolyline7187" points="58.46,597.62 78.8,564.34 96.83,536.71 115.81,509.71 132.2,488.26 149.56,467.58 166.01,450.12 181.4,435.83 188.32,430.08 197.91,422.87 210.5,414.73 223.81,407.82 237.78,402.37 246.38,399.74 252.21,398.33 264.04,396.3 275.98,395.2 287.98,394.78 314.97,394.6 329.95,393.79 338.88,392.7 344.79,391.64 356.39,388.59 364.8,385.42 370.23,382.87 375.49,379.97 382.99,375.01 387.73,371.33 394.41,365.3 400.59,358.76 406.27,351.78 411.49,344.45 416.28,336.83 420.68,328.98 426.01,318.23 430.79,307.23 435.1,296.03 438.99,284.68 443.38,270.33 459.43,209.42 480.17,134.22 488.26,102.23 492.85,81.74 498.04,55.24 502.03,31.58 506.32,1.89"   /><polyline id="SvgjsPolyline7188" points="43.62,599.18 63.74,562.32 84.61,525.87 104.77,492.48 124.16,462.15 144.43,432.41 162.15,408.19 180.76,384.67 198.46,364.29 213,349.13 228.36,334.82 242.36,323.51 254.73,315.04 262.52,310.54 267.89,307.86 273.4,305.49 279.06,303.5 284.86,301.96 293.72,300.41 302.71,299.97 308.66,299.26 314.46,297.76 320,295.47 325.19,292.45 332.19,286.81 338.26,280.18 343.5,272.87 348.05,265.1 352.04,257.04 375.7,201.9 395.08,154.73 401.49,137.91 407.49,120.94 412.1,106.67 416.33,92.27 423.62,63.18 429.53,33.77 434.82,1.2"   /><polyline id="SvgjsPolyline7189" points="43.49,598.84 62.13,564.58 82.9,528.08 99.81,499.75 118.95,469.25 137.21,441.77 154.53,417.28 170.8,395.73 189.8,372.51 203.79,356.85 218.46,341.83 231.7,329.64 243.28,320.11 250.51,314.75 257.97,309.72 270.99,302.28 281.95,297.41 299.03,291.74 307.14,287.87 314.47,282.65 318.96,278.68 324.89,271.92 329.98,264.5 334.38,256.65 343.58,237.78 369.78,180.48 385.04,144.59 394.54,119.32 402.78,93.62 409.67,67.51 413.57,49.94 416.46,35.22 421.89,2.67"   /><polyline id="SvgjsPolyline7190" points="0.27,37.5 4.71,1.77"   /><polyline id="SvgjsPolyline7191" points="91.43,598 106.42,579.26 120.2,563.41 132.59,550.36 145.6,537.92 159.31,526.26 171.32,517.29 183.92,509.14 197.1,502 210.85,496.01 222.2,492.14 233.81,489.11 248.57,486.47 260.5,485.17 272.48,484.45 320.47,483.92 338.45,483.06 356.31,480.89 365.14,479.14 373.85,476.88 382.4,474.07 393.46,469.42 401.44,465.26 411.58,458.86 418.78,453.46 427.8,445.55 436.15,436.93 443.85,427.74 450.93,418.05 458.99,405.4 466.24,392.27 474,376.04 479.79,362.2 486.02,345.31 491.58,328.19 497.33,308 501.74,290.54 505.72,272.99 518.85,208.31 541.67,102.75 546.16,79.18 550.2,55.52 554.21,28.82 557.73,2.05"   /><polyline id="SvgjsPolyline7192" points="82.42,598.69 98.57,577.06 113.7,558.43 127.65,542.73 142.37,527.76 155.73,515.7 169.85,504.54 182.26,496.13 197.85,487.13 211.46,480.85 222.74,476.76 234.3,473.55 249.03,470.73 260.95,469.34 272.92,468.57 320.91,468.01 335.9,467.28 344.85,466.42 353.76,465.15 362.59,463.4 371.29,461.11 382.62,457.15 390.83,453.48 398.75,449.21 406.33,444.36 413.54,438.98 422.56,431.07 428.86,424.64 436.67,415.53 443.82,405.9 451.92,393.28 459.18,380.16 465.69,366.64 471.54,352.83 477.81,335.96 483.38,318.85 488.35,301.55 495.52,272.42 507.88,213.71 526.42,131.78 533.93,96.57 537.88,75.95 541.94,52.29 545.11,31.53 549.1,1.8"   /><polyline id="SvgjsPolyline7193" points="106.38,598.35 118.54,585.08 131.27,572.35 142.37,562.27 153.96,552.75 166.09,543.92 176.19,537.45 189.33,530.22 200.23,525.22 211.46,520.98 222.95,517.54 237.6,514.34 249.47,512.61 261.42,511.51 273.41,510.91 318.4,510.52 339.38,509.66 351.33,508.5 360.23,507.21 369.06,505.47 377.78,503.26 389.18,499.51 400.21,494.79 408.18,490.63 418.36,484.26 427.94,477.05 436.91,469.08 445.25,460.46 452.99,451.29 461.85,439.19 469.88,426.53 477.16,413.41 485.01,397.22 492.02,380.64 499.27,360.93 505.67,340.93 511.35,320.72 516.4,300.34 521.54,276.89 535.11,206.18 556.75,100.38 561.03,76.76 564.89,53.07 568.33,29.32 571.77,2.54"   /><polyline id="SvgjsPolyline7194" points="95.94,599.57 107.51,585.78 119.58,572.43 132.23,559.63 145.53,547.51 159.57,536.25 171.89,527.69 184.79,520.05 195.53,514.7 206.62,510.12 220.87,505.43 235.43,501.87 247.27,499.9 259.2,498.62 274.17,497.78 319.17,497.37 337.15,496.64 349.1,495.52 358.01,494.24 366.84,492.52 375.56,490.31 386.94,486.52 397.95,481.74 408.47,475.98 415.99,471.04 423.17,465.62 432.18,457.7 440.55,449.1 448.29,439.94 457.13,427.82 465.11,415.13 472.33,401.98 480.08,385.74 486.98,369.11 493.13,352.2 498.64,335.06 504.37,314.86 508.77,297.41 513.38,276.92 527.95,203.35 548.97,103.54 553.38,79.95 557.37,56.28 560.92,32.55 564.82,2.8"   /><polyline id="SvgjsPolyline7195" points="121.24,599.75 132.2,589.51 143.62,579.8 155.56,570.71 168.03,562.38 181.05,554.94 191.86,549.73 202.98,545.23 214.37,541.48 223.07,539.17 234.82,536.75 246.7,535.03 258.64,533.9 279.62,533.02 327.62,532.61 339.61,532.03 351.56,530.97 363.44,529.3 375.19,526.9 386.75,523.66 395.23,520.65 403.51,517.13 414.17,511.62 421.84,506.92 431.58,499.92 440.75,492.18 447.23,485.94 455.36,477.11 462.92,467.8 471.62,455.58 481.03,440.24 489.46,424.34 497.01,408 503.79,391.33 510.86,371.56 517.14,351.52 523.49,328.38 528.44,307.97 534.08,281.56 548.76,201.91 568.42,101.82 573.08,75.23 576.81,51.52 583.5,0.96"   /><polyline id="SvgjsPolyline7196" points="140.19,598.46 149.75,591.21 159.65,584.43 169.89,578.17 180.47,572.52 191.38,567.52 199.76,564.24 211.16,560.51 222.78,557.51 240.5,554.35 249.44,553.3 261.4,552.37 279.39,551.74 324.38,551.43 336.38,550.99 348.34,550.15 360.26,548.76 372.09,546.72 383.75,543.93 395.19,540.3 406.31,535.79 414.39,531.83 424.76,525.8 434.61,518.96 443.91,511.38 452.64,503.15 460.81,494.36 470.25,482.7 478.88,470.44 488.27,455.09 496.7,439.19 504.3,422.87 512.23,403.43 519.28,383.65 525.58,363.62 531.98,340.49 538.97,311.31 544.45,284.88 559.18,202.18 577.68,104.92 582.27,78.32 586.4,51.64 592.98,1.06"   /><polyline id="SvgjsPolyline7197" points="159.11,599.28 169.45,593.21 177.43,589.05 185.59,585.25 193.92,581.84 202.4,578.83 211.01,576.22 219.74,574.02 228.56,572.21 246.37,569.68 264.32,568.36 282.31,567.87 324.31,567.62 348.28,566.42 360.21,565.12 372.05,563.2 383.76,560.57 392.4,558.07 403.69,554.02 417.31,547.74 427.72,541.77 437.63,535.01 449.26,525.55 457.95,517.28 468.05,506.19 475.53,496.81 485.83,482.05 495.11,466.63 503.48,450.7 512.24,431.61 520.03,412.12 527.94,389.46 534.09,369.38 540.37,346.22 547.89,314.09 553.8,284.67 568.1,201.9 585.05,110.46 592.89,63.11 599.7,12.56"   /><polyline id="SvgjsPolyline7198" points="182.74,599.81 196.7,594.33 208.15,590.73 222.73,587.22 237.52,584.75 252.44,583.18 267.41,582.33 324.41,581.76 348.38,580.61 360.31,579.37 372.17,577.54 383.9,575.02 392.58,572.64 406.72,567.65 417.65,562.71 428.18,556.96 440.67,548.66 450.08,541.22 461.09,531.04 469.3,522.29 478.84,510.72 489.28,496.06 497.2,483.33 505.88,467.56 514.97,448.63 523.09,429.27 530.36,409.57 536.89,389.61 543.56,366.56 552.24,331.62 556.67,311.09 561.25,287.53 576.25,198.79 593.83,101.37 599.99,62.86"   /><polyline id="SvgjsPolyline7199" points="222.34,599.57 240.12,596.79 261.05,595.07 279.04,594.51 327.03,594.19 351,592.93 362.93,591.62 374.77,589.73 386.49,587.16 395.16,584.74 406.5,580.82 420.22,574.77 430.75,569.02 443.26,560.76 452.71,553.36 463.77,543.24 474.03,532.3 483.49,520.66 493.88,505.97 501.78,493.22 510.45,477.45 519.56,458.53 526.61,441.97 534.04,422.33 540.73,402.42 547.58,379.42 552.23,362.03 557.18,341.63 561.07,324.05 566.35,297.57 571.56,268.03 582.17,202.89 599.92,102.44"   /><polyline id="SvgjsPolyline7200" points="386.33,599.55 397.89,596.36 406.41,593.46 417.51,588.89 425.59,584.94 433.44,580.54 443.52,574.02 453.1,566.81 462.18,558.96 470.74,550.56 478.79,541.66 486.36,532.35 493.45,522.67 500.11,512.69 507.85,499.84 514.99,486.65 521.6,473.19 527.71,459.49 533.37,445.6 543.5,417.36 553.07,385.78 561.97,350.9 568.37,321.6 574,292.13 588.93,200.34 599.75,138.28"   /><polyline id="SvgjsPolyline7201" points="422.48,599.81 430.49,595.72 438.28,591.2 445.81,586.27 455.43,579.1 464.55,571.31 471.06,565.1 477.29,558.6 485.17,549.55 490.76,542.51 497.83,532.81 504.46,522.81 512.19,509.95 523.37,488.72 534.42,464.09 544.09,438.88 552.58,413.26 561.61,381.52 568.74,352.38 575,323.04 581.04,290.6 599.64,175.09"   /><polyline id="SvgjsPolyline7202" points="447.3,599.7 454.62,594.46 461.66,588.86 468.43,582.93 474.92,576.7 487.09,563.44 494.61,554.09 499.95,546.85 511.51,529.32 521.89,511.07 532.49,489.54 541.91,467.47 551.29,442.15 558.69,419.33 566.87,390.47 574.05,361.34 580.96,329.07 587,296.63 591.39,269.99 599.98,213.64"   /><polyline id="SvgjsPolyline7203" points="469.35,598.08 480.2,587.72 492.24,574.34 503.25,560.11 513.32,545.2 522.53,529.73 532.28,511.14 541.09,492.07 549.06,472.65 556.28,452.93 563.74,430.12 571.23,404.18 577.9,378.02 583.85,351.68 589.19,325.21 594.98,292.73 599.65,263.1"   /><polyline id="SvgjsPolyline7204" points="486.56,598.35 496.5,587.12 503.95,577.71 514.33,563.01 522.32,550.31 529.74,537.28 537.97,521.27 545.52,504.94 553.58,485.54 560.89,465.86 567.56,445.95 573.64,425.85 579.2,405.6 584.98,382.31 590.23,358.89 595.56,332.42 599.85,308.81"   /><polyline id="SvgjsPolyline7205" points="501.65,599.58 509.05,590.13 517.72,577.89 525.8,565.25 533.32,552.27 540.32,539.01 546.86,525.51 552.96,511.81 558.66,497.93 565.02,481.1 569.95,466.93 575.46,449.79 580.57,432.54 585.31,415.17 591.11,391.88 599.43,353.78"   /><polyline id="SvgjsPolyline7206" points="516.77,599.81 528.45,582.37 540.49,561.61 552.54,537.45 563.22,512.66 573.71,484.55 582.95,456.01 591.88,424.25 599.71,392.19"   /><polyline id="SvgjsPolyline7207" points="531.86,599.15 541.14,583.73 551.06,565.23 561.33,543.54 569.48,524.19 576.94,504.56 585.62,478.99 593.41,453.14 599.66,429.97"   /><polyline id="SvgjsPolyline7208" points="546.88,597.69 554.04,584.51 562.04,568.39 568.26,554.73 575.22,538.14 581.68,521.34 587.69,504.37 593.28,487.26 599.32,467.15"   /><polyline id="SvgjsPolyline7209" points="560.32,598.21 570.81,576.63 580.31,554.59 589.96,529.37 599.54,500.95"   /><polyline id="SvgjsPolyline7210" points="573.77,598.24 580,584.59 587,568.01 593.53,551.24 599.62,534.3"   /><polyline id="SvgjsPolyline7211" points="587.21,597.81 594.16,581.21 599.59,567.23"   /></g></svg>