<?xml version="1.0" standalone="no"?>
<svg id="SvgjsSvg1001" width="600" height="600" xmlns="http://www.w3.org/2000/svg" version="1.1" xmlns:xlink="http://www.w3.org/1999/xlink" xmlns:svgjs="http://svgjs.com/svgjs" class="svg-paper" viewBox="0 0 600 600"><title id="SvgjsTitle9970">x=sqrt(x*x + y*y)|y=abs(y)|dTest=0.0|sd=0.2|sm=0.2|ts=0.05 | generated with FlowLines</title><style>*{fill:none;stroke:#777}</style><g id="SvgjsG9971"><polyline id="SvgjsPolyline9972" points="0,521.08 56.58,487.08 105.06,457.12 150.58,428.06 197.99,396.42 232.29,372.18 260.99,350.46 272.64,341.01 284.02,331.24 292.85,323.11 305.74,310.55 310.59,307.04 313.3,305.77 319.06,304.09 330.95,302.53 345.93,301.71 366.92,301.17 438.92,300.56 597.92,300.26"   /><polyline id="SvgjsPolyline9973" points="1.02,534.55 56.98,499.55 112.43,463.76 159.77,432.01 194.19,407.95 228.05,383.11 254.08,362.82 267.95,351.35 281.5,339.49 307.46,314.56 312.18,310.86 317.46,308.04 320.27,307 326.08,305.49 334.97,304.11 349.92,302.88 370.9,302.03 436.89,301.05 598.89,300.48"   /><polyline id="SvgjsPolyline9974" points="1.6,506.17 63.99,470.22 113.01,441.14 161.59,411.32 199.49,387.07 234.33,363.61 263.49,342.51 277.65,331.4 286.83,323.67 304.28,307.2 306.68,305.4 309.36,304.05 315.15,302.55 321.11,301.84 333.09,301.17 351.09,300.76 420.08,300.32 597.08,300.13"   /><polyline id="SvgjsPolyline9975" points="2.28,548.01 55.14,513.73 107.51,478.72 154.35,446.23 193.22,418.08 224.28,394.49 252.32,371.91 266.02,360.25 279.44,348.25 309.65,319.07 316.77,313.59 322.07,310.79 330.6,307.94 342.39,305.76 360.31,304.06 384.28,302.9 414.27,302.14 465.26,301.48 597.26,300.82"   /><polyline id="SvgjsPolyline9976" points="0.88,492.77 53.51,463.96 111.04,431.62 162.89,401.42 203.91,376.5 239.26,353.83 266.43,335.1 285.51,320.55 294.59,312.71 303.26,304.42 305.81,302.85 308.67,301.95 314.61,301.16 326.6,300.64 344.6,300.38 599.6,300.06"   /><polyline id="SvgjsPolyline9977" points="1.24,563.09 53.59,528.03 102.98,493.96 151.77,459.04 190.22,430.31 218.59,408.15 248.7,383.36 264.54,369.57 277.84,357.45 312.29,324.03 319.32,318.43 327.14,313.98 332.71,311.78 338.47,310.09 350.24,307.77 368.12,305.74 392.07,304.25 425.05,303.13 467.05,302.34 599.04,301.31"   /><polyline id="SvgjsPolyline9978" points="0.43,479.37 61.65,447.55 111.96,420.74 159.29,394.76 206.18,367.97 239.59,347.85 269.8,328.28 279.62,321.38 289.2,314.15 296.08,308.35 302.66,302.23 305.45,301.17 311.41,300.56 344.41,300.15"   /><polyline id="SvgjsPolyline9979" points="2.87,369.19 201.71,323.57 271.77,307 315.42,296.08 373.78,282.14 467.29,260.41 598.9,230.35"   /><polyline id="SvgjsPolyline9980" points="2.59,337.24 303.24,299.61 598.28,265.5"   /><polyline id="SvgjsPolyline9981" points="0.33,315.42 299.93,300 599.45,282.98"   /><polyline id="SvgjsPolyline9982" points="0.43,578.17 54.75,540.68 101.2,507.66 149.51,472.07 189.93,440.97 227.22,410.75 256.76,385.29 278.83,364.98 315.36,329.39 319.95,325.53 324.81,322 332.63,317.58 338.16,315.25 343.86,313.38 349.67,311.86 358.49,310.11 376.34,307.76 403.26,305.74 433.23,304.45 481.21,303.27 598.21,301.99"   /><polyline id="SvgjsPolyline9983" points="0.27,465.95 56.87,438.27 113.2,410.07 158.55,386.73 203.55,362.74 237.6,343.73 268.52,325.29 288.51,312.01 302.49,300.78 305.45,300.36 314.45,300.14"   /><polyline id="SvgjsPolyline9984" points="0.22,357.48 185.91,322.27 294.87,301.06"   /><polyline id="SvgjsPolyline9985" points="2.63,381.66 101.19,355.4 190.95,331.08 266.09,310.13 300.6,299.9 410.16,282.11 599.78,251.94"   /><polyline id="SvgjsPolyline9986" points="1.72,299.95 256.72,299.63 280.7,298.96 286.64,298.14 289.48,297.17 292.04,295.61 294.33,293.68 307.21,281.1 316.16,273.11 334.82,258.03 361.41,238.48 393.58,216.44 433.85,190.32 484.85,158.72 541.53,124.91 598.65,91.84"   /><polyline id="SvgjsPolyline9987" points="2.85,372.21 186.68,328.31 253.69,311.88 297.3,300.78 301.79,296.81 309.18,291.68 329.79,279.39 358.77,263.6 393.47,245.8 436.54,224.62 485.3,201.41 542.45,174.9 599.81,148.85"   /><polyline id="SvgjsPolyline9988" points="1.31,356.91 189.99,321.34 298.97,300.3 309.8,295.15 331.98,285.99 399.24,260.3 497.94,224.48 599.81,188.62"   /><polyline id="SvgjsPolyline9989" points="1.12,412.78 111.29,373.39 198.54,341.2 234.98,327.28 265.66,315.14 287.79,305.85 295.96,302.09 298.5,300.52 306.94,297.42 349.79,283.68 412.93,264.46 496.35,239.75 597.17,210.44"   /><polyline id="SvgjsPolyline9990" points="2.27,591.54 51.22,556.84 97.28,523.27 142.8,488.96 182.92,457.47 217.69,428.91 251.65,399.39 278.03,374.9 310.07,343.3 318.83,335.1 328.22,327.64 333.26,324.38 338.54,321.54 344.03,319.12 352.54,316.2 367.13,312.77 387.92,309.78 411.82,307.69 441.78,306.07 480.76,304.76 528.75,303.76 597.74,302.89"   /><polyline id="SvgjsPolyline9991" points="0.43,452.54 101.22,406.03 144.56,385.41 187.69,364.33 233.13,341.19 264.79,324.04 287.97,310.22 295.39,305.12 299.98,301.27 302.69,300.2 308.69,300.06"   /><polyline id="SvgjsPolyline9992" points="2.83,394.13 100.41,364.43 192.08,335.92 260.61,313.84 297.46,301.07"   /><polyline id="SvgjsPolyline9993" points="1.72,287.95 49.66,285.65 91.56,282.77 124.4,279.57 151.15,275.93 174.74,271.49 186.4,268.65 195.05,266.18 203.6,263.36 212,260.14 220.22,256.48 228.22,252.36 235.96,247.78 245.86,241 255.31,233.6 264.37,225.74 279.65,211.33 339.38,152.27 363.28,129.52 387.52,107.13 416.57,81.1 448.26,53.54 480.33,26.42 510.4,1.59"   /><polyline id="SvgjsPolyline9994" points="1.87,294.23 58.85,292.83 106.81,290.99 139.76,289.07 172.63,286.21 196.42,283.07 208.23,280.93 217.01,278.97 225.69,276.61 234.23,273.76 242.55,270.32 247.93,267.67 253.15,264.72 260.67,259.78 267.81,254.3 274.63,248.43 285.56,238.16 328.23,195.98 350.02,175.36 378.92,149.17 415.23,117.78 445.22,92.84 482.6,62.74 522.8,31.36 563.41,0.5"   /><polyline id="SvgjsPolyline9995" points="2.07,297.42 71.07,296.62 122.06,295.62 158.04,294.46 190.99,292.69 214.89,290.49 226.77,288.83 235.63,287.22 244.41,285.26 250.18,283.63 255.85,281.66 261.37,279.31 266.68,276.53 271.76,273.33 281.19,265.92 289.97,257.74 326.35,222.01 350.65,199.69 380.12,174.14 419.57,141.82 457.4,112.27 500.55,79.81 551.52,42.78 598.09,9.91"   /><polyline id="SvgjsPolyline9996" points="2.54,299.09 137.54,298.31 182.54,297.63 209.53,296.87 233.49,295.63 248.42,294.21 260.25,292.22 266.05,290.68 271.67,288.59 279.69,284.51 286.95,279.21 293.57,273.12 319.3,247.94 343.88,225.92 376.25,199.17 411.83,171.62 450.47,143.14 494.55,111.95 544.09,78.1 599.1,41.64"   /><polyline id="SvgjsPolyline9997" points="0.49,301.57 291.49,300.04 294.44,299.57 303.27,291.46 310.19,285.71 329.59,271.59 357.24,253.58 393.16,231.82 437.36,206.37 487.25,178.8 540.14,150.47 598.64,119.92"   /><polyline id="SvgjsPolyline9998" points="1.94,299.71 160.94,299.36 232.93,298.6 250.92,298.01 265.88,296.96 274.77,295.58 280.52,293.87 285.81,291.07 290.51,287.34 316.47,262.41 327.74,252.51 341.58,241 369.97,218.87 401.41,195.79 440.75,168.3 490.65,134.97 541.1,102.5 599.63,65.97"   /><polyline id="SvgjsPolyline9999" points="2.03,299.99 251.03,299.92 281.03,299.72 290,299.12 292.78,298.02 295.14,296.18 303.76,287.83 310.52,281.89 319.86,274.35 334.28,263.58 363.96,243.2 396.79,222.16 437.77,197.17 484.37,169.89 539.19,138.84 599.63,105.56"   /><polyline id="SvgjsPolyline10000" points="1.67,418.31 83.21,387.96 144.9,364.51 203.59,341.61 250.85,322.44 272.93,313.03 289.32,305.6 297.29,301.48 302.08,297.88 307.27,294.86 325.94,285.26 350.35,273.72 388.67,256.53 432.74,237.51 482.53,216.6 599.21,169.05"   /><polyline id="SvgjsPolyline10001" points="297.42,299.25 301.79,295.15 308.87,289.59 318.72,282.75 331.35,274.65 359.71,257.77 396.39,237.32 444.09,212 492.15,187.39 543.16,161.95 599.77,134.31"   /><polyline id="SvgjsPolyline10002" points="11.61,599.64 62.48,562.48 103.25,531.84 143.56,500.6 183.29,468.63 217.73,439.67 253.61,407.79 275.47,387.24 311.76,351.4 322.72,341.17 329.67,335.45 334.53,331.94 339.6,328.73 344.87,325.87 350.33,323.36 358.76,320.24 373.25,316.37 382.08,314.64 393.94,312.81 417.8,310.23 447.72,308.16 486.69,306.46 534.67,305.14 597.66,304.05"   /><polyline id="SvgjsPolyline10003" points="0.93,439.13 61.66,413.3 116.71,389.43 166.07,367.52 207,348.82 244.93,330.79 269.07,318.7 290.14,307.21 295.25,304.07 300.05,300.48"   /><polyline id="SvgjsPolyline10004" points="1.23,275.96 40.07,272.39 72.83,268.44 102.46,263.77 128.9,258.3 140.53,255.36 152.06,252.03 171.88,245.12 188.37,237.89 196.38,233.79 206.78,227.81 216.84,221.28 228.94,212.41 240.56,202.93 254.01,190.97 273.55,172.34 330.98,115.22 369.73,77.61 411.33,38.64 453.6,0.41"   /><polyline id="SvgjsPolyline10005" points="0.34,282.63 42.24,279.75 78.08,276.4 110.82,272.22 137.41,267.59 157.87,262.87 169.44,259.68 180.87,256.02 192.1,251.8 200.36,248.22 208.44,244.26 216.32,239.91 226.48,233.54 236.25,226.57 245.65,219.12 256.98,209.28 276.59,190.73 340.51,127.37 377.39,92.14 401.6,69.72 428.31,45.59 480.26,0.17"   /><polyline id="SvgjsPolyline10006" points="0.76,292.12 48.73,290.58 93.68,288.47 135.57,285.43 162.41,282.48 186.1,278.69 197.83,276.16 206.54,273.88 215.13,271.2 223.56,268.04 231.77,264.36 237.09,261.58 244.81,256.96 252.2,251.83 259.29,246.29 268.35,238.43 281.42,226.05 319.73,187.99 345.64,163 371.99,138.47 405.54,108.48 435.08,83.02 464.98,57.99 497.53,31.44 535.1,1.56"   /><polyline id="SvgjsPolyline10007" points="0.89,296.38 54.88,295.57 111.86,294.18 150.83,292.6 180.77,290.65 204.64,288.16 216.5,286.38 225.34,284.66 239.81,280.77 248.22,277.57 253.64,275 263.89,268.78 268.71,265.2 275.61,259.42 286.53,249.15 320.66,215.39 346.88,190.73 378.27,162.82 412.65,133.79 452.33,101.75 492.59,70.44 540.51,34.34 586.52,0.69"   /><polyline id="SvgjsPolyline10008" points="2.67,298.52 125.67,297.44 167.66,296.59 200.63,295.38 224.58,293.79 242.45,291.66 254.21,289.27 259.96,287.57 265.54,285.39 273.44,281.09 280.65,275.71 289.49,267.6 319.46,238.18 343.83,215.93 375.83,188.73 410.97,160.62 449.14,131.51 495.13,97.85 541.68,64.94 598.57,25.9"   /><polyline id="SvgjsPolyline10009" points="33.24,598.8 73.95,568.08 114.25,536.83 149.42,508.75 184.12,480.11 216,452.76 249.46,422.67 273.44,400 311.83,362.02 324.9,349.66 331.75,343.81 338.92,338.38 343.92,335.07 351.75,330.64 357.17,328.07 365.54,324.76 374.12,322.04 382.83,319.79 391.64,317.93 403.47,315.91 427.28,312.96 454.19,310.7 493.12,308.55 538.1,306.93 598.08,305.54"   /><polyline id="SvgjsPolyline10010" points="0.27,264 32.98,259.63 62.57,254.68 88.99,249.14 112.21,243.08 135.03,235.67 154.51,227.83 170.71,219.99 181.2,214.16 188.89,209.48 203.79,199.39 215.74,190.33 229.59,178.83 245.22,164.81 271.19,139.88 356.38,55.37 384.45,28.29 412.8,1.51"   /><polyline id="SvgjsPolyline10011" points="0.68,270.97 39.44,266.58 69.12,262.22 95.65,257.26 119.01,251.74 130.56,248.48 141.99,244.83 161.6,237.35 169.82,233.68 180.56,228.33 191.09,222.57 198.79,217.92 211.24,209.55 223.22,200.53 237.05,189.02 252.63,174.93 272.09,156.22 331.63,96.97 363.82,65.52 394.22,36.54 431.61,1.85"   /><polyline id="SvgjsPolyline10012" points="52.46,599.41 85.6,573.61 123.12,543.67 155.59,517.03 187.65,489.9 223.69,458.2 250.2,433.85 274.06,411.05 314.54,370.92 327.6,358.54 334.38,352.62 341.43,347.02 348.8,341.86 356.51,337.23 364.55,333.19 372.86,329.73 381.37,326.8 390.02,324.33 398.77,322.24 410.55,319.91 434.29,316.43 464.14,313.45 500.06,311.04 539.02,309.24 598.99,307.39"   /><polyline id="SvgjsPolyline10013" points="1.8,251.73 31.34,246.51 57.74,240.83 80.96,234.78 101.01,228.55 120.71,221.29 139.94,212.85 158.56,203.15 176.48,192.21 191.25,181.92 205.5,170.92 221.55,157.39 237.14,143.31 265.28,116.32 339.7,42.25 382.63,0.33"   /><polyline id="SvgjsPolyline10014" points="2.59,258.46 32.23,253.82 58.74,248.72 82.11,243.24 105.18,236.63 125,229.71 144.35,221.56 163.08,212.07 181.06,201.23 195.84,190.96 210.06,179.93 226.07,166.34 241.58,152.19 267.5,127.2 348.35,46.84 395.82,0.98"   /><polyline id="SvgjsPolyline10015" points="71.68,599.71 102.08,575.29 134.53,548.62 159.78,527.37 191.55,499.9 220.63,473.91 251.4,445.33 279.44,418.22 317.74,380.15 330.8,367.77 339.84,359.88 349.29,352.49 356.71,347.4 364.44,342.79 372.45,338.69 380.71,335.11 389.15,332.01 397.75,329.33 406.44,327.02 418.15,324.4 441.81,320.39 471.6,316.87 507.48,313.96 543.42,311.9 597.38,309.75"   /><polyline id="SvgjsPolyline10016" points="2.83,239.41 29.21,233.65 52.45,227.65 75.4,220.63 95.15,213.51 114.51,205.37 130.7,197.51 149.04,187.29 166.73,175.98 181.36,165.5 195.54,154.42 211.59,140.87 229.41,124.79 266.15,89.43 355.48,0.57"   /><polyline id="SvgjsPolyline10017" points="90.91,599.72 127.83,569.04 157.51,543.74 184.61,520.05 213.61,493.97 240,469.49 259.53,450.85 319.26,391.78 336.71,375.3 345.78,367.45 355.23,360.06 365.13,353.28 372.87,348.68 380.86,344.54 389.06,340.86 400.29,336.61 408.86,333.87 429.21,328.7 452.8,324.34 482.54,320.41 512.41,317.55 551.31,314.84 599.25,312.47"   /><polyline id="SvgjsPolyline10018" points="0.48,227.64 20.85,222.54 43.91,215.87 63.82,209.21 83.41,201.66 102.6,193.14 118.67,185.02 136.89,174.59 154.52,163.18 171.55,150.9 185.7,139.77 201.75,126.24 221.83,108.18 256.49,74.98 330.88,0.88"   /><polyline id="SvgjsPolyline10019" points="110.13,599.43 142.06,572.15 169.16,548.45 195.98,524.43 220.28,502.1 257.27,466.99 321.23,403.68 340.84,385.12 349.88,377.23 359.24,369.72 368.99,362.73 379.16,356.36 387.05,352.05 395.16,348.14 406.25,343.55 414.73,340.54 423.32,337.85 434.9,334.72 458.36,329.69 485.03,325.46 517.8,321.65 556.67,318.38 598.59,315.81"   /><polyline id="SvgjsPolyline10020" points="0.61,215.28 20.78,209.43 40.73,202.87 60.39,195.5 76.97,188.49 95.92,179.44 111.78,170.93 127.24,161.73 144.77,150.17 159.36,139.62 175.89,126.67 191.97,113.17 209.89,97.2 229.62,78.77 249.03,60 308.6,0.78"   /><polyline id="SvgjsPolyline10021" points="129.35,598.87 176.55,557.13 225.08,512.4 257.57,481.27 321.47,417.9 343.17,397.18 354.41,387.26 366.09,377.84 375.81,370.81 385.91,364.34 393.74,359.89 401.76,355.81 412.72,350.92 421.11,347.67 432.47,343.81 441.1,341.25 464.41,335.57 490.96,330.7 520.68,326.6 559.48,322.64 598.37,319.7"   /><polyline id="SvgjsPolyline10022" points="0.3,202.92 20.26,196.39 37.16,190.2 53.84,183.43 72.95,174.73 88.99,166.57 104.69,157.76 120.01,148.32 134.95,138.28 149.51,127.7 166.05,114.76 182.16,101.3 197.92,87.41 217.76,69.1 235.11,52.52 286.34,1.93"   /><polyline id="SvgjsPolyline10023" points="148.56,598.04 190.8,559.76 232.36,520.75 266.8,487.32 326.37,428.1 345.9,409.45 357.07,399.44 370.96,387.99 383.05,379.11 393.1,372.56 408.8,363.78 416.92,359.88 427.96,355.19 447.77,348.23 470.92,341.93 497.35,336.43 526.98,331.73 559.74,327.76 598.57,324.16"   /><polyline id="SvgjsPolyline10024" points="2.38,189.69 19.29,183.52 35.98,176.8 52.43,169.49 68.6,161.58 84.45,153.05 97.4,145.48 112.61,135.85 127.46,125.68 141.96,115.02 156.13,103.92 172.28,90.5 188.09,76.68 208.01,58.45 223.26,44.01 266.13,2.04"   /><polyline id="SvgjsPolyline10025" points="165.52,598.97 198.58,568.44 235.57,533.32 267.77,501.89 325.17,444.74 351.17,419.84 364.61,407.87 376.18,398.32 388.17,389.31 400.64,380.97 410.96,374.85 418.89,370.61 429.71,365.42 437.98,361.87 457.69,354.65 480.74,347.96 504.13,342.6 533.66,337.3 563.37,333.13 599.15,329.19"   /><polyline id="SvgjsPolyline10026" points="1.22,177.38 15.17,171.88 31.7,164.77 47.98,157.1 61.33,150.26 74.47,143.02 89.93,133.81 105.06,124.05 117.4,115.53 129.51,106.68 143.76,95.68 157.71,84.31 173.67,70.65 189.33,56.66 206.93,40.35 247.92,0.74"   /><polyline id="SvgjsPolyline10027" points="182.49,599.7 210.9,572.98 243.33,541.78 326.4,459.39 352.32,434.41 367.9,420.34 381.71,408.79 396.06,397.92 408.49,389.53 418.75,383.32 426.63,378.97 442.82,371.1 462.29,363.26 473.64,359.37 485.12,355.86 508.35,349.83 534.78,344.34 564.37,339.44 597.09,335.13"   /><polyline id="SvgjsPolyline10028" points="2.44,164.05 16.21,158.11 29.82,151.8 43.24,145.11 59.09,136.57 72.06,129.04 84.81,121.14 97.34,112.89 112.07,102.56 135.95,84.4 152.2,71.1 165.87,59.38 192.61,35.28 229.53,0.11"   /><polyline id="SvgjsPolyline10029" points="201.66,598.21 247.01,554.48 327.88,474.13 358.14,445 373.73,430.94 389.86,417.49 404.22,406.64 416.62,398.21 434.68,387.49 453.47,378.13 472.87,370.11 492.74,363.31 515.83,356.79 542.15,350.78 568.7,345.84 598.35,341.34"   /><polyline id="SvgjsPolyline10030" points="0.54,151.84 27.63,138.96 51.38,126.12 76.99,110.5 99.31,95.3 123.31,77.32 151.15,54.49 180.33,28.62 208.79,1.95"   /><polyline id="SvgjsPolyline10031" points="218.64,598.61 261.55,556.68 333.84,484.71 359.76,459.74 377.51,443.59 393.54,430.01 407.75,418.97 422.48,408.62 440.35,397.6 458.93,387.82 478.12,379.3 497.79,371.96 520.7,364.84 543.95,358.86 570.35,353.24 599.9,348.07"   /><polyline id="SvgjsPolyline10032" points="1.04,138.46 25.14,126.3 48.64,113.02 71.5,98.65 96.12,81.51 119.96,63.3 143.1,44.21 167.89,22.43 192.14,0.05"   /><polyline id="SvgjsPolyline10033" points="235.62,598.88 335.68,499.54 365.94,470.42 383.72,454.29 399.73,440.71 413.89,429.6 431.02,417.45 446.24,407.85 464.63,397.72 483.62,388.76 503.11,380.93 522.97,374.14 546.03,367.48 572.28,361.15 598.75,355.84"   /><polyline id="SvgjsPolyline10034" points="1.18,125.07 22.38,113.82 43.1,101.72 63.33,88.81 85.49,73.38 107.04,57.12 128.03,40.14 148.54,22.58 173.06,0.5"   /><polyline id="SvgjsPolyline10035" points="252.6,599.05 335.51,516.49 356.99,495.55 374.45,479.09 392.31,463.05 406.05,451.43 422.57,438.47 437.21,427.99 452.32,418.21 470.54,407.77 489.34,398.43 508.64,390.16 528.35,382.91 551.24,375.72 574.43,369.55 597.83,364.22"   /><polyline id="SvgjsPolyline10036" points="1,111.68 19.36,101.49 37.37,90.68 55,79.29 74.71,65.59 93.95,51.24 112.75,36.33 131.17,20.94 153.71,1.15"   /><polyline id="SvgjsPolyline10037" points="269.58,599.13 339.7,529.24 361.19,508.31 378.65,491.84 396.47,475.77 412.47,462.17 428.95,449.15 443.52,438.58 458.52,428.64 476.59,417.94 495.22,408.26 511.59,400.78 531.08,392.97 550.91,386.07 573.9,379.16 597.13,373.17"   /><polyline id="SvgjsPolyline10038" points="0.54,98.3 16.13,89.3 33.99,78.26 51.49,66.67 66.22,56.31 83.08,43.79 99.61,30.85 118.15,15.6 134.08,1.92"   /><polyline id="SvgjsPolyline10039" points="286.55,599.16 350.36,535.69 369.78,516.93 387.31,500.54 405.2,484.54 421.26,471.01 437.78,458.04 452.35,447.48 469.87,435.91 485.35,426.72 501.22,418.22 520.18,409.22 539.57,401.15 556.46,394.94 576.43,388.45 599.52,381.9"   /><polyline id="SvgjsPolyline10040" points="2.36,83.46 15.21,75.71 30.39,66.04 57.56,47.33 86.28,25.63 116.42,0.87"   /><polyline id="SvgjsPolyline10041" points="303.53,599.16 354.63,548.44 376.23,527.63 396.01,509.24 413.97,493.33 430.08,479.85 446.62,466.93 461.2,456.37 478.71,444.77 494.14,435.5 509.94,426.9 526.1,418.96 542.56,411.69 562.11,404.01 581.95,397.13 599.14,391.82"   /><polyline id="SvgjsPolyline10042" points="1.34,70.11 26.62,53.95 48.79,38.54 70.43,22.4 96.21,1.8"   /><polyline id="SvgjsPolyline10043" points="320.49,599.17 369.66,550.75 404.71,517.96 422.73,502.12 438.89,488.7 453.07,477.61 467.59,466.99 482.49,456.88 497.75,447.34 513.38,438.42 529.36,430.14 545.66,422.49 562.23,415.46 579.03,409.02 598.9,402.2"   /><polyline id="SvgjsPolyline10044" points="0.12,56.77 17.72,45.33 37.46,31.67 56.78,17.44 78.06,0.82"   /><polyline id="SvgjsPolyline10045" points="337.46,599.2 382.55,555.21 415.62,524.69 431.47,510.91 447.67,497.55 461.87,486.49 476.4,475.87 491.28,465.75 503.96,457.72 519.48,448.62 535.35,440.12 548.81,433.5 565.22,426.1 579.08,420.38 598.75,413.02"   /><polyline id="SvgjsPolyline10046" points="1.18,41.85 28.42,23.23 57.29,1.72"   /><polyline id="SvgjsPolyline10047" points="354.42,599.3 391.08,563.84 410.86,545.47 426.51,531.46 454.04,508.28 468.22,497.18 482.7,486.5 495.02,477.94 510.12,468.14 522.96,460.38 538.66,451.59 551.99,444.7 568.24,436.97 581.98,430.95 598.68,424.23"   /><polyline id="SvgjsPolyline10048" points="2.01,26.92 21.7,13.2 38.61,0.76"   /><polyline id="SvgjsPolyline10049" points="371.37,599.48 403.92,568.4 419.38,554.19 437.34,538.27 462.68,517.13 474.49,507.88 488.93,497.14 501.2,488.51 516.22,478.6 528.99,470.72 541.97,463.21 555.17,456.08 568.56,449.33 584.88,441.74 598.66,435.82"   /><polyline id="SvgjsPolyline10050" points="0.18,13.65 17.31,1.51"   /><polyline id="SvgjsPolyline10051" points="388.32,599.76 421.15,568.99 448.11,545.13 471.22,526.01 497.49,506.04 522.24,489.09 534.94,481.1 547.85,473.46 571.59,460.62 598.68,447.74"   /><polyline id="SvgjsPolyline10052" points="407.43,598.13 433.91,573.75 461.06,550.11 484.35,531.2 505.93,514.97 530.65,497.99 553.61,483.78 574.56,472.08 598.7,459.99"   /><polyline id="SvgjsPolyline10053" points="424.36,598.74 448.85,576.62 471.63,557.1 492.65,540.16 514.23,523.94 536.43,508.57 556.7,495.72 577.47,483.7 598.71,472.53"   /><polyline id="SvgjsPolyline10054" points="441.28,599.51 461.48,581.6 479.78,566.07 500.82,549.15 519.98,534.7 539.61,520.89 559.72,507.79 580.32,495.47 598.72,485.36"   /><polyline id="SvgjsPolyline10055" points="460.41,598.49 478.57,582.81 497.08,567.53 513.59,554.55 530.43,542 547.61,529.93 565.15,518.39 580.48,508.94 598.68,498.47"   /><polyline id="SvgjsPolyline10056" points="477.3,599.69 493.34,586.13 509.65,572.9 526.25,560.05 540.74,549.37 555.48,539.04 570.47,529.07 585.72,519.5 598.61,511.85"   /><polyline id="SvgjsPolyline10057" points="496.44,599.17 522.09,578.41 548.46,558.58 573.13,541.52 598.49,525.48"   /><polyline id="SvgjsPolyline10058" points="515.58,598.95 536.77,582.22 556.02,567.89 578.17,552.44 598.3,539.38"   /><polyline id="SvgjsPolyline10059" points="534.71,599.01 551.36,586.21 565.86,575.55 580.58,565.19 598.05,553.53"   /><polyline id="SvgjsPolyline10060" points="553.85,599.38 577.99,581.57 597.74,567.94"   /><polyline id="SvgjsPolyline10061" points="575.35,598.28 599.82,580.92"   /><polyline id="SvgjsPolyline10062" points="594.46,599.29 599.35,595.82"   /></g></svg>