<?xml version="1.0" standalone="no"?>
<svg id="SvgjsSvg1001" width="600" height="600" xmlns="http://www.w3.org/2000/svg" version="1.1" xmlns:xlink="http://www.w3.org/1999/xlink" xmlns:svgjs="http://svgjs.com/svgjs" class="svg-paper" viewBox="0 0 600 600"><title id="SvgjsTitle8615">x=sqrt(x*x + y*y)|y=(cos(sin(x))-(x+x))|dTest=0.0|sd=0.2|sm=0.2|ts=0.05 | generated with FlowLines</title><style>*{fill:none;stroke:#777}</style><g id="SvgjsG8616"><polyline id="SvgjsPolyline8617" points="0,521.08 18.05,489.93 32.73,463.76 48.39,434.72 62.11,408.04 76.6,378.39 90.47,348.45 131.3,254.98 146.32,222.26 154.3,206.13 162.74,190.23 171.74,174.65 179.75,161.96 186.53,152.06 193.68,142.42 207.13,126.3 215.38,117.59 221.84,111.33 235.47,99.58 242.63,94.13 252.52,87.34 260.2,82.63 268.08,78.29 276.17,74.35 284.46,70.86 292.95,67.86 301.61,65.44 310.43,63.66 319.37,62.59 328.36,62.29 334.35,62.55 343.29,63.6 352.1,65.43 360.72,67.99 369.12,71.21 377.28,75.01 387.77,80.83 395.35,85.68 405.1,92.68 412.15,98.27 421.25,106.09 432.17,116.37 440.58,124.93 458.56,145.07 475.37,166.2 491.13,188.11 507.59,213.19 524.65,241.44 539.46,267.53 599.39,378.36"   /><polyline id="SvgjsPolyline8618" points="1.04,542.56 21.11,509.12 40.62,475.35 57.96,443.8 73.18,414.52 87.71,384.89 101.58,354.95 112.53,330.27 142.25,261.41 155.95,231.39 163.89,215.24 172.3,199.33 179.76,186.31 187.69,173.58 199.72,156.37 207.13,146.93 212.96,140.08 225.33,127.01 234.13,118.85 241.01,113.05 250.56,105.78 257.99,100.71 265.66,96 273.56,91.69 281.68,87.82 290.02,84.45 295.7,82.51 304.38,80.14 313.22,78.47 322.18,77.58 331.17,77.53 337.15,77.98 346.04,79.36 351.88,80.74 360.47,83.44 368.8,86.82 376.87,90.8 384.67,95.29 392.21,100.21 401.86,107.33 408.83,113.02 417.8,121 426.41,129.35 436.76,140.21 452.44,158.37 469,179.7 486.24,204.25 504.04,232.03 519.39,257.81 535.63,286.53 598.95,402.35"   /><polyline id="SvgjsPolyline8619" points="0.19,496.93 17.72,465.48 33.36,436.43 47.14,409.78 61.77,380.2 82.06,336.7 120.71,248.83 130.66,226.98 139.72,208.04 147.89,192 156.51,176.2 164.13,163.28 172.2,150.64 179.01,140.76 186.18,131.14 199.64,115.02 207.88,106.3 214.32,100.02 223.27,92.03 230.25,86.34 239.89,79.2 247.37,74.2 257.65,68.02 265.6,63.79 273.73,59.93 282.05,56.5 290.54,53.53 299.2,51.08 308.01,49.23 316.92,48.03 325.91,47.55 334.9,47.82 343.84,48.86 352.66,50.64 361.31,53.11 369.76,56.21 377.98,59.86 388.58,65.48 396.27,70.16 406.17,76.93 415.71,84.21 424.92,91.9 433.83,99.95 442.45,108.29 458.91,125.75 476.3,146.4 485.47,158.27 494.31,170.39 511.1,195.25 526.86,220.77 543.32,249.38 559.18,278.32 598.75,352.41"   /><polyline id="SvgjsPolyline8620" points="0.13,566.59 27.05,523.28 48.52,487.18 66.18,455.81 81.65,426.66 97.71,394.44 111.71,364.56 126.34,331.66 153.65,268.3 167.33,238.27 173.93,224.8 182.3,208.87 189.73,195.84 197.67,183.11 209.75,165.94 221.11,151.98 233.46,138.9 246.84,126.86 253.92,121.3 261.25,116.08 268.83,111.24 276.67,106.82 290.29,100.55 298.78,97.57 304.56,95.96 310.42,94.68 319.33,93.46 328.32,93.11 334.31,93.4 343.23,94.59 349.09,95.89 357.69,98.51 366.04,101.88 374.09,105.89 381.85,110.45 389.32,115.47 396.52,120.87 403.46,126.6 412.35,134.65 420.87,143.11 431.05,154.11 444.58,170.17 460.94,191.65 478,216.32 495.72,244.16 509.58,267.33 523.03,290.75 572.4,380 598.95,427.02"   /><polyline id="SvgjsPolyline8621" points="1.43,470.17 29.51,417.15 43.01,390.36 54.81,366.08 75.01,322.53 114.05,234.83 129.43,202.29 138.97,183.58 149.09,165.18 156.77,152.29 166.56,137.19 173.49,127.39 180.75,117.84 188.39,108.58 196.4,99.66 202.68,93.2 211.39,84.95 220.49,77.14 227.57,71.58 237.34,64.62 244.9,59.74 255.28,53.71 263.28,49.58 274.21,44.64 282.61,41.4 291.16,38.62 299.87,36.34 308.7,34.63 317.63,33.55 326.62,33.15 335.62,33.47 344.55,34.51 353.38,36.25 362.05,38.65 370.53,41.65 378.81,45.19 389.5,50.63 399.82,56.76 409.77,63.46 419.38,70.64 428.69,78.22 437.7,86.14 448.59,96.45 459.08,107.17 467.2,116.01 484.61,136.64 500.88,158.19 517.75,182.99 533.56,208.48 550.04,237.07 567.32,268.65 599.73,329.57"   /><polyline id="SvgjsPolyline8622" points="0.44,588.08 31.33,540.18 53.36,504.42 74.45,468.11 93.04,433.82 109.29,401.7 124.73,369.18 139.47,336.34 166.89,273.02 179.33,245.72 192.86,218.95 200.24,205.89 206.52,195.67 218.43,178.37 229.68,164.33 241.98,151.19 248.54,145.03 255.38,139.18 267.4,130.21 280.2,122.41 288.26,118.41 293.79,116.08 302.3,113.15 308.1,111.63 316.96,110.05 322.93,109.53 328.93,109.43 337.9,110.13 343.81,111.14 352.51,113.44 360.94,116.58 366.39,119.09 374.3,123.38 381.88,128.22 389.15,133.52 396.14,139.2 402.86,145.19 411.44,153.57 425.57,169.1 440.62,187.79 454.76,207.18 469.85,229.57 485.85,254.94 513.34,301.42 570.87,403.3 599.53,452.57"   /><polyline id="SvgjsPolyline8623" points="0.82,446.03 24.16,400.69 49.14,349.46 65.55,314.08 102.55,232.04 120.61,194.12 131.62,172.79 141.85,154.46 152.79,136.53 162.84,121.6 169.94,111.93 177.38,102.51 185.18,93.39 193.36,84.61 201.92,76.21 208.6,70.18 215.5,64.4 225.02,57.1 234.9,50.29 242.54,45.52 252.99,39.64 261.04,35.6 272.01,30.76 280.43,27.57 288.99,24.8 297.69,22.51 306.51,20.74 315.44,19.56 324.42,19.02 333.41,19.15 342.37,19.97 351.25,21.47 359.99,23.62 371.37,27.39 379.69,30.82 390.46,36.1 398.31,40.51 408.47,46.89 418.3,53.77 427.83,61.06 439.35,70.67 448.26,78.71 459.05,89.12 467.41,97.74 485.33,117.93 502.06,139.11 519.37,163.61 535.52,188.89 552.27,217.32 572.59,254.08 599.39,304.39"   /><polyline id="SvgjsPolyline8624" points="7.11,599.64 38.69,552.19 61.21,516.73 82.78,480.7 104.68,441.39 123.94,404.07 140.87,368.93 155.76,336.16 184.58,270.18 194.65,248.4 206.95,224.36 212.89,213.93 219.18,203.72 229.41,188.91 240.68,174.88 246.73,168.22 253.09,161.85 264.35,151.96 276.5,143.16 284.22,138.53 289.54,135.77 300.61,131.15 306.34,129.37 312.17,127.98 321.08,126.72 327.07,126.47 333.07,126.71 339.02,127.43 344.9,128.62 350.67,130.26 356.31,132.3 364.49,136.05 372.31,140.5 377.32,143.79 384.56,149.14 391.48,154.89 404.46,167.36 418.42,183.04 429.58,197.16 441.9,214.16 455.3,234.08 471.35,259.42 500.66,308.31 568.4,425.08 599.32,476.5"   /><polyline id="SvgjsPolyline8625" points="1.24,419.25 20.05,381.7 38.33,343.89 53.6,311.28 91.06,229.45 110.53,188.88 122.96,164.91 134.72,144 145.73,126.11 157.55,108.76 164.72,99.14 172.23,89.78 180.09,80.72 188.32,71.98 196.93,63.63 203.64,57.63 210.56,51.87 220.1,44.6 230,37.81 240.22,31.52 250.75,25.77 258.83,21.81 269.84,17.06 278.28,13.91 286.84,11.16 295.54,8.85 304.36,7.04 316.25,5.49 325.24,5.03 334.23,5.22 343.19,6.06 352.07,7.55 360.82,9.65 369.41,12.33 377.82,15.51 388.75,20.46 399.34,26.1 407.07,30.71 417.1,37.3 426.84,44.31 438.62,53.59 450,63.36 467.4,79.88 477.79,90.71 485.82,99.62 503.01,120.44 512.06,132.4 520.77,144.62 537.29,169.65 555.86,200.49 576.37,237.14 599.06,279.44"   /><polyline id="SvgjsPolyline8626" points="22.1,598.89 54.11,551.73 78.41,513.85 101.6,475.29 123.6,436.04 143.08,398.83 160.24,363.81 174.04,333.83 200.51,273.37 210.54,251.57 221.48,230.21 232.19,212.15 242.46,197.38 251.91,185.73 262.26,174.89 273.58,165.05 278.39,161.46 285.92,156.53 296.54,150.96 302.09,148.7 307.79,146.83 316.57,144.88 322.53,144.2 328.53,144.05 334.51,144.44 340.44,145.37 346.26,146.8 351.95,148.71 357.48,151.03 362.84,153.73 368.02,156.76 375.45,161.83 387.03,171.36 393.53,177.58 399.74,184.09 411.44,197.77 420.58,209.66 430.99,224.34 440.96,239.33 452.22,257.06 477.17,298.06 558.76,434.53 582.29,472.89 599.88,500.81"   /><polyline id="SvgjsPolyline8627" points="1.32,392.46 28.81,335.77 80.78,224.29 100.44,183.82 112.9,159.86 124.61,138.91 135.49,120.95 147.1,103.46 161.44,84.22 175.06,68.24 181.22,61.68 189.77,53.26 196.43,47.2 205.62,39.5 215.18,32.24 222.57,27.11 232.72,20.7 240.52,16.22 251.18,10.71 259.35,6.94 276.11,0.38"   /><polyline id="SvgjsPolyline8628" points="373.33,0.98 387.19,6.7 403.17,14.98 418.46,24.47 433.11,34.92 447.18,46.14 462.9,60.06 477.88,74.78 492.1,90.23 505.58,106.33 516.55,120.6 528.74,137.7 540.35,155.2 554.56,178.16 568.15,201.48 582.75,227.69 599.86,259.36"   /><polyline id="SvgjsPolyline8629" points="37.09,598.3 69.5,551.41 94.05,513.7 120.65,470.19 145.99,425.93 167.22,386.25 184.53,351.31 197.02,324.03 219.54,271.67 229.56,249.86 237.85,233.89 247.12,218.46 253.97,208.61 263.39,196.95 271.7,188.29 280.73,180.4 290.55,173.51 298.43,169.18 303.93,166.78 309.61,164.84 318.39,162.89 324.36,162.3 330.35,162.32 339.27,163.48 345.08,164.97 350.73,166.98 356.2,169.44 361.47,172.31 371.41,179.02 376.09,182.77 382.79,188.78 393.18,199.59 402.79,211.1 415.26,228 430.15,250.52 442.79,270.92 489.38,347.92 527.25,409.16 570.35,477.74 599.74,523.04"   /><polyline id="SvgjsPolyline8630" points="1.11,365.66 23.13,319.66 69.13,221.94 88.94,181.54 99.98,160.23 111.52,139.19 123.71,118.52 133.39,103.34 145.37,86.1 158.23,69.49 170.03,55.91 182.62,43.05 196.02,31.04 210.23,19.99 225.2,10 240.85,1.12"   /><polyline id="SvgjsPolyline8631" points="400.8,0.02 413.8,7.49 426.38,15.66 440.93,26.25 454.94,37.55 466.2,47.46 479.21,59.9 491.67,72.89 503.57,86.39 514.92,100.36 525.75,114.73 536.12,129.45 547.69,146.97 558.78,164.8 569.5,182.86 582.86,206.32 598.75,235.24"   /><polyline id="SvgjsPolyline8632" points="52.1,597.86 83.2,553.71 99.95,528.83 114.71,506.22 148.13,452.81 163.55,427.08 178.55,401.1 192.94,374.78 207.73,345.28 219.98,317.9 236.88,276.19 243.94,259.64 251.78,243.44 260.8,227.87 267.65,218.02 273.29,211.01 281.55,202.31 288.35,196.42 295.7,191.22 303.59,186.91 311.99,183.7 320.78,181.84 329.77,181.51 338.67,182.74 347.26,185.4 352.73,187.86 357.97,190.77 367.77,197.68 376.73,205.66 384.98,214.37 394.48,225.97 405,240.57 416.47,258.17 463.01,335.2 491.8,380.88 560.66,486.4 599.09,543.71"   /><polyline id="SvgjsPolyline8633" points="0.7,338.85 52.13,230.43 75.96,181.98 86.99,160.67 98.44,139.57 108.89,121.36 119.86,103.45 131.45,85.94 141.98,71.34 153.14,57.22 165,43.68 177.62,30.85 188.74,20.79 202.82,9.58 215.13,1.01"   /><polyline id="SvgjsPolyline8634" points="425.38,0.59 437.74,9.08 449.73,18.08 461.36,27.56 472.62,37.47 483.5,47.8 493.99,58.52 504.09,69.61 515.7,83.36 524.96,95.16 535.63,109.66 554.08,137.01 565.21,154.82 575.97,172.85 599.62,214.62"   /><polyline id="SvgjsPolyline8635" points="65.35,600 83.03,575.76 103.83,546.37 146.03,484.38 185.57,424.2 198.34,403.89 210.66,383.29 222.27,362.29 229.03,348.9 234.1,338.02 243.27,315.85 256.31,279.09 262.82,262.31 269.2,248.74 276.81,235.83 282.1,228.54 287.99,221.75 294.55,215.59 299.31,211.95 307.05,207.37 312.58,205.05 318.36,203.43 324.3,202.61 330.29,202.63 336.23,203.47 339.14,204.19 347.54,207.37 355.36,211.82 362.57,217.2 369.23,223.25 377.39,232.04 384.89,241.41 393.58,253.63 401.75,266.21 443.47,335.64 469.27,376.11 504.59,428.28 567.51,519.72 598.43,563.99"   /><polyline id="SvgjsPolyline8636" points="0.16,312.04 38.86,230.78 62.83,182.4 73.88,161.09 86.75,137.35 97.15,119.12 108,101.14 119.39,83.49 129.66,68.71 140.48,54.33 149.98,42.72 159.95,31.51 170.43,20.79 181.45,10.62 193.02,1.06"   /><polyline id="SvgjsPolyline8637" points="447.26,1.16 456.8,8.44 468.39,17.95 477.41,25.87 488.33,36.15 496.79,44.66 507.01,55.64 524.42,76.27 540.69,97.82 559.25,125.09 578.25,155.67 599.3,192.01"   /><polyline id="SvgjsPolyline8638" points="80.36,599.85 107.22,563.74 206.15,427.96 225.14,400.97 241.43,375.78 248.98,362.82 254.6,352.22 259.75,341.38 263.26,333.09 266.42,324.67 270.06,313.24 277.53,284.18 281.05,272.71 285.56,261.6 288.28,256.25 291.35,251.1 294.81,246.2 298.69,241.62 303.01,237.46 307.78,233.84 313.02,230.91 318.64,228.85 321.57,228.2 327.54,227.71 333.5,228.32 339.28,229.93 344.75,232.38 349.88,235.47 354.68,239.07 361.32,245.15 367.38,251.79 373.01,258.82 379.99,268.57 388.18,281.14 419.19,332.51 431.91,352.86 445.04,372.95 456.86,390.3 479.45,422.09 530.78,492.34 599.42,587.09"   /><polyline id="SvgjsPolyline8639" points="73.48,599.99 91.28,575.84 115.76,541.71 179.4,450.77 206.37,411.06 217.71,393.38 225.48,380.56 237.11,359.57 243.79,346.14 248.71,335.19 256.23,315.59 267,281.24 271.99,267.1 278.13,253.42 284.16,243.05 289.47,235.79 293.42,231.28 297.73,227.1 302.41,223.36 307.47,220.14 312.89,217.57 318.61,215.78 324.54,214.89 330.53,214.95 336.45,215.93 342.16,217.76 350.2,221.77 357.56,226.94 364.3,232.9 370.51,239.41 378.12,248.68 385.16,258.4 393.42,270.92 436.82,342.84 448.07,360.57 462.96,383.09 486.85,417.64 599.6,576.73"   /><polyline id="SvgjsPolyline8640" points="0.87,282.5 26.8,228.39 52.3,177.41 64.86,153.52 76.4,132.47 96.11,98.82 105.72,83.6 115.73,68.64 126.2,54 135.33,42.1 144.88,30.54 154.89,19.37 165.39,8.66 174.17,0.47"   /><polyline id="SvgjsPolyline8641" points="466.65,0.94 482.61,14.58 499.94,31.18 516.25,48.78 533.44,69.59 549.53,91.27 564.71,113.6 580.73,138.96 599.11,169.92"   /><polyline id="SvgjsPolyline8642" points="95.38,599.86 146.74,533.39 172.85,500.5 197.63,470.38 246.02,413.08 266.85,387.48 283.31,366.09 309.96,329.83 313.86,325.27 318.29,321.24 320.83,319.64 323.61,318.53 326.56,318.05 329.55,318.24 332.46,318.97 335.23,320.11 337.87,321.53 342.82,324.92 351.81,332.86 364.1,346 379.56,364.36 419.12,413.39 436.3,434.22 496.67,504.96 521.72,534.85 546.31,565.12 572.42,598.02"   /><polyline id="SvgjsPolyline8643" points="89.24,598.28 161.48,502.46 227.77,417.2 242.1,397.95 254.16,380.75 262.32,368.17 269.94,355.25 276.79,341.91 281.49,330.87 284.42,322.36 286.72,313.67 288.37,304.82 290.54,289.98 292.47,281.19 295.32,272.66 299.22,264.56 304.35,257.18 308.53,252.88 310.86,250.99 315.98,247.88 318.75,246.74 324.6,245.44 327.59,245.31 330.58,245.53 336.41,246.93 341.88,249.37 346.95,252.57 351.62,256.33 355.96,260.47 360.02,264.89 365.69,271.88 370.99,279.15 379.3,291.64 417.39,352.74 430.65,372.74 444.33,392.46 467.33,423.95 527.21,502.79 598.84,599.06"   /><polyline id="SvgjsPolyline8644" points="0.34,255.65 23.98,207.1 45.85,164.37 65.95,127.5 84.16,96.45 93.7,81.18 103.58,66.14 120.98,41.7 128.31,32.2 137.83,20.61 145.76,11.6 156.08,0.72"   /><polyline id="SvgjsPolyline8645" points="486.02,1.56 499.21,13.82 513.87,28.85 527.76,44.59 540.95,60.93 555.24,80.21 567.17,97.49 581.86,120.15 599.06,148.31"   /><polyline id="SvgjsPolyline8646" points="112.22,597.71 152.15,548.99 169.71,528.48 185.67,510.55 204.05,490.78 218.67,475.7 235.69,458.78 253.06,442.22 266.37,430.1 277.76,420.35 287.2,412.94 297.11,406.17 304.97,401.8 313.3,398.4 322.07,396.44 328.05,396.14 334.02,396.69 342.73,398.93 348.28,401.19 356.24,405.39 363.79,410.28 371.02,415.64 380.28,423.27 389.23,431.26 404.44,445.74 421.42,462.7 484.09,527.3 514.66,560.32 548.22,598.72"   /><polyline id="SvgjsPolyline8647" points="103.53,598.89 148.34,542.53 179.06,505.65 212.91,467.51 260.17,417.24 274.85,402.22 285.6,391.76 294.55,383.77 301.62,378.2 309.18,373.33 314.59,370.74 320.3,368.94 326.25,368.18 332.23,368.58 338.04,370.01 343.6,372.26 351.45,376.66 358.8,381.85 365.78,387.52 374.69,395.56 383.29,403.93 408.13,429.99 497.38,527.24 527.04,561.08 557.84,597.89"   /><polyline id="SvgjsPolyline8648" points="99.9,598.63 144.27,541.93 178.34,500.03 207.63,465.87 281.33,382.87 295.76,367.62 306.92,357.61 311.8,354.12 317.08,351.27 322.79,349.48 325.76,349.11 331.74,349.5 337.49,351.18 342.9,353.76 347.99,356.93 355.17,362.35 361.96,368.26 376.85,383.06 393.06,400.76 440.62,454.82 504.41,526.56 533.56,560.83 563.96,597.99"   /><polyline id="SvgjsPolyline8649" points="93.73,598.33 161.33,510.29 185.64,479.79 240.66,412.4 255.39,393.45 267.77,376.49 277.81,361.56 285.57,348.72 291.17,338.11 296,327.13 299,318.65 301.09,309.9 301.83,303.95 302.35,294.96 303.28,289.04 304.89,283.26 307.25,277.75 310.45,272.68 312.39,270.4 316.99,266.57 319.63,265.16 322.46,264.17 325.41,263.65 328.41,263.6 331.38,264.01 334.26,264.82 337.04,265.96 342.21,269 346.9,272.72 351.22,276.89 359.02,286 371.21,303.1 397.39,343.33 412.42,365.76 424.44,382.98 438.53,402.4 463.99,435.81 530.78,520.68 590.72,599.47"   /><polyline id="SvgjsPolyline8650" points="96.86,599.77 146.56,535.81 174.73,500.72 201.7,468.53 254.52,407.11 298.52,353.97 306.77,345.26 311.36,341.4 313.85,339.73 316.5,338.34 322.15,336.32 325.09,335.74 328.08,335.65 331.06,336.01 336.76,337.85 342.05,340.66 347,344.06 351.68,347.81 358.34,353.85 372.92,368.97 390.71,389.27 441.26,448.68 512.19,530.11 540.97,564.71 569.19,599.76"   /><polyline id="SvgjsPolyline8651" points="96.12,597.68 138.18,542.99 165.95,507.58 194.36,472.69 242.47,415.14 266.74,384.62 280.95,365.29 292.72,347.89 302.08,332.52 312.04,314.03 317.01,306.54 318.98,304.28 321.31,302.4 324.02,301.12 326.97,300.65 329.94,300.97 332.8,301.88 335.49,303.2 340.45,306.57 347.14,312.58 357.22,323.68 372.2,342.43 406.7,387.81 432.62,420.85 453.49,446.41 520.74,527.05 545.14,557.47 578.46,599.97"   /><polyline id="SvgjsPolyline8652" points="1.27,226.08 17.26,193.82 36.6,156.54 55.42,122.38 73.71,91.38 89.79,66.05 106.82,41.36 123.17,19.88 138.7,1.58"   /><polyline id="SvgjsPolyline8653" points="503.11,0.94 515.8,13.71 527.92,27.01 539.51,40.78 550.61,54.95 561.28,69.44 573.26,86.69 584.81,104.23 599.15,127.1"   /><polyline id="SvgjsPolyline8654" points="127.21,598.26 158.86,562.18 173.13,546.78 187.75,531.7 202.74,517 218.13,502.71 231.65,490.83 245.49,479.31 259.69,468.26 271.88,459.53 281.97,453.02 292.44,447.17 300.62,443.41 309.1,440.42 317.87,438.45 326.84,437.72 332.83,437.99 341.69,439.5 350.29,442.16 358.55,445.72 366.48,449.97 374.12,454.72 383.95,461.61 393.45,468.94 407.27,480.46 423,494.38 464.65,533.29 498.84,566.97 529.83,599.6"   /><polyline id="SvgjsPolyline8655" points="117.75,599.63 154.56,556.11 182.77,525 199.47,507.76 214.44,493.04 229.77,478.68 245.45,464.72 261.56,451.24 273.38,442.02 283.16,435.07 293.35,428.74 301.35,424.62 309.72,421.32 318.45,419.14 327.4,418.4 333.39,418.78 342.2,420.58 347.88,422.49 356.09,426.17 363.93,430.59 373.89,437.28 383.43,444.55 392.66,452.22 406.11,464.18 423.62,480.59 449.46,505.66 475.01,531.02 508.39,565.52 538.65,598.81"   /><polyline id="SvgjsPolyline8656" points="107.61,597.8 149,546.39 166.32,525.68 184.01,505.29 200.08,487.46 220.6,465.58 239.42,446.21 258.55,427.16 271.58,414.75 282.78,404.77 292.16,397.29 299.61,392.24 307.55,388.03 316.02,384.99 321.87,383.69 327.85,383.31 333.82,383.9 339.63,385.35 345.23,387.51 353.19,391.69 360.7,396.65 370.19,404 379.23,411.88 387.99,420.08 402.89,434.89 421.64,454.31 489.62,526.28 519.77,559.68 552.93,598.43"   /><polyline id="SvgjsPolyline8657" points="94.19,599.42 141.7,537.56 165.75,506.86 190.27,476.53 243.88,411.86 258.79,393.05 269.62,378.68 278.34,366.47 286.67,354 292.96,343.78 298.76,333.28 302.62,325.15 304.87,319.59 306.79,313.9 310.8,299.45 313.28,294 316.74,289.11 318.84,286.96 321.31,285.27 324.1,284.19 327.07,283.82 330.05,284.11 332.92,284.96 335.64,286.21 340.64,289.51 347.29,295.57 355.19,304.6 367.84,321.36 407.85,377.57 433.07,411.15 455.4,439.39 523.62,523.12 547.75,553.76 582.62,598.85"   /><polyline id="SvgjsPolyline8658" points="1.14,199.2 17.5,167.13 34.53,135.41 49.33,109.32 64.77,83.6 79.3,60.84 94.53,38.55 108.77,19.23 123.81,0.53"   /><polyline id="SvgjsPolyline8659" points="520.21,1 530.39,12.01 540.2,23.35 549.68,34.98 558.84,46.86 567.72,58.95 579.74,76.16 599.45,106.29"   /><polyline id="SvgjsPolyline8660" points="142.16,599.26 169.05,571.02 181.89,558.4 195.04,546.11 208.54,534.2 222.38,522.71 236.6,511.67 248.75,502.87 261.21,494.52 271.44,488.25 281.96,482.49 292.85,477.43 301.27,474.28 309.94,471.86 318.8,470.33 327.78,469.85 333.77,470.15 342.67,471.51 348.48,472.97 357,475.89 365.23,479.51 373.2,483.68 383.47,489.89 393.4,496.63 403.07,503.73 414.89,512.97 428.78,524.41 447,540.04 480.46,570.13 510.73,599.24"   /><polyline id="SvgjsPolyline8661" points="133.92,598.59 149.95,580.73 164.28,565.38 176.84,552.49 189.69,539.88 202.85,527.61 216.34,515.69 230.17,504.17 244.36,493.1 256.5,484.29 269,476 281.88,468.32 292.58,462.9 300.9,459.47 309.49,456.79 318.32,455.07 327.3,454.48 333.29,454.76 342.17,456.18 350.82,458.66 359.17,462 367.22,466.02 375,470.54 385.02,477.14 394.72,484.21 408.83,495.38 422.59,506.99 458.37,538.97 491.08,569.87 520.65,599.7"   /><polyline id="SvgjsPolyline8662" points="1.31,172.3 13.85,148.39 28.29,122.09 40.26,101.29 54.23,78.19 67.14,57.95 80.56,38.06 92.77,20.98 107.36,1.92"   /><polyline id="SvgjsPolyline8663" points="537.28,1.72 552.77,20.05 567.47,39.02 583.23,60.95 599.95,85.85"   /><polyline id="SvgjsPolyline8664" points="159.07,598.66 172.01,586.15 185.27,573.98 196.6,564.14 208.19,554.62 220.04,545.44 232.18,536.62 244.61,528.22 254.77,521.84 265.15,515.82 275.78,510.26 286.71,505.31 295.12,502.12 303.73,499.5 312.52,497.59 318.47,496.77 327.45,496.32 333.45,496.56 342.37,497.72 348.23,498.99 356.85,501.56 365.24,504.82 373.39,508.64 381.32,512.89 391.6,519.07 411.39,532.65 435.19,550.91 462.95,573.82 492.24,599.58"   /><polyline id="SvgjsPolyline8665" points="149.35,598.49 174.79,573.03 187.98,560.78 199.24,550.87 213.1,539.38 224.93,530.17 237.04,521.32 249.45,512.89 262.19,504.98 272.67,499.13 283.46,493.88 291.78,490.47 300.3,487.57 308.99,485.22 317.85,483.7 326.83,483.15 335.82,483.63 341.75,484.52 347.6,485.83 356.19,488.5 364.53,491.87 372.62,495.82 380.48,500.2 390.65,506.57 400.54,513.37 412.59,522.3 438.34,542.93 470.2,570.3 501.13,598.7"   /><polyline id="SvgjsPolyline8666" points="0.43,148.06 22.14,108.65 34.29,87.95 46.87,67.51 59.92,47.37 70.04,32.48 80.46,17.81 93.05,1"   /><polyline id="SvgjsPolyline8667" points="552.31,0.72 563.67,14.68 574.63,28.96 586.97,45.95 598.92,63.22"   /><polyline id="SvgjsPolyline8668" points="175.97,598.94 196.62,581.55 215.73,567.03 228.05,558.47 238.11,551.94 258.84,539.84 269.53,534.39 277.7,530.64 286.04,527.24 294.54,524.28 303.21,521.87 312.03,520.1 317.98,519.34 326.96,518.89 332.96,519.07 341.9,520.07 347.79,521.2 356.49,523.51 362.17,525.43 370.52,528.79 378.66,532.62 386.62,536.83 402.04,546.11 424.28,561.41 445.84,577.66 471.56,598.33"   /><polyline id="SvgjsPolyline8669" points="1.34,121.15 19.17,89.88 39.59,56.65 57.85,29.17 77.09,2.36"   /><polyline id="SvgjsPolyline8670" points="567.35,0.08 583.84,21.46 599.61,43.38"   /><polyline id="SvgjsPolyline8671" points="195.05,598.35 211.98,585.93 232.04,572.77 250.22,562.26 269.03,552.93 285.72,546.2 300.08,541.87 308.88,540.01 314.82,539.14 326.79,538.4 338.76,539.07 344.7,539.93 353.49,541.84 364.94,545.41 378.78,551.18 394.74,559.5 410.13,568.83 430.02,582.26 451.8,598.22"   /><polyline id="SvgjsPolyline8672" points="1.22,96.88 16.45,71.03 32.4,45.63 47.41,23.18 63.06,1.18"   /><polyline id="SvgjsPolyline8673" points="584.27,2.17 598.62,21.4"   /><polyline id="SvgjsPolyline8674" points="214.08,599.15 229.34,589.59 245.01,580.75 261.13,572.74 277.72,565.76 291.94,561 303.58,558.11 315.43,556.27 327.41,555.64 339.39,556.33 351.21,558.33 362.78,561.49 374.05,565.62 387.69,571.84 400.91,578.93 416.32,588.23 433.84,599.81"   /><polyline id="SvgjsPolyline8675" points="1.5,72.6 10.83,57.2 23.69,36.94 35.35,19.47 47.4,2.28"   /><polyline id="SvgjsPolyline8676" points="235.47,599.9 248.79,593 262.4,586.7 273.52,582.18 284.84,578.22 296.39,574.97 305.19,573.1 317.08,571.5 326.07,571.07 335.06,571.33 344.01,572.31 352.85,573.96 364.43,577.11 375.72,581.18 386.71,585.98 400.09,592.76 410.54,598.67"   /><polyline id="SvgjsPolyline8677" points="0.63,50.89 16.73,25.59 33.63,0.8"   /><polyline id="SvgjsPolyline8678" points="261.75,599.98 278.59,593.64 287.18,590.95 295.88,588.66 310.63,585.93 319.58,585.05 325.58,584.83 331.58,584.9 340.55,585.57 346.49,586.38 355.32,588.14 369.72,592.31 378.16,595.44 386.44,598.96"   /><polyline id="SvgjsPolyline8679" points="0.09,29.18 18.31,1.66"   /><polyline id="SvgjsPolyline8680" points="301.35,599.73 316.2,597.65 328.19,597.19 340.16,597.86 352.02,599.67"   /><polyline id="SvgjsPolyline8681" points="1.6,4.92 3.26,2.42"   /></g></svg>